<?xml version="1.0" encoding="utf-8" standalone="no"?>
<!DOCTYPE svg PUBLIC "-//W3C//DTD SVG 1.1//EN"
  "http://www.w3.org/Graphics/SVG/1.1/DTD/svg11.dtd">
<svg xmlns:xlink="http://www.w3.org/1999/xlink" width="727.852912pt" height="368.39952pt" viewBox="0 0 727.852912 368.39952" xmlns="http://www.w3.org/2000/svg" version="1.1">
 <metadata>
  <rdf:RDF xmlns:dc="http://purl.org/dc/elements/1.1/" xmlns:cc="http://creativecommons.org/ns#" xmlns:rdf="http://www.w3.org/1999/02/22-rdf-syntax-ns#">
   <cc:Work>
    <dc:type rdf:resource="http://purl.org/dc/dcmitype/StillImage"/>
    <dc:date>2023-11-01T02:20:23.503579</dc:date>
    <dc:format>image/svg+xml</dc:format>
    <dc:creator>
     <cc:Agent>
      <dc:title>Matplotlib v3.8.1, https://matplotlib.org/</dc:title>
     </cc:Agent>
    </dc:creator>
   </cc:Work>
  </rdf:RDF>
 </metadata>
 <defs>
  <style type="text/css">*{stroke-linejoin: round; stroke-linecap: butt}</style>
 </defs>
 <g id="figure_1">
  <g id="patch_1">
   <path d="M 0 368.39952 
L 727.852912 368.39952 
L 727.852912 0 
L 0 0 
z
" style="fill: #ffffff"/>
  </g>
  <g id="axes_1">
   <g id="patch_2">
    <path d="M 69.838979 305.757661 
L 277.13712 305.757661 
L 277.13712 28.212 
L 69.838979 28.212 
z
" style="fill: #ffffff"/>
   </g>
   <g id="QuadContourSet_1">
    <path d="M 76.317046 305.757661 
L 82.795113 305.757661 
L 89.27318 305.757661 
L 95.751247 305.757661 
L 102.229314 305.757661 
L 108.70738 305.757661 
L 115.185447 305.757661 
L 121.663514 305.757661 
L 128.141581 305.757661 
L 134.619648 305.757661 
L 141.097715 305.757661 
L 147.575782 305.757661 
L 154.053849 305.757661 
L 160.531916 305.757661 
L 167.009983 305.757661 
L 173.488049 305.757661 
L 179.966116 305.757661 
L 186.444183 305.757661 
L 192.92225 305.757661 
L 199.400317 305.757661 
L 205.878384 305.757661 
L 212.356451 305.757661 
L 218.834518 305.757661 
L 225.312585 305.757661 
L 231.790652 305.757661 
L 238.268718 305.757661 
L 244.746785 305.757661 
L 251.224852 305.757661 
L 257.702919 305.757661 
L 264.180986 305.757661 
L 270.659053 305.757661 
L 277.13712 305.757661 
L 277.13712 297.084359 
L 277.13712 288.411057 
L 277.13712 279.737755 
L 277.13712 271.064453 
L 277.13712 262.391151 
L 277.13712 253.71785 
L 277.13712 245.044548 
L 277.13712 236.371246 
L 277.13712 227.697944 
L 277.13712 219.024642 
L 277.13712 210.35134 
L 277.13712 201.678038 
L 277.13712 193.004736 
L 277.13712 184.331434 
L 277.13712 175.658132 
L 277.13712 166.98483 
L 277.13712 158.311529 
L 277.13712 149.638227 
L 277.13712 140.964925 
L 277.13712 132.291623 
L 277.13712 123.618321 
L 277.13712 114.945019 
L 277.13712 106.271717 
L 277.13712 97.598415 
L 277.13712 88.925113 
L 277.13712 80.251811 
L 277.13712 71.57851 
L 277.13712 62.905208 
L 277.13712 54.231906 
L 277.13712 45.558604 
L 277.13712 36.885302 
L 277.13712 28.212 
L 270.659053 28.212 
L 264.180986 28.212 
L 257.702919 28.212 
L 251.224852 28.212 
L 244.746785 28.212 
L 238.268718 28.212 
L 231.790652 28.212 
L 225.312585 28.212 
L 218.834518 28.212 
L 212.356451 28.212 
L 205.878384 28.212 
L 199.400317 28.212 
L 192.92225 28.212 
L 186.444183 28.212 
L 179.966116 28.212 
L 173.488049 28.212 
L 167.009983 28.212 
L 160.531916 28.212 
L 154.053849 28.212 
L 147.575782 28.212 
L 141.097715 28.212 
L 134.619648 28.212 
L 128.141581 28.212 
L 121.663514 28.212 
L 115.185447 28.212 
L 108.70738 28.212 
L 102.229314 28.212 
L 95.751247 28.212 
L 89.27318 28.212 
L 82.795113 28.212 
L 76.317046 28.212 
L 69.838979 28.212 
L 69.838979 36.885302 
L 69.838979 45.558604 
L 69.838979 54.231906 
L 69.838979 62.905208 
L 69.838979 71.57851 
L 69.838979 80.251811 
L 69.838979 88.925113 
L 69.838979 97.598415 
L 69.838979 106.271717 
L 69.838979 114.945019 
L 69.838979 123.618321 
L 69.838979 132.291623 
L 69.838979 140.964925 
L 69.838979 149.638227 
L 69.838979 158.311529 
L 69.838979 166.98483 
L 69.838979 175.658132 
L 69.838979 184.331434 
L 69.838979 193.004736 
L 69.838979 201.678038 
L 69.838979 210.35134 
L 69.838979 219.024642 
L 69.838979 227.697944 
L 69.838979 236.371246 
L 69.838979 245.044548 
L 69.838979 253.71785 
L 69.838979 262.391151 
L 69.838979 271.064453 
L 69.838979 279.737755 
L 69.838979 288.411057 
L 69.838979 297.084359 
L 69.838979 305.757661 
z
" clip-path="url(#p98682b52ab)" style="fill: #8db0fe"/>
    <path clip-path="url(#p98682b52ab)" style="fill: #f4987a"/>
   </g>
   <g id="matplotlib.axis_1">
    <g id="xtick_1">
     <g id="line2d_1">
      <defs>
       <path id="mce40c6f59f" d="M 0 0 
L 0 3.5 
" style="stroke: #5a5758; stroke-width: 0.8"/>
      </defs>
      <g>
       <use xlink:href="#mce40c6f59f" x="69.838979" y="317.757661" style="fill: #5a5758; stroke: #5a5758; stroke-width: 0.8"/>
      </g>
     </g>
     <g id="text_1">
      <!-- 0.0 -->
      <g style="fill: #5a5758" transform="translate(59.777771 335.178491) scale(0.14994 -0.14994)">
       <defs>
        <path id="CMUBright-Roman-30" d="M 333 1984 
L 333 2086 
Q 333 2291 339 2438 
Q 346 2586 371 2832 
Q 397 3078 461 3267 
Q 525 3456 621 3657 
Q 717 3859 880 4006 
Q 1043 4154 1261 4230 
Q 1446 4301 1677 4301 
Q 1856 4301 2025 4256 
Q 2195 4211 2380 4070 
Q 2566 3930 2704 3709 
Q 2842 3488 2931 3104 
Q 3021 2720 3021 2214 
Q 3021 1683 2982 1347 
Q 2944 1011 2803 685 
Q 2618 250 2307 70 
Q 1997 -109 1677 -109 
Q 1498 -109 1328 -64 
Q 1158 -19 972 121 
Q 787 262 649 483 
Q 512 704 422 1091 
Q 333 1478 333 1984 
z
M 742 2413 
Q 742 2374 745 2326 
Q 749 2278 749 2272 
L 749 2150 
Q 749 1779 758 1548 
Q 768 1318 838 1014 
Q 909 710 1037 538 
Q 1286 218 1677 218 
Q 2086 218 2330 557 
Q 2451 730 2518 1037 
Q 2586 1344 2595 1568 
Q 2605 1792 2605 2163 
L 2605 2272 
Q 2605 2278 2608 2323 
Q 2611 2368 2611 2406 
Q 2611 3302 2336 3661 
Q 2099 3981 1677 3981 
Q 1242 3981 1005 3642 
Q 742 3264 742 2413 
z
" transform="scale(0.015625)"/>
        <path id="CMUBright-Roman-2e" d="M 678 0 
L 678 499 
L 1178 499 
L 1178 0 
L 678 0 
z
" transform="scale(0.015625)"/>
       </defs>
       <use xlink:href="#CMUBright-Roman-30"/>
       <use xlink:href="#CMUBright-Roman-2e" x="52.499985"/>
       <use xlink:href="#CMUBright-Roman-30" x="81.699982"/>
      </g>
     </g>
    </g>
    <g id="xtick_2">
     <g id="line2d_2">
      <g>
       <use xlink:href="#mce40c6f59f" x="121.663514" y="317.757661" style="fill: #5a5758; stroke: #5a5758; stroke-width: 0.8"/>
      </g>
     </g>
     <g id="text_2">
      <!-- 0.5 -->
      <g style="fill: #5a5758" transform="translate(111.602306 335.178491) scale(0.14994 -0.14994)">
       <defs>
        <path id="CMUBright-Roman-35" d="M 301 518 
L 486 819 
Q 896 224 1581 224 
Q 1971 224 2268 473 
Q 2566 723 2566 1312 
Q 2566 1626 2489 1846 
Q 2413 2067 2285 2176 
Q 2157 2285 2032 2329 
Q 1907 2374 1773 2374 
Q 1210 2374 941 1901 
L 582 1901 
L 582 4192 
L 2797 4192 
L 2797 3853 
L 973 3853 
L 973 2381 
Q 1325 2701 1779 2701 
Q 2285 2701 2653 2291 
Q 3021 1882 3021 1306 
Q 3021 723 2601 307 
Q 2182 -109 1574 -109 
Q 813 -109 301 518 
z
" transform="scale(0.015625)"/>
       </defs>
       <use xlink:href="#CMUBright-Roman-30"/>
       <use xlink:href="#CMUBright-Roman-2e" x="52.499985"/>
       <use xlink:href="#CMUBright-Roman-35" x="81.699982"/>
      </g>
     </g>
    </g>
    <g id="xtick_3">
     <g id="line2d_3">
      <g>
       <use xlink:href="#mce40c6f59f" x="173.488049" y="317.757661" style="fill: #5a5758; stroke: #5a5758; stroke-width: 0.8"/>
      </g>
     </g>
     <g id="text_3">
      <!-- 1.0 -->
      <g style="fill: #5a5758" transform="translate(163.426841 335.178491) scale(0.14994 -0.14994)">
       <defs>
        <path id="CMUBright-Roman-31" d="M 672 3558 
L 672 3885 
Q 1427 3885 1862 4301 
L 1965 4301 
L 1965 320 
L 2803 320 
L 2803 0 
L 710 0 
L 710 320 
L 1549 320 
L 1549 3744 
Q 1178 3558 672 3558 
z
" transform="scale(0.015625)"/>
       </defs>
       <use xlink:href="#CMUBright-Roman-31"/>
       <use xlink:href="#CMUBright-Roman-2e" x="52.499985"/>
       <use xlink:href="#CMUBright-Roman-30" x="81.699982"/>
      </g>
     </g>
    </g>
    <g id="xtick_4">
     <g id="line2d_4">
      <g>
       <use xlink:href="#mce40c6f59f" x="225.312585" y="317.757661" style="fill: #5a5758; stroke: #5a5758; stroke-width: 0.8"/>
      </g>
     </g>
     <g id="text_4">
      <!-- 1.5 -->
      <g style="fill: #5a5758" transform="translate(215.251376 335.178491) scale(0.14994 -0.14994)">
       <use xlink:href="#CMUBright-Roman-31"/>
       <use xlink:href="#CMUBright-Roman-2e" x="52.499985"/>
       <use xlink:href="#CMUBright-Roman-35" x="81.699982"/>
      </g>
     </g>
    </g>
    <g id="xtick_5">
     <g id="line2d_5">
      <g>
       <use xlink:href="#mce40c6f59f" x="277.13712" y="317.757661" style="fill: #5a5758; stroke: #5a5758; stroke-width: 0.8"/>
      </g>
     </g>
     <g id="text_5">
      <!-- 2.0 -->
      <g style="fill: #5a5758" transform="translate(267.075912 335.178491) scale(0.14994 -0.14994)">
       <defs>
        <path id="CMUBright-Roman-32" d="M 275 3226 
Q 595 4301 1587 4301 
L 1594 4301 
Q 2214 4294 2617 3923 
Q 3021 3552 3021 2989 
Q 3021 2746 2937 2531 
Q 2854 2317 2668 2115 
Q 2483 1914 2384 1821 
Q 2285 1728 2061 1549 
Q 1754 1299 1642 1203 
Q 1530 1107 698 358 
L 3021 358 
L 3021 0 
L 333 0 
L 333 339 
L 1683 1562 
Q 2144 1965 2368 2278 
Q 2592 2592 2592 2982 
Q 2592 3418 2278 3690 
Q 1965 3962 1498 3962 
Q 1069 3962 854 3693 
Q 640 3424 512 2938 
L 275 3226 
z
" transform="scale(0.015625)"/>
       </defs>
       <use xlink:href="#CMUBright-Roman-32"/>
       <use xlink:href="#CMUBright-Roman-2e" x="52.499985"/>
       <use xlink:href="#CMUBright-Roman-30" x="81.699982"/>
      </g>
     </g>
    </g>
    <g id="text_6">
     <!-- x -->
     <g style="fill: #5a5758" transform="translate(169.366331 358.192957) scale(0.18 -0.18)">
      <defs>
       <path id="CMUBright-SemiBold-78" d="M 0 0 
L 1184 1562 
L 1184 1568 
L 38 3021 
L 698 3021 
L 1446 2022 
L 2163 3021 
L 2816 3021 
L 1709 1568 
L 1709 1562 
L 2931 0 
L 2272 0 
L 1446 1197 
L 1440 1197 
L 653 0 
L 0 0 
z
" transform="scale(0.015625)"/>
      </defs>
      <use xlink:href="#CMUBright-SemiBold-78"/>
     </g>
    </g>
   </g>
   <g id="matplotlib.axis_2">
    <g id="ytick_1">
     <g id="line2d_6">
      <defs>
       <path id="m5db0a08908" d="M 0 0 
L -3.5 0 
" style="stroke: #5a5758; stroke-width: 0.8"/>
      </defs>
      <g>
       <use xlink:href="#m5db0a08908" x="57.838979" y="305.757661" style="fill: #5a5758; stroke: #5a5758; stroke-width: 0.8"/>
      </g>
     </g>
     <g id="text_7">
      <!-- 0.0 -->
      <g style="fill: #5a5758" transform="translate(30.716563 310.968076) scale(0.14994 -0.14994)">
       <use xlink:href="#CMUBright-Roman-30"/>
       <use xlink:href="#CMUBright-Roman-2e" x="52.499985"/>
       <use xlink:href="#CMUBright-Roman-30" x="81.699982"/>
      </g>
     </g>
    </g>
    <g id="ytick_2">
     <g id="line2d_7">
      <g>
       <use xlink:href="#m5db0a08908" x="57.838979" y="250.248529" style="fill: #5a5758; stroke: #5a5758; stroke-width: 0.8"/>
      </g>
     </g>
     <g id="text_8">
      <!-- 0.2 -->
      <g style="fill: #5a5758" transform="translate(30.716563 255.458944) scale(0.14994 -0.14994)">
       <use xlink:href="#CMUBright-Roman-30"/>
       <use xlink:href="#CMUBright-Roman-2e" x="52.499985"/>
       <use xlink:href="#CMUBright-Roman-32" x="81.699982"/>
      </g>
     </g>
    </g>
    <g id="ytick_3">
     <g id="line2d_8">
      <g>
       <use xlink:href="#m5db0a08908" x="57.838979" y="194.739397" style="fill: #5a5758; stroke: #5a5758; stroke-width: 0.8"/>
      </g>
     </g>
     <g id="text_9">
      <!-- 0.4 -->
      <g style="fill: #5a5758" transform="translate(30.716563 199.949812) scale(0.14994 -0.14994)">
       <defs>
        <path id="CMUBright-Roman-34" d="M 186 1158 
L 186 1504 
L 1952 4250 
L 2438 4250 
L 2438 1498 
L 3168 1498 
L 3168 1158 
L 2438 1158 
L 2438 0 
L 2035 0 
L 2035 1158 
L 186 1158 
z
M 602 1498 
L 2054 1498 
L 2054 3885 
Q 1971 3667 1606 3085 
L 602 1498 
z
" transform="scale(0.015625)"/>
       </defs>
       <use xlink:href="#CMUBright-Roman-30"/>
       <use xlink:href="#CMUBright-Roman-2e" x="52.499985"/>
       <use xlink:href="#CMUBright-Roman-34" x="81.699982"/>
      </g>
     </g>
    </g>
    <g id="ytick_4">
     <g id="line2d_9">
      <g>
       <use xlink:href="#m5db0a08908" x="57.838979" y="139.230264" style="fill: #5a5758; stroke: #5a5758; stroke-width: 0.8"/>
      </g>
     </g>
     <g id="text_10">
      <!-- 0.6 -->
      <g style="fill: #5a5758" transform="translate(30.716563 144.440679) scale(0.14994 -0.14994)">
       <defs>
        <path id="CMUBright-Roman-36" d="M 346 2061 
Q 346 3072 864 3686 
Q 1382 4301 2074 4301 
L 2086 4301 
Q 2426 4301 2797 4179 
L 2797 3846 
Q 2374 3981 2074 3981 
L 2061 3981 
Q 1478 3981 1123 3491 
Q 768 3002 768 2208 
Q 768 2195 771 2166 
Q 774 2138 774 2125 
Q 928 2445 1238 2665 
Q 1549 2886 1952 2886 
Q 2387 2886 2682 2483 
Q 3008 2029 3008 1408 
Q 3008 768 2618 326 
Q 2240 -109 1690 -109 
Q 1510 -109 1340 -57 
Q 1171 -6 985 141 
Q 800 288 662 521 
Q 525 755 435 1152 
Q 346 1549 346 2061 
z
M 794 1389 
Q 813 1171 854 1004 
Q 896 838 985 643 
Q 1075 448 1254 336 
Q 1434 224 1690 224 
Q 2138 224 2381 550 
Q 2515 736 2550 921 
Q 2586 1107 2586 1434 
Q 2586 1645 2573 1776 
Q 2560 1907 2480 2089 
Q 2400 2272 2253 2400 
Q 2054 2566 1728 2566 
Q 1325 2566 1062 2265 
Q 800 1965 800 1555 
Q 800 1440 806 1389 
L 794 1389 
z
" transform="scale(0.015625)"/>
       </defs>
       <use xlink:href="#CMUBright-Roman-30"/>
       <use xlink:href="#CMUBright-Roman-2e" x="52.499985"/>
       <use xlink:href="#CMUBright-Roman-36" x="81.699982"/>
      </g>
     </g>
    </g>
    <g id="ytick_5">
     <g id="line2d_10">
      <g>
       <use xlink:href="#m5db0a08908" x="57.838979" y="83.721132" style="fill: #5a5758; stroke: #5a5758; stroke-width: 0.8"/>
      </g>
     </g>
     <g id="text_11">
      <!-- 0.8 -->
      <g style="fill: #5a5758" transform="translate(30.716563 88.931547) scale(0.14994 -0.14994)">
       <defs>
        <path id="CMUBright-Roman-38" d="M 275 1158 
Q 275 1517 518 1817 
Q 762 2118 1248 2266 
Q 909 2349 640 2598 
Q 371 2848 371 3206 
Q 371 3642 745 3971 
Q 1120 4301 1677 4301 
Q 2221 4301 2601 3981 
Q 2982 3661 2982 3213 
Q 2982 2918 2787 2684 
Q 2592 2451 2285 2323 
L 2099 2266 
Q 2464 2176 2768 1885 
Q 3072 1594 3072 1158 
Q 3072 646 2665 268 
Q 2259 -109 1670 -109 
Q 1075 -109 675 275 
Q 275 659 275 1158 
z
M 698 1158 
Q 698 704 970 464 
Q 1242 224 1670 224 
Q 2118 224 2384 470 
Q 2650 717 2650 1165 
Q 2650 1619 2371 1862 
Q 2093 2106 1670 2106 
Q 1280 2106 989 1878 
Q 698 1651 698 1158 
z
M 755 3206 
Q 755 2886 982 2656 
Q 1210 2426 1670 2426 
Q 2093 2426 2342 2634 
Q 2592 2842 2592 3206 
Q 2592 3507 2387 3744 
Q 2182 3981 1683 3981 
Q 1171 3981 963 3744 
Q 755 3507 755 3206 
z
" transform="scale(0.015625)"/>
       </defs>
       <use xlink:href="#CMUBright-Roman-30"/>
       <use xlink:href="#CMUBright-Roman-2e" x="52.499985"/>
       <use xlink:href="#CMUBright-Roman-38" x="81.699982"/>
      </g>
     </g>
    </g>
    <g id="ytick_6">
     <g id="line2d_11">
      <g>
       <use xlink:href="#m5db0a08908" x="57.838979" y="28.212" style="fill: #5a5758; stroke: #5a5758; stroke-width: 0.8"/>
      </g>
     </g>
     <g id="text_12">
      <!-- 1.0 -->
      <g style="fill: #5a5758" transform="translate(30.716563 33.422415) scale(0.14994 -0.14994)">
       <use xlink:href="#CMUBright-Roman-31"/>
       <use xlink:href="#CMUBright-Roman-2e" x="52.499985"/>
       <use xlink:href="#CMUBright-Roman-30" x="81.699982"/>
      </g>
     </g>
    </g>
    <g id="text_13">
     <!-- y -->
     <g style="fill: #5a5758" transform="translate(19.566563 171.106549) rotate(-90) scale(0.18 -0.18)">
      <defs>
       <path id="CMUBright-SemiBold-79" d="M 90 3021 
L 704 3021 
Q 1344 1344 1440 979 
Q 1485 787 1510 614 
Q 1536 979 2138 2733 
Q 2208 2925 2240 3021 
L 2835 3021 
L 1722 -128 
Q 1562 -576 1331 -848 
Q 1101 -1120 685 -1120 
Q 538 -1120 205 -1075 
L 154 -544 
Q 480 -640 691 -640 
Q 749 -640 797 -630 
Q 845 -621 883 -608 
Q 922 -595 960 -563 
Q 998 -531 1020 -512 
Q 1043 -493 1075 -441 
Q 1107 -390 1120 -368 
Q 1133 -346 1158 -282 
Q 1184 -218 1193 -195 
Q 1203 -173 1228 -96 
Q 1254 -19 1261 0 
L 90 3021 
z
" transform="scale(0.015625)"/>
      </defs>
      <use xlink:href="#CMUBright-SemiBold-79"/>
     </g>
    </g>
   </g>
   <g id="patch_3">
    <path d="M 57.838979 305.757661 
L 57.838979 28.212 
" style="fill: none; stroke: #5a5758; stroke-width: 0.8; stroke-linejoin: miter; stroke-linecap: square"/>
   </g>
   <g id="patch_4">
    <path d="M 69.838979 317.757661 
L 277.13712 317.757661 
" style="fill: none; stroke: #5a5758; stroke-width: 0.8; stroke-linejoin: miter; stroke-linecap: square"/>
   </g>
   <g id="text_14">
    <!-- Inital state $N=32, \omega=1.9$ -->
    <g style="fill: #5a5758" transform="translate(51.988049 22.212) scale(0.216 -0.216)">
     <defs>
      <path id="CMUBright-Roman-49" d="M 627 0 
L 627 4448 
L 1075 4448 
L 1075 0 
L 627 0 
z
" transform="scale(0.015625)"/>
      <path id="CMUBright-Roman-6e" d="M 512 0 
L 512 3021 
L 909 3021 
L 909 2400 
Q 1030 2682 1273 2877 
Q 1517 3072 1869 3072 
Q 2125 3072 2307 2992 
Q 2490 2912 2579 2809 
Q 2669 2707 2720 2540 
Q 2771 2374 2777 2272 
Q 2784 2170 2784 2016 
L 2784 0 
L 2374 0 
L 2374 1990 
Q 2374 2106 2371 2176 
Q 2368 2246 2329 2368 
Q 2291 2490 2220 2563 
Q 2150 2637 2006 2694 
Q 1862 2752 1658 2752 
Q 1370 2752 1149 2518 
Q 928 2285 928 1677 
L 928 0 
L 512 0 
z
" transform="scale(0.015625)"/>
      <path id="CMUBright-Roman-69" d="M 509 4019 
L 509 4422 
L 912 4422 
L 912 4019 
L 509 4019 
z
M 512 0 
L 512 3021 
L 915 3021 
L 915 0 
L 512 0 
z
" transform="scale(0.015625)"/>
      <path id="CMUBright-Roman-74" d="M 122 2701 
L 122 3021 
L 736 3021 
L 736 3885 
L 1126 3885 
L 1126 3021 
L 2118 3021 
L 2118 2701 
L 1126 2701 
L 1126 883 
Q 1126 282 1491 282 
Q 1568 282 1638 291 
Q 1709 301 1769 323 
Q 1830 346 1878 365 
Q 1926 384 1974 416 
Q 2022 448 2048 464 
Q 2074 480 2109 512 
Q 2144 544 2150 544 
L 2234 230 
Q 1779 -51 1261 -51 
Q 730 -51 730 838 
L 730 2701 
L 122 2701 
z
" transform="scale(0.015625)"/>
      <path id="CMUBright-Roman-61" d="M 352 736 
Q 352 896 435 1046 
Q 518 1197 707 1347 
Q 896 1498 1283 1590 
Q 1670 1683 2214 1696 
L 2214 1965 
Q 2214 2381 2042 2579 
Q 1856 2803 1568 2803 
Q 1331 2803 1107 2736 
Q 883 2669 809 2624 
Q 736 2579 557 2470 
L 525 2829 
Q 1043 3104 1574 3104 
Q 2054 3104 2326 2806 
Q 2598 2509 2624 2144 
L 2630 1926 
L 2630 0 
L 2227 0 
L 2227 442 
Q 1830 -51 1107 -51 
L 1062 -51 
Q 710 -51 531 205 
Q 352 461 352 736 
z
M 749 749 
Q 749 518 950 393 
Q 1152 269 1408 269 
Q 1523 269 1644 297 
Q 1766 326 1904 390 
Q 2042 454 2128 595 
Q 2214 736 2214 928 
L 2214 1498 
Q 1568 1491 1158 1286 
Q 749 1082 749 749 
z
" transform="scale(0.015625)"/>
      <path id="CMUBright-Roman-6c" d="M 512 0 
L 512 4448 
L 915 4448 
L 915 0 
L 512 0 
z
" transform="scale(0.015625)"/>
      <path id="CMUBright-Roman-20" transform="scale(0.015625)"/>
      <path id="CMUBright-Roman-73" d="M 186 250 
L 250 621 
Q 787 282 1325 282 
Q 1715 282 1881 442 
Q 2048 602 2048 806 
Q 2048 998 1910 1120 
Q 1773 1242 1606 1299 
Q 1536 1318 1235 1372 
Q 934 1427 726 1523 
Q 518 1619 371 1818 
Q 224 2022 224 2253 
Q 224 2400 272 2531 
Q 320 2662 429 2800 
Q 538 2938 765 3021 
Q 992 3104 1312 3104 
L 1331 3104 
Q 1818 3104 2304 2886 
L 2240 2534 
Q 1747 2784 1267 2784 
Q 890 2784 742 2633 
Q 595 2483 595 2304 
Q 595 2163 697 2038 
Q 800 1914 998 1856 
Q 1037 1843 1344 1782 
Q 1651 1722 1760 1683 
Q 2029 1587 2224 1372 
Q 2419 1158 2419 845 
Q 2419 499 2172 224 
Q 1926 -51 1331 -51 
Q 736 -51 186 250 
z
" transform="scale(0.015625)"/>
      <path id="CMUBright-Roman-65" d="M 269 1536 
Q 269 2163 646 2630 
Q 1024 3098 1587 3098 
Q 1786 3098 1968 3037 
Q 2150 2976 2342 2829 
Q 2534 2682 2652 2365 
Q 2771 2048 2771 1600 
L 653 1600 
L 653 1549 
Q 653 966 966 617 
Q 1280 269 1690 269 
Q 2234 269 2726 710 
L 2758 358 
Q 2266 -51 1690 -51 
Q 1101 -51 685 406 
Q 269 864 269 1536 
z
M 685 1856 
L 2426 1856 
Q 2381 2342 2134 2560 
Q 1888 2778 1587 2778 
Q 1261 2778 1008 2515 
Q 755 2253 685 1856 
z
" transform="scale(0.015625)"/>
      <path id="CMUBright-Roman-4e" d="M 640 0 
L 640 4448 
L 1267 4448 
L 3488 371 
L 3488 4448 
L 3891 4448 
L 3891 0 
L 3264 0 
L 1043 4077 
L 1043 0 
L 640 0 
z
" transform="scale(0.015625)"/>
      <path id="CMUBright-Roman-3d" d="M 378 1062 
Q 378 1229 576 1229 
L 3533 1229 
Q 3725 1222 3725 1062 
Q 3725 909 3514 909 
L 589 909 
Q 378 909 378 1062 
z
M 378 2304 
Q 378 2470 582 2470 
L 3533 2470 
Q 3725 2464 3725 2304 
Q 3725 2150 3514 2150 
L 589 2150 
Q 378 2150 378 2304 
z
" transform="scale(0.015625)"/>
      <path id="CMUBright-Roman-33" d="M 282 653 
Q 282 666 285 685 
Q 288 704 304 774 
Q 320 845 339 941 
Q 557 640 861 464 
Q 1165 288 1341 256 
Q 1517 224 1683 224 
Q 2112 224 2368 486 
Q 2624 749 2624 1165 
Q 2624 1574 2381 1824 
Q 2138 2074 1773 2099 
L 1555 2106 
L 1114 2106 
L 1114 2426 
Q 1709 2470 1862 2528 
Q 2099 2618 2281 2838 
Q 2464 3059 2464 3360 
Q 2464 3642 2256 3811 
Q 2048 3981 1702 3981 
Q 973 3981 570 3258 
L 371 3539 
Q 845 4301 1702 4301 
Q 2202 4301 2544 4025 
Q 2886 3750 2886 3360 
Q 2886 3059 2704 2761 
Q 2522 2464 2106 2272 
Q 2579 2144 2825 1833 
Q 3072 1523 3072 1158 
Q 3072 666 2685 278 
Q 2298 -109 1690 -109 
Q 1402 -109 1126 -9 
Q 851 90 675 221 
Q 499 352 390 473 
Q 282 595 282 653 
z
" transform="scale(0.015625)"/>
      <path id="CMUBright-Roman-2c" d="M 678 0 
L 678 499 
L 1184 499 
L 1184 186 
L 1178 0 
L 934 -710 
L 678 -710 
L 832 0 
L 678 0 
z
" transform="scale(0.015625)"/>
      <path id="CMUBright-Roman-3c9" d="M 262 1286 
Q 262 2182 1107 3021 
L 1600 3021 
Q 1178 2573 1018 2330 
Q 678 1805 678 1280 
Q 678 851 867 566 
Q 1056 282 1357 282 
Q 1619 282 1833 531 
Q 2048 781 2048 1344 
L 2048 1920 
L 2426 1920 
L 2426 1344 
Q 2426 781 2640 531 
Q 2854 282 3117 282 
Q 3418 282 3606 566 
Q 3795 851 3795 1280 
Q 3795 1632 3628 1993 
Q 3462 2355 3305 2544 
Q 3149 2733 2931 2963 
Q 2893 3002 2874 3021 
L 3366 3021 
Q 4211 2182 4211 1286 
Q 4211 742 3900 345 
Q 3590 -51 3117 -51 
Q 2586 -51 2234 525 
Q 1933 -51 1357 -51 
Q 883 -51 572 345 
Q 262 742 262 1286 
z
" transform="scale(0.015625)"/>
      <path id="CMUBright-Roman-39" d="M 346 2803 
Q 346 3443 768 3885 
Q 1158 4301 1696 4301 
Q 1875 4301 2038 4253 
Q 2202 4205 2384 4061 
Q 2566 3917 2700 3686 
Q 2835 3456 2921 3053 
Q 3008 2650 3008 2125 
Q 3008 1171 2537 531 
Q 2067 -109 1382 -109 
Q 909 -109 486 186 
L 653 480 
L 723 435 
Q 794 384 838 358 
Q 883 333 969 297 
Q 1056 262 1158 243 
Q 1261 224 1376 224 
Q 1690 224 1933 381 
Q 2176 538 2313 797 
Q 2451 1056 2518 1357 
Q 2586 1658 2586 1984 
L 2586 2074 
Q 2438 1754 2121 1530 
Q 1805 1306 1402 1306 
Q 973 1306 678 1709 
Q 346 2157 346 2803 
z
M 768 2656 
Q 768 2240 966 1936 
Q 1165 1632 1632 1632 
Q 2035 1632 2297 1936 
Q 2560 2240 2560 2656 
Q 2560 2752 2554 2803 
L 2566 2803 
Q 2522 3462 2272 3721 
Q 2022 3981 1696 3981 
Q 1242 3981 986 3648 
Q 768 3366 768 2822 
L 768 2656 
z
" transform="scale(0.015625)"/>
     </defs>
     <use xlink:href="#CMUBright-Roman-49" transform="translate(0 0.5)"/>
     <use xlink:href="#CMUBright-Roman-6e" transform="translate(26.699997 0.5)"/>
     <use xlink:href="#CMUBright-Roman-69" transform="translate(78.399994 0.5)"/>
     <use xlink:href="#CMUBright-Roman-74" transform="translate(100.899979 0.5)"/>
     <use xlink:href="#CMUBright-Roman-61" transform="translate(138.799973 0.5)"/>
     <use xlink:href="#CMUBright-Roman-6c" transform="translate(187.999969 0.5)"/>
     <use xlink:href="#CMUBright-Roman-20" transform="translate(210.499954 0.5)"/>
     <use xlink:href="#CMUBright-Roman-73" transform="translate(243.799942 0.5)"/>
     <use xlink:href="#CMUBright-Roman-74" transform="translate(283.999939 0.5)"/>
     <use xlink:href="#CMUBright-Roman-61" transform="translate(321.899933 0.5)"/>
     <use xlink:href="#CMUBright-Roman-74" transform="translate(371.09993 0.5)"/>
     <use xlink:href="#CMUBright-Roman-65" transform="translate(408.999924 0.5)"/>
     <use xlink:href="#CMUBright-Roman-20" transform="translate(455.699921 0.5)"/>
     <use xlink:href="#CMUBright-Roman-4e" transform="translate(488.999908 0.5)"/>
     <use xlink:href="#CMUBright-Roman-3d" transform="translate(579.282318 0.5)"/>
     <use xlink:href="#CMUBright-Roman-33" transform="translate(662.964737 0.5)"/>
     <use xlink:href="#CMUBright-Roman-32" transform="translate(715.464722 0.5)"/>
     <use xlink:href="#CMUBright-Roman-2c" transform="translate(767.964706 0.5)"/>
     <use xlink:href="#CMUBright-Roman-3c9" transform="translate(816.647125 0.5)"/>
     <use xlink:href="#CMUBright-Roman-3d" transform="translate(906.129532 0.5)"/>
     <use xlink:href="#CMUBright-Roman-31" transform="translate(989.811951 0.5)"/>
     <use xlink:href="#CMUBright-Roman-2e" transform="translate(1042.311935 0.5)"/>
     <use xlink:href="#CMUBright-Roman-39" transform="translate(1071.511932 0.5)"/>
    </g>
   </g>
  </g>
  <g id="axes_2">
   <g id="patch_5">
    <path d="M 436.185256 305.757661 
L 643.483397 305.757661 
L 643.483397 28.212 
L 436.185256 28.212 
z
" style="fill: #ffffff"/>
   </g>
   <g id="QuadContourSet_2">
    <path d="M 442.663323 305.757661 
L 449.14139 305.757661 
L 455.619457 305.757661 
L 462.097523 305.757661 
L 468.57559 305.757661 
L 475.053657 305.757661 
L 481.531724 305.757661 
L 488.009791 305.757661 
L 494.487858 305.757661 
L 500.965925 305.757661 
L 507.443992 305.757661 
L 513.922059 305.757661 
L 520.400126 305.757661 
L 526.878192 305.757661 
L 533.356259 305.757661 
L 539.834326 305.757661 
L 546.312393 305.757661 
L 552.79046 305.757661 
L 559.268527 305.757661 
L 565.746594 305.757661 
L 572.224661 305.757661 
L 578.702728 305.757661 
L 585.180795 305.757661 
L 591.658861 305.757661 
L 598.136928 305.757661 
L 604.614995 305.757661 
L 611.093062 305.757661 
L 617.571129 305.757661 
L 624.049196 305.757661 
L 630.527263 305.757661 
L 637.00533 305.757661 
L 643.483397 305.757661 
L 643.483397 297.084359 
L 643.483397 288.411057 
L 643.483397 279.737755 
L 643.483397 271.064453 
L 643.483397 262.391151 
L 643.483397 253.71785 
L 643.483397 245.044548 
L 643.483397 236.371246 
L 643.483397 227.697944 
L 643.483397 219.024642 
L 643.483397 210.35134 
L 643.483397 201.678038 
L 643.483397 193.004736 
L 643.483397 184.331434 
L 643.483397 175.658132 
L 643.483397 166.98483 
L 643.483397 158.311529 
L 643.483397 149.638227 
L 643.483397 140.964925 
L 643.483397 132.291623 
L 643.483397 123.618321 
L 643.483397 114.945019 
L 643.483397 106.271717 
L 643.483397 97.598415 
L 643.483397 88.925113 
L 643.483397 80.251811 
L 643.483397 71.57851 
L 643.483397 62.905208 
L 643.483397 54.231906 
L 643.483397 45.558604 
L 643.483397 36.885302 
L 643.483397 28.212 
L 637.00533 28.212 
L 630.527263 28.212 
L 624.049196 28.212 
L 617.571129 28.212 
L 611.093062 28.212 
L 604.614995 28.212 
L 598.136928 28.212 
L 591.658861 28.212 
L 585.180795 28.212 
L 578.702728 28.212 
L 572.224661 28.212 
L 565.746594 28.212 
L 559.268527 28.212 
L 552.79046 28.212 
L 546.312393 28.212 
L 539.834326 28.212 
L 533.356259 28.212 
L 526.878192 28.212 
L 520.400126 28.212 
L 513.922059 28.212 
L 507.443992 28.212 
L 500.965925 28.212 
L 494.487858 28.212 
L 488.009791 28.212 
L 481.531724 28.212 
L 475.053657 28.212 
L 468.57559 28.212 
L 462.097523 28.212 
L 455.619457 28.212 
L 449.14139 28.212 
L 442.663323 28.212 
L 436.185256 28.212 
L 436.185256 36.885302 
L 436.185256 45.558604 
L 436.185256 54.231906 
L 436.185256 62.905208 
L 436.185256 71.57851 
L 436.185256 80.251811 
L 436.185256 88.925113 
L 436.185256 97.598415 
L 436.185256 106.271717 
L 436.185256 114.945019 
L 436.185256 123.618321 
L 436.185256 132.291623 
L 436.185256 140.964925 
L 436.185256 149.638227 
L 436.185256 158.311529 
L 436.185256 166.98483 
L 436.185256 175.658132 
L 436.185256 184.331434 
L 436.185256 193.004736 
L 436.185256 201.678038 
L 436.185256 210.35134 
L 436.185256 219.024642 
L 436.185256 227.697944 
L 436.185256 236.371246 
L 436.185256 245.044548 
L 436.185256 253.71785 
L 436.185256 262.391151 
L 436.185256 271.064453 
L 436.185256 279.737755 
L 436.185256 288.411057 
L 436.185256 297.084359 
L 436.185256 305.757661 
z
M 476.943717 297.084359 
L 475.053657 296.787074 
L 468.57559 295.398768 
L 462.097523 293.220492 
L 455.619457 289.412422 
L 454.516374 288.411057 
L 449.429097 279.737755 
L 449.14139 278.864485 
L 447.231877 271.064453 
L 445.958468 262.391151 
L 445.131161 253.71785 
L 444.560131 245.044548 
L 444.150474 236.371246 
L 443.849386 227.697944 
L 443.625182 219.024642 
L 443.457804 210.35134 
L 443.33409 201.678038 
L 443.24525 193.004736 
L 443.185436 184.331434 
L 443.150924 175.658132 
L 443.139642 166.98483 
L 443.150924 158.311529 
L 443.185436 149.638227 
L 443.24525 140.964925 
L 443.33409 132.291623 
L 443.457804 123.618321 
L 443.625182 114.945019 
L 443.849386 106.271717 
L 444.150474 97.598415 
L 444.560131 88.925113 
L 445.131161 80.251811 
L 445.958468 71.57851 
L 447.231877 62.905208 
L 449.14139 55.105176 
L 449.429097 54.231906 
L 454.516374 45.558604 
L 455.619457 44.557239 
L 462.097523 40.749169 
L 468.57559 38.570893 
L 475.053657 37.182587 
L 476.943717 36.885302 
L 481.531724 36.362985 
L 488.009791 35.806902 
L 494.487858 35.388455 
L 500.965925 35.069537 
L 507.443992 34.826143 
L 513.922059 34.642614 
L 520.400126 34.508543 
L 526.878192 34.417047 
L 533.356259 34.363759 
L 539.834326 34.346255 
L 546.312393 34.363759 
L 552.79046 34.417047 
L 559.268527 34.508543 
L 565.746594 34.642614 
L 572.224661 34.826143 
L 578.702728 35.069537 
L 585.180795 35.388455 
L 591.658861 35.806902 
L 598.136928 36.362985 
L 602.724936 36.885302 
L 604.614995 37.182587 
L 611.093062 38.570893 
L 617.571129 40.749169 
L 624.049196 44.557239 
L 625.152278 45.558604 
L 630.239555 54.231906 
L 630.527263 55.105176 
L 632.436775 62.905208 
L 633.710185 71.57851 
L 634.537491 80.251811 
L 635.108521 88.925113 
L 635.518178 97.598415 
L 635.819267 106.271717 
L 636.04347 114.945019 
L 636.210849 123.618321 
L 636.334562 132.291623 
L 636.423403 140.964925 
L 636.483217 149.638227 
L 636.517728 158.311529 
L 636.52901 166.98483 
L 636.517728 175.658132 
L 636.483217 184.331434 
L 636.423403 193.004736 
L 636.334562 201.678038 
L 636.210849 210.35134 
L 636.04347 219.024642 
L 635.819267 227.697944 
L 635.518178 236.371246 
L 635.108521 245.044548 
L 634.537491 253.71785 
L 633.710185 262.391151 
L 632.436775 271.064453 
L 630.527263 278.864485 
L 630.239555 279.737755 
L 625.152278 288.411057 
L 624.049196 289.412422 
L 617.571129 293.220492 
L 611.093062 295.398768 
L 604.614995 296.787074 
L 602.724936 297.084359 
L 598.136928 297.606676 
L 591.658861 298.162759 
L 585.180795 298.581206 
L 578.702728 298.900124 
L 572.224661 299.143517 
L 565.746594 299.327047 
L 559.268527 299.461118 
L 552.79046 299.552614 
L 546.312393 299.605902 
L 539.834326 299.623406 
L 533.356259 299.605902 
L 526.878192 299.552614 
L 520.400126 299.461118 
L 513.922059 299.327047 
L 507.443992 299.143517 
L 500.965925 298.900124 
L 494.487858 298.581206 
L 488.009791 298.162759 
L 481.531724 297.606676 
z
" clip-path="url(#p6d12f1f64d)" style="fill: #4e68d8"/>
    <path d="M 481.531724 297.606676 
L 488.009791 298.162759 
L 494.487858 298.581206 
L 500.965925 298.900124 
L 507.443992 299.143517 
L 513.922059 299.327047 
L 520.400126 299.461118 
L 526.878192 299.552614 
L 533.356259 299.605902 
L 539.834326 299.623406 
L 546.312393 299.605902 
L 552.79046 299.552614 
L 559.268527 299.461118 
L 565.746594 299.327047 
L 572.224661 299.143517 
L 578.702728 298.900124 
L 585.180795 298.581206 
L 591.658861 298.162759 
L 598.136928 297.606676 
L 602.724936 297.084359 
L 604.614995 296.787074 
L 611.093062 295.398768 
L 617.571129 293.220492 
L 624.049196 289.412422 
L 625.152278 288.411057 
L 630.239555 279.737755 
L 630.527263 278.864485 
L 632.436775 271.064453 
L 633.710185 262.391151 
L 634.537491 253.71785 
L 635.108521 245.044548 
L 635.518178 236.371246 
L 635.819267 227.697944 
L 636.04347 219.024642 
L 636.210849 210.35134 
L 636.334562 201.678038 
L 636.423403 193.004736 
L 636.483217 184.331434 
L 636.517728 175.658132 
L 636.52901 166.98483 
L 636.517728 158.311529 
L 636.483217 149.638227 
L 636.423403 140.964925 
L 636.334562 132.291623 
L 636.210849 123.618321 
L 636.04347 114.945019 
L 635.819267 106.271717 
L 635.518178 97.598415 
L 635.108521 88.925113 
L 634.537491 80.251811 
L 633.710185 71.57851 
L 632.436775 62.905208 
L 630.527263 55.105176 
L 630.239555 54.231906 
L 625.152278 45.558604 
L 624.049196 44.557239 
L 617.571129 40.749169 
L 611.093062 38.570893 
L 604.614995 37.182587 
L 602.724936 36.885302 
L 598.136928 36.362985 
L 591.658861 35.806902 
L 585.180795 35.388455 
L 578.702728 35.069537 
L 572.224661 34.826143 
L 565.746594 34.642614 
L 559.268527 34.508543 
L 552.79046 34.417047 
L 546.312393 34.363759 
L 539.834326 34.346255 
L 533.356259 34.363759 
L 526.878192 34.417047 
L 520.400126 34.508543 
L 513.922059 34.642614 
L 507.443992 34.826143 
L 500.965925 35.069537 
L 494.487858 35.388455 
L 488.009791 35.806902 
L 481.531724 36.362985 
L 476.943717 36.885302 
L 475.053657 37.182587 
L 468.57559 38.570893 
L 462.097523 40.749169 
L 455.619457 44.557239 
L 454.516374 45.558604 
L 449.429097 54.231906 
L 449.14139 55.105176 
L 447.231877 62.905208 
L 445.958468 71.57851 
L 445.131161 80.251811 
L 444.560131 88.925113 
L 444.150474 97.598415 
L 443.849386 106.271717 
L 443.625182 114.945019 
L 443.457804 123.618321 
L 443.33409 132.291623 
L 443.24525 140.964925 
L 443.185436 149.638227 
L 443.150924 158.311529 
L 443.139642 166.98483 
L 443.150924 175.658132 
L 443.185436 184.331434 
L 443.24525 193.004736 
L 443.33409 201.678038 
L 443.457804 210.35134 
L 443.625182 219.024642 
L 443.849386 227.697944 
L 444.150474 236.371246 
L 444.560131 245.044548 
L 445.131161 253.71785 
L 445.958468 262.391151 
L 447.231877 271.064453 
L 449.14139 278.864485 
L 449.429097 279.737755 
L 454.516374 288.411057 
L 455.619457 289.412422 
L 462.097523 293.220492 
L 468.57559 295.398768 
L 475.053657 296.787074 
L 476.943717 297.084359 
z
M 485.052678 288.411057 
L 481.531724 287.376302 
L 475.053657 284.788966 
L 468.57559 280.957506 
L 467.066807 279.737755 
L 462.097523 273.59795 
L 460.615776 271.064453 
L 457.275563 262.391151 
L 455.619457 255.75183 
L 455.202241 253.71785 
L 453.893888 245.044548 
L 452.96167 236.371246 
L 452.280045 227.697944 
L 451.77447 219.024642 
L 451.398164 210.35134 
L 451.120654 201.678038 
L 450.921702 193.004736 
L 450.787909 184.331434 
L 450.710771 175.658132 
L 450.685564 166.98483 
L 450.710771 158.311529 
L 450.787909 149.638227 
L 450.921702 140.964925 
L 451.120654 132.291623 
L 451.398164 123.618321 
L 451.77447 114.945019 
L 452.280045 106.271717 
L 452.96167 97.598415 
L 453.893888 88.925113 
L 455.202241 80.251811 
L 455.619457 78.217831 
L 457.275563 71.57851 
L 460.615776 62.905208 
L 462.097523 60.371711 
L 467.066807 54.231906 
L 468.57559 53.012155 
L 475.053657 49.180695 
L 481.531724 46.593359 
L 485.052678 45.558604 
L 488.009791 44.914299 
L 494.487858 43.821093 
L 500.965925 42.999028 
L 507.443992 42.378391 
L 513.922059 41.914385 
L 520.400126 41.577634 
L 526.878192 41.348909 
L 533.356259 41.216109 
L 539.834326 41.172555 
L 546.312393 41.216109 
L 552.79046 41.348909 
L 559.268527 41.577634 
L 565.746594 41.914385 
L 572.224661 42.378391 
L 578.702728 42.999028 
L 585.180795 43.821093 
L 591.658861 44.914299 
L 594.615974 45.558604 
L 598.136928 46.593359 
L 604.614995 49.180695 
L 611.093062 53.012155 
L 612.601846 54.231906 
L 617.571129 60.371711 
L 619.052877 62.905208 
L 622.393089 71.57851 
L 624.049196 78.217831 
L 624.466411 80.251811 
L 625.774764 88.925113 
L 626.706983 97.598415 
L 627.388608 106.271717 
L 627.894183 114.945019 
L 628.270489 123.618321 
L 628.547998 132.291623 
L 628.74695 140.964925 
L 628.880743 149.638227 
L 628.957881 158.311529 
L 628.983089 166.98483 
L 628.957881 175.658132 
L 628.880743 184.331434 
L 628.74695 193.004736 
L 628.547998 201.678038 
L 628.270489 210.35134 
L 627.894183 219.024642 
L 627.388608 227.697944 
L 626.706983 236.371246 
L 625.774764 245.044548 
L 624.466411 253.71785 
L 624.049196 255.75183 
L 622.393089 262.391151 
L 619.052877 271.064453 
L 617.571129 273.59795 
L 612.601846 279.737755 
L 611.093062 280.957506 
L 604.614995 284.788966 
L 598.136928 287.376302 
L 594.615974 288.411057 
L 591.658861 289.055362 
L 585.180795 290.148568 
L 578.702728 290.970633 
L 572.224661 291.59127 
L 565.746594 292.055276 
L 559.268527 292.392027 
L 552.79046 292.620752 
L 546.312393 292.753552 
L 539.834326 292.797106 
L 533.356259 292.753552 
L 526.878192 292.620752 
L 520.400126 292.392027 
L 513.922059 292.055276 
L 507.443992 291.59127 
L 500.965925 290.970633 
L 494.487858 290.148568 
L 488.009791 289.055362 
z
" clip-path="url(#p6d12f1f64d)" style="fill: #779af7"/>
    <path d="M 488.009791 289.055362 
L 494.487858 290.148568 
L 500.965925 290.970633 
L 507.443992 291.59127 
L 513.922059 292.055276 
L 520.400126 292.392027 
L 526.878192 292.620752 
L 533.356259 292.753552 
L 539.834326 292.797106 
L 546.312393 292.753552 
L 552.79046 292.620752 
L 559.268527 292.392027 
L 565.746594 292.055276 
L 572.224661 291.59127 
L 578.702728 290.970633 
L 585.180795 290.148568 
L 591.658861 289.055362 
L 594.615974 288.411057 
L 598.136928 287.376302 
L 604.614995 284.788966 
L 611.093062 280.957506 
L 612.601846 279.737755 
L 617.571129 273.59795 
L 619.052877 271.064453 
L 622.393089 262.391151 
L 624.049196 255.75183 
L 624.466411 253.71785 
L 625.774764 245.044548 
L 626.706983 236.371246 
L 627.388608 227.697944 
L 627.894183 219.024642 
L 628.270489 210.35134 
L 628.547998 201.678038 
L 628.74695 193.004736 
L 628.880743 184.331434 
L 628.957881 175.658132 
L 628.983089 166.98483 
L 628.957881 158.311529 
L 628.880743 149.638227 
L 628.74695 140.964925 
L 628.547998 132.291623 
L 628.270489 123.618321 
L 627.894183 114.945019 
L 627.388608 106.271717 
L 626.706983 97.598415 
L 625.774764 88.925113 
L 624.466411 80.251811 
L 624.049196 78.217831 
L 622.393089 71.57851 
L 619.052877 62.905208 
L 617.571129 60.371711 
L 612.601846 54.231906 
L 611.093062 53.012155 
L 604.614995 49.180695 
L 598.136928 46.593359 
L 594.615974 45.558604 
L 591.658861 44.914299 
L 585.180795 43.821093 
L 578.702728 42.999028 
L 572.224661 42.378391 
L 565.746594 41.914385 
L 559.268527 41.577634 
L 552.79046 41.348909 
L 546.312393 41.216109 
L 539.834326 41.172555 
L 533.356259 41.216109 
L 526.878192 41.348909 
L 520.400126 41.577634 
L 513.922059 41.914385 
L 507.443992 42.378391 
L 500.965925 42.999028 
L 494.487858 43.821093 
L 488.009791 44.914299 
L 485.052678 45.558604 
L 481.531724 46.593359 
L 475.053657 49.180695 
L 468.57559 53.012155 
L 467.066807 54.231906 
L 462.097523 60.371711 
L 460.615776 62.905208 
L 457.275563 71.57851 
L 455.619457 78.217831 
L 455.202241 80.251811 
L 453.893888 88.925113 
L 452.96167 97.598415 
L 452.280045 106.271717 
L 451.77447 114.945019 
L 451.398164 123.618321 
L 451.120654 132.291623 
L 450.921702 140.964925 
L 450.787909 149.638227 
L 450.710771 158.311529 
L 450.685564 166.98483 
L 450.710771 175.658132 
L 450.787909 184.331434 
L 450.921702 193.004736 
L 451.120654 201.678038 
L 451.398164 210.35134 
L 451.77447 219.024642 
L 452.280045 227.697944 
L 452.96167 236.371246 
L 453.893888 245.044548 
L 455.202241 253.71785 
L 455.619457 255.75183 
L 457.275563 262.391151 
L 460.615776 271.064453 
L 462.097523 273.59795 
L 467.066807 279.737755 
L 468.57559 280.957506 
L 475.053657 284.788966 
L 481.531724 287.376302 
L 485.052678 288.411057 
z
M 494.24429 279.737755 
L 488.009791 277.196806 
L 481.531724 273.567145 
L 478.191982 271.064453 
L 475.053657 267.776347 
L 471.152865 262.391151 
L 468.57559 257.234118 
L 467.160978 253.71785 
L 464.65815 245.044548 
L 462.896729 236.371246 
L 462.097523 231.029417 
L 461.663216 227.697944 
L 460.804976 219.024642 
L 460.167921 210.35134 
L 459.699097 201.678038 
L 459.363506 193.004736 
L 459.138073 184.331434 
L 459.008189 175.658132 
L 458.96576 166.98483 
L 459.008189 158.311529 
L 459.138073 149.638227 
L 459.363506 140.964925 
L 459.699097 132.291623 
L 460.167921 123.618321 
L 460.804976 114.945019 
L 461.663216 106.271717 
L 462.097523 102.940243 
L 462.896729 97.598415 
L 464.65815 88.925113 
L 467.160978 80.251811 
L 468.57559 76.735543 
L 471.152865 71.57851 
L 475.053657 66.193314 
L 478.191982 62.905208 
L 481.531724 60.402516 
L 488.009791 56.772855 
L 494.24429 54.231906 
L 494.487858 54.156907 
L 500.965925 52.562516 
L 507.443992 51.367896 
L 513.922059 50.480362 
L 520.400126 49.839445 
L 526.878192 49.405738 
L 533.356259 49.154542 
L 539.834326 49.072257 
L 546.312393 49.154542 
L 552.79046 49.405738 
L 559.268527 49.839445 
L 565.746594 50.480362 
L 572.224661 51.367896 
L 578.702728 52.562516 
L 585.180795 54.156907 
L 585.424363 54.231906 
L 591.658861 56.772855 
L 598.136928 60.402516 
L 601.476671 62.905208 
L 604.614995 66.193314 
L 608.515787 71.57851 
L 611.093062 76.735543 
L 612.507674 80.251811 
L 615.010503 88.925113 
L 616.771924 97.598415 
L 617.571129 102.940243 
L 618.005436 106.271717 
L 618.863677 114.945019 
L 619.500731 123.618321 
L 619.969555 132.291623 
L 620.305146 140.964925 
L 620.53058 149.638227 
L 620.660463 158.311529 
L 620.702892 166.98483 
L 620.660463 175.658132 
L 620.53058 184.331434 
L 620.305146 193.004736 
L 619.969555 201.678038 
L 619.500731 210.35134 
L 618.863677 219.024642 
L 618.005436 227.697944 
L 617.571129 231.029417 
L 616.771924 236.371246 
L 615.010503 245.044548 
L 612.507674 253.71785 
L 611.093062 257.234118 
L 608.515787 262.391151 
L 604.614995 267.776347 
L 601.476671 271.064453 
L 598.136928 273.567145 
L 591.658861 277.196806 
L 585.424363 279.737755 
L 585.180795 279.812754 
L 578.702728 281.407145 
L 572.224661 282.601765 
L 565.746594 283.489299 
L 559.268527 284.130216 
L 552.79046 284.563923 
L 546.312393 284.815119 
L 539.834326 284.897404 
L 533.356259 284.815119 
L 526.878192 284.563923 
L 520.400126 284.130216 
L 513.922059 283.489299 
L 507.443992 282.601765 
L 500.965925 281.407145 
L 494.487858 279.812754 
z
" clip-path="url(#p6d12f1f64d)" style="fill: #a3c2fe"/>
    <path d="M 494.487858 279.812754 
L 500.965925 281.407145 
L 507.443992 282.601765 
L 513.922059 283.489299 
L 520.400126 284.130216 
L 526.878192 284.563923 
L 533.356259 284.815119 
L 539.834326 284.897404 
L 546.312393 284.815119 
L 552.79046 284.563923 
L 559.268527 284.130216 
L 565.746594 283.489299 
L 572.224661 282.601765 
L 578.702728 281.407145 
L 585.180795 279.812754 
L 585.424363 279.737755 
L 591.658861 277.196806 
L 598.136928 273.567145 
L 601.476671 271.064453 
L 604.614995 267.776347 
L 608.515787 262.391151 
L 611.093062 257.234118 
L 612.507674 253.71785 
L 615.010503 245.044548 
L 616.771924 236.371246 
L 617.571129 231.029417 
L 618.005436 227.697944 
L 618.863677 219.024642 
L 619.500731 210.35134 
L 619.969555 201.678038 
L 620.305146 193.004736 
L 620.53058 184.331434 
L 620.660463 175.658132 
L 620.702892 166.98483 
L 620.660463 158.311529 
L 620.53058 149.638227 
L 620.305146 140.964925 
L 619.969555 132.291623 
L 619.500731 123.618321 
L 618.863677 114.945019 
L 618.005436 106.271717 
L 617.571129 102.940243 
L 616.771924 97.598415 
L 615.010503 88.925113 
L 612.507674 80.251811 
L 611.093062 76.735543 
L 608.515787 71.57851 
L 604.614995 66.193314 
L 601.476671 62.905208 
L 598.136928 60.402516 
L 591.658861 56.772855 
L 585.424363 54.231906 
L 585.180795 54.156907 
L 578.702728 52.562516 
L 572.224661 51.367896 
L 565.746594 50.480362 
L 559.268527 49.839445 
L 552.79046 49.405738 
L 546.312393 49.154542 
L 539.834326 49.072257 
L 533.356259 49.154542 
L 526.878192 49.405738 
L 520.400126 49.839445 
L 513.922059 50.480362 
L 507.443992 51.367896 
L 500.965925 52.562516 
L 494.487858 54.156907 
L 494.24429 54.231906 
L 488.009791 56.772855 
L 481.531724 60.402516 
L 478.191982 62.905208 
L 475.053657 66.193314 
L 471.152865 71.57851 
L 468.57559 76.735543 
L 467.160978 80.251811 
L 464.65815 88.925113 
L 462.896729 97.598415 
L 462.097523 102.940243 
L 461.663216 106.271717 
L 460.804976 114.945019 
L 460.167921 123.618321 
L 459.699097 132.291623 
L 459.363506 140.964925 
L 459.138073 149.638227 
L 459.008189 158.311529 
L 458.96576 166.98483 
L 459.008189 175.658132 
L 459.138073 184.331434 
L 459.363506 193.004736 
L 459.699097 201.678038 
L 460.167921 210.35134 
L 460.804976 219.024642 
L 461.663216 227.697944 
L 462.097523 231.029417 
L 462.896729 236.371246 
L 464.65815 245.044548 
L 467.160978 253.71785 
L 468.57559 257.234118 
L 471.152865 262.391151 
L 475.053657 267.776347 
L 478.191982 271.064453 
L 481.531724 273.567145 
L 488.009791 277.196806 
L 494.24429 279.737755 
z
M 506.079901 271.064453 
L 500.965925 269.073188 
L 494.487858 265.709731 
L 489.672083 262.391151 
L 488.009791 260.863457 
L 481.999189 253.71785 
L 481.531724 252.95823 
L 477.582282 245.044548 
L 475.053657 237.912101 
L 474.594584 236.371246 
L 472.632115 227.697944 
L 471.191117 219.024642 
L 470.126906 210.35134 
L 469.346758 201.678038 
L 468.789925 193.004736 
L 468.57559 188.046508 
L 468.431054 184.331434 
L 468.235667 175.658132 
L 468.171859 166.98483 
L 468.235667 158.311529 
L 468.431054 149.638227 
L 468.57559 145.923153 
L 468.789925 140.964925 
L 469.346758 132.291623 
L 470.126906 123.618321 
L 471.191117 114.945019 
L 472.632115 106.271717 
L 474.594584 97.598415 
L 475.053657 96.05756 
L 477.582282 88.925113 
L 481.531724 81.011431 
L 481.999189 80.251811 
L 488.009791 73.106204 
L 489.672083 71.57851 
L 494.487858 68.25993 
L 500.965925 64.896473 
L 506.079901 62.905208 
L 507.443992 62.491523 
L 513.922059 60.978952 
L 520.400126 59.890158 
L 526.878192 59.155181 
L 533.356259 58.730199 
L 539.834326 58.591105 
L 546.312393 58.730199 
L 552.79046 59.155181 
L 559.268527 59.890158 
L 565.746594 60.978952 
L 572.224661 62.491523 
L 573.588751 62.905208 
L 578.702728 64.896473 
L 585.180795 68.25993 
L 589.99657 71.57851 
L 591.658861 73.106204 
L 597.669464 80.251811 
L 598.136928 81.011431 
L 602.08637 88.925113 
L 604.614995 96.05756 
L 605.074069 97.598415 
L 607.036538 106.271717 
L 608.477536 114.945019 
L 609.541746 123.618321 
L 610.321895 132.291623 
L 610.878728 140.964925 
L 611.093062 145.923153 
L 611.237598 149.638227 
L 611.432986 158.311529 
L 611.496794 166.98483 
L 611.432986 175.658132 
L 611.237598 184.331434 
L 611.093062 188.046508 
L 610.878728 193.004736 
L 610.321895 201.678038 
L 609.541746 210.35134 
L 608.477536 219.024642 
L 607.036538 227.697944 
L 605.074069 236.371246 
L 604.614995 237.912101 
L 602.08637 245.044548 
L 598.136928 252.95823 
L 597.669464 253.71785 
L 591.658861 260.863457 
L 589.99657 262.391151 
L 585.180795 265.709731 
L 578.702728 269.073188 
L 573.588751 271.064453 
L 572.224661 271.478138 
L 565.746594 272.990709 
L 559.268527 274.079503 
L 552.79046 274.81448 
L 546.312393 275.239462 
L 539.834326 275.378556 
L 533.356259 275.239462 
L 526.878192 274.81448 
L 520.400126 274.079503 
L 513.922059 272.990709 
L 507.443992 271.478138 
z
" clip-path="url(#p6d12f1f64d)" style="fill: #ccd9ed"/>
    <path d="M 507.443992 271.478138 
L 513.922059 272.990709 
L 520.400126 274.079503 
L 526.878192 274.81448 
L 533.356259 275.239462 
L 539.834326 275.378556 
L 546.312393 275.239462 
L 552.79046 274.81448 
L 559.268527 274.079503 
L 565.746594 272.990709 
L 572.224661 271.478138 
L 573.588751 271.064453 
L 578.702728 269.073188 
L 585.180795 265.709731 
L 589.99657 262.391151 
L 591.658861 260.863457 
L 597.669464 253.71785 
L 598.136928 252.95823 
L 602.08637 245.044548 
L 604.614995 237.912101 
L 605.074069 236.371246 
L 607.036538 227.697944 
L 608.477536 219.024642 
L 609.541746 210.35134 
L 610.321895 201.678038 
L 610.878728 193.004736 
L 611.093062 188.046508 
L 611.237598 184.331434 
L 611.432986 175.658132 
L 611.496794 166.98483 
L 611.432986 158.311529 
L 611.237598 149.638227 
L 611.093062 145.923153 
L 610.878728 140.964925 
L 610.321895 132.291623 
L 609.541746 123.618321 
L 608.477536 114.945019 
L 607.036538 106.271717 
L 605.074069 97.598415 
L 604.614995 96.05756 
L 602.08637 88.925113 
L 598.136928 81.011431 
L 597.669464 80.251811 
L 591.658861 73.106204 
L 589.99657 71.57851 
L 585.180795 68.25993 
L 578.702728 64.896473 
L 573.588751 62.905208 
L 572.224661 62.491523 
L 565.746594 60.978952 
L 559.268527 59.890158 
L 552.79046 59.155181 
L 546.312393 58.730199 
L 539.834326 58.591105 
L 533.356259 58.730199 
L 526.878192 59.155181 
L 520.400126 59.890158 
L 513.922059 60.978952 
L 507.443992 62.491523 
L 506.079901 62.905208 
L 500.965925 64.896473 
L 494.487858 68.25993 
L 489.672083 71.57851 
L 488.009791 73.106204 
L 481.999189 80.251811 
L 481.531724 81.011431 
L 477.582282 88.925113 
L 475.053657 96.05756 
L 474.594584 97.598415 
L 472.632115 106.271717 
L 471.191117 114.945019 
L 470.126906 123.618321 
L 469.346758 132.291623 
L 468.789925 140.964925 
L 468.57559 145.923153 
L 468.431054 149.638227 
L 468.235667 158.311529 
L 468.171859 166.98483 
L 468.235667 175.658132 
L 468.431054 184.331434 
L 468.57559 188.046508 
L 468.789925 193.004736 
L 469.346758 201.678038 
L 470.126906 210.35134 
L 471.191117 219.024642 
L 472.632115 227.697944 
L 474.594584 236.371246 
L 475.053657 237.912101 
L 477.582282 245.044548 
L 481.531724 252.95823 
L 481.999189 253.71785 
L 488.009791 260.863457 
L 489.672083 262.391151 
L 494.487858 265.709731 
L 500.965925 269.073188 
L 506.079901 271.064453 
z
M 525.810554 262.391151 
L 520.400126 261.198082 
L 513.922059 259.082345 
L 507.443992 256.130362 
L 503.461415 253.71785 
L 500.965925 251.759356 
L 494.487858 245.117166 
L 494.431143 245.044548 
L 489.302062 236.371246 
L 488.009791 233.416686 
L 485.928748 227.697944 
L 483.582329 219.024642 
L 481.856503 210.35134 
L 481.531724 208.154521 
L 480.697611 201.678038 
L 479.896809 193.004736 
L 479.360398 184.331434 
L 479.051909 175.658132 
L 478.951224 166.98483 
L 479.051909 158.311529 
L 479.360398 149.638227 
L 479.896809 140.964925 
L 480.697611 132.291623 
L 481.531724 125.81514 
L 481.856503 123.618321 
L 483.582329 114.945019 
L 485.928748 106.271717 
L 488.009791 100.552975 
L 489.302062 97.598415 
L 494.431143 88.925113 
L 494.487858 88.852495 
L 500.965925 82.210305 
L 503.461415 80.251811 
L 507.443992 77.839299 
L 513.922059 74.887316 
L 520.400126 72.771579 
L 525.810554 71.57851 
L 526.878192 71.389318 
L 533.356259 70.714161 
L 539.834326 70.49329 
L 546.312393 70.714161 
L 552.79046 71.389318 
L 553.858098 71.57851 
L 559.268527 72.771579 
L 565.746594 74.887316 
L 572.224661 77.839299 
L 576.207237 80.251811 
L 578.702728 82.210305 
L 585.180795 88.852495 
L 585.23751 88.925113 
L 590.366591 97.598415 
L 591.658861 100.552975 
L 593.739904 106.271717 
L 596.086323 114.945019 
L 597.812149 123.618321 
L 598.136928 125.81514 
L 598.971041 132.291623 
L 599.771843 140.964925 
L 600.308255 149.638227 
L 600.616744 158.311529 
L 600.717429 166.98483 
L 600.616744 175.658132 
L 600.308255 184.331434 
L 599.771843 193.004736 
L 598.971041 201.678038 
L 598.136928 208.154521 
L 597.812149 210.35134 
L 596.086323 219.024642 
L 593.739904 227.697944 
L 591.658861 233.416686 
L 590.366591 236.371246 
L 585.23751 245.044548 
L 585.180795 245.117166 
L 578.702728 251.759356 
L 576.207237 253.71785 
L 572.224661 256.130362 
L 565.746594 259.082345 
L 559.268527 261.198082 
L 553.858098 262.391151 
L 552.79046 262.580343 
L 546.312393 263.2555 
L 539.834326 263.476371 
L 533.356259 263.2555 
L 526.878192 262.580343 
z
" clip-path="url(#p6d12f1f64d)" style="fill: #ecd3c5"/>
    <path d="M 526.878192 262.580343 
L 533.356259 263.2555 
L 539.834326 263.476371 
L 546.312393 263.2555 
L 552.79046 262.580343 
L 553.858098 262.391151 
L 559.268527 261.198082 
L 565.746594 259.082345 
L 572.224661 256.130362 
L 576.207237 253.71785 
L 578.702728 251.759356 
L 585.180795 245.117166 
L 585.23751 245.044548 
L 590.366591 236.371246 
L 591.658861 233.416686 
L 593.739904 227.697944 
L 596.086323 219.024642 
L 597.812149 210.35134 
L 598.136928 208.154521 
L 598.971041 201.678038 
L 599.771843 193.004736 
L 600.308255 184.331434 
L 600.616744 175.658132 
L 600.717429 166.98483 
L 600.616744 158.311529 
L 600.308255 149.638227 
L 599.771843 140.964925 
L 598.971041 132.291623 
L 598.136928 125.81514 
L 597.812149 123.618321 
L 596.086323 114.945019 
L 593.739904 106.271717 
L 591.658861 100.552975 
L 590.366591 97.598415 
L 585.23751 88.925113 
L 585.180795 88.852495 
L 578.702728 82.210305 
L 576.207237 80.251811 
L 572.224661 77.839299 
L 565.746594 74.887316 
L 559.268527 72.771579 
L 553.858098 71.57851 
L 552.79046 71.389318 
L 546.312393 70.714161 
L 539.834326 70.49329 
L 533.356259 70.714161 
L 526.878192 71.389318 
L 525.810554 71.57851 
L 520.400126 72.771579 
L 513.922059 74.887316 
L 507.443992 77.839299 
L 503.461415 80.251811 
L 500.965925 82.210305 
L 494.487858 88.852495 
L 494.431143 88.925113 
L 489.302062 97.598415 
L 488.009791 100.552975 
L 485.928748 106.271717 
L 483.582329 114.945019 
L 481.856503 123.618321 
L 481.531724 125.81514 
L 480.697611 132.291623 
L 479.896809 140.964925 
L 479.360398 149.638227 
L 479.051909 158.311529 
L 478.951224 166.98483 
L 479.051909 175.658132 
L 479.360398 184.331434 
L 479.896809 193.004736 
L 480.697611 201.678038 
L 481.531724 208.154521 
L 481.856503 210.35134 
L 483.582329 219.024642 
L 485.928748 227.697944 
L 488.009791 233.416686 
L 489.302062 236.371246 
L 494.431143 245.044548 
L 494.487858 245.117166 
L 500.965925 251.759356 
L 503.461415 253.71785 
L 507.443992 256.130362 
L 513.922059 259.082345 
L 520.400126 261.198082 
L 525.810554 262.391151 
z
M 526.340298 245.044548 
L 520.400126 242.579287 
L 513.922059 238.587296 
L 511.277486 236.371246 
L 507.443992 232.212626 
L 504.236479 227.697944 
L 500.965925 221.602378 
L 499.848416 219.024642 
L 497.009848 210.35134 
L 494.940407 201.678038 
L 494.487858 199.041071 
L 493.608044 193.004736 
L 492.758179 184.331434 
L 492.26989 175.658132 
L 492.110596 166.98483 
L 492.26989 158.311529 
L 492.758179 149.638227 
L 493.608044 140.964925 
L 494.487858 134.92859 
L 494.940407 132.291623 
L 497.009848 123.618321 
L 499.848416 114.945019 
L 500.965925 112.367283 
L 504.236479 106.271717 
L 507.443992 101.757035 
L 511.277486 97.598415 
L 513.922059 95.382365 
L 520.400126 91.390374 
L 526.340298 88.925113 
L 526.878192 88.747564 
L 533.356259 87.487582 
L 539.834326 87.075667 
L 546.312393 87.487582 
L 552.79046 88.747564 
L 553.328355 88.925113 
L 559.268527 91.390374 
L 565.746594 95.382365 
L 568.391167 97.598415 
L 572.224661 101.757035 
L 575.432174 106.271717 
L 578.702728 112.367283 
L 579.820237 114.945019 
L 582.658804 123.618321 
L 584.728246 132.291623 
L 585.180795 134.92859 
L 586.060608 140.964925 
L 586.910473 149.638227 
L 587.398762 158.311529 
L 587.558057 166.98483 
L 587.398762 175.658132 
L 586.910473 184.331434 
L 586.060608 193.004736 
L 585.180795 199.041071 
L 584.728246 201.678038 
L 582.658804 210.35134 
L 579.820237 219.024642 
L 578.702728 221.602378 
L 575.432174 227.697944 
L 572.224661 232.212626 
L 568.391167 236.371246 
L 565.746594 238.587296 
L 559.268527 242.579287 
L 553.328355 245.044548 
L 552.79046 245.222097 
L 546.312393 246.482079 
L 539.834326 246.893994 
L 533.356259 246.482079 
L 526.878192 245.222097 
z
" clip-path="url(#p6d12f1f64d)" style="fill: #f7b194"/>
    <path d="M 526.878192 245.222097 
L 533.356259 246.482079 
L 539.834326 246.893994 
L 546.312393 246.482079 
L 552.79046 245.222097 
L 553.328355 245.044548 
L 559.268527 242.579287 
L 565.746594 238.587296 
L 568.391167 236.371246 
L 572.224661 232.212626 
L 575.432174 227.697944 
L 578.702728 221.602378 
L 579.820237 219.024642 
L 582.658804 210.35134 
L 584.728246 201.678038 
L 585.180795 199.041071 
L 586.060608 193.004736 
L 586.910473 184.331434 
L 587.398762 175.658132 
L 587.558057 166.98483 
L 587.398762 158.311529 
L 586.910473 149.638227 
L 586.060608 140.964925 
L 585.180795 134.92859 
L 584.728246 132.291623 
L 582.658804 123.618321 
L 579.820237 114.945019 
L 578.702728 112.367283 
L 575.432174 106.271717 
L 572.224661 101.757035 
L 568.391167 97.598415 
L 565.746594 95.382365 
L 559.268527 91.390374 
L 553.328355 88.925113 
L 552.79046 88.747564 
L 546.312393 87.487582 
L 539.834326 87.075667 
L 533.356259 87.487582 
L 526.878192 88.747564 
L 526.340298 88.925113 
L 520.400126 91.390374 
L 513.922059 95.382365 
L 511.277486 97.598415 
L 507.443992 101.757035 
L 504.236479 106.271717 
L 500.965925 112.367283 
L 499.848416 114.945019 
L 497.009848 123.618321 
L 494.940407 132.291623 
L 494.487858 134.92859 
L 493.608044 140.964925 
L 492.758179 149.638227 
L 492.26989 158.311529 
L 492.110596 166.98483 
L 492.26989 175.658132 
L 492.758179 184.331434 
L 493.608044 193.004736 
L 494.487858 199.041071 
L 494.940407 201.678038 
L 497.009848 210.35134 
L 499.848416 219.024642 
L 500.965925 221.602378 
L 504.236479 227.697944 
L 507.443992 232.212626 
L 511.277486 236.371246 
L 513.922059 238.587296 
L 520.400126 242.579287 
L 526.340298 245.044548 
z
M 537.502163 219.024642 
L 533.356259 218.254772 
L 526.878192 214.580085 
L 522.545303 210.35134 
L 520.400126 207.56822 
L 517.242601 201.678038 
L 513.922059 193.018014 
L 513.918177 193.004736 
L 512.194521 184.331434 
L 511.205207 175.658132 
L 510.882625 166.98483 
L 511.205207 158.311529 
L 512.194521 149.638227 
L 513.918177 140.964925 
L 513.922059 140.951647 
L 517.242601 132.291623 
L 520.400126 126.401441 
L 522.545303 123.618321 
L 526.878192 119.389576 
L 533.356259 115.714889 
L 537.502163 114.945019 
L 539.834326 114.604832 
L 542.16649 114.945019 
L 546.312393 115.714889 
L 552.79046 119.389576 
L 557.123349 123.618321 
L 559.268527 126.401441 
L 562.426052 132.291623 
L 565.746594 140.951647 
L 565.750476 140.964925 
L 567.474131 149.638227 
L 568.463446 158.311529 
L 568.786027 166.98483 
L 568.463446 175.658132 
L 567.474131 184.331434 
L 565.750476 193.004736 
L 565.746594 193.018014 
L 562.426052 201.678038 
L 559.268527 207.56822 
L 557.123349 210.35134 
L 552.79046 214.580085 
L 546.312393 218.254772 
L 542.16649 219.024642 
L 539.834326 219.364829 
z
" clip-path="url(#p6d12f1f64d)" style="fill: #eb7d62"/>
    <path d="M 539.834326 219.364829 
L 542.16649 219.024642 
L 546.312393 218.254772 
L 552.79046 214.580085 
L 557.123349 210.35134 
L 559.268527 207.56822 
L 562.426052 201.678038 
L 565.746594 193.018014 
L 565.750476 193.004736 
L 567.474131 184.331434 
L 568.463446 175.658132 
L 568.786027 166.98483 
L 568.463446 158.311529 
L 567.474131 149.638227 
L 565.750476 140.964925 
L 565.746594 140.951647 
L 562.426052 132.291623 
L 559.268527 126.401441 
L 557.123349 123.618321 
L 552.79046 119.389576 
L 546.312393 115.714889 
L 542.16649 114.945019 
L 539.834326 114.604832 
L 537.502163 114.945019 
L 533.356259 115.714889 
L 526.878192 119.389576 
L 522.545303 123.618321 
L 520.400126 126.401441 
L 517.242601 132.291623 
L 513.922059 140.951647 
L 513.918177 140.964925 
L 512.194521 149.638227 
L 511.205207 158.311529 
L 510.882625 166.98483 
L 511.205207 175.658132 
L 512.194521 184.331434 
L 513.918177 193.004736 
L 513.922059 193.018014 
L 517.242601 201.678038 
L 520.400126 207.56822 
L 522.545303 210.35134 
L 526.878192 214.580085 
L 533.356259 218.254772 
L 537.502163 219.024642 
z
" clip-path="url(#p6d12f1f64d)" style="fill: #cb3e38"/>
   </g>
   <g id="matplotlib.axis_3">
    <g id="xtick_6">
     <g id="line2d_12">
      <g>
       <use xlink:href="#mce40c6f59f" x="436.185256" y="317.757661" style="fill: #5a5758; stroke: #5a5758; stroke-width: 0.8"/>
      </g>
     </g>
     <g id="text_15">
      <!-- 0.0 -->
      <g style="fill: #5a5758" transform="translate(426.124048 335.178491) scale(0.14994 -0.14994)">
       <use xlink:href="#CMUBright-Roman-30"/>
       <use xlink:href="#CMUBright-Roman-2e" x="52.499985"/>
       <use xlink:href="#CMUBright-Roman-30" x="81.699982"/>
      </g>
     </g>
    </g>
    <g id="xtick_7">
     <g id="line2d_13">
      <g>
       <use xlink:href="#mce40c6f59f" x="488.009791" y="317.757661" style="fill: #5a5758; stroke: #5a5758; stroke-width: 0.8"/>
      </g>
     </g>
     <g id="text_16">
      <!-- 0.5 -->
      <g style="fill: #5a5758" transform="translate(477.948583 335.178491) scale(0.14994 -0.14994)">
       <use xlink:href="#CMUBright-Roman-30"/>
       <use xlink:href="#CMUBright-Roman-2e" x="52.499985"/>
       <use xlink:href="#CMUBright-Roman-35" x="81.699982"/>
      </g>
     </g>
    </g>
    <g id="xtick_8">
     <g id="line2d_14">
      <g>
       <use xlink:href="#mce40c6f59f" x="539.834326" y="317.757661" style="fill: #5a5758; stroke: #5a5758; stroke-width: 0.8"/>
      </g>
     </g>
     <g id="text_17">
      <!-- 1.0 -->
      <g style="fill: #5a5758" transform="translate(529.773118 335.178491) scale(0.14994 -0.14994)">
       <use xlink:href="#CMUBright-Roman-31"/>
       <use xlink:href="#CMUBright-Roman-2e" x="52.499985"/>
       <use xlink:href="#CMUBright-Roman-30" x="81.699982"/>
      </g>
     </g>
    </g>
    <g id="xtick_9">
     <g id="line2d_15">
      <g>
       <use xlink:href="#mce40c6f59f" x="591.658861" y="317.757661" style="fill: #5a5758; stroke: #5a5758; stroke-width: 0.8"/>
      </g>
     </g>
     <g id="text_18">
      <!-- 1.5 -->
      <g style="fill: #5a5758" transform="translate(581.597653 335.178491) scale(0.14994 -0.14994)">
       <use xlink:href="#CMUBright-Roman-31"/>
       <use xlink:href="#CMUBright-Roman-2e" x="52.499985"/>
       <use xlink:href="#CMUBright-Roman-35" x="81.699982"/>
      </g>
     </g>
    </g>
    <g id="xtick_10">
     <g id="line2d_16">
      <g>
       <use xlink:href="#mce40c6f59f" x="643.483397" y="317.757661" style="fill: #5a5758; stroke: #5a5758; stroke-width: 0.8"/>
      </g>
     </g>
     <g id="text_19">
      <!-- 2.0 -->
      <g style="fill: #5a5758" transform="translate(633.422188 335.178491) scale(0.14994 -0.14994)">
       <use xlink:href="#CMUBright-Roman-32"/>
       <use xlink:href="#CMUBright-Roman-2e" x="52.499985"/>
       <use xlink:href="#CMUBright-Roman-30" x="81.699982"/>
      </g>
     </g>
    </g>
    <g id="text_20">
     <!-- x -->
     <g style="fill: #5a5758" transform="translate(535.712607 358.192957) scale(0.18 -0.18)">
      <use xlink:href="#CMUBright-SemiBold-78"/>
     </g>
    </g>
   </g>
   <g id="matplotlib.axis_4">
    <g id="ytick_7">
     <g id="line2d_17">
      <g>
       <use xlink:href="#m5db0a08908" x="424.185256" y="305.757661" style="fill: #5a5758; stroke: #5a5758; stroke-width: 0.8"/>
      </g>
     </g>
     <g id="text_21">
      <!-- 0.0 -->
      <g style="fill: #5a5758" transform="translate(397.062839 310.968076) scale(0.14994 -0.14994)">
       <use xlink:href="#CMUBright-Roman-30"/>
       <use xlink:href="#CMUBright-Roman-2e" x="52.499985"/>
       <use xlink:href="#CMUBright-Roman-30" x="81.699982"/>
      </g>
     </g>
    </g>
    <g id="ytick_8">
     <g id="line2d_18">
      <g>
       <use xlink:href="#m5db0a08908" x="424.185256" y="250.248529" style="fill: #5a5758; stroke: #5a5758; stroke-width: 0.8"/>
      </g>
     </g>
     <g id="text_22">
      <!-- 0.2 -->
      <g style="fill: #5a5758" transform="translate(397.062839 255.458944) scale(0.14994 -0.14994)">
       <use xlink:href="#CMUBright-Roman-30"/>
       <use xlink:href="#CMUBright-Roman-2e" x="52.499985"/>
       <use xlink:href="#CMUBright-Roman-32" x="81.699982"/>
      </g>
     </g>
    </g>
    <g id="ytick_9">
     <g id="line2d_19">
      <g>
       <use xlink:href="#m5db0a08908" x="424.185256" y="194.739397" style="fill: #5a5758; stroke: #5a5758; stroke-width: 0.8"/>
      </g>
     </g>
     <g id="text_23">
      <!-- 0.4 -->
      <g style="fill: #5a5758" transform="translate(397.062839 199.949812) scale(0.14994 -0.14994)">
       <use xlink:href="#CMUBright-Roman-30"/>
       <use xlink:href="#CMUBright-Roman-2e" x="52.499985"/>
       <use xlink:href="#CMUBright-Roman-34" x="81.699982"/>
      </g>
     </g>
    </g>
    <g id="ytick_10">
     <g id="line2d_20">
      <g>
       <use xlink:href="#m5db0a08908" x="424.185256" y="139.230264" style="fill: #5a5758; stroke: #5a5758; stroke-width: 0.8"/>
      </g>
     </g>
     <g id="text_24">
      <!-- 0.6 -->
      <g style="fill: #5a5758" transform="translate(397.062839 144.440679) scale(0.14994 -0.14994)">
       <use xlink:href="#CMUBright-Roman-30"/>
       <use xlink:href="#CMUBright-Roman-2e" x="52.499985"/>
       <use xlink:href="#CMUBright-Roman-36" x="81.699982"/>
      </g>
     </g>
    </g>
    <g id="ytick_11">
     <g id="line2d_21">
      <g>
       <use xlink:href="#m5db0a08908" x="424.185256" y="83.721132" style="fill: #5a5758; stroke: #5a5758; stroke-width: 0.8"/>
      </g>
     </g>
     <g id="text_25">
      <!-- 0.8 -->
      <g style="fill: #5a5758" transform="translate(397.062839 88.931547) scale(0.14994 -0.14994)">
       <use xlink:href="#CMUBright-Roman-30"/>
       <use xlink:href="#CMUBright-Roman-2e" x="52.499985"/>
       <use xlink:href="#CMUBright-Roman-38" x="81.699982"/>
      </g>
     </g>
    </g>
    <g id="ytick_12">
     <g id="line2d_22">
      <g>
       <use xlink:href="#m5db0a08908" x="424.185256" y="28.212" style="fill: #5a5758; stroke: #5a5758; stroke-width: 0.8"/>
      </g>
     </g>
     <g id="text_26">
      <!-- 1.0 -->
      <g style="fill: #5a5758" transform="translate(397.062839 33.422415) scale(0.14994 -0.14994)">
       <use xlink:href="#CMUBright-Roman-31"/>
       <use xlink:href="#CMUBright-Roman-2e" x="52.499985"/>
       <use xlink:href="#CMUBright-Roman-30" x="81.699982"/>
      </g>
     </g>
    </g>
    <g id="text_27">
     <!-- y -->
     <g style="fill: #5a5758" transform="translate(385.912839 171.106549) rotate(-90) scale(0.18 -0.18)">
      <use xlink:href="#CMUBright-SemiBold-79"/>
     </g>
    </g>
   </g>
   <g id="patch_6">
    <path d="M 424.185256 305.757661 
L 424.185256 28.212 
" style="fill: none; stroke: #5a5758; stroke-width: 0.8; stroke-linejoin: miter; stroke-linecap: square"/>
   </g>
   <g id="patch_7">
    <path d="M 436.185256 317.757661 
L 643.483397 317.757661 
" style="fill: none; stroke: #5a5758; stroke-width: 0.8; stroke-linejoin: miter; stroke-linecap: square"/>
   </g>
   <g id="text_28">
    <!-- Final state $N=32, \omega=1.9$ -->
    <g style="fill: #5a5758" transform="translate(418.874326 22.212) scale(0.216 -0.216)">
     <defs>
      <path id="CMUBright-Roman-46" d="M 627 0 
L 627 4435 
L 3533 4435 
L 3533 4096 
L 1075 4096 
L 1075 2387 
L 3251 2387 
L 3251 2048 
L 1075 2048 
L 1075 0 
L 627 0 
z
" transform="scale(0.015625)"/>
     </defs>
     <use xlink:href="#CMUBright-Roman-46" transform="translate(0 0.5)"/>
     <use xlink:href="#CMUBright-Roman-69" transform="translate(59.599991 0.5)"/>
     <use xlink:href="#CMUBright-Roman-6e" transform="translate(82.099976 0.5)"/>
     <use xlink:href="#CMUBright-Roman-61" transform="translate(133.799973 0.5)"/>
     <use xlink:href="#CMUBright-Roman-6c" transform="translate(182.999969 0.5)"/>
     <use xlink:href="#CMUBright-Roman-20" transform="translate(205.499954 0.5)"/>
     <use xlink:href="#CMUBright-Roman-73" transform="translate(238.799942 0.5)"/>
     <use xlink:href="#CMUBright-Roman-74" transform="translate(278.999939 0.5)"/>
     <use xlink:href="#CMUBright-Roman-61" transform="translate(316.899933 0.5)"/>
     <use xlink:href="#CMUBright-Roman-74" transform="translate(366.09993 0.5)"/>
     <use xlink:href="#CMUBright-Roman-65" transform="translate(403.999924 0.5)"/>
     <use xlink:href="#CMUBright-Roman-20" transform="translate(450.699921 0.5)"/>
     <use xlink:href="#CMUBright-Roman-4e" transform="translate(483.999908 0.5)"/>
     <use xlink:href="#CMUBright-Roman-3d" transform="translate(574.282318 0.5)"/>
     <use xlink:href="#CMUBright-Roman-33" transform="translate(657.964737 0.5)"/>
     <use xlink:href="#CMUBright-Roman-32" transform="translate(710.464722 0.5)"/>
     <use xlink:href="#CMUBright-Roman-2c" transform="translate(762.964706 0.5)"/>
     <use xlink:href="#CMUBright-Roman-3c9" transform="translate(811.647125 0.5)"/>
     <use xlink:href="#CMUBright-Roman-3d" transform="translate(901.129532 0.5)"/>
     <use xlink:href="#CMUBright-Roman-31" transform="translate(984.811951 0.5)"/>
     <use xlink:href="#CMUBright-Roman-2e" transform="translate(1037.311935 0.5)"/>
     <use xlink:href="#CMUBright-Roman-39" transform="translate(1066.511932 0.5)"/>
    </g>
   </g>
  </g>
  <g id="axes_3">
   <g id="patch_8">
    <path d="M 319.552069 305.757661 
L 333.429352 305.757661 
L 333.429352 28.212 
L 319.552069 28.212 
z
" style="fill: #ffffff"/>
   </g>
   <g id="QuadMesh_1">
    <path d="M 319.552069 305.757661 
L 333.429352 305.757661 
L 333.429352 166.98483 
L 319.552069 166.98483 
L 319.552069 305.757661 
" clip-path="url(#p31208e6a53)" style="fill: #8db0fe"/>
    <path d="M 319.552069 166.98483 
L 333.429352 166.98483 
L 333.429352 28.212 
L 319.552069 28.212 
L 319.552069 166.98483 
" clip-path="url(#p31208e6a53)" style="fill: #f4987a"/>
   </g>
   <g id="matplotlib.axis_5"/>
   <g id="matplotlib.axis_6">
    <g id="ytick_13">
     <g id="line2d_23">
      <defs>
       <path id="mc6f92bcdde" d="M 0 0 
L 3.5 0 
" style="stroke: #5a5758; stroke-width: 0.8"/>
      </defs>
      <g>
       <use xlink:href="#mc6f92bcdde" x="333.429352" y="305.757661" style="fill: #5a5758; stroke: #5a5758; stroke-width: 0.8"/>
      </g>
     </g>
     <g id="text_29">
      <!-- -2.5 -->
      <g style="fill: #5a5758" transform="translate(340.429352 310.968076) scale(0.14994 -0.14994)">
       <defs>
        <path id="CMUBright-Roman-2d" d="M 70 1350 
L 70 1670 
L 1862 1670 
L 1862 1350 
L 70 1350 
z
" transform="scale(0.015625)"/>
       </defs>
       <use xlink:href="#CMUBright-Roman-2d"/>
       <use xlink:href="#CMUBright-Roman-32" x="34.999985"/>
       <use xlink:href="#CMUBright-Roman-2e" x="87.499969"/>
       <use xlink:href="#CMUBright-Roman-35" x="116.699966"/>
      </g>
     </g>
    </g>
    <g id="ytick_14">
     <g id="line2d_24">
      <g>
       <use xlink:href="#mc6f92bcdde" x="333.429352" y="166.98483" style="fill: #5a5758; stroke: #5a5758; stroke-width: 0.8"/>
      </g>
     </g>
     <g id="text_30">
      <!-- 0.0 -->
      <g style="fill: #5a5758" transform="translate(340.429352 172.195245) scale(0.14994 -0.14994)">
       <use xlink:href="#CMUBright-Roman-30"/>
       <use xlink:href="#CMUBright-Roman-2e" x="52.499985"/>
       <use xlink:href="#CMUBright-Roman-30" x="81.699982"/>
      </g>
     </g>
    </g>
    <g id="ytick_15">
     <g id="line2d_25">
      <g>
       <use xlink:href="#mc6f92bcdde" x="333.429352" y="28.212" style="fill: #5a5758; stroke: #5a5758; stroke-width: 0.8"/>
      </g>
     </g>
     <g id="text_31">
      <!-- 2.5 -->
      <g style="fill: #5a5758" transform="translate(340.429352 33.422415) scale(0.14994 -0.14994)">
       <use xlink:href="#CMUBright-Roman-32"/>
       <use xlink:href="#CMUBright-Roman-2e" x="52.499985"/>
       <use xlink:href="#CMUBright-Roman-35" x="81.699982"/>
      </g>
     </g>
    </g>
    <g id="text_32">
     <!-- 1e-14 -->
     <g style="fill: #5a5758" transform="translate(297.563235 25.212) scale(0.14994 -0.14994)">
      <use xlink:href="#CMUBright-Roman-31"/>
      <use xlink:href="#CMUBright-Roman-65" x="52.499985"/>
      <use xlink:href="#CMUBright-Roman-2d" x="99.199982"/>
      <use xlink:href="#CMUBright-Roman-31" x="134.199966"/>
      <use xlink:href="#CMUBright-Roman-34" x="186.699951"/>
     </g>
    </g>
   </g>
   <g id="LineCollection_1"/>
   <g id="patch_9">
    <path d="M 319.552069 305.757661 
L 326.49071 305.757661 
L 333.429352 305.757661 
L 333.429352 28.212 
L 326.49071 28.212 
L 319.552069 28.212 
L 319.552069 305.757661 
z
" style="fill: none; stroke: #5a5758; stroke-width: 0.8; stroke-linejoin: miter; stroke-linecap: square"/>
   </g>
  </g>
  <g id="axes_4">
   <g id="patch_10">
    <path d="M 663.909512 305.757661 
L 677.786795 305.757661 
L 677.786795 28.212 
L 663.909512 28.212 
z
" style="fill: #ffffff"/>
   </g>
   <g id="QuadMesh_2">
    <path d="M 663.909512 305.757661 
L 677.786795 305.757661 
L 677.786795 271.064453 
L 663.909512 271.064453 
L 663.909512 305.757661 
" clip-path="url(#p4397019213)" style="fill: #4e68d8"/>
    <path d="M 663.909512 271.064453 
L 677.786795 271.064453 
L 677.786795 236.371246 
L 663.909512 236.371246 
L 663.909512 271.064453 
" clip-path="url(#p4397019213)" style="fill: #779af7"/>
    <path d="M 663.909512 236.371246 
L 677.786795 236.371246 
L 677.786795 201.678038 
L 663.909512 201.678038 
L 663.909512 236.371246 
" clip-path="url(#p4397019213)" style="fill: #a3c2fe"/>
    <path d="M 663.909512 201.678038 
L 677.786795 201.678038 
L 677.786795 166.98483 
L 663.909512 166.98483 
L 663.909512 201.678038 
" clip-path="url(#p4397019213)" style="fill: #ccd9ed"/>
    <path d="M 663.909512 166.98483 
L 677.786795 166.98483 
L 677.786795 132.291623 
L 663.909512 132.291623 
L 663.909512 166.98483 
" clip-path="url(#p4397019213)" style="fill: #ecd3c5"/>
    <path d="M 663.909512 132.291623 
L 677.786795 132.291623 
L 677.786795 97.598415 
L 663.909512 97.598415 
L 663.909512 132.291623 
" clip-path="url(#p4397019213)" style="fill: #f7b194"/>
    <path d="M 663.909512 97.598415 
L 677.786795 97.598415 
L 677.786795 62.905208 
L 663.909512 62.905208 
L 663.909512 97.598415 
" clip-path="url(#p4397019213)" style="fill: #eb7d62"/>
    <path d="M 663.909512 62.905208 
L 677.786795 62.905208 
L 677.786795 28.212 
L 663.909512 28.212 
L 663.909512 62.905208 
" clip-path="url(#p4397019213)" style="fill: #cb3e38"/>
   </g>
   <g id="matplotlib.axis_7"/>
   <g id="matplotlib.axis_8">
    <g id="ytick_16">
     <g id="line2d_26">
      <g>
       <use xlink:href="#mc6f92bcdde" x="677.786795" y="305.757661" style="fill: #5a5758; stroke: #5a5758; stroke-width: 0.8"/>
      </g>
     </g>
     <g id="text_33">
      <!-- 0.000 -->
      <g style="fill: #5a5758" transform="translate(684.786795 310.968076) scale(0.14994 -0.14994)">
       <use xlink:href="#CMUBright-Roman-30"/>
       <use xlink:href="#CMUBright-Roman-2e" x="52.499985"/>
       <use xlink:href="#CMUBright-Roman-30" x="81.699982"/>
       <use xlink:href="#CMUBright-Roman-30" x="134.199966"/>
       <use xlink:href="#CMUBright-Roman-30" x="186.699951"/>
      </g>
     </g>
    </g>
    <g id="ytick_17">
     <g id="line2d_27">
      <g>
       <use xlink:href="#mc6f92bcdde" x="677.786795" y="271.064453" style="fill: #5a5758; stroke: #5a5758; stroke-width: 0.8"/>
      </g>
     </g>
     <g id="text_34">
      <!-- 0.015 -->
      <g style="fill: #5a5758" transform="translate(684.786795 276.274868) scale(0.14994 -0.14994)">
       <use xlink:href="#CMUBright-Roman-30"/>
       <use xlink:href="#CMUBright-Roman-2e" x="52.499985"/>
       <use xlink:href="#CMUBright-Roman-30" x="81.699982"/>
       <use xlink:href="#CMUBright-Roman-31" x="134.199966"/>
       <use xlink:href="#CMUBright-Roman-35" x="186.699951"/>
      </g>
     </g>
    </g>
    <g id="ytick_18">
     <g id="line2d_28">
      <g>
       <use xlink:href="#mc6f92bcdde" x="677.786795" y="236.371246" style="fill: #5a5758; stroke: #5a5758; stroke-width: 0.8"/>
      </g>
     </g>
     <g id="text_35">
      <!-- 0.030 -->
      <g style="fill: #5a5758" transform="translate(684.786795 241.581661) scale(0.14994 -0.14994)">
       <use xlink:href="#CMUBright-Roman-30"/>
       <use xlink:href="#CMUBright-Roman-2e" x="52.499985"/>
       <use xlink:href="#CMUBright-Roman-30" x="81.699982"/>
       <use xlink:href="#CMUBright-Roman-33" x="134.199966"/>
       <use xlink:href="#CMUBright-Roman-30" x="186.699951"/>
      </g>
     </g>
    </g>
    <g id="ytick_19">
     <g id="line2d_29">
      <g>
       <use xlink:href="#mc6f92bcdde" x="677.786795" y="201.678038" style="fill: #5a5758; stroke: #5a5758; stroke-width: 0.8"/>
      </g>
     </g>
     <g id="text_36">
      <!-- 0.045 -->
      <g style="fill: #5a5758" transform="translate(684.786795 206.888453) scale(0.14994 -0.14994)">
       <use xlink:href="#CMUBright-Roman-30"/>
       <use xlink:href="#CMUBright-Roman-2e" x="52.499985"/>
       <use xlink:href="#CMUBright-Roman-30" x="81.699982"/>
       <use xlink:href="#CMUBright-Roman-34" x="134.199966"/>
       <use xlink:href="#CMUBright-Roman-35" x="186.699951"/>
      </g>
     </g>
    </g>
    <g id="ytick_20">
     <g id="line2d_30">
      <g>
       <use xlink:href="#mc6f92bcdde" x="677.786795" y="166.98483" style="fill: #5a5758; stroke: #5a5758; stroke-width: 0.8"/>
      </g>
     </g>
     <g id="text_37">
      <!-- 0.060 -->
      <g style="fill: #5a5758" transform="translate(684.786795 172.195245) scale(0.14994 -0.14994)">
       <use xlink:href="#CMUBright-Roman-30"/>
       <use xlink:href="#CMUBright-Roman-2e" x="52.499985"/>
       <use xlink:href="#CMUBright-Roman-30" x="81.699982"/>
       <use xlink:href="#CMUBright-Roman-36" x="134.199966"/>
       <use xlink:href="#CMUBright-Roman-30" x="186.699951"/>
      </g>
     </g>
    </g>
    <g id="ytick_21">
     <g id="line2d_31">
      <g>
       <use xlink:href="#mc6f92bcdde" x="677.786795" y="132.291623" style="fill: #5a5758; stroke: #5a5758; stroke-width: 0.8"/>
      </g>
     </g>
     <g id="text_38">
      <!-- 0.075 -->
      <g style="fill: #5a5758" transform="translate(684.786795 137.502038) scale(0.14994 -0.14994)">
       <defs>
        <path id="CMUBright-Roman-37" d="M 275 3840 
L 275 4192 
L 3072 4192 
L 3072 3853 
Q 2400 3149 1958 2147 
Q 1517 1146 1517 -51 
L 1088 -51 
Q 1088 1030 1523 2048 
Q 1958 3066 2797 3840 
L 275 3840 
z
" transform="scale(0.015625)"/>
       </defs>
       <use xlink:href="#CMUBright-Roman-30"/>
       <use xlink:href="#CMUBright-Roman-2e" x="52.499985"/>
       <use xlink:href="#CMUBright-Roman-30" x="81.699982"/>
       <use xlink:href="#CMUBright-Roman-37" x="134.199966"/>
       <use xlink:href="#CMUBright-Roman-35" x="186.699951"/>
      </g>
     </g>
    </g>
    <g id="ytick_22">
     <g id="line2d_32">
      <g>
       <use xlink:href="#mc6f92bcdde" x="677.786795" y="97.598415" style="fill: #5a5758; stroke: #5a5758; stroke-width: 0.8"/>
      </g>
     </g>
     <g id="text_39">
      <!-- 0.090 -->
      <g style="fill: #5a5758" transform="translate(684.786795 102.80883) scale(0.14994 -0.14994)">
       <use xlink:href="#CMUBright-Roman-30"/>
       <use xlink:href="#CMUBright-Roman-2e" x="52.499985"/>
       <use xlink:href="#CMUBright-Roman-30" x="81.699982"/>
       <use xlink:href="#CMUBright-Roman-39" x="134.199966"/>
       <use xlink:href="#CMUBright-Roman-30" x="186.699951"/>
      </g>
     </g>
    </g>
    <g id="ytick_23">
     <g id="line2d_33">
      <g>
       <use xlink:href="#mc6f92bcdde" x="677.786795" y="62.905208" style="fill: #5a5758; stroke: #5a5758; stroke-width: 0.8"/>
      </g>
     </g>
     <g id="text_40">
      <!-- 0.105 -->
      <g style="fill: #5a5758" transform="translate(684.786795 68.115623) scale(0.14994 -0.14994)">
       <use xlink:href="#CMUBright-Roman-30"/>
       <use xlink:href="#CMUBright-Roman-2e" x="52.499985"/>
       <use xlink:href="#CMUBright-Roman-31" x="81.699982"/>
       <use xlink:href="#CMUBright-Roman-30" x="134.199966"/>
       <use xlink:href="#CMUBright-Roman-35" x="186.699951"/>
      </g>
     </g>
    </g>
    <g id="ytick_24">
     <g id="line2d_34">
      <g>
       <use xlink:href="#mc6f92bcdde" x="677.786795" y="28.212" style="fill: #5a5758; stroke: #5a5758; stroke-width: 0.8"/>
      </g>
     </g>
     <g id="text_41">
      <!-- 0.120 -->
      <g style="fill: #5a5758" transform="translate(684.786795 33.422415) scale(0.14994 -0.14994)">
       <use xlink:href="#CMUBright-Roman-30"/>
       <use xlink:href="#CMUBright-Roman-2e" x="52.499985"/>
       <use xlink:href="#CMUBright-Roman-31" x="81.699982"/>
       <use xlink:href="#CMUBright-Roman-32" x="134.199966"/>
       <use xlink:href="#CMUBright-Roman-30" x="186.699951"/>
      </g>
     </g>
    </g>
   </g>
   <g id="LineCollection_2"/>
   <g id="patch_11">
    <path d="M 663.909512 305.757661 
L 670.848153 305.757661 
L 677.786795 305.757661 
L 677.786795 28.212 
L 670.848153 28.212 
L 663.909512 28.212 
L 663.909512 305.757661 
z
" style="fill: none; stroke: #5a5758; stroke-width: 0.8; stroke-linejoin: miter; stroke-linecap: square"/>
   </g>
  </g>
 </g>
 <defs>
  <clipPath id="p98682b52ab">
   <rect x="69.838979" y="28.212" width="207.298141" height="277.545661"/>
  </clipPath>
  <clipPath id="p6d12f1f64d">
   <rect x="436.185256" y="28.212" width="207.298141" height="277.545661"/>
  </clipPath>
  <clipPath id="p31208e6a53">
   <rect x="319.552069" y="28.212" width="13.877283" height="277.545661"/>
  </clipPath>
  <clipPath id="p4397019213">
   <rect x="663.909512" y="28.212" width="13.877283" height="277.545661"/>
  </clipPath>
 </defs>
</svg>