<?xml version="1.0" encoding="utf-8" standalone="no"?>
<!DOCTYPE svg PUBLIC "-//W3C//DTD SVG 1.1//EN"
  "http://www.w3.org/Graphics/SVG/1.1/DTD/svg11.dtd">
<svg xmlns:xlink="http://www.w3.org/1999/xlink" width="469.19952pt" height="353.99952pt" viewBox="0 0 469.19952 353.99952" xmlns="http://www.w3.org/2000/svg" version="1.1">
 <metadata>
  <rdf:RDF xmlns:dc="http://purl.org/dc/elements/1.1/" xmlns:cc="http://creativecommons.org/ns#" xmlns:rdf="http://www.w3.org/1999/02/22-rdf-syntax-ns#">
   <cc:Work>
    <dc:type rdf:resource="http://purl.org/dc/dcmitype/StillImage"/>
    <dc:date>2023-11-14T21:23:00.607458</dc:date>
    <dc:format>image/svg+xml</dc:format>
    <dc:creator>
     <cc:Agent>
      <dc:title>Matplotlib v3.8.1, https://matplotlib.org/</dc:title>
     </cc:Agent>
    </dc:creator>
   </cc:Work>
  </rdf:RDF>
 </metadata>
 <defs>
  <style type="text/css">*{stroke-linejoin: round; stroke-linecap: butt}</style>
 </defs>
 <g id="figure_1">
  <g id="patch_1">
   <path d="M 0 353.99952 
L 469.19952 353.99952 
L 469.19952 0 
L 0 0 
z
" style="fill: #ffffff"/>
  </g>
  <g id="axes_1">
   <g id="patch_2">
    <path d="M 78.205163 291.357661 
L 458.99952 291.357661 
L 458.99952 10.2 
L 78.205163 10.2 
z
" style="fill: #ffffff"/>
   </g>
   <g id="matplotlib.axis_1">
    <g id="xtick_1">
     <g id="line2d_1">
      <defs>
       <path id="m1f2ee2e52b" d="M 0 0 
L 0 3.5 
" style="stroke: #5a5758; stroke-width: 0.8"/>
      </defs>
      <g>
       <use xlink:href="#m1f2ee2e52b" x="80.810993" y="303.357661" style="fill: #5a5758; stroke: #5a5758; stroke-width: 0.8"/>
      </g>
     </g>
     <g id="text_1">
      <!-- $\mathdefault{10^{-3}}$ -->
      <g style="fill: #5a5758" transform="translate(66.566693 320.778491) scale(0.14994 -0.14994)">
       <defs>
        <path id="CMUBright-Roman-31" d="M 672 3558 
L 672 3885 
Q 1427 3885 1862 4301 
L 1965 4301 
L 1965 320 
L 2803 320 
L 2803 0 
L 710 0 
L 710 320 
L 1549 320 
L 1549 3744 
Q 1178 3558 672 3558 
z
" transform="scale(0.015625)"/>
        <path id="CMUBright-Roman-30" d="M 333 1984 
L 333 2086 
Q 333 2291 339 2438 
Q 346 2586 371 2832 
Q 397 3078 461 3267 
Q 525 3456 621 3657 
Q 717 3859 880 4006 
Q 1043 4154 1261 4230 
Q 1446 4301 1677 4301 
Q 1856 4301 2025 4256 
Q 2195 4211 2380 4070 
Q 2566 3930 2704 3709 
Q 2842 3488 2931 3104 
Q 3021 2720 3021 2214 
Q 3021 1683 2982 1347 
Q 2944 1011 2803 685 
Q 2618 250 2307 70 
Q 1997 -109 1677 -109 
Q 1498 -109 1328 -64 
Q 1158 -19 972 121 
Q 787 262 649 483 
Q 512 704 422 1091 
Q 333 1478 333 1984 
z
M 742 2413 
Q 742 2374 745 2326 
Q 749 2278 749 2272 
L 749 2150 
Q 749 1779 758 1548 
Q 768 1318 838 1014 
Q 909 710 1037 538 
Q 1286 218 1677 218 
Q 2086 218 2330 557 
Q 2451 730 2518 1037 
Q 2586 1344 2595 1568 
Q 2605 1792 2605 2163 
L 2605 2272 
Q 2605 2278 2608 2323 
Q 2611 2368 2611 2406 
Q 2611 3302 2336 3661 
Q 2099 3981 1677 3981 
Q 1242 3981 1005 3642 
Q 742 3264 742 2413 
z
" transform="scale(0.015625)"/>
        <path id="CMUBright-Roman-2212" d="M 378 1690 
Q 378 1856 602 1856 
L 3526 1856 
Q 3725 1850 3725 1690 
Q 3725 1530 3520 1530 
L 582 1530 
Q 378 1530 378 1690 
z
" transform="scale(0.015625)"/>
        <path id="CMUBright-Roman-33" d="M 282 653 
Q 282 666 285 685 
Q 288 704 304 774 
Q 320 845 339 941 
Q 557 640 861 464 
Q 1165 288 1341 256 
Q 1517 224 1683 224 
Q 2112 224 2368 486 
Q 2624 749 2624 1165 
Q 2624 1574 2381 1824 
Q 2138 2074 1773 2099 
L 1555 2106 
L 1114 2106 
L 1114 2426 
Q 1709 2470 1862 2528 
Q 2099 2618 2281 2838 
Q 2464 3059 2464 3360 
Q 2464 3642 2256 3811 
Q 2048 3981 1702 3981 
Q 973 3981 570 3258 
L 371 3539 
Q 845 4301 1702 4301 
Q 2202 4301 2544 4025 
Q 2886 3750 2886 3360 
Q 2886 3059 2704 2761 
Q 2522 2464 2106 2272 
Q 2579 2144 2825 1833 
Q 3072 1523 3072 1158 
Q 3072 666 2685 278 
Q 2298 -109 1690 -109 
Q 1402 -109 1126 -9 
Q 851 90 675 221 
Q 499 352 390 473 
Q 282 595 282 653 
z
" transform="scale(0.015625)"/>
       </defs>
       <use xlink:href="#CMUBright-Roman-31" transform="translate(0 0.915625)"/>
       <use xlink:href="#CMUBright-Roman-30" transform="translate(52.499985 0.915625)"/>
       <use xlink:href="#CMUBright-Roman-2212" transform="translate(105.826024 33.957813) scale(0.7)"/>
       <use xlink:href="#CMUBright-Roman-33" transform="translate(150.766022 33.957813) scale(0.7)"/>
      </g>
     </g>
    </g>
    <g id="xtick_2">
     <g id="line2d_2">
      <g>
       <use xlink:href="#m1f2ee2e52b" x="333.805288" y="303.357661" style="fill: #5a5758; stroke: #5a5758; stroke-width: 0.8"/>
      </g>
     </g>
     <g id="text_2">
      <!-- $\mathdefault{10^{-2}}$ -->
      <g style="fill: #5a5758" transform="translate(319.560988 320.778491) scale(0.14994 -0.14994)">
       <defs>
        <path id="CMUBright-Roman-32" d="M 275 3226 
Q 595 4301 1587 4301 
L 1594 4301 
Q 2214 4294 2617 3923 
Q 3021 3552 3021 2989 
Q 3021 2746 2937 2531 
Q 2854 2317 2668 2115 
Q 2483 1914 2384 1821 
Q 2285 1728 2061 1549 
Q 1754 1299 1642 1203 
Q 1530 1107 698 358 
L 3021 358 
L 3021 0 
L 333 0 
L 333 339 
L 1683 1562 
Q 2144 1965 2368 2278 
Q 2592 2592 2592 2982 
Q 2592 3418 2278 3690 
Q 1965 3962 1498 3962 
Q 1069 3962 854 3693 
Q 640 3424 512 2938 
L 275 3226 
z
" transform="scale(0.015625)"/>
       </defs>
       <use xlink:href="#CMUBright-Roman-31" transform="translate(0 0.915625)"/>
       <use xlink:href="#CMUBright-Roman-30" transform="translate(52.499985 0.915625)"/>
       <use xlink:href="#CMUBright-Roman-2212" transform="translate(105.826024 33.957813) scale(0.7)"/>
       <use xlink:href="#CMUBright-Roman-32" transform="translate(150.766022 33.957813) scale(0.7)"/>
      </g>
     </g>
    </g>
    <g id="xtick_3">
     <g id="line2d_3">
      <defs>
       <path id="m4c9cc03f63" d="M 0 0 
L 0 2 
" style="stroke: #5a5758; stroke-width: 0.6"/>
      </defs>
      <g>
       <use xlink:href="#m4c9cc03f63" x="156.969864" y="303.357661" style="fill: #5a5758; stroke: #5a5758; stroke-width: 0.6"/>
      </g>
     </g>
    </g>
    <g id="xtick_4">
     <g id="line2d_4">
      <g>
       <use xlink:href="#m4c9cc03f63" x="201.519948" y="303.357661" style="fill: #5a5758; stroke: #5a5758; stroke-width: 0.6"/>
      </g>
     </g>
    </g>
    <g id="xtick_5">
     <g id="line2d_5">
      <g>
       <use xlink:href="#m4c9cc03f63" x="233.128736" y="303.357661" style="fill: #5a5758; stroke: #5a5758; stroke-width: 0.6"/>
      </g>
     </g>
    </g>
    <g id="xtick_6">
     <g id="line2d_6">
      <g>
       <use xlink:href="#m4c9cc03f63" x="257.646416" y="303.357661" style="fill: #5a5758; stroke: #5a5758; stroke-width: 0.6"/>
      </g>
     </g>
    </g>
    <g id="xtick_7">
     <g id="line2d_7">
      <g>
       <use xlink:href="#m4c9cc03f63" x="277.67882" y="303.357661" style="fill: #5a5758; stroke: #5a5758; stroke-width: 0.6"/>
      </g>
     </g>
    </g>
    <g id="xtick_8">
     <g id="line2d_8">
      <g>
       <use xlink:href="#m4c9cc03f63" x="294.615976" y="303.357661" style="fill: #5a5758; stroke: #5a5758; stroke-width: 0.6"/>
      </g>
     </g>
    </g>
    <g id="xtick_9">
     <g id="line2d_9">
      <g>
       <use xlink:href="#m4c9cc03f63" x="309.287607" y="303.357661" style="fill: #5a5758; stroke: #5a5758; stroke-width: 0.6"/>
      </g>
     </g>
    </g>
    <g id="xtick_10">
     <g id="line2d_10">
      <g>
       <use xlink:href="#m4c9cc03f63" x="322.228904" y="303.357661" style="fill: #5a5758; stroke: #5a5758; stroke-width: 0.6"/>
      </g>
     </g>
    </g>
    <g id="xtick_11">
     <g id="line2d_11">
      <g>
       <use xlink:href="#m4c9cc03f63" x="409.964159" y="303.357661" style="fill: #5a5758; stroke: #5a5758; stroke-width: 0.6"/>
      </g>
     </g>
    </g>
    <g id="xtick_12">
     <g id="line2d_12">
      <g>
       <use xlink:href="#m4c9cc03f63" x="454.514243" y="303.357661" style="fill: #5a5758; stroke: #5a5758; stroke-width: 0.6"/>
      </g>
     </g>
    </g>
    <g id="text_3">
     <!-- $\Delta x$ -->
     <g style="fill: #5a5758" transform="translate(256.542341 343.792957) scale(0.18 -0.18)">
      <defs>
       <path id="CMUBright-SemiBold-394" d="M 275 0 
L 2419 4499 
L 3168 4499 
L 5312 0 
L 275 0 
z
M 1216 634 
L 4269 634 
L 2746 3834 
L 1216 634 
z
" transform="scale(0.015625)"/>
       <path id="CMUBright-SemiBold-78" d="M 0 0 
L 1184 1562 
L 1184 1568 
L 38 3021 
L 698 3021 
L 1446 2022 
L 2163 3021 
L 2816 3021 
L 1709 1568 
L 1709 1562 
L 2931 0 
L 2272 0 
L 1446 1197 
L 1440 1197 
L 653 0 
L 0 0 
z
" transform="scale(0.015625)"/>
      </defs>
      <use xlink:href="#CMUBright-SemiBold-394" transform="translate(0 0.703125)"/>
      <use xlink:href="#CMUBright-SemiBold-78" transform="translate(87.499985 0.703125)"/>
     </g>
    </g>
   </g>
   <g id="matplotlib.axis_2">
    <g id="ytick_1">
     <g id="line2d_13">
      <defs>
       <path id="m9863817e96" d="M 0 0 
L -3.5 0 
" style="stroke: #5a5758; stroke-width: 0.8"/>
      </defs>
      <g>
       <use xlink:href="#m9863817e96" x="66.205163" y="273.361022" style="fill: #5a5758; stroke: #5a5758; stroke-width: 0.8"/>
      </g>
     </g>
     <g id="text_4">
      <!-- $\mathdefault{10^{-6}}$ -->
      <g style="fill: #5a5758" transform="translate(30.716563 278.571437) scale(0.14994 -0.14994)">
       <defs>
        <path id="CMUBright-Roman-36" d="M 346 2061 
Q 346 3072 864 3686 
Q 1382 4301 2074 4301 
L 2086 4301 
Q 2426 4301 2797 4179 
L 2797 3846 
Q 2374 3981 2074 3981 
L 2061 3981 
Q 1478 3981 1123 3491 
Q 768 3002 768 2208 
Q 768 2195 771 2166 
Q 774 2138 774 2125 
Q 928 2445 1238 2665 
Q 1549 2886 1952 2886 
Q 2387 2886 2682 2483 
Q 3008 2029 3008 1408 
Q 3008 768 2618 326 
Q 2240 -109 1690 -109 
Q 1510 -109 1340 -57 
Q 1171 -6 985 141 
Q 800 288 662 521 
Q 525 755 435 1152 
Q 346 1549 346 2061 
z
M 794 1389 
Q 813 1171 854 1004 
Q 896 838 985 643 
Q 1075 448 1254 336 
Q 1434 224 1690 224 
Q 2138 224 2381 550 
Q 2515 736 2550 921 
Q 2586 1107 2586 1434 
Q 2586 1645 2573 1776 
Q 2560 1907 2480 2089 
Q 2400 2272 2253 2400 
Q 2054 2566 1728 2566 
Q 1325 2566 1062 2265 
Q 800 1965 800 1555 
Q 800 1440 806 1389 
L 794 1389 
z
" transform="scale(0.015625)"/>
       </defs>
       <use xlink:href="#CMUBright-Roman-31" transform="translate(0 0.915625)"/>
       <use xlink:href="#CMUBright-Roman-30" transform="translate(52.499985 0.915625)"/>
       <use xlink:href="#CMUBright-Roman-2212" transform="translate(105.826024 33.957813) scale(0.7)"/>
       <use xlink:href="#CMUBright-Roman-36" transform="translate(150.766022 33.957813) scale(0.7)"/>
      </g>
     </g>
    </g>
    <g id="ytick_2">
     <g id="line2d_14">
      <g>
       <use xlink:href="#m9863817e96" x="66.205163" y="218.317" style="fill: #5a5758; stroke: #5a5758; stroke-width: 0.8"/>
      </g>
     </g>
     <g id="text_5">
      <!-- $\mathdefault{10^{-5}}$ -->
      <g style="fill: #5a5758" transform="translate(30.716563 223.527415) scale(0.14994 -0.14994)">
       <defs>
        <path id="CMUBright-Roman-35" d="M 301 518 
L 486 819 
Q 896 224 1581 224 
Q 1971 224 2268 473 
Q 2566 723 2566 1312 
Q 2566 1626 2489 1846 
Q 2413 2067 2285 2176 
Q 2157 2285 2032 2329 
Q 1907 2374 1773 2374 
Q 1210 2374 941 1901 
L 582 1901 
L 582 4192 
L 2797 4192 
L 2797 3853 
L 973 3853 
L 973 2381 
Q 1325 2701 1779 2701 
Q 2285 2701 2653 2291 
Q 3021 1882 3021 1306 
Q 3021 723 2601 307 
Q 2182 -109 1574 -109 
Q 813 -109 301 518 
z
" transform="scale(0.015625)"/>
       </defs>
       <use xlink:href="#CMUBright-Roman-31" transform="translate(0 0.107813)"/>
       <use xlink:href="#CMUBright-Roman-30" transform="translate(52.499985 0.107813)"/>
       <use xlink:href="#CMUBright-Roman-2212" transform="translate(105.826024 33.15) scale(0.7)"/>
       <use xlink:href="#CMUBright-Roman-35" transform="translate(150.766022 33.15) scale(0.7)"/>
      </g>
     </g>
    </g>
    <g id="ytick_3">
     <g id="line2d_15">
      <g>
       <use xlink:href="#m9863817e96" x="66.205163" y="163.272978" style="fill: #5a5758; stroke: #5a5758; stroke-width: 0.8"/>
      </g>
     </g>
     <g id="text_6">
      <!-- $\mathdefault{10^{-4}}$ -->
      <g style="fill: #5a5758" transform="translate(30.716563 168.483393) scale(0.14994 -0.14994)">
       <defs>
        <path id="CMUBright-Roman-34" d="M 186 1158 
L 186 1504 
L 1952 4250 
L 2438 4250 
L 2438 1498 
L 3168 1498 
L 3168 1158 
L 2438 1158 
L 2438 0 
L 2035 0 
L 2035 1158 
L 186 1158 
z
M 602 1498 
L 2054 1498 
L 2054 3885 
Q 1971 3667 1606 3085 
L 602 1498 
z
" transform="scale(0.015625)"/>
       </defs>
       <use xlink:href="#CMUBright-Roman-31" transform="translate(0 0.473438)"/>
       <use xlink:href="#CMUBright-Roman-30" transform="translate(52.499985 0.473438)"/>
       <use xlink:href="#CMUBright-Roman-2212" transform="translate(105.826024 33.515625) scale(0.7)"/>
       <use xlink:href="#CMUBright-Roman-34" transform="translate(150.766022 33.515625) scale(0.7)"/>
      </g>
     </g>
    </g>
    <g id="ytick_4">
     <g id="line2d_16">
      <g>
       <use xlink:href="#m9863817e96" x="66.205163" y="108.228956" style="fill: #5a5758; stroke: #5a5758; stroke-width: 0.8"/>
      </g>
     </g>
     <g id="text_7">
      <!-- $\mathdefault{10^{-3}}$ -->
      <g style="fill: #5a5758" transform="translate(30.716563 113.439371) scale(0.14994 -0.14994)">
       <use xlink:href="#CMUBright-Roman-31" transform="translate(0 0.915625)"/>
       <use xlink:href="#CMUBright-Roman-30" transform="translate(52.499985 0.915625)"/>
       <use xlink:href="#CMUBright-Roman-2212" transform="translate(105.826024 33.957813) scale(0.7)"/>
       <use xlink:href="#CMUBright-Roman-33" transform="translate(150.766022 33.957813) scale(0.7)"/>
      </g>
     </g>
    </g>
    <g id="ytick_5">
     <g id="line2d_17">
      <g>
       <use xlink:href="#m9863817e96" x="66.205163" y="53.184935" style="fill: #5a5758; stroke: #5a5758; stroke-width: 0.8"/>
      </g>
     </g>
     <g id="text_8">
      <!-- $\mathdefault{10^{-2}}$ -->
      <g style="fill: #5a5758" transform="translate(30.716563 58.39535) scale(0.14994 -0.14994)">
       <use xlink:href="#CMUBright-Roman-31" transform="translate(0 0.915625)"/>
       <use xlink:href="#CMUBright-Roman-30" transform="translate(52.499985 0.915625)"/>
       <use xlink:href="#CMUBright-Roman-2212" transform="translate(105.826024 33.957813) scale(0.7)"/>
       <use xlink:href="#CMUBright-Roman-32" transform="translate(150.766022 33.957813) scale(0.7)"/>
      </g>
     </g>
    </g>
    <g id="ytick_6">
     <g id="line2d_18">
      <defs>
       <path id="ma453ae9068" d="M 0 0 
L -2 0 
" style="stroke: #5a5758; stroke-width: 0.6"/>
      </defs>
      <g>
       <use xlink:href="#ma453ae9068" x="66.205163" y="289.930923" style="fill: #5a5758; stroke: #5a5758; stroke-width: 0.6"/>
      </g>
     </g>
    </g>
    <g id="ytick_7">
     <g id="line2d_19">
      <g>
       <use xlink:href="#ma453ae9068" x="66.205163" y="285.572469" style="fill: #5a5758; stroke: #5a5758; stroke-width: 0.6"/>
      </g>
     </g>
    </g>
    <g id="ytick_8">
     <g id="line2d_20">
      <g>
       <use xlink:href="#ma453ae9068" x="66.205163" y="281.887448" style="fill: #5a5758; stroke: #5a5758; stroke-width: 0.6"/>
      </g>
     </g>
    </g>
    <g id="ytick_9">
     <g id="line2d_21">
      <g>
       <use xlink:href="#ma453ae9068" x="66.205163" y="278.695338" style="fill: #5a5758; stroke: #5a5758; stroke-width: 0.6"/>
      </g>
     </g>
    </g>
    <g id="ytick_10">
     <g id="line2d_22">
      <g>
       <use xlink:href="#ma453ae9068" x="66.205163" y="275.879698" style="fill: #5a5758; stroke: #5a5758; stroke-width: 0.6"/>
      </g>
     </g>
    </g>
    <g id="ytick_11">
     <g id="line2d_23">
      <g>
       <use xlink:href="#ma453ae9068" x="66.205163" y="256.79112" style="fill: #5a5758; stroke: #5a5758; stroke-width: 0.6"/>
      </g>
     </g>
    </g>
    <g id="ytick_12">
     <g id="line2d_24">
      <g>
       <use xlink:href="#ma453ae9068" x="66.205163" y="247.098349" style="fill: #5a5758; stroke: #5a5758; stroke-width: 0.6"/>
      </g>
     </g>
    </g>
    <g id="ytick_13">
     <g id="line2d_25">
      <g>
       <use xlink:href="#ma453ae9068" x="66.205163" y="240.221218" style="fill: #5a5758; stroke: #5a5758; stroke-width: 0.6"/>
      </g>
     </g>
    </g>
    <g id="ytick_14">
     <g id="line2d_26">
      <g>
       <use xlink:href="#ma453ae9068" x="66.205163" y="234.886901" style="fill: #5a5758; stroke: #5a5758; stroke-width: 0.6"/>
      </g>
     </g>
    </g>
    <g id="ytick_15">
     <g id="line2d_27">
      <g>
       <use xlink:href="#ma453ae9068" x="66.205163" y="230.528447" style="fill: #5a5758; stroke: #5a5758; stroke-width: 0.6"/>
      </g>
     </g>
    </g>
    <g id="ytick_16">
     <g id="line2d_28">
      <g>
       <use xlink:href="#ma453ae9068" x="66.205163" y="226.843427" style="fill: #5a5758; stroke: #5a5758; stroke-width: 0.6"/>
      </g>
     </g>
    </g>
    <g id="ytick_17">
     <g id="line2d_29">
      <g>
       <use xlink:href="#ma453ae9068" x="66.205163" y="223.651317" style="fill: #5a5758; stroke: #5a5758; stroke-width: 0.6"/>
      </g>
     </g>
    </g>
    <g id="ytick_18">
     <g id="line2d_30">
      <g>
       <use xlink:href="#ma453ae9068" x="66.205163" y="220.835676" style="fill: #5a5758; stroke: #5a5758; stroke-width: 0.6"/>
      </g>
     </g>
    </g>
    <g id="ytick_19">
     <g id="line2d_31">
      <g>
       <use xlink:href="#ma453ae9068" x="66.205163" y="201.747098" style="fill: #5a5758; stroke: #5a5758; stroke-width: 0.6"/>
      </g>
     </g>
    </g>
    <g id="ytick_20">
     <g id="line2d_32">
      <g>
       <use xlink:href="#ma453ae9068" x="66.205163" y="192.054327" style="fill: #5a5758; stroke: #5a5758; stroke-width: 0.6"/>
      </g>
     </g>
    </g>
    <g id="ytick_21">
     <g id="line2d_33">
      <g>
       <use xlink:href="#ma453ae9068" x="66.205163" y="185.177197" style="fill: #5a5758; stroke: #5a5758; stroke-width: 0.6"/>
      </g>
     </g>
    </g>
    <g id="ytick_22">
     <g id="line2d_34">
      <g>
       <use xlink:href="#ma453ae9068" x="66.205163" y="179.84288" style="fill: #5a5758; stroke: #5a5758; stroke-width: 0.6"/>
      </g>
     </g>
    </g>
    <g id="ytick_23">
     <g id="line2d_35">
      <g>
       <use xlink:href="#ma453ae9068" x="66.205163" y="175.484426" style="fill: #5a5758; stroke: #5a5758; stroke-width: 0.6"/>
      </g>
     </g>
    </g>
    <g id="ytick_24">
     <g id="line2d_36">
      <g>
       <use xlink:href="#ma453ae9068" x="66.205163" y="171.799405" style="fill: #5a5758; stroke: #5a5758; stroke-width: 0.6"/>
      </g>
     </g>
    </g>
    <g id="ytick_25">
     <g id="line2d_37">
      <g>
       <use xlink:href="#ma453ae9068" x="66.205163" y="168.607295" style="fill: #5a5758; stroke: #5a5758; stroke-width: 0.6"/>
      </g>
     </g>
    </g>
    <g id="ytick_26">
     <g id="line2d_38">
      <g>
       <use xlink:href="#ma453ae9068" x="66.205163" y="165.791654" style="fill: #5a5758; stroke: #5a5758; stroke-width: 0.6"/>
      </g>
     </g>
    </g>
    <g id="ytick_27">
     <g id="line2d_39">
      <g>
       <use xlink:href="#ma453ae9068" x="66.205163" y="146.703076" style="fill: #5a5758; stroke: #5a5758; stroke-width: 0.6"/>
      </g>
     </g>
    </g>
    <g id="ytick_28">
     <g id="line2d_40">
      <g>
       <use xlink:href="#ma453ae9068" x="66.205163" y="137.010305" style="fill: #5a5758; stroke: #5a5758; stroke-width: 0.6"/>
      </g>
     </g>
    </g>
    <g id="ytick_29">
     <g id="line2d_41">
      <g>
       <use xlink:href="#ma453ae9068" x="66.205163" y="130.133175" style="fill: #5a5758; stroke: #5a5758; stroke-width: 0.6"/>
      </g>
     </g>
    </g>
    <g id="ytick_30">
     <g id="line2d_42">
      <g>
       <use xlink:href="#ma453ae9068" x="66.205163" y="124.798858" style="fill: #5a5758; stroke: #5a5758; stroke-width: 0.6"/>
      </g>
     </g>
    </g>
    <g id="ytick_31">
     <g id="line2d_43">
      <g>
       <use xlink:href="#ma453ae9068" x="66.205163" y="120.440404" style="fill: #5a5758; stroke: #5a5758; stroke-width: 0.6"/>
      </g>
     </g>
    </g>
    <g id="ytick_32">
     <g id="line2d_44">
      <g>
       <use xlink:href="#ma453ae9068" x="66.205163" y="116.755383" style="fill: #5a5758; stroke: #5a5758; stroke-width: 0.6"/>
      </g>
     </g>
    </g>
    <g id="ytick_33">
     <g id="line2d_45">
      <g>
       <use xlink:href="#ma453ae9068" x="66.205163" y="113.563273" style="fill: #5a5758; stroke: #5a5758; stroke-width: 0.6"/>
      </g>
     </g>
    </g>
    <g id="ytick_34">
     <g id="line2d_46">
      <g>
       <use xlink:href="#ma453ae9068" x="66.205163" y="110.747633" style="fill: #5a5758; stroke: #5a5758; stroke-width: 0.6"/>
      </g>
     </g>
    </g>
    <g id="ytick_35">
     <g id="line2d_47">
      <g>
       <use xlink:href="#ma453ae9068" x="66.205163" y="91.659055" style="fill: #5a5758; stroke: #5a5758; stroke-width: 0.6"/>
      </g>
     </g>
    </g>
    <g id="ytick_36">
     <g id="line2d_48">
      <g>
       <use xlink:href="#ma453ae9068" x="66.205163" y="81.966284" style="fill: #5a5758; stroke: #5a5758; stroke-width: 0.6"/>
      </g>
     </g>
    </g>
    <g id="ytick_37">
     <g id="line2d_49">
      <g>
       <use xlink:href="#ma453ae9068" x="66.205163" y="75.089153" style="fill: #5a5758; stroke: #5a5758; stroke-width: 0.6"/>
      </g>
     </g>
    </g>
    <g id="ytick_38">
     <g id="line2d_50">
      <g>
       <use xlink:href="#ma453ae9068" x="66.205163" y="69.754836" style="fill: #5a5758; stroke: #5a5758; stroke-width: 0.6"/>
      </g>
     </g>
    </g>
    <g id="ytick_39">
     <g id="line2d_51">
      <g>
       <use xlink:href="#ma453ae9068" x="66.205163" y="65.396382" style="fill: #5a5758; stroke: #5a5758; stroke-width: 0.6"/>
      </g>
     </g>
    </g>
    <g id="ytick_40">
     <g id="line2d_52">
      <g>
       <use xlink:href="#ma453ae9068" x="66.205163" y="61.711361" style="fill: #5a5758; stroke: #5a5758; stroke-width: 0.6"/>
      </g>
     </g>
    </g>
    <g id="ytick_41">
     <g id="line2d_53">
      <g>
       <use xlink:href="#ma453ae9068" x="66.205163" y="58.519252" style="fill: #5a5758; stroke: #5a5758; stroke-width: 0.6"/>
      </g>
     </g>
    </g>
    <g id="ytick_42">
     <g id="line2d_54">
      <g>
       <use xlink:href="#ma453ae9068" x="66.205163" y="55.703611" style="fill: #5a5758; stroke: #5a5758; stroke-width: 0.6"/>
      </g>
     </g>
    </g>
    <g id="ytick_43">
     <g id="line2d_55">
      <g>
       <use xlink:href="#ma453ae9068" x="66.205163" y="36.615033" style="fill: #5a5758; stroke: #5a5758; stroke-width: 0.6"/>
      </g>
     </g>
    </g>
    <g id="ytick_44">
     <g id="line2d_56">
      <g>
       <use xlink:href="#ma453ae9068" x="66.205163" y="26.922262" style="fill: #5a5758; stroke: #5a5758; stroke-width: 0.6"/>
      </g>
     </g>
    </g>
    <g id="ytick_45">
     <g id="line2d_57">
      <g>
       <use xlink:href="#ma453ae9068" x="66.205163" y="20.045131" style="fill: #5a5758; stroke: #5a5758; stroke-width: 0.6"/>
      </g>
     </g>
    </g>
    <g id="ytick_46">
     <g id="line2d_58">
      <g>
       <use xlink:href="#ma453ae9068" x="66.205163" y="14.710815" style="fill: #5a5758; stroke: #5a5758; stroke-width: 0.6"/>
      </g>
     </g>
    </g>
    <g id="ytick_47">
     <g id="line2d_59">
      <g>
       <use xlink:href="#ma453ae9068" x="66.205163" y="10.35236" style="fill: #5a5758; stroke: #5a5758; stroke-width: 0.6"/>
      </g>
     </g>
    </g>
    <g id="text_9">
     <!-- $L_2$ error -->
     <g style="fill: #5a5758" transform="translate(19.71 180.83883) rotate(-90) scale(0.18 -0.18)">
      <defs>
       <path id="CMUBright-SemiBold-4c" d="M 512 0 
L 512 4448 
L 1184 4448 
L 1184 512 
L 3341 512 
L 3341 0 
L 512 0 
z
" transform="scale(0.015625)"/>
       <path id="CMUBright-SemiBold-32" d="M 275 3373 
Q 602 4301 1581 4301 
Q 2240 4301 2630 3894 
Q 3021 3488 3021 2918 
Q 3021 2739 2957 2569 
Q 2893 2400 2822 2285 
Q 2752 2170 2573 2000 
Q 2394 1830 2298 1753 
Q 2202 1677 1952 1478 
Q 1773 1338 877 538 
L 3021 538 
L 3021 0 
L 333 0 
L 333 512 
Q 1158 1286 1574 1645 
Q 1984 1990 2182 2272 
Q 2381 2554 2381 2906 
Q 2381 3283 2134 3539 
Q 1888 3795 1491 3795 
Q 851 3795 627 2938 
L 275 3373 
z
" transform="scale(0.015625)"/>
       <path id="CMUBright-SemiBold-20" transform="scale(0.015625)"/>
       <path id="CMUBright-SemiBold-65" d="M 186 1530 
Q 186 2189 605 2646 
Q 1024 3104 1606 3104 
Q 1766 3104 1920 3069 
Q 2074 3034 2243 2931 
Q 2413 2829 2534 2669 
Q 2656 2509 2739 2233 
Q 2822 1958 2822 1600 
L 762 1600 
L 762 1536 
Q 762 1062 1040 745 
Q 1318 429 1709 429 
Q 2240 429 2739 794 
L 2784 275 
Q 2278 -51 1709 -51 
Q 1043 -51 614 419 
Q 186 890 186 1530 
z
M 838 1978 
L 2298 1978 
Q 2144 2618 1600 2618 
Q 1363 2618 1148 2448 
Q 934 2278 838 1978 
z
" transform="scale(0.015625)"/>
       <path id="CMUBright-SemiBold-72" d="M 416 0 
L 416 3021 
L 992 3021 
L 992 2368 
Q 1370 3059 2112 3072 
L 2112 2528 
Q 1939 2528 1769 2480 
Q 1600 2432 1421 2326 
Q 1242 2221 1130 2013 
Q 1018 1805 1018 1517 
L 1018 0 
L 416 0 
z
" transform="scale(0.015625)"/>
       <path id="CMUBright-SemiBold-6f" d="M 630 390 
Q 186 832 186 1504 
Q 186 2176 627 2637 
Q 1069 3098 1677 3098 
Q 2310 3098 2739 2618 
Q 3168 2138 3168 1498 
Q 3168 838 2726 393 
Q 2285 -51 1677 -51 
Q 1075 -51 630 390 
z
M 800 1594 
Q 800 998 1037 717 
Q 1267 448 1677 448 
Q 2061 448 2291 685 
Q 2554 954 2554 1606 
Q 2554 2150 2307 2384 
Q 2061 2618 1677 2618 
Q 800 2618 800 1594 
z
" transform="scale(0.015625)"/>
      </defs>
      <use xlink:href="#CMUBright-SemiBold-4c" transform="translate(0 0.5)"/>
      <use xlink:href="#CMUBright-SemiBold-32" transform="translate(57.526052 -13.660938) scale(0.7)"/>
      <use xlink:href="#CMUBright-SemiBold-20" transform="translate(96.636197 0.5)"/>
      <use xlink:href="#CMUBright-SemiBold-65" transform="translate(129.936185 0.5)"/>
      <use xlink:href="#CMUBright-SemiBold-72" transform="translate(177.036176 0.5)"/>
      <use xlink:href="#CMUBright-SemiBold-72" transform="translate(211.636167 0.5)"/>
      <use xlink:href="#CMUBright-SemiBold-6f" transform="translate(246.236158 0.5)"/>
      <use xlink:href="#CMUBright-SemiBold-72" transform="translate(298.736142 0.5)"/>
     </g>
    </g>
   </g>
   <g id="line2d_60">
    <path d="M 458.99952 10.2 
L 382.840649 40.36781 
L 306.681777 72.987709 
L 230.522905 106.019274 
L 154.364034 139.125687 
L 78.205163 172.251924 
" style="fill: none; stroke: #e29400; stroke-width: 2; stroke-linecap: square"/>
    <defs>
     <path id="m33837c8d62" d="M 0 3 
C 0.795609 3 1.55874 2.683901 2.12132 2.12132 
C 2.683901 1.55874 3 0.795609 3 0 
C 3 -0.795609 2.683901 -1.55874 2.12132 -2.12132 
C 1.55874 -2.683901 0.795609 -3 0 -3 
C -0.795609 -3 -1.55874 -2.683901 -2.12132 -2.12132 
C -2.683901 -1.55874 -3 -0.795609 -3 0 
C -3 0.795609 -2.683901 1.55874 -2.12132 2.12132 
C -1.55874 2.683901 -0.795609 3 0 3 
z
" style="stroke: #ffffff"/>
    </defs>
    <g>
     <use xlink:href="#m33837c8d62" x="458.99952" y="10.2" style="fill: #e29400; stroke: #ffffff"/>
     <use xlink:href="#m33837c8d62" x="382.840649" y="40.36781" style="fill: #e29400; stroke: #ffffff"/>
     <use xlink:href="#m33837c8d62" x="306.681777" y="72.987709" style="fill: #e29400; stroke: #ffffff"/>
     <use xlink:href="#m33837c8d62" x="230.522905" y="106.019274" style="fill: #e29400; stroke: #ffffff"/>
     <use xlink:href="#m33837c8d62" x="154.364034" y="139.125687" style="fill: #e29400; stroke: #ffffff"/>
     <use xlink:href="#m33837c8d62" x="78.205163" y="172.251924" style="fill: #e29400; stroke: #ffffff"/>
    </g>
   </g>
   <g id="line2d_61">
    <path d="M 458.99952 10.2 
L 382.840649 40.36781 
L 306.681777 72.987709 
L 230.522905 106.019274 
L 154.364034 139.125687 
L 78.205163 172.251924 
" style="fill: none; stroke-dasharray: 7.4,3.2; stroke-dashoffset: 0; stroke: #1e90ff; stroke-width: 2"/>
    <defs>
     <path id="mcd9007620b" d="M 0 3 
C 0.795609 3 1.55874 2.683901 2.12132 2.12132 
C 2.683901 1.55874 3 0.795609 3 0 
C 3 -0.795609 2.683901 -1.55874 2.12132 -2.12132 
C 1.55874 -2.683901 0.795609 -3 0 -3 
C -0.795609 -3 -1.55874 -2.683901 -2.12132 -2.12132 
C -2.683901 -1.55874 -3 -0.795609 -3 0 
C -3 0.795609 -2.683901 1.55874 -2.12132 2.12132 
C -1.55874 2.683901 -0.795609 3 0 3 
z
" style="stroke: #ffffff"/>
    </defs>
    <g>
     <use xlink:href="#mcd9007620b" x="458.99952" y="10.2" style="fill: #1e90ff; stroke: #ffffff"/>
     <use xlink:href="#mcd9007620b" x="382.840649" y="40.36781" style="fill: #1e90ff; stroke: #ffffff"/>
     <use xlink:href="#mcd9007620b" x="306.681777" y="72.987709" style="fill: #1e90ff; stroke: #ffffff"/>
     <use xlink:href="#mcd9007620b" x="230.522905" y="106.019274" style="fill: #1e90ff; stroke: #ffffff"/>
     <use xlink:href="#mcd9007620b" x="154.364034" y="139.125687" style="fill: #1e90ff; stroke: #ffffff"/>
     <use xlink:href="#mcd9007620b" x="78.205163" y="172.251924" style="fill: #1e90ff; stroke: #ffffff"/>
    </g>
   </g>
   <g id="line2d_62">
    <path d="M 458.99952 47.32434 
L 382.840649 93.433308 
L 306.681777 142.45179 
L 230.522905 192.016903 
L 154.364034 241.684262 
L 78.205163 291.357661 
" style="fill: none; stroke: #e21a1a; stroke-width: 2; stroke-linecap: square"/>
    <defs>
     <path id="mb36c7949ba" d="M 0 3 
C 0.795609 3 1.55874 2.683901 2.12132 2.12132 
C 2.683901 1.55874 3 0.795609 3 0 
C 3 -0.795609 2.683901 -1.55874 2.12132 -2.12132 
C 1.55874 -2.683901 0.795609 -3 0 -3 
C -0.795609 -3 -1.55874 -2.683901 -2.12132 -2.12132 
C -2.683901 -1.55874 -3 -0.795609 -3 0 
C -3 0.795609 -2.683901 1.55874 -2.12132 2.12132 
C -1.55874 2.683901 -0.795609 3 0 3 
z
" style="stroke: #ffffff"/>
    </defs>
    <g>
     <use xlink:href="#mb36c7949ba" x="458.99952" y="47.32434" style="fill: #e21a1a; stroke: #ffffff"/>
     <use xlink:href="#mb36c7949ba" x="382.840649" y="93.433308" style="fill: #e21a1a; stroke: #ffffff"/>
     <use xlink:href="#mb36c7949ba" x="306.681777" y="142.45179" style="fill: #e21a1a; stroke: #ffffff"/>
     <use xlink:href="#mb36c7949ba" x="230.522905" y="192.016903" style="fill: #e21a1a; stroke: #ffffff"/>
     <use xlink:href="#mb36c7949ba" x="154.364034" y="241.684262" style="fill: #e21a1a; stroke: #ffffff"/>
     <use xlink:href="#mb36c7949ba" x="78.205163" y="291.357661" style="fill: #e21a1a; stroke: #ffffff"/>
    </g>
   </g>
   <g id="patch_3">
    <path d="M 66.205163 291.357661 
L 66.205163 10.2 
" style="fill: none; stroke: #5a5758; stroke-width: 0.8; stroke-linejoin: miter; stroke-linecap: square"/>
   </g>
   <g id="patch_4">
    <path d="M 78.205163 303.357661 
L 458.99952 303.357661 
" style="fill: none; stroke: #5a5758; stroke-width: 0.8; stroke-linejoin: miter; stroke-linecap: square"/>
   </g>
   <g id="legend_1">
    <g id="line2d_63">
     <path d="M 217.261083 233.003911 
L 231.261083 233.003911 
L 245.261083 233.003911 
" style="fill: none; stroke: #e29400; stroke-width: 2; stroke-linecap: square"/>
     <g>
      <use xlink:href="#m33837c8d62" x="231.261083" y="233.003911" style="fill: #e29400; stroke: #ffffff"/>
     </g>
    </g>
    <g id="text_10">
     <!-- Lax Wendroff, P = -1.997985 -->
     <g style="fill: #e29400" transform="translate(256.461083 237.903911) scale(0.14 -0.14)">
      <defs>
       <path id="CMUBright-Roman-4c" d="M 627 0 
L 627 4448 
L 1075 4448 
L 1075 339 
L 3347 339 
L 3347 0 
L 627 0 
z
" transform="scale(0.015625)"/>
       <path id="CMUBright-Roman-61" d="M 352 736 
Q 352 896 435 1046 
Q 518 1197 707 1347 
Q 896 1498 1283 1590 
Q 1670 1683 2214 1696 
L 2214 1965 
Q 2214 2381 2042 2579 
Q 1856 2803 1568 2803 
Q 1331 2803 1107 2736 
Q 883 2669 809 2624 
Q 736 2579 557 2470 
L 525 2829 
Q 1043 3104 1574 3104 
Q 2054 3104 2326 2806 
Q 2598 2509 2624 2144 
L 2630 1926 
L 2630 0 
L 2227 0 
L 2227 442 
Q 1830 -51 1107 -51 
L 1062 -51 
Q 710 -51 531 205 
Q 352 461 352 736 
z
M 749 749 
Q 749 518 950 393 
Q 1152 269 1408 269 
Q 1523 269 1644 297 
Q 1766 326 1904 390 
Q 2042 454 2128 595 
Q 2214 736 2214 928 
L 2214 1498 
Q 1568 1491 1158 1286 
Q 749 1082 749 749 
z
" transform="scale(0.015625)"/>
       <path id="CMUBright-Roman-78" d="M 0 0 
L 1261 1555 
L 1261 1562 
L 38 3021 
L 499 3021 
L 1446 1850 
L 2362 3021 
L 2816 3021 
L 1626 1555 
L 2931 0 
L 2470 0 
L 1446 1325 
L 1440 1325 
L 454 0 
L 0 0 
z
" transform="scale(0.015625)"/>
       <path id="CMUBright-Roman-20" transform="scale(0.015625)"/>
       <path id="CMUBright-Roman-57" d="M 90 4448 
L 525 4448 
L 1338 1734 
Q 1670 595 1702 416 
L 1766 691 
L 2112 1894 
L 2874 4448 
L 3322 4448 
L 4026 2131 
Q 4480 570 4512 416 
Q 4531 538 4915 1843 
L 5696 4448 
L 6086 4448 
L 4730 -32 
L 4269 -32 
L 3290 3238 
L 3110 3872 
L 3078 4032 
L 3027 3789 
L 2701 2662 
L 1894 -32 
L 1446 -32 
L 90 4448 
z
" transform="scale(0.015625)"/>
       <path id="CMUBright-Roman-65" d="M 269 1536 
Q 269 2163 646 2630 
Q 1024 3098 1587 3098 
Q 1786 3098 1968 3037 
Q 2150 2976 2342 2829 
Q 2534 2682 2652 2365 
Q 2771 2048 2771 1600 
L 653 1600 
L 653 1549 
Q 653 966 966 617 
Q 1280 269 1690 269 
Q 2234 269 2726 710 
L 2758 358 
Q 2266 -51 1690 -51 
Q 1101 -51 685 406 
Q 269 864 269 1536 
z
M 685 1856 
L 2426 1856 
Q 2381 2342 2134 2560 
Q 1888 2778 1587 2778 
Q 1261 2778 1008 2515 
Q 755 2253 685 1856 
z
" transform="scale(0.015625)"/>
       <path id="CMUBright-Roman-6e" d="M 512 0 
L 512 3021 
L 909 3021 
L 909 2400 
Q 1030 2682 1273 2877 
Q 1517 3072 1869 3072 
Q 2125 3072 2307 2992 
Q 2490 2912 2579 2809 
Q 2669 2707 2720 2540 
Q 2771 2374 2777 2272 
Q 2784 2170 2784 2016 
L 2784 0 
L 2374 0 
L 2374 1990 
Q 2374 2106 2371 2176 
Q 2368 2246 2329 2368 
Q 2291 2490 2220 2563 
Q 2150 2637 2006 2694 
Q 1862 2752 1658 2752 
Q 1370 2752 1149 2518 
Q 928 2285 928 1677 
L 928 0 
L 512 0 
z
" transform="scale(0.015625)"/>
       <path id="CMUBright-Roman-64" d="M 294 1510 
Q 294 2189 659 2630 
Q 1024 3072 1504 3072 
Q 2016 3072 2381 2624 
L 2381 4448 
L 2784 4448 
L 2784 0 
L 2374 0 
L 2374 269 
L 2368 467 
Q 2016 -51 1459 -51 
Q 966 -51 630 413 
Q 294 877 294 1510 
z
M 710 1510 
Q 710 1139 809 876 
Q 909 614 1065 492 
Q 1222 371 1369 320 
Q 1517 269 1664 269 
Q 2022 269 2259 582 
Q 2278 614 2304 652 
Q 2330 691 2339 707 
Q 2349 723 2358 752 
Q 2368 781 2371 816 
Q 2374 851 2374 902 
L 2374 2253 
Q 2374 2438 2179 2595 
Q 1984 2752 1722 2752 
Q 1619 2752 1504 2726 
Q 1389 2701 1241 2621 
Q 1094 2541 982 2413 
Q 870 2285 790 2048 
Q 710 1811 710 1510 
z
" transform="scale(0.015625)"/>
       <path id="CMUBright-Roman-72" d="M 512 0 
L 512 3021 
L 896 3021 
L 896 2534 
L 902 2234 
Q 954 2362 1043 2490 
Q 1133 2618 1273 2755 
Q 1414 2893 1632 2979 
Q 1850 3066 2112 3072 
L 2112 2714 
Q 1907 2707 1708 2643 
Q 1510 2579 1324 2444 
Q 1139 2310 1027 2070 
Q 915 1830 915 1510 
L 915 0 
L 512 0 
z
" transform="scale(0.015625)"/>
       <path id="CMUBright-Roman-6f" d="M 256 1510 
Q 256 2182 675 2640 
Q 1094 3098 1677 3098 
Q 2272 3098 2681 2627 
Q 3091 2157 3091 1510 
Q 3091 838 2668 393 
Q 2246 -51 1677 -51 
Q 1088 -51 672 406 
Q 256 864 256 1510 
z
M 666 1587 
Q 666 1190 771 915 
Q 877 640 1046 512 
Q 1216 384 1369 333 
Q 1523 282 1677 282 
Q 1843 282 2006 342 
Q 2170 403 2330 537 
Q 2490 672 2586 937 
Q 2682 1203 2682 1568 
Q 2682 1914 2586 2163 
Q 2490 2413 2330 2541 
Q 2170 2669 2006 2723 
Q 1843 2778 1676 2778 
Q 1510 2778 1347 2723 
Q 1184 2669 1024 2544 
Q 864 2419 765 2172 
Q 666 1926 666 1587 
z
" transform="scale(0.015625)"/>
       <path id="CMUBright-Roman-66" d="M 179 2701 
L 179 3021 
L 723 3021 
L 723 3430 
Q 723 3597 729 3680 
Q 736 3763 819 3939 
Q 902 4115 1069 4256 
Q 1363 4499 1798 4499 
Q 2022 4499 2323 4448 
L 2323 4083 
Q 2029 4173 1779 4173 
Q 1523 4173 1321 4067 
Q 1120 3962 1120 3712 
L 1120 3021 
L 1920 3021 
L 1920 2701 
L 1133 2701 
L 1133 0 
L 723 0 
L 723 2701 
L 179 2701 
z
" transform="scale(0.015625)"/>
       <path id="CMUBright-Roman-2c" d="M 678 0 
L 678 499 
L 1184 499 
L 1184 186 
L 1178 0 
L 934 -710 
L 678 -710 
L 832 0 
L 678 0 
z
" transform="scale(0.015625)"/>
       <path id="CMUBright-Roman-50" d="M 627 0 
L 627 4448 
L 2150 4448 
Q 2739 4448 3155 4218 
Q 3475 4038 3654 3756 
Q 3834 3475 3834 3162 
Q 3834 2957 3741 2745 
Q 3648 2534 3462 2336 
Q 3277 2138 2937 2013 
Q 2598 1888 2163 1888 
L 1075 1888 
L 1075 0 
L 627 0 
z
M 1069 2221 
L 2080 2221 
Q 2477 2221 2758 2310 
Q 3040 2400 3171 2553 
Q 3302 2707 3356 2851 
Q 3411 2995 3411 3162 
Q 3411 3322 3356 3469 
Q 3302 3616 3168 3769 
Q 3034 3923 2755 4012 
Q 2477 4102 2080 4102 
L 1069 4102 
L 1069 2221 
z
" transform="scale(0.015625)"/>
       <path id="CMUBright-Roman-3d" d="M 378 1062 
Q 378 1229 576 1229 
L 3533 1229 
Q 3725 1222 3725 1062 
Q 3725 909 3514 909 
L 589 909 
Q 378 909 378 1062 
z
M 378 2304 
Q 378 2470 582 2470 
L 3533 2470 
Q 3725 2464 3725 2304 
Q 3725 2150 3514 2150 
L 589 2150 
Q 378 2150 378 2304 
z
" transform="scale(0.015625)"/>
       <path id="CMUBright-Roman-2d" d="M 70 1350 
L 70 1670 
L 1862 1670 
L 1862 1350 
L 70 1350 
z
" transform="scale(0.015625)"/>
       <path id="CMUBright-Roman-2e" d="M 678 0 
L 678 499 
L 1178 499 
L 1178 0 
L 678 0 
z
" transform="scale(0.015625)"/>
       <path id="CMUBright-Roman-39" d="M 346 2803 
Q 346 3443 768 3885 
Q 1158 4301 1696 4301 
Q 1875 4301 2038 4253 
Q 2202 4205 2384 4061 
Q 2566 3917 2700 3686 
Q 2835 3456 2921 3053 
Q 3008 2650 3008 2125 
Q 3008 1171 2537 531 
Q 2067 -109 1382 -109 
Q 909 -109 486 186 
L 653 480 
L 723 435 
Q 794 384 838 358 
Q 883 333 969 297 
Q 1056 262 1158 243 
Q 1261 224 1376 224 
Q 1690 224 1933 381 
Q 2176 538 2313 797 
Q 2451 1056 2518 1357 
Q 2586 1658 2586 1984 
L 2586 2074 
Q 2438 1754 2121 1530 
Q 1805 1306 1402 1306 
Q 973 1306 678 1709 
Q 346 2157 346 2803 
z
M 768 2656 
Q 768 2240 966 1936 
Q 1165 1632 1632 1632 
Q 2035 1632 2297 1936 
Q 2560 2240 2560 2656 
Q 2560 2752 2554 2803 
L 2566 2803 
Q 2522 3462 2272 3721 
Q 2022 3981 1696 3981 
Q 1242 3981 986 3648 
Q 768 3366 768 2822 
L 768 2656 
z
" transform="scale(0.015625)"/>
       <path id="CMUBright-Roman-37" d="M 275 3840 
L 275 4192 
L 3072 4192 
L 3072 3853 
Q 2400 3149 1958 2147 
Q 1517 1146 1517 -51 
L 1088 -51 
Q 1088 1030 1523 2048 
Q 1958 3066 2797 3840 
L 275 3840 
z
" transform="scale(0.015625)"/>
       <path id="CMUBright-Roman-38" d="M 275 1158 
Q 275 1517 518 1817 
Q 762 2118 1248 2266 
Q 909 2349 640 2598 
Q 371 2848 371 3206 
Q 371 3642 745 3971 
Q 1120 4301 1677 4301 
Q 2221 4301 2601 3981 
Q 2982 3661 2982 3213 
Q 2982 2918 2787 2684 
Q 2592 2451 2285 2323 
L 2099 2266 
Q 2464 2176 2768 1885 
Q 3072 1594 3072 1158 
Q 3072 646 2665 268 
Q 2259 -109 1670 -109 
Q 1075 -109 675 275 
Q 275 659 275 1158 
z
M 698 1158 
Q 698 704 970 464 
Q 1242 224 1670 224 
Q 2118 224 2384 470 
Q 2650 717 2650 1165 
Q 2650 1619 2371 1862 
Q 2093 2106 1670 2106 
Q 1280 2106 989 1878 
Q 698 1651 698 1158 
z
M 755 3206 
Q 755 2886 982 2656 
Q 1210 2426 1670 2426 
Q 2093 2426 2342 2634 
Q 2592 2842 2592 3206 
Q 2592 3507 2387 3744 
Q 2182 3981 1683 3981 
Q 1171 3981 963 3744 
Q 755 3507 755 3206 
z
" transform="scale(0.015625)"/>
      </defs>
      <use xlink:href="#CMUBright-Roman-4c"/>
      <use xlink:href="#CMUBright-Roman-61" x="56.699997"/>
      <use xlink:href="#CMUBright-Roman-78" x="105.899994"/>
      <use xlink:href="#CMUBright-Roman-20" x="151.699982"/>
      <use xlink:href="#CMUBright-Roman-57" x="184.999969"/>
      <use xlink:href="#CMUBright-Roman-65" x="281.699951"/>
      <use xlink:href="#CMUBright-Roman-6e" x="328.399948"/>
      <use xlink:href="#CMUBright-Roman-64" x="380.099945"/>
      <use xlink:href="#CMUBright-Roman-72" x="431.799942"/>
      <use xlink:href="#CMUBright-Roman-6f" x="466.399933"/>
      <use xlink:href="#CMUBright-Roman-66" x="518.899918"/>
      <use xlink:href="#CMUBright-Roman-66" x="550.999908"/>
      <use xlink:href="#CMUBright-Roman-2c" x="583.099899"/>
      <use xlink:href="#CMUBright-Roman-20" x="612.299896"/>
      <use xlink:href="#CMUBright-Roman-50" x="645.599884"/>
      <use xlink:href="#CMUBright-Roman-20" x="711.399872"/>
      <use xlink:href="#CMUBright-Roman-3d" x="744.69986"/>
      <use xlink:href="#CMUBright-Roman-20" x="808.899857"/>
      <use xlink:href="#CMUBright-Roman-2d" x="842.199844"/>
      <use xlink:href="#CMUBright-Roman-31" x="877.199829"/>
      <use xlink:href="#CMUBright-Roman-2e" x="929.699814"/>
      <use xlink:href="#CMUBright-Roman-39" x="958.899811"/>
      <use xlink:href="#CMUBright-Roman-39" x="1011.399796"/>
      <use xlink:href="#CMUBright-Roman-37" x="1063.89978"/>
      <use xlink:href="#CMUBright-Roman-39" x="1116.399765"/>
      <use xlink:href="#CMUBright-Roman-38" x="1168.89975"/>
      <use xlink:href="#CMUBright-Roman-35" x="1221.399734"/>
     </g>
    </g>
    <g id="line2d_64">
     <path d="M 217.261083 252.142348 
L 231.261083 252.142348 
L 245.261083 252.142348 
" style="fill: none; stroke-dasharray: 7.4,3.2; stroke-dashoffset: 0; stroke: #1e90ff; stroke-width: 2"/>
     <g>
      <use xlink:href="#mcd9007620b" x="231.261083" y="252.142348" style="fill: #1e90ff; stroke: #ffffff"/>
     </g>
    </g>
    <g id="text_11">
     <!-- Beam Warming, P = -1.997985 -->
     <g style="fill: #1e90ff" transform="translate(256.461083 257.042348) scale(0.14 -0.14)">
      <defs>
       <path id="CMUBright-Roman-42" d="M 634 0 
L 634 4448 
L 2067 4448 
Q 2534 4448 2896 4336 
Q 3258 4224 3450 4048 
Q 3642 3872 3738 3686 
Q 3834 3501 3834 3328 
Q 3834 3226 3795 3117 
Q 3757 3008 3651 2851 
Q 3546 2694 3293 2553 
Q 3040 2413 2669 2323 
Q 3226 2246 3622 1939 
Q 4019 1632 4019 1203 
Q 4019 742 3596 406 
Q 3174 70 2579 13 
Q 2464 0 2240 0 
L 634 0 
z
M 1062 339 
L 2086 339 
Q 2848 339 3222 611 
Q 3597 883 3597 1210 
Q 3597 1350 3513 1500 
Q 3430 1651 3257 1801 
Q 3085 1952 2758 2051 
Q 2432 2150 2010 2150 
L 1069 2150 
L 1062 1901 
L 1062 339 
z
M 1062 2470 
L 1888 2470 
Q 2323 2490 2544 2534 
Q 2765 2579 3034 2746 
Q 3424 2989 3424 3315 
Q 3424 3603 3043 3852 
Q 2662 4102 1901 4102 
L 1069 4102 
L 1062 3872 
L 1062 2470 
z
" transform="scale(0.015625)"/>
       <path id="CMUBright-Roman-6d" d="M 512 0 
L 512 3021 
L 909 3021 
L 909 2400 
Q 1011 2650 1251 2861 
Q 1491 3072 1875 3072 
Q 2138 3072 2320 2998 
Q 2502 2925 2592 2797 
Q 2682 2669 2710 2595 
Q 2739 2522 2765 2413 
Q 2771 2394 2771 2387 
Q 2886 2650 3123 2861 
Q 3360 3072 3744 3072 
Q 4000 3072 4182 2992 
Q 4365 2912 4454 2813 
Q 4544 2714 4592 2544 
Q 4640 2374 4646 2272 
Q 4653 2170 4653 2016 
L 4653 0 
L 4243 0 
L 4243 1990 
Q 4243 2106 4236 2176 
Q 4230 2246 4192 2368 
Q 4154 2490 4083 2563 
Q 4013 2637 3869 2694 
Q 3725 2752 3520 2752 
Q 3174 2752 2982 2470 
Q 2790 2189 2790 1728 
L 2790 0 
L 2374 0 
L 2374 1990 
Q 2374 2106 2371 2176 
Q 2368 2246 2329 2368 
Q 2291 2490 2220 2563 
Q 2150 2637 2006 2694 
Q 1862 2752 1658 2752 
Q 1312 2752 1117 2470 
Q 922 2189 922 1728 
Q 922 1715 925 1702 
Q 928 1690 928 1677 
L 928 0 
L 512 0 
z
" transform="scale(0.015625)"/>
       <path id="CMUBright-Roman-69" d="M 509 4019 
L 509 4422 
L 912 4422 
L 912 4019 
L 509 4019 
z
M 512 0 
L 512 3021 
L 915 3021 
L 915 0 
L 512 0 
z
" transform="scale(0.015625)"/>
       <path id="CMUBright-Roman-67" d="M 294 1517 
Q 294 2176 675 2624 
Q 1056 3072 1555 3072 
Q 2074 3072 2381 2515 
L 2381 3072 
L 2784 3072 
L 2784 58 
Q 2784 -499 2461 -838 
Q 2138 -1178 1645 -1178 
Q 1056 -1178 461 -890 
L 461 -544 
Q 653 -640 771 -694 
Q 890 -749 1133 -803 
Q 1376 -858 1632 -858 
Q 1933 -858 2153 -627 
Q 2374 -397 2374 77 
L 2374 576 
L 2368 800 
Q 2266 538 2051 323 
Q 1837 109 1485 109 
Q 1005 109 649 515 
Q 294 922 294 1517 
z
M 710 1517 
Q 710 1050 1001 739 
Q 1293 429 1664 429 
Q 1862 429 2009 537 
Q 2157 646 2230 828 
Q 2304 1011 2339 1200 
Q 2374 1389 2374 1600 
L 2381 1600 
L 2381 2022 
Q 2381 2253 2214 2502 
Q 2048 2752 1741 2752 
Q 1331 2752 1020 2393 
Q 710 2035 710 1517 
z
" transform="scale(0.015625)"/>
      </defs>
      <use xlink:href="#CMUBright-Roman-42"/>
      <use xlink:href="#CMUBright-Roman-65" x="68.699982"/>
      <use xlink:href="#CMUBright-Roman-61" x="115.399979"/>
      <use xlink:href="#CMUBright-Roman-6d" x="164.599976"/>
      <use xlink:href="#CMUBright-Roman-20" x="245.399963"/>
      <use xlink:href="#CMUBright-Roman-57" x="278.699951"/>
      <use xlink:href="#CMUBright-Roman-61" x="375.399933"/>
      <use xlink:href="#CMUBright-Roman-72" x="424.59993"/>
      <use xlink:href="#CMUBright-Roman-6d" x="459.199921"/>
      <use xlink:href="#CMUBright-Roman-69" x="539.999908"/>
      <use xlink:href="#CMUBright-Roman-6e" x="562.499893"/>
      <use xlink:href="#CMUBright-Roman-67" x="614.19989"/>
      <use xlink:href="#CMUBright-Roman-2c" x="665.899887"/>
      <use xlink:href="#CMUBright-Roman-20" x="695.099884"/>
      <use xlink:href="#CMUBright-Roman-50" x="728.399872"/>
      <use xlink:href="#CMUBright-Roman-20" x="794.19986"/>
      <use xlink:href="#CMUBright-Roman-3d" x="827.499847"/>
      <use xlink:href="#CMUBright-Roman-20" x="891.699844"/>
      <use xlink:href="#CMUBright-Roman-2d" x="924.999832"/>
      <use xlink:href="#CMUBright-Roman-31" x="959.999817"/>
      <use xlink:href="#CMUBright-Roman-2e" x="1012.499802"/>
      <use xlink:href="#CMUBright-Roman-39" x="1041.699799"/>
      <use xlink:href="#CMUBright-Roman-39" x="1094.199783"/>
      <use xlink:href="#CMUBright-Roman-37" x="1146.699768"/>
      <use xlink:href="#CMUBright-Roman-39" x="1199.199753"/>
      <use xlink:href="#CMUBright-Roman-38" x="1251.699738"/>
      <use xlink:href="#CMUBright-Roman-35" x="1304.199722"/>
     </g>
    </g>
    <g id="line2d_65">
     <path d="M 217.261083 271.519223 
L 231.261083 271.519223 
L 245.261083 271.519223 
" style="fill: none; stroke: #e21a1a; stroke-width: 2; stroke-linecap: square"/>
     <g>
      <use xlink:href="#mb36c7949ba" x="231.261083" y="271.519223" style="fill: #e21a1a; stroke: #ffffff"/>
     </g>
    </g>
    <g id="text_12">
     <!-- AVG, P = -2.997444 -->
     <g style="fill: #e21a1a" transform="translate(256.461083 276.419223) scale(0.14 -0.14)">
      <defs>
       <path id="CMUBright-Roman-41" d="M 186 0 
L 1914 4499 
L 2400 4499 
L 4128 0 
L 3661 0 
L 3142 1344 
L 1114 1344 
L 602 0 
L 186 0 
z
M 1248 1683 
L 3014 1683 
L 2234 3744 
L 2131 4032 
L 1248 1683 
z
" transform="scale(0.015625)"/>
       <path id="CMUBright-Roman-56" d="M 90 4448 
L 563 4448 
L 2093 646 
L 2176 416 
L 2733 1824 
L 3795 4448 
L 4218 4448 
L 2406 -32 
L 1907 -32 
L 90 4448 
z
" transform="scale(0.015625)"/>
       <path id="CMUBright-Roman-47" d="M 518 2221 
Q 518 2829 777 3357 
Q 1037 3885 1529 4217 
Q 2022 4550 2637 4550 
L 2650 4550 
Q 3309 4550 3968 4243 
L 3891 3802 
Q 3699 3930 3580 3997 
Q 3462 4064 3203 4137 
Q 2944 4211 2650 4211 
Q 1914 4211 1440 3622 
Q 966 3034 966 2221 
Q 966 1389 1449 809 
Q 1933 230 2624 230 
Q 3040 230 3610 403 
L 3610 1760 
L 2605 1760 
L 2605 2099 
L 4026 2099 
L 4026 205 
Q 3328 -109 2630 -109 
Q 1741 -109 1129 572 
Q 518 1254 518 2221 
z
" transform="scale(0.015625)"/>
      </defs>
      <use xlink:href="#CMUBright-Roman-41"/>
      <use xlink:href="#CMUBright-Roman-56" x="67.499985"/>
      <use xlink:href="#CMUBright-Roman-47" x="134.999969"/>
      <use xlink:href="#CMUBright-Roman-2c" x="204.999954"/>
      <use xlink:href="#CMUBright-Roman-20" x="234.199951"/>
      <use xlink:href="#CMUBright-Roman-50" x="267.499939"/>
      <use xlink:href="#CMUBright-Roman-20" x="333.299927"/>
      <use xlink:href="#CMUBright-Roman-3d" x="366.599915"/>
      <use xlink:href="#CMUBright-Roman-20" x="430.799911"/>
      <use xlink:href="#CMUBright-Roman-2d" x="464.099899"/>
      <use xlink:href="#CMUBright-Roman-32" x="499.099884"/>
      <use xlink:href="#CMUBright-Roman-2e" x="551.599869"/>
      <use xlink:href="#CMUBright-Roman-39" x="580.799866"/>
      <use xlink:href="#CMUBright-Roman-39" x="633.29985"/>
      <use xlink:href="#CMUBright-Roman-37" x="685.799835"/>
      <use xlink:href="#CMUBright-Roman-34" x="738.29982"/>
      <use xlink:href="#CMUBright-Roman-34" x="790.799805"/>
      <use xlink:href="#CMUBright-Roman-34" x="843.299789"/>
     </g>
    </g>
   </g>
  </g>
 </g>
</svg>