<?xml version="1.0" encoding="utf-8" standalone="no"?>
<!DOCTYPE svg PUBLIC "-//W3C//DTD SVG 1.1//EN"
  "http://www.w3.org/Graphics/SVG/1.1/DTD/svg11.dtd">
<svg xmlns:xlink="http://www.w3.org/1999/xlink" width="469.19952pt" height="353.99952pt" viewBox="0 0 469.19952 353.99952" xmlns="http://www.w3.org/2000/svg" version="1.1">
 <metadata>
  <rdf:RDF xmlns:dc="http://purl.org/dc/elements/1.1/" xmlns:cc="http://creativecommons.org/ns#" xmlns:rdf="http://www.w3.org/1999/02/22-rdf-syntax-ns#">
   <cc:Work>
    <dc:type rdf:resource="http://purl.org/dc/dcmitype/StillImage"/>
    <dc:date>2023-10-19T16:23:03.551352</dc:date>
    <dc:format>image/svg+xml</dc:format>
    <dc:creator>
     <cc:Agent>
      <dc:title>Matplotlib v3.8.0, https://matplotlib.org/</dc:title>
     </cc:Agent>
    </dc:creator>
   </cc:Work>
  </rdf:RDF>
 </metadata>
 <defs>
  <style type="text/css">*{stroke-linejoin: round; stroke-linecap: butt}</style>
 </defs>
 <g id="figure_1">
  <g id="patch_1">
   <path d="M 0 353.99952 
L 469.19952 353.99952 
L 469.19952 0 
L 0 0 
z
" style="fill: #ffffff"/>
  </g>
  <g id="axes_1">
   <g id="patch_2">
    <path d="M 77.710829 130.315942 
L 458.99952 130.315942 
L 458.99952 10.2 
L 77.710829 10.2 
z
" style="fill: #ffffff"/>
   </g>
   <g id="matplotlib.axis_1">
    <g id="xtick_1">
     <g id="line2d_1">
      <defs>
       <path id="me6f6440aa2" d="M 0 0 
L 0 3.5 
" style="stroke: #5a5758; stroke-width: 0.8"/>
      </defs>
      <g>
       <use xlink:href="#me6f6440aa2" x="77.710829" y="142.315942" style="fill: #5a5758; stroke: #5a5758; stroke-width: 0.8"/>
      </g>
     </g>
     <g id="text_1">
      <!-- 0 -->
      <g style="fill: #5a5758" transform="translate(73.774904 159.736772) scale(0.14994 -0.14994)">
       <defs>
        <path id="CMUBright-Roman-30" d="M 333 1984 
L 333 2086 
Q 333 2291 339 2438 
Q 346 2586 371 2832 
Q 397 3078 461 3267 
Q 525 3456 621 3657 
Q 717 3859 880 4006 
Q 1043 4154 1261 4230 
Q 1446 4301 1677 4301 
Q 1856 4301 2025 4256 
Q 2195 4211 2380 4070 
Q 2566 3930 2704 3709 
Q 2842 3488 2931 3104 
Q 3021 2720 3021 2214 
Q 3021 1683 2982 1347 
Q 2944 1011 2803 685 
Q 2618 250 2307 70 
Q 1997 -109 1677 -109 
Q 1498 -109 1328 -64 
Q 1158 -19 972 121 
Q 787 262 649 483 
Q 512 704 422 1091 
Q 333 1478 333 1984 
z
M 742 2413 
Q 742 2374 745 2326 
Q 749 2278 749 2272 
L 749 2150 
Q 749 1779 758 1548 
Q 768 1318 838 1014 
Q 909 710 1037 538 
Q 1286 218 1677 218 
Q 2086 218 2330 557 
Q 2451 730 2518 1037 
Q 2586 1344 2595 1568 
Q 2605 1792 2605 2163 
L 2605 2272 
Q 2605 2278 2608 2323 
Q 2611 2368 2611 2406 
Q 2611 3302 2336 3661 
Q 2099 3981 1677 3981 
Q 1242 3981 1005 3642 
Q 742 3264 742 2413 
z
" transform="scale(0.015625)"/>
       </defs>
       <use xlink:href="#CMUBright-Roman-30"/>
      </g>
     </g>
    </g>
    <g id="xtick_2">
     <g id="line2d_2">
      <g>
       <use xlink:href="#me6f6440aa2" x="155.524848" y="142.315942" style="fill: #5a5758; stroke: #5a5758; stroke-width: 0.8"/>
      </g>
     </g>
     <g id="text_2">
      <!-- 10 -->
      <g style="fill: #5a5758" transform="translate(147.652998 159.736772) scale(0.14994 -0.14994)">
       <defs>
        <path id="CMUBright-Roman-31" d="M 672 3558 
L 672 3885 
Q 1427 3885 1862 4301 
L 1965 4301 
L 1965 320 
L 2803 320 
L 2803 0 
L 710 0 
L 710 320 
L 1549 320 
L 1549 3744 
Q 1178 3558 672 3558 
z
" transform="scale(0.015625)"/>
       </defs>
       <use xlink:href="#CMUBright-Roman-31"/>
       <use xlink:href="#CMUBright-Roman-30" x="52.499985"/>
      </g>
     </g>
    </g>
    <g id="xtick_3">
     <g id="line2d_3">
      <g>
       <use xlink:href="#me6f6440aa2" x="233.338866" y="142.315942" style="fill: #5a5758; stroke: #5a5758; stroke-width: 0.8"/>
      </g>
     </g>
     <g id="text_3">
      <!-- 20 -->
      <g style="fill: #5a5758" transform="translate(225.467016 159.736772) scale(0.14994 -0.14994)">
       <defs>
        <path id="CMUBright-Roman-32" d="M 275 3226 
Q 595 4301 1587 4301 
L 1594 4301 
Q 2214 4294 2617 3923 
Q 3021 3552 3021 2989 
Q 3021 2746 2937 2531 
Q 2854 2317 2668 2115 
Q 2483 1914 2384 1821 
Q 2285 1728 2061 1549 
Q 1754 1299 1642 1203 
Q 1530 1107 698 358 
L 3021 358 
L 3021 0 
L 333 0 
L 333 339 
L 1683 1562 
Q 2144 1965 2368 2278 
Q 2592 2592 2592 2982 
Q 2592 3418 2278 3690 
Q 1965 3962 1498 3962 
Q 1069 3962 854 3693 
Q 640 3424 512 2938 
L 275 3226 
z
" transform="scale(0.015625)"/>
       </defs>
       <use xlink:href="#CMUBright-Roman-32"/>
       <use xlink:href="#CMUBright-Roman-30" x="52.499985"/>
      </g>
     </g>
    </g>
    <g id="xtick_4">
     <g id="line2d_4">
      <g>
       <use xlink:href="#me6f6440aa2" x="311.152885" y="142.315942" style="fill: #5a5758; stroke: #5a5758; stroke-width: 0.8"/>
      </g>
     </g>
     <g id="text_4">
      <!-- 30 -->
      <g style="fill: #5a5758" transform="translate(303.281035 159.736772) scale(0.14994 -0.14994)">
       <defs>
        <path id="CMUBright-Roman-33" d="M 282 653 
Q 282 666 285 685 
Q 288 704 304 774 
Q 320 845 339 941 
Q 557 640 861 464 
Q 1165 288 1341 256 
Q 1517 224 1683 224 
Q 2112 224 2368 486 
Q 2624 749 2624 1165 
Q 2624 1574 2381 1824 
Q 2138 2074 1773 2099 
L 1555 2106 
L 1114 2106 
L 1114 2426 
Q 1709 2470 1862 2528 
Q 2099 2618 2281 2838 
Q 2464 3059 2464 3360 
Q 2464 3642 2256 3811 
Q 2048 3981 1702 3981 
Q 973 3981 570 3258 
L 371 3539 
Q 845 4301 1702 4301 
Q 2202 4301 2544 4025 
Q 2886 3750 2886 3360 
Q 2886 3059 2704 2761 
Q 2522 2464 2106 2272 
Q 2579 2144 2825 1833 
Q 3072 1523 3072 1158 
Q 3072 666 2685 278 
Q 2298 -109 1690 -109 
Q 1402 -109 1126 -9 
Q 851 90 675 221 
Q 499 352 390 473 
Q 282 595 282 653 
z
" transform="scale(0.015625)"/>
       </defs>
       <use xlink:href="#CMUBright-Roman-33"/>
       <use xlink:href="#CMUBright-Roman-30" x="52.499985"/>
      </g>
     </g>
    </g>
    <g id="xtick_5">
     <g id="line2d_5">
      <g>
       <use xlink:href="#me6f6440aa2" x="388.966903" y="142.315942" style="fill: #5a5758; stroke: #5a5758; stroke-width: 0.8"/>
      </g>
     </g>
     <g id="text_5">
      <!-- 40 -->
      <g style="fill: #5a5758" transform="translate(381.095053 159.736772) scale(0.14994 -0.14994)">
       <defs>
        <path id="CMUBright-Roman-34" d="M 186 1158 
L 186 1504 
L 1952 4250 
L 2438 4250 
L 2438 1498 
L 3168 1498 
L 3168 1158 
L 2438 1158 
L 2438 0 
L 2035 0 
L 2035 1158 
L 186 1158 
z
M 602 1498 
L 2054 1498 
L 2054 3885 
Q 1971 3667 1606 3085 
L 602 1498 
z
" transform="scale(0.015625)"/>
       </defs>
       <use xlink:href="#CMUBright-Roman-34"/>
       <use xlink:href="#CMUBright-Roman-30" x="52.499985"/>
      </g>
     </g>
    </g>
   </g>
   <g id="matplotlib.axis_2">
    <g id="ytick_1">
     <g id="line2d_6">
      <defs>
       <path id="m34fa979b46" d="M 0 0 
L -3.5 0 
" style="stroke: #5a5758; stroke-width: 0.8"/>
      </defs>
      <g>
       <use xlink:href="#m34fa979b46" x="65.710829" y="95.681424" style="fill: #5a5758; stroke: #5a5758; stroke-width: 0.8"/>
      </g>
     </g>
     <g id="text_6">
      <!-- 0.05 -->
      <g style="fill: #5a5758" transform="translate(30.716562 100.891839) scale(0.14994 -0.14994)">
       <defs>
        <path id="CMUBright-Roman-2e" d="M 678 0 
L 678 499 
L 1178 499 
L 1178 0 
L 678 0 
z
" transform="scale(0.015625)"/>
        <path id="CMUBright-Roman-35" d="M 301 518 
L 486 819 
Q 896 224 1581 224 
Q 1971 224 2268 473 
Q 2566 723 2566 1312 
Q 2566 1626 2489 1846 
Q 2413 2067 2285 2176 
Q 2157 2285 2032 2329 
Q 1907 2374 1773 2374 
Q 1210 2374 941 1901 
L 582 1901 
L 582 4192 
L 2797 4192 
L 2797 3853 
L 973 3853 
L 973 2381 
Q 1325 2701 1779 2701 
Q 2285 2701 2653 2291 
Q 3021 1882 3021 1306 
Q 3021 723 2601 307 
Q 2182 -109 1574 -109 
Q 813 -109 301 518 
z
" transform="scale(0.015625)"/>
       </defs>
       <use xlink:href="#CMUBright-Roman-30"/>
       <use xlink:href="#CMUBright-Roman-2e" x="52.499985"/>
       <use xlink:href="#CMUBright-Roman-30" x="81.699982"/>
       <use xlink:href="#CMUBright-Roman-35" x="134.199966"/>
      </g>
     </g>
    </g>
    <g id="ytick_2">
     <g id="line2d_7">
      <g>
       <use xlink:href="#m34fa979b46" x="65.710829" y="59.437273" style="fill: #5a5758; stroke: #5a5758; stroke-width: 0.8"/>
      </g>
     </g>
     <g id="text_7">
      <!-- 0.10 -->
      <g style="fill: #5a5758" transform="translate(30.716562 64.647688) scale(0.14994 -0.14994)">
       <use xlink:href="#CMUBright-Roman-30"/>
       <use xlink:href="#CMUBright-Roman-2e" x="52.499985"/>
       <use xlink:href="#CMUBright-Roman-31" x="81.699982"/>
       <use xlink:href="#CMUBright-Roman-30" x="134.199966"/>
      </g>
     </g>
    </g>
    <g id="ytick_3">
     <g id="line2d_8">
      <g>
       <use xlink:href="#m34fa979b46" x="65.710829" y="23.193122" style="fill: #5a5758; stroke: #5a5758; stroke-width: 0.8"/>
      </g>
     </g>
     <g id="text_8">
      <!-- 0.15 -->
      <g style="fill: #5a5758" transform="translate(30.716562 28.403537) scale(0.14994 -0.14994)">
       <use xlink:href="#CMUBright-Roman-30"/>
       <use xlink:href="#CMUBright-Roman-2e" x="52.499985"/>
       <use xlink:href="#CMUBright-Roman-31" x="81.699982"/>
       <use xlink:href="#CMUBright-Roman-35" x="134.199966"/>
      </g>
     </g>
    </g>
    <g id="text_9">
     <!-- Loss -->
     <g style="fill: #5a5758" transform="translate(19.71 87.322815) rotate(-90) scale(0.18 -0.18)">
      <defs>
       <path id="CMUBright-SemiBold-4c" d="M 512 0 
L 512 4448 
L 1184 4448 
L 1184 512 
L 3341 512 
L 3341 0 
L 512 0 
z
" transform="scale(0.015625)"/>
       <path id="CMUBright-SemiBold-6f" d="M 630 390 
Q 186 832 186 1504 
Q 186 2176 627 2637 
Q 1069 3098 1677 3098 
Q 2310 3098 2739 2618 
Q 3168 2138 3168 1498 
Q 3168 838 2726 393 
Q 2285 -51 1677 -51 
Q 1075 -51 630 390 
z
M 800 1594 
Q 800 998 1037 717 
Q 1267 448 1677 448 
Q 2061 448 2291 685 
Q 2554 954 2554 1606 
Q 2554 2150 2307 2384 
Q 2061 2618 1677 2618 
Q 800 2618 800 1594 
z
" transform="scale(0.015625)"/>
       <path id="CMUBright-SemiBold-73" d="M 186 250 
L 282 800 
Q 787 448 1318 448 
Q 1613 448 1737 569 
Q 1862 691 1862 838 
Q 1862 986 1753 1078 
Q 1645 1171 1517 1206 
Q 1389 1242 1190 1280 
Q 992 1318 902 1350 
Q 634 1440 429 1661 
Q 224 1882 224 2202 
Q 224 2349 269 2486 
Q 314 2624 422 2774 
Q 531 2925 764 3014 
Q 998 3104 1331 3104 
Q 1818 3104 2323 2886 
L 2227 2362 
Q 1747 2624 1261 2624 
Q 998 2624 889 2515 
Q 781 2406 781 2272 
Q 781 2170 857 2077 
Q 934 1984 1062 1939 
Q 1069 1939 1408 1865 
Q 1747 1792 1914 1702 
Q 2419 1421 2419 890 
Q 2419 525 2172 237 
Q 1926 -51 1325 -51 
Q 730 -51 186 250 
z
" transform="scale(0.015625)"/>
      </defs>
      <use xlink:href="#CMUBright-SemiBold-4c"/>
      <use xlink:href="#CMUBright-SemiBold-6f" x="56.699997"/>
      <use xlink:href="#CMUBright-SemiBold-73" x="109.199982"/>
      <use xlink:href="#CMUBright-SemiBold-73" x="149.399979"/>
     </g>
    </g>
   </g>
   <g id="line2d_9">
    <path d="M 77.710829 10.2 
L 85.492231 32.232859 
L 93.273633 52.53058 
L 101.055035 70.578077 
L 108.836436 85.995322 
L 116.617838 98.60063 
L 124.39924 108.438527 
L 132.180642 115.759442 
L 139.962044 120.956992 
L 147.743446 124.485362 
L 155.524848 126.783931 
L 163.306249 128.227463 
L 171.087651 129.105815 
L 178.869053 129.626291 
L 186.650455 129.928089 
L 194.431857 130.100078 
L 202.213259 130.196764 
L 209.994661 130.250548 
L 217.776062 130.280227 
L 225.557464 130.296504 
L 233.338866 130.30539 
L 241.120268 130.310225 
L 248.90167 130.312849 
L 256.683072 130.314271 
L 264.464474 130.31504 
L 272.245875 130.315455 
L 280.027277 130.315679 
L 287.808679 130.3158 
L 295.590081 130.315866 
L 303.371483 130.315901 
L 311.152885 130.31592 
L 318.934287 130.31593 
L 326.715688 130.315936 
L 334.49709 130.315939 
L 342.278492 130.31594 
L 350.059894 130.315941 
L 357.841296 130.315942 
L 365.622698 130.315942 
L 373.4041 130.315942 
L 381.185501 130.315942 
L 388.966903 130.315942 
L 396.748305 130.315942 
L 404.529707 130.315942 
L 412.311109 130.315942 
L 420.092511 130.315942 
L 427.873913 130.315942 
L 435.655314 130.315942 
L 443.436716 130.315942 
L 451.218118 130.315942 
L 458.99952 130.315942 
" style="fill: none; stroke: #e29400; stroke-width: 2; stroke-linecap: square"/>
    <defs>
     <path id="md77f217f06" d="M 0 3 
C 0.795609 3 1.55874 2.683901 2.12132 2.12132 
C 2.683901 1.55874 3 0.795609 3 0 
C 3 -0.795609 2.683901 -1.55874 2.12132 -2.12132 
C 1.55874 -2.683901 0.795609 -3 0 -3 
C -0.795609 -3 -1.55874 -2.683901 -2.12132 -2.12132 
C -2.683901 -1.55874 -3 -0.795609 -3 0 
C -3 0.795609 -2.683901 1.55874 -2.12132 2.12132 
C -1.55874 2.683901 -0.795609 3 0 3 
z
" style="stroke: #ffffff"/>
    </defs>
    <g>
     <use xlink:href="#md77f217f06" x="77.710829" y="10.2" style="fill: #e29400; stroke: #ffffff"/>
     <use xlink:href="#md77f217f06" x="85.492231" y="32.232859" style="fill: #e29400; stroke: #ffffff"/>
     <use xlink:href="#md77f217f06" x="93.273633" y="52.53058" style="fill: #e29400; stroke: #ffffff"/>
     <use xlink:href="#md77f217f06" x="101.055035" y="70.578077" style="fill: #e29400; stroke: #ffffff"/>
     <use xlink:href="#md77f217f06" x="108.836436" y="85.995322" style="fill: #e29400; stroke: #ffffff"/>
     <use xlink:href="#md77f217f06" x="116.617838" y="98.60063" style="fill: #e29400; stroke: #ffffff"/>
     <use xlink:href="#md77f217f06" x="124.39924" y="108.438527" style="fill: #e29400; stroke: #ffffff"/>
     <use xlink:href="#md77f217f06" x="132.180642" y="115.759442" style="fill: #e29400; stroke: #ffffff"/>
     <use xlink:href="#md77f217f06" x="139.962044" y="120.956992" style="fill: #e29400; stroke: #ffffff"/>
     <use xlink:href="#md77f217f06" x="147.743446" y="124.485362" style="fill: #e29400; stroke: #ffffff"/>
     <use xlink:href="#md77f217f06" x="155.524848" y="126.783931" style="fill: #e29400; stroke: #ffffff"/>
     <use xlink:href="#md77f217f06" x="163.306249" y="128.227463" style="fill: #e29400; stroke: #ffffff"/>
     <use xlink:href="#md77f217f06" x="171.087651" y="129.105815" style="fill: #e29400; stroke: #ffffff"/>
     <use xlink:href="#md77f217f06" x="178.869053" y="129.626291" style="fill: #e29400; stroke: #ffffff"/>
     <use xlink:href="#md77f217f06" x="186.650455" y="129.928089" style="fill: #e29400; stroke: #ffffff"/>
     <use xlink:href="#md77f217f06" x="194.431857" y="130.100078" style="fill: #e29400; stroke: #ffffff"/>
     <use xlink:href="#md77f217f06" x="202.213259" y="130.196764" style="fill: #e29400; stroke: #ffffff"/>
     <use xlink:href="#md77f217f06" x="209.994661" y="130.250548" style="fill: #e29400; stroke: #ffffff"/>
     <use xlink:href="#md77f217f06" x="217.776062" y="130.280227" style="fill: #e29400; stroke: #ffffff"/>
     <use xlink:href="#md77f217f06" x="225.557464" y="130.296504" style="fill: #e29400; stroke: #ffffff"/>
     <use xlink:href="#md77f217f06" x="233.338866" y="130.30539" style="fill: #e29400; stroke: #ffffff"/>
     <use xlink:href="#md77f217f06" x="241.120268" y="130.310225" style="fill: #e29400; stroke: #ffffff"/>
     <use xlink:href="#md77f217f06" x="248.90167" y="130.312849" style="fill: #e29400; stroke: #ffffff"/>
     <use xlink:href="#md77f217f06" x="256.683072" y="130.314271" style="fill: #e29400; stroke: #ffffff"/>
     <use xlink:href="#md77f217f06" x="264.464474" y="130.31504" style="fill: #e29400; stroke: #ffffff"/>
     <use xlink:href="#md77f217f06" x="272.245875" y="130.315455" style="fill: #e29400; stroke: #ffffff"/>
     <use xlink:href="#md77f217f06" x="280.027277" y="130.315679" style="fill: #e29400; stroke: #ffffff"/>
     <use xlink:href="#md77f217f06" x="287.808679" y="130.3158" style="fill: #e29400; stroke: #ffffff"/>
     <use xlink:href="#md77f217f06" x="295.590081" y="130.315866" style="fill: #e29400; stroke: #ffffff"/>
     <use xlink:href="#md77f217f06" x="303.371483" y="130.315901" style="fill: #e29400; stroke: #ffffff"/>
     <use xlink:href="#md77f217f06" x="311.152885" y="130.31592" style="fill: #e29400; stroke: #ffffff"/>
     <use xlink:href="#md77f217f06" x="318.934287" y="130.31593" style="fill: #e29400; stroke: #ffffff"/>
     <use xlink:href="#md77f217f06" x="326.715688" y="130.315936" style="fill: #e29400; stroke: #ffffff"/>
     <use xlink:href="#md77f217f06" x="334.49709" y="130.315939" style="fill: #e29400; stroke: #ffffff"/>
     <use xlink:href="#md77f217f06" x="342.278492" y="130.31594" style="fill: #e29400; stroke: #ffffff"/>
     <use xlink:href="#md77f217f06" x="350.059894" y="130.315941" style="fill: #e29400; stroke: #ffffff"/>
     <use xlink:href="#md77f217f06" x="357.841296" y="130.315942" style="fill: #e29400; stroke: #ffffff"/>
     <use xlink:href="#md77f217f06" x="365.622698" y="130.315942" style="fill: #e29400; stroke: #ffffff"/>
     <use xlink:href="#md77f217f06" x="373.4041" y="130.315942" style="fill: #e29400; stroke: #ffffff"/>
     <use xlink:href="#md77f217f06" x="381.185501" y="130.315942" style="fill: #e29400; stroke: #ffffff"/>
     <use xlink:href="#md77f217f06" x="388.966903" y="130.315942" style="fill: #e29400; stroke: #ffffff"/>
     <use xlink:href="#md77f217f06" x="396.748305" y="130.315942" style="fill: #e29400; stroke: #ffffff"/>
     <use xlink:href="#md77f217f06" x="404.529707" y="130.315942" style="fill: #e29400; stroke: #ffffff"/>
     <use xlink:href="#md77f217f06" x="412.311109" y="130.315942" style="fill: #e29400; stroke: #ffffff"/>
     <use xlink:href="#md77f217f06" x="420.092511" y="130.315942" style="fill: #e29400; stroke: #ffffff"/>
     <use xlink:href="#md77f217f06" x="427.873913" y="130.315942" style="fill: #e29400; stroke: #ffffff"/>
     <use xlink:href="#md77f217f06" x="435.655314" y="130.315942" style="fill: #e29400; stroke: #ffffff"/>
     <use xlink:href="#md77f217f06" x="443.436716" y="130.315942" style="fill: #e29400; stroke: #ffffff"/>
     <use xlink:href="#md77f217f06" x="451.218118" y="130.315942" style="fill: #e29400; stroke: #ffffff"/>
     <use xlink:href="#md77f217f06" x="458.99952" y="130.315942" style="fill: #e29400; stroke: #ffffff"/>
    </g>
   </g>
   <g id="patch_3">
    <path d="M 65.710829 130.315942 
L 65.710829 10.2 
" style="fill: none; stroke: #5a5758; stroke-width: 0.8; stroke-linejoin: miter; stroke-linecap: square"/>
   </g>
   <g id="patch_4">
    <path d="M 77.710829 142.315942 
L 458.99952 142.315942 
" style="fill: none; stroke: #5a5758; stroke-width: 0.8; stroke-linejoin: miter; stroke-linecap: square"/>
   </g>
  </g>
  <g id="axes_2">
   <g id="patch_5">
    <path d="M 77.710829 291.357661 
L 458.99952 291.357661 
L 458.99952 171.241719 
L 77.710829 171.241719 
z
" style="fill: #ffffff"/>
   </g>
   <g id="matplotlib.axis_3">
    <g id="xtick_6">
     <g id="line2d_10">
      <g>
       <use xlink:href="#me6f6440aa2" x="77.710829" y="303.357661" style="fill: #5a5758; stroke: #5a5758; stroke-width: 0.8"/>
      </g>
     </g>
     <g id="text_10">
      <!-- 0 -->
      <g style="fill: #5a5758" transform="translate(73.774904 320.778491) scale(0.14994 -0.14994)">
       <use xlink:href="#CMUBright-Roman-30"/>
      </g>
     </g>
    </g>
    <g id="xtick_7">
     <g id="line2d_11">
      <g>
       <use xlink:href="#me6f6440aa2" x="155.524848" y="303.357661" style="fill: #5a5758; stroke: #5a5758; stroke-width: 0.8"/>
      </g>
     </g>
     <g id="text_11">
      <!-- 10 -->
      <g style="fill: #5a5758" transform="translate(147.652998 320.778491) scale(0.14994 -0.14994)">
       <use xlink:href="#CMUBright-Roman-31"/>
       <use xlink:href="#CMUBright-Roman-30" x="52.499985"/>
      </g>
     </g>
    </g>
    <g id="xtick_8">
     <g id="line2d_12">
      <g>
       <use xlink:href="#me6f6440aa2" x="233.338866" y="303.357661" style="fill: #5a5758; stroke: #5a5758; stroke-width: 0.8"/>
      </g>
     </g>
     <g id="text_12">
      <!-- 20 -->
      <g style="fill: #5a5758" transform="translate(225.467016 320.778491) scale(0.14994 -0.14994)">
       <use xlink:href="#CMUBright-Roman-32"/>
       <use xlink:href="#CMUBright-Roman-30" x="52.499985"/>
      </g>
     </g>
    </g>
    <g id="xtick_9">
     <g id="line2d_13">
      <g>
       <use xlink:href="#me6f6440aa2" x="311.152885" y="303.357661" style="fill: #5a5758; stroke: #5a5758; stroke-width: 0.8"/>
      </g>
     </g>
     <g id="text_13">
      <!-- 30 -->
      <g style="fill: #5a5758" transform="translate(303.281035 320.778491) scale(0.14994 -0.14994)">
       <use xlink:href="#CMUBright-Roman-33"/>
       <use xlink:href="#CMUBright-Roman-30" x="52.499985"/>
      </g>
     </g>
    </g>
    <g id="xtick_10">
     <g id="line2d_14">
      <g>
       <use xlink:href="#me6f6440aa2" x="388.966903" y="303.357661" style="fill: #5a5758; stroke: #5a5758; stroke-width: 0.8"/>
      </g>
     </g>
     <g id="text_14">
      <!-- 40 -->
      <g style="fill: #5a5758" transform="translate(381.095053 320.778491) scale(0.14994 -0.14994)">
       <use xlink:href="#CMUBright-Roman-34"/>
       <use xlink:href="#CMUBright-Roman-30" x="52.499985"/>
      </g>
     </g>
    </g>
    <g id="text_15">
     <!-- Iteration -->
     <g style="fill: #5a5758" transform="translate(235.945331 343.792957) scale(0.18 -0.18)">
      <defs>
       <path id="CMUBright-SemiBold-49" d="M 512 0 
L 512 4448 
L 1184 4448 
L 1184 0 
L 512 0 
z
" transform="scale(0.015625)"/>
       <path id="CMUBright-SemiBold-74" d="M 122 2541 
L 122 3021 
L 646 3021 
L 646 3885 
L 1222 3885 
L 1222 3021 
L 2118 3021 
L 2118 2541 
L 1222 2541 
L 1222 1075 
Q 1222 448 1555 448 
Q 1805 448 2106 672 
L 2234 211 
Q 1754 -51 1197 -51 
Q 634 -51 634 1005 
L 634 2541 
L 122 2541 
z
" transform="scale(0.015625)"/>
       <path id="CMUBright-SemiBold-65" d="M 186 1530 
Q 186 2189 605 2646 
Q 1024 3104 1606 3104 
Q 1766 3104 1920 3069 
Q 2074 3034 2243 2931 
Q 2413 2829 2534 2669 
Q 2656 2509 2739 2233 
Q 2822 1958 2822 1600 
L 762 1600 
L 762 1536 
Q 762 1062 1040 745 
Q 1318 429 1709 429 
Q 2240 429 2739 794 
L 2784 275 
Q 2278 -51 1709 -51 
Q 1043 -51 614 419 
Q 186 890 186 1530 
z
M 838 1978 
L 2298 1978 
Q 2144 2618 1600 2618 
Q 1363 2618 1148 2448 
Q 934 2278 838 1978 
z
" transform="scale(0.015625)"/>
       <path id="CMUBright-SemiBold-72" d="M 416 0 
L 416 3021 
L 992 3021 
L 992 2368 
Q 1370 3059 2112 3072 
L 2112 2528 
Q 1939 2528 1769 2480 
Q 1600 2432 1421 2326 
Q 1242 2221 1130 2013 
Q 1018 1805 1018 1517 
L 1018 0 
L 416 0 
z
" transform="scale(0.015625)"/>
       <path id="CMUBright-SemiBold-61" d="M 250 851 
Q 250 1274 771 1498 
Q 1293 1722 2112 1747 
L 2112 1971 
Q 2112 2234 2048 2355 
Q 1894 2650 1568 2650 
Q 1242 2643 1037 2566 
Q 832 2490 557 2291 
L 512 2829 
Q 1043 3104 1581 3104 
Q 2061 3104 2377 2822 
Q 2694 2541 2726 2144 
L 2733 1933 
L 2733 0 
L 2131 0 
L 2131 230 
L 2125 410 
Q 1946 186 1648 67 
Q 1350 -51 1043 -51 
Q 666 -51 458 233 
Q 250 518 250 851 
z
M 845 864 
Q 845 672 1008 550 
Q 1171 429 1408 429 
Q 1626 429 1811 525 
Q 1997 621 2074 781 
Q 2112 864 2112 1043 
L 2112 1446 
Q 1523 1421 1184 1270 
Q 845 1120 845 864 
z
" transform="scale(0.015625)"/>
       <path id="CMUBright-SemiBold-69" d="M 414 3859 
L 414 4461 
L 1016 4461 
L 1016 3859 
L 414 3859 
z
M 416 0 
L 416 3021 
L 1018 3021 
L 1018 0 
L 416 0 
z
" transform="scale(0.015625)"/>
       <path id="CMUBright-SemiBold-6e" d="M 410 0 
L 410 3021 
L 998 3021 
L 998 2714 
L 1005 2496 
Q 1344 3072 1971 3072 
Q 2227 3072 2409 2995 
Q 2592 2918 2681 2816 
Q 2771 2714 2822 2547 
Q 2874 2381 2880 2275 
Q 2886 2170 2886 2016 
L 2886 0 
L 2272 0 
L 2272 2022 
Q 2272 2131 2259 2204 
Q 2246 2278 2192 2380 
Q 2138 2483 2000 2537 
Q 1862 2592 1651 2592 
Q 1453 2592 1315 2493 
Q 1178 2394 1120 2237 
Q 1062 2080 1043 1961 
Q 1024 1843 1024 1728 
L 1024 0 
L 410 0 
z
" transform="scale(0.015625)"/>
      </defs>
      <use xlink:href="#CMUBright-SemiBold-49"/>
      <use xlink:href="#CMUBright-SemiBold-74" x="26.699997"/>
      <use xlink:href="#CMUBright-SemiBold-65" x="64.599991"/>
      <use xlink:href="#CMUBright-SemiBold-72" x="111.699982"/>
      <use xlink:href="#CMUBright-SemiBold-61" x="146.299973"/>
      <use xlink:href="#CMUBright-SemiBold-74" x="195.499969"/>
      <use xlink:href="#CMUBright-SemiBold-69" x="233.399963"/>
      <use xlink:href="#CMUBright-SemiBold-6f" x="255.899948"/>
      <use xlink:href="#CMUBright-SemiBold-6e" x="308.399933"/>
     </g>
    </g>
   </g>
   <g id="matplotlib.axis_4">
    <g id="ytick_4">
     <g id="line2d_15">
      <g>
       <use xlink:href="#m34fa979b46" x="65.710829" y="250.630884" style="fill: #5a5758; stroke: #5a5758; stroke-width: 0.8"/>
      </g>
     </g>
     <g id="text_16">
      <!-- 0.4 -->
      <g style="fill: #5a5758" transform="translate(38.588412 255.841299) scale(0.14994 -0.14994)">
       <use xlink:href="#CMUBright-Roman-30"/>
       <use xlink:href="#CMUBright-Roman-2e" x="52.499985"/>
       <use xlink:href="#CMUBright-Roman-34" x="81.699982"/>
      </g>
     </g>
    </g>
    <g id="ytick_5">
     <g id="line2d_16">
      <g>
       <use xlink:href="#m34fa979b46" x="65.710829" y="197.704774" style="fill: #5a5758; stroke: #5a5758; stroke-width: 0.8"/>
      </g>
     </g>
     <g id="text_17">
      <!-- 0.6 -->
      <g style="fill: #5a5758" transform="translate(38.588412 202.915189) scale(0.14994 -0.14994)">
       <defs>
        <path id="CMUBright-Roman-36" d="M 346 2061 
Q 346 3072 864 3686 
Q 1382 4301 2074 4301 
L 2086 4301 
Q 2426 4301 2797 4179 
L 2797 3846 
Q 2374 3981 2074 3981 
L 2061 3981 
Q 1478 3981 1123 3491 
Q 768 3002 768 2208 
Q 768 2195 771 2166 
Q 774 2138 774 2125 
Q 928 2445 1238 2665 
Q 1549 2886 1952 2886 
Q 2387 2886 2682 2483 
Q 3008 2029 3008 1408 
Q 3008 768 2618 326 
Q 2240 -109 1690 -109 
Q 1510 -109 1340 -57 
Q 1171 -6 985 141 
Q 800 288 662 521 
Q 525 755 435 1152 
Q 346 1549 346 2061 
z
M 794 1389 
Q 813 1171 854 1004 
Q 896 838 985 643 
Q 1075 448 1254 336 
Q 1434 224 1690 224 
Q 2138 224 2381 550 
Q 2515 736 2550 921 
Q 2586 1107 2586 1434 
Q 2586 1645 2573 1776 
Q 2560 1907 2480 2089 
Q 2400 2272 2253 2400 
Q 2054 2566 1728 2566 
Q 1325 2566 1062 2265 
Q 800 1965 800 1555 
Q 800 1440 806 1389 
L 794 1389 
z
" transform="scale(0.015625)"/>
       </defs>
       <use xlink:href="#CMUBright-Roman-30"/>
       <use xlink:href="#CMUBright-Roman-2e" x="52.499985"/>
       <use xlink:href="#CMUBright-Roman-36" x="81.699982"/>
      </g>
     </g>
    </g>
    <g id="text_18">
     <!-- $\nu$ -->
     <g style="fill: #5a5758" transform="translate(27.58185 235.79969) rotate(-90) scale(0.18 -0.18)">
      <defs>
       <path id="CMUBright-SemiBold-3bd" d="M 0 3021 
L 826 3021 
Q 1024 2861 1146 2470 
L 1664 768 
Q 1946 1165 2045 1315 
Q 2144 1466 2256 1750 
Q 2368 2035 2374 2310 
L 2272 3021 
L 2893 3021 
Q 2982 2458 2982 2368 
Q 2982 2074 2857 1728 
Q 2733 1382 2608 1161 
Q 2483 941 2227 537 
Q 1971 134 1894 0 
L 1280 0 
L 614 2112 
Q 506 2464 410 2608 
Q 314 2752 0 3021 
z
" transform="scale(0.015625)"/>
      </defs>
      <use xlink:href="#CMUBright-SemiBold-3bd" transform="translate(0 0.796875)"/>
     </g>
    </g>
   </g>
   <g id="line2d_17">
    <path d="M 77.710829 171.241719 
L 85.492231 185.9556 
L 93.273633 200.136377 
L 101.055035 213.570327 
L 108.836436 226.050407 
L 116.617838 237.396614 
L 124.39924 247.476324 
L 132.180642 256.219654 
L 139.962044 263.62558 
L 147.743446 269.75713 
L 155.524848 274.727438 
L 163.306249 278.680941 
L 171.087651 281.774495 
L 178.869053 284.16193 
L 186.650455 285.983632 
L 194.431857 287.361052 
L 202.213259 288.395096 
L 209.994661 289.167057 
L 217.776062 289.740912 
L 225.557464 290.166125 
L 233.338866 290.480435 
L 241.120268 290.712346 
L 248.90167 290.88323 
L 256.683072 291.009019 
L 264.464474 291.101546 
L 272.245875 291.169568 
L 280.027277 291.219556 
L 287.808679 291.25628 
L 295.590081 291.283253 
L 303.371483 291.303062 
L 311.152885 291.317607 
L 318.934287 291.328286 
L 326.715688 291.336127 
L 334.49709 291.341883 
L 342.278492 291.346109 
L 350.059894 291.349211 
L 357.841296 291.351488 
L 365.622698 291.35316 
L 373.4041 291.354387 
L 381.185501 291.355288 
L 388.966903 291.355949 
L 396.748305 291.356434 
L 404.529707 291.35679 
L 412.311109 291.357052 
L 420.092511 291.357244 
L 427.873913 291.357385 
L 435.655314 291.357488 
L 443.436716 291.357564 
L 451.218118 291.35762 
L 458.99952 291.357661 
" style="fill: none; stroke: #e29400; stroke-width: 2; stroke-linecap: square"/>
    <g>
     <use xlink:href="#md77f217f06" x="77.710829" y="171.241719" style="fill: #e29400; stroke: #ffffff"/>
     <use xlink:href="#md77f217f06" x="85.492231" y="185.9556" style="fill: #e29400; stroke: #ffffff"/>
     <use xlink:href="#md77f217f06" x="93.273633" y="200.136377" style="fill: #e29400; stroke: #ffffff"/>
     <use xlink:href="#md77f217f06" x="101.055035" y="213.570327" style="fill: #e29400; stroke: #ffffff"/>
     <use xlink:href="#md77f217f06" x="108.836436" y="226.050407" style="fill: #e29400; stroke: #ffffff"/>
     <use xlink:href="#md77f217f06" x="116.617838" y="237.396614" style="fill: #e29400; stroke: #ffffff"/>
     <use xlink:href="#md77f217f06" x="124.39924" y="247.476324" style="fill: #e29400; stroke: #ffffff"/>
     <use xlink:href="#md77f217f06" x="132.180642" y="256.219654" style="fill: #e29400; stroke: #ffffff"/>
     <use xlink:href="#md77f217f06" x="139.962044" y="263.62558" style="fill: #e29400; stroke: #ffffff"/>
     <use xlink:href="#md77f217f06" x="147.743446" y="269.75713" style="fill: #e29400; stroke: #ffffff"/>
     <use xlink:href="#md77f217f06" x="155.524848" y="274.727438" style="fill: #e29400; stroke: #ffffff"/>
     <use xlink:href="#md77f217f06" x="163.306249" y="278.680941" style="fill: #e29400; stroke: #ffffff"/>
     <use xlink:href="#md77f217f06" x="171.087651" y="281.774495" style="fill: #e29400; stroke: #ffffff"/>
     <use xlink:href="#md77f217f06" x="178.869053" y="284.16193" style="fill: #e29400; stroke: #ffffff"/>
     <use xlink:href="#md77f217f06" x="186.650455" y="285.983632" style="fill: #e29400; stroke: #ffffff"/>
     <use xlink:href="#md77f217f06" x="194.431857" y="287.361052" style="fill: #e29400; stroke: #ffffff"/>
     <use xlink:href="#md77f217f06" x="202.213259" y="288.395096" style="fill: #e29400; stroke: #ffffff"/>
     <use xlink:href="#md77f217f06" x="209.994661" y="289.167057" style="fill: #e29400; stroke: #ffffff"/>
     <use xlink:href="#md77f217f06" x="217.776062" y="289.740912" style="fill: #e29400; stroke: #ffffff"/>
     <use xlink:href="#md77f217f06" x="225.557464" y="290.166125" style="fill: #e29400; stroke: #ffffff"/>
     <use xlink:href="#md77f217f06" x="233.338866" y="290.480435" style="fill: #e29400; stroke: #ffffff"/>
     <use xlink:href="#md77f217f06" x="241.120268" y="290.712346" style="fill: #e29400; stroke: #ffffff"/>
     <use xlink:href="#md77f217f06" x="248.90167" y="290.88323" style="fill: #e29400; stroke: #ffffff"/>
     <use xlink:href="#md77f217f06" x="256.683072" y="291.009019" style="fill: #e29400; stroke: #ffffff"/>
     <use xlink:href="#md77f217f06" x="264.464474" y="291.101546" style="fill: #e29400; stroke: #ffffff"/>
     <use xlink:href="#md77f217f06" x="272.245875" y="291.169568" style="fill: #e29400; stroke: #ffffff"/>
     <use xlink:href="#md77f217f06" x="280.027277" y="291.219556" style="fill: #e29400; stroke: #ffffff"/>
     <use xlink:href="#md77f217f06" x="287.808679" y="291.25628" style="fill: #e29400; stroke: #ffffff"/>
     <use xlink:href="#md77f217f06" x="295.590081" y="291.283253" style="fill: #e29400; stroke: #ffffff"/>
     <use xlink:href="#md77f217f06" x="303.371483" y="291.303062" style="fill: #e29400; stroke: #ffffff"/>
     <use xlink:href="#md77f217f06" x="311.152885" y="291.317607" style="fill: #e29400; stroke: #ffffff"/>
     <use xlink:href="#md77f217f06" x="318.934287" y="291.328286" style="fill: #e29400; stroke: #ffffff"/>
     <use xlink:href="#md77f217f06" x="326.715688" y="291.336127" style="fill: #e29400; stroke: #ffffff"/>
     <use xlink:href="#md77f217f06" x="334.49709" y="291.341883" style="fill: #e29400; stroke: #ffffff"/>
     <use xlink:href="#md77f217f06" x="342.278492" y="291.346109" style="fill: #e29400; stroke: #ffffff"/>
     <use xlink:href="#md77f217f06" x="350.059894" y="291.349211" style="fill: #e29400; stroke: #ffffff"/>
     <use xlink:href="#md77f217f06" x="357.841296" y="291.351488" style="fill: #e29400; stroke: #ffffff"/>
     <use xlink:href="#md77f217f06" x="365.622698" y="291.35316" style="fill: #e29400; stroke: #ffffff"/>
     <use xlink:href="#md77f217f06" x="373.4041" y="291.354387" style="fill: #e29400; stroke: #ffffff"/>
     <use xlink:href="#md77f217f06" x="381.185501" y="291.355288" style="fill: #e29400; stroke: #ffffff"/>
     <use xlink:href="#md77f217f06" x="388.966903" y="291.355949" style="fill: #e29400; stroke: #ffffff"/>
     <use xlink:href="#md77f217f06" x="396.748305" y="291.356434" style="fill: #e29400; stroke: #ffffff"/>
     <use xlink:href="#md77f217f06" x="404.529707" y="291.35679" style="fill: #e29400; stroke: #ffffff"/>
     <use xlink:href="#md77f217f06" x="412.311109" y="291.357052" style="fill: #e29400; stroke: #ffffff"/>
     <use xlink:href="#md77f217f06" x="420.092511" y="291.357244" style="fill: #e29400; stroke: #ffffff"/>
     <use xlink:href="#md77f217f06" x="427.873913" y="291.357385" style="fill: #e29400; stroke: #ffffff"/>
     <use xlink:href="#md77f217f06" x="435.655314" y="291.357488" style="fill: #e29400; stroke: #ffffff"/>
     <use xlink:href="#md77f217f06" x="443.436716" y="291.357564" style="fill: #e29400; stroke: #ffffff"/>
     <use xlink:href="#md77f217f06" x="451.218118" y="291.35762" style="fill: #e29400; stroke: #ffffff"/>
     <use xlink:href="#md77f217f06" x="458.99952" y="291.357661" style="fill: #e29400; stroke: #ffffff"/>
    </g>
   </g>
   <g id="patch_6">
    <path d="M 65.710829 291.357661 
L 65.710829 171.241719 
" style="fill: none; stroke: #5a5758; stroke-width: 0.8; stroke-linejoin: miter; stroke-linecap: square"/>
   </g>
   <g id="patch_7">
    <path d="M 77.710829 303.357661 
L 458.99952 303.357661 
" style="fill: none; stroke: #5a5758; stroke-width: 0.8; stroke-linejoin: miter; stroke-linecap: square"/>
   </g>
  </g>
 </g>
</svg>