<?xml version="1.0" encoding="utf-8" standalone="no"?>
<!DOCTYPE svg PUBLIC "-//W3C//DTD SVG 1.1//EN"
  "http://www.w3.org/Graphics/SVG/1.1/DTD/svg11.dtd">
<svg xmlns:xlink="http://www.w3.org/1999/xlink" width="727.830226pt" height="368.39952pt" viewBox="0 0 727.830226 368.39952" xmlns="http://www.w3.org/2000/svg" version="1.1">
 <metadata>
  <rdf:RDF xmlns:dc="http://purl.org/dc/elements/1.1/" xmlns:cc="http://creativecommons.org/ns#" xmlns:rdf="http://www.w3.org/1999/02/22-rdf-syntax-ns#">
   <cc:Work>
    <dc:type rdf:resource="http://purl.org/dc/dcmitype/StillImage"/>
    <dc:date>2023-11-02T19:27:48.468471</dc:date>
    <dc:format>image/svg+xml</dc:format>
    <dc:creator>
     <cc:Agent>
      <dc:title>Matplotlib v3.8.1, https://matplotlib.org/</dc:title>
     </cc:Agent>
    </dc:creator>
   </cc:Work>
  </rdf:RDF>
 </metadata>
 <defs>
  <style type="text/css">*{stroke-linejoin: round; stroke-linecap: butt}</style>
 </defs>
 <g id="figure_1">
  <g id="patch_1">
   <path d="M 0 368.39952 
L 727.830226 368.39952 
L 727.830226 0 
L 0 0 
z
" style="fill: #ffffff"/>
  </g>
  <g id="axes_1">
   <g id="patch_2">
    <path d="M 69.838979 305.757661 
L 285.092531 305.757661 
L 285.092531 28.32 
L 69.838979 28.32 
z
" style="fill: #ffffff"/>
   </g>
   <g id="QuadContourSet_1">
    <path d="M 217.825796 262.703913 
L 231.279143 267.646885 
L 244.73249 262.703913 
L 251.688731 253.7381 
L 255.523798 236.398246 
L 251.688731 219.058392 
L 244.73249 210.092578 
L 231.279143 205.149607 
L 217.825796 210.092578 
L 210.869555 219.058392 
L 207.034487 236.398246 
L 210.869555 253.7381 
z
M 110.19902 123.985083 
L 123.652367 128.928054 
L 137.105714 123.985083 
L 144.061955 115.019269 
L 147.897023 97.679415 
L 144.061955 80.339561 
L 137.105714 71.373748 
L 123.652367 66.430776 
L 110.19902 71.373748 
L 103.242779 80.339561 
L 99.407711 97.679415 
L 103.242779 115.019269 
z
" clip-path="url(#p3e93154a3e)" style="fill: #4e68d8"/>
    <path d="M 217.825796 279.945586 
L 231.279143 282.147444 
L 244.73249 279.945586 
L 258.185837 271.077953 
L 258.185837 271.077953 
L 265.065902 253.7381 
L 266.774243 236.398246 
L 265.065902 219.058392 
L 258.185837 201.718538 
L 258.185837 201.718538 
L 244.73249 192.850906 
L 231.279143 190.649047 
L 217.825796 192.850906 
L 204.372449 201.718538 
L 204.372449 201.718538 
L 197.492383 219.058392 
L 195.784043 236.398246 
L 197.492383 253.7381 
L 204.372449 271.077953 
L 204.372449 271.077953 
z
M 210.869555 253.7381 
L 207.034487 236.398246 
L 210.869555 219.058392 
L 217.825796 210.092578 
L 231.279143 205.149607 
L 244.73249 210.092578 
L 251.688731 219.058392 
L 255.523798 236.398246 
L 251.688731 253.7381 
L 244.73249 262.703913 
L 231.279143 267.646885 
L 217.825796 262.703913 
z
M 110.19902 141.226755 
L 123.652367 143.428614 
L 137.105714 141.226755 
L 150.559061 132.359123 
L 150.559061 132.359123 
L 157.439127 115.019269 
L 159.147467 97.679415 
L 157.439127 80.339561 
L 150.559061 62.999708 
L 150.559061 62.999708 
L 137.105714 54.132075 
L 123.652367 51.930217 
L 110.19902 54.132075 
L 96.745673 62.999708 
L 96.745673 62.999708 
L 89.865607 80.339561 
L 88.157267 97.679415 
L 89.865607 115.019269 
L 96.745673 132.359123 
L 96.745673 132.359123 
z
M 103.242779 115.019269 
L 99.407711 97.679415 
L 103.242779 80.339561 
L 110.19902 71.373748 
L 123.652367 66.430776 
L 137.105714 71.373748 
L 144.061955 80.339561 
L 147.897023 97.679415 
L 144.061955 115.019269 
L 137.105714 123.985083 
L 123.652367 128.928054 
L 110.19902 123.985083 
z
" clip-path="url(#p3e93154a3e)" style="fill: #779af7"/>
    <path d="M 204.372449 289.737725 
L 217.825796 293.496533 
L 231.279143 294.429856 
L 244.73249 293.496533 
L 258.185837 289.737725 
L 260.417891 288.417807 
L 271.639184 273.95482 
L 272.663259 271.077953 
L 275.579578 253.7381 
L 276.303708 236.398246 
L 275.579578 219.058392 
L 272.663259 201.718538 
L 271.639184 198.841671 
L 260.417891 184.378684 
L 258.185837 183.058766 
L 244.73249 179.299959 
L 231.279143 178.366636 
L 217.825796 179.299959 
L 204.372449 183.058766 
L 202.140395 184.378684 
L 190.919102 198.841671 
L 189.895027 201.718538 
L 186.978708 219.058392 
L 186.254577 236.398246 
L 186.978708 253.7381 
L 189.895027 271.077953 
L 190.919102 273.95482 
L 202.140395 288.417807 
z
M 204.372449 271.077953 
L 204.372449 271.077953 
L 197.492383 253.7381 
L 195.784043 236.398246 
L 197.492383 219.058392 
L 204.372449 201.718538 
L 204.372449 201.718538 
L 217.825796 192.850906 
L 231.279143 190.649047 
L 244.73249 192.850906 
L 258.185837 201.718538 
L 258.185837 201.718538 
L 265.065902 219.058392 
L 266.774243 236.398246 
L 265.065902 253.7381 
L 258.185837 271.077953 
L 258.185837 271.077953 
L 244.73249 279.945586 
L 231.279143 282.147444 
L 217.825796 279.945586 
z
M 96.745673 151.018894 
L 110.19902 154.777702 
L 123.652367 155.711025 
L 137.105714 154.777702 
L 150.559061 151.018894 
L 152.791115 149.698977 
L 164.012408 135.23599 
L 165.036483 132.359123 
L 167.952802 115.019269 
L 168.676932 97.679415 
L 167.952802 80.339561 
L 165.036483 62.999708 
L 164.012408 60.122841 
L 152.791115 45.659854 
L 150.559061 44.339936 
L 137.105714 40.581128 
L 123.652367 39.647805 
L 110.19902 40.581128 
L 96.745673 44.339936 
L 94.513619 45.659854 
L 83.292326 60.122841 
L 82.268251 62.999708 
L 79.351932 80.339561 
L 78.627802 97.679415 
L 79.351932 115.019269 
L 82.268251 132.359123 
L 83.292326 135.23599 
L 94.513619 149.698977 
z
M 96.745673 132.359123 
L 96.745673 132.359123 
L 89.865607 115.019269 
L 88.157267 97.679415 
L 89.865607 80.339561 
L 96.745673 62.999708 
L 96.745673 62.999708 
L 110.19902 54.132075 
L 123.652367 51.930217 
L 137.105714 54.132075 
L 150.559061 62.999708 
L 150.559061 62.999708 
L 157.439127 80.339561 
L 159.147467 97.679415 
L 157.439127 115.019269 
L 150.559061 132.359123 
L 150.559061 132.359123 
L 137.105714 141.226755 
L 123.652367 143.428614 
L 110.19902 141.226755 
z
" clip-path="url(#p3e93154a3e)" style="fill: #a3c2fe"/>
    <path d="M 83.292326 305.757661 
L 96.745673 305.757661 
L 110.19902 305.757661 
L 123.652367 305.757661 
L 137.105714 305.757661 
L 150.559061 305.757661 
L 164.012408 305.757661 
L 177.465755 305.757661 
L 190.919102 305.757661 
L 204.372449 305.757661 
L 217.825796 305.757661 
L 231.279143 305.757661 
L 244.73249 305.757661 
L 258.185837 305.757661 
L 271.639184 305.757661 
L 285.092531 305.757661 
L 285.092531 288.417807 
L 285.092531 271.077953 
L 285.092531 253.7381 
L 285.092531 236.398246 
L 285.092531 219.058392 
L 285.092531 201.718538 
L 285.092531 184.378684 
L 285.092531 167.03883 
L 285.092531 167.03883 
L 271.639184 167.03883 
L 258.185837 167.03883 
L 244.73249 167.03883 
L 231.279143 167.03883 
L 217.825796 167.03883 
L 204.372449 167.03883 
L 190.919102 167.03883 
L 177.465755 167.03883 
L 177.465755 184.378684 
L 177.465755 201.718538 
L 177.465755 219.058392 
L 177.465755 236.398246 
L 177.465755 253.7381 
L 177.465755 271.077953 
L 177.465755 288.417807 
L 177.465755 305.757661 
L 164.012408 305.757661 
L 150.559061 305.757661 
L 137.105714 305.757661 
L 123.652367 305.757661 
L 110.19902 305.757661 
L 96.745673 305.757661 
L 83.292326 305.757661 
L 69.838979 288.417807 
L 69.838979 271.077953 
L 69.838979 253.7381 
L 69.838979 236.398246 
L 69.838979 219.058392 
L 69.838979 201.718538 
L 69.838979 184.378684 
L 69.838979 167.03883 
L 83.292326 167.03883 
L 96.745673 167.03883 
L 110.19902 167.03883 
L 123.652367 167.03883 
L 137.105714 167.03883 
L 150.559061 167.03883 
L 164.012408 167.03883 
L 177.465755 167.03883 
L 177.465755 149.698977 
L 177.465755 132.359123 
L 177.465755 115.019269 
L 177.465755 97.679415 
L 177.465755 80.339561 
L 177.465755 62.999708 
L 177.465755 45.659854 
L 177.465755 28.32 
L 177.465755 28.32 
L 164.012408 28.32 
L 150.559061 28.32 
L 137.105714 28.32 
L 123.652367 28.32 
L 110.19902 28.32 
L 96.745673 28.32 
L 83.292326 28.32 
L 69.838979 28.32 
L 69.838979 45.659854 
L 69.838979 62.999708 
L 69.838979 80.339561 
L 69.838979 97.679415 
L 69.838979 115.019269 
L 69.838979 132.359123 
L 69.838979 149.698977 
L 69.838979 167.03883 
L 69.838979 184.378684 
L 69.838979 201.718538 
L 69.838979 219.058392 
L 69.838979 236.398246 
L 69.838979 253.7381 
L 69.838979 271.077953 
L 69.838979 288.417807 
L 69.838979 305.757661 
z
M 202.140395 288.417807 
L 190.919102 273.95482 
L 189.895027 271.077953 
L 186.978708 253.7381 
L 186.254577 236.398246 
L 186.978708 219.058392 
L 189.895027 201.718538 
L 190.919102 198.841671 
L 202.140395 184.378684 
L 204.372449 183.058766 
L 217.825796 179.299959 
L 231.279143 178.366636 
L 244.73249 179.299959 
L 258.185837 183.058766 
L 260.417891 184.378684 
L 271.639184 198.841671 
L 272.663259 201.718538 
L 275.579578 219.058392 
L 276.303708 236.398246 
L 275.579578 253.7381 
L 272.663259 271.077953 
L 271.639184 273.95482 
L 260.417891 288.417807 
L 258.185837 289.737725 
L 244.73249 293.496533 
L 231.279143 294.429856 
L 217.825796 293.496533 
L 204.372449 289.737725 
z
M 94.513619 149.698977 
L 83.292326 135.23599 
L 82.268251 132.359123 
L 79.351932 115.019269 
L 78.627802 97.679415 
L 79.351932 80.339561 
L 82.268251 62.999708 
L 83.292326 60.122841 
L 94.513619 45.659854 
L 96.745673 44.339936 
L 110.19902 40.581128 
L 123.652367 39.647805 
L 137.105714 40.581128 
L 150.559061 44.339936 
L 152.791115 45.659854 
L 164.012408 60.122841 
L 165.036483 62.999708 
L 167.952802 80.339561 
L 168.676932 97.679415 
L 167.952802 115.019269 
L 165.036483 132.359123 
L 164.012408 135.23599 
L 152.791115 149.698977 
L 150.559061 151.018894 
L 137.105714 154.777702 
L 123.652367 155.711025 
L 110.19902 154.777702 
L 96.745673 151.018894 
z
" clip-path="url(#p3e93154a3e)" style="fill: #ccd9ed"/>
    <path d="M 83.292326 305.757661 
L 96.745673 305.757661 
L 110.19902 305.757661 
L 123.652367 305.757661 
L 137.105714 305.757661 
L 150.559061 305.757661 
L 164.012408 305.757661 
L 177.465755 305.757661 
L 177.465755 288.417807 
L 177.465755 271.077953 
L 177.465755 253.7381 
L 177.465755 236.398246 
L 177.465755 219.058392 
L 177.465755 201.718538 
L 177.465755 184.378684 
L 177.465755 167.03883 
L 190.919102 167.03883 
L 204.372449 167.03883 
L 217.825796 167.03883 
L 231.279143 167.03883 
L 244.73249 167.03883 
L 258.185837 167.03883 
L 271.639184 167.03883 
L 285.092531 167.03883 
L 285.092531 149.698977 
L 285.092531 132.359123 
L 285.092531 115.019269 
L 285.092531 97.679415 
L 285.092531 80.339561 
L 285.092531 62.999708 
L 285.092531 45.659854 
L 285.092531 28.32 
L 271.639184 28.32 
L 258.185837 28.32 
L 244.73249 28.32 
L 231.279143 28.32 
L 217.825796 28.32 
L 204.372449 28.32 
L 190.919102 28.32 
L 177.465755 28.32 
L 177.465755 45.659854 
L 177.465755 62.999708 
L 177.465755 80.339561 
L 177.465755 97.679415 
L 177.465755 115.019269 
L 177.465755 132.359123 
L 177.465755 149.698977 
L 177.465755 167.03883 
L 164.012408 167.03883 
L 150.559061 167.03883 
L 137.105714 167.03883 
L 123.652367 167.03883 
L 110.19902 167.03883 
L 96.745673 167.03883 
L 83.292326 167.03883 
L 69.838979 167.03883 
L 69.838979 184.378684 
L 69.838979 201.718538 
L 69.838979 219.058392 
L 69.838979 236.398246 
L 69.838979 253.7381 
L 69.838979 271.077953 
L 69.838979 288.417807 
z
M 94.513619 288.417807 
L 83.292326 273.95482 
L 82.268251 271.077953 
L 79.351932 253.7381 
L 78.627802 236.398246 
L 79.351932 219.058392 
L 82.268251 201.718538 
L 83.292326 198.841671 
L 94.513619 184.378684 
L 96.745673 183.058766 
L 110.19902 179.299959 
L 123.652367 178.366636 
L 137.105714 179.299959 
L 150.559061 183.058766 
L 152.791115 184.378684 
L 164.012408 198.841671 
L 165.036483 201.718538 
L 167.952802 219.058392 
L 168.676932 236.398246 
L 167.952802 253.7381 
L 165.036483 271.077953 
L 164.012408 273.95482 
L 152.791115 288.417807 
L 150.559061 289.737725 
L 137.105714 293.496533 
L 123.652367 294.429856 
L 110.19902 293.496533 
L 96.745673 289.737725 
z
M 202.140395 149.698977 
L 190.919102 135.23599 
L 189.895027 132.359123 
L 186.978708 115.019269 
L 186.254577 97.679415 
L 186.978708 80.339561 
L 189.895027 62.999708 
L 190.919102 60.122841 
L 202.140395 45.659854 
L 204.372449 44.339936 
L 217.825796 40.581128 
L 231.279143 39.647805 
L 244.73249 40.581128 
L 258.185837 44.339936 
L 260.417891 45.659854 
L 271.639184 60.122841 
L 272.663259 62.999708 
L 275.579578 80.339561 
L 276.303708 97.679415 
L 275.579578 115.019269 
L 272.663259 132.359123 
L 271.639184 135.23599 
L 260.417891 149.698977 
L 258.185837 151.018894 
L 244.73249 154.777702 
L 231.279143 155.711025 
L 217.825796 154.777702 
L 204.372449 151.018894 
z
" clip-path="url(#p3e93154a3e)" style="fill: #ecd3c5"/>
    <path d="M 96.745673 289.737725 
L 110.19902 293.496533 
L 123.652367 294.429856 
L 137.105714 293.496533 
L 150.559061 289.737725 
L 152.791115 288.417807 
L 164.012408 273.95482 
L 165.036483 271.077953 
L 167.952802 253.7381 
L 168.676932 236.398246 
L 167.952802 219.058392 
L 165.036483 201.718538 
L 164.012408 198.841671 
L 152.791115 184.378684 
L 150.559061 183.058766 
L 137.105714 179.299959 
L 123.652367 178.366636 
L 110.19902 179.299959 
L 96.745673 183.058766 
L 94.513619 184.378684 
L 83.292326 198.841671 
L 82.268251 201.718538 
L 79.351932 219.058392 
L 78.627802 236.398246 
L 79.351932 253.7381 
L 82.268251 271.077953 
L 83.292326 273.95482 
L 94.513619 288.417807 
z
M 96.745673 271.077953 
L 96.745673 271.077953 
L 89.865607 253.7381 
L 88.157267 236.398246 
L 89.865607 219.058392 
L 96.745673 201.718538 
L 96.745673 201.718538 
L 110.19902 192.850906 
L 123.652367 190.649047 
L 137.105714 192.850906 
L 150.559061 201.718538 
L 150.559061 201.718538 
L 157.439127 219.058392 
L 159.147467 236.398246 
L 157.439127 253.7381 
L 150.559061 271.077953 
L 150.559061 271.077953 
L 137.105714 279.945586 
L 123.652367 282.147444 
L 110.19902 279.945586 
z
M 204.372449 151.018894 
L 217.825796 154.777702 
L 231.279143 155.711025 
L 244.73249 154.777702 
L 258.185837 151.018894 
L 260.417891 149.698977 
L 271.639184 135.23599 
L 272.663259 132.359123 
L 275.579578 115.019269 
L 276.303708 97.679415 
L 275.579578 80.339561 
L 272.663259 62.999708 
L 271.639184 60.122841 
L 260.417891 45.659854 
L 258.185837 44.339936 
L 244.73249 40.581128 
L 231.279143 39.647805 
L 217.825796 40.581128 
L 204.372449 44.339936 
L 202.140395 45.659854 
L 190.919102 60.122841 
L 189.895027 62.999708 
L 186.978708 80.339561 
L 186.254577 97.679415 
L 186.978708 115.019269 
L 189.895027 132.359123 
L 190.919102 135.23599 
L 202.140395 149.698977 
z
M 204.372449 132.359123 
L 204.372449 132.359123 
L 197.492383 115.019269 
L 195.784043 97.679415 
L 197.492383 80.339561 
L 204.372449 62.999708 
L 204.372449 62.999708 
L 217.825796 54.132075 
L 231.279143 51.930217 
L 244.73249 54.132075 
L 258.185837 62.999708 
L 258.185837 62.999708 
L 265.065902 80.339561 
L 266.774243 97.679415 
L 265.065902 115.019269 
L 258.185837 132.359123 
L 258.185837 132.359123 
L 244.73249 141.226755 
L 231.279143 143.428614 
L 217.825796 141.226755 
z
" clip-path="url(#p3e93154a3e)" style="fill: #f7b093"/>
    <path d="M 110.19902 279.945586 
L 123.652367 282.147444 
L 137.105714 279.945586 
L 150.559061 271.077953 
L 150.559061 271.077953 
L 157.439127 253.7381 
L 159.147467 236.398246 
L 157.439127 219.058392 
L 150.559061 201.718538 
L 150.559061 201.718538 
L 137.105714 192.850906 
L 123.652367 190.649047 
L 110.19902 192.850906 
L 96.745673 201.718538 
L 96.745673 201.718538 
L 89.865607 219.058392 
L 88.157267 236.398246 
L 89.865607 253.7381 
L 96.745673 271.077953 
L 96.745673 271.077953 
z
M 103.242779 253.7381 
L 99.407711 236.398246 
L 103.242779 219.058392 
L 110.19902 210.092578 
L 123.652367 205.149607 
L 137.105714 210.092578 
L 144.061955 219.058392 
L 147.897023 236.398246 
L 144.061955 253.7381 
L 137.105714 262.703913 
L 123.652367 267.646885 
L 110.19902 262.703913 
z
M 217.825796 141.226755 
L 231.279143 143.428614 
L 244.73249 141.226755 
L 258.185837 132.359123 
L 258.185837 132.359123 
L 265.065902 115.019269 
L 266.774243 97.679415 
L 265.065902 80.339561 
L 258.185837 62.999708 
L 258.185837 62.999708 
L 244.73249 54.132075 
L 231.279143 51.930217 
L 217.825796 54.132075 
L 204.372449 62.999708 
L 204.372449 62.999708 
L 197.492383 80.339561 
L 195.784043 97.679415 
L 197.492383 115.019269 
L 204.372449 132.359123 
L 204.372449 132.359123 
z
M 210.869555 115.019269 
L 207.034487 97.679415 
L 210.869555 80.339561 
L 217.825796 71.373748 
L 231.279143 66.430776 
L 244.73249 71.373748 
L 251.688731 80.339561 
L 255.523798 97.679415 
L 251.688731 115.019269 
L 244.73249 123.985083 
L 231.279143 128.928054 
L 217.825796 123.985083 
z
" clip-path="url(#p3e93154a3e)" style="fill: #eb7d62"/>
    <path d="M 110.19902 262.703913 
L 123.652367 267.646885 
L 137.105714 262.703913 
L 144.061955 253.7381 
L 147.897023 236.398246 
L 144.061955 219.058392 
L 137.105714 210.092578 
L 123.652367 205.149607 
L 110.19902 210.092578 
L 103.242779 219.058392 
L 99.407711 236.398246 
L 103.242779 253.7381 
z
M 217.825796 123.985083 
L 231.279143 128.928054 
L 244.73249 123.985083 
L 251.688731 115.019269 
L 255.523798 97.679415 
L 251.688731 80.339561 
L 244.73249 71.373748 
L 231.279143 66.430776 
L 217.825796 71.373748 
L 210.869555 80.339561 
L 207.034487 97.679415 
L 210.869555 115.019269 
z
" clip-path="url(#p3e93154a3e)" style="fill: #ca3b37"/>
   </g>
   <g id="matplotlib.axis_1">
    <g id="xtick_1">
     <g id="line2d_1">
      <defs>
       <path id="mb15452b983" d="M 0 0 
L 0 3.5 
" style="stroke: #5a5758; stroke-width: 0.8"/>
      </defs>
      <g>
       <use xlink:href="#mb15452b983" x="69.838979" y="317.757661" style="fill: #5a5758; stroke: #5a5758; stroke-width: 0.8"/>
      </g>
     </g>
     <g id="text_1">
      <!-- 0.0 -->
      <g style="fill: #5a5758" transform="translate(59.777771 335.178491) scale(0.14994 -0.14994)">
       <defs>
        <path id="CMUBright-Roman-30" d="M 333 1984 
L 333 2086 
Q 333 2291 339 2438 
Q 346 2586 371 2832 
Q 397 3078 461 3267 
Q 525 3456 621 3657 
Q 717 3859 880 4006 
Q 1043 4154 1261 4230 
Q 1446 4301 1677 4301 
Q 1856 4301 2025 4256 
Q 2195 4211 2380 4070 
Q 2566 3930 2704 3709 
Q 2842 3488 2931 3104 
Q 3021 2720 3021 2214 
Q 3021 1683 2982 1347 
Q 2944 1011 2803 685 
Q 2618 250 2307 70 
Q 1997 -109 1677 -109 
Q 1498 -109 1328 -64 
Q 1158 -19 972 121 
Q 787 262 649 483 
Q 512 704 422 1091 
Q 333 1478 333 1984 
z
M 742 2413 
Q 742 2374 745 2326 
Q 749 2278 749 2272 
L 749 2150 
Q 749 1779 758 1548 
Q 768 1318 838 1014 
Q 909 710 1037 538 
Q 1286 218 1677 218 
Q 2086 218 2330 557 
Q 2451 730 2518 1037 
Q 2586 1344 2595 1568 
Q 2605 1792 2605 2163 
L 2605 2272 
Q 2605 2278 2608 2323 
Q 2611 2368 2611 2406 
Q 2611 3302 2336 3661 
Q 2099 3981 1677 3981 
Q 1242 3981 1005 3642 
Q 742 3264 742 2413 
z
" transform="scale(0.015625)"/>
        <path id="CMUBright-Roman-2e" d="M 678 0 
L 678 499 
L 1178 499 
L 1178 0 
L 678 0 
z
" transform="scale(0.015625)"/>
       </defs>
       <use xlink:href="#CMUBright-Roman-30"/>
       <use xlink:href="#CMUBright-Roman-2e" x="52.499985"/>
       <use xlink:href="#CMUBright-Roman-30" x="81.699982"/>
      </g>
     </g>
    </g>
    <g id="xtick_2">
     <g id="line2d_2">
      <g>
       <use xlink:href="#mb15452b983" x="123.652367" y="317.757661" style="fill: #5a5758; stroke: #5a5758; stroke-width: 0.8"/>
      </g>
     </g>
     <g id="text_2">
      <!-- 0.5 -->
      <g style="fill: #5a5758" transform="translate(113.591159 335.178491) scale(0.14994 -0.14994)">
       <defs>
        <path id="CMUBright-Roman-35" d="M 301 518 
L 486 819 
Q 896 224 1581 224 
Q 1971 224 2268 473 
Q 2566 723 2566 1312 
Q 2566 1626 2489 1846 
Q 2413 2067 2285 2176 
Q 2157 2285 2032 2329 
Q 1907 2374 1773 2374 
Q 1210 2374 941 1901 
L 582 1901 
L 582 4192 
L 2797 4192 
L 2797 3853 
L 973 3853 
L 973 2381 
Q 1325 2701 1779 2701 
Q 2285 2701 2653 2291 
Q 3021 1882 3021 1306 
Q 3021 723 2601 307 
Q 2182 -109 1574 -109 
Q 813 -109 301 518 
z
" transform="scale(0.015625)"/>
       </defs>
       <use xlink:href="#CMUBright-Roman-30"/>
       <use xlink:href="#CMUBright-Roman-2e" x="52.499985"/>
       <use xlink:href="#CMUBright-Roman-35" x="81.699982"/>
      </g>
     </g>
    </g>
    <g id="xtick_3">
     <g id="line2d_3">
      <g>
       <use xlink:href="#mb15452b983" x="177.465755" y="317.757661" style="fill: #5a5758; stroke: #5a5758; stroke-width: 0.8"/>
      </g>
     </g>
     <g id="text_3">
      <!-- 1.0 -->
      <g style="fill: #5a5758" transform="translate(167.404547 335.178491) scale(0.14994 -0.14994)">
       <defs>
        <path id="CMUBright-Roman-31" d="M 672 3558 
L 672 3885 
Q 1427 3885 1862 4301 
L 1965 4301 
L 1965 320 
L 2803 320 
L 2803 0 
L 710 0 
L 710 320 
L 1549 320 
L 1549 3744 
Q 1178 3558 672 3558 
z
" transform="scale(0.015625)"/>
       </defs>
       <use xlink:href="#CMUBright-Roman-31"/>
       <use xlink:href="#CMUBright-Roman-2e" x="52.499985"/>
       <use xlink:href="#CMUBright-Roman-30" x="81.699982"/>
      </g>
     </g>
    </g>
    <g id="xtick_4">
     <g id="line2d_4">
      <g>
       <use xlink:href="#mb15452b983" x="231.279143" y="317.757661" style="fill: #5a5758; stroke: #5a5758; stroke-width: 0.8"/>
      </g>
     </g>
     <g id="text_4">
      <!-- 1.5 -->
      <g style="fill: #5a5758" transform="translate(221.217934 335.178491) scale(0.14994 -0.14994)">
       <use xlink:href="#CMUBright-Roman-31"/>
       <use xlink:href="#CMUBright-Roman-2e" x="52.499985"/>
       <use xlink:href="#CMUBright-Roman-35" x="81.699982"/>
      </g>
     </g>
    </g>
    <g id="xtick_5">
     <g id="line2d_5">
      <g>
       <use xlink:href="#mb15452b983" x="285.092531" y="317.757661" style="fill: #5a5758; stroke: #5a5758; stroke-width: 0.8"/>
      </g>
     </g>
     <g id="text_5">
      <!-- 2.0 -->
      <g style="fill: #5a5758" transform="translate(275.031322 335.178491) scale(0.14994 -0.14994)">
       <defs>
        <path id="CMUBright-Roman-32" d="M 275 3226 
Q 595 4301 1587 4301 
L 1594 4301 
Q 2214 4294 2617 3923 
Q 3021 3552 3021 2989 
Q 3021 2746 2937 2531 
Q 2854 2317 2668 2115 
Q 2483 1914 2384 1821 
Q 2285 1728 2061 1549 
Q 1754 1299 1642 1203 
Q 1530 1107 698 358 
L 3021 358 
L 3021 0 
L 333 0 
L 333 339 
L 1683 1562 
Q 2144 1965 2368 2278 
Q 2592 2592 2592 2982 
Q 2592 3418 2278 3690 
Q 1965 3962 1498 3962 
Q 1069 3962 854 3693 
Q 640 3424 512 2938 
L 275 3226 
z
" transform="scale(0.015625)"/>
       </defs>
       <use xlink:href="#CMUBright-Roman-32"/>
       <use xlink:href="#CMUBright-Roman-2e" x="52.499985"/>
       <use xlink:href="#CMUBright-Roman-30" x="81.699982"/>
      </g>
     </g>
    </g>
    <g id="text_6">
     <!-- x -->
     <g style="fill: #5a5758" transform="translate(173.344036 358.192957) scale(0.18 -0.18)">
      <defs>
       <path id="CMUBright-SemiBold-78" d="M 0 0 
L 1184 1562 
L 1184 1568 
L 38 3021 
L 698 3021 
L 1446 2022 
L 2163 3021 
L 2816 3021 
L 1709 1568 
L 1709 1562 
L 2931 0 
L 2272 0 
L 1446 1197 
L 1440 1197 
L 653 0 
L 0 0 
z
" transform="scale(0.015625)"/>
      </defs>
      <use xlink:href="#CMUBright-SemiBold-78"/>
     </g>
    </g>
   </g>
   <g id="matplotlib.axis_2">
    <g id="ytick_1">
     <g id="line2d_6">
      <defs>
       <path id="m2ced1a28ef" d="M 0 0 
L -3.5 0 
" style="stroke: #5a5758; stroke-width: 0.8"/>
      </defs>
      <g>
       <use xlink:href="#m2ced1a28ef" x="57.838979" y="305.757661" style="fill: #5a5758; stroke: #5a5758; stroke-width: 0.8"/>
      </g>
     </g>
     <g id="text_7">
      <!-- 0.0 -->
      <g style="fill: #5a5758" transform="translate(30.716563 310.968076) scale(0.14994 -0.14994)">
       <use xlink:href="#CMUBright-Roman-30"/>
       <use xlink:href="#CMUBright-Roman-2e" x="52.499985"/>
       <use xlink:href="#CMUBright-Roman-30" x="81.699982"/>
      </g>
     </g>
    </g>
    <g id="ytick_2">
     <g id="line2d_7">
      <g>
       <use xlink:href="#m2ced1a28ef" x="57.838979" y="250.270129" style="fill: #5a5758; stroke: #5a5758; stroke-width: 0.8"/>
      </g>
     </g>
     <g id="text_8">
      <!-- 0.2 -->
      <g style="fill: #5a5758" transform="translate(30.716563 255.480544) scale(0.14994 -0.14994)">
       <use xlink:href="#CMUBright-Roman-30"/>
       <use xlink:href="#CMUBright-Roman-2e" x="52.499985"/>
       <use xlink:href="#CMUBright-Roman-32" x="81.699982"/>
      </g>
     </g>
    </g>
    <g id="ytick_3">
     <g id="line2d_8">
      <g>
       <use xlink:href="#m2ced1a28ef" x="57.838979" y="194.782597" style="fill: #5a5758; stroke: #5a5758; stroke-width: 0.8"/>
      </g>
     </g>
     <g id="text_9">
      <!-- 0.4 -->
      <g style="fill: #5a5758" transform="translate(30.716563 199.993012) scale(0.14994 -0.14994)">
       <defs>
        <path id="CMUBright-Roman-34" d="M 186 1158 
L 186 1504 
L 1952 4250 
L 2438 4250 
L 2438 1498 
L 3168 1498 
L 3168 1158 
L 2438 1158 
L 2438 0 
L 2035 0 
L 2035 1158 
L 186 1158 
z
M 602 1498 
L 2054 1498 
L 2054 3885 
Q 1971 3667 1606 3085 
L 602 1498 
z
" transform="scale(0.015625)"/>
       </defs>
       <use xlink:href="#CMUBright-Roman-30"/>
       <use xlink:href="#CMUBright-Roman-2e" x="52.499985"/>
       <use xlink:href="#CMUBright-Roman-34" x="81.699982"/>
      </g>
     </g>
    </g>
    <g id="ytick_4">
     <g id="line2d_9">
      <g>
       <use xlink:href="#m2ced1a28ef" x="57.838979" y="139.295064" style="fill: #5a5758; stroke: #5a5758; stroke-width: 0.8"/>
      </g>
     </g>
     <g id="text_10">
      <!-- 0.6 -->
      <g style="fill: #5a5758" transform="translate(30.716563 144.505479) scale(0.14994 -0.14994)">
       <defs>
        <path id="CMUBright-Roman-36" d="M 346 2061 
Q 346 3072 864 3686 
Q 1382 4301 2074 4301 
L 2086 4301 
Q 2426 4301 2797 4179 
L 2797 3846 
Q 2374 3981 2074 3981 
L 2061 3981 
Q 1478 3981 1123 3491 
Q 768 3002 768 2208 
Q 768 2195 771 2166 
Q 774 2138 774 2125 
Q 928 2445 1238 2665 
Q 1549 2886 1952 2886 
Q 2387 2886 2682 2483 
Q 3008 2029 3008 1408 
Q 3008 768 2618 326 
Q 2240 -109 1690 -109 
Q 1510 -109 1340 -57 
Q 1171 -6 985 141 
Q 800 288 662 521 
Q 525 755 435 1152 
Q 346 1549 346 2061 
z
M 794 1389 
Q 813 1171 854 1004 
Q 896 838 985 643 
Q 1075 448 1254 336 
Q 1434 224 1690 224 
Q 2138 224 2381 550 
Q 2515 736 2550 921 
Q 2586 1107 2586 1434 
Q 2586 1645 2573 1776 
Q 2560 1907 2480 2089 
Q 2400 2272 2253 2400 
Q 2054 2566 1728 2566 
Q 1325 2566 1062 2265 
Q 800 1965 800 1555 
Q 800 1440 806 1389 
L 794 1389 
z
" transform="scale(0.015625)"/>
       </defs>
       <use xlink:href="#CMUBright-Roman-30"/>
       <use xlink:href="#CMUBright-Roman-2e" x="52.499985"/>
       <use xlink:href="#CMUBright-Roman-36" x="81.699982"/>
      </g>
     </g>
    </g>
    <g id="ytick_5">
     <g id="line2d_10">
      <g>
       <use xlink:href="#m2ced1a28ef" x="57.838979" y="83.807532" style="fill: #5a5758; stroke: #5a5758; stroke-width: 0.8"/>
      </g>
     </g>
     <g id="text_11">
      <!-- 0.8 -->
      <g style="fill: #5a5758" transform="translate(30.716563 89.017947) scale(0.14994 -0.14994)">
       <defs>
        <path id="CMUBright-Roman-38" d="M 275 1158 
Q 275 1517 518 1817 
Q 762 2118 1248 2266 
Q 909 2349 640 2598 
Q 371 2848 371 3206 
Q 371 3642 745 3971 
Q 1120 4301 1677 4301 
Q 2221 4301 2601 3981 
Q 2982 3661 2982 3213 
Q 2982 2918 2787 2684 
Q 2592 2451 2285 2323 
L 2099 2266 
Q 2464 2176 2768 1885 
Q 3072 1594 3072 1158 
Q 3072 646 2665 268 
Q 2259 -109 1670 -109 
Q 1075 -109 675 275 
Q 275 659 275 1158 
z
M 698 1158 
Q 698 704 970 464 
Q 1242 224 1670 224 
Q 2118 224 2384 470 
Q 2650 717 2650 1165 
Q 2650 1619 2371 1862 
Q 2093 2106 1670 2106 
Q 1280 2106 989 1878 
Q 698 1651 698 1158 
z
M 755 3206 
Q 755 2886 982 2656 
Q 1210 2426 1670 2426 
Q 2093 2426 2342 2634 
Q 2592 2842 2592 3206 
Q 2592 3507 2387 3744 
Q 2182 3981 1683 3981 
Q 1171 3981 963 3744 
Q 755 3507 755 3206 
z
" transform="scale(0.015625)"/>
       </defs>
       <use xlink:href="#CMUBright-Roman-30"/>
       <use xlink:href="#CMUBright-Roman-2e" x="52.499985"/>
       <use xlink:href="#CMUBright-Roman-38" x="81.699982"/>
      </g>
     </g>
    </g>
    <g id="ytick_6">
     <g id="line2d_11">
      <g>
       <use xlink:href="#m2ced1a28ef" x="57.838979" y="28.32" style="fill: #5a5758; stroke: #5a5758; stroke-width: 0.8"/>
      </g>
     </g>
     <g id="text_12">
      <!-- 1.0 -->
      <g style="fill: #5a5758" transform="translate(30.716563 33.530415) scale(0.14994 -0.14994)">
       <use xlink:href="#CMUBright-Roman-31"/>
       <use xlink:href="#CMUBright-Roman-2e" x="52.499985"/>
       <use xlink:href="#CMUBright-Roman-30" x="81.699982"/>
      </g>
     </g>
    </g>
    <g id="text_13">
     <!-- y -->
     <g style="fill: #5a5758" transform="translate(19.566563 171.160549) rotate(-90) scale(0.18 -0.18)">
      <defs>
       <path id="CMUBright-SemiBold-79" d="M 90 3021 
L 704 3021 
Q 1344 1344 1440 979 
Q 1485 787 1510 614 
Q 1536 979 2138 2733 
Q 2208 2925 2240 3021 
L 2835 3021 
L 1722 -128 
Q 1562 -576 1331 -848 
Q 1101 -1120 685 -1120 
Q 538 -1120 205 -1075 
L 154 -544 
Q 480 -640 691 -640 
Q 749 -640 797 -630 
Q 845 -621 883 -608 
Q 922 -595 960 -563 
Q 998 -531 1020 -512 
Q 1043 -493 1075 -441 
Q 1107 -390 1120 -368 
Q 1133 -346 1158 -282 
Q 1184 -218 1193 -195 
Q 1203 -173 1228 -96 
Q 1254 -19 1261 0 
L 90 3021 
z
" transform="scale(0.015625)"/>
      </defs>
      <use xlink:href="#CMUBright-SemiBold-79"/>
     </g>
    </g>
   </g>
   <g id="patch_3">
    <path d="M 57.838979 305.757661 
L 57.838979 28.32 
" style="fill: none; stroke: #5a5758; stroke-width: 0.8; stroke-linejoin: miter; stroke-linecap: square"/>
   </g>
   <g id="patch_4">
    <path d="M 69.838979 317.757661 
L 285.092531 317.757661 
" style="fill: none; stroke: #5a5758; stroke-width: 0.8; stroke-linejoin: miter; stroke-linecap: square"/>
   </g>
   <g id="text_14">
    <!-- Inital state $N=16$ -->
    <g style="fill: #5a5758" transform="translate(94.521755 22.32) scale(0.216 -0.216)">
     <defs>
      <path id="CMUBright-Roman-49" d="M 627 0 
L 627 4448 
L 1075 4448 
L 1075 0 
L 627 0 
z
" transform="scale(0.015625)"/>
      <path id="CMUBright-Roman-6e" d="M 512 0 
L 512 3021 
L 909 3021 
L 909 2400 
Q 1030 2682 1273 2877 
Q 1517 3072 1869 3072 
Q 2125 3072 2307 2992 
Q 2490 2912 2579 2809 
Q 2669 2707 2720 2540 
Q 2771 2374 2777 2272 
Q 2784 2170 2784 2016 
L 2784 0 
L 2374 0 
L 2374 1990 
Q 2374 2106 2371 2176 
Q 2368 2246 2329 2368 
Q 2291 2490 2220 2563 
Q 2150 2637 2006 2694 
Q 1862 2752 1658 2752 
Q 1370 2752 1149 2518 
Q 928 2285 928 1677 
L 928 0 
L 512 0 
z
" transform="scale(0.015625)"/>
      <path id="CMUBright-Roman-69" d="M 509 4019 
L 509 4422 
L 912 4422 
L 912 4019 
L 509 4019 
z
M 512 0 
L 512 3021 
L 915 3021 
L 915 0 
L 512 0 
z
" transform="scale(0.015625)"/>
      <path id="CMUBright-Roman-74" d="M 122 2701 
L 122 3021 
L 736 3021 
L 736 3885 
L 1126 3885 
L 1126 3021 
L 2118 3021 
L 2118 2701 
L 1126 2701 
L 1126 883 
Q 1126 282 1491 282 
Q 1568 282 1638 291 
Q 1709 301 1769 323 
Q 1830 346 1878 365 
Q 1926 384 1974 416 
Q 2022 448 2048 464 
Q 2074 480 2109 512 
Q 2144 544 2150 544 
L 2234 230 
Q 1779 -51 1261 -51 
Q 730 -51 730 838 
L 730 2701 
L 122 2701 
z
" transform="scale(0.015625)"/>
      <path id="CMUBright-Roman-61" d="M 352 736 
Q 352 896 435 1046 
Q 518 1197 707 1347 
Q 896 1498 1283 1590 
Q 1670 1683 2214 1696 
L 2214 1965 
Q 2214 2381 2042 2579 
Q 1856 2803 1568 2803 
Q 1331 2803 1107 2736 
Q 883 2669 809 2624 
Q 736 2579 557 2470 
L 525 2829 
Q 1043 3104 1574 3104 
Q 2054 3104 2326 2806 
Q 2598 2509 2624 2144 
L 2630 1926 
L 2630 0 
L 2227 0 
L 2227 442 
Q 1830 -51 1107 -51 
L 1062 -51 
Q 710 -51 531 205 
Q 352 461 352 736 
z
M 749 749 
Q 749 518 950 393 
Q 1152 269 1408 269 
Q 1523 269 1644 297 
Q 1766 326 1904 390 
Q 2042 454 2128 595 
Q 2214 736 2214 928 
L 2214 1498 
Q 1568 1491 1158 1286 
Q 749 1082 749 749 
z
" transform="scale(0.015625)"/>
      <path id="CMUBright-Roman-6c" d="M 512 0 
L 512 4448 
L 915 4448 
L 915 0 
L 512 0 
z
" transform="scale(0.015625)"/>
      <path id="CMUBright-Roman-20" transform="scale(0.015625)"/>
      <path id="CMUBright-Roman-73" d="M 186 250 
L 250 621 
Q 787 282 1325 282 
Q 1715 282 1881 442 
Q 2048 602 2048 806 
Q 2048 998 1910 1120 
Q 1773 1242 1606 1299 
Q 1536 1318 1235 1372 
Q 934 1427 726 1523 
Q 518 1619 371 1818 
Q 224 2022 224 2253 
Q 224 2400 272 2531 
Q 320 2662 429 2800 
Q 538 2938 765 3021 
Q 992 3104 1312 3104 
L 1331 3104 
Q 1818 3104 2304 2886 
L 2240 2534 
Q 1747 2784 1267 2784 
Q 890 2784 742 2633 
Q 595 2483 595 2304 
Q 595 2163 697 2038 
Q 800 1914 998 1856 
Q 1037 1843 1344 1782 
Q 1651 1722 1760 1683 
Q 2029 1587 2224 1372 
Q 2419 1158 2419 845 
Q 2419 499 2172 224 
Q 1926 -51 1331 -51 
Q 736 -51 186 250 
z
" transform="scale(0.015625)"/>
      <path id="CMUBright-Roman-65" d="M 269 1536 
Q 269 2163 646 2630 
Q 1024 3098 1587 3098 
Q 1786 3098 1968 3037 
Q 2150 2976 2342 2829 
Q 2534 2682 2652 2365 
Q 2771 2048 2771 1600 
L 653 1600 
L 653 1549 
Q 653 966 966 617 
Q 1280 269 1690 269 
Q 2234 269 2726 710 
L 2758 358 
Q 2266 -51 1690 -51 
Q 1101 -51 685 406 
Q 269 864 269 1536 
z
M 685 1856 
L 2426 1856 
Q 2381 2342 2134 2560 
Q 1888 2778 1587 2778 
Q 1261 2778 1008 2515 
Q 755 2253 685 1856 
z
" transform="scale(0.015625)"/>
      <path id="CMUBright-Roman-4e" d="M 640 0 
L 640 4448 
L 1267 4448 
L 3488 371 
L 3488 4448 
L 3891 4448 
L 3891 0 
L 3264 0 
L 1043 4077 
L 1043 0 
L 640 0 
z
" transform="scale(0.015625)"/>
      <path id="CMUBright-Roman-3d" d="M 378 1062 
Q 378 1229 576 1229 
L 3533 1229 
Q 3725 1222 3725 1062 
Q 3725 909 3514 909 
L 589 909 
Q 378 909 378 1062 
z
M 378 2304 
Q 378 2470 582 2470 
L 3533 2470 
Q 3725 2464 3725 2304 
Q 3725 2150 3514 2150 
L 589 2150 
Q 378 2150 378 2304 
z
" transform="scale(0.015625)"/>
     </defs>
     <use xlink:href="#CMUBright-Roman-49" transform="translate(0 0.5)"/>
     <use xlink:href="#CMUBright-Roman-6e" transform="translate(26.699997 0.5)"/>
     <use xlink:href="#CMUBright-Roman-69" transform="translate(78.399994 0.5)"/>
     <use xlink:href="#CMUBright-Roman-74" transform="translate(100.899979 0.5)"/>
     <use xlink:href="#CMUBright-Roman-61" transform="translate(138.799973 0.5)"/>
     <use xlink:href="#CMUBright-Roman-6c" transform="translate(187.999969 0.5)"/>
     <use xlink:href="#CMUBright-Roman-20" transform="translate(210.499954 0.5)"/>
     <use xlink:href="#CMUBright-Roman-73" transform="translate(243.799942 0.5)"/>
     <use xlink:href="#CMUBright-Roman-74" transform="translate(283.999939 0.5)"/>
     <use xlink:href="#CMUBright-Roman-61" transform="translate(321.899933 0.5)"/>
     <use xlink:href="#CMUBright-Roman-74" transform="translate(371.09993 0.5)"/>
     <use xlink:href="#CMUBright-Roman-65" transform="translate(408.999924 0.5)"/>
     <use xlink:href="#CMUBright-Roman-20" transform="translate(455.699921 0.5)"/>
     <use xlink:href="#CMUBright-Roman-4e" transform="translate(488.999908 0.5)"/>
     <use xlink:href="#CMUBright-Roman-3d" transform="translate(579.282318 0.5)"/>
     <use xlink:href="#CMUBright-Roman-31" transform="translate(662.964737 0.5)"/>
     <use xlink:href="#CMUBright-Roman-36" transform="translate(715.464722 0.5)"/>
    </g>
   </g>
  </g>
  <g id="axes_2">
   <g id="patch_5">
    <path d="M 430.438739 305.757661 
L 645.692291 305.757661 
L 645.692291 28.32 
L 430.438739 28.32 
z
" style="fill: #ffffff"/>
   </g>
   <g id="QuadContourSet_2">
    <path d="M 578.425556 262.703913 
L 585.152229 265.273186 
L 591.878903 267.646885 
L 598.605576 265.273186 
L 605.33225 262.703913 
L 605.592329 262.408026 
L 612.058923 254.073313 
L 612.288491 253.7381 
L 614.281894 245.068173 
L 616.123558 236.398246 
L 614.281894 227.728319 
L 612.288491 219.058392 
L 612.058923 218.723179 
L 605.592329 210.388465 
L 605.33225 210.092578 
L 598.605576 207.523305 
L 591.878903 205.149607 
L 585.152229 207.523305 
L 578.425556 210.092578 
L 578.165476 210.388465 
L 571.698882 218.723179 
L 571.469315 219.058392 
L 569.475911 227.728319 
L 567.634247 236.398246 
L 569.475911 245.068173 
L 571.469315 253.7381 
L 571.698882 254.073313 
L 578.165476 262.408026 
z
M 470.79878 123.985083 
L 477.525453 126.554356 
L 484.252127 128.928054 
L 490.9788 126.554356 
L 497.705474 123.985083 
L 497.965553 123.689196 
L 504.432147 115.354482 
L 504.661715 115.019269 
L 506.655118 106.349342 
L 508.496783 97.679415 
L 506.655118 89.009488 
L 504.661715 80.339561 
L 504.432147 80.004348 
L 497.965553 71.669635 
L 497.705474 71.373748 
L 490.9788 68.804475 
L 484.252127 66.430776 
L 477.525453 68.804475 
L 470.79878 71.373748 
L 470.538701 71.669635 
L 464.072106 80.004348 
L 463.842539 80.339561 
L 461.849136 89.009488 
L 460.007471 97.679415 
L 461.849136 106.349342 
L 463.842539 115.019269 
L 464.072106 115.354482 
L 470.538701 123.689196 
z
" clip-path="url(#pd8aa0fd611)" style="fill: #4e68d8"/>
    <path d="M 578.425556 279.945586 
L 585.152229 281.090074 
L 591.878903 282.147444 
L 598.605576 281.090074 
L 605.33225 279.945586 
L 605.721486 279.74788 
L 612.058923 276.101063 
L 618.785597 271.077953 
L 618.785597 271.077953 
L 622.682841 262.408026 
L 625.51227 254.239781 
L 625.665662 253.7381 
L 626.553629 245.068173 
L 627.374003 236.398246 
L 626.553629 227.728319 
L 625.665662 219.058392 
L 625.51227 218.55671 
L 622.682841 210.388465 
L 618.785597 201.718538 
L 618.785597 201.718538 
L 612.058923 196.695428 
L 605.721486 193.048611 
L 605.33225 192.850906 
L 598.605576 191.706417 
L 591.878903 190.649047 
L 585.152229 191.706417 
L 578.425556 192.850906 
L 578.03632 193.048611 
L 571.698882 196.695428 
L 564.972209 201.718538 
L 564.972209 201.718538 
L 561.074965 210.388465 
L 558.245535 218.55671 
L 558.092143 219.058392 
L 557.204177 227.728319 
L 556.383803 236.398246 
L 557.204177 245.068173 
L 558.092143 253.7381 
L 558.245535 254.239781 
L 561.074965 262.408026 
L 564.972209 271.077953 
L 564.972209 271.077953 
L 571.698882 276.101063 
L 578.03632 279.74788 
z
M 578.165476 262.408026 
L 571.698882 254.073313 
L 571.469315 253.7381 
L 569.475911 245.068173 
L 567.634247 236.398246 
L 569.475911 227.728319 
L 571.469315 219.058392 
L 571.698882 218.723179 
L 578.165476 210.388465 
L 578.425556 210.092578 
L 585.152229 207.523305 
L 591.878903 205.149607 
L 598.605576 207.523305 
L 605.33225 210.092578 
L 605.592329 210.388465 
L 612.058923 218.723179 
L 612.288491 219.058392 
L 614.281894 227.728319 
L 616.123558 236.398246 
L 614.281894 245.068173 
L 612.288491 253.7381 
L 612.058923 254.073313 
L 605.592329 262.408026 
L 605.33225 262.703913 
L 598.605576 265.273186 
L 591.878903 267.646885 
L 585.152229 265.273186 
L 578.425556 262.703913 
z
M 470.79878 141.226755 
L 477.525453 142.371244 
L 484.252127 143.428614 
L 490.9788 142.371244 
L 497.705474 141.226755 
L 498.09471 141.02905 
L 504.432147 137.382233 
L 511.158821 132.359123 
L 511.158821 132.359123 
L 515.056065 123.689196 
L 517.885494 115.520951 
L 518.038887 115.019269 
L 518.926853 106.349342 
L 519.747227 97.679415 
L 518.926853 89.009488 
L 518.038887 80.339561 
L 517.885494 79.83788 
L 515.056065 71.669635 
L 511.158821 62.999708 
L 511.158821 62.999708 
L 504.432147 57.976597 
L 498.09471 54.329781 
L 497.705474 54.132075 
L 490.9788 52.987587 
L 484.252127 51.930217 
L 477.525453 52.987587 
L 470.79878 54.132075 
L 470.409544 54.329781 
L 464.072106 57.976597 
L 457.345433 62.999708 
L 457.345433 62.999708 
L 453.448189 71.669635 
L 450.61876 79.83788 
L 450.465367 80.339561 
L 449.577401 89.009488 
L 448.757027 97.679415 
L 449.577401 106.349342 
L 450.465367 115.019269 
L 450.61876 115.520951 
L 453.448189 123.689196 
L 457.345433 132.359123 
L 457.345433 132.359123 
L 464.072106 137.382233 
L 470.409544 141.02905 
z
M 470.538701 123.689196 
L 464.072106 115.354482 
L 463.842539 115.019269 
L 461.849136 106.349342 
L 460.007471 97.679415 
L 461.849136 89.009488 
L 463.842539 80.339561 
L 464.072106 80.004348 
L 470.538701 71.669635 
L 470.79878 71.373748 
L 477.525453 68.804475 
L 484.252127 66.430776 
L 490.9788 68.804475 
L 497.705474 71.373748 
L 497.965553 71.669635 
L 504.432147 80.004348 
L 504.661715 80.339561 
L 506.655118 89.009488 
L 508.496783 97.679415 
L 506.655118 106.349342 
L 504.661715 115.019269 
L 504.432147 115.354482 
L 497.965553 123.689196 
L 497.705474 123.985083 
L 490.9788 126.554356 
L 484.252127 128.928054 
L 477.525453 126.554356 
L 470.79878 123.985083 
z
" clip-path="url(#pd8aa0fd611)" style="fill: #779af7"/>
    <path d="M 564.972209 289.737725 
L 571.698882 291.866918 
L 578.425556 293.496533 
L 585.152229 293.981658 
L 591.878903 294.429856 
L 598.605576 293.981658 
L 605.33225 293.496533 
L 612.058923 291.866918 
L 618.785597 289.737725 
L 621.017651 288.417807 
L 625.51227 284.349303 
L 629.082343 279.74788 
L 632.238944 273.95482 
L 633.263019 271.077953 
L 634.914981 262.408026 
L 636.179338 253.7381 
L 636.555728 245.068173 
L 636.903468 236.398246 
L 636.555728 227.728319 
L 636.179338 219.058392 
L 634.914981 210.388465 
L 633.263019 201.718538 
L 632.238944 198.841671 
L 629.082343 193.048611 
L 625.51227 188.447189 
L 621.017651 184.378684 
L 618.785597 183.058766 
L 612.058923 180.929573 
L 605.33225 179.299959 
L 598.605576 178.814833 
L 591.878903 178.366636 
L 585.152229 178.814833 
L 578.425556 179.299959 
L 571.698882 180.929573 
L 564.972209 183.058766 
L 562.740155 184.378684 
L 558.245535 188.447189 
L 554.675463 193.048611 
L 551.518862 198.841671 
L 550.494787 201.718538 
L 548.842825 210.388465 
L 547.578468 219.058392 
L 547.202077 227.728319 
L 546.854337 236.398246 
L 547.202077 245.068173 
L 547.578468 253.7381 
L 548.842825 262.408026 
L 550.494787 271.077953 
L 551.518862 273.95482 
L 554.675463 279.74788 
L 558.245535 284.349303 
L 562.740155 288.417807 
z
M 578.03632 279.74788 
L 571.698882 276.101063 
L 564.972209 271.077953 
L 564.972209 271.077953 
L 561.074965 262.408026 
L 558.245535 254.239781 
L 558.092143 253.7381 
L 557.204177 245.068173 
L 556.383803 236.398246 
L 557.204177 227.728319 
L 558.092143 219.058392 
L 558.245535 218.55671 
L 561.074965 210.388465 
L 564.972209 201.718538 
L 564.972209 201.718538 
L 571.698882 196.695428 
L 578.03632 193.048611 
L 578.425556 192.850906 
L 585.152229 191.706417 
L 591.878903 190.649047 
L 598.605576 191.706417 
L 605.33225 192.850906 
L 605.721486 193.048611 
L 612.058923 196.695428 
L 618.785597 201.718538 
L 618.785597 201.718538 
L 622.682841 210.388465 
L 625.51227 218.55671 
L 625.665662 219.058392 
L 626.553629 227.728319 
L 627.374003 236.398246 
L 626.553629 245.068173 
L 625.665662 253.7381 
L 625.51227 254.239781 
L 622.682841 262.408026 
L 618.785597 271.077953 
L 618.785597 271.077953 
L 612.058923 276.101063 
L 605.721486 279.74788 
L 605.33225 279.945586 
L 598.605576 281.090074 
L 591.878903 282.147444 
L 585.152229 281.090074 
L 578.425556 279.945586 
z
M 457.345433 151.018894 
L 464.072106 153.148088 
L 470.79878 154.777702 
L 477.525453 155.262828 
L 484.252127 155.711025 
L 490.9788 155.262828 
L 497.705474 154.777702 
L 504.432147 153.148088 
L 511.158821 151.018894 
L 513.390875 149.698977 
L 517.885494 145.630472 
L 521.455567 141.02905 
L 524.612168 135.23599 
L 525.636243 132.359123 
L 527.288205 123.689196 
L 528.552562 115.019269 
L 528.928953 106.349342 
L 529.276692 97.679415 
L 528.928953 89.009488 
L 528.552562 80.339561 
L 527.288205 71.669635 
L 525.636243 62.999708 
L 524.612168 60.122841 
L 521.455567 54.329781 
L 517.885494 49.728358 
L 513.390875 45.659854 
L 511.158821 44.339936 
L 504.432147 42.210742 
L 497.705474 40.581128 
L 490.9788 40.096003 
L 484.252127 39.647805 
L 477.525453 40.096003 
L 470.79878 40.581128 
L 464.072106 42.210742 
L 457.345433 44.339936 
L 455.113379 45.659854 
L 450.61876 49.728358 
L 447.048687 54.329781 
L 443.892086 60.122841 
L 442.868011 62.999708 
L 441.216049 71.669635 
L 439.951692 80.339561 
L 439.575301 89.009488 
L 439.227562 97.679415 
L 439.575301 106.349342 
L 439.951692 115.019269 
L 441.216049 123.689196 
L 442.868011 132.359123 
L 443.892086 135.23599 
L 447.048687 141.02905 
L 450.61876 145.630472 
L 455.113379 149.698977 
z
M 470.409544 141.02905 
L 464.072106 137.382233 
L 457.345433 132.359123 
L 457.345433 132.359123 
L 453.448189 123.689196 
L 450.61876 115.520951 
L 450.465367 115.019269 
L 449.577401 106.349342 
L 448.757027 97.679415 
L 449.577401 89.009488 
L 450.465367 80.339561 
L 450.61876 79.83788 
L 453.448189 71.669635 
L 457.345433 62.999708 
L 457.345433 62.999708 
L 464.072106 57.976597 
L 470.409544 54.329781 
L 470.79878 54.132075 
L 477.525453 52.987587 
L 484.252127 51.930217 
L 490.9788 52.987587 
L 497.705474 54.132075 
L 498.09471 54.329781 
L 504.432147 57.976597 
L 511.158821 62.999708 
L 511.158821 62.999708 
L 515.056065 71.669635 
L 517.885494 79.83788 
L 518.038887 80.339561 
L 518.926853 89.009488 
L 519.747227 97.679415 
L 518.926853 106.349342 
L 518.038887 115.019269 
L 517.885494 115.520951 
L 515.056065 123.689196 
L 511.158821 132.359123 
L 511.158821 132.359123 
L 504.432147 137.382233 
L 498.09471 141.02905 
L 497.705474 141.226755 
L 490.9788 142.371244 
L 484.252127 143.428614 
L 477.525453 142.371244 
L 470.79878 141.226755 
z
" clip-path="url(#pd8aa0fd611)" style="fill: #a3c2fe"/>
    <path d="M 437.165413 305.757661 
L 443.892086 305.757661 
L 450.61876 305.757661 
L 457.345433 305.757661 
L 464.072106 305.757661 
L 470.79878 305.757661 
L 477.525453 305.757661 
L 484.252127 305.757661 
L 490.9788 305.757661 
L 497.705474 305.757661 
L 504.432147 305.757661 
L 511.158821 305.757661 
L 517.885494 305.757661 
L 524.612168 305.757661 
L 531.338841 305.757661 
L 538.065515 305.757661 
L 544.792188 305.757661 
L 551.518862 305.757661 
L 558.245535 305.757661 
L 564.972209 305.757661 
L 571.698882 305.757661 
L 578.425556 305.757661 
L 585.152229 305.757661 
L 591.878903 305.757661 
L 598.605576 305.757661 
L 605.33225 305.757661 
L 612.058923 305.757661 
L 618.785597 305.757661 
L 625.51227 305.757661 
L 632.238944 305.757661 
L 638.965617 305.757661 
L 645.692291 305.757661 
L 645.692291 297.087734 
L 645.692291 288.417807 
L 645.692291 279.74788 
L 645.692291 271.077953 
L 645.692291 262.408026 
L 645.692291 253.7381 
L 645.692291 245.068173 
L 645.692291 236.398246 
L 645.692291 227.728319 
L 645.692291 219.058392 
L 645.692291 210.388465 
L 645.692291 201.718538 
L 645.692291 193.048611 
L 645.692291 184.378684 
L 645.692291 175.708757 
L 645.692291 167.03883 
L 645.692291 158.368904 
L 645.692291 149.698977 
L 645.692291 141.02905 
L 645.692291 132.359123 
L 645.692291 123.689196 
L 645.692291 115.019269 
L 645.692291 106.349342 
L 645.692291 97.679415 
L 645.692291 89.009488 
L 645.692291 80.339561 
L 645.692291 71.669635 
L 645.692291 62.999708 
L 645.692291 54.329781 
L 645.692291 45.659854 
L 645.692291 36.989927 
L 645.692291 28.32 
L 638.965617 28.32 
L 632.238944 28.32 
L 625.51227 28.32 
L 618.785597 28.32 
L 612.058923 28.32 
L 605.33225 28.32 
L 598.605576 28.32 
L 591.878903 28.32 
L 585.152229 28.32 
L 578.425556 28.32 
L 571.698882 28.32 
L 564.972209 28.32 
L 558.245535 28.32 
L 551.518862 28.32 
L 544.792188 28.32 
L 538.065515 28.32 
L 531.338841 28.32 
L 524.612168 28.32 
L 517.885494 28.32 
L 511.158821 28.32 
L 504.432147 28.32 
L 497.705474 28.32 
L 490.9788 28.32 
L 484.252127 28.32 
L 477.525453 28.32 
L 470.79878 28.32 
L 464.072106 28.32 
L 457.345433 28.32 
L 450.61876 28.32 
L 443.892086 28.32 
L 437.165413 28.32 
L 430.438739 28.32 
L 430.438739 36.989927 
L 430.438739 45.659854 
L 430.438739 54.329781 
L 430.438739 62.999708 
L 430.438739 71.669635 
L 430.438739 80.339561 
L 430.438739 89.009488 
L 430.438739 97.679415 
L 430.438739 106.349342 
L 430.438739 115.019269 
L 430.438739 123.689196 
L 430.438739 132.359123 
L 430.438739 141.02905 
L 430.438739 149.698977 
L 430.438739 158.368904 
L 430.438739 167.03883 
L 430.438739 175.708757 
L 430.438739 184.378684 
L 430.438739 193.048611 
L 430.438739 201.718538 
L 430.438739 210.388465 
L 430.438739 219.058392 
L 430.438739 227.728319 
L 430.438739 236.398246 
L 430.438739 245.068173 
L 430.438739 253.7381 
L 430.438739 262.408026 
L 430.438739 271.077953 
L 430.438739 279.74788 
L 430.438739 288.417807 
L 430.438739 297.087734 
L 430.438739 305.757661 
z
M 430.438739 297.087734 
L 430.438739 288.417807 
L 430.438739 279.74788 
L 430.438739 271.077953 
L 430.438739 262.408026 
L 430.438739 253.7381 
L 430.438739 245.068173 
L 430.438739 236.398246 
L 430.438739 227.728319 
L 430.438739 219.058392 
L 430.438739 210.388465 
L 430.438739 201.718538 
L 430.438739 193.048611 
L 430.438739 184.378684 
L 430.438739 175.708757 
L 430.438739 167.03883 
L 437.165413 167.03883 
L 443.892086 167.03883 
L 450.61876 167.03883 
L 457.345433 167.03883 
L 464.072106 167.03883 
L 470.79878 167.03883 
L 477.525453 167.03883 
L 484.252127 167.03883 
L 490.9788 167.03883 
L 497.705474 167.03883 
L 504.432147 167.03883 
L 511.158821 167.03883 
L 517.885494 167.03883 
L 524.612168 167.03883 
L 531.338841 167.03883 
L 538.065515 167.03883 
L 538.065515 158.368904 
L 538.065515 149.698977 
L 538.065515 141.02905 
L 538.065515 132.359123 
L 538.065515 123.689196 
L 538.065515 115.019269 
L 538.065515 106.349342 
L 538.065515 97.679415 
L 538.065515 89.009488 
L 538.065515 80.339561 
L 538.065515 71.669635 
L 538.065515 62.999708 
L 538.065515 54.329781 
L 538.065515 45.659854 
L 538.065515 36.989927 
L 544.792188 28.32 
L 551.518862 28.32 
L 558.245535 28.32 
L 564.972209 28.32 
L 571.698882 28.32 
L 578.425556 28.32 
L 585.152229 28.32 
L 591.878903 28.32 
L 598.605576 28.32 
L 605.33225 28.32 
L 612.058923 28.32 
L 618.785597 28.32 
L 625.51227 28.32 
L 632.238944 28.32 
L 638.965617 28.32 
L 645.692291 36.989927 
L 645.692291 45.659854 
L 645.692291 54.329781 
L 645.692291 62.999708 
L 645.692291 71.669635 
L 645.692291 80.339561 
L 645.692291 89.009488 
L 645.692291 97.679415 
L 645.692291 106.349342 
L 645.692291 115.019269 
L 645.692291 123.689196 
L 645.692291 132.359123 
L 645.692291 141.02905 
L 645.692291 149.698977 
L 645.692291 158.368904 
L 638.965617 167.03883 
L 632.238944 167.03883 
L 625.51227 167.03883 
L 618.785597 167.03883 
L 612.058923 167.03883 
L 605.33225 167.03883 
L 598.605576 167.03883 
L 591.878903 167.03883 
L 585.152229 167.03883 
L 578.425556 167.03883 
L 571.698882 167.03883 
L 564.972209 167.03883 
L 558.245535 167.03883 
L 551.518862 167.03883 
L 544.792188 167.03883 
L 538.065515 167.03883 
L 538.065515 175.708757 
L 538.065515 184.378684 
L 538.065515 193.048611 
L 538.065515 201.718538 
L 538.065515 210.388465 
L 538.065515 219.058392 
L 538.065515 227.728319 
L 538.065515 236.398246 
L 538.065515 245.068173 
L 538.065515 253.7381 
L 538.065515 262.408026 
L 538.065515 271.077953 
L 538.065515 279.74788 
L 538.065515 288.417807 
L 538.065515 297.087734 
L 538.065515 305.757661 
L 531.338841 305.757661 
L 524.612168 305.757661 
L 517.885494 305.757661 
L 511.158821 305.757661 
L 504.432147 305.757661 
L 497.705474 305.757661 
L 490.9788 305.757661 
L 484.252127 305.757661 
L 477.525453 305.757661 
L 470.79878 305.757661 
L 464.072106 305.757661 
L 457.345433 305.757661 
L 450.61876 305.757661 
L 443.892086 305.757661 
L 437.165413 305.757661 
z
M 562.740155 288.417807 
L 558.245535 284.349303 
L 554.675463 279.74788 
L 551.518862 273.95482 
L 550.494787 271.077953 
L 548.842825 262.408026 
L 547.578468 253.7381 
L 547.202077 245.068173 
L 546.854337 236.398246 
L 547.202077 227.728319 
L 547.578468 219.058392 
L 548.842825 210.388465 
L 550.494787 201.718538 
L 551.518862 198.841671 
L 554.675463 193.048611 
L 558.245535 188.447189 
L 562.740155 184.378684 
L 564.972209 183.058766 
L 571.698882 180.929573 
L 578.425556 179.299959 
L 585.152229 178.814833 
L 591.878903 178.366636 
L 598.605576 178.814833 
L 605.33225 179.299959 
L 612.058923 180.929573 
L 618.785597 183.058766 
L 621.017651 184.378684 
L 625.51227 188.447189 
L 629.082343 193.048611 
L 632.238944 198.841671 
L 633.263019 201.718538 
L 634.914981 210.388465 
L 636.179338 219.058392 
L 636.555728 227.728319 
L 636.903468 236.398246 
L 636.555728 245.068173 
L 636.179338 253.7381 
L 634.914981 262.408026 
L 633.263019 271.077953 
L 632.238944 273.95482 
L 629.082343 279.74788 
L 625.51227 284.349303 
L 621.017651 288.417807 
L 618.785597 289.737725 
L 612.058923 291.866918 
L 605.33225 293.496533 
L 598.605576 293.981658 
L 591.878903 294.429856 
L 585.152229 293.981658 
L 578.425556 293.496533 
L 571.698882 291.866918 
L 564.972209 289.737725 
z
M 455.113379 149.698977 
L 450.61876 145.630472 
L 447.048687 141.02905 
L 443.892086 135.23599 
L 442.868011 132.359123 
L 441.216049 123.689196 
L 439.951692 115.019269 
L 439.575301 106.349342 
L 439.227562 97.679415 
L 439.575301 89.009488 
L 439.951692 80.339561 
L 441.216049 71.669635 
L 442.868011 62.999708 
L 443.892086 60.122841 
L 447.048687 54.329781 
L 450.61876 49.728358 
L 455.113379 45.659854 
L 457.345433 44.339936 
L 464.072106 42.210742 
L 470.79878 40.581128 
L 477.525453 40.096003 
L 484.252127 39.647805 
L 490.9788 40.096003 
L 497.705474 40.581128 
L 504.432147 42.210742 
L 511.158821 44.339936 
L 513.390875 45.659854 
L 517.885494 49.728358 
L 521.455567 54.329781 
L 524.612168 60.122841 
L 525.636243 62.999708 
L 527.288205 71.669635 
L 528.552562 80.339561 
L 528.928953 89.009488 
L 529.276692 97.679415 
L 528.928953 106.349342 
L 528.552562 115.019269 
L 527.288205 123.689196 
L 525.636243 132.359123 
L 524.612168 135.23599 
L 521.455567 141.02905 
L 517.885494 145.630472 
L 513.390875 149.698977 
L 511.158821 151.018894 
L 504.432147 153.148088 
L 497.705474 154.777702 
L 490.9788 155.262828 
L 484.252127 155.711025 
L 477.525453 155.262828 
L 470.79878 154.777702 
L 464.072106 153.148088 
L 457.345433 151.018894 
z
" clip-path="url(#pd8aa0fd611)" style="fill: #ccd9ed"/>
    <path d="M 437.165413 305.757661 
L 443.892086 305.757661 
L 450.61876 305.757661 
L 457.345433 305.757661 
L 464.072106 305.757661 
L 470.79878 305.757661 
L 477.525453 305.757661 
L 484.252127 305.757661 
L 490.9788 305.757661 
L 497.705474 305.757661 
L 504.432147 305.757661 
L 511.158821 305.757661 
L 517.885494 305.757661 
L 524.612168 305.757661 
L 531.338841 305.757661 
L 538.065515 305.757661 
L 538.065515 297.087734 
L 538.065515 288.417807 
L 538.065515 279.74788 
L 538.065515 271.077953 
L 538.065515 262.408026 
L 538.065515 253.7381 
L 538.065515 245.068173 
L 538.065515 236.398246 
L 538.065515 227.728319 
L 538.065515 219.058392 
L 538.065515 210.388465 
L 538.065515 201.718538 
L 538.065515 193.048611 
L 538.065515 184.378684 
L 538.065515 175.708757 
L 538.065515 167.03883 
L 544.792188 167.03883 
L 551.518862 167.03883 
L 558.245535 167.03883 
L 564.972209 167.03883 
L 571.698882 167.03883 
L 578.425556 167.03883 
L 585.152229 167.03883 
L 591.878903 167.03883 
L 598.605576 167.03883 
L 605.33225 167.03883 
L 612.058923 167.03883 
L 618.785597 167.03883 
L 625.51227 167.03883 
L 632.238944 167.03883 
L 638.965617 167.03883 
L 645.692291 158.368904 
L 645.692291 149.698977 
L 645.692291 141.02905 
L 645.692291 132.359123 
L 645.692291 123.689196 
L 645.692291 115.019269 
L 645.692291 106.349342 
L 645.692291 97.679415 
L 645.692291 89.009488 
L 645.692291 80.339561 
L 645.692291 71.669635 
L 645.692291 62.999708 
L 645.692291 54.329781 
L 645.692291 45.659854 
L 645.692291 36.989927 
L 638.965617 28.32 
L 632.238944 28.32 
L 625.51227 28.32 
L 618.785597 28.32 
L 612.058923 28.32 
L 605.33225 28.32 
L 598.605576 28.32 
L 591.878903 28.32 
L 585.152229 28.32 
L 578.425556 28.32 
L 571.698882 28.32 
L 564.972209 28.32 
L 558.245535 28.32 
L 551.518862 28.32 
L 544.792188 28.32 
L 538.065515 36.989927 
L 538.065515 45.659854 
L 538.065515 54.329781 
L 538.065515 62.999708 
L 538.065515 71.669635 
L 538.065515 80.339561 
L 538.065515 89.009488 
L 538.065515 97.679415 
L 538.065515 106.349342 
L 538.065515 115.019269 
L 538.065515 123.689196 
L 538.065515 132.359123 
L 538.065515 141.02905 
L 538.065515 149.698977 
L 538.065515 158.368904 
L 538.065515 167.03883 
L 531.338841 167.03883 
L 524.612168 167.03883 
L 517.885494 167.03883 
L 511.158821 167.03883 
L 504.432147 167.03883 
L 497.705474 167.03883 
L 490.9788 167.03883 
L 484.252127 167.03883 
L 477.525453 167.03883 
L 470.79878 167.03883 
L 464.072106 167.03883 
L 457.345433 167.03883 
L 450.61876 167.03883 
L 443.892086 167.03883 
L 437.165413 167.03883 
L 430.438739 167.03883 
L 430.438739 175.708757 
L 430.438739 184.378684 
L 430.438739 193.048611 
L 430.438739 201.718538 
L 430.438739 210.388465 
L 430.438739 219.058392 
L 430.438739 227.728319 
L 430.438739 236.398246 
L 430.438739 245.068173 
L 430.438739 253.7381 
L 430.438739 262.408026 
L 430.438739 271.077953 
L 430.438739 279.74788 
L 430.438739 288.417807 
L 430.438739 297.087734 
z
M 455.113379 288.417807 
L 450.61876 284.349303 
L 447.048687 279.74788 
L 443.892086 273.95482 
L 442.868011 271.077953 
L 441.216049 262.408026 
L 439.951692 253.7381 
L 439.575301 245.068173 
L 439.227562 236.398246 
L 439.575301 227.728319 
L 439.951692 219.058392 
L 441.216049 210.388465 
L 442.868011 201.718538 
L 443.892086 198.841671 
L 447.048687 193.048611 
L 450.61876 188.447189 
L 455.113379 184.378684 
L 457.345433 183.058766 
L 464.072106 180.929573 
L 470.79878 179.299959 
L 477.525453 178.814833 
L 484.252127 178.366636 
L 490.9788 178.814833 
L 497.705474 179.299959 
L 504.432147 180.929573 
L 511.158821 183.058766 
L 513.390875 184.378684 
L 517.885494 188.447189 
L 521.455567 193.048611 
L 524.612168 198.841671 
L 525.636243 201.718538 
L 527.288205 210.388465 
L 528.552562 219.058392 
L 528.928953 227.728319 
L 529.276692 236.398246 
L 528.928953 245.068173 
L 528.552562 253.7381 
L 527.288205 262.408026 
L 525.636243 271.077953 
L 524.612168 273.95482 
L 521.455567 279.74788 
L 517.885494 284.349303 
L 513.390875 288.417807 
L 511.158821 289.737725 
L 504.432147 291.866918 
L 497.705474 293.496533 
L 490.9788 293.981658 
L 484.252127 294.429856 
L 477.525453 293.981658 
L 470.79878 293.496533 
L 464.072106 291.866918 
L 457.345433 289.737725 
z
M 562.740155 149.698977 
L 558.245535 145.630472 
L 554.675463 141.02905 
L 551.518862 135.23599 
L 550.494787 132.359123 
L 548.842825 123.689196 
L 547.578468 115.019269 
L 547.202077 106.349342 
L 546.854337 97.679415 
L 547.202077 89.009488 
L 547.578468 80.339561 
L 548.842825 71.669635 
L 550.494787 62.999708 
L 551.518862 60.122841 
L 554.675463 54.329781 
L 558.245535 49.728358 
L 562.740155 45.659854 
L 564.972209 44.339936 
L 571.698882 42.210742 
L 578.425556 40.581128 
L 585.152229 40.096003 
L 591.878903 39.647805 
L 598.605576 40.096003 
L 605.33225 40.581128 
L 612.058923 42.210742 
L 618.785597 44.339936 
L 621.017651 45.659854 
L 625.51227 49.728358 
L 629.082343 54.329781 
L 632.238944 60.122841 
L 633.263019 62.999708 
L 634.914981 71.669635 
L 636.179338 80.339561 
L 636.555728 89.009488 
L 636.903468 97.679415 
L 636.555728 106.349342 
L 636.179338 115.019269 
L 634.914981 123.689196 
L 633.263019 132.359123 
L 632.238944 135.23599 
L 629.082343 141.02905 
L 625.51227 145.630472 
L 621.017651 149.698977 
L 618.785597 151.018894 
L 612.058923 153.148088 
L 605.33225 154.777702 
L 598.605576 155.262828 
L 591.878903 155.711025 
L 585.152229 155.262828 
L 578.425556 154.777702 
L 571.698882 153.148088 
L 564.972209 151.018894 
z
" clip-path="url(#pd8aa0fd611)" style="fill: #ecd3c5"/>
    <path d="M 457.345433 289.737725 
L 464.072106 291.866918 
L 470.79878 293.496533 
L 477.525453 293.981658 
L 484.252127 294.429856 
L 490.9788 293.981658 
L 497.705474 293.496533 
L 504.432147 291.866918 
L 511.158821 289.737725 
L 513.390875 288.417807 
L 517.885494 284.349303 
L 521.455567 279.74788 
L 524.612168 273.95482 
L 525.636243 271.077953 
L 527.288205 262.408026 
L 528.552562 253.7381 
L 528.928953 245.068173 
L 529.276692 236.398246 
L 528.928953 227.728319 
L 528.552562 219.058392 
L 527.288205 210.388465 
L 525.636243 201.718538 
L 524.612168 198.841671 
L 521.455567 193.048611 
L 517.885494 188.447189 
L 513.390875 184.378684 
L 511.158821 183.058766 
L 504.432147 180.929573 
L 497.705474 179.299959 
L 490.9788 178.814833 
L 484.252127 178.366636 
L 477.525453 178.814833 
L 470.79878 179.299959 
L 464.072106 180.929573 
L 457.345433 183.058766 
L 455.113379 184.378684 
L 450.61876 188.447189 
L 447.048687 193.048611 
L 443.892086 198.841671 
L 442.868011 201.718538 
L 441.216049 210.388465 
L 439.951692 219.058392 
L 439.575301 227.728319 
L 439.227562 236.398246 
L 439.575301 245.068173 
L 439.951692 253.7381 
L 441.216049 262.408026 
L 442.868011 271.077953 
L 443.892086 273.95482 
L 447.048687 279.74788 
L 450.61876 284.349303 
L 455.113379 288.417807 
z
M 470.409544 279.74788 
L 464.072106 276.101063 
L 457.345433 271.077953 
L 457.345433 271.077953 
L 453.448189 262.408026 
L 450.61876 254.239781 
L 450.465367 253.7381 
L 449.577401 245.068173 
L 448.757027 236.398246 
L 449.577401 227.728319 
L 450.465367 219.058392 
L 450.61876 218.55671 
L 453.448189 210.388465 
L 457.345433 201.718538 
L 457.345433 201.718538 
L 464.072106 196.695428 
L 470.409544 193.048611 
L 470.79878 192.850906 
L 477.525453 191.706417 
L 484.252127 190.649047 
L 490.9788 191.706417 
L 497.705474 192.850906 
L 498.09471 193.048611 
L 504.432147 196.695428 
L 511.158821 201.718538 
L 511.158821 201.718538 
L 515.056065 210.388465 
L 517.885494 218.55671 
L 518.038887 219.058392 
L 518.926853 227.728319 
L 519.747227 236.398246 
L 518.926853 245.068173 
L 518.038887 253.7381 
L 517.885494 254.239781 
L 515.056065 262.408026 
L 511.158821 271.077953 
L 511.158821 271.077953 
L 504.432147 276.101063 
L 498.09471 279.74788 
L 497.705474 279.945586 
L 490.9788 281.090074 
L 484.252127 282.147444 
L 477.525453 281.090074 
L 470.79878 279.945586 
z
M 564.972209 151.018894 
L 571.698882 153.148088 
L 578.425556 154.777702 
L 585.152229 155.262828 
L 591.878903 155.711025 
L 598.605576 155.262828 
L 605.33225 154.777702 
L 612.058923 153.148088 
L 618.785597 151.018894 
L 621.017651 149.698977 
L 625.51227 145.630472 
L 629.082343 141.02905 
L 632.238944 135.23599 
L 633.263019 132.359123 
L 634.914981 123.689196 
L 636.179338 115.019269 
L 636.555728 106.349342 
L 636.903468 97.679415 
L 636.555728 89.009488 
L 636.179338 80.339561 
L 634.914981 71.669635 
L 633.263019 62.999708 
L 632.238944 60.122841 
L 629.082343 54.329781 
L 625.51227 49.728358 
L 621.017651 45.659854 
L 618.785597 44.339936 
L 612.058923 42.210742 
L 605.33225 40.581128 
L 598.605576 40.096003 
L 591.878903 39.647805 
L 585.152229 40.096003 
L 578.425556 40.581128 
L 571.698882 42.210742 
L 564.972209 44.339936 
L 562.740155 45.659854 
L 558.245535 49.728358 
L 554.675463 54.329781 
L 551.518862 60.122841 
L 550.494787 62.999708 
L 548.842825 71.669635 
L 547.578468 80.339561 
L 547.202077 89.009488 
L 546.854337 97.679415 
L 547.202077 106.349342 
L 547.578468 115.019269 
L 548.842825 123.689196 
L 550.494787 132.359123 
L 551.518862 135.23599 
L 554.675463 141.02905 
L 558.245535 145.630472 
L 562.740155 149.698977 
z
M 578.03632 141.02905 
L 571.698882 137.382233 
L 564.972209 132.359123 
L 564.972209 132.359123 
L 561.074965 123.689196 
L 558.245535 115.520951 
L 558.092143 115.019269 
L 557.204177 106.349342 
L 556.383803 97.679415 
L 557.204177 89.009488 
L 558.092143 80.339561 
L 558.245535 79.83788 
L 561.074965 71.669635 
L 564.972209 62.999708 
L 564.972209 62.999708 
L 571.698882 57.976597 
L 578.03632 54.329781 
L 578.425556 54.132075 
L 585.152229 52.987587 
L 591.878903 51.930217 
L 598.605576 52.987587 
L 605.33225 54.132075 
L 605.721486 54.329781 
L 612.058923 57.976597 
L 618.785597 62.999708 
L 618.785597 62.999708 
L 622.682841 71.669635 
L 625.51227 79.83788 
L 625.665662 80.339561 
L 626.553629 89.009488 
L 627.374003 97.679415 
L 626.553629 106.349342 
L 625.665662 115.019269 
L 625.51227 115.520951 
L 622.682841 123.689196 
L 618.785597 132.359123 
L 618.785597 132.359123 
L 612.058923 137.382233 
L 605.721486 141.02905 
L 605.33225 141.226755 
L 598.605576 142.371244 
L 591.878903 143.428614 
L 585.152229 142.371244 
L 578.425556 141.226755 
z
" clip-path="url(#pd8aa0fd611)" style="fill: #f7b093"/>
    <path d="M 470.79878 279.945586 
L 477.525453 281.090074 
L 484.252127 282.147444 
L 490.9788 281.090074 
L 497.705474 279.945586 
L 498.09471 279.74788 
L 504.432147 276.101063 
L 511.158821 271.077953 
L 511.158821 271.077953 
L 515.056065 262.408026 
L 517.885494 254.239781 
L 518.038887 253.7381 
L 518.926853 245.068173 
L 519.747227 236.398246 
L 518.926853 227.728319 
L 518.038887 219.058392 
L 517.885494 218.55671 
L 515.056065 210.388465 
L 511.158821 201.718538 
L 511.158821 201.718538 
L 504.432147 196.695428 
L 498.09471 193.048611 
L 497.705474 192.850906 
L 490.9788 191.706417 
L 484.252127 190.649047 
L 477.525453 191.706417 
L 470.79878 192.850906 
L 470.409544 193.048611 
L 464.072106 196.695428 
L 457.345433 201.718538 
L 457.345433 201.718538 
L 453.448189 210.388465 
L 450.61876 218.55671 
L 450.465367 219.058392 
L 449.577401 227.728319 
L 448.757027 236.398246 
L 449.577401 245.068173 
L 450.465367 253.7381 
L 450.61876 254.239781 
L 453.448189 262.408026 
L 457.345433 271.077953 
L 457.345433 271.077953 
L 464.072106 276.101063 
L 470.409544 279.74788 
z
M 470.538701 262.408026 
L 464.072106 254.073313 
L 463.842539 253.7381 
L 461.849136 245.068173 
L 460.007471 236.398246 
L 461.849136 227.728319 
L 463.842539 219.058392 
L 464.072106 218.723179 
L 470.538701 210.388465 
L 470.79878 210.092578 
L 477.525453 207.523305 
L 484.252127 205.149607 
L 490.9788 207.523305 
L 497.705474 210.092578 
L 497.965553 210.388465 
L 504.432147 218.723179 
L 504.661715 219.058392 
L 506.655118 227.728319 
L 508.496783 236.398246 
L 506.655118 245.068173 
L 504.661715 253.7381 
L 504.432147 254.073313 
L 497.965553 262.408026 
L 497.705474 262.703913 
L 490.9788 265.273186 
L 484.252127 267.646885 
L 477.525453 265.273186 
L 470.79878 262.703913 
z
M 578.425556 141.226755 
L 585.152229 142.371244 
L 591.878903 143.428614 
L 598.605576 142.371244 
L 605.33225 141.226755 
L 605.721486 141.02905 
L 612.058923 137.382233 
L 618.785597 132.359123 
L 618.785597 132.359123 
L 622.682841 123.689196 
L 625.51227 115.520951 
L 625.665662 115.019269 
L 626.553629 106.349342 
L 627.374003 97.679415 
L 626.553629 89.009488 
L 625.665662 80.339561 
L 625.51227 79.83788 
L 622.682841 71.669635 
L 618.785597 62.999708 
L 618.785597 62.999708 
L 612.058923 57.976597 
L 605.721486 54.329781 
L 605.33225 54.132075 
L 598.605576 52.987587 
L 591.878903 51.930217 
L 585.152229 52.987587 
L 578.425556 54.132075 
L 578.03632 54.329781 
L 571.698882 57.976597 
L 564.972209 62.999708 
L 564.972209 62.999708 
L 561.074965 71.669635 
L 558.245535 79.83788 
L 558.092143 80.339561 
L 557.204177 89.009488 
L 556.383803 97.679415 
L 557.204177 106.349342 
L 558.092143 115.019269 
L 558.245535 115.520951 
L 561.074965 123.689196 
L 564.972209 132.359123 
L 564.972209 132.359123 
L 571.698882 137.382233 
L 578.03632 141.02905 
z
M 578.165476 123.689196 
L 571.698882 115.354482 
L 571.469315 115.019269 
L 569.475911 106.349342 
L 567.634247 97.679415 
L 569.475911 89.009488 
L 571.469315 80.339561 
L 571.698882 80.004348 
L 578.165476 71.669635 
L 578.425556 71.373748 
L 585.152229 68.804475 
L 591.878903 66.430776 
L 598.605576 68.804475 
L 605.33225 71.373748 
L 605.592329 71.669635 
L 612.058923 80.004348 
L 612.288491 80.339561 
L 614.281894 89.009488 
L 616.123558 97.679415 
L 614.281894 106.349342 
L 612.288491 115.019269 
L 612.058923 115.354482 
L 605.592329 123.689196 
L 605.33225 123.985083 
L 598.605576 126.554356 
L 591.878903 128.928054 
L 585.152229 126.554356 
L 578.425556 123.985083 
z
" clip-path="url(#pd8aa0fd611)" style="fill: #eb7d62"/>
    <path d="M 470.79878 262.703913 
L 477.525453 265.273186 
L 484.252127 267.646885 
L 490.9788 265.273186 
L 497.705474 262.703913 
L 497.965553 262.408026 
L 504.432147 254.073313 
L 504.661715 253.7381 
L 506.655118 245.068173 
L 508.496783 236.398246 
L 506.655118 227.728319 
L 504.661715 219.058392 
L 504.432147 218.723179 
L 497.965553 210.388465 
L 497.705474 210.092578 
L 490.9788 207.523305 
L 484.252127 205.149607 
L 477.525453 207.523305 
L 470.79878 210.092578 
L 470.538701 210.388465 
L 464.072106 218.723179 
L 463.842539 219.058392 
L 461.849136 227.728319 
L 460.007471 236.398246 
L 461.849136 245.068173 
L 463.842539 253.7381 
L 464.072106 254.073313 
L 470.538701 262.408026 
z
M 578.425556 123.985083 
L 585.152229 126.554356 
L 591.878903 128.928054 
L 598.605576 126.554356 
L 605.33225 123.985083 
L 605.592329 123.689196 
L 612.058923 115.354482 
L 612.288491 115.019269 
L 614.281894 106.349342 
L 616.123558 97.679415 
L 614.281894 89.009488 
L 612.288491 80.339561 
L 612.058923 80.004348 
L 605.592329 71.669635 
L 605.33225 71.373748 
L 598.605576 68.804475 
L 591.878903 66.430776 
L 585.152229 68.804475 
L 578.425556 71.373748 
L 578.165476 71.669635 
L 571.698882 80.004348 
L 571.469315 80.339561 
L 569.475911 89.009488 
L 567.634247 97.679415 
L 569.475911 106.349342 
L 571.469315 115.019269 
L 571.698882 115.354482 
L 578.165476 123.689196 
z
" clip-path="url(#pd8aa0fd611)" style="fill: #ca3b37"/>
   </g>
   <g id="matplotlib.axis_3">
    <g id="xtick_6">
     <g id="line2d_12">
      <g>
       <use xlink:href="#mb15452b983" x="430.438739" y="317.757661" style="fill: #5a5758; stroke: #5a5758; stroke-width: 0.8"/>
      </g>
     </g>
     <g id="text_15">
      <!-- 0.0 -->
      <g style="fill: #5a5758" transform="translate(420.377531 335.178491) scale(0.14994 -0.14994)">
       <use xlink:href="#CMUBright-Roman-30"/>
       <use xlink:href="#CMUBright-Roman-2e" x="52.499985"/>
       <use xlink:href="#CMUBright-Roman-30" x="81.699982"/>
      </g>
     </g>
    </g>
    <g id="xtick_7">
     <g id="line2d_13">
      <g>
       <use xlink:href="#mb15452b983" x="484.252127" y="317.757661" style="fill: #5a5758; stroke: #5a5758; stroke-width: 0.8"/>
      </g>
     </g>
     <g id="text_16">
      <!-- 0.5 -->
      <g style="fill: #5a5758" transform="translate(474.190919 335.178491) scale(0.14994 -0.14994)">
       <use xlink:href="#CMUBright-Roman-30"/>
       <use xlink:href="#CMUBright-Roman-2e" x="52.499985"/>
       <use xlink:href="#CMUBright-Roman-35" x="81.699982"/>
      </g>
     </g>
    </g>
    <g id="xtick_8">
     <g id="line2d_14">
      <g>
       <use xlink:href="#mb15452b983" x="538.065515" y="317.757661" style="fill: #5a5758; stroke: #5a5758; stroke-width: 0.8"/>
      </g>
     </g>
     <g id="text_17">
      <!-- 1.0 -->
      <g style="fill: #5a5758" transform="translate(528.004307 335.178491) scale(0.14994 -0.14994)">
       <use xlink:href="#CMUBright-Roman-31"/>
       <use xlink:href="#CMUBright-Roman-2e" x="52.499985"/>
       <use xlink:href="#CMUBright-Roman-30" x="81.699982"/>
      </g>
     </g>
    </g>
    <g id="xtick_9">
     <g id="line2d_15">
      <g>
       <use xlink:href="#mb15452b983" x="591.878903" y="317.757661" style="fill: #5a5758; stroke: #5a5758; stroke-width: 0.8"/>
      </g>
     </g>
     <g id="text_18">
      <!-- 1.5 -->
      <g style="fill: #5a5758" transform="translate(581.817694 335.178491) scale(0.14994 -0.14994)">
       <use xlink:href="#CMUBright-Roman-31"/>
       <use xlink:href="#CMUBright-Roman-2e" x="52.499985"/>
       <use xlink:href="#CMUBright-Roman-35" x="81.699982"/>
      </g>
     </g>
    </g>
    <g id="xtick_10">
     <g id="line2d_16">
      <g>
       <use xlink:href="#mb15452b983" x="645.692291" y="317.757661" style="fill: #5a5758; stroke: #5a5758; stroke-width: 0.8"/>
      </g>
     </g>
     <g id="text_19">
      <!-- 2.0 -->
      <g style="fill: #5a5758" transform="translate(635.631082 335.178491) scale(0.14994 -0.14994)">
       <use xlink:href="#CMUBright-Roman-32"/>
       <use xlink:href="#CMUBright-Roman-2e" x="52.499985"/>
       <use xlink:href="#CMUBright-Roman-30" x="81.699982"/>
      </g>
     </g>
    </g>
    <g id="text_20">
     <!-- x -->
     <g style="fill: #5a5758" transform="translate(533.943796 358.192957) scale(0.18 -0.18)">
      <use xlink:href="#CMUBright-SemiBold-78"/>
     </g>
    </g>
   </g>
   <g id="matplotlib.axis_4">
    <g id="ytick_7">
     <g id="line2d_17">
      <g>
       <use xlink:href="#m2ced1a28ef" x="418.438739" y="305.757661" style="fill: #5a5758; stroke: #5a5758; stroke-width: 0.8"/>
      </g>
     </g>
     <g id="text_21">
      <!-- 0.0 -->
      <g style="fill: #5a5758" transform="translate(391.316323 310.968076) scale(0.14994 -0.14994)">
       <use xlink:href="#CMUBright-Roman-30"/>
       <use xlink:href="#CMUBright-Roman-2e" x="52.499985"/>
       <use xlink:href="#CMUBright-Roman-30" x="81.699982"/>
      </g>
     </g>
    </g>
    <g id="ytick_8">
     <g id="line2d_18">
      <g>
       <use xlink:href="#m2ced1a28ef" x="418.438739" y="250.270129" style="fill: #5a5758; stroke: #5a5758; stroke-width: 0.8"/>
      </g>
     </g>
     <g id="text_22">
      <!-- 0.2 -->
      <g style="fill: #5a5758" transform="translate(391.316323 255.480544) scale(0.14994 -0.14994)">
       <use xlink:href="#CMUBright-Roman-30"/>
       <use xlink:href="#CMUBright-Roman-2e" x="52.499985"/>
       <use xlink:href="#CMUBright-Roman-32" x="81.699982"/>
      </g>
     </g>
    </g>
    <g id="ytick_9">
     <g id="line2d_19">
      <g>
       <use xlink:href="#m2ced1a28ef" x="418.438739" y="194.782597" style="fill: #5a5758; stroke: #5a5758; stroke-width: 0.8"/>
      </g>
     </g>
     <g id="text_23">
      <!-- 0.4 -->
      <g style="fill: #5a5758" transform="translate(391.316323 199.993012) scale(0.14994 -0.14994)">
       <use xlink:href="#CMUBright-Roman-30"/>
       <use xlink:href="#CMUBright-Roman-2e" x="52.499985"/>
       <use xlink:href="#CMUBright-Roman-34" x="81.699982"/>
      </g>
     </g>
    </g>
    <g id="ytick_10">
     <g id="line2d_20">
      <g>
       <use xlink:href="#m2ced1a28ef" x="418.438739" y="139.295064" style="fill: #5a5758; stroke: #5a5758; stroke-width: 0.8"/>
      </g>
     </g>
     <g id="text_24">
      <!-- 0.6 -->
      <g style="fill: #5a5758" transform="translate(391.316323 144.505479) scale(0.14994 -0.14994)">
       <use xlink:href="#CMUBright-Roman-30"/>
       <use xlink:href="#CMUBright-Roman-2e" x="52.499985"/>
       <use xlink:href="#CMUBright-Roman-36" x="81.699982"/>
      </g>
     </g>
    </g>
    <g id="ytick_11">
     <g id="line2d_21">
      <g>
       <use xlink:href="#m2ced1a28ef" x="418.438739" y="83.807532" style="fill: #5a5758; stroke: #5a5758; stroke-width: 0.8"/>
      </g>
     </g>
     <g id="text_25">
      <!-- 0.8 -->
      <g style="fill: #5a5758" transform="translate(391.316323 89.017947) scale(0.14994 -0.14994)">
       <use xlink:href="#CMUBright-Roman-30"/>
       <use xlink:href="#CMUBright-Roman-2e" x="52.499985"/>
       <use xlink:href="#CMUBright-Roman-38" x="81.699982"/>
      </g>
     </g>
    </g>
    <g id="ytick_12">
     <g id="line2d_22">
      <g>
       <use xlink:href="#m2ced1a28ef" x="418.438739" y="28.32" style="fill: #5a5758; stroke: #5a5758; stroke-width: 0.8"/>
      </g>
     </g>
     <g id="text_26">
      <!-- 1.0 -->
      <g style="fill: #5a5758" transform="translate(391.316323 33.530415) scale(0.14994 -0.14994)">
       <use xlink:href="#CMUBright-Roman-31"/>
       <use xlink:href="#CMUBright-Roman-2e" x="52.499985"/>
       <use xlink:href="#CMUBright-Roman-30" x="81.699982"/>
      </g>
     </g>
    </g>
    <g id="text_27">
     <!-- y -->
     <g style="fill: #5a5758" transform="translate(380.166323 171.160549) rotate(-90) scale(0.18 -0.18)">
      <use xlink:href="#CMUBright-SemiBold-79"/>
     </g>
    </g>
   </g>
   <g id="patch_6">
    <path d="M 418.438739 305.757661 
L 418.438739 28.32 
" style="fill: none; stroke: #5a5758; stroke-width: 0.8; stroke-linejoin: miter; stroke-linecap: square"/>
   </g>
   <g id="patch_7">
    <path d="M 430.438739 317.757661 
L 645.692291 317.757661 
" style="fill: none; stroke: #5a5758; stroke-width: 0.8; stroke-linejoin: miter; stroke-linecap: square"/>
   </g>
   <g id="text_28">
    <!-- Prolonged state $N=32$ -->
    <g style="fill: #5a5758" transform="translate(431.361515 22.32) scale(0.216 -0.216)">
     <defs>
      <path id="CMUBright-Roman-50" d="M 627 0 
L 627 4448 
L 2150 4448 
Q 2739 4448 3155 4218 
Q 3475 4038 3654 3756 
Q 3834 3475 3834 3162 
Q 3834 2957 3741 2745 
Q 3648 2534 3462 2336 
Q 3277 2138 2937 2013 
Q 2598 1888 2163 1888 
L 1075 1888 
L 1075 0 
L 627 0 
z
M 1069 2221 
L 2080 2221 
Q 2477 2221 2758 2310 
Q 3040 2400 3171 2553 
Q 3302 2707 3356 2851 
Q 3411 2995 3411 3162 
Q 3411 3322 3356 3469 
Q 3302 3616 3168 3769 
Q 3034 3923 2755 4012 
Q 2477 4102 2080 4102 
L 1069 4102 
L 1069 2221 
z
" transform="scale(0.015625)"/>
      <path id="CMUBright-Roman-72" d="M 512 0 
L 512 3021 
L 896 3021 
L 896 2534 
L 902 2234 
Q 954 2362 1043 2490 
Q 1133 2618 1273 2755 
Q 1414 2893 1632 2979 
Q 1850 3066 2112 3072 
L 2112 2714 
Q 1907 2707 1708 2643 
Q 1510 2579 1324 2444 
Q 1139 2310 1027 2070 
Q 915 1830 915 1510 
L 915 0 
L 512 0 
z
" transform="scale(0.015625)"/>
      <path id="CMUBright-Roman-6f" d="M 256 1510 
Q 256 2182 675 2640 
Q 1094 3098 1677 3098 
Q 2272 3098 2681 2627 
Q 3091 2157 3091 1510 
Q 3091 838 2668 393 
Q 2246 -51 1677 -51 
Q 1088 -51 672 406 
Q 256 864 256 1510 
z
M 666 1587 
Q 666 1190 771 915 
Q 877 640 1046 512 
Q 1216 384 1369 333 
Q 1523 282 1677 282 
Q 1843 282 2006 342 
Q 2170 403 2330 537 
Q 2490 672 2586 937 
Q 2682 1203 2682 1568 
Q 2682 1914 2586 2163 
Q 2490 2413 2330 2541 
Q 2170 2669 2006 2723 
Q 1843 2778 1676 2778 
Q 1510 2778 1347 2723 
Q 1184 2669 1024 2544 
Q 864 2419 765 2172 
Q 666 1926 666 1587 
z
" transform="scale(0.015625)"/>
      <path id="CMUBright-Roman-67" d="M 294 1517 
Q 294 2176 675 2624 
Q 1056 3072 1555 3072 
Q 2074 3072 2381 2515 
L 2381 3072 
L 2784 3072 
L 2784 58 
Q 2784 -499 2461 -838 
Q 2138 -1178 1645 -1178 
Q 1056 -1178 461 -890 
L 461 -544 
Q 653 -640 771 -694 
Q 890 -749 1133 -803 
Q 1376 -858 1632 -858 
Q 1933 -858 2153 -627 
Q 2374 -397 2374 77 
L 2374 576 
L 2368 800 
Q 2266 538 2051 323 
Q 1837 109 1485 109 
Q 1005 109 649 515 
Q 294 922 294 1517 
z
M 710 1517 
Q 710 1050 1001 739 
Q 1293 429 1664 429 
Q 1862 429 2009 537 
Q 2157 646 2230 828 
Q 2304 1011 2339 1200 
Q 2374 1389 2374 1600 
L 2381 1600 
L 2381 2022 
Q 2381 2253 2214 2502 
Q 2048 2752 1741 2752 
Q 1331 2752 1020 2393 
Q 710 2035 710 1517 
z
" transform="scale(0.015625)"/>
      <path id="CMUBright-Roman-64" d="M 294 1510 
Q 294 2189 659 2630 
Q 1024 3072 1504 3072 
Q 2016 3072 2381 2624 
L 2381 4448 
L 2784 4448 
L 2784 0 
L 2374 0 
L 2374 269 
L 2368 467 
Q 2016 -51 1459 -51 
Q 966 -51 630 413 
Q 294 877 294 1510 
z
M 710 1510 
Q 710 1139 809 876 
Q 909 614 1065 492 
Q 1222 371 1369 320 
Q 1517 269 1664 269 
Q 2022 269 2259 582 
Q 2278 614 2304 652 
Q 2330 691 2339 707 
Q 2349 723 2358 752 
Q 2368 781 2371 816 
Q 2374 851 2374 902 
L 2374 2253 
Q 2374 2438 2179 2595 
Q 1984 2752 1722 2752 
Q 1619 2752 1504 2726 
Q 1389 2701 1241 2621 
Q 1094 2541 982 2413 
Q 870 2285 790 2048 
Q 710 1811 710 1510 
z
" transform="scale(0.015625)"/>
      <path id="CMUBright-Roman-33" d="M 282 653 
Q 282 666 285 685 
Q 288 704 304 774 
Q 320 845 339 941 
Q 557 640 861 464 
Q 1165 288 1341 256 
Q 1517 224 1683 224 
Q 2112 224 2368 486 
Q 2624 749 2624 1165 
Q 2624 1574 2381 1824 
Q 2138 2074 1773 2099 
L 1555 2106 
L 1114 2106 
L 1114 2426 
Q 1709 2470 1862 2528 
Q 2099 2618 2281 2838 
Q 2464 3059 2464 3360 
Q 2464 3642 2256 3811 
Q 2048 3981 1702 3981 
Q 973 3981 570 3258 
L 371 3539 
Q 845 4301 1702 4301 
Q 2202 4301 2544 4025 
Q 2886 3750 2886 3360 
Q 2886 3059 2704 2761 
Q 2522 2464 2106 2272 
Q 2579 2144 2825 1833 
Q 3072 1523 3072 1158 
Q 3072 666 2685 278 
Q 2298 -109 1690 -109 
Q 1402 -109 1126 -9 
Q 851 90 675 221 
Q 499 352 390 473 
Q 282 595 282 653 
z
" transform="scale(0.015625)"/>
     </defs>
     <use xlink:href="#CMUBright-Roman-50" transform="translate(0 0.5)"/>
     <use xlink:href="#CMUBright-Roman-72" transform="translate(65.799988 0.5)"/>
     <use xlink:href="#CMUBright-Roman-6f" transform="translate(100.399979 0.5)"/>
     <use xlink:href="#CMUBright-Roman-6c" transform="translate(152.899963 0.5)"/>
     <use xlink:href="#CMUBright-Roman-6f" transform="translate(175.399948 0.5)"/>
     <use xlink:href="#CMUBright-Roman-6e" transform="translate(227.899933 0.5)"/>
     <use xlink:href="#CMUBright-Roman-67" transform="translate(279.59993 0.5)"/>
     <use xlink:href="#CMUBright-Roman-65" transform="translate(331.299927 0.5)"/>
     <use xlink:href="#CMUBright-Roman-64" transform="translate(377.999924 0.5)"/>
     <use xlink:href="#CMUBright-Roman-20" transform="translate(429.699921 0.5)"/>
     <use xlink:href="#CMUBright-Roman-73" transform="translate(462.999908 0.5)"/>
     <use xlink:href="#CMUBright-Roman-74" transform="translate(503.199905 0.5)"/>
     <use xlink:href="#CMUBright-Roman-61" transform="translate(541.099899 0.5)"/>
     <use xlink:href="#CMUBright-Roman-74" transform="translate(590.299896 0.5)"/>
     <use xlink:href="#CMUBright-Roman-65" transform="translate(628.19989 0.5)"/>
     <use xlink:href="#CMUBright-Roman-20" transform="translate(674.899887 0.5)"/>
     <use xlink:href="#CMUBright-Roman-4e" transform="translate(708.199875 0.5)"/>
     <use xlink:href="#CMUBright-Roman-3d" transform="translate(798.482285 0.5)"/>
     <use xlink:href="#CMUBright-Roman-33" transform="translate(882.164703 0.5)"/>
     <use xlink:href="#CMUBright-Roman-32" transform="translate(934.664688 0.5)"/>
    </g>
   </g>
  </g>
  <g id="axes_3">
   <g id="patch_8">
    <path d="M 305.916416 305.757661 
L 319.7883 305.757661 
L 319.7883 28.32 
L 305.916416 28.32 
z
" style="fill: #ffffff"/>
   </g>
   <g id="QuadMesh_1">
    <path d="M 305.916416 305.757661 
L 319.7883 305.757661 
L 319.7883 271.077953 
L 305.916416 271.077953 
L 305.916416 305.757661 
" clip-path="url(#pa81a4decbc)" style="fill: #4e68d8"/>
    <path d="M 305.916416 271.077953 
L 319.7883 271.077953 
L 319.7883 236.398246 
L 305.916416 236.398246 
L 305.916416 271.077953 
" clip-path="url(#pa81a4decbc)" style="fill: #779af7"/>
    <path d="M 305.916416 236.398246 
L 319.7883 236.398246 
L 319.7883 201.718538 
L 305.916416 201.718538 
L 305.916416 236.398246 
" clip-path="url(#pa81a4decbc)" style="fill: #a3c2fe"/>
    <path d="M 305.916416 201.718538 
L 319.7883 201.718538 
L 319.7883 167.03883 
L 305.916416 167.03883 
L 305.916416 201.718538 
" clip-path="url(#pa81a4decbc)" style="fill: #ccd9ed"/>
    <path d="M 305.916416 167.03883 
L 319.7883 167.03883 
L 319.7883 132.359123 
L 305.916416 132.359123 
L 305.916416 167.03883 
" clip-path="url(#pa81a4decbc)" style="fill: #ecd3c5"/>
    <path d="M 305.916416 132.359123 
L 319.7883 132.359123 
L 319.7883 97.679415 
L 305.916416 97.679415 
L 305.916416 132.359123 
" clip-path="url(#pa81a4decbc)" style="fill: #f7b093"/>
    <path d="M 305.916416 97.679415 
L 319.7883 97.679415 
L 319.7883 62.999708 
L 305.916416 62.999708 
L 305.916416 97.679415 
" clip-path="url(#pa81a4decbc)" style="fill: #eb7d62"/>
    <path d="M 305.916416 62.999708 
L 319.7883 62.999708 
L 319.7883 28.32 
L 305.916416 28.32 
L 305.916416 62.999708 
" clip-path="url(#pa81a4decbc)" style="fill: #ca3b37"/>
   </g>
   <g id="matplotlib.axis_5"/>
   <g id="matplotlib.axis_6">
    <g id="ytick_13">
     <g id="line2d_23">
      <defs>
       <path id="md5a7c412d5" d="M 0 0 
L 3.5 0 
" style="stroke: #5a5758; stroke-width: 0.8"/>
      </defs>
      <g>
       <use xlink:href="#md5a7c412d5" x="319.7883" y="305.757661" style="fill: #5a5758; stroke: #5a5758; stroke-width: 0.8"/>
      </g>
     </g>
     <g id="text_29">
      <!-- -1.00 -->
      <g style="fill: #5a5758" transform="translate(326.7883 310.968076) scale(0.14994 -0.14994)">
       <defs>
        <path id="CMUBright-Roman-2d" d="M 70 1350 
L 70 1670 
L 1862 1670 
L 1862 1350 
L 70 1350 
z
" transform="scale(0.015625)"/>
       </defs>
       <use xlink:href="#CMUBright-Roman-2d"/>
       <use xlink:href="#CMUBright-Roman-31" x="34.999985"/>
       <use xlink:href="#CMUBright-Roman-2e" x="87.499969"/>
       <use xlink:href="#CMUBright-Roman-30" x="116.699966"/>
       <use xlink:href="#CMUBright-Roman-30" x="169.199951"/>
      </g>
     </g>
    </g>
    <g id="ytick_14">
     <g id="line2d_24">
      <g>
       <use xlink:href="#md5a7c412d5" x="319.7883" y="271.077953" style="fill: #5a5758; stroke: #5a5758; stroke-width: 0.8"/>
      </g>
     </g>
     <g id="text_30">
      <!-- -0.75 -->
      <g style="fill: #5a5758" transform="translate(326.7883 276.288368) scale(0.14994 -0.14994)">
       <defs>
        <path id="CMUBright-Roman-37" d="M 275 3840 
L 275 4192 
L 3072 4192 
L 3072 3853 
Q 2400 3149 1958 2147 
Q 1517 1146 1517 -51 
L 1088 -51 
Q 1088 1030 1523 2048 
Q 1958 3066 2797 3840 
L 275 3840 
z
" transform="scale(0.015625)"/>
       </defs>
       <use xlink:href="#CMUBright-Roman-2d"/>
       <use xlink:href="#CMUBright-Roman-30" x="34.999985"/>
       <use xlink:href="#CMUBright-Roman-2e" x="87.499969"/>
       <use xlink:href="#CMUBright-Roman-37" x="116.699966"/>
       <use xlink:href="#CMUBright-Roman-35" x="169.199951"/>
      </g>
     </g>
    </g>
    <g id="ytick_15">
     <g id="line2d_25">
      <g>
       <use xlink:href="#md5a7c412d5" x="319.7883" y="236.398246" style="fill: #5a5758; stroke: #5a5758; stroke-width: 0.8"/>
      </g>
     </g>
     <g id="text_31">
      <!-- -0.50 -->
      <g style="fill: #5a5758" transform="translate(326.7883 241.608661) scale(0.14994 -0.14994)">
       <use xlink:href="#CMUBright-Roman-2d"/>
       <use xlink:href="#CMUBright-Roman-30" x="34.999985"/>
       <use xlink:href="#CMUBright-Roman-2e" x="87.499969"/>
       <use xlink:href="#CMUBright-Roman-35" x="116.699966"/>
       <use xlink:href="#CMUBright-Roman-30" x="169.199951"/>
      </g>
     </g>
    </g>
    <g id="ytick_16">
     <g id="line2d_26">
      <g>
       <use xlink:href="#md5a7c412d5" x="319.7883" y="201.718538" style="fill: #5a5758; stroke: #5a5758; stroke-width: 0.8"/>
      </g>
     </g>
     <g id="text_32">
      <!-- -0.25 -->
      <g style="fill: #5a5758" transform="translate(326.7883 206.928953) scale(0.14994 -0.14994)">
       <use xlink:href="#CMUBright-Roman-2d"/>
       <use xlink:href="#CMUBright-Roman-30" x="34.999985"/>
       <use xlink:href="#CMUBright-Roman-2e" x="87.499969"/>
       <use xlink:href="#CMUBright-Roman-32" x="116.699966"/>
       <use xlink:href="#CMUBright-Roman-35" x="169.199951"/>
      </g>
     </g>
    </g>
    <g id="ytick_17">
     <g id="line2d_27">
      <g>
       <use xlink:href="#md5a7c412d5" x="319.7883" y="167.03883" style="fill: #5a5758; stroke: #5a5758; stroke-width: 0.8"/>
      </g>
     </g>
     <g id="text_33">
      <!-- 0.00 -->
      <g style="fill: #5a5758" transform="translate(326.7883 172.249245) scale(0.14994 -0.14994)">
       <use xlink:href="#CMUBright-Roman-30"/>
       <use xlink:href="#CMUBright-Roman-2e" x="52.499985"/>
       <use xlink:href="#CMUBright-Roman-30" x="81.699982"/>
       <use xlink:href="#CMUBright-Roman-30" x="134.199966"/>
      </g>
     </g>
    </g>
    <g id="ytick_18">
     <g id="line2d_28">
      <g>
       <use xlink:href="#md5a7c412d5" x="319.7883" y="132.359123" style="fill: #5a5758; stroke: #5a5758; stroke-width: 0.8"/>
      </g>
     </g>
     <g id="text_34">
      <!-- 0.25 -->
      <g style="fill: #5a5758" transform="translate(326.7883 137.569538) scale(0.14994 -0.14994)">
       <use xlink:href="#CMUBright-Roman-30"/>
       <use xlink:href="#CMUBright-Roman-2e" x="52.499985"/>
       <use xlink:href="#CMUBright-Roman-32" x="81.699982"/>
       <use xlink:href="#CMUBright-Roman-35" x="134.199966"/>
      </g>
     </g>
    </g>
    <g id="ytick_19">
     <g id="line2d_29">
      <g>
       <use xlink:href="#md5a7c412d5" x="319.7883" y="97.679415" style="fill: #5a5758; stroke: #5a5758; stroke-width: 0.8"/>
      </g>
     </g>
     <g id="text_35">
      <!-- 0.50 -->
      <g style="fill: #5a5758" transform="translate(326.7883 102.88983) scale(0.14994 -0.14994)">
       <use xlink:href="#CMUBright-Roman-30"/>
       <use xlink:href="#CMUBright-Roman-2e" x="52.499985"/>
       <use xlink:href="#CMUBright-Roman-35" x="81.699982"/>
       <use xlink:href="#CMUBright-Roman-30" x="134.199966"/>
      </g>
     </g>
    </g>
    <g id="ytick_20">
     <g id="line2d_30">
      <g>
       <use xlink:href="#md5a7c412d5" x="319.7883" y="62.999708" style="fill: #5a5758; stroke: #5a5758; stroke-width: 0.8"/>
      </g>
     </g>
     <g id="text_36">
      <!-- 0.75 -->
      <g style="fill: #5a5758" transform="translate(326.7883 68.210123) scale(0.14994 -0.14994)">
       <use xlink:href="#CMUBright-Roman-30"/>
       <use xlink:href="#CMUBright-Roman-2e" x="52.499985"/>
       <use xlink:href="#CMUBright-Roman-37" x="81.699982"/>
       <use xlink:href="#CMUBright-Roman-35" x="134.199966"/>
      </g>
     </g>
    </g>
    <g id="ytick_21">
     <g id="line2d_31">
      <g>
       <use xlink:href="#md5a7c412d5" x="319.7883" y="28.32" style="fill: #5a5758; stroke: #5a5758; stroke-width: 0.8"/>
      </g>
     </g>
     <g id="text_37">
      <!-- 1.00 -->
      <g style="fill: #5a5758" transform="translate(326.7883 33.530415) scale(0.14994 -0.14994)">
       <use xlink:href="#CMUBright-Roman-31"/>
       <use xlink:href="#CMUBright-Roman-2e" x="52.499985"/>
       <use xlink:href="#CMUBright-Roman-30" x="81.699982"/>
       <use xlink:href="#CMUBright-Roman-30" x="134.199966"/>
      </g>
     </g>
    </g>
   </g>
   <g id="LineCollection_1"/>
   <g id="patch_9">
    <path d="M 305.916416 305.757661 
L 312.852358 305.757661 
L 319.7883 305.757661 
L 319.7883 28.32 
L 312.852358 28.32 
L 305.916416 28.32 
L 305.916416 305.757661 
z
" style="fill: none; stroke: #5a5758; stroke-width: 0.8; stroke-linejoin: miter; stroke-linecap: square"/>
   </g>
  </g>
  <g id="axes_4">
   <g id="patch_10">
    <path d="M 666.516176 305.757661 
L 680.38806 305.757661 
L 680.38806 28.32 
L 666.516176 28.32 
z
" style="fill: #ffffff"/>
   </g>
   <g id="QuadMesh_2">
    <path d="M 666.516176 305.757661 
L 680.38806 305.757661 
L 680.38806 271.077953 
L 666.516176 271.077953 
L 666.516176 305.757661 
" clip-path="url(#p719120919b)" style="fill: #4e68d8"/>
    <path d="M 666.516176 271.077953 
L 680.38806 271.077953 
L 680.38806 236.398246 
L 666.516176 236.398246 
L 666.516176 271.077953 
" clip-path="url(#p719120919b)" style="fill: #779af7"/>
    <path d="M 666.516176 236.398246 
L 680.38806 236.398246 
L 680.38806 201.718538 
L 666.516176 201.718538 
L 666.516176 236.398246 
" clip-path="url(#p719120919b)" style="fill: #a3c2fe"/>
    <path d="M 666.516176 201.718538 
L 680.38806 201.718538 
L 680.38806 167.03883 
L 666.516176 167.03883 
L 666.516176 201.718538 
" clip-path="url(#p719120919b)" style="fill: #ccd9ed"/>
    <path d="M 666.516176 167.03883 
L 680.38806 167.03883 
L 680.38806 132.359123 
L 666.516176 132.359123 
L 666.516176 167.03883 
" clip-path="url(#p719120919b)" style="fill: #ecd3c5"/>
    <path d="M 666.516176 132.359123 
L 680.38806 132.359123 
L 680.38806 97.679415 
L 666.516176 97.679415 
L 666.516176 132.359123 
" clip-path="url(#p719120919b)" style="fill: #f7b093"/>
    <path d="M 666.516176 97.679415 
L 680.38806 97.679415 
L 680.38806 62.999708 
L 666.516176 62.999708 
L 666.516176 97.679415 
" clip-path="url(#p719120919b)" style="fill: #eb7d62"/>
    <path d="M 666.516176 62.999708 
L 680.38806 62.999708 
L 680.38806 28.32 
L 666.516176 28.32 
L 666.516176 62.999708 
" clip-path="url(#p719120919b)" style="fill: #ca3b37"/>
   </g>
   <g id="matplotlib.axis_7"/>
   <g id="matplotlib.axis_8">
    <g id="ytick_22">
     <g id="line2d_32">
      <g>
       <use xlink:href="#md5a7c412d5" x="680.38806" y="305.757661" style="fill: #5a5758; stroke: #5a5758; stroke-width: 0.8"/>
      </g>
     </g>
     <g id="text_38">
      <!-- -1.00 -->
      <g style="fill: #5a5758" transform="translate(687.38806 310.968076) scale(0.14994 -0.14994)">
       <use xlink:href="#CMUBright-Roman-2d"/>
       <use xlink:href="#CMUBright-Roman-31" x="34.999985"/>
       <use xlink:href="#CMUBright-Roman-2e" x="87.499969"/>
       <use xlink:href="#CMUBright-Roman-30" x="116.699966"/>
       <use xlink:href="#CMUBright-Roman-30" x="169.199951"/>
      </g>
     </g>
    </g>
    <g id="ytick_23">
     <g id="line2d_33">
      <g>
       <use xlink:href="#md5a7c412d5" x="680.38806" y="271.077953" style="fill: #5a5758; stroke: #5a5758; stroke-width: 0.8"/>
      </g>
     </g>
     <g id="text_39">
      <!-- -0.75 -->
      <g style="fill: #5a5758" transform="translate(687.38806 276.288368) scale(0.14994 -0.14994)">
       <use xlink:href="#CMUBright-Roman-2d"/>
       <use xlink:href="#CMUBright-Roman-30" x="34.999985"/>
       <use xlink:href="#CMUBright-Roman-2e" x="87.499969"/>
       <use xlink:href="#CMUBright-Roman-37" x="116.699966"/>
       <use xlink:href="#CMUBright-Roman-35" x="169.199951"/>
      </g>
     </g>
    </g>
    <g id="ytick_24">
     <g id="line2d_34">
      <g>
       <use xlink:href="#md5a7c412d5" x="680.38806" y="236.398246" style="fill: #5a5758; stroke: #5a5758; stroke-width: 0.8"/>
      </g>
     </g>
     <g id="text_40">
      <!-- -0.50 -->
      <g style="fill: #5a5758" transform="translate(687.38806 241.608661) scale(0.14994 -0.14994)">
       <use xlink:href="#CMUBright-Roman-2d"/>
       <use xlink:href="#CMUBright-Roman-30" x="34.999985"/>
       <use xlink:href="#CMUBright-Roman-2e" x="87.499969"/>
       <use xlink:href="#CMUBright-Roman-35" x="116.699966"/>
       <use xlink:href="#CMUBright-Roman-30" x="169.199951"/>
      </g>
     </g>
    </g>
    <g id="ytick_25">
     <g id="line2d_35">
      <g>
       <use xlink:href="#md5a7c412d5" x="680.38806" y="201.718538" style="fill: #5a5758; stroke: #5a5758; stroke-width: 0.8"/>
      </g>
     </g>
     <g id="text_41">
      <!-- -0.25 -->
      <g style="fill: #5a5758" transform="translate(687.38806 206.928953) scale(0.14994 -0.14994)">
       <use xlink:href="#CMUBright-Roman-2d"/>
       <use xlink:href="#CMUBright-Roman-30" x="34.999985"/>
       <use xlink:href="#CMUBright-Roman-2e" x="87.499969"/>
       <use xlink:href="#CMUBright-Roman-32" x="116.699966"/>
       <use xlink:href="#CMUBright-Roman-35" x="169.199951"/>
      </g>
     </g>
    </g>
    <g id="ytick_26">
     <g id="line2d_36">
      <g>
       <use xlink:href="#md5a7c412d5" x="680.38806" y="167.03883" style="fill: #5a5758; stroke: #5a5758; stroke-width: 0.8"/>
      </g>
     </g>
     <g id="text_42">
      <!-- 0.00 -->
      <g style="fill: #5a5758" transform="translate(687.38806 172.249245) scale(0.14994 -0.14994)">
       <use xlink:href="#CMUBright-Roman-30"/>
       <use xlink:href="#CMUBright-Roman-2e" x="52.499985"/>
       <use xlink:href="#CMUBright-Roman-30" x="81.699982"/>
       <use xlink:href="#CMUBright-Roman-30" x="134.199966"/>
      </g>
     </g>
    </g>
    <g id="ytick_27">
     <g id="line2d_37">
      <g>
       <use xlink:href="#md5a7c412d5" x="680.38806" y="132.359123" style="fill: #5a5758; stroke: #5a5758; stroke-width: 0.8"/>
      </g>
     </g>
     <g id="text_43">
      <!-- 0.25 -->
      <g style="fill: #5a5758" transform="translate(687.38806 137.569538) scale(0.14994 -0.14994)">
       <use xlink:href="#CMUBright-Roman-30"/>
       <use xlink:href="#CMUBright-Roman-2e" x="52.499985"/>
       <use xlink:href="#CMUBright-Roman-32" x="81.699982"/>
       <use xlink:href="#CMUBright-Roman-35" x="134.199966"/>
      </g>
     </g>
    </g>
    <g id="ytick_28">
     <g id="line2d_38">
      <g>
       <use xlink:href="#md5a7c412d5" x="680.38806" y="97.679415" style="fill: #5a5758; stroke: #5a5758; stroke-width: 0.8"/>
      </g>
     </g>
     <g id="text_44">
      <!-- 0.50 -->
      <g style="fill: #5a5758" transform="translate(687.38806 102.88983) scale(0.14994 -0.14994)">
       <use xlink:href="#CMUBright-Roman-30"/>
       <use xlink:href="#CMUBright-Roman-2e" x="52.499985"/>
       <use xlink:href="#CMUBright-Roman-35" x="81.699982"/>
       <use xlink:href="#CMUBright-Roman-30" x="134.199966"/>
      </g>
     </g>
    </g>
    <g id="ytick_29">
     <g id="line2d_39">
      <g>
       <use xlink:href="#md5a7c412d5" x="680.38806" y="62.999708" style="fill: #5a5758; stroke: #5a5758; stroke-width: 0.8"/>
      </g>
     </g>
     <g id="text_45">
      <!-- 0.75 -->
      <g style="fill: #5a5758" transform="translate(687.38806 68.210123) scale(0.14994 -0.14994)">
       <use xlink:href="#CMUBright-Roman-30"/>
       <use xlink:href="#CMUBright-Roman-2e" x="52.499985"/>
       <use xlink:href="#CMUBright-Roman-37" x="81.699982"/>
       <use xlink:href="#CMUBright-Roman-35" x="134.199966"/>
      </g>
     </g>
    </g>
    <g id="ytick_30">
     <g id="line2d_40">
      <g>
       <use xlink:href="#md5a7c412d5" x="680.38806" y="28.32" style="fill: #5a5758; stroke: #5a5758; stroke-width: 0.8"/>
      </g>
     </g>
     <g id="text_46">
      <!-- 1.00 -->
      <g style="fill: #5a5758" transform="translate(687.38806 33.530415) scale(0.14994 -0.14994)">
       <use xlink:href="#CMUBright-Roman-31"/>
       <use xlink:href="#CMUBright-Roman-2e" x="52.499985"/>
       <use xlink:href="#CMUBright-Roman-30" x="81.699982"/>
       <use xlink:href="#CMUBright-Roman-30" x="134.199966"/>
      </g>
     </g>
    </g>
   </g>
   <g id="LineCollection_2"/>
   <g id="patch_11">
    <path d="M 666.516176 305.757661 
L 673.452118 305.757661 
L 680.38806 305.757661 
L 680.38806 28.32 
L 673.452118 28.32 
L 666.516176 28.32 
L 666.516176 305.757661 
z
" style="fill: none; stroke: #5a5758; stroke-width: 0.8; stroke-linejoin: miter; stroke-linecap: square"/>
   </g>
  </g>
 </g>
 <defs>
  <clipPath id="p3e93154a3e">
   <rect x="69.838979" y="28.32" width="215.253552" height="277.437661"/>
  </clipPath>
  <clipPath id="pd8aa0fd611">
   <rect x="430.438739" y="28.32" width="215.253552" height="277.437661"/>
  </clipPath>
  <clipPath id="pa81a4decbc">
   <rect x="305.916416" y="28.32" width="13.871883" height="277.437661"/>
  </clipPath>
  <clipPath id="p719120919b">
   <rect x="666.516176" y="28.32" width="13.871883" height="277.437661"/>
  </clipPath>
 </defs>
</svg>