<?xml version="1.0" encoding="utf-8" standalone="no"?>
<!DOCTYPE svg PUBLIC "-//W3C//DTD SVG 1.1//EN"
  "http://www.w3.org/Graphics/SVG/1.1/DTD/svg11.dtd">
<svg xmlns:xlink="http://www.w3.org/1999/xlink" width="469.200644pt" height="353.99952pt" viewBox="0 0 469.200644 353.99952" xmlns="http://www.w3.org/2000/svg" version="1.1">
 <metadata>
  <rdf:RDF xmlns:dc="http://purl.org/dc/elements/1.1/" xmlns:cc="http://creativecommons.org/ns#" xmlns:rdf="http://www.w3.org/1999/02/22-rdf-syntax-ns#">
   <cc:Work>
    <dc:type rdf:resource="http://purl.org/dc/dcmitype/StillImage"/>
    <dc:date>2023-11-01T22:41:33.894851</dc:date>
    <dc:format>image/svg+xml</dc:format>
    <dc:creator>
     <cc:Agent>
      <dc:title>Matplotlib v3.8.1, https://matplotlib.org/</dc:title>
     </cc:Agent>
    </dc:creator>
   </cc:Work>
  </rdf:RDF>
 </metadata>
 <defs>
  <style type="text/css">*{stroke-linejoin: round; stroke-linecap: butt}</style>
 </defs>
 <g id="figure_1">
  <g id="patch_1">
   <path d="M 0 353.99952 
L 469.200644 353.99952 
L 469.200644 0 
L 0 0 
z
" style="fill: #ffffff"/>
  </g>
  <g id="axes_1">
   <g id="patch_2">
    <path d="M 85.87638 291.357661 
L 397.800264 291.357661 
L 397.800264 7.2 
L 85.87638 7.2 
z
" style="fill: #ffffff"/>
   </g>
   <g id="matplotlib.axis_1">
    <g id="xtick_1">
     <g id="line2d_1">
      <defs>
       <path id="m52d0be90b9" d="M 0 0 
L 0 3.5 
" style="stroke: #5a5758; stroke-width: 0.8"/>
      </defs>
      <g>
       <use xlink:href="#m52d0be90b9" x="85.87638" y="303.357661" style="fill: #5a5758; stroke: #5a5758; stroke-width: 0.8"/>
      </g>
     </g>
     <g id="text_1">
      <!-- 0 -->
      <g style="fill: #5a5758" transform="translate(81.940455 320.778491) scale(0.14994 -0.14994)">
       <defs>
        <path id="CMUBright-Roman-30" d="M 333 1984 
L 333 2086 
Q 333 2291 339 2438 
Q 346 2586 371 2832 
Q 397 3078 461 3267 
Q 525 3456 621 3657 
Q 717 3859 880 4006 
Q 1043 4154 1261 4230 
Q 1446 4301 1677 4301 
Q 1856 4301 2025 4256 
Q 2195 4211 2380 4070 
Q 2566 3930 2704 3709 
Q 2842 3488 2931 3104 
Q 3021 2720 3021 2214 
Q 3021 1683 2982 1347 
Q 2944 1011 2803 685 
Q 2618 250 2307 70 
Q 1997 -109 1677 -109 
Q 1498 -109 1328 -64 
Q 1158 -19 972 121 
Q 787 262 649 483 
Q 512 704 422 1091 
Q 333 1478 333 1984 
z
M 742 2413 
Q 742 2374 745 2326 
Q 749 2278 749 2272 
L 749 2150 
Q 749 1779 758 1548 
Q 768 1318 838 1014 
Q 909 710 1037 538 
Q 1286 218 1677 218 
Q 2086 218 2330 557 
Q 2451 730 2518 1037 
Q 2586 1344 2595 1568 
Q 2605 1792 2605 2163 
L 2605 2272 
Q 2605 2278 2608 2323 
Q 2611 2368 2611 2406 
Q 2611 3302 2336 3661 
Q 2099 3981 1677 3981 
Q 1242 3981 1005 3642 
Q 742 3264 742 2413 
z
" transform="scale(0.015625)"/>
       </defs>
       <use xlink:href="#CMUBright-Roman-30"/>
      </g>
     </g>
    </g>
    <g id="xtick_2">
     <g id="line2d_2">
      <g>
       <use xlink:href="#m52d0be90b9" x="397.800264" y="303.357661" style="fill: #5a5758; stroke: #5a5758; stroke-width: 0.8"/>
      </g>
     </g>
     <g id="text_2">
      <!-- 200 -->
      <g style="fill: #5a5758" transform="translate(385.992489 320.778491) scale(0.14994 -0.14994)">
       <defs>
        <path id="CMUBright-Roman-32" d="M 275 3226 
Q 595 4301 1587 4301 
L 1594 4301 
Q 2214 4294 2617 3923 
Q 3021 3552 3021 2989 
Q 3021 2746 2937 2531 
Q 2854 2317 2668 2115 
Q 2483 1914 2384 1821 
Q 2285 1728 2061 1549 
Q 1754 1299 1642 1203 
Q 1530 1107 698 358 
L 3021 358 
L 3021 0 
L 333 0 
L 333 339 
L 1683 1562 
Q 2144 1965 2368 2278 
Q 2592 2592 2592 2982 
Q 2592 3418 2278 3690 
Q 1965 3962 1498 3962 
Q 1069 3962 854 3693 
Q 640 3424 512 2938 
L 275 3226 
z
" transform="scale(0.015625)"/>
       </defs>
       <use xlink:href="#CMUBright-Roman-32"/>
       <use xlink:href="#CMUBright-Roman-30" x="52.499985"/>
       <use xlink:href="#CMUBright-Roman-30" x="104.999969"/>
      </g>
     </g>
    </g>
    <g id="text_3">
     <!-- Iterations -->
     <g style="fill: #5a5758" transform="translate(205.810197 343.792957) scale(0.18 -0.18)">
      <defs>
       <path id="CMUBright-SemiBold-49" d="M 512 0 
L 512 4448 
L 1184 4448 
L 1184 0 
L 512 0 
z
" transform="scale(0.015625)"/>
       <path id="CMUBright-SemiBold-74" d="M 122 2541 
L 122 3021 
L 646 3021 
L 646 3885 
L 1222 3885 
L 1222 3021 
L 2118 3021 
L 2118 2541 
L 1222 2541 
L 1222 1075 
Q 1222 448 1555 448 
Q 1805 448 2106 672 
L 2234 211 
Q 1754 -51 1197 -51 
Q 634 -51 634 1005 
L 634 2541 
L 122 2541 
z
" transform="scale(0.015625)"/>
       <path id="CMUBright-SemiBold-65" d="M 186 1530 
Q 186 2189 605 2646 
Q 1024 3104 1606 3104 
Q 1766 3104 1920 3069 
Q 2074 3034 2243 2931 
Q 2413 2829 2534 2669 
Q 2656 2509 2739 2233 
Q 2822 1958 2822 1600 
L 762 1600 
L 762 1536 
Q 762 1062 1040 745 
Q 1318 429 1709 429 
Q 2240 429 2739 794 
L 2784 275 
Q 2278 -51 1709 -51 
Q 1043 -51 614 419 
Q 186 890 186 1530 
z
M 838 1978 
L 2298 1978 
Q 2144 2618 1600 2618 
Q 1363 2618 1148 2448 
Q 934 2278 838 1978 
z
" transform="scale(0.015625)"/>
       <path id="CMUBright-SemiBold-72" d="M 416 0 
L 416 3021 
L 992 3021 
L 992 2368 
Q 1370 3059 2112 3072 
L 2112 2528 
Q 1939 2528 1769 2480 
Q 1600 2432 1421 2326 
Q 1242 2221 1130 2013 
Q 1018 1805 1018 1517 
L 1018 0 
L 416 0 
z
" transform="scale(0.015625)"/>
       <path id="CMUBright-SemiBold-61" d="M 250 851 
Q 250 1274 771 1498 
Q 1293 1722 2112 1747 
L 2112 1971 
Q 2112 2234 2048 2355 
Q 1894 2650 1568 2650 
Q 1242 2643 1037 2566 
Q 832 2490 557 2291 
L 512 2829 
Q 1043 3104 1581 3104 
Q 2061 3104 2377 2822 
Q 2694 2541 2726 2144 
L 2733 1933 
L 2733 0 
L 2131 0 
L 2131 230 
L 2125 410 
Q 1946 186 1648 67 
Q 1350 -51 1043 -51 
Q 666 -51 458 233 
Q 250 518 250 851 
z
M 845 864 
Q 845 672 1008 550 
Q 1171 429 1408 429 
Q 1626 429 1811 525 
Q 1997 621 2074 781 
Q 2112 864 2112 1043 
L 2112 1446 
Q 1523 1421 1184 1270 
Q 845 1120 845 864 
z
" transform="scale(0.015625)"/>
       <path id="CMUBright-SemiBold-69" d="M 414 3859 
L 414 4461 
L 1016 4461 
L 1016 3859 
L 414 3859 
z
M 416 0 
L 416 3021 
L 1018 3021 
L 1018 0 
L 416 0 
z
" transform="scale(0.015625)"/>
       <path id="CMUBright-SemiBold-6f" d="M 630 390 
Q 186 832 186 1504 
Q 186 2176 627 2637 
Q 1069 3098 1677 3098 
Q 2310 3098 2739 2618 
Q 3168 2138 3168 1498 
Q 3168 838 2726 393 
Q 2285 -51 1677 -51 
Q 1075 -51 630 390 
z
M 800 1594 
Q 800 998 1037 717 
Q 1267 448 1677 448 
Q 2061 448 2291 685 
Q 2554 954 2554 1606 
Q 2554 2150 2307 2384 
Q 2061 2618 1677 2618 
Q 800 2618 800 1594 
z
" transform="scale(0.015625)"/>
       <path id="CMUBright-SemiBold-6e" d="M 410 0 
L 410 3021 
L 998 3021 
L 998 2714 
L 1005 2496 
Q 1344 3072 1971 3072 
Q 2227 3072 2409 2995 
Q 2592 2918 2681 2816 
Q 2771 2714 2822 2547 
Q 2874 2381 2880 2275 
Q 2886 2170 2886 2016 
L 2886 0 
L 2272 0 
L 2272 2022 
Q 2272 2131 2259 2204 
Q 2246 2278 2192 2380 
Q 2138 2483 2000 2537 
Q 1862 2592 1651 2592 
Q 1453 2592 1315 2493 
Q 1178 2394 1120 2237 
Q 1062 2080 1043 1961 
Q 1024 1843 1024 1728 
L 1024 0 
L 410 0 
z
" transform="scale(0.015625)"/>
       <path id="CMUBright-SemiBold-73" d="M 186 250 
L 282 800 
Q 787 448 1318 448 
Q 1613 448 1737 569 
Q 1862 691 1862 838 
Q 1862 986 1753 1078 
Q 1645 1171 1517 1206 
Q 1389 1242 1190 1280 
Q 992 1318 902 1350 
Q 634 1440 429 1661 
Q 224 1882 224 2202 
Q 224 2349 269 2486 
Q 314 2624 422 2774 
Q 531 2925 764 3014 
Q 998 3104 1331 3104 
Q 1818 3104 2323 2886 
L 2227 2362 
Q 1747 2624 1261 2624 
Q 998 2624 889 2515 
Q 781 2406 781 2272 
Q 781 2170 857 2077 
Q 934 1984 1062 1939 
Q 1069 1939 1408 1865 
Q 1747 1792 1914 1702 
Q 2419 1421 2419 890 
Q 2419 525 2172 237 
Q 1926 -51 1325 -51 
Q 730 -51 186 250 
z
" transform="scale(0.015625)"/>
      </defs>
      <use xlink:href="#CMUBright-SemiBold-49"/>
      <use xlink:href="#CMUBright-SemiBold-74" x="26.699997"/>
      <use xlink:href="#CMUBright-SemiBold-65" x="64.599991"/>
      <use xlink:href="#CMUBright-SemiBold-72" x="111.699982"/>
      <use xlink:href="#CMUBright-SemiBold-61" x="146.299973"/>
      <use xlink:href="#CMUBright-SemiBold-74" x="195.499969"/>
      <use xlink:href="#CMUBright-SemiBold-69" x="233.399963"/>
      <use xlink:href="#CMUBright-SemiBold-6f" x="255.899948"/>
      <use xlink:href="#CMUBright-SemiBold-6e" x="308.399933"/>
      <use xlink:href="#CMUBright-SemiBold-73" x="360.09993"/>
     </g>
    </g>
   </g>
   <g id="matplotlib.axis_2">
    <g id="ytick_1">
     <g id="line2d_3">
      <defs>
       <path id="m369f257bcc" d="M 0 0 
L -3.5 0 
" style="stroke: #5a5758; stroke-width: 0.8"/>
      </defs>
      <g>
       <use xlink:href="#m369f257bcc" x="73.87638" y="268.445035" style="fill: #5a5758; stroke: #5a5758; stroke-width: 0.8"/>
      </g>
     </g>
     <g id="text_4">
      <!-- $\mathdefault{10^{-13}}$ -->
      <g style="fill: #5a5758" transform="translate(32.84 273.65545) scale(0.14994 -0.14994)">
       <defs>
        <path id="CMUBright-Roman-31" d="M 672 3558 
L 672 3885 
Q 1427 3885 1862 4301 
L 1965 4301 
L 1965 320 
L 2803 320 
L 2803 0 
L 710 0 
L 710 320 
L 1549 320 
L 1549 3744 
Q 1178 3558 672 3558 
z
" transform="scale(0.015625)"/>
        <path id="CMUBright-Roman-2212" d="M 378 1690 
Q 378 1856 602 1856 
L 3526 1856 
Q 3725 1850 3725 1690 
Q 3725 1530 3520 1530 
L 582 1530 
Q 378 1530 378 1690 
z
" transform="scale(0.015625)"/>
        <path id="CMUBright-Roman-33" d="M 282 653 
Q 282 666 285 685 
Q 288 704 304 774 
Q 320 845 339 941 
Q 557 640 861 464 
Q 1165 288 1341 256 
Q 1517 224 1683 224 
Q 2112 224 2368 486 
Q 2624 749 2624 1165 
Q 2624 1574 2381 1824 
Q 2138 2074 1773 2099 
L 1555 2106 
L 1114 2106 
L 1114 2426 
Q 1709 2470 1862 2528 
Q 2099 2618 2281 2838 
Q 2464 3059 2464 3360 
Q 2464 3642 2256 3811 
Q 2048 3981 1702 3981 
Q 973 3981 570 3258 
L 371 3539 
Q 845 4301 1702 4301 
Q 2202 4301 2544 4025 
Q 2886 3750 2886 3360 
Q 2886 3059 2704 2761 
Q 2522 2464 2106 2272 
Q 2579 2144 2825 1833 
Q 3072 1523 3072 1158 
Q 3072 666 2685 278 
Q 2298 -109 1690 -109 
Q 1402 -109 1126 -9 
Q 851 90 675 221 
Q 499 352 390 473 
Q 282 595 282 653 
z
" transform="scale(0.015625)"/>
       </defs>
       <use xlink:href="#CMUBright-Roman-31" transform="translate(0 0.915625)"/>
       <use xlink:href="#CMUBright-Roman-30" transform="translate(52.499985 0.915625)"/>
       <use xlink:href="#CMUBright-Roman-2212" transform="translate(105.826024 33.957813) scale(0.7)"/>
       <use xlink:href="#CMUBright-Roman-31" transform="translate(150.766022 33.957813) scale(0.7)"/>
       <use xlink:href="#CMUBright-Roman-33" transform="translate(187.516011 33.957813) scale(0.7)"/>
      </g>
     </g>
    </g>
    <g id="ytick_2">
     <g id="line2d_4">
      <g>
       <use xlink:href="#m369f257bcc" x="73.87638" y="233.662195" style="fill: #5a5758; stroke: #5a5758; stroke-width: 0.8"/>
      </g>
     </g>
     <g id="text_5">
      <!-- $\mathdefault{10^{-11}}$ -->
      <g style="fill: #5a5758" transform="translate(32.84 238.87261) scale(0.14994 -0.14994)">
       <use xlink:href="#CMUBright-Roman-31" transform="translate(0 0.915625)"/>
       <use xlink:href="#CMUBright-Roman-30" transform="translate(52.499985 0.915625)"/>
       <use xlink:href="#CMUBright-Roman-2212" transform="translate(105.826024 33.957813) scale(0.7)"/>
       <use xlink:href="#CMUBright-Roman-31" transform="translate(150.766022 33.957813) scale(0.7)"/>
       <use xlink:href="#CMUBright-Roman-31" transform="translate(187.516011 33.957813) scale(0.7)"/>
      </g>
     </g>
    </g>
    <g id="ytick_3">
     <g id="line2d_5">
      <g>
       <use xlink:href="#m369f257bcc" x="73.87638" y="198.879354" style="fill: #5a5758; stroke: #5a5758; stroke-width: 0.8"/>
      </g>
     </g>
     <g id="text_6">
      <!-- $\mathdefault{10^{-9}}$ -->
      <g style="fill: #5a5758" transform="translate(38.38778 204.089769) scale(0.14994 -0.14994)">
       <defs>
        <path id="CMUBright-Roman-39" d="M 346 2803 
Q 346 3443 768 3885 
Q 1158 4301 1696 4301 
Q 1875 4301 2038 4253 
Q 2202 4205 2384 4061 
Q 2566 3917 2700 3686 
Q 2835 3456 2921 3053 
Q 3008 2650 3008 2125 
Q 3008 1171 2537 531 
Q 2067 -109 1382 -109 
Q 909 -109 486 186 
L 653 480 
L 723 435 
Q 794 384 838 358 
Q 883 333 969 297 
Q 1056 262 1158 243 
Q 1261 224 1376 224 
Q 1690 224 1933 381 
Q 2176 538 2313 797 
Q 2451 1056 2518 1357 
Q 2586 1658 2586 1984 
L 2586 2074 
Q 2438 1754 2121 1530 
Q 1805 1306 1402 1306 
Q 973 1306 678 1709 
Q 346 2157 346 2803 
z
M 768 2656 
Q 768 2240 966 1936 
Q 1165 1632 1632 1632 
Q 2035 1632 2297 1936 
Q 2560 2240 2560 2656 
Q 2560 2752 2554 2803 
L 2566 2803 
Q 2522 3462 2272 3721 
Q 2022 3981 1696 3981 
Q 1242 3981 986 3648 
Q 768 3366 768 2822 
L 768 2656 
z
" transform="scale(0.015625)"/>
       </defs>
       <use xlink:href="#CMUBright-Roman-31" transform="translate(0 0.915625)"/>
       <use xlink:href="#CMUBright-Roman-30" transform="translate(52.499985 0.915625)"/>
       <use xlink:href="#CMUBright-Roman-2212" transform="translate(105.826024 33.957813) scale(0.7)"/>
       <use xlink:href="#CMUBright-Roman-39" transform="translate(150.766022 33.957813) scale(0.7)"/>
      </g>
     </g>
    </g>
    <g id="ytick_4">
     <g id="line2d_6">
      <g>
       <use xlink:href="#m369f257bcc" x="73.87638" y="164.096514" style="fill: #5a5758; stroke: #5a5758; stroke-width: 0.8"/>
      </g>
     </g>
     <g id="text_7">
      <!-- $\mathdefault{10^{-7}}$ -->
      <g style="fill: #5a5758" transform="translate(38.38778 169.306929) scale(0.14994 -0.14994)">
       <defs>
        <path id="CMUBright-Roman-37" d="M 275 3840 
L 275 4192 
L 3072 4192 
L 3072 3853 
Q 2400 3149 1958 2147 
Q 1517 1146 1517 -51 
L 1088 -51 
Q 1088 1030 1523 2048 
Q 1958 3066 2797 3840 
L 275 3840 
z
" transform="scale(0.015625)"/>
       </defs>
       <use xlink:href="#CMUBright-Roman-31" transform="translate(0 0.107813)"/>
       <use xlink:href="#CMUBright-Roman-30" transform="translate(52.499985 0.107813)"/>
       <use xlink:href="#CMUBright-Roman-2212" transform="translate(105.826024 33.15) scale(0.7)"/>
       <use xlink:href="#CMUBright-Roman-37" transform="translate(150.766022 33.15) scale(0.7)"/>
      </g>
     </g>
    </g>
    <g id="ytick_5">
     <g id="line2d_7">
      <g>
       <use xlink:href="#m369f257bcc" x="73.87638" y="129.313674" style="fill: #5a5758; stroke: #5a5758; stroke-width: 0.8"/>
      </g>
     </g>
     <g id="text_8">
      <!-- $\mathdefault{10^{-5}}$ -->
      <g style="fill: #5a5758" transform="translate(38.38778 134.524089) scale(0.14994 -0.14994)">
       <defs>
        <path id="CMUBright-Roman-35" d="M 301 518 
L 486 819 
Q 896 224 1581 224 
Q 1971 224 2268 473 
Q 2566 723 2566 1312 
Q 2566 1626 2489 1846 
Q 2413 2067 2285 2176 
Q 2157 2285 2032 2329 
Q 1907 2374 1773 2374 
Q 1210 2374 941 1901 
L 582 1901 
L 582 4192 
L 2797 4192 
L 2797 3853 
L 973 3853 
L 973 2381 
Q 1325 2701 1779 2701 
Q 2285 2701 2653 2291 
Q 3021 1882 3021 1306 
Q 3021 723 2601 307 
Q 2182 -109 1574 -109 
Q 813 -109 301 518 
z
" transform="scale(0.015625)"/>
       </defs>
       <use xlink:href="#CMUBright-Roman-31" transform="translate(0 0.107813)"/>
       <use xlink:href="#CMUBright-Roman-30" transform="translate(52.499985 0.107813)"/>
       <use xlink:href="#CMUBright-Roman-2212" transform="translate(105.826024 33.15) scale(0.7)"/>
       <use xlink:href="#CMUBright-Roman-35" transform="translate(150.766022 33.15) scale(0.7)"/>
      </g>
     </g>
    </g>
    <g id="ytick_6">
     <g id="line2d_8">
      <g>
       <use xlink:href="#m369f257bcc" x="73.87638" y="94.530833" style="fill: #5a5758; stroke: #5a5758; stroke-width: 0.8"/>
      </g>
     </g>
     <g id="text_9">
      <!-- $\mathdefault{10^{-3}}$ -->
      <g style="fill: #5a5758" transform="translate(38.38778 99.741248) scale(0.14994 -0.14994)">
       <use xlink:href="#CMUBright-Roman-31" transform="translate(0 0.915625)"/>
       <use xlink:href="#CMUBright-Roman-30" transform="translate(52.499985 0.915625)"/>
       <use xlink:href="#CMUBright-Roman-2212" transform="translate(105.826024 33.957813) scale(0.7)"/>
       <use xlink:href="#CMUBright-Roman-33" transform="translate(150.766022 33.957813) scale(0.7)"/>
      </g>
     </g>
    </g>
    <g id="ytick_7">
     <g id="line2d_9">
      <g>
       <use xlink:href="#m369f257bcc" x="73.87638" y="59.747993" style="fill: #5a5758; stroke: #5a5758; stroke-width: 0.8"/>
      </g>
     </g>
     <g id="text_10">
      <!-- $\mathdefault{10^{-1}}$ -->
      <g style="fill: #5a5758" transform="translate(38.38778 64.958408) scale(0.14994 -0.14994)">
       <use xlink:href="#CMUBright-Roman-31" transform="translate(0 0.915625)"/>
       <use xlink:href="#CMUBright-Roman-30" transform="translate(52.499985 0.915625)"/>
       <use xlink:href="#CMUBright-Roman-2212" transform="translate(105.826024 33.957813) scale(0.7)"/>
       <use xlink:href="#CMUBright-Roman-31" transform="translate(150.766022 33.957813) scale(0.7)"/>
      </g>
     </g>
    </g>
    <g id="ytick_8">
     <g id="line2d_10">
      <g>
       <use xlink:href="#m369f257bcc" x="73.87638" y="24.965153" style="fill: #5a5758; stroke: #5a5758; stroke-width: 0.8"/>
      </g>
     </g>
     <g id="text_11">
      <!-- $\mathdefault{10^{1}}$ -->
      <g style="fill: #5a5758" transform="translate(45.13508 30.175568) scale(0.14994 -0.14994)">
       <use xlink:href="#CMUBright-Roman-31" transform="translate(0 0.915625)"/>
       <use xlink:href="#CMUBright-Roman-30" transform="translate(52.499985 0.915625)"/>
       <use xlink:href="#CMUBright-Roman-31" transform="translate(105.826024 33.957813) scale(0.7)"/>
      </g>
     </g>
    </g>
    <g id="text_12">
     <!-- $||r||_1$ -->
     <g style="fill: #5a5758" transform="translate(20.7 166.55883) rotate(-90) scale(0.18 -0.18)">
      <defs>
       <path id="CMUBright-SemiBold-7c" d="M 774 -1203 
L 774 4582 
Q 774 4794 928 4794 
Q 1088 4794 1088 4576 
L 1088 -1203 
Q 1088 -1421 934 -1421 
Q 774 -1421 774 -1203 
z
" transform="scale(0.015625)"/>
       <path id="CMUBright-SemiBold-31" d="M 570 3398 
L 570 3885 
Q 1459 3885 1914 4301 
L 2067 4301 
L 2067 480 
L 2893 480 
L 2893 0 
L 608 0 
L 608 480 
L 1446 480 
L 1446 3533 
Q 1062 3398 570 3398 
z
" transform="scale(0.015625)"/>
      </defs>
      <use xlink:href="#CMUBright-SemiBold-7c" transform="translate(0 0.09375)"/>
      <use xlink:href="#CMUBright-SemiBold-7c" transform="translate(29.199997 0.09375)"/>
      <use xlink:href="#CMUBright-SemiBold-72" transform="translate(58.399994 0.09375)"/>
      <use xlink:href="#CMUBright-SemiBold-7c" transform="translate(92.999985 0.09375)"/>
      <use xlink:href="#CMUBright-SemiBold-7c" transform="translate(122.199982 0.09375)"/>
      <use xlink:href="#CMUBright-SemiBold-31" transform="translate(152.226033 -14.067188) scale(0.7)"/>
     </g>
    </g>
   </g>
   <g id="line2d_11">
    <path d="M 85.87638 20.894348 
L 87.435999 13.763778 
L 88.995619 13.264078 
L 90.555238 16.986949 
L 92.114858 26.793847 
L 93.674477 28.312309 
L 95.234097 24.746815 
L 96.793716 26.694256 
L 98.353335 32.848972 
L 99.912955 43.174367 
L 101.472574 37.269095 
L 103.032194 37.31565 
L 104.591813 41.39783 
L 106.151432 52.085828 
L 107.711052 51.725895 
L 109.270671 48.840266 
L 110.830291 51.144464 
L 112.38991 57.961505 
L 113.94953 68.916869 
L 115.509149 61.381561 
L 117.068768 61.677553 
L 118.628388 66.069074 
L 120.188007 77.980076 
L 121.747627 75.171258 
L 123.307246 72.863208 
L 124.866865 75.426375 
L 126.426485 82.551661 
L 127.986104 90.7764 
L 129.545724 84.99023 
L 131.105343 85.764567 
L 132.664963 90.521605 
L 134.224582 102.310844 
L 135.784201 98.653345 
L 137.343821 96.991153 
L 138.90344 99.911205 
L 142.022679 115.83174 
L 143.582298 109.159555 
L 145.141918 110.198002 
L 146.701537 115.330605 
L 148.261157 128.30186 
L 149.820776 122.315244 
L 151.380396 121.090094 
L 152.940015 124.271968 
L 154.499634 132.600922 
L 156.059254 137.517573 
L 157.618873 132.875899 
L 159.178493 134.307378 
L 160.738112 139.777664 
L 162.297732 151.47405 
L 163.857351 145.944999 
L 165.41697 145.254292 
L 166.97659 148.793804 
L 168.536209 158.153849 
L 170.095829 161.401739 
L 171.655448 157.067132 
L 173.215067 158.805607 
L 174.774687 164.754658 
L 176.334306 176.670867 
L 177.893926 169.769808 
L 179.453545 169.430988 
L 181.013165 173.23666 
L 182.572784 183.058786 
L 184.132403 184.080129 
L 185.692023 180.881543 
L 187.251642 182.943066 
L 188.811262 189.269213 
L 190.370881 199.643568 
L 191.9305 193.470777 
L 193.49012 193.602205 
L 195.049739 197.793959 
L 196.609359 209.085988 
L 198.168978 207.853219 
L 199.728598 205.109071 
L 201.288217 207.494675 
L 202.847836 214.453755 
L 204.407456 224.94212 
L 205.967075 217.422641 
L 207.526695 217.857467 
L 209.086314 222.334391 
L 210.645933 233.895018 
L 212.205553 231.012497 
L 213.765172 229.022292 
L 215.324792 231.693072 
L 218.444031 246.765753 
L 220.00365 241.190936 
L 221.563269 242.061295 
L 223.122889 246.949045 
L 224.682508 259.61598 
L 226.242128 254.822168 
L 227.801747 253.264853 
L 229.361367 256.289188 
L 230.920986 264.447546 
L 232.480605 271.590077 
L 234.040225 265.278056 
L 235.599844 266.390774 
L 237.159464 271.579788 
L 238.719083 283.137387 
L 240.278702 278.293612 
L 241.838322 276.97078 
L 243.397941 279.973298 
L 244.957561 286.43173 
L 246.51718 288.197776 
L 248.0768 286.721663 
L 249.636419 286.668349 
L 251.196038 288.768567 
L 254.315277 288.532727 
L 255.874897 289.734714 
L 262.113374 290.800163 
L 263.672994 290.486551 
L 265.232613 289.476646 
L 266.792233 290.575144 
L 269.911471 290.338709 
L 271.471091 291.188406 
L 273.03071 290.523159 
L 274.59033 291.215564 
L 276.149949 291.357661 
L 277.709568 290.576231 
L 279.269188 290.222692 
L 280.828807 290.40961 
L 282.388427 291.13321 
L 283.948046 291.311994 
L 285.507666 290.407484 
L 287.067285 289.93472 
L 288.626904 290.737722 
L 290.186524 290.554524 
L 291.746143 289.751262 
L 296.425001 289.93472 
L 297.984621 290.265338 
L 299.54424 290.467242 
L 301.10386 290.298791 
L 302.663479 290.011992 
L 305.782718 290.271599 
L 307.342337 289.879015 
L 308.901957 290.248667 
L 310.461576 290.275776 
L 312.021196 290.504833 
L 313.580815 290.12377 
L 315.140435 289.413018 
L 316.700054 290.612185 
L 318.259673 290.461888 
L 321.378912 289.484168 
L 322.938532 289.415814 
L 326.05777 290.361917 
L 327.61739 289.875052 
L 329.177009 290.526398 
L 330.736629 290.931169 
L 332.296248 290.473673 
L 333.855868 290.388376 
L 335.415487 289.693986 
L 336.975106 289.957719 
L 338.534726 289.739577 
L 340.094345 289.965735 
L 341.653965 289.384188 
L 343.213584 289.768822 
L 344.773203 289.060763 
L 346.332823 290.185444 
L 347.892442 290.863123 
L 349.452062 290.521001 
L 351.011681 290.676895 
L 352.571301 290.292507 
L 354.13092 289.614141 
L 355.690539 290.498376 
L 357.250159 290.329236 
L 358.809778 290.415992 
L 360.369398 291.002132 
L 361.929017 290.459747 
L 363.488636 290.144272 
L 365.048256 290.484403 
L 366.607875 290.544776 
L 368.167495 290.473673 
L 369.727114 290.223729 
L 371.286734 290.449051 
L 372.846353 290.541529 
L 374.405972 290.192672 
L 379.084831 290.032193 
L 380.64445 290.274732 
L 382.20407 290.292507 
L 383.763689 290.027137 
L 385.323308 289.957719 
L 386.882928 290.908419 
L 388.442547 289.653477 
L 390.002167 289.440088 
L 391.561786 289.857243 
L 394.681025 290.20922 
L 396.240644 289.335152 
L 396.240644 289.335152 
" style="fill: none; stroke: #e29400; stroke-width: 2; stroke-linecap: square"/>
   </g>
   <g id="line2d_12">
    <path d="M 85.87638 20.244885 
L 87.435999 12.448452 
L 88.995619 10.014851 
L 90.555238 9.826829 
L 92.114858 10.602995 
L 93.674477 11.943936 
L 95.234097 13.673671 
L 96.793716 15.702086 
L 98.353335 17.978 
L 101.472574 23.157227 
L 104.591813 28.995237 
L 107.711052 34.890253 
L 109.270671 37.217968 
L 110.830291 38.513784 
L 115.509149 39.975914 
L 137.343821 46.37857 
L 230.920986 73.40396 
L 396.240644 121.117776 
L 396.240644 121.117776 
" style="fill: none; stroke: #1e90ff; stroke-width: 2; stroke-linecap: square"/>
   </g>
   <g id="line2d_13">
    <path d="M 85.87638 19.969737 
L 87.435999 12.009246 
L 88.995619 9.139494 
L 90.555238 8.2355 
L 92.114858 8.030306 
L 93.674477 8.141387 
L 96.793716 8.76206 
L 103.032194 10.451536 
L 168.536209 29.000861 
L 182.572784 32.681695 
L 193.49012 35.327905 
L 202.847836 37.371652 
L 210.645933 38.872543 
L 218.444031 40.161521 
L 226.242128 41.228368 
L 234.040225 42.084835 
L 243.397941 42.887996 
L 263.672994 44.298242 
L 396.240644 53.291905 
L 396.240644 53.291905 
" style="fill: none; stroke: #e21a1a; stroke-width: 2; stroke-linecap: square"/>
   </g>
   <g id="line2d_14">
    <path d="M 85.87638 19.843174 
L 87.435999 11.841924 
L 88.995619 8.865994 
L 90.555238 7.793309 
L 92.114858 7.368082 
L 93.674477 7.219522 
L 96.793716 7.243079 
L 104.591813 7.708181 
L 396.240644 27.141149 
L 396.240644 27.141149 
" style="fill: none; stroke: #00a650; stroke-width: 2; stroke-linecap: square"/>
   </g>
   <g id="patch_3">
    <path d="M 73.87638 291.357661 
L 73.87638 7.2 
" style="fill: none; stroke: #5a5758; stroke-width: 0.8; stroke-linejoin: miter; stroke-linecap: square"/>
   </g>
   <g id="patch_4">
    <path d="M 85.87638 303.357661 
L 397.800264 303.357661 
" style="fill: none; stroke: #5a5758; stroke-width: 0.8; stroke-linejoin: miter; stroke-linecap: square"/>
   </g>
   <g id="text_13">
    <!-- $N=16$ -->
    <g style="fill: #e29400" transform="translate(402.240644 294.08687) scale(0.18 -0.18)">
     <defs>
      <path id="CMUBright-Roman-4e" d="M 640 0 
L 640 4448 
L 1267 4448 
L 3488 371 
L 3488 4448 
L 3891 4448 
L 3891 0 
L 3264 0 
L 1043 4077 
L 1043 0 
L 640 0 
z
" transform="scale(0.015625)"/>
      <path id="CMUBright-Roman-3d" d="M 378 1062 
Q 378 1229 576 1229 
L 3533 1229 
Q 3725 1222 3725 1062 
Q 3725 909 3514 909 
L 589 909 
Q 378 909 378 1062 
z
M 378 2304 
Q 378 2470 582 2470 
L 3533 2470 
Q 3725 2464 3725 2304 
Q 3725 2150 3514 2150 
L 589 2150 
Q 378 2150 378 2304 
z
" transform="scale(0.015625)"/>
      <path id="CMUBright-Roman-36" d="M 346 2061 
Q 346 3072 864 3686 
Q 1382 4301 2074 4301 
L 2086 4301 
Q 2426 4301 2797 4179 
L 2797 3846 
Q 2374 3981 2074 3981 
L 2061 3981 
Q 1478 3981 1123 3491 
Q 768 3002 768 2208 
Q 768 2195 771 2166 
Q 774 2138 774 2125 
Q 928 2445 1238 2665 
Q 1549 2886 1952 2886 
Q 2387 2886 2682 2483 
Q 3008 2029 3008 1408 
Q 3008 768 2618 326 
Q 2240 -109 1690 -109 
Q 1510 -109 1340 -57 
Q 1171 -6 985 141 
Q 800 288 662 521 
Q 525 755 435 1152 
Q 346 1549 346 2061 
z
M 794 1389 
Q 813 1171 854 1004 
Q 896 838 985 643 
Q 1075 448 1254 336 
Q 1434 224 1690 224 
Q 2138 224 2381 550 
Q 2515 736 2550 921 
Q 2586 1107 2586 1434 
Q 2586 1645 2573 1776 
Q 2560 1907 2480 2089 
Q 2400 2272 2253 2400 
Q 2054 2566 1728 2566 
Q 1325 2566 1062 2265 
Q 800 1965 800 1555 
Q 800 1440 806 1389 
L 794 1389 
z
" transform="scale(0.015625)"/>
     </defs>
     <use xlink:href="#CMUBright-Roman-4e" transform="translate(0 0.5)"/>
     <use xlink:href="#CMUBright-Roman-3d" transform="translate(90.28241 0.5)"/>
     <use xlink:href="#CMUBright-Roman-31" transform="translate(173.964828 0.5)"/>
     <use xlink:href="#CMUBright-Roman-36" transform="translate(226.464813 0.5)"/>
    </g>
   </g>
   <g id="text_14">
    <!-- $N=32$ -->
    <g style="fill: #1e90ff" transform="translate(402.240644 125.869495) scale(0.18 -0.18)">
     <use xlink:href="#CMUBright-Roman-4e" transform="translate(0 0.5)"/>
     <use xlink:href="#CMUBright-Roman-3d" transform="translate(90.28241 0.5)"/>
     <use xlink:href="#CMUBright-Roman-33" transform="translate(173.964828 0.5)"/>
     <use xlink:href="#CMUBright-Roman-32" transform="translate(226.464813 0.5)"/>
    </g>
   </g>
   <g id="text_15">
    <!-- $N=64$ -->
    <g style="fill: #e21a1a" transform="translate(402.240644 58.043624) scale(0.18 -0.18)">
     <defs>
      <path id="CMUBright-Roman-34" d="M 186 1158 
L 186 1504 
L 1952 4250 
L 2438 4250 
L 2438 1498 
L 3168 1498 
L 3168 1158 
L 2438 1158 
L 2438 0 
L 2035 0 
L 2035 1158 
L 186 1158 
z
M 602 1498 
L 2054 1498 
L 2054 3885 
Q 1971 3667 1606 3085 
L 602 1498 
z
" transform="scale(0.015625)"/>
     </defs>
     <use xlink:href="#CMUBright-Roman-4e" transform="translate(0 0.5)"/>
     <use xlink:href="#CMUBright-Roman-3d" transform="translate(90.28241 0.5)"/>
     <use xlink:href="#CMUBright-Roman-36" transform="translate(173.964828 0.5)"/>
     <use xlink:href="#CMUBright-Roman-34" transform="translate(226.464813 0.5)"/>
    </g>
   </g>
   <g id="text_16">
    <!-- $N=128$ -->
    <g style="fill: #00a650" transform="translate(402.240644 31.892868) scale(0.18 -0.18)">
     <defs>
      <path id="CMUBright-Roman-38" d="M 275 1158 
Q 275 1517 518 1817 
Q 762 2118 1248 2266 
Q 909 2349 640 2598 
Q 371 2848 371 3206 
Q 371 3642 745 3971 
Q 1120 4301 1677 4301 
Q 2221 4301 2601 3981 
Q 2982 3661 2982 3213 
Q 2982 2918 2787 2684 
Q 2592 2451 2285 2323 
L 2099 2266 
Q 2464 2176 2768 1885 
Q 3072 1594 3072 1158 
Q 3072 646 2665 268 
Q 2259 -109 1670 -109 
Q 1075 -109 675 275 
Q 275 659 275 1158 
z
M 698 1158 
Q 698 704 970 464 
Q 1242 224 1670 224 
Q 2118 224 2384 470 
Q 2650 717 2650 1165 
Q 2650 1619 2371 1862 
Q 2093 2106 1670 2106 
Q 1280 2106 989 1878 
Q 698 1651 698 1158 
z
M 755 3206 
Q 755 2886 982 2656 
Q 1210 2426 1670 2426 
Q 2093 2426 2342 2634 
Q 2592 2842 2592 3206 
Q 2592 3507 2387 3744 
Q 2182 3981 1683 3981 
Q 1171 3981 963 3744 
Q 755 3507 755 3206 
z
" transform="scale(0.015625)"/>
     </defs>
     <use xlink:href="#CMUBright-Roman-4e" transform="translate(0 0.5)"/>
     <use xlink:href="#CMUBright-Roman-3d" transform="translate(90.28241 0.5)"/>
     <use xlink:href="#CMUBright-Roman-31" transform="translate(173.964828 0.5)"/>
     <use xlink:href="#CMUBright-Roman-32" transform="translate(226.464813 0.5)"/>
     <use xlink:href="#CMUBright-Roman-38" transform="translate(278.964798 0.5)"/>
    </g>
   </g>
  </g>
 </g>
</svg>