<?xml version="1.0" encoding="utf-8" standalone="no"?>
<!DOCTYPE svg PUBLIC "-//W3C//DTD SVG 1.1//EN"
  "http://www.w3.org/Graphics/SVG/1.1/DTD/svg11.dtd">
<svg xmlns:xlink="http://www.w3.org/1999/xlink" width="355.52475pt" height="353.99952pt" viewBox="0 0 355.52475 353.99952" xmlns="http://www.w3.org/2000/svg" version="1.1">
 <metadata>
  <rdf:RDF xmlns:dc="http://purl.org/dc/elements/1.1/" xmlns:cc="http://creativecommons.org/ns#" xmlns:rdf="http://www.w3.org/1999/02/22-rdf-syntax-ns#">
   <cc:Work>
    <dc:type rdf:resource="http://purl.org/dc/dcmitype/StillImage"/>
    <dc:date>2023-10-04T02:29:39.048646</dc:date>
    <dc:format>image/svg+xml</dc:format>
    <dc:creator>
     <cc:Agent>
      <dc:title>Matplotlib v3.8.0, https://matplotlib.org/</dc:title>
     </cc:Agent>
    </dc:creator>
   </cc:Work>
  </rdf:RDF>
 </metadata>
 <defs>
  <style type="text/css">*{stroke-linejoin: round; stroke-linecap: butt}</style>
 </defs>
 <g id="figure_1">
  <g id="patch_1">
   <path d="M 0 353.99952 
L 355.52475 353.99952 
L 355.52475 0 
L 0 0 
z
" style="fill: #ffffff"/>
  </g>
  <g id="axes_1">
   <g id="patch_2">
    <path d="M 30.353388 343.29952 
L 325.171362 343.29952 
L 325.171362 48.481547 
L 30.353388 48.481547 
z
" style="fill: #ffffff"/>
   </g>
   <g id="matplotlib.axis_1">
    <g id="xtick_1">
     <g id="line2d_1">
      <defs>
       <path id="m95330461b2" d="M 0 0 
L 0 3.5 
" style="stroke: #5a5758; stroke-width: 0.8"/>
      </defs>
      <g>
       <use xlink:href="#m95330461b2" x="36.249748" y="343.29952" style="fill: #5a5758; stroke: #5a5758; stroke-width: 0.8"/>
      </g>
     </g>
     <g id="line2d_2">
      <defs>
       <path id="m8f9cf3c874" d="M 0 0 
L 0 -3.5 
" style="stroke: #5a5758; stroke-width: 0.8"/>
      </defs>
      <g>
       <use xlink:href="#m8f9cf3c874" x="36.249748" y="48.481547" style="fill: #5a5758; stroke: #5a5758; stroke-width: 0.8"/>
      </g>
     </g>
     <g id="text_1">
      <!-- 0 -->
      <g style="fill: #5a5758" transform="translate(32.313823 38.97708) scale(0.14994 -0.14994)">
       <defs>
        <path id="CMUBright-Roman-30" d="M 333 1984 
L 333 2086 
Q 333 2291 339 2438 
Q 346 2586 371 2832 
Q 397 3078 461 3267 
Q 525 3456 621 3657 
Q 717 3859 880 4006 
Q 1043 4154 1261 4230 
Q 1446 4301 1677 4301 
Q 1856 4301 2025 4256 
Q 2195 4211 2380 4070 
Q 2566 3930 2704 3709 
Q 2842 3488 2931 3104 
Q 3021 2720 3021 2214 
Q 3021 1683 2982 1347 
Q 2944 1011 2803 685 
Q 2618 250 2307 70 
Q 1997 -109 1677 -109 
Q 1498 -109 1328 -64 
Q 1158 -19 972 121 
Q 787 262 649 483 
Q 512 704 422 1091 
Q 333 1478 333 1984 
z
M 742 2413 
Q 742 2374 745 2326 
Q 749 2278 749 2272 
L 749 2150 
Q 749 1779 758 1548 
Q 768 1318 838 1014 
Q 909 710 1037 538 
Q 1286 218 1677 218 
Q 2086 218 2330 557 
Q 2451 730 2518 1037 
Q 2586 1344 2595 1568 
Q 2605 1792 2605 2163 
L 2605 2272 
Q 2605 2278 2608 2323 
Q 2611 2368 2611 2406 
Q 2611 3302 2336 3661 
Q 2099 3981 1677 3981 
Q 1242 3981 1005 3642 
Q 742 3264 742 2413 
z
" transform="scale(0.015625)"/>
       </defs>
       <use xlink:href="#CMUBright-Roman-30"/>
      </g>
     </g>
    </g>
    <g id="xtick_2">
     <g id="line2d_3">
      <g>
       <use xlink:href="#m95330461b2" x="95.213342" y="343.29952" style="fill: #5a5758; stroke: #5a5758; stroke-width: 0.8"/>
      </g>
     </g>
     <g id="line2d_4">
      <g>
       <use xlink:href="#m8f9cf3c874" x="95.213342" y="48.481547" style="fill: #5a5758; stroke: #5a5758; stroke-width: 0.8"/>
      </g>
     </g>
     <g id="text_2">
      <!-- 5 -->
      <g style="fill: #5a5758" transform="translate(91.277417 38.97708) scale(0.14994 -0.14994)">
       <defs>
        <path id="CMUBright-Roman-35" d="M 301 518 
L 486 819 
Q 896 224 1581 224 
Q 1971 224 2268 473 
Q 2566 723 2566 1312 
Q 2566 1626 2489 1846 
Q 2413 2067 2285 2176 
Q 2157 2285 2032 2329 
Q 1907 2374 1773 2374 
Q 1210 2374 941 1901 
L 582 1901 
L 582 4192 
L 2797 4192 
L 2797 3853 
L 973 3853 
L 973 2381 
Q 1325 2701 1779 2701 
Q 2285 2701 2653 2291 
Q 3021 1882 3021 1306 
Q 3021 723 2601 307 
Q 2182 -109 1574 -109 
Q 813 -109 301 518 
z
" transform="scale(0.015625)"/>
       </defs>
       <use xlink:href="#CMUBright-Roman-35"/>
      </g>
     </g>
    </g>
    <g id="xtick_3">
     <g id="line2d_5">
      <g>
       <use xlink:href="#m95330461b2" x="154.176937" y="343.29952" style="fill: #5a5758; stroke: #5a5758; stroke-width: 0.8"/>
      </g>
     </g>
     <g id="line2d_6">
      <g>
       <use xlink:href="#m8f9cf3c874" x="154.176937" y="48.481547" style="fill: #5a5758; stroke: #5a5758; stroke-width: 0.8"/>
      </g>
     </g>
     <g id="text_3">
      <!-- 10 -->
      <g style="fill: #5a5758" transform="translate(146.305087 38.97708) scale(0.14994 -0.14994)">
       <defs>
        <path id="CMUBright-Roman-31" d="M 672 3558 
L 672 3885 
Q 1427 3885 1862 4301 
L 1965 4301 
L 1965 320 
L 2803 320 
L 2803 0 
L 710 0 
L 710 320 
L 1549 320 
L 1549 3744 
Q 1178 3558 672 3558 
z
" transform="scale(0.015625)"/>
       </defs>
       <use xlink:href="#CMUBright-Roman-31"/>
       <use xlink:href="#CMUBright-Roman-30" x="52.499985"/>
      </g>
     </g>
    </g>
    <g id="xtick_4">
     <g id="line2d_7">
      <g>
       <use xlink:href="#m95330461b2" x="213.140532" y="343.29952" style="fill: #5a5758; stroke: #5a5758; stroke-width: 0.8"/>
      </g>
     </g>
     <g id="line2d_8">
      <g>
       <use xlink:href="#m8f9cf3c874" x="213.140532" y="48.481547" style="fill: #5a5758; stroke: #5a5758; stroke-width: 0.8"/>
      </g>
     </g>
     <g id="text_4">
      <!-- 15 -->
      <g style="fill: #5a5758" transform="translate(205.268682 38.97708) scale(0.14994 -0.14994)">
       <use xlink:href="#CMUBright-Roman-31"/>
       <use xlink:href="#CMUBright-Roman-35" x="52.499985"/>
      </g>
     </g>
    </g>
    <g id="xtick_5">
     <g id="line2d_9">
      <g>
       <use xlink:href="#m95330461b2" x="272.104126" y="343.29952" style="fill: #5a5758; stroke: #5a5758; stroke-width: 0.8"/>
      </g>
     </g>
     <g id="line2d_10">
      <g>
       <use xlink:href="#m8f9cf3c874" x="272.104126" y="48.481547" style="fill: #5a5758; stroke: #5a5758; stroke-width: 0.8"/>
      </g>
     </g>
     <g id="text_5">
      <!-- 20 -->
      <g style="fill: #5a5758" transform="translate(264.232276 38.97708) scale(0.14994 -0.14994)">
       <defs>
        <path id="CMUBright-Roman-32" d="M 275 3226 
Q 595 4301 1587 4301 
L 1594 4301 
Q 2214 4294 2617 3923 
Q 3021 3552 3021 2989 
Q 3021 2746 2937 2531 
Q 2854 2317 2668 2115 
Q 2483 1914 2384 1821 
Q 2285 1728 2061 1549 
Q 1754 1299 1642 1203 
Q 1530 1107 698 358 
L 3021 358 
L 3021 0 
L 333 0 
L 333 339 
L 1683 1562 
Q 2144 1965 2368 2278 
Q 2592 2592 2592 2982 
Q 2592 3418 2278 3690 
Q 1965 3962 1498 3962 
Q 1069 3962 854 3693 
Q 640 3424 512 2938 
L 275 3226 
z
" transform="scale(0.015625)"/>
       </defs>
       <use xlink:href="#CMUBright-Roman-32"/>
       <use xlink:href="#CMUBright-Roman-30" x="52.499985"/>
      </g>
     </g>
    </g>
   </g>
   <g id="matplotlib.axis_2">
    <g id="ytick_1">
     <g id="line2d_11">
      <defs>
       <path id="ma41cb669c0" d="M 0 0 
L -3.5 0 
" style="stroke: #5a5758; stroke-width: 0.8"/>
      </defs>
      <g>
       <use xlink:href="#ma41cb669c0" x="30.353388" y="54.377906" style="fill: #5a5758; stroke: #5a5758; stroke-width: 0.8"/>
      </g>
     </g>
     <g id="text_6">
      <!-- 0 -->
      <g style="fill: #5a5758" transform="translate(15.481538 59.588321) scale(0.14994 -0.14994)">
       <use xlink:href="#CMUBright-Roman-30"/>
      </g>
     </g>
    </g>
    <g id="ytick_2">
     <g id="line2d_12">
      <g>
       <use xlink:href="#ma41cb669c0" x="30.353388" y="113.341501" style="fill: #5a5758; stroke: #5a5758; stroke-width: 0.8"/>
      </g>
     </g>
     <g id="text_7">
      <!-- 5 -->
      <g style="fill: #5a5758" transform="translate(15.481538 118.551916) scale(0.14994 -0.14994)">
       <use xlink:href="#CMUBright-Roman-35"/>
      </g>
     </g>
    </g>
    <g id="ytick_3">
     <g id="line2d_13">
      <g>
       <use xlink:href="#ma41cb669c0" x="30.353388" y="172.305095" style="fill: #5a5758; stroke: #5a5758; stroke-width: 0.8"/>
      </g>
     </g>
     <g id="text_8">
      <!-- 10 -->
      <g style="fill: #5a5758" transform="translate(7.609688 177.51551) scale(0.14994 -0.14994)">
       <use xlink:href="#CMUBright-Roman-31"/>
       <use xlink:href="#CMUBright-Roman-30" x="52.499985"/>
      </g>
     </g>
    </g>
    <g id="ytick_4">
     <g id="line2d_14">
      <g>
       <use xlink:href="#ma41cb669c0" x="30.353388" y="231.26869" style="fill: #5a5758; stroke: #5a5758; stroke-width: 0.8"/>
      </g>
     </g>
     <g id="text_9">
      <!-- 15 -->
      <g style="fill: #5a5758" transform="translate(7.609688 236.479105) scale(0.14994 -0.14994)">
       <use xlink:href="#CMUBright-Roman-31"/>
       <use xlink:href="#CMUBright-Roman-35" x="52.499985"/>
      </g>
     </g>
    </g>
    <g id="ytick_5">
     <g id="line2d_15">
      <g>
       <use xlink:href="#ma41cb669c0" x="30.353388" y="290.232285" style="fill: #5a5758; stroke: #5a5758; stroke-width: 0.8"/>
      </g>
     </g>
     <g id="text_10">
      <!-- 20 -->
      <g style="fill: #5a5758" transform="translate(7.609688 295.4427) scale(0.14994 -0.14994)">
       <use xlink:href="#CMUBright-Roman-32"/>
       <use xlink:href="#CMUBright-Roman-30" x="52.499985"/>
      </g>
     </g>
    </g>
   </g>
   <g id="line2d_16">
    <defs>
     <path id="me805fb451b" d="M -5 5 
L 5 5 
L 5 -5 
L -5 -5 
z
" style="stroke: #ffffff; stroke-linejoin: miter"/>
    </defs>
    <g clip-path="url(#pb09cd81501)">
     <use xlink:href="#me805fb451b" x="36.249748" y="54.377906" style="fill: #e29400; stroke: #ffffff; stroke-linejoin: miter"/>
     <use xlink:href="#me805fb451b" x="48.042467" y="66.170625" style="fill: #e29400; stroke: #ffffff; stroke-linejoin: miter"/>
     <use xlink:href="#me805fb451b" x="59.835186" y="77.963344" style="fill: #e29400; stroke: #ffffff; stroke-linejoin: miter"/>
     <use xlink:href="#me805fb451b" x="71.627905" y="89.756063" style="fill: #e29400; stroke: #ffffff; stroke-linejoin: miter"/>
     <use xlink:href="#me805fb451b" x="83.420624" y="101.548782" style="fill: #e29400; stroke: #ffffff; stroke-linejoin: miter"/>
     <use xlink:href="#me805fb451b" x="95.213342" y="113.341501" style="fill: #e29400; stroke: #ffffff; stroke-linejoin: miter"/>
     <use xlink:href="#me805fb451b" x="36.249748" y="125.13422" style="fill: #e29400; stroke: #ffffff; stroke-linejoin: miter"/>
     <use xlink:href="#me805fb451b" x="59.835186" y="125.13422" style="fill: #e29400; stroke: #ffffff; stroke-linejoin: miter"/>
     <use xlink:href="#me805fb451b" x="107.006061" y="125.13422" style="fill: #e29400; stroke: #ffffff; stroke-linejoin: miter"/>
     <use xlink:href="#me805fb451b" x="154.176937" y="125.13422" style="fill: #e29400; stroke: #ffffff; stroke-linejoin: miter"/>
     <use xlink:href="#me805fb451b" x="177.762375" y="125.13422" style="fill: #e29400; stroke: #ffffff; stroke-linejoin: miter"/>
     <use xlink:href="#me805fb451b" x="48.042467" y="136.926939" style="fill: #e29400; stroke: #ffffff; stroke-linejoin: miter"/>
     <use xlink:href="#me805fb451b" x="71.627905" y="136.926939" style="fill: #e29400; stroke: #ffffff; stroke-linejoin: miter"/>
     <use xlink:href="#me805fb451b" x="118.79878" y="136.926939" style="fill: #e29400; stroke: #ffffff; stroke-linejoin: miter"/>
     <use xlink:href="#me805fb451b" x="165.969656" y="136.926939" style="fill: #e29400; stroke: #ffffff; stroke-linejoin: miter"/>
     <use xlink:href="#me805fb451b" x="189.555094" y="136.926939" style="fill: #e29400; stroke: #ffffff; stroke-linejoin: miter"/>
     <use xlink:href="#me805fb451b" x="59.835186" y="148.719658" style="fill: #e29400; stroke: #ffffff; stroke-linejoin: miter"/>
     <use xlink:href="#me805fb451b" x="83.420624" y="148.719658" style="fill: #e29400; stroke: #ffffff; stroke-linejoin: miter"/>
     <use xlink:href="#me805fb451b" x="130.591499" y="148.719658" style="fill: #e29400; stroke: #ffffff; stroke-linejoin: miter"/>
     <use xlink:href="#me805fb451b" x="177.762375" y="148.719658" style="fill: #e29400; stroke: #ffffff; stroke-linejoin: miter"/>
     <use xlink:href="#me805fb451b" x="201.347813" y="148.719658" style="fill: #e29400; stroke: #ffffff; stroke-linejoin: miter"/>
     <use xlink:href="#me805fb451b" x="142.384218" y="160.512376" style="fill: #e29400; stroke: #ffffff; stroke-linejoin: miter"/>
     <use xlink:href="#me805fb451b" x="154.176937" y="172.305095" style="fill: #e29400; stroke: #ffffff; stroke-linejoin: miter"/>
     <use xlink:href="#me805fb451b" x="95.213342" y="184.097814" style="fill: #e29400; stroke: #ffffff; stroke-linejoin: miter"/>
     <use xlink:href="#me805fb451b" x="118.79878" y="184.097814" style="fill: #e29400; stroke: #ffffff; stroke-linejoin: miter"/>
     <use xlink:href="#me805fb451b" x="165.969656" y="184.097814" style="fill: #e29400; stroke: #ffffff; stroke-linejoin: miter"/>
     <use xlink:href="#me805fb451b" x="213.140532" y="184.097814" style="fill: #e29400; stroke: #ffffff; stroke-linejoin: miter"/>
     <use xlink:href="#me805fb451b" x="236.72597" y="184.097814" style="fill: #e29400; stroke: #ffffff; stroke-linejoin: miter"/>
     <use xlink:href="#me805fb451b" x="107.006061" y="195.890533" style="fill: #e29400; stroke: #ffffff; stroke-linejoin: miter"/>
     <use xlink:href="#me805fb451b" x="130.591499" y="195.890533" style="fill: #e29400; stroke: #ffffff; stroke-linejoin: miter"/>
     <use xlink:href="#me805fb451b" x="177.762375" y="195.890533" style="fill: #e29400; stroke: #ffffff; stroke-linejoin: miter"/>
     <use xlink:href="#me805fb451b" x="224.933251" y="195.890533" style="fill: #e29400; stroke: #ffffff; stroke-linejoin: miter"/>
     <use xlink:href="#me805fb451b" x="248.518689" y="195.890533" style="fill: #e29400; stroke: #ffffff; stroke-linejoin: miter"/>
     <use xlink:href="#me805fb451b" x="118.79878" y="207.683252" style="fill: #e29400; stroke: #ffffff; stroke-linejoin: miter"/>
     <use xlink:href="#me805fb451b" x="142.384218" y="207.683252" style="fill: #e29400; stroke: #ffffff; stroke-linejoin: miter"/>
     <use xlink:href="#me805fb451b" x="189.555094" y="207.683252" style="fill: #e29400; stroke: #ffffff; stroke-linejoin: miter"/>
     <use xlink:href="#me805fb451b" x="236.72597" y="207.683252" style="fill: #e29400; stroke: #ffffff; stroke-linejoin: miter"/>
     <use xlink:href="#me805fb451b" x="260.311408" y="207.683252" style="fill: #e29400; stroke: #ffffff; stroke-linejoin: miter"/>
     <use xlink:href="#me805fb451b" x="201.347813" y="219.475971" style="fill: #e29400; stroke: #ffffff; stroke-linejoin: miter"/>
     <use xlink:href="#me805fb451b" x="213.140532" y="231.26869" style="fill: #e29400; stroke: #ffffff; stroke-linejoin: miter"/>
     <use xlink:href="#me805fb451b" x="154.176937" y="243.061409" style="fill: #e29400; stroke: #ffffff; stroke-linejoin: miter"/>
     <use xlink:href="#me805fb451b" x="177.762375" y="243.061409" style="fill: #e29400; stroke: #ffffff; stroke-linejoin: miter"/>
     <use xlink:href="#me805fb451b" x="224.933251" y="243.061409" style="fill: #e29400; stroke: #ffffff; stroke-linejoin: miter"/>
     <use xlink:href="#me805fb451b" x="272.104126" y="243.061409" style="fill: #e29400; stroke: #ffffff; stroke-linejoin: miter"/>
     <use xlink:href="#me805fb451b" x="295.689564" y="243.061409" style="fill: #e29400; stroke: #ffffff; stroke-linejoin: miter"/>
     <use xlink:href="#me805fb451b" x="165.969656" y="254.854128" style="fill: #e29400; stroke: #ffffff; stroke-linejoin: miter"/>
     <use xlink:href="#me805fb451b" x="189.555094" y="254.854128" style="fill: #e29400; stroke: #ffffff; stroke-linejoin: miter"/>
     <use xlink:href="#me805fb451b" x="236.72597" y="254.854128" style="fill: #e29400; stroke: #ffffff; stroke-linejoin: miter"/>
     <use xlink:href="#me805fb451b" x="283.896845" y="254.854128" style="fill: #e29400; stroke: #ffffff; stroke-linejoin: miter"/>
     <use xlink:href="#me805fb451b" x="307.482283" y="254.854128" style="fill: #e29400; stroke: #ffffff; stroke-linejoin: miter"/>
     <use xlink:href="#me805fb451b" x="177.762375" y="266.646847" style="fill: #e29400; stroke: #ffffff; stroke-linejoin: miter"/>
     <use xlink:href="#me805fb451b" x="201.347813" y="266.646847" style="fill: #e29400; stroke: #ffffff; stroke-linejoin: miter"/>
     <use xlink:href="#me805fb451b" x="248.518689" y="266.646847" style="fill: #e29400; stroke: #ffffff; stroke-linejoin: miter"/>
     <use xlink:href="#me805fb451b" x="295.689564" y="266.646847" style="fill: #e29400; stroke: #ffffff; stroke-linejoin: miter"/>
     <use xlink:href="#me805fb451b" x="319.275002" y="266.646847" style="fill: #e29400; stroke: #ffffff; stroke-linejoin: miter"/>
     <use xlink:href="#me805fb451b" x="260.311408" y="278.439566" style="fill: #e29400; stroke: #ffffff; stroke-linejoin: miter"/>
     <use xlink:href="#me805fb451b" x="272.104126" y="290.232285" style="fill: #e29400; stroke: #ffffff; stroke-linejoin: miter"/>
     <use xlink:href="#me805fb451b" x="283.896845" y="302.025004" style="fill: #e29400; stroke: #ffffff; stroke-linejoin: miter"/>
     <use xlink:href="#me805fb451b" x="295.689564" y="313.817723" style="fill: #e29400; stroke: #ffffff; stroke-linejoin: miter"/>
     <use xlink:href="#me805fb451b" x="307.482283" y="325.610442" style="fill: #e29400; stroke: #ffffff; stroke-linejoin: miter"/>
     <use xlink:href="#me805fb451b" x="319.275002" y="337.403161" style="fill: #e29400; stroke: #ffffff; stroke-linejoin: miter"/>
    </g>
   </g>
   <g id="patch_3">
    <path d="M 30.353388 343.29952 
L 30.353388 48.481547 
" style="fill: none; stroke: #5a5758; stroke-width: 0.8; stroke-linejoin: miter; stroke-linecap: square"/>
   </g>
   <g id="patch_4">
    <path d="M 30.353388 343.29952 
L 325.171362 343.29952 
" style="fill: none; stroke: #5a5758; stroke-width: 0.8; stroke-linejoin: miter; stroke-linecap: square"/>
   </g>
   <g id="text_11">
    <!-- Sparsity pattern of A matrix for N=4 -->
    <g style="fill: #5a5758" transform="translate(7.2 22.55625) scale(0.216 -0.216)">
     <defs>
      <path id="CMUBright-Roman-53" d="M 294 339 
L 371 781 
Q 1082 256 1843 256 
Q 2342 256 2643 531 
Q 2944 806 2944 1152 
Q 2944 1402 2781 1622 
Q 2618 1843 2323 1958 
Q 2176 2016 1769 2096 
Q 1363 2176 1059 2317 
Q 755 2458 557 2746 
Q 365 3014 365 3341 
Q 365 3808 781 4179 
Q 1197 4550 1882 4550 
Q 2515 4550 3110 4243 
L 3034 3802 
Q 2848 3930 2745 3990 
Q 2643 4051 2400 4124 
Q 2157 4198 1882 4198 
Q 1389 4198 1081 3958 
Q 774 3718 774 3392 
Q 774 3168 931 2973 
Q 1088 2778 1376 2669 
Q 1491 2630 1910 2534 
Q 2330 2438 2438 2394 
Q 2899 2221 3126 1885 
Q 3354 1549 3354 1197 
Q 3354 678 2925 284 
Q 2496 -109 1837 -109 
Q 1030 -109 294 339 
z
" transform="scale(0.015625)"/>
      <path id="CMUBright-Roman-70" d="M 512 -1069 
L 512 3021 
L 915 3021 
L 915 2586 
Q 1318 3072 1888 3072 
Q 2355 3072 2678 2621 
Q 3002 2170 3002 1523 
Q 3002 826 2621 387 
Q 2240 -51 1754 -51 
Q 1530 -51 1328 61 
Q 1126 173 1075 237 
Q 1024 301 928 422 
L 928 -1069 
L 512 -1069 
z
M 928 832 
Q 928 634 1110 451 
Q 1293 269 1555 269 
Q 1971 269 2281 630 
Q 2592 992 2592 1517 
Q 2592 2022 2304 2384 
Q 2016 2746 1619 2746 
Q 1286 2746 1056 2490 
Q 960 2368 944 2333 
Q 928 2298 928 2189 
L 928 832 
z
" transform="scale(0.015625)"/>
      <path id="CMUBright-Roman-61" d="M 352 736 
Q 352 896 435 1046 
Q 518 1197 707 1347 
Q 896 1498 1283 1590 
Q 1670 1683 2214 1696 
L 2214 1965 
Q 2214 2381 2042 2579 
Q 1856 2803 1568 2803 
Q 1331 2803 1107 2736 
Q 883 2669 809 2624 
Q 736 2579 557 2470 
L 525 2829 
Q 1043 3104 1574 3104 
Q 2054 3104 2326 2806 
Q 2598 2509 2624 2144 
L 2630 1926 
L 2630 0 
L 2227 0 
L 2227 442 
Q 1830 -51 1107 -51 
L 1062 -51 
Q 710 -51 531 205 
Q 352 461 352 736 
z
M 749 749 
Q 749 518 950 393 
Q 1152 269 1408 269 
Q 1523 269 1644 297 
Q 1766 326 1904 390 
Q 2042 454 2128 595 
Q 2214 736 2214 928 
L 2214 1498 
Q 1568 1491 1158 1286 
Q 749 1082 749 749 
z
" transform="scale(0.015625)"/>
      <path id="CMUBright-Roman-72" d="M 512 0 
L 512 3021 
L 896 3021 
L 896 2534 
L 902 2234 
Q 954 2362 1043 2490 
Q 1133 2618 1273 2755 
Q 1414 2893 1632 2979 
Q 1850 3066 2112 3072 
L 2112 2714 
Q 1907 2707 1708 2643 
Q 1510 2579 1324 2444 
Q 1139 2310 1027 2070 
Q 915 1830 915 1510 
L 915 0 
L 512 0 
z
" transform="scale(0.015625)"/>
      <path id="CMUBright-Roman-73" d="M 186 250 
L 250 621 
Q 787 282 1325 282 
Q 1715 282 1881 442 
Q 2048 602 2048 806 
Q 2048 998 1910 1120 
Q 1773 1242 1606 1299 
Q 1536 1318 1235 1372 
Q 934 1427 726 1523 
Q 518 1619 371 1818 
Q 224 2022 224 2253 
Q 224 2400 272 2531 
Q 320 2662 429 2800 
Q 538 2938 765 3021 
Q 992 3104 1312 3104 
L 1331 3104 
Q 1818 3104 2304 2886 
L 2240 2534 
Q 1747 2784 1267 2784 
Q 890 2784 742 2633 
Q 595 2483 595 2304 
Q 595 2163 697 2038 
Q 800 1914 998 1856 
Q 1037 1843 1344 1782 
Q 1651 1722 1760 1683 
Q 2029 1587 2224 1372 
Q 2419 1158 2419 845 
Q 2419 499 2172 224 
Q 1926 -51 1331 -51 
Q 736 -51 186 250 
z
" transform="scale(0.015625)"/>
      <path id="CMUBright-Roman-69" d="M 509 4019 
L 509 4422 
L 912 4422 
L 912 4019 
L 509 4019 
z
M 512 0 
L 512 3021 
L 915 3021 
L 915 0 
L 512 0 
z
" transform="scale(0.015625)"/>
      <path id="CMUBright-Roman-74" d="M 122 2701 
L 122 3021 
L 736 3021 
L 736 3885 
L 1126 3885 
L 1126 3021 
L 2118 3021 
L 2118 2701 
L 1126 2701 
L 1126 883 
Q 1126 282 1491 282 
Q 1568 282 1638 291 
Q 1709 301 1769 323 
Q 1830 346 1878 365 
Q 1926 384 1974 416 
Q 2022 448 2048 464 
Q 2074 480 2109 512 
Q 2144 544 2150 544 
L 2234 230 
Q 1779 -51 1261 -51 
Q 730 -51 730 838 
L 730 2701 
L 122 2701 
z
" transform="scale(0.015625)"/>
      <path id="CMUBright-Roman-79" d="M 90 3021 
L 506 3021 
L 1171 1370 
Q 1446 640 1498 416 
Q 1542 723 2432 3021 
L 2835 3021 
L 1574 -250 
Q 1504 -435 1443 -553 
Q 1382 -672 1276 -819 
Q 1171 -966 1020 -1043 
Q 870 -1120 685 -1120 
Q 454 -1120 186 -1075 
L 154 -717 
Q 448 -794 685 -794 
Q 787 -794 873 -749 
Q 960 -704 1008 -665 
Q 1056 -627 1120 -499 
Q 1184 -371 1200 -326 
Q 1216 -282 1286 -102 
Q 1312 -32 1312 6 
Q 1312 38 1274 128 
L 90 3021 
z
" transform="scale(0.015625)"/>
      <path id="CMUBright-Roman-20" transform="scale(0.015625)"/>
      <path id="CMUBright-Roman-65" d="M 269 1536 
Q 269 2163 646 2630 
Q 1024 3098 1587 3098 
Q 1786 3098 1968 3037 
Q 2150 2976 2342 2829 
Q 2534 2682 2652 2365 
Q 2771 2048 2771 1600 
L 653 1600 
L 653 1549 
Q 653 966 966 617 
Q 1280 269 1690 269 
Q 2234 269 2726 710 
L 2758 358 
Q 2266 -51 1690 -51 
Q 1101 -51 685 406 
Q 269 864 269 1536 
z
M 685 1856 
L 2426 1856 
Q 2381 2342 2134 2560 
Q 1888 2778 1587 2778 
Q 1261 2778 1008 2515 
Q 755 2253 685 1856 
z
" transform="scale(0.015625)"/>
      <path id="CMUBright-Roman-6e" d="M 512 0 
L 512 3021 
L 909 3021 
L 909 2400 
Q 1030 2682 1273 2877 
Q 1517 3072 1869 3072 
Q 2125 3072 2307 2992 
Q 2490 2912 2579 2809 
Q 2669 2707 2720 2540 
Q 2771 2374 2777 2272 
Q 2784 2170 2784 2016 
L 2784 0 
L 2374 0 
L 2374 1990 
Q 2374 2106 2371 2176 
Q 2368 2246 2329 2368 
Q 2291 2490 2220 2563 
Q 2150 2637 2006 2694 
Q 1862 2752 1658 2752 
Q 1370 2752 1149 2518 
Q 928 2285 928 1677 
L 928 0 
L 512 0 
z
" transform="scale(0.015625)"/>
      <path id="CMUBright-Roman-6f" d="M 256 1510 
Q 256 2182 675 2640 
Q 1094 3098 1677 3098 
Q 2272 3098 2681 2627 
Q 3091 2157 3091 1510 
Q 3091 838 2668 393 
Q 2246 -51 1677 -51 
Q 1088 -51 672 406 
Q 256 864 256 1510 
z
M 666 1587 
Q 666 1190 771 915 
Q 877 640 1046 512 
Q 1216 384 1369 333 
Q 1523 282 1677 282 
Q 1843 282 2006 342 
Q 2170 403 2330 537 
Q 2490 672 2586 937 
Q 2682 1203 2682 1568 
Q 2682 1914 2586 2163 
Q 2490 2413 2330 2541 
Q 2170 2669 2006 2723 
Q 1843 2778 1676 2778 
Q 1510 2778 1347 2723 
Q 1184 2669 1024 2544 
Q 864 2419 765 2172 
Q 666 1926 666 1587 
z
" transform="scale(0.015625)"/>
      <path id="CMUBright-Roman-66" d="M 179 2701 
L 179 3021 
L 723 3021 
L 723 3430 
Q 723 3597 729 3680 
Q 736 3763 819 3939 
Q 902 4115 1069 4256 
Q 1363 4499 1798 4499 
Q 2022 4499 2323 4448 
L 2323 4083 
Q 2029 4173 1779 4173 
Q 1523 4173 1321 4067 
Q 1120 3962 1120 3712 
L 1120 3021 
L 1920 3021 
L 1920 2701 
L 1133 2701 
L 1133 0 
L 723 0 
L 723 2701 
L 179 2701 
z
" transform="scale(0.015625)"/>
      <path id="CMUBright-Roman-41" d="M 186 0 
L 1914 4499 
L 2400 4499 
L 4128 0 
L 3661 0 
L 3142 1344 
L 1114 1344 
L 602 0 
L 186 0 
z
M 1248 1683 
L 3014 1683 
L 2234 3744 
L 2131 4032 
L 1248 1683 
z
" transform="scale(0.015625)"/>
      <path id="CMUBright-Roman-6d" d="M 512 0 
L 512 3021 
L 909 3021 
L 909 2400 
Q 1011 2650 1251 2861 
Q 1491 3072 1875 3072 
Q 2138 3072 2320 2998 
Q 2502 2925 2592 2797 
Q 2682 2669 2710 2595 
Q 2739 2522 2765 2413 
Q 2771 2394 2771 2387 
Q 2886 2650 3123 2861 
Q 3360 3072 3744 3072 
Q 4000 3072 4182 2992 
Q 4365 2912 4454 2813 
Q 4544 2714 4592 2544 
Q 4640 2374 4646 2272 
Q 4653 2170 4653 2016 
L 4653 0 
L 4243 0 
L 4243 1990 
Q 4243 2106 4236 2176 
Q 4230 2246 4192 2368 
Q 4154 2490 4083 2563 
Q 4013 2637 3869 2694 
Q 3725 2752 3520 2752 
Q 3174 2752 2982 2470 
Q 2790 2189 2790 1728 
L 2790 0 
L 2374 0 
L 2374 1990 
Q 2374 2106 2371 2176 
Q 2368 2246 2329 2368 
Q 2291 2490 2220 2563 
Q 2150 2637 2006 2694 
Q 1862 2752 1658 2752 
Q 1312 2752 1117 2470 
Q 922 2189 922 1728 
Q 922 1715 925 1702 
Q 928 1690 928 1677 
L 928 0 
L 512 0 
z
" transform="scale(0.015625)"/>
      <path id="CMUBright-Roman-78" d="M 0 0 
L 1261 1555 
L 1261 1562 
L 38 3021 
L 499 3021 
L 1446 1850 
L 2362 3021 
L 2816 3021 
L 1626 1555 
L 2931 0 
L 2470 0 
L 1446 1325 
L 1440 1325 
L 454 0 
L 0 0 
z
" transform="scale(0.015625)"/>
      <path id="CMUBright-Roman-4e" d="M 640 0 
L 640 4448 
L 1267 4448 
L 3488 371 
L 3488 4448 
L 3891 4448 
L 3891 0 
L 3264 0 
L 1043 4077 
L 1043 0 
L 640 0 
z
" transform="scale(0.015625)"/>
      <path id="CMUBright-Roman-3d" d="M 378 1062 
Q 378 1229 576 1229 
L 3533 1229 
Q 3725 1222 3725 1062 
Q 3725 909 3514 909 
L 589 909 
Q 378 909 378 1062 
z
M 378 2304 
Q 378 2470 582 2470 
L 3533 2470 
Q 3725 2464 3725 2304 
Q 3725 2150 3514 2150 
L 589 2150 
Q 378 2150 378 2304 
z
" transform="scale(0.015625)"/>
      <path id="CMUBright-Roman-34" d="M 186 1158 
L 186 1504 
L 1952 4250 
L 2438 4250 
L 2438 1498 
L 3168 1498 
L 3168 1158 
L 2438 1158 
L 2438 0 
L 2035 0 
L 2035 1158 
L 186 1158 
z
M 602 1498 
L 2054 1498 
L 2054 3885 
Q 1971 3667 1606 3085 
L 602 1498 
z
" transform="scale(0.015625)"/>
     </defs>
     <use xlink:href="#CMUBright-Roman-53"/>
     <use xlink:href="#CMUBright-Roman-70" x="58.299988"/>
     <use xlink:href="#CMUBright-Roman-61" x="109.999985"/>
     <use xlink:href="#CMUBright-Roman-72" x="159.199982"/>
     <use xlink:href="#CMUBright-Roman-73" x="193.799973"/>
     <use xlink:href="#CMUBright-Roman-69" x="233.999969"/>
     <use xlink:href="#CMUBright-Roman-74" x="256.499954"/>
     <use xlink:href="#CMUBright-Roman-79" x="294.399948"/>
     <use xlink:href="#CMUBright-Roman-20" x="340.199936"/>
     <use xlink:href="#CMUBright-Roman-70" x="373.499924"/>
     <use xlink:href="#CMUBright-Roman-61" x="425.199921"/>
     <use xlink:href="#CMUBright-Roman-74" x="474.399918"/>
     <use xlink:href="#CMUBright-Roman-74" x="512.299911"/>
     <use xlink:href="#CMUBright-Roman-65" x="550.199905"/>
     <use xlink:href="#CMUBright-Roman-72" x="596.899902"/>
     <use xlink:href="#CMUBright-Roman-6e" x="631.499893"/>
     <use xlink:href="#CMUBright-Roman-20" x="683.19989"/>
     <use xlink:href="#CMUBright-Roman-6f" x="716.499878"/>
     <use xlink:href="#CMUBright-Roman-66" x="768.999863"/>
     <use xlink:href="#CMUBright-Roman-20" x="801.099854"/>
     <use xlink:href="#CMUBright-Roman-41" x="834.399841"/>
     <use xlink:href="#CMUBright-Roman-20" x="901.899826"/>
     <use xlink:href="#CMUBright-Roman-6d" x="935.199814"/>
     <use xlink:href="#CMUBright-Roman-61" x="1015.999802"/>
     <use xlink:href="#CMUBright-Roman-74" x="1065.199799"/>
     <use xlink:href="#CMUBright-Roman-72" x="1103.099792"/>
     <use xlink:href="#CMUBright-Roman-69" x="1137.699783"/>
     <use xlink:href="#CMUBright-Roman-78" x="1160.199768"/>
     <use xlink:href="#CMUBright-Roman-20" x="1205.999756"/>
     <use xlink:href="#CMUBright-Roman-66" x="1239.299744"/>
     <use xlink:href="#CMUBright-Roman-6f" x="1271.399734"/>
     <use xlink:href="#CMUBright-Roman-72" x="1323.899719"/>
     <use xlink:href="#CMUBright-Roman-20" x="1358.49971"/>
     <use xlink:href="#CMUBright-Roman-4e" x="1391.799698"/>
     <use xlink:href="#CMUBright-Roman-3d" x="1462.599686"/>
     <use xlink:href="#CMUBright-Roman-34" x="1526.799683"/>
    </g>
   </g>
  </g>
 </g>
 <defs>
  <clipPath id="pb09cd81501">
   <rect x="30.353388" y="48.481547" width="294.817973" height="294.817973"/>
  </clipPath>
 </defs>
</svg>