<?xml version="1.0" encoding="utf-8" standalone="no"?>
<!DOCTYPE svg PUBLIC "-//W3C//DTD SVG 1.1//EN"
  "http://www.w3.org/Graphics/SVG/1.1/DTD/svg11.dtd">
<svg xmlns:xlink="http://www.w3.org/1999/xlink" width="728.39952pt" height="440.39952pt" viewBox="0 0 728.39952 440.39952" xmlns="http://www.w3.org/2000/svg" version="1.1">
 <metadata>
  <rdf:RDF xmlns:dc="http://purl.org/dc/elements/1.1/" xmlns:cc="http://creativecommons.org/ns#" xmlns:rdf="http://www.w3.org/1999/02/22-rdf-syntax-ns#">
   <cc:Work>
    <dc:type rdf:resource="http://purl.org/dc/dcmitype/StillImage"/>
    <dc:date>2023-11-01T02:20:46.567248</dc:date>
    <dc:format>image/svg+xml</dc:format>
    <dc:creator>
     <cc:Agent>
      <dc:title>Matplotlib v3.8.1, https://matplotlib.org/</dc:title>
     </cc:Agent>
    </dc:creator>
   </cc:Work>
  </rdf:RDF>
 </metadata>
 <defs>
  <style type="text/css">*{stroke-linejoin: round; stroke-linecap: butt}</style>
 </defs>
 <g id="figure_1">
  <g id="patch_1">
   <path d="M 0 440.39952 
L 728.39952 440.39952 
L 728.39952 0 
L 0 0 
z
" style="fill: #ffffff"/>
  </g>
  <g id="axes_1">
   <g id="patch_2">
    <path d="M 75.086879 377.757661 
L 711.138312 377.757661 
L 711.138312 28.212 
L 75.086879 28.212 
z
" style="fill: #ffffff"/>
   </g>
   <g id="matplotlib.axis_1">
    <g id="xtick_1">
     <g id="line2d_1">
      <defs>
       <path id="m888c7765e7" d="M 0 0 
L 0 3.5 
" style="stroke: #5a5758; stroke-width: 0.8"/>
      </defs>
      <g>
       <use xlink:href="#m888c7765e7" x="75.086879" y="389.757661" style="fill: #5a5758; stroke: #5a5758; stroke-width: 0.8"/>
      </g>
     </g>
     <g id="text_1">
      <!-- 0.0 -->
      <g style="fill: #5a5758" transform="translate(65.025671 407.178491) scale(0.14994 -0.14994)">
       <defs>
        <path id="CMUBright-Roman-30" d="M 333 1984 
L 333 2086 
Q 333 2291 339 2438 
Q 346 2586 371 2832 
Q 397 3078 461 3267 
Q 525 3456 621 3657 
Q 717 3859 880 4006 
Q 1043 4154 1261 4230 
Q 1446 4301 1677 4301 
Q 1856 4301 2025 4256 
Q 2195 4211 2380 4070 
Q 2566 3930 2704 3709 
Q 2842 3488 2931 3104 
Q 3021 2720 3021 2214 
Q 3021 1683 2982 1347 
Q 2944 1011 2803 685 
Q 2618 250 2307 70 
Q 1997 -109 1677 -109 
Q 1498 -109 1328 -64 
Q 1158 -19 972 121 
Q 787 262 649 483 
Q 512 704 422 1091 
Q 333 1478 333 1984 
z
M 742 2413 
Q 742 2374 745 2326 
Q 749 2278 749 2272 
L 749 2150 
Q 749 1779 758 1548 
Q 768 1318 838 1014 
Q 909 710 1037 538 
Q 1286 218 1677 218 
Q 2086 218 2330 557 
Q 2451 730 2518 1037 
Q 2586 1344 2595 1568 
Q 2605 1792 2605 2163 
L 2605 2272 
Q 2605 2278 2608 2323 
Q 2611 2368 2611 2406 
Q 2611 3302 2336 3661 
Q 2099 3981 1677 3981 
Q 1242 3981 1005 3642 
Q 742 3264 742 2413 
z
" transform="scale(0.015625)"/>
        <path id="CMUBright-Roman-2e" d="M 678 0 
L 678 499 
L 1178 499 
L 1178 0 
L 678 0 
z
" transform="scale(0.015625)"/>
       </defs>
       <use xlink:href="#CMUBright-Roman-30"/>
       <use xlink:href="#CMUBright-Roman-2e" x="52.499985"/>
       <use xlink:href="#CMUBright-Roman-30" x="81.699982"/>
      </g>
     </g>
    </g>
    <g id="xtick_2">
     <g id="line2d_2">
      <g>
       <use xlink:href="#m888c7765e7" x="202.297166" y="389.757661" style="fill: #5a5758; stroke: #5a5758; stroke-width: 0.8"/>
      </g>
     </g>
     <g id="text_2">
      <!-- 0.2 -->
      <g style="fill: #5a5758" transform="translate(192.235957 407.178491) scale(0.14994 -0.14994)">
       <defs>
        <path id="CMUBright-Roman-32" d="M 275 3226 
Q 595 4301 1587 4301 
L 1594 4301 
Q 2214 4294 2617 3923 
Q 3021 3552 3021 2989 
Q 3021 2746 2937 2531 
Q 2854 2317 2668 2115 
Q 2483 1914 2384 1821 
Q 2285 1728 2061 1549 
Q 1754 1299 1642 1203 
Q 1530 1107 698 358 
L 3021 358 
L 3021 0 
L 333 0 
L 333 339 
L 1683 1562 
Q 2144 1965 2368 2278 
Q 2592 2592 2592 2982 
Q 2592 3418 2278 3690 
Q 1965 3962 1498 3962 
Q 1069 3962 854 3693 
Q 640 3424 512 2938 
L 275 3226 
z
" transform="scale(0.015625)"/>
       </defs>
       <use xlink:href="#CMUBright-Roman-30"/>
       <use xlink:href="#CMUBright-Roman-2e" x="52.499985"/>
       <use xlink:href="#CMUBright-Roman-32" x="81.699982"/>
      </g>
     </g>
    </g>
    <g id="xtick_3">
     <g id="line2d_3">
      <g>
       <use xlink:href="#m888c7765e7" x="329.507452" y="389.757661" style="fill: #5a5758; stroke: #5a5758; stroke-width: 0.8"/>
      </g>
     </g>
     <g id="text_3">
      <!-- 0.4 -->
      <g style="fill: #5a5758" transform="translate(319.446244 407.178491) scale(0.14994 -0.14994)">
       <defs>
        <path id="CMUBright-Roman-34" d="M 186 1158 
L 186 1504 
L 1952 4250 
L 2438 4250 
L 2438 1498 
L 3168 1498 
L 3168 1158 
L 2438 1158 
L 2438 0 
L 2035 0 
L 2035 1158 
L 186 1158 
z
M 602 1498 
L 2054 1498 
L 2054 3885 
Q 1971 3667 1606 3085 
L 602 1498 
z
" transform="scale(0.015625)"/>
       </defs>
       <use xlink:href="#CMUBright-Roman-30"/>
       <use xlink:href="#CMUBright-Roman-2e" x="52.499985"/>
       <use xlink:href="#CMUBright-Roman-34" x="81.699982"/>
      </g>
     </g>
    </g>
    <g id="xtick_4">
     <g id="line2d_4">
      <g>
       <use xlink:href="#m888c7765e7" x="456.717739" y="389.757661" style="fill: #5a5758; stroke: #5a5758; stroke-width: 0.8"/>
      </g>
     </g>
     <g id="text_4">
      <!-- 0.6 -->
      <g style="fill: #5a5758" transform="translate(446.65653 407.178491) scale(0.14994 -0.14994)">
       <defs>
        <path id="CMUBright-Roman-36" d="M 346 2061 
Q 346 3072 864 3686 
Q 1382 4301 2074 4301 
L 2086 4301 
Q 2426 4301 2797 4179 
L 2797 3846 
Q 2374 3981 2074 3981 
L 2061 3981 
Q 1478 3981 1123 3491 
Q 768 3002 768 2208 
Q 768 2195 771 2166 
Q 774 2138 774 2125 
Q 928 2445 1238 2665 
Q 1549 2886 1952 2886 
Q 2387 2886 2682 2483 
Q 3008 2029 3008 1408 
Q 3008 768 2618 326 
Q 2240 -109 1690 -109 
Q 1510 -109 1340 -57 
Q 1171 -6 985 141 
Q 800 288 662 521 
Q 525 755 435 1152 
Q 346 1549 346 2061 
z
M 794 1389 
Q 813 1171 854 1004 
Q 896 838 985 643 
Q 1075 448 1254 336 
Q 1434 224 1690 224 
Q 2138 224 2381 550 
Q 2515 736 2550 921 
Q 2586 1107 2586 1434 
Q 2586 1645 2573 1776 
Q 2560 1907 2480 2089 
Q 2400 2272 2253 2400 
Q 2054 2566 1728 2566 
Q 1325 2566 1062 2265 
Q 800 1965 800 1555 
Q 800 1440 806 1389 
L 794 1389 
z
" transform="scale(0.015625)"/>
       </defs>
       <use xlink:href="#CMUBright-Roman-30"/>
       <use xlink:href="#CMUBright-Roman-2e" x="52.499985"/>
       <use xlink:href="#CMUBright-Roman-36" x="81.699982"/>
      </g>
     </g>
    </g>
    <g id="xtick_5">
     <g id="line2d_5">
      <g>
       <use xlink:href="#m888c7765e7" x="583.928025" y="389.757661" style="fill: #5a5758; stroke: #5a5758; stroke-width: 0.8"/>
      </g>
     </g>
     <g id="text_5">
      <!-- 0.8 -->
      <g style="fill: #5a5758" transform="translate(573.866817 407.178491) scale(0.14994 -0.14994)">
       <defs>
        <path id="CMUBright-Roman-38" d="M 275 1158 
Q 275 1517 518 1817 
Q 762 2118 1248 2266 
Q 909 2349 640 2598 
Q 371 2848 371 3206 
Q 371 3642 745 3971 
Q 1120 4301 1677 4301 
Q 2221 4301 2601 3981 
Q 2982 3661 2982 3213 
Q 2982 2918 2787 2684 
Q 2592 2451 2285 2323 
L 2099 2266 
Q 2464 2176 2768 1885 
Q 3072 1594 3072 1158 
Q 3072 646 2665 268 
Q 2259 -109 1670 -109 
Q 1075 -109 675 275 
Q 275 659 275 1158 
z
M 698 1158 
Q 698 704 970 464 
Q 1242 224 1670 224 
Q 2118 224 2384 470 
Q 2650 717 2650 1165 
Q 2650 1619 2371 1862 
Q 2093 2106 1670 2106 
Q 1280 2106 989 1878 
Q 698 1651 698 1158 
z
M 755 3206 
Q 755 2886 982 2656 
Q 1210 2426 1670 2426 
Q 2093 2426 2342 2634 
Q 2592 2842 2592 3206 
Q 2592 3507 2387 3744 
Q 2182 3981 1683 3981 
Q 1171 3981 963 3744 
Q 755 3507 755 3206 
z
" transform="scale(0.015625)"/>
       </defs>
       <use xlink:href="#CMUBright-Roman-30"/>
       <use xlink:href="#CMUBright-Roman-2e" x="52.499985"/>
       <use xlink:href="#CMUBright-Roman-38" x="81.699982"/>
      </g>
     </g>
    </g>
    <g id="xtick_6">
     <g id="line2d_6">
      <g>
       <use xlink:href="#m888c7765e7" x="711.138312" y="389.757661" style="fill: #5a5758; stroke: #5a5758; stroke-width: 0.8"/>
      </g>
     </g>
     <g id="text_6">
      <!-- 1.0 -->
      <g style="fill: #5a5758" transform="translate(701.077103 407.178491) scale(0.14994 -0.14994)">
       <defs>
        <path id="CMUBright-Roman-31" d="M 672 3558 
L 672 3885 
Q 1427 3885 1862 4301 
L 1965 4301 
L 1965 320 
L 2803 320 
L 2803 0 
L 710 0 
L 710 320 
L 1549 320 
L 1549 3744 
Q 1178 3558 672 3558 
z
" transform="scale(0.015625)"/>
       </defs>
       <use xlink:href="#CMUBright-Roman-31"/>
       <use xlink:href="#CMUBright-Roman-2e" x="52.499985"/>
       <use xlink:href="#CMUBright-Roman-30" x="81.699982"/>
      </g>
     </g>
    </g>
    <g id="text_7">
     <!-- $x$ -->
     <g style="fill: #5a5758" transform="translate(388.972595 430.192957) scale(0.18 -0.18)">
      <defs>
       <path id="CMUBright-SemiBold-78" d="M 0 0 
L 1184 1562 
L 1184 1568 
L 38 3021 
L 698 3021 
L 1446 2022 
L 2163 3021 
L 2816 3021 
L 1709 1568 
L 1709 1562 
L 2931 0 
L 2272 0 
L 1446 1197 
L 1440 1197 
L 653 0 
L 0 0 
z
" transform="scale(0.015625)"/>
      </defs>
      <use xlink:href="#CMUBright-SemiBold-78" transform="translate(0 0.796875)"/>
     </g>
    </g>
   </g>
   <g id="matplotlib.axis_2">
    <g id="ytick_1">
     <g id="line2d_7">
      <defs>
       <path id="m87049f3321" d="M 0 0 
L -3.5 0 
" style="stroke: #5a5758; stroke-width: 0.8"/>
      </defs>
      <g>
       <use xlink:href="#m87049f3321" x="63.086879" y="360.751699" style="fill: #5a5758; stroke: #5a5758; stroke-width: 0.8"/>
      </g>
     </g>
     <g id="text_8">
      <!-- -0.4 -->
      <g style="fill: #5a5758" transform="translate(30.716563 365.962114) scale(0.14994 -0.14994)">
       <defs>
        <path id="CMUBright-Roman-2d" d="M 70 1350 
L 70 1670 
L 1862 1670 
L 1862 1350 
L 70 1350 
z
" transform="scale(0.015625)"/>
       </defs>
       <use xlink:href="#CMUBright-Roman-2d"/>
       <use xlink:href="#CMUBright-Roman-30" x="34.999985"/>
       <use xlink:href="#CMUBright-Roman-2e" x="87.499969"/>
       <use xlink:href="#CMUBright-Roman-34" x="116.699966"/>
      </g>
     </g>
    </g>
    <g id="ytick_2">
     <g id="line2d_8">
      <g>
       <use xlink:href="#m87049f3321" x="63.086879" y="313.246028" style="fill: #5a5758; stroke: #5a5758; stroke-width: 0.8"/>
      </g>
     </g>
     <g id="text_9">
      <!-- -0.2 -->
      <g style="fill: #5a5758" transform="translate(30.716563 318.456443) scale(0.14994 -0.14994)">
       <use xlink:href="#CMUBright-Roman-2d"/>
       <use xlink:href="#CMUBright-Roman-30" x="34.999985"/>
       <use xlink:href="#CMUBright-Roman-2e" x="87.499969"/>
       <use xlink:href="#CMUBright-Roman-32" x="116.699966"/>
      </g>
     </g>
    </g>
    <g id="ytick_3">
     <g id="line2d_9">
      <g>
       <use xlink:href="#m87049f3321" x="63.086879" y="265.740356" style="fill: #5a5758; stroke: #5a5758; stroke-width: 0.8"/>
      </g>
     </g>
     <g id="text_10">
      <!-- 0.0 -->
      <g style="fill: #5a5758" transform="translate(35.964463 270.950771) scale(0.14994 -0.14994)">
       <use xlink:href="#CMUBright-Roman-30"/>
       <use xlink:href="#CMUBright-Roman-2e" x="52.499985"/>
       <use xlink:href="#CMUBright-Roman-30" x="81.699982"/>
      </g>
     </g>
    </g>
    <g id="ytick_4">
     <g id="line2d_10">
      <g>
       <use xlink:href="#m87049f3321" x="63.086879" y="218.234685" style="fill: #5a5758; stroke: #5a5758; stroke-width: 0.8"/>
      </g>
     </g>
     <g id="text_11">
      <!-- 0.2 -->
      <g style="fill: #5a5758" transform="translate(35.964463 223.4451) scale(0.14994 -0.14994)">
       <use xlink:href="#CMUBright-Roman-30"/>
       <use xlink:href="#CMUBright-Roman-2e" x="52.499985"/>
       <use xlink:href="#CMUBright-Roman-32" x="81.699982"/>
      </g>
     </g>
    </g>
    <g id="ytick_5">
     <g id="line2d_11">
      <g>
       <use xlink:href="#m87049f3321" x="63.086879" y="170.729014" style="fill: #5a5758; stroke: #5a5758; stroke-width: 0.8"/>
      </g>
     </g>
     <g id="text_12">
      <!-- 0.4 -->
      <g style="fill: #5a5758" transform="translate(35.964463 175.939429) scale(0.14994 -0.14994)">
       <use xlink:href="#CMUBright-Roman-30"/>
       <use xlink:href="#CMUBright-Roman-2e" x="52.499985"/>
       <use xlink:href="#CMUBright-Roman-34" x="81.699982"/>
      </g>
     </g>
    </g>
    <g id="ytick_6">
     <g id="line2d_12">
      <g>
       <use xlink:href="#m87049f3321" x="63.086879" y="123.223343" style="fill: #5a5758; stroke: #5a5758; stroke-width: 0.8"/>
      </g>
     </g>
     <g id="text_13">
      <!-- 0.6 -->
      <g style="fill: #5a5758" transform="translate(35.964463 128.433758) scale(0.14994 -0.14994)">
       <use xlink:href="#CMUBright-Roman-30"/>
       <use xlink:href="#CMUBright-Roman-2e" x="52.499985"/>
       <use xlink:href="#CMUBright-Roman-36" x="81.699982"/>
      </g>
     </g>
    </g>
    <g id="ytick_7">
     <g id="line2d_13">
      <g>
       <use xlink:href="#m87049f3321" x="63.086879" y="75.717671" style="fill: #5a5758; stroke: #5a5758; stroke-width: 0.8"/>
      </g>
     </g>
     <g id="text_14">
      <!-- 0.8 -->
      <g style="fill: #5a5758" transform="translate(35.964463 80.928086) scale(0.14994 -0.14994)">
       <use xlink:href="#CMUBright-Roman-30"/>
       <use xlink:href="#CMUBright-Roman-2e" x="52.499985"/>
       <use xlink:href="#CMUBright-Roman-38" x="81.699982"/>
      </g>
     </g>
    </g>
    <g id="ytick_8">
     <g id="line2d_14">
      <g>
       <use xlink:href="#m87049f3321" x="63.086879" y="28.212" style="fill: #5a5758; stroke: #5a5758; stroke-width: 0.8"/>
      </g>
     </g>
     <g id="text_15">
      <!-- 1.0 -->
      <g style="fill: #5a5758" transform="translate(35.964463 33.422415) scale(0.14994 -0.14994)">
       <use xlink:href="#CMUBright-Roman-31"/>
       <use xlink:href="#CMUBright-Roman-2e" x="52.499985"/>
       <use xlink:href="#CMUBright-Roman-30" x="81.699982"/>
      </g>
     </g>
    </g>
    <g id="text_16">
     <!-- $u$ -->
     <g style="fill: #5a5758" transform="translate(19.71 207.66483) rotate(-90) scale(0.18 -0.18)">
      <defs>
       <path id="CMUBright-SemiBold-75" d="M 410 838 
L 410 3021 
L 1024 3021 
L 1024 883 
Q 1030 570 1069 506 
Q 1139 403 1510 403 
Q 1888 403 2064 601 
Q 2240 800 2266 998 
Q 2272 1062 2272 1197 
L 2272 3021 
L 2886 3021 
L 2886 0 
L 2285 0 
L 2285 480 
Q 1830 -51 1088 -51 
Q 858 -51 710 29 
Q 563 109 502 262 
Q 442 416 426 537 
Q 410 659 410 838 
z
" transform="scale(0.015625)"/>
      </defs>
      <use xlink:href="#CMUBright-SemiBold-75" transform="translate(0 0.796875)"/>
     </g>
    </g>
   </g>
   <g id="line2d_15">
    <path d="M 75.086879 265.739471 
L 85.025183 265.738446 
L 94.963486 265.736335 
L 104.90179 265.732092 
L 114.840094 265.723784 
L 124.778397 265.707925 
L 134.716701 265.678421 
L 144.655005 265.624928 
L 154.593308 265.530423 
L 164.531612 265.36775 
L 174.469915 265.094976 
L 184.408219 264.649475 
L 194.346523 263.940918 
L 204.284826 262.843724 
L 214.22313 261.189985 
L 224.161434 258.764501 
L 234.099737 255.304089 
L 244.038041 250.503687 
L 253.976344 244.031748 
L 263.914648 235.556756 
L 273.852952 224.785331 
L 283.791255 211.51025 
L 293.729559 195.66411 
L 303.667863 177.371688 
L 313.606166 156.99195 
L 323.54447 135.13993 
L 333.482774 112.679762 
L 343.421077 90.683427 
L 353.359381 70.35486 
L 363.297684 52.925253 
L 373.235988 39.531461 
L 383.174292 31.093891 
L 393.112595 28.212 
L 403.050899 31.093891 
L 412.989203 39.531461 
L 422.927506 52.925253 
L 432.86581 70.35486 
L 442.804114 90.683427 
L 452.742417 112.679762 
L 462.680721 135.13993 
L 472.619024 156.99195 
L 482.557328 177.371688 
L 492.495632 195.66411 
L 502.433935 211.51025 
L 512.372239 224.785331 
L 522.310543 235.556756 
L 532.248846 244.031748 
L 542.18715 250.503687 
L 552.125454 255.304089 
L 562.063757 258.764501 
L 572.002061 261.189985 
L 581.940364 262.843724 
L 591.878668 263.940918 
L 601.816972 264.649475 
L 611.755275 265.094976 
L 621.693579 265.36775 
L 631.631883 265.530423 
L 641.570186 265.624928 
L 651.50849 265.678421 
L 661.446794 265.707925 
L 671.385097 265.723784 
L 681.323401 265.732092 
L 691.261704 265.736335 
L 701.200008 265.738446 
L 711.138312 265.739471 
" style="fill: none; stroke: #808080; stroke-opacity: 0.7; stroke-width: 4; stroke-linecap: square"/>
    <defs>
     <path id="m3d78fddaec" d="M 0 3 
C 0.795609 3 1.55874 2.683901 2.12132 2.12132 
C 2.683901 1.55874 3 0.795609 3 0 
C 3 -0.795609 2.683901 -1.55874 2.12132 -2.12132 
C 1.55874 -2.683901 0.795609 -3 0 -3 
C -0.795609 -3 -1.55874 -2.683901 -2.12132 -2.12132 
C -2.683901 -1.55874 -3 -0.795609 -3 0 
C -3 0.795609 -2.683901 1.55874 -2.12132 2.12132 
C -1.55874 2.683901 -0.795609 3 0 3 
z
" style="stroke: #ffffff; stroke-opacity: 0.7"/>
    </defs>
    <g>
     <use xlink:href="#m3d78fddaec" x="75.086879" y="265.739471" style="fill: #808080; fill-opacity: 0.7; stroke: #ffffff; stroke-opacity: 0.7"/>
     <use xlink:href="#m3d78fddaec" x="85.025183" y="265.738446" style="fill: #808080; fill-opacity: 0.7; stroke: #ffffff; stroke-opacity: 0.7"/>
     <use xlink:href="#m3d78fddaec" x="94.963486" y="265.736335" style="fill: #808080; fill-opacity: 0.7; stroke: #ffffff; stroke-opacity: 0.7"/>
     <use xlink:href="#m3d78fddaec" x="104.90179" y="265.732092" style="fill: #808080; fill-opacity: 0.7; stroke: #ffffff; stroke-opacity: 0.7"/>
     <use xlink:href="#m3d78fddaec" x="114.840094" y="265.723784" style="fill: #808080; fill-opacity: 0.7; stroke: #ffffff; stroke-opacity: 0.7"/>
     <use xlink:href="#m3d78fddaec" x="124.778397" y="265.707925" style="fill: #808080; fill-opacity: 0.7; stroke: #ffffff; stroke-opacity: 0.7"/>
     <use xlink:href="#m3d78fddaec" x="134.716701" y="265.678421" style="fill: #808080; fill-opacity: 0.7; stroke: #ffffff; stroke-opacity: 0.7"/>
     <use xlink:href="#m3d78fddaec" x="144.655005" y="265.624928" style="fill: #808080; fill-opacity: 0.7; stroke: #ffffff; stroke-opacity: 0.7"/>
     <use xlink:href="#m3d78fddaec" x="154.593308" y="265.530423" style="fill: #808080; fill-opacity: 0.7; stroke: #ffffff; stroke-opacity: 0.7"/>
     <use xlink:href="#m3d78fddaec" x="164.531612" y="265.36775" style="fill: #808080; fill-opacity: 0.7; stroke: #ffffff; stroke-opacity: 0.7"/>
     <use xlink:href="#m3d78fddaec" x="174.469915" y="265.094976" style="fill: #808080; fill-opacity: 0.7; stroke: #ffffff; stroke-opacity: 0.7"/>
     <use xlink:href="#m3d78fddaec" x="184.408219" y="264.649475" style="fill: #808080; fill-opacity: 0.7; stroke: #ffffff; stroke-opacity: 0.7"/>
     <use xlink:href="#m3d78fddaec" x="194.346523" y="263.940918" style="fill: #808080; fill-opacity: 0.7; stroke: #ffffff; stroke-opacity: 0.7"/>
     <use xlink:href="#m3d78fddaec" x="204.284826" y="262.843724" style="fill: #808080; fill-opacity: 0.7; stroke: #ffffff; stroke-opacity: 0.7"/>
     <use xlink:href="#m3d78fddaec" x="214.22313" y="261.189985" style="fill: #808080; fill-opacity: 0.7; stroke: #ffffff; stroke-opacity: 0.7"/>
     <use xlink:href="#m3d78fddaec" x="224.161434" y="258.764501" style="fill: #808080; fill-opacity: 0.7; stroke: #ffffff; stroke-opacity: 0.7"/>
     <use xlink:href="#m3d78fddaec" x="234.099737" y="255.304089" style="fill: #808080; fill-opacity: 0.7; stroke: #ffffff; stroke-opacity: 0.7"/>
     <use xlink:href="#m3d78fddaec" x="244.038041" y="250.503687" style="fill: #808080; fill-opacity: 0.7; stroke: #ffffff; stroke-opacity: 0.7"/>
     <use xlink:href="#m3d78fddaec" x="253.976344" y="244.031748" style="fill: #808080; fill-opacity: 0.7; stroke: #ffffff; stroke-opacity: 0.7"/>
     <use xlink:href="#m3d78fddaec" x="263.914648" y="235.556756" style="fill: #808080; fill-opacity: 0.7; stroke: #ffffff; stroke-opacity: 0.7"/>
     <use xlink:href="#m3d78fddaec" x="273.852952" y="224.785331" style="fill: #808080; fill-opacity: 0.7; stroke: #ffffff; stroke-opacity: 0.7"/>
     <use xlink:href="#m3d78fddaec" x="283.791255" y="211.51025" style="fill: #808080; fill-opacity: 0.7; stroke: #ffffff; stroke-opacity: 0.7"/>
     <use xlink:href="#m3d78fddaec" x="293.729559" y="195.66411" style="fill: #808080; fill-opacity: 0.7; stroke: #ffffff; stroke-opacity: 0.7"/>
     <use xlink:href="#m3d78fddaec" x="303.667863" y="177.371688" style="fill: #808080; fill-opacity: 0.7; stroke: #ffffff; stroke-opacity: 0.7"/>
     <use xlink:href="#m3d78fddaec" x="313.606166" y="156.99195" style="fill: #808080; fill-opacity: 0.7; stroke: #ffffff; stroke-opacity: 0.7"/>
     <use xlink:href="#m3d78fddaec" x="323.54447" y="135.13993" style="fill: #808080; fill-opacity: 0.7; stroke: #ffffff; stroke-opacity: 0.7"/>
     <use xlink:href="#m3d78fddaec" x="333.482774" y="112.679762" style="fill: #808080; fill-opacity: 0.7; stroke: #ffffff; stroke-opacity: 0.7"/>
     <use xlink:href="#m3d78fddaec" x="343.421077" y="90.683427" style="fill: #808080; fill-opacity: 0.7; stroke: #ffffff; stroke-opacity: 0.7"/>
     <use xlink:href="#m3d78fddaec" x="353.359381" y="70.35486" style="fill: #808080; fill-opacity: 0.7; stroke: #ffffff; stroke-opacity: 0.7"/>
     <use xlink:href="#m3d78fddaec" x="363.297684" y="52.925253" style="fill: #808080; fill-opacity: 0.7; stroke: #ffffff; stroke-opacity: 0.7"/>
     <use xlink:href="#m3d78fddaec" x="373.235988" y="39.531461" style="fill: #808080; fill-opacity: 0.7; stroke: #ffffff; stroke-opacity: 0.7"/>
     <use xlink:href="#m3d78fddaec" x="383.174292" y="31.093891" style="fill: #808080; fill-opacity: 0.7; stroke: #ffffff; stroke-opacity: 0.7"/>
     <use xlink:href="#m3d78fddaec" x="393.112595" y="28.212" style="fill: #808080; fill-opacity: 0.7; stroke: #ffffff; stroke-opacity: 0.7"/>
     <use xlink:href="#m3d78fddaec" x="403.050899" y="31.093891" style="fill: #808080; fill-opacity: 0.7; stroke: #ffffff; stroke-opacity: 0.7"/>
     <use xlink:href="#m3d78fddaec" x="412.989203" y="39.531461" style="fill: #808080; fill-opacity: 0.7; stroke: #ffffff; stroke-opacity: 0.7"/>
     <use xlink:href="#m3d78fddaec" x="422.927506" y="52.925253" style="fill: #808080; fill-opacity: 0.7; stroke: #ffffff; stroke-opacity: 0.7"/>
     <use xlink:href="#m3d78fddaec" x="432.86581" y="70.35486" style="fill: #808080; fill-opacity: 0.7; stroke: #ffffff; stroke-opacity: 0.7"/>
     <use xlink:href="#m3d78fddaec" x="442.804114" y="90.683427" style="fill: #808080; fill-opacity: 0.7; stroke: #ffffff; stroke-opacity: 0.7"/>
     <use xlink:href="#m3d78fddaec" x="452.742417" y="112.679762" style="fill: #808080; fill-opacity: 0.7; stroke: #ffffff; stroke-opacity: 0.7"/>
     <use xlink:href="#m3d78fddaec" x="462.680721" y="135.13993" style="fill: #808080; fill-opacity: 0.7; stroke: #ffffff; stroke-opacity: 0.7"/>
     <use xlink:href="#m3d78fddaec" x="472.619024" y="156.99195" style="fill: #808080; fill-opacity: 0.7; stroke: #ffffff; stroke-opacity: 0.7"/>
     <use xlink:href="#m3d78fddaec" x="482.557328" y="177.371688" style="fill: #808080; fill-opacity: 0.7; stroke: #ffffff; stroke-opacity: 0.7"/>
     <use xlink:href="#m3d78fddaec" x="492.495632" y="195.66411" style="fill: #808080; fill-opacity: 0.7; stroke: #ffffff; stroke-opacity: 0.7"/>
     <use xlink:href="#m3d78fddaec" x="502.433935" y="211.51025" style="fill: #808080; fill-opacity: 0.7; stroke: #ffffff; stroke-opacity: 0.7"/>
     <use xlink:href="#m3d78fddaec" x="512.372239" y="224.785331" style="fill: #808080; fill-opacity: 0.7; stroke: #ffffff; stroke-opacity: 0.7"/>
     <use xlink:href="#m3d78fddaec" x="522.310543" y="235.556756" style="fill: #808080; fill-opacity: 0.7; stroke: #ffffff; stroke-opacity: 0.7"/>
     <use xlink:href="#m3d78fddaec" x="532.248846" y="244.031748" style="fill: #808080; fill-opacity: 0.7; stroke: #ffffff; stroke-opacity: 0.7"/>
     <use xlink:href="#m3d78fddaec" x="542.18715" y="250.503687" style="fill: #808080; fill-opacity: 0.7; stroke: #ffffff; stroke-opacity: 0.7"/>
     <use xlink:href="#m3d78fddaec" x="552.125454" y="255.304089" style="fill: #808080; fill-opacity: 0.7; stroke: #ffffff; stroke-opacity: 0.7"/>
     <use xlink:href="#m3d78fddaec" x="562.063757" y="258.764501" style="fill: #808080; fill-opacity: 0.7; stroke: #ffffff; stroke-opacity: 0.7"/>
     <use xlink:href="#m3d78fddaec" x="572.002061" y="261.189985" style="fill: #808080; fill-opacity: 0.7; stroke: #ffffff; stroke-opacity: 0.7"/>
     <use xlink:href="#m3d78fddaec" x="581.940364" y="262.843724" style="fill: #808080; fill-opacity: 0.7; stroke: #ffffff; stroke-opacity: 0.7"/>
     <use xlink:href="#m3d78fddaec" x="591.878668" y="263.940918" style="fill: #808080; fill-opacity: 0.7; stroke: #ffffff; stroke-opacity: 0.7"/>
     <use xlink:href="#m3d78fddaec" x="601.816972" y="264.649475" style="fill: #808080; fill-opacity: 0.7; stroke: #ffffff; stroke-opacity: 0.7"/>
     <use xlink:href="#m3d78fddaec" x="611.755275" y="265.094976" style="fill: #808080; fill-opacity: 0.7; stroke: #ffffff; stroke-opacity: 0.7"/>
     <use xlink:href="#m3d78fddaec" x="621.693579" y="265.36775" style="fill: #808080; fill-opacity: 0.7; stroke: #ffffff; stroke-opacity: 0.7"/>
     <use xlink:href="#m3d78fddaec" x="631.631883" y="265.530423" style="fill: #808080; fill-opacity: 0.7; stroke: #ffffff; stroke-opacity: 0.7"/>
     <use xlink:href="#m3d78fddaec" x="641.570186" y="265.624928" style="fill: #808080; fill-opacity: 0.7; stroke: #ffffff; stroke-opacity: 0.7"/>
     <use xlink:href="#m3d78fddaec" x="651.50849" y="265.678421" style="fill: #808080; fill-opacity: 0.7; stroke: #ffffff; stroke-opacity: 0.7"/>
     <use xlink:href="#m3d78fddaec" x="661.446794" y="265.707925" style="fill: #808080; fill-opacity: 0.7; stroke: #ffffff; stroke-opacity: 0.7"/>
     <use xlink:href="#m3d78fddaec" x="671.385097" y="265.723784" style="fill: #808080; fill-opacity: 0.7; stroke: #ffffff; stroke-opacity: 0.7"/>
     <use xlink:href="#m3d78fddaec" x="681.323401" y="265.732092" style="fill: #808080; fill-opacity: 0.7; stroke: #ffffff; stroke-opacity: 0.7"/>
     <use xlink:href="#m3d78fddaec" x="691.261704" y="265.736335" style="fill: #808080; fill-opacity: 0.7; stroke: #ffffff; stroke-opacity: 0.7"/>
     <use xlink:href="#m3d78fddaec" x="701.200008" y="265.738446" style="fill: #808080; fill-opacity: 0.7; stroke: #ffffff; stroke-opacity: 0.7"/>
     <use xlink:href="#m3d78fddaec" x="711.138312" y="265.739471" style="fill: #808080; fill-opacity: 0.7; stroke: #ffffff; stroke-opacity: 0.7"/>
    </g>
   </g>
   <g id="line2d_16">
    <path d="M 393.112595 377.757661 
L 393.112595 28.212 
" clip-path="url(#p151710a9a2)" style="fill: none; stroke-dasharray: 7.4,3.2; stroke-dashoffset: 0; stroke: #808080; stroke-opacity: 0.7; stroke-width: 2"/>
   </g>
   <g id="line2d_17">
    <path d="M 75.086879 151.953784 
L 85.025183 153.701619 
L 94.963486 155.423649 
L 104.90179 157.121255 
L 114.840094 158.79664 
L 124.778397 160.453431 
L 134.716701 162.097657 
L 144.655005 163.73925 
L 154.593308 165.39426 
L 164.531612 167.087981 
L 174.469915 168.859137 
L 184.408219 170.765153 
L 194.346523 172.888303 
L 204.284826 175.342205 
L 214.22313 178.277632 
L 224.161434 181.886104 
L 234.099737 186.399242 
L 244.038041 192.081566 
L 253.976344 199.21455 
L 263.914648 208.070411 
L 273.852952 218.875533 
L 283.791255 231.765425 
L 293.729559 246.735641 
L 303.667863 263.595493 
L 313.606166 281.933208 
L 323.54447 301.101669 
L 333.482774 320.232513 
L 343.421077 338.283005 
L 353.359381 354.115019 
L 363.297684 366.599495 
L 373.235988 374.734077 
L 383.174292 377.757661 
L 393.112595 375.244387 
L 403.050899 367.161738 
L 412.989203 353.882702 
L 422.927506 336.149398 
L 432.86581 314.993593 
L 442.804114 291.626563 
L 452.742417 267.315146 
L 462.680721 243.262009 
L 472.619024 220.505871 
L 482.557328 199.852634 
L 492.495632 181.842176 
L 502.433935 166.749407 
L 512.372239 154.613284 
L 522.310543 145.284534 
L 532.248846 138.482021 
L 542.18715 133.848731 
L 552.125454 131.000658 
L 562.063757 129.56463 
L 572.002061 129.203785 
L 581.940364 129.63151 
L 591.878668 130.615942 
L 601.816972 131.977749 
L 611.755275 133.58381 
L 621.693579 135.339038 
L 631.631883 137.177954 
L 641.570186 139.057046 
L 651.50849 140.948399 
L 661.446794 142.834735 
L 671.385097 144.70576 
L 681.323401 146.555608 
L 691.261704 148.381117 
L 701.200008 150.180725 
L 711.138312 151.953784 
" style="fill: none; stroke: #e29400; stroke-width: 4; stroke-linecap: square"/>
   </g>
   <g id="line2d_18">
    <path d="M 75.086879 203.304482 
L 85.025183 201.25761 
L 94.963486 199.754336 
L 104.90179 198.62432 
L 114.840094 197.679847 
L 124.778397 196.731613 
L 134.716701 195.603489 
L 144.655005 194.145165 
L 154.593308 192.241937 
L 164.531612 189.821233 
L 174.469915 186.855806 
L 184.408219 183.363751 
L 194.346523 179.405713 
L 204.284826 175.079773 
L 214.22313 170.514579 
L 224.161434 165.861319 
L 234.099737 161.28512 
L 244.038041 156.956385 
L 253.976344 153.042558 
L 263.914648 149.700673 
L 273.852952 147.070997 
L 283.791255 145.271962 
L 293.729559 144.396482 
L 303.667863 144.509657 
L 313.606166 145.647765 
L 323.54447 147.818352 
L 333.482774 151.001172 
L 343.421077 155.149698 
L 353.359381 160.192981 
L 363.297684 166.03773 
L 373.235988 172.570628 
L 383.174292 179.661098 
L 393.112595 187.164829 
L 403.050899 194.928413 
L 412.989203 202.795271 
L 422.927506 210.612794 
L 432.86581 218.240153 
L 442.804114 225.555808 
L 452.742417 232.463458 
L 462.680721 238.895067 
L 472.619024 244.809955 
L 482.557328 250.189537 
L 492.495632 255.028235 
L 502.433935 259.321966 
L 512.372239 263.056406 
L 522.310543 266.197525 
L 532.248846 268.686691 
L 542.18715 270.441919 
L 552.125454 271.365678 
L 562.063757 271.358383 
L 572.002061 270.335528 
L 581.940364 268.245626 
L 591.878668 265.085854 
L 601.816972 260.912658 
L 611.755275 255.845359 
L 621.693579 250.061972 
L 631.631883 243.787634 
L 641.570186 237.277141 
L 651.50849 230.793868 
L 661.446794 224.587687 
L 671.385097 218.874503 
L 681.323401 213.819596 
L 691.261704 209.526347 
L 701.200008 206.03113 
L 711.138312 203.304482 
" style="fill: none; stroke: #1e90ff; stroke-width: 4; stroke-linecap: square"/>
   </g>
   <g id="line2d_19">
    <path d="M 75.086879 248.53261 
L 85.025183 248.316271 
L 94.963486 247.754249 
L 104.90179 246.842562 
L 114.840094 245.578611 
L 124.778397 243.961607 
L 134.716701 241.993064 
L 144.655005 239.677307 
L 154.593308 237.021992 
L 164.531612 234.038599 
L 174.469915 230.742885 
L 184.408219 227.155244 
L 194.346523 223.300984 
L 204.284826 219.210467 
L 214.22313 214.919109 
L 224.161434 210.467223 
L 234.099737 205.89969 
L 244.038041 201.265475 
L 253.976344 196.616969 
L 263.914648 192.009182 
L 273.852952 187.498817 
L 283.791255 183.143225 
L 293.729559 178.999297 
L 303.667863 175.122308 
L 313.606166 171.564762 
L 323.54447 168.375274 
L 333.482774 165.597521 
L 343.421077 163.2693 
L 353.359381 161.421725 
L 363.297684 160.078592 
L 373.235988 159.255918 
L 383.174292 158.961685 
L 393.112595 159.195781 
L 403.050899 159.950143 
L 412.989203 161.209087 
L 422.927506 162.949814 
L 432.86581 165.143074 
L 442.804114 167.753949 
L 452.742417 170.74274 
L 462.680721 174.065921 
L 472.619024 177.677128 
L 482.557328 181.528145 
L 492.495632 185.569875 
L 502.433935 189.753247 
L 512.372239 194.030054 
L 522.310543 198.353688 
L 532.248846 202.679765 
L 542.18715 206.966634 
L 552.125454 211.175746 
L 562.063757 215.271911 
L 572.002061 219.223417 
L 581.940364 223.002042 
L 591.878668 226.582956 
L 601.816972 229.944532 
L 611.755275 233.068088 
L 621.693579 235.93757 
L 631.631883 238.539194 
L 641.570186 240.861083 
L 651.50849 242.892901 
L 661.446794 244.625512 
L 671.385097 246.050682 
L 681.323401 247.160843 
L 691.261704 247.948921 
L 701.200008 248.408256 
L 711.138312 248.53261 
" style="fill: none; stroke: #e21a1a; stroke-width: 4; stroke-linecap: square"/>
   </g>
   <g id="line2d_20">
    <path d="M 75.086879 248.334202 
L 85.025183 248.128411 
L 94.963486 247.615913 
L 104.90179 246.725736 
L 114.840094 245.528709 
L 124.778397 243.958005 
L 134.716701 242.085465 
L 144.655005 239.85088 
L 154.593308 237.327414 
L 164.531612 234.464064 
L 174.469915 231.335922 
L 184.408219 227.903531 
L 194.346523 224.244523 
L 204.284826 220.332707 
L 214.22313 216.248544 
L 224.161434 211.97987 
L 234.099737 207.609679 
L 244.038041 203.139376 
L 253.976344 198.653401 
L 263.914648 194.164957 
L 273.852952 189.757989 
L 283.791255 185.454479 
L 293.729559 181.335178 
L 303.667863 177.426826 
L 313.606166 173.803779 
L 323.54447 170.492907 
L 333.482774 167.558856 
L 343.421077 165.023894 
L 353.359381 162.939981 
L 363.297684 161.320473 
L 373.235988 160.20246 
L 383.174292 159.586979 
L 393.112595 159.495232 
L 403.050899 159.913774 
L 412.989203 160.848297 
L 422.927506 162.270133 
L 432.86581 164.171277 
L 442.804114 166.508487 
L 452.742417 169.263153 
L 462.680721 172.379284 
L 472.619024 175.831705 
L 482.557328 179.554322 
L 492.495632 183.519945 
L 502.433935 187.655399 
L 512.372239 191.936037 
L 522.310543 196.284568 
L 532.248846 200.682989 
L 542.18715 205.05243 
L 552.125454 209.384778 
L 562.063757 213.601439 
L 572.002061 217.70634 
L 581.940364 221.622226 
L 591.878668 225.366014 
L 601.816972 228.862096 
L 611.755275 232.140185 
L 621.693579 235.126048 
L 631.631883 237.861036 
L 641.570186 240.271688 
L 651.50849 242.409151 
L 661.446794 244.200104 
L 671.385097 245.703297 
L 681.323401 246.845164 
L 691.261704 247.689851 
L 701.200008 248.163662 
L 711.138312 248.334202 
" style="fill: none; stroke-dasharray: 14.8,6.4; stroke-dashoffset: 0; stroke: #00a650; stroke-width: 4"/>
   </g>
   <g id="patch_3">
    <path d="M 63.086879 377.757661 
L 63.086879 28.212 
" style="fill: none; stroke: #5a5758; stroke-width: 0.8; stroke-linejoin: miter; stroke-linecap: square"/>
   </g>
   <g id="patch_4">
    <path d="M 75.086879 389.757661 
L 711.138312 389.757661 
" style="fill: none; stroke: #5a5758; stroke-width: 0.8; stroke-linejoin: miter; stroke-linecap: square"/>
   </g>
   <g id="text_17">
    <!-- Pe = 100 -->
    <g style="fill: #5a5758" transform="translate(349.826533 22.212) scale(0.216 -0.216)">
     <defs>
      <path id="CMUBright-Roman-50" d="M 627 0 
L 627 4448 
L 2150 4448 
Q 2739 4448 3155 4218 
Q 3475 4038 3654 3756 
Q 3834 3475 3834 3162 
Q 3834 2957 3741 2745 
Q 3648 2534 3462 2336 
Q 3277 2138 2937 2013 
Q 2598 1888 2163 1888 
L 1075 1888 
L 1075 0 
L 627 0 
z
M 1069 2221 
L 2080 2221 
Q 2477 2221 2758 2310 
Q 3040 2400 3171 2553 
Q 3302 2707 3356 2851 
Q 3411 2995 3411 3162 
Q 3411 3322 3356 3469 
Q 3302 3616 3168 3769 
Q 3034 3923 2755 4012 
Q 2477 4102 2080 4102 
L 1069 4102 
L 1069 2221 
z
" transform="scale(0.015625)"/>
      <path id="CMUBright-Roman-65" d="M 269 1536 
Q 269 2163 646 2630 
Q 1024 3098 1587 3098 
Q 1786 3098 1968 3037 
Q 2150 2976 2342 2829 
Q 2534 2682 2652 2365 
Q 2771 2048 2771 1600 
L 653 1600 
L 653 1549 
Q 653 966 966 617 
Q 1280 269 1690 269 
Q 2234 269 2726 710 
L 2758 358 
Q 2266 -51 1690 -51 
Q 1101 -51 685 406 
Q 269 864 269 1536 
z
M 685 1856 
L 2426 1856 
Q 2381 2342 2134 2560 
Q 1888 2778 1587 2778 
Q 1261 2778 1008 2515 
Q 755 2253 685 1856 
z
" transform="scale(0.015625)"/>
      <path id="CMUBright-Roman-20" transform="scale(0.015625)"/>
      <path id="CMUBright-Roman-3d" d="M 378 1062 
Q 378 1229 576 1229 
L 3533 1229 
Q 3725 1222 3725 1062 
Q 3725 909 3514 909 
L 589 909 
Q 378 909 378 1062 
z
M 378 2304 
Q 378 2470 582 2470 
L 3533 2470 
Q 3725 2464 3725 2304 
Q 3725 2150 3514 2150 
L 589 2150 
Q 378 2150 378 2304 
z
" transform="scale(0.015625)"/>
     </defs>
     <use xlink:href="#CMUBright-Roman-50"/>
     <use xlink:href="#CMUBright-Roman-65" x="65.799988"/>
     <use xlink:href="#CMUBright-Roman-20" x="112.499985"/>
     <use xlink:href="#CMUBright-Roman-3d" x="145.799973"/>
     <use xlink:href="#CMUBright-Roman-20" x="209.999969"/>
     <use xlink:href="#CMUBright-Roman-31" x="243.299957"/>
     <use xlink:href="#CMUBright-Roman-30" x="295.799942"/>
     <use xlink:href="#CMUBright-Roman-30" x="348.299927"/>
    </g>
   </g>
   <g id="legend_1">
    <g id="line2d_21">
     <path d="M 87.686879 45.712 
L 101.686879 45.712 
L 115.686879 45.712 
" style="fill: none; stroke: #808080; stroke-opacity: 0.7; stroke-width: 4; stroke-linecap: square"/>
     <g>
      <use xlink:href="#m3d78fddaec" x="101.686879" y="45.712" style="fill: #808080; fill-opacity: 0.7; stroke: #ffffff; stroke-opacity: 0.7"/>
     </g>
    </g>
    <g id="text_18">
     <!-- Initial condition -->
     <g style="fill: #808080" transform="translate(126.886879 50.612) scale(0.14 -0.14)">
      <defs>
       <path id="CMUBright-Roman-49" d="M 627 0 
L 627 4448 
L 1075 4448 
L 1075 0 
L 627 0 
z
" transform="scale(0.015625)"/>
       <path id="CMUBright-Roman-6e" d="M 512 0 
L 512 3021 
L 909 3021 
L 909 2400 
Q 1030 2682 1273 2877 
Q 1517 3072 1869 3072 
Q 2125 3072 2307 2992 
Q 2490 2912 2579 2809 
Q 2669 2707 2720 2540 
Q 2771 2374 2777 2272 
Q 2784 2170 2784 2016 
L 2784 0 
L 2374 0 
L 2374 1990 
Q 2374 2106 2371 2176 
Q 2368 2246 2329 2368 
Q 2291 2490 2220 2563 
Q 2150 2637 2006 2694 
Q 1862 2752 1658 2752 
Q 1370 2752 1149 2518 
Q 928 2285 928 1677 
L 928 0 
L 512 0 
z
" transform="scale(0.015625)"/>
       <path id="CMUBright-Roman-69" d="M 509 4019 
L 509 4422 
L 912 4422 
L 912 4019 
L 509 4019 
z
M 512 0 
L 512 3021 
L 915 3021 
L 915 0 
L 512 0 
z
" transform="scale(0.015625)"/>
       <path id="CMUBright-Roman-74" d="M 122 2701 
L 122 3021 
L 736 3021 
L 736 3885 
L 1126 3885 
L 1126 3021 
L 2118 3021 
L 2118 2701 
L 1126 2701 
L 1126 883 
Q 1126 282 1491 282 
Q 1568 282 1638 291 
Q 1709 301 1769 323 
Q 1830 346 1878 365 
Q 1926 384 1974 416 
Q 2022 448 2048 464 
Q 2074 480 2109 512 
Q 2144 544 2150 544 
L 2234 230 
Q 1779 -51 1261 -51 
Q 730 -51 730 838 
L 730 2701 
L 122 2701 
z
" transform="scale(0.015625)"/>
       <path id="CMUBright-Roman-61" d="M 352 736 
Q 352 896 435 1046 
Q 518 1197 707 1347 
Q 896 1498 1283 1590 
Q 1670 1683 2214 1696 
L 2214 1965 
Q 2214 2381 2042 2579 
Q 1856 2803 1568 2803 
Q 1331 2803 1107 2736 
Q 883 2669 809 2624 
Q 736 2579 557 2470 
L 525 2829 
Q 1043 3104 1574 3104 
Q 2054 3104 2326 2806 
Q 2598 2509 2624 2144 
L 2630 1926 
L 2630 0 
L 2227 0 
L 2227 442 
Q 1830 -51 1107 -51 
L 1062 -51 
Q 710 -51 531 205 
Q 352 461 352 736 
z
M 749 749 
Q 749 518 950 393 
Q 1152 269 1408 269 
Q 1523 269 1644 297 
Q 1766 326 1904 390 
Q 2042 454 2128 595 
Q 2214 736 2214 928 
L 2214 1498 
Q 1568 1491 1158 1286 
Q 749 1082 749 749 
z
" transform="scale(0.015625)"/>
       <path id="CMUBright-Roman-6c" d="M 512 0 
L 512 4448 
L 915 4448 
L 915 0 
L 512 0 
z
" transform="scale(0.015625)"/>
       <path id="CMUBright-Roman-63" d="M 294 1517 
Q 294 2157 691 2630 
Q 1088 3104 1709 3104 
Q 2042 3104 2250 3046 
Q 2458 2989 2758 2829 
L 2694 2477 
Q 2502 2592 2403 2640 
Q 2304 2688 2125 2729 
Q 1946 2771 1709 2771 
Q 1254 2771 982 2432 
Q 710 2093 710 1523 
Q 717 915 1008 598 
Q 1299 282 1696 282 
Q 1958 282 2192 365 
Q 2426 448 2525 518 
Q 2624 589 2765 710 
L 2797 352 
Q 2304 -51 1690 -51 
Q 1107 -51 700 403 
Q 294 858 294 1517 
z
" transform="scale(0.015625)"/>
       <path id="CMUBright-Roman-6f" d="M 256 1510 
Q 256 2182 675 2640 
Q 1094 3098 1677 3098 
Q 2272 3098 2681 2627 
Q 3091 2157 3091 1510 
Q 3091 838 2668 393 
Q 2246 -51 1677 -51 
Q 1088 -51 672 406 
Q 256 864 256 1510 
z
M 666 1587 
Q 666 1190 771 915 
Q 877 640 1046 512 
Q 1216 384 1369 333 
Q 1523 282 1677 282 
Q 1843 282 2006 342 
Q 2170 403 2330 537 
Q 2490 672 2586 937 
Q 2682 1203 2682 1568 
Q 2682 1914 2586 2163 
Q 2490 2413 2330 2541 
Q 2170 2669 2006 2723 
Q 1843 2778 1676 2778 
Q 1510 2778 1347 2723 
Q 1184 2669 1024 2544 
Q 864 2419 765 2172 
Q 666 1926 666 1587 
z
" transform="scale(0.015625)"/>
       <path id="CMUBright-Roman-64" d="M 294 1510 
Q 294 2189 659 2630 
Q 1024 3072 1504 3072 
Q 2016 3072 2381 2624 
L 2381 4448 
L 2784 4448 
L 2784 0 
L 2374 0 
L 2374 269 
L 2368 467 
Q 2016 -51 1459 -51 
Q 966 -51 630 413 
Q 294 877 294 1510 
z
M 710 1510 
Q 710 1139 809 876 
Q 909 614 1065 492 
Q 1222 371 1369 320 
Q 1517 269 1664 269 
Q 2022 269 2259 582 
Q 2278 614 2304 652 
Q 2330 691 2339 707 
Q 2349 723 2358 752 
Q 2368 781 2371 816 
Q 2374 851 2374 902 
L 2374 2253 
Q 2374 2438 2179 2595 
Q 1984 2752 1722 2752 
Q 1619 2752 1504 2726 
Q 1389 2701 1241 2621 
Q 1094 2541 982 2413 
Q 870 2285 790 2048 
Q 710 1811 710 1510 
z
" transform="scale(0.015625)"/>
      </defs>
      <use xlink:href="#CMUBright-Roman-49"/>
      <use xlink:href="#CMUBright-Roman-6e" x="26.699997"/>
      <use xlink:href="#CMUBright-Roman-69" x="78.399994"/>
      <use xlink:href="#CMUBright-Roman-74" x="100.899979"/>
      <use xlink:href="#CMUBright-Roman-69" x="138.799973"/>
      <use xlink:href="#CMUBright-Roman-61" x="161.299957"/>
      <use xlink:href="#CMUBright-Roman-6c" x="210.499954"/>
      <use xlink:href="#CMUBright-Roman-20" x="232.999939"/>
      <use xlink:href="#CMUBright-Roman-63" x="266.299927"/>
      <use xlink:href="#CMUBright-Roman-6f" x="312.999924"/>
      <use xlink:href="#CMUBright-Roman-6e" x="365.499908"/>
      <use xlink:href="#CMUBright-Roman-64" x="417.199905"/>
      <use xlink:href="#CMUBright-Roman-69" x="468.899902"/>
      <use xlink:href="#CMUBright-Roman-74" x="491.399887"/>
      <use xlink:href="#CMUBright-Roman-69" x="529.299881"/>
      <use xlink:href="#CMUBright-Roman-6f" x="551.799866"/>
      <use xlink:href="#CMUBright-Roman-6e" x="604.29985"/>
     </g>
    </g>
    <g id="line2d_22">
     <path d="M 87.686879 64.850437 
L 101.686879 64.850437 
L 115.686879 64.850437 
" style="fill: none; stroke: #e29400; stroke-width: 4; stroke-linecap: square"/>
    </g>
    <g id="text_19">
     <!-- AM2, $\Delta t = 2.00e+00$ -->
     <g style="fill: #e29400" transform="translate(126.886879 69.750437) scale(0.14 -0.14)">
      <defs>
       <path id="CMUBright-Roman-41" d="M 186 0 
L 1914 4499 
L 2400 4499 
L 4128 0 
L 3661 0 
L 3142 1344 
L 1114 1344 
L 602 0 
L 186 0 
z
M 1248 1683 
L 3014 1683 
L 2234 3744 
L 2131 4032 
L 1248 1683 
z
" transform="scale(0.015625)"/>
       <path id="CMUBright-Roman-4d" d="M 646 0 
L 646 4448 
L 1235 4448 
L 2528 1274 
L 2822 518 
L 2912 774 
L 4397 4448 
L 4992 4448 
L 4992 0 
L 4589 0 
L 4589 4032 
L 4090 2752 
L 3008 109 
L 2624 109 
L 1280 3418 
L 1050 4032 
L 1050 0 
L 646 0 
z
" transform="scale(0.015625)"/>
       <path id="CMUBright-Roman-2c" d="M 678 0 
L 678 499 
L 1184 499 
L 1184 186 
L 1178 0 
L 934 -710 
L 678 -710 
L 832 0 
L 678 0 
z
" transform="scale(0.015625)"/>
       <path id="CMUBright-Roman-394" d="M 275 0 
L 2541 4499 
L 3046 4499 
L 5312 0 
L 275 0 
z
M 922 422 
L 4595 422 
L 2765 4064 
L 2758 4064 
L 922 422 
z
" transform="scale(0.015625)"/>
       <path id="CMUBright-Roman-2b" d="M 378 1690 
Q 378 1856 595 1856 
L 1888 1856 
L 1888 3142 
Q 1888 3366 2054 3366 
Q 2214 3366 2214 3149 
L 2214 1856 
L 3507 1856 
Q 3725 1856 3725 1690 
Q 3725 1530 3520 1530 
L 2214 1530 
L 2214 237 
Q 2214 13 2048 13 
Q 1888 13 1888 230 
L 1888 1530 
L 602 1530 
Q 378 1530 378 1690 
z
" transform="scale(0.015625)"/>
      </defs>
      <use xlink:href="#CMUBright-Roman-41" transform="translate(0 0.703125)"/>
      <use xlink:href="#CMUBright-Roman-4d" transform="translate(67.499985 0.703125)"/>
      <use xlink:href="#CMUBright-Roman-32" transform="translate(155.799973 0.703125)"/>
      <use xlink:href="#CMUBright-Roman-2c" transform="translate(208.299957 0.703125)"/>
      <use xlink:href="#CMUBright-Roman-20" transform="translate(237.499954 0.703125)"/>
      <use xlink:href="#CMUBright-Roman-394" transform="translate(270.799942 0.703125)"/>
      <use xlink:href="#CMUBright-Roman-74" transform="translate(358.299927 0.703125)"/>
      <use xlink:href="#CMUBright-Roman-3d" transform="translate(415.682343 0.703125)"/>
      <use xlink:href="#CMUBright-Roman-32" transform="translate(499.364761 0.703125)"/>
      <use xlink:href="#CMUBright-Roman-2e" transform="translate(551.864746 0.703125)"/>
      <use xlink:href="#CMUBright-Roman-30" transform="translate(581.064743 0.703125)"/>
      <use xlink:href="#CMUBright-Roman-30" transform="translate(633.564728 0.703125)"/>
      <use xlink:href="#CMUBright-Roman-65" transform="translate(686.064713 0.703125)"/>
      <use xlink:href="#CMUBright-Roman-2b" transform="translate(752.247131 0.703125)"/>
      <use xlink:href="#CMUBright-Roman-30" transform="translate(835.92955 0.703125)"/>
      <use xlink:href="#CMUBright-Roman-30" transform="translate(888.429535 0.703125)"/>
     </g>
    </g>
    <g id="line2d_23">
     <path d="M 87.686879 83.988875 
L 101.686879 83.988875 
L 115.686879 83.988875 
" style="fill: none; stroke: #1e90ff; stroke-width: 4; stroke-linecap: square"/>
    </g>
    <g id="text_20">
     <!-- AM2, $\Delta t = 2.00e-01$ -->
     <g style="fill: #1e90ff" transform="translate(126.886879 88.888875) scale(0.14 -0.14)">
      <defs>
       <path id="CMUBright-Roman-2212" d="M 378 1690 
Q 378 1856 602 1856 
L 3526 1856 
Q 3725 1850 3725 1690 
Q 3725 1530 3520 1530 
L 582 1530 
Q 378 1530 378 1690 
z
" transform="scale(0.015625)"/>
      </defs>
      <use xlink:href="#CMUBright-Roman-41" transform="translate(0 0.703125)"/>
      <use xlink:href="#CMUBright-Roman-4d" transform="translate(67.499985 0.703125)"/>
      <use xlink:href="#CMUBright-Roman-32" transform="translate(155.799973 0.703125)"/>
      <use xlink:href="#CMUBright-Roman-2c" transform="translate(208.299957 0.703125)"/>
      <use xlink:href="#CMUBright-Roman-20" transform="translate(237.499954 0.703125)"/>
      <use xlink:href="#CMUBright-Roman-394" transform="translate(270.799942 0.703125)"/>
      <use xlink:href="#CMUBright-Roman-74" transform="translate(358.299927 0.703125)"/>
      <use xlink:href="#CMUBright-Roman-3d" transform="translate(415.682343 0.703125)"/>
      <use xlink:href="#CMUBright-Roman-32" transform="translate(499.364761 0.703125)"/>
      <use xlink:href="#CMUBright-Roman-2e" transform="translate(551.864746 0.703125)"/>
      <use xlink:href="#CMUBright-Roman-30" transform="translate(581.064743 0.703125)"/>
      <use xlink:href="#CMUBright-Roman-30" transform="translate(633.564728 0.703125)"/>
      <use xlink:href="#CMUBright-Roman-65" transform="translate(686.064713 0.703125)"/>
      <use xlink:href="#CMUBright-Roman-2212" transform="translate(752.247131 0.703125)"/>
      <use xlink:href="#CMUBright-Roman-30" transform="translate(835.92955 0.703125)"/>
      <use xlink:href="#CMUBright-Roman-31" transform="translate(888.429535 0.703125)"/>
     </g>
    </g>
    <g id="line2d_24">
     <path d="M 87.686879 103.127312 
L 101.686879 103.127312 
L 115.686879 103.127312 
" style="fill: none; stroke: #e21a1a; stroke-width: 4; stroke-linecap: square"/>
    </g>
    <g id="text_21">
     <!-- AM2, $\Delta t = 3.12e-02$ -->
     <g style="fill: #e21a1a" transform="translate(126.886879 108.027312) scale(0.14 -0.14)">
      <defs>
       <path id="CMUBright-Roman-33" d="M 282 653 
Q 282 666 285 685 
Q 288 704 304 774 
Q 320 845 339 941 
Q 557 640 861 464 
Q 1165 288 1341 256 
Q 1517 224 1683 224 
Q 2112 224 2368 486 
Q 2624 749 2624 1165 
Q 2624 1574 2381 1824 
Q 2138 2074 1773 2099 
L 1555 2106 
L 1114 2106 
L 1114 2426 
Q 1709 2470 1862 2528 
Q 2099 2618 2281 2838 
Q 2464 3059 2464 3360 
Q 2464 3642 2256 3811 
Q 2048 3981 1702 3981 
Q 973 3981 570 3258 
L 371 3539 
Q 845 4301 1702 4301 
Q 2202 4301 2544 4025 
Q 2886 3750 2886 3360 
Q 2886 3059 2704 2761 
Q 2522 2464 2106 2272 
Q 2579 2144 2825 1833 
Q 3072 1523 3072 1158 
Q 3072 666 2685 278 
Q 2298 -109 1690 -109 
Q 1402 -109 1126 -9 
Q 851 90 675 221 
Q 499 352 390 473 
Q 282 595 282 653 
z
" transform="scale(0.015625)"/>
      </defs>
      <use xlink:href="#CMUBright-Roman-41" transform="translate(0 0.703125)"/>
      <use xlink:href="#CMUBright-Roman-4d" transform="translate(67.499985 0.703125)"/>
      <use xlink:href="#CMUBright-Roman-32" transform="translate(155.799973 0.703125)"/>
      <use xlink:href="#CMUBright-Roman-2c" transform="translate(208.299957 0.703125)"/>
      <use xlink:href="#CMUBright-Roman-20" transform="translate(237.499954 0.703125)"/>
      <use xlink:href="#CMUBright-Roman-394" transform="translate(270.799942 0.703125)"/>
      <use xlink:href="#CMUBright-Roman-74" transform="translate(358.299927 0.703125)"/>
      <use xlink:href="#CMUBright-Roman-3d" transform="translate(415.682343 0.703125)"/>
      <use xlink:href="#CMUBright-Roman-33" transform="translate(499.364761 0.703125)"/>
      <use xlink:href="#CMUBright-Roman-2e" transform="translate(551.864746 0.703125)"/>
      <use xlink:href="#CMUBright-Roman-31" transform="translate(581.064743 0.703125)"/>
      <use xlink:href="#CMUBright-Roman-32" transform="translate(633.564728 0.703125)"/>
      <use xlink:href="#CMUBright-Roman-65" transform="translate(686.064713 0.703125)"/>
      <use xlink:href="#CMUBright-Roman-2212" transform="translate(752.247131 0.703125)"/>
      <use xlink:href="#CMUBright-Roman-30" transform="translate(835.92955 0.703125)"/>
      <use xlink:href="#CMUBright-Roman-32" transform="translate(888.429535 0.703125)"/>
     </g>
    </g>
    <g id="line2d_25">
     <path d="M 87.686879 122.26575 
L 101.686879 122.26575 
L 115.686879 122.26575 
" style="fill: none; stroke-dasharray: 14.8,6.4; stroke-dashoffset: 0; stroke: #00a650; stroke-width: 4"/>
    </g>
    <g id="text_22">
     <!-- RK4, $\Delta t = 1.72e-02$ -->
     <g style="fill: #00a650" transform="translate(126.886879 127.16575) scale(0.14 -0.14)">
      <defs>
       <path id="CMUBright-Roman-52" d="M 627 0 
L 627 4448 
L 2099 4448 
Q 2579 4448 2947 4329 
Q 3315 4211 3513 4022 
Q 3712 3834 3811 3635 
Q 3910 3437 3910 3245 
Q 3910 2925 3692 2669 
Q 3475 2413 3209 2285 
Q 2944 2157 2675 2112 
L 4102 0 
L 3654 0 
L 2272 2061 
L 1069 2061 
L 1069 0 
L 627 0 
z
M 1069 2387 
L 2080 2387 
Q 2797 2387 3155 2630 
Q 3494 2861 3494 3245 
Q 3494 3552 3225 3805 
Q 2957 4058 2349 4096 
Q 2259 4102 2074 4102 
L 1069 4102 
L 1069 2387 
z
" transform="scale(0.015625)"/>
       <path id="CMUBright-Roman-4b" d="M 640 0 
L 640 4448 
L 1062 4448 
L 1062 1952 
L 3610 4448 
L 4128 4448 
L 2336 2688 
L 4224 0 
L 3738 0 
L 2048 2400 
L 1062 1434 
L 1062 0 
L 640 0 
z
" transform="scale(0.015625)"/>
       <path id="CMUBright-Roman-37" d="M 275 3840 
L 275 4192 
L 3072 4192 
L 3072 3853 
Q 2400 3149 1958 2147 
Q 1517 1146 1517 -51 
L 1088 -51 
Q 1088 1030 1523 2048 
Q 1958 3066 2797 3840 
L 275 3840 
z
" transform="scale(0.015625)"/>
      </defs>
      <use xlink:href="#CMUBright-Roman-52" transform="translate(0 0.703125)"/>
      <use xlink:href="#CMUBright-Roman-4b" transform="translate(67.099991 0.703125)"/>
      <use xlink:href="#CMUBright-Roman-34" transform="translate(137.499985 0.703125)"/>
      <use xlink:href="#CMUBright-Roman-2c" transform="translate(189.999969 0.703125)"/>
      <use xlink:href="#CMUBright-Roman-20" transform="translate(219.199966 0.703125)"/>
      <use xlink:href="#CMUBright-Roman-394" transform="translate(252.499954 0.703125)"/>
      <use xlink:href="#CMUBright-Roman-74" transform="translate(339.999939 0.703125)"/>
      <use xlink:href="#CMUBright-Roman-3d" transform="translate(397.382355 0.703125)"/>
      <use xlink:href="#CMUBright-Roman-31" transform="translate(481.064774 0.703125)"/>
      <use xlink:href="#CMUBright-Roman-2e" transform="translate(533.564758 0.703125)"/>
      <use xlink:href="#CMUBright-Roman-37" transform="translate(562.764755 0.703125)"/>
      <use xlink:href="#CMUBright-Roman-32" transform="translate(615.26474 0.703125)"/>
      <use xlink:href="#CMUBright-Roman-65" transform="translate(667.764725 0.703125)"/>
      <use xlink:href="#CMUBright-Roman-2212" transform="translate(733.947144 0.703125)"/>
      <use xlink:href="#CMUBright-Roman-30" transform="translate(817.629562 0.703125)"/>
      <use xlink:href="#CMUBright-Roman-32" transform="translate(870.129547 0.703125)"/>
     </g>
    </g>
   </g>
  </g>
 </g>
 <defs>
  <clipPath id="p151710a9a2">
   <rect x="75.086879" y="28.212" width="636.051433" height="349.545661"/>
  </clipPath>
 </defs>
</svg>