<?xml version="1.0" encoding="utf-8" standalone="no"?>
<!DOCTYPE svg PUBLIC "-//W3C//DTD SVG 1.1//EN"
  "http://www.w3.org/Graphics/SVG/1.1/DTD/svg11.dtd">
<svg xmlns:xlink="http://www.w3.org/1999/xlink" width="469.199298pt" height="353.99952pt" viewBox="0 0 469.199298 353.99952" xmlns="http://www.w3.org/2000/svg" version="1.1">
 <metadata>
  <rdf:RDF xmlns:dc="http://purl.org/dc/elements/1.1/" xmlns:cc="http://creativecommons.org/ns#" xmlns:rdf="http://www.w3.org/1999/02/22-rdf-syntax-ns#">
   <cc:Work>
    <dc:type rdf:resource="http://purl.org/dc/dcmitype/StillImage"/>
    <dc:date>2023-09-20T13:51:17.382770</dc:date>
    <dc:format>image/svg+xml</dc:format>
    <dc:creator>
     <cc:Agent>
      <dc:title>Matplotlib v3.7.2, https://matplotlib.org/</dc:title>
     </cc:Agent>
    </dc:creator>
   </cc:Work>
  </rdf:RDF>
 </metadata>
 <defs>
  <style type="text/css">*{stroke-linejoin: round; stroke-linecap: butt}</style>
 </defs>
 <g id="figure_1">
  <g id="patch_1">
   <path d="M 0 353.99952 
L 469.199298 353.99952 
L 469.199298 0 
L 0 0 
z
" style="fill: #ffffff"/>
  </g>
  <g id="axes_1">
   <g id="patch_2">
    <path d="M 78.205163 291.357661 
L 451.003678 291.357661 
L 451.003678 10.2 
L 78.205163 10.2 
z
" style="fill: #ffffff"/>
   </g>
   <g id="matplotlib.axis_1">
    <g id="xtick_1">
     <g id="line2d_1">
      <defs>
       <path id="m88aa0a9f62" d="M 0 0 
L 0 3.5 
" style="stroke: #5a5758; stroke-width: 0.8"/>
      </defs>
      <g>
       <use xlink:href="#m88aa0a9f62" x="242.476106" y="303.357661" style="fill: #5a5758; stroke: #5a5758; stroke-width: 0.8"/>
      </g>
     </g>
     <g id="text_1">
      <!-- $\mathdefault{10^{1}}$ -->
      <g style="fill: #5a5758" transform="translate(231.605456 320.778491) scale(0.14994 -0.14994)">
       <defs>
        <path id="CMUBright-Roman-31" d="M 672 3558 
C 1197 3558 1472 3706 1549 3744 
L 1549 320 
L 710 320 
L 710 0 
L 2803 0 
L 2803 320 
L 1965 320 
L 1965 4301 
L 1862 4301 
C 1696 4141 1389 3885 672 3885 
L 672 3558 
z
" transform="scale(0.015625)"/>
        <path id="CMUBright-Roman-30" d="M 333 1984 
C 333 218 1139 -109 1677 -109 
C 2022 -109 2528 38 2803 685 
C 3008 1165 3021 1626 3021 2214 
C 3021 3974 2214 4301 1677 4301 
C 1555 4301 1414 4288 1261 4230 
C 358 3898 333 2694 333 2086 
L 333 1984 
z
M 742 2413 
C 742 2701 768 3302 1005 3642 
C 1139 3834 1389 3981 1677 3981 
C 1933 3981 2182 3866 2336 3661 
C 2592 3328 2611 2701 2611 2406 
C 2611 2342 2605 2298 2605 2272 
L 2605 2163 
C 2605 1613 2598 934 2330 557 
C 2195 371 1958 218 1677 218 
C 1427 218 1190 339 1037 538 
C 755 909 749 1594 749 2150 
L 749 2272 
C 749 2298 742 2349 742 2413 
z
" transform="scale(0.015625)"/>
       </defs>
       <use xlink:href="#CMUBright-Roman-31" transform="translate(0 0.915625)"/>
       <use xlink:href="#CMUBright-Roman-30" transform="translate(52.499985 0.915625)"/>
       <use xlink:href="#CMUBright-Roman-31" transform="translate(105.826024 33.957813) scale(0.7)"/>
      </g>
     </g>
    </g>
    <g id="xtick_2">
     <g id="line2d_2">
      <defs>
       <path id="m791b33e67b" d="M 0 0 
L 0 2 
" style="stroke: #5a5758; stroke-width: 0.6"/>
      </defs>
      <g>
       <use xlink:href="#m791b33e67b" x="78.205163" y="303.357661" style="fill: #5a5758; stroke: #5a5758; stroke-width: 0.6"/>
      </g>
     </g>
     <g id="text_2">
      <!-- $\mathdefault{4\times10^{0}}$ -->
      <g style="fill: #5a5758" transform="translate(55.639193 319.178491) scale(0.14994 -0.14994)">
       <defs>
        <path id="CMUBright-Roman-34" d="M 186 1158 
L 2035 1158 
L 2035 0 
L 2438 0 
L 2438 1158 
L 3168 1158 
L 3168 1498 
L 2438 1498 
L 2438 4250 
L 1952 4250 
L 186 1504 
L 186 1158 
z
M 602 1498 
L 1606 3085 
C 1901 3552 1990 3712 2054 3885 
L 2054 1498 
L 602 1498 
z
" transform="scale(0.015625)"/>
        <path id="CMUBright-Roman-d7" d="M 832 595 
C 838 525 883 486 954 474 
L 986 474 
L 1018 486 
L 1082 544 
L 2048 1510 
C 3059 499 3078 467 3142 467 
C 3149 467 3149 474 3155 474 
C 3213 474 3270 518 3270 576 
C 3264 685 3302 627 2234 1690 
L 2234 1696 
C 3302 2758 3270 2720 3270 2790 
C 3270 2842 3226 2906 3149 2906 
C 3066 2906 3066 2880 2054 1869 
C 1043 2880 1030 2912 966 2912 
L 954 2912 
C 890 2912 832 2854 832 2803 
C 838 2701 800 2765 1869 1696 
L 1869 1690 
L 902 723 
L 851 659 
L 838 627 
L 832 595 
z
" transform="scale(0.015625)"/>
       </defs>
       <use xlink:href="#CMUBright-Roman-34" transform="translate(0 0.915625)"/>
       <use xlink:href="#CMUBright-Roman-d7" transform="translate(71.982407 0.915625)"/>
       <use xlink:href="#CMUBright-Roman-31" transform="translate(155.664825 0.915625)"/>
       <use xlink:href="#CMUBright-Roman-30" transform="translate(208.16481 0.915625)"/>
       <use xlink:href="#CMUBright-Roman-30" transform="translate(261.49085 33.957813) scale(0.7)"/>
      </g>
     </g>
    </g>
    <g id="xtick_3">
     <g id="line2d_3">
      <g>
       <use xlink:href="#m791b33e67b" x="118.209934" y="303.357661" style="fill: #5a5758; stroke: #5a5758; stroke-width: 0.6"/>
      </g>
     </g>
    </g>
    <g id="xtick_4">
     <g id="line2d_4">
      <g>
       <use xlink:href="#m791b33e67b" x="150.896213" y="303.357661" style="fill: #5a5758; stroke: #5a5758; stroke-width: 0.6"/>
      </g>
     </g>
     <g id="text_3">
      <!-- $\mathdefault{6\times10^{0}}$ -->
      <g style="fill: #5a5758" transform="translate(128.330243 319.178491) scale(0.14994 -0.14994)">
       <defs>
        <path id="CMUBright-Roman-36" d="M 346 2061 
C 346 269 1152 -109 1690 -109 
C 2125 -109 2394 70 2618 326 
C 2899 646 3008 954 3008 1408 
C 3008 1837 2931 2138 2682 2483 
C 2502 2726 2298 2886 1952 2886 
C 1382 2886 960 2522 774 2125 
C 774 2150 768 2182 768 2208 
C 768 3264 1286 3981 2061 3981 
L 2074 3981 
C 2349 3981 2515 3936 2797 3846 
L 2797 4179 
C 2522 4269 2349 4301 2086 4301 
L 2074 4301 
C 1203 4301 346 3469 346 2061 
z
M 794 1389 
L 806 1389 
C 800 1440 800 1504 800 1555 
C 800 2080 1171 2566 1728 2566 
C 1926 2566 2106 2522 2253 2400 
C 2573 2131 2586 1754 2586 1434 
C 2586 1069 2579 819 2381 550 
C 2221 333 2016 224 1690 224 
C 966 224 838 934 794 1389 
z
" transform="scale(0.015625)"/>
       </defs>
       <use xlink:href="#CMUBright-Roman-36" transform="translate(0 0.915625)"/>
       <use xlink:href="#CMUBright-Roman-d7" transform="translate(71.982407 0.915625)"/>
       <use xlink:href="#CMUBright-Roman-31" transform="translate(155.664825 0.915625)"/>
       <use xlink:href="#CMUBright-Roman-30" transform="translate(208.16481 0.915625)"/>
       <use xlink:href="#CMUBright-Roman-30" transform="translate(261.49085 33.957813) scale(0.7)"/>
      </g>
     </g>
    </g>
    <g id="xtick_5">
     <g id="line2d_5">
      <g>
       <use xlink:href="#m791b33e67b" x="178.532068" y="303.357661" style="fill: #5a5758; stroke: #5a5758; stroke-width: 0.6"/>
      </g>
     </g>
    </g>
    <g id="xtick_6">
     <g id="line2d_6">
      <g>
       <use xlink:href="#m791b33e67b" x="202.471334" y="303.357661" style="fill: #5a5758; stroke: #5a5758; stroke-width: 0.6"/>
      </g>
     </g>
    </g>
    <g id="xtick_7">
     <g id="line2d_7">
      <g>
       <use xlink:href="#m791b33e67b" x="223.587264" y="303.357661" style="fill: #5a5758; stroke: #5a5758; stroke-width: 0.6"/>
      </g>
     </g>
    </g>
    <g id="xtick_8">
     <g id="line2d_8">
      <g>
       <use xlink:href="#m791b33e67b" x="366.742278" y="303.357661" style="fill: #5a5758; stroke: #5a5758; stroke-width: 0.6"/>
      </g>
     </g>
     <g id="text_4">
      <!-- $\mathdefault{2\times10^{1}}$ -->
      <g style="fill: #5a5758" transform="translate(344.176308 319.178491) scale(0.14994 -0.14994)">
       <defs>
        <path id="CMUBright-Roman-32" d="M 275 3226 
L 512 2938 
C 653 3475 864 3962 1498 3962 
C 2106 3962 2592 3571 2592 2982 
C 2592 2413 2214 2022 1683 1562 
L 333 339 
L 333 0 
L 3021 0 
L 3021 358 
L 698 358 
C 1773 1325 1638 1210 2061 1549 
C 2438 1856 3021 2304 3021 2989 
C 3021 3744 2419 4294 1594 4301 
L 1587 4301 
C 800 4301 442 3782 275 3226 
z
" transform="scale(0.015625)"/>
       </defs>
       <use xlink:href="#CMUBright-Roman-32" transform="translate(0 0.915625)"/>
       <use xlink:href="#CMUBright-Roman-d7" transform="translate(71.982407 0.915625)"/>
       <use xlink:href="#CMUBright-Roman-31" transform="translate(155.664825 0.915625)"/>
       <use xlink:href="#CMUBright-Roman-30" transform="translate(208.16481 0.915625)"/>
       <use xlink:href="#CMUBright-Roman-31" transform="translate(261.49085 33.957813) scale(0.7)"/>
      </g>
     </g>
    </g>
    <g id="xtick_9">
     <g id="line2d_9">
      <g>
       <use xlink:href="#m791b33e67b" x="439.433328" y="303.357661" style="fill: #5a5758; stroke: #5a5758; stroke-width: 0.6"/>
      </g>
     </g>
     <g id="text_5">
      <!-- $\mathdefault{3\times10^{1}}$ -->
      <g style="fill: #5a5758" transform="translate(416.867358 319.178491) scale(0.14994 -0.14994)">
       <defs>
        <path id="CMUBright-Roman-33" d="M 282 653 
C 282 512 864 -109 1690 -109 
C 2541 -109 3072 544 3072 1158 
C 3072 1606 2771 2093 2106 2272 
C 2720 2554 2886 3027 2886 3360 
C 2886 3872 2374 4301 1702 4301 
C 1434 4301 800 4230 371 3539 
L 570 3258 
C 666 3430 979 3981 1702 3981 
C 2163 3981 2464 3731 2464 3360 
C 2464 2925 2131 2630 1862 2528 
C 1728 2477 1715 2470 1114 2426 
L 1114 2106 
L 1555 2106 
L 1773 2099 
C 2234 2067 2624 1734 2624 1165 
C 2624 621 2259 224 1683 224 
C 1472 224 819 275 339 941 
C 294 710 282 678 282 653 
z
" transform="scale(0.015625)"/>
       </defs>
       <use xlink:href="#CMUBright-Roman-33" transform="translate(0 0.915625)"/>
       <use xlink:href="#CMUBright-Roman-d7" transform="translate(71.982407 0.915625)"/>
       <use xlink:href="#CMUBright-Roman-31" transform="translate(155.664825 0.915625)"/>
       <use xlink:href="#CMUBright-Roman-30" transform="translate(208.16481 0.915625)"/>
       <use xlink:href="#CMUBright-Roman-31" transform="translate(261.49085 33.957813) scale(0.7)"/>
      </g>
     </g>
    </g>
    <g id="text_6">
     <!-- $N$ = number of intervals -->
     <g style="fill: #5a5758" transform="translate(172.62442 343.792957) scale(0.18 -0.18)">
      <defs>
       <path id="CMUBright-SemiBold-4e" d="M 531 0 
L 1133 0 
L 1133 3846 
L 3059 0 
L 3994 0 
L 3994 4448 
L 3398 4448 
L 3398 602 
L 1466 4448 
L 531 4448 
L 531 0 
z
" transform="scale(0.015625)"/>
       <path id="CMUBright-SemiBold-20" transform="scale(0.015625)"/>
       <path id="CMUBright-SemiBold-3d" d="M 371 1069 
C 371 1005 403 832 666 826 
L 3424 826 
C 3699 826 3725 992 3725 1069 
C 3725 1306 3501 1312 3437 1312 
L 730 1312 
C 678 1312 627 1312 576 1306 
C 435 1280 371 1165 371 1069 
z
M 371 2310 
C 371 2253 403 2074 659 2074 
L 3437 2074 
C 3699 2074 3731 2240 3731 2310 
C 3731 2547 3494 2554 3424 2554 
L 691 2554 
C 595 2554 371 2541 371 2310 
z
" transform="scale(0.015625)"/>
       <path id="CMUBright-SemiBold-6e" d="M 410 0 
L 1024 0 
L 1024 1728 
C 1024 1946 1075 2592 1651 2592 
C 2259 2592 2272 2227 2272 2022 
L 2272 0 
L 2886 0 
L 2886 2016 
C 2886 2394 2867 3072 1971 3072 
C 1389 3072 1107 2669 1005 2496 
L 998 2714 
L 998 3021 
L 410 3021 
L 410 0 
z
" transform="scale(0.015625)"/>
       <path id="CMUBright-SemiBold-75" d="M 410 838 
C 410 467 435 -51 1088 -51 
C 1536 -51 1971 115 2285 480 
L 2285 0 
L 2886 0 
L 2886 3021 
L 2272 3021 
L 2272 1197 
C 2272 1133 2272 1062 2266 998 
C 2246 832 2093 403 1510 403 
C 1005 403 1030 493 1024 883 
L 1024 3021 
L 410 3021 
L 410 838 
z
" transform="scale(0.015625)"/>
       <path id="CMUBright-SemiBold-6d" d="M 410 0 
L 1024 0 
L 1024 1728 
C 1024 2413 1382 2592 1645 2592 
C 2304 2592 2266 2176 2272 1984 
L 2272 0 
L 2893 0 
L 2893 1728 
C 2893 2413 3245 2592 3507 2592 
C 4166 2592 4134 2176 4141 1984 
L 4141 0 
L 4755 0 
L 4755 2016 
C 4755 2419 4723 3072 3840 3072 
C 3341 3072 3021 2771 2854 2470 
C 2810 2598 2714 3072 1971 3072 
C 1491 3072 1178 2790 1005 2496 
L 998 2714 
L 998 3021 
L 410 3021 
L 410 0 
z
" transform="scale(0.015625)"/>
       <path id="CMUBright-SemiBold-62" d="M 416 0 
L 1030 0 
L 1030 333 
C 1184 179 1434 -51 1856 -51 
C 2515 -51 3078 614 3078 1530 
C 3078 2330 2675 3072 2074 3072 
C 1843 3072 1414 3027 1018 2675 
L 1018 4448 
L 416 4448 
L 416 0 
z
M 1030 832 
L 1030 2323 
C 1101 2387 1274 2592 1632 2592 
C 1843 2592 2067 2528 2227 2362 
C 2438 2144 2464 1824 2464 1530 
C 2464 1318 2451 1101 2368 909 
C 2189 493 1760 429 1562 429 
C 1306 429 1030 595 1030 832 
z
" transform="scale(0.015625)"/>
       <path id="CMUBright-SemiBold-65" d="M 186 1530 
C 186 710 794 -51 1709 -51 
C 2144 -51 2496 90 2784 275 
L 2739 794 
C 2598 691 2240 429 1709 429 
C 1197 429 762 890 762 1536 
L 762 1600 
L 2822 1600 
C 2816 2848 2093 3104 1606 3104 
C 832 3104 186 2413 186 1530 
z
M 838 1978 
C 973 2387 1293 2618 1600 2618 
C 2067 2618 2234 2240 2298 1978 
L 838 1978 
z
" transform="scale(0.015625)"/>
       <path id="CMUBright-SemiBold-72" d="M 416 0 
L 1018 0 
L 1018 1517 
C 1018 2330 1715 2522 2112 2528 
L 2112 3072 
C 1434 3059 1107 2579 992 2368 
L 992 3021 
L 416 3021 
L 416 0 
z
" transform="scale(0.015625)"/>
       <path id="CMUBright-SemiBold-6f" d="M 186 1504 
C 186 582 902 -51 1677 -51 
C 2477 -51 3168 608 3168 1498 
C 3168 2330 2541 3098 1677 3098 
C 883 3098 186 2413 186 1504 
z
M 800 1594 
C 800 2509 1357 2618 1677 2618 
C 2131 2618 2554 2387 2554 1606 
C 2554 1274 2528 928 2291 685 
C 2125 512 1894 448 1677 448 
C 1434 448 1197 531 1037 717 
C 832 960 800 1280 800 1594 
z
" transform="scale(0.015625)"/>
       <path id="CMUBright-SemiBold-66" d="M 179 2541 
L 627 2541 
L 627 0 
L 1229 0 
L 1229 2541 
L 1920 2541 
L 1920 3021 
L 1216 3021 
L 1216 3610 
C 1216 3936 1555 4013 1779 4013 
C 2029 4013 2195 3949 2323 3904 
L 2323 4448 
C 2061 4493 1901 4499 1792 4499 
C 1536 4499 1242 4435 1005 4237 
C 672 3968 627 3699 627 3360 
L 627 3021 
L 179 3021 
L 179 2541 
z
" transform="scale(0.015625)"/>
       <path id="CMUBright-SemiBold-69" d="M 416 3840 
L 1018 3840 
L 1018 4442 
L 416 4442 
L 416 3840 
z
M 416 0 
L 1018 0 
L 1018 3021 
L 416 3021 
L 416 0 
z
" transform="scale(0.015625)"/>
       <path id="CMUBright-SemiBold-74" d="M 122 2541 
L 634 2541 
L 634 1005 
C 634 589 685 -51 1197 -51 
C 1510 -51 1869 13 2234 211 
L 2106 672 
C 2003 595 1830 448 1555 448 
C 1357 448 1222 608 1222 1075 
L 1222 2541 
L 2118 2541 
L 2118 3021 
L 1222 3021 
L 1222 3885 
L 646 3885 
L 646 3021 
L 122 3021 
L 122 2541 
z
" transform="scale(0.015625)"/>
       <path id="CMUBright-SemiBold-76" d="M 90 3021 
L 1114 -19 
L 1811 -19 
L 2835 3021 
L 2240 3021 
L 1562 960 
L 1466 614 
C 1408 858 1171 1587 691 3021 
L 90 3021 
z
" transform="scale(0.015625)"/>
       <path id="CMUBright-SemiBold-61" d="M 250 851 
C 250 474 493 -51 1043 -51 
C 1421 -51 1869 90 2125 410 
L 2131 230 
L 2131 0 
L 2733 0 
L 2733 1933 
L 2726 2144 
C 2688 2650 2240 3104 1581 3104 
C 1139 3104 832 2995 512 2829 
L 557 2291 
C 909 2547 1120 2637 1568 2650 
C 1658 2650 1901 2643 2048 2355 
C 2118 2221 2112 2125 2112 1971 
L 2112 1747 
C 1101 1715 250 1446 250 851 
z
M 845 864 
C 845 1216 1350 1414 2112 1446 
L 2112 1043 
C 2112 954 2112 864 2074 781 
C 1971 557 1683 429 1408 429 
C 1101 429 845 602 845 864 
z
" transform="scale(0.015625)"/>
       <path id="CMUBright-SemiBold-6c" d="M 416 0 
L 1018 0 
L 1018 4448 
L 416 4448 
L 416 0 
z
" transform="scale(0.015625)"/>
       <path id="CMUBright-SemiBold-73" d="M 186 250 
C 531 58 890 -51 1325 -51 
C 2227 -51 2419 512 2419 890 
C 2419 1299 2157 1568 1914 1702 
C 1632 1856 1242 1882 1062 1939 
C 883 1997 781 2138 781 2272 
C 781 2413 870 2624 1261 2624 
C 1651 2624 1901 2541 2227 2362 
L 2323 2886 
C 1952 3046 1715 3104 1331 3104 
C 390 3104 224 2534 224 2202 
C 224 1734 595 1453 902 1350 
C 1248 1229 1862 1261 1862 838 
C 1862 685 1760 448 1318 448 
C 806 448 493 653 282 800 
L 186 250 
z
" transform="scale(0.015625)"/>
      </defs>
      <use xlink:href="#CMUBright-SemiBold-4e" transform="translate(0 0.703125)"/>
      <use xlink:href="#CMUBright-SemiBold-20" transform="translate(70.799988 0.703125)"/>
      <use xlink:href="#CMUBright-SemiBold-3d" transform="translate(104.099976 0.703125)"/>
      <use xlink:href="#CMUBright-SemiBold-20" transform="translate(168.299973 0.703125)"/>
      <use xlink:href="#CMUBright-SemiBold-6e" transform="translate(201.59996 0.703125)"/>
      <use xlink:href="#CMUBright-SemiBold-75" transform="translate(253.299957 0.703125)"/>
      <use xlink:href="#CMUBright-SemiBold-6d" transform="translate(304.999954 0.703125)"/>
      <use xlink:href="#CMUBright-SemiBold-62" transform="translate(385.799942 0.703125)"/>
      <use xlink:href="#CMUBright-SemiBold-65" transform="translate(437.499939 0.703125)"/>
      <use xlink:href="#CMUBright-SemiBold-72" transform="translate(484.59993 0.703125)"/>
      <use xlink:href="#CMUBright-SemiBold-20" transform="translate(519.199921 0.703125)"/>
      <use xlink:href="#CMUBright-SemiBold-6f" transform="translate(552.499908 0.703125)"/>
      <use xlink:href="#CMUBright-SemiBold-66" transform="translate(604.999893 0.703125)"/>
      <use xlink:href="#CMUBright-SemiBold-20" transform="translate(637.099884 0.703125)"/>
      <use xlink:href="#CMUBright-SemiBold-69" transform="translate(670.399872 0.703125)"/>
      <use xlink:href="#CMUBright-SemiBold-6e" transform="translate(692.899857 0.703125)"/>
      <use xlink:href="#CMUBright-SemiBold-74" transform="translate(744.599854 0.703125)"/>
      <use xlink:href="#CMUBright-SemiBold-65" transform="translate(782.499847 0.703125)"/>
      <use xlink:href="#CMUBright-SemiBold-72" transform="translate(829.599838 0.703125)"/>
      <use xlink:href="#CMUBright-SemiBold-76" transform="translate(864.199829 0.703125)"/>
      <use xlink:href="#CMUBright-SemiBold-61" transform="translate(909.999817 0.703125)"/>
      <use xlink:href="#CMUBright-SemiBold-6c" transform="translate(959.199814 0.703125)"/>
      <use xlink:href="#CMUBright-SemiBold-73" transform="translate(981.699799 0.703125)"/>
     </g>
    </g>
   </g>
   <g id="matplotlib.axis_2">
    <g id="ytick_1">
     <g id="line2d_10">
      <defs>
       <path id="m900f6d98d9" d="M 0 0 
L -3.5 0 
" style="stroke: #5a5758; stroke-width: 0.8"/>
      </defs>
      <g>
       <use xlink:href="#m900f6d98d9" x="66.205163" y="219.476358" style="fill: #5a5758; stroke: #5a5758; stroke-width: 0.8"/>
      </g>
     </g>
     <g id="text_7">
      <!-- $\mathdefault{10^{-3}}$ -->
      <g style="fill: #5a5758" transform="translate(30.716563 224.686773) scale(0.14994 -0.14994)">
       <defs>
        <path id="CMUBright-Roman-2212" d="M 378 1690 
C 378 1626 403 1530 582 1530 
L 3520 1530 
C 3693 1530 3725 1626 3725 1690 
C 3725 1754 3699 1850 3526 1856 
L 602 1856 
C 410 1856 378 1754 378 1690 
z
" transform="scale(0.015625)"/>
       </defs>
       <use xlink:href="#CMUBright-Roman-31" transform="translate(0 0.915625)"/>
       <use xlink:href="#CMUBright-Roman-30" transform="translate(52.499985 0.915625)"/>
       <use xlink:href="#CMUBright-Roman-2212" transform="translate(105.826024 33.957813) scale(0.7)"/>
       <use xlink:href="#CMUBright-Roman-33" transform="translate(150.766022 33.957813) scale(0.7)"/>
      </g>
     </g>
    </g>
    <g id="ytick_2">
     <g id="line2d_11">
      <g>
       <use xlink:href="#m900f6d98d9" x="66.205163" y="41.119993" style="fill: #5a5758; stroke: #5a5758; stroke-width: 0.8"/>
      </g>
     </g>
     <g id="text_8">
      <!-- $\mathdefault{10^{-2}}$ -->
      <g style="fill: #5a5758" transform="translate(30.716563 46.330408) scale(0.14994 -0.14994)">
       <use xlink:href="#CMUBright-Roman-31" transform="translate(0 0.915625)"/>
       <use xlink:href="#CMUBright-Roman-30" transform="translate(52.499985 0.915625)"/>
       <use xlink:href="#CMUBright-Roman-2212" transform="translate(105.826024 33.957813) scale(0.7)"/>
       <use xlink:href="#CMUBright-Roman-32" transform="translate(150.766022 33.957813) scale(0.7)"/>
      </g>
     </g>
    </g>
    <g id="ytick_3">
     <g id="line2d_12">
      <defs>
       <path id="mae46554a47" d="M 0 0 
L -2 0 
" style="stroke: #5a5758; stroke-width: 0.6"/>
      </defs>
      <g>
       <use xlink:href="#mae46554a47" x="66.205163" y="290.451491" style="fill: #5a5758; stroke: #5a5758; stroke-width: 0.6"/>
      </g>
     </g>
    </g>
    <g id="ytick_4">
     <g id="line2d_13">
      <g>
       <use xlink:href="#mae46554a47" x="66.205163" y="273.166973" style="fill: #5a5758; stroke: #5a5758; stroke-width: 0.6"/>
      </g>
     </g>
    </g>
    <g id="ytick_5">
     <g id="line2d_14">
      <g>
       <use xlink:href="#mae46554a47" x="66.205163" y="259.044494" style="fill: #5a5758; stroke: #5a5758; stroke-width: 0.6"/>
      </g>
     </g>
    </g>
    <g id="ytick_6">
     <g id="line2d_15">
      <g>
       <use xlink:href="#mae46554a47" x="66.205163" y="247.104108" style="fill: #5a5758; stroke: #5a5758; stroke-width: 0.6"/>
      </g>
     </g>
    </g>
    <g id="ytick_7">
     <g id="line2d_16">
      <g>
       <use xlink:href="#mae46554a47" x="66.205163" y="236.760875" style="fill: #5a5758; stroke: #5a5758; stroke-width: 0.6"/>
      </g>
     </g>
    </g>
    <g id="ytick_8">
     <g id="line2d_17">
      <g>
       <use xlink:href="#mae46554a47" x="66.205163" y="227.637497" style="fill: #5a5758; stroke: #5a5758; stroke-width: 0.6"/>
      </g>
     </g>
    </g>
    <g id="ytick_9">
     <g id="line2d_18">
      <g>
       <use xlink:href="#mae46554a47" x="66.205163" y="165.785742" style="fill: #5a5758; stroke: #5a5758; stroke-width: 0.6"/>
      </g>
     </g>
    </g>
    <g id="ytick_10">
     <g id="line2d_19">
      <g>
       <use xlink:href="#mae46554a47" x="66.205163" y="134.378745" style="fill: #5a5758; stroke: #5a5758; stroke-width: 0.6"/>
      </g>
     </g>
    </g>
    <g id="ytick_11">
     <g id="line2d_20">
      <g>
       <use xlink:href="#mae46554a47" x="66.205163" y="112.095127" style="fill: #5a5758; stroke: #5a5758; stroke-width: 0.6"/>
      </g>
     </g>
    </g>
    <g id="ytick_12">
     <g id="line2d_21">
      <g>
       <use xlink:href="#mae46554a47" x="66.205163" y="94.810609" style="fill: #5a5758; stroke: #5a5758; stroke-width: 0.6"/>
      </g>
     </g>
    </g>
    <g id="ytick_13">
     <g id="line2d_22">
      <g>
       <use xlink:href="#mae46554a47" x="66.205163" y="80.68813" style="fill: #5a5758; stroke: #5a5758; stroke-width: 0.6"/>
      </g>
     </g>
    </g>
    <g id="ytick_14">
     <g id="line2d_23">
      <g>
       <use xlink:href="#mae46554a47" x="66.205163" y="68.747744" style="fill: #5a5758; stroke: #5a5758; stroke-width: 0.6"/>
      </g>
     </g>
    </g>
    <g id="ytick_15">
     <g id="line2d_24">
      <g>
       <use xlink:href="#mae46554a47" x="66.205163" y="58.404511" style="fill: #5a5758; stroke: #5a5758; stroke-width: 0.6"/>
      </g>
     </g>
    </g>
    <g id="ytick_16">
     <g id="line2d_25">
      <g>
       <use xlink:href="#mae46554a47" x="66.205163" y="49.281133" style="fill: #5a5758; stroke: #5a5758; stroke-width: 0.6"/>
      </g>
     </g>
    </g>
    <g id="text_9">
     <!-- $L 2$ error -->
     <g style="fill: #5a5758" transform="translate(19.71 181.91883) rotate(-90) scale(0.18 -0.18)">
      <defs>
       <path id="CMUBright-SemiBold-4c" d="M 512 0 
L 3341 0 
L 3341 512 
L 1184 512 
L 1184 4448 
L 512 4448 
L 512 0 
z
" transform="scale(0.015625)"/>
       <path id="CMUBright-SemiBold-32" d="M 275 3373 
L 627 2938 
C 742 3379 960 3795 1491 3795 
C 2029 3795 2381 3398 2381 2906 
C 2381 2400 2048 2048 1574 1645 
C 1139 1274 1222 1350 333 512 
L 333 0 
L 3021 0 
L 3021 538 
L 877 538 
C 1517 1107 1728 1299 1952 1478 
C 2541 1939 3021 2298 3021 2918 
C 3021 3642 2496 4301 1581 4301 
C 1075 4301 538 4115 275 3373 
z
" transform="scale(0.015625)"/>
      </defs>
      <use xlink:href="#CMUBright-SemiBold-4c" transform="translate(0 0.5)"/>
      <use xlink:href="#CMUBright-SemiBold-32" transform="translate(56.699997 0.5)"/>
      <use xlink:href="#CMUBright-SemiBold-20" transform="translate(109.199982 0.5)"/>
      <use xlink:href="#CMUBright-SemiBold-65" transform="translate(142.499969 0.5)"/>
      <use xlink:href="#CMUBright-SemiBold-72" transform="translate(189.59996 0.5)"/>
      <use xlink:href="#CMUBright-SemiBold-72" transform="translate(224.199951 0.5)"/>
      <use xlink:href="#CMUBright-SemiBold-6f" transform="translate(258.799942 0.5)"/>
      <use xlink:href="#CMUBright-SemiBold-72" transform="translate(311.299927 0.5)"/>
     </g>
    </g>
   </g>
   <g id="line2d_26">
    <path d="M 78.205163 10.2 
L 202.471334 93.779428 
L 326.737506 189.652434 
L 451.003678 291.357661 
" style="fill: none; stroke: #e29400; stroke-width: 2; stroke-linecap: square"/>
    <defs>
     <path id="md6aa94d069" d="M 0 3 
C 0.795609 3 1.55874 2.683901 2.12132 2.12132 
C 2.683901 1.55874 3 0.795609 3 0 
C 3 -0.795609 2.683901 -1.55874 2.12132 -2.12132 
C 1.55874 -2.683901 0.795609 -3 0 -3 
C -0.795609 -3 -1.55874 -2.683901 -2.12132 -2.12132 
C -2.683901 -1.55874 -3 -0.795609 -3 0 
C -3 0.795609 -2.683901 1.55874 -2.12132 2.12132 
C -1.55874 2.683901 -0.795609 3 0 3 
z
" style="stroke: #ffffff"/>
    </defs>
    <g>
     <use xlink:href="#md6aa94d069" x="78.205163" y="10.2" style="fill: #e29400; stroke: #ffffff"/>
     <use xlink:href="#md6aa94d069" x="202.471334" y="93.779428" style="fill: #e29400; stroke: #ffffff"/>
     <use xlink:href="#md6aa94d069" x="326.737506" y="189.652434" style="fill: #e29400; stroke: #ffffff"/>
     <use xlink:href="#md6aa94d069" x="451.003678" y="291.357661" style="fill: #e29400; stroke: #ffffff"/>
    </g>
   </g>
   <g id="patch_3">
    <path d="M 66.205163 291.357661 
L 66.205163 10.2 
" style="fill: none; stroke: #5a5758; stroke-width: 0.8; stroke-linejoin: miter; stroke-linecap: square"/>
   </g>
   <g id="patch_4">
    <path d="M 78.205163 303.357661 
L 451.003678 303.357661 
" style="fill: none; stroke: #5a5758; stroke-width: 0.8; stroke-linejoin: miter; stroke-linecap: square"/>
   </g>
   <g id="legend_1">
    <g id="line2d_27">
     <path d="M 281.497115 32.7 
L 299.497115 32.7 
L 317.497115 32.7 
" style="fill: none; stroke: #e29400; stroke-width: 2; stroke-linecap: square"/>
     <g>
      <use xlink:href="#md6aa94d069" x="299.497115" y="32.7" style="fill: #e29400; stroke: #ffffff"/>
     </g>
    </g>
    <g id="text_10">
     <!-- rate =  1.894 -->
     <g style="fill: #5a5758" transform="translate(331.897115 39) scale(0.18 -0.18)">
      <defs>
       <path id="CMUBright-Roman-72" d="M 512 0 
L 915 0 
L 915 1510 
C 915 2400 1600 2701 2112 2714 
L 2112 3072 
C 1376 3059 1024 2528 902 2234 
L 896 2534 
L 896 3021 
L 512 3021 
L 512 0 
z
" transform="scale(0.015625)"/>
       <path id="CMUBright-Roman-61" d="M 352 736 
C 352 442 538 -51 1062 -51 
L 1107 -51 
C 1523 -51 1952 102 2227 442 
L 2227 0 
L 2630 0 
L 2630 1926 
L 2624 2144 
C 2592 2560 2272 3104 1574 3104 
C 1158 3104 851 3002 525 2829 
L 557 2470 
C 762 2598 1050 2803 1568 2803 
C 1638 2803 1862 2797 2042 2579 
C 2202 2394 2214 2189 2214 1965 
L 2214 1696 
C 691 1664 352 1120 352 736 
z
M 749 749 
C 749 1197 1357 1491 2214 1498 
L 2214 928 
C 2214 378 1664 269 1408 269 
C 1107 269 749 422 749 749 
z
" transform="scale(0.015625)"/>
       <path id="CMUBright-Roman-74" d="M 122 2701 
L 730 2701 
L 730 838 
C 730 557 749 -51 1261 -51 
C 1651 -51 1965 64 2234 230 
L 2150 544 
C 2074 486 1856 282 1491 282 
C 1139 282 1126 704 1126 883 
L 1126 2701 
L 2118 2701 
L 2118 3021 
L 1126 3021 
L 1126 3885 
L 736 3885 
L 736 3021 
L 122 3021 
L 122 2701 
z
" transform="scale(0.015625)"/>
       <path id="CMUBright-Roman-65" d="M 269 1536 
C 269 634 909 -51 1690 -51 
C 2144 -51 2490 134 2758 358 
L 2726 710 
C 2490 499 2176 269 1690 269 
C 1178 269 653 736 653 1549 
L 653 1600 
L 2771 1600 
C 2765 2867 2042 3098 1587 3098 
C 813 3098 269 2349 269 1536 
z
M 685 1856 
C 781 2374 1146 2778 1587 2778 
C 1920 2778 2355 2573 2426 1856 
L 685 1856 
z
" transform="scale(0.015625)"/>
       <path id="CMUBright-Roman-20" transform="scale(0.015625)"/>
       <path id="CMUBright-Roman-3d" d="M 378 1062 
C 378 1018 397 909 589 909 
L 3514 909 
C 3686 909 3725 998 3725 1062 
C 3725 1114 3706 1222 3533 1229 
L 576 1229 
C 525 1229 378 1222 378 1062 
z
M 378 2304 
C 378 2259 397 2150 589 2150 
L 3514 2150 
C 3686 2150 3725 2240 3725 2304 
C 3725 2355 3706 2464 3533 2470 
L 582 2470 
C 390 2470 378 2336 378 2304 
z
" transform="scale(0.015625)"/>
       <path id="CMUBright-Roman-2e" d="M 678 0 
L 1178 0 
L 1178 499 
L 678 499 
L 678 0 
z
" transform="scale(0.015625)"/>
       <path id="CMUBright-Roman-38" d="M 275 1158 
C 275 518 851 -109 1670 -109 
C 2470 -109 3072 493 3072 1158 
C 3072 1792 2509 2163 2099 2266 
L 2285 2323 
C 2675 2483 2982 2803 2982 3213 
C 2982 3808 2400 4301 1677 4301 
C 909 4301 371 3763 371 3206 
C 371 2682 864 2362 1248 2266 
C 563 2054 275 1600 275 1158 
z
M 698 1158 
C 698 1882 1235 2106 1670 2106 
C 2195 2106 2650 1805 2650 1165 
C 2650 557 2259 224 1670 224 
C 1126 224 698 525 698 1158 
z
M 755 3206 
C 755 3514 915 3981 1683 3981 
C 2432 3981 2592 3514 2592 3206 
C 2592 2720 2234 2426 1670 2426 
C 1011 2426 755 2822 755 3206 
z
" transform="scale(0.015625)"/>
       <path id="CMUBright-Roman-39" d="M 346 2803 
C 346 2368 422 2054 678 1709 
C 851 1472 1056 1306 1402 1306 
C 1971 1306 2406 1683 2586 2074 
L 2586 1984 
C 2586 1152 2253 224 1376 224 
C 973 224 755 416 653 480 
L 486 186 
C 781 -19 1024 -109 1382 -109 
C 2285 -109 3008 838 3008 2125 
C 3008 3955 2221 4301 1696 4301 
C 1325 4301 1043 4179 768 3885 
C 493 3597 346 3283 346 2803 
z
M 768 2656 
L 768 2822 
C 768 3149 794 3398 986 3648 
C 1152 3866 1357 3981 1696 3981 
C 2042 3981 2502 3782 2566 2803 
L 2554 2803 
C 2560 2752 2560 2707 2560 2656 
C 2560 2118 2189 1632 1632 1632 
C 941 1632 768 2202 768 2656 
z
" transform="scale(0.015625)"/>
      </defs>
      <use xlink:href="#CMUBright-Roman-72"/>
      <use xlink:href="#CMUBright-Roman-61" x="34.599991"/>
      <use xlink:href="#CMUBright-Roman-74" x="83.799988"/>
      <use xlink:href="#CMUBright-Roman-65" x="121.699982"/>
      <use xlink:href="#CMUBright-Roman-20" x="168.399979"/>
      <use xlink:href="#CMUBright-Roman-3d" x="201.699966"/>
      <use xlink:href="#CMUBright-Roman-20" x="265.899963"/>
      <use xlink:href="#CMUBright-Roman-20" x="299.199951"/>
      <use xlink:href="#CMUBright-Roman-31" x="332.499939"/>
      <use xlink:href="#CMUBright-Roman-2e" x="384.999924"/>
      <use xlink:href="#CMUBright-Roman-38" x="414.199921"/>
      <use xlink:href="#CMUBright-Roman-39" x="466.699905"/>
      <use xlink:href="#CMUBright-Roman-34" x="519.19989"/>
     </g>
    </g>
   </g>
  </g>
 </g>
</svg>