<?xml version="1.0" encoding="utf-8" standalone="no"?>
<!DOCTYPE svg PUBLIC "-//W3C//DTD SVG 1.1//EN"
  "http://www.w3.org/Graphics/SVG/1.1/DTD/svg11.dtd">
<svg xmlns:xlink="http://www.w3.org/1999/xlink" width="331.961673pt" height="353.99952pt" viewBox="0 0 331.961673 353.99952" xmlns="http://www.w3.org/2000/svg" version="1.1">
 <metadata>
  <rdf:RDF xmlns:dc="http://purl.org/dc/elements/1.1/" xmlns:cc="http://creativecommons.org/ns#" xmlns:rdf="http://www.w3.org/1999/02/22-rdf-syntax-ns#">
   <cc:Work>
    <dc:type rdf:resource="http://purl.org/dc/dcmitype/StillImage"/>
    <dc:date>2023-09-20T16:26:20.412730</dc:date>
    <dc:format>image/svg+xml</dc:format>
    <dc:creator>
     <cc:Agent>
      <dc:title>Matplotlib v3.7.2, https://matplotlib.org/</dc:title>
     </cc:Agent>
    </dc:creator>
   </cc:Work>
  </rdf:RDF>
 </metadata>
 <defs>
  <style type="text/css">*{stroke-linejoin: round; stroke-linecap: butt}</style>
 </defs>
 <g id="figure_1">
  <g id="patch_1">
   <path d="M 0 353.99952 
L 331.961673 353.99952 
L 331.961673 0 
L 0 0 
z
" style="fill: #ffffff"/>
  </g>
  <g id="axes_1">
   <g id="patch_2">
    <path d="M 29.9437 343.29952 
L 324.761673 343.29952 
L 324.761673 48.481547 
L 29.9437 48.481547 
z
" style="fill: #ffffff"/>
   </g>
   <g id="matplotlib.axis_1">
    <g id="xtick_1">
     <g id="line2d_1">
      <defs>
       <path id="m55bc681082" d="M 0 0 
L 0 3.5 
" style="stroke: #5a5758; stroke-width: 0.8"/>
      </defs>
      <g>
       <use xlink:href="#m55bc681082" x="35.840059" y="343.29952" style="fill: #5a5758; stroke: #5a5758; stroke-width: 0.8"/>
      </g>
     </g>
     <g id="line2d_2">
      <defs>
       <path id="mfc27d64399" d="M 0 0 
L 0 -3.5 
" style="stroke: #5a5758; stroke-width: 0.8"/>
      </defs>
      <g>
       <use xlink:href="#mfc27d64399" x="35.840059" y="48.481547" style="fill: #5a5758; stroke: #5a5758; stroke-width: 0.8"/>
      </g>
     </g>
     <g id="text_1">
      <!-- 0 -->
      <g style="fill: #5a5758" transform="translate(31.904134 38.97708) scale(0.14994 -0.14994)">
       <defs>
        <path id="CMUBright-Roman-30" d="M 333 1984 
C 333 218 1139 -109 1677 -109 
C 2022 -109 2528 38 2803 685 
C 3008 1165 3021 1626 3021 2214 
C 3021 3974 2214 4301 1677 4301 
C 1555 4301 1414 4288 1261 4230 
C 358 3898 333 2694 333 2086 
L 333 1984 
z
M 742 2413 
C 742 2701 768 3302 1005 3642 
C 1139 3834 1389 3981 1677 3981 
C 1933 3981 2182 3866 2336 3661 
C 2592 3328 2611 2701 2611 2406 
C 2611 2342 2605 2298 2605 2272 
L 2605 2163 
C 2605 1613 2598 934 2330 557 
C 2195 371 1958 218 1677 218 
C 1427 218 1190 339 1037 538 
C 755 909 749 1594 749 2150 
L 749 2272 
C 749 2298 742 2349 742 2413 
z
" transform="scale(0.015625)"/>
       </defs>
       <use xlink:href="#CMUBright-Roman-30"/>
      </g>
     </g>
    </g>
    <g id="xtick_2">
     <g id="line2d_3">
      <g>
       <use xlink:href="#m55bc681082" x="94.803654" y="343.29952" style="fill: #5a5758; stroke: #5a5758; stroke-width: 0.8"/>
      </g>
     </g>
     <g id="line2d_4">
      <g>
       <use xlink:href="#mfc27d64399" x="94.803654" y="48.481547" style="fill: #5a5758; stroke: #5a5758; stroke-width: 0.8"/>
      </g>
     </g>
     <g id="text_2">
      <!-- 5 -->
      <g style="fill: #5a5758" transform="translate(90.867729 38.97708) scale(0.14994 -0.14994)">
       <defs>
        <path id="CMUBright-Roman-35" d="M 301 518 
C 794 -83 1376 -109 1574 -109 
C 2387 -109 3021 531 3021 1306 
C 3021 2080 2451 2701 1779 2701 
C 1459 2701 1197 2586 973 2381 
L 973 3853 
L 2797 3853 
L 2797 4192 
L 582 4192 
L 582 1901 
L 941 1901 
C 1043 2080 1274 2374 1773 2374 
C 2093 2374 2566 2189 2566 1312 
C 2566 442 2003 224 1581 224 
C 1382 224 864 269 486 819 
L 301 518 
z
" transform="scale(0.015625)"/>
       </defs>
       <use xlink:href="#CMUBright-Roman-35"/>
      </g>
     </g>
    </g>
    <g id="xtick_3">
     <g id="line2d_5">
      <g>
       <use xlink:href="#m55bc681082" x="153.767249" y="343.29952" style="fill: #5a5758; stroke: #5a5758; stroke-width: 0.8"/>
      </g>
     </g>
     <g id="line2d_6">
      <g>
       <use xlink:href="#mfc27d64399" x="153.767249" y="48.481547" style="fill: #5a5758; stroke: #5a5758; stroke-width: 0.8"/>
      </g>
     </g>
     <g id="text_3">
      <!-- 10 -->
      <g style="fill: #5a5758" transform="translate(145.895399 38.97708) scale(0.14994 -0.14994)">
       <defs>
        <path id="CMUBright-Roman-31" d="M 672 3558 
C 1197 3558 1472 3706 1549 3744 
L 1549 320 
L 710 320 
L 710 0 
L 2803 0 
L 2803 320 
L 1965 320 
L 1965 4301 
L 1862 4301 
C 1696 4141 1389 3885 672 3885 
L 672 3558 
z
" transform="scale(0.015625)"/>
       </defs>
       <use xlink:href="#CMUBright-Roman-31"/>
       <use xlink:href="#CMUBright-Roman-30" x="52.499985"/>
      </g>
     </g>
    </g>
    <g id="xtick_4">
     <g id="line2d_7">
      <g>
       <use xlink:href="#m55bc681082" x="212.730844" y="343.29952" style="fill: #5a5758; stroke: #5a5758; stroke-width: 0.8"/>
      </g>
     </g>
     <g id="line2d_8">
      <g>
       <use xlink:href="#mfc27d64399" x="212.730844" y="48.481547" style="fill: #5a5758; stroke: #5a5758; stroke-width: 0.8"/>
      </g>
     </g>
     <g id="text_4">
      <!-- 15 -->
      <g style="fill: #5a5758" transform="translate(204.858994 38.97708) scale(0.14994 -0.14994)">
       <use xlink:href="#CMUBright-Roman-31"/>
       <use xlink:href="#CMUBright-Roman-35" x="52.499985"/>
      </g>
     </g>
    </g>
    <g id="xtick_5">
     <g id="line2d_9">
      <g>
       <use xlink:href="#m55bc681082" x="271.694438" y="343.29952" style="fill: #5a5758; stroke: #5a5758; stroke-width: 0.8"/>
      </g>
     </g>
     <g id="line2d_10">
      <g>
       <use xlink:href="#mfc27d64399" x="271.694438" y="48.481547" style="fill: #5a5758; stroke: #5a5758; stroke-width: 0.8"/>
      </g>
     </g>
     <g id="text_5">
      <!-- 20 -->
      <g style="fill: #5a5758" transform="translate(263.822588 38.97708) scale(0.14994 -0.14994)">
       <defs>
        <path id="CMUBright-Roman-32" d="M 275 3226 
L 512 2938 
C 653 3475 864 3962 1498 3962 
C 2106 3962 2592 3571 2592 2982 
C 2592 2413 2214 2022 1683 1562 
L 333 339 
L 333 0 
L 3021 0 
L 3021 358 
L 698 358 
C 1773 1325 1638 1210 2061 1549 
C 2438 1856 3021 2304 3021 2989 
C 3021 3744 2419 4294 1594 4301 
L 1587 4301 
C 800 4301 442 3782 275 3226 
z
" transform="scale(0.015625)"/>
       </defs>
       <use xlink:href="#CMUBright-Roman-32"/>
       <use xlink:href="#CMUBright-Roman-30" x="52.499985"/>
      </g>
     </g>
    </g>
   </g>
   <g id="matplotlib.axis_2">
    <g id="ytick_1">
     <g id="line2d_11">
      <defs>
       <path id="ma87d24e393" d="M 0 0 
L -3.5 0 
" style="stroke: #5a5758; stroke-width: 0.8"/>
      </defs>
      <g>
       <use xlink:href="#ma87d24e393" x="29.9437" y="54.377906" style="fill: #5a5758; stroke: #5a5758; stroke-width: 0.8"/>
      </g>
     </g>
     <g id="text_6">
      <!-- 0 -->
      <g style="fill: #5a5758" transform="translate(15.07185 59.588321) scale(0.14994 -0.14994)">
       <use xlink:href="#CMUBright-Roman-30"/>
      </g>
     </g>
    </g>
    <g id="ytick_2">
     <g id="line2d_12">
      <g>
       <use xlink:href="#ma87d24e393" x="29.9437" y="113.341501" style="fill: #5a5758; stroke: #5a5758; stroke-width: 0.8"/>
      </g>
     </g>
     <g id="text_7">
      <!-- 5 -->
      <g style="fill: #5a5758" transform="translate(15.07185 118.551916) scale(0.14994 -0.14994)">
       <use xlink:href="#CMUBright-Roman-35"/>
      </g>
     </g>
    </g>
    <g id="ytick_3">
     <g id="line2d_13">
      <g>
       <use xlink:href="#ma87d24e393" x="29.9437" y="172.305095" style="fill: #5a5758; stroke: #5a5758; stroke-width: 0.8"/>
      </g>
     </g>
     <g id="text_8">
      <!-- 10 -->
      <g style="fill: #5a5758" transform="translate(7.2 177.51551) scale(0.14994 -0.14994)">
       <use xlink:href="#CMUBright-Roman-31"/>
       <use xlink:href="#CMUBright-Roman-30" x="52.499985"/>
      </g>
     </g>
    </g>
    <g id="ytick_4">
     <g id="line2d_14">
      <g>
       <use xlink:href="#ma87d24e393" x="29.9437" y="231.26869" style="fill: #5a5758; stroke: #5a5758; stroke-width: 0.8"/>
      </g>
     </g>
     <g id="text_9">
      <!-- 15 -->
      <g style="fill: #5a5758" transform="translate(7.2 236.479105) scale(0.14994 -0.14994)">
       <use xlink:href="#CMUBright-Roman-31"/>
       <use xlink:href="#CMUBright-Roman-35" x="52.499985"/>
      </g>
     </g>
    </g>
    <g id="ytick_5">
     <g id="line2d_15">
      <g>
       <use xlink:href="#ma87d24e393" x="29.9437" y="290.232285" style="fill: #5a5758; stroke: #5a5758; stroke-width: 0.8"/>
      </g>
     </g>
     <g id="text_10">
      <!-- 20 -->
      <g style="fill: #5a5758" transform="translate(7.2 295.4427) scale(0.14994 -0.14994)">
       <use xlink:href="#CMUBright-Roman-32"/>
       <use xlink:href="#CMUBright-Roman-30" x="52.499985"/>
      </g>
     </g>
    </g>
   </g>
   <g id="line2d_16">
    <defs>
     <path id="m973dcbb7d0" d="M -5 5 
L 5 5 
L 5 -5 
L -5 -5 
z
" style="stroke: #ffffff; stroke-linejoin: miter"/>
    </defs>
    <g clip-path="url(#pc54f65de5d)">
     <use xlink:href="#m973dcbb7d0" x="35.840059" y="54.377906" style="fill: #e29400; stroke: #ffffff; stroke-linejoin: miter"/>
     <use xlink:href="#m973dcbb7d0" x="47.632778" y="66.170625" style="fill: #e29400; stroke: #ffffff; stroke-linejoin: miter"/>
     <use xlink:href="#m973dcbb7d0" x="59.425497" y="77.963344" style="fill: #e29400; stroke: #ffffff; stroke-linejoin: miter"/>
     <use xlink:href="#m973dcbb7d0" x="71.218216" y="89.756063" style="fill: #e29400; stroke: #ffffff; stroke-linejoin: miter"/>
     <use xlink:href="#m973dcbb7d0" x="83.010935" y="101.548782" style="fill: #e29400; stroke: #ffffff; stroke-linejoin: miter"/>
     <use xlink:href="#m973dcbb7d0" x="94.803654" y="113.341501" style="fill: #e29400; stroke: #ffffff; stroke-linejoin: miter"/>
     <use xlink:href="#m973dcbb7d0" x="35.840059" y="125.13422" style="fill: #e29400; stroke: #ffffff; stroke-linejoin: miter"/>
     <use xlink:href="#m973dcbb7d0" x="59.425497" y="125.13422" style="fill: #e29400; stroke: #ffffff; stroke-linejoin: miter"/>
     <use xlink:href="#m973dcbb7d0" x="106.596373" y="125.13422" style="fill: #e29400; stroke: #ffffff; stroke-linejoin: miter"/>
     <use xlink:href="#m973dcbb7d0" x="153.767249" y="125.13422" style="fill: #e29400; stroke: #ffffff; stroke-linejoin: miter"/>
     <use xlink:href="#m973dcbb7d0" x="177.352687" y="125.13422" style="fill: #e29400; stroke: #ffffff; stroke-linejoin: miter"/>
     <use xlink:href="#m973dcbb7d0" x="47.632778" y="136.926939" style="fill: #e29400; stroke: #ffffff; stroke-linejoin: miter"/>
     <use xlink:href="#m973dcbb7d0" x="71.218216" y="136.926939" style="fill: #e29400; stroke: #ffffff; stroke-linejoin: miter"/>
     <use xlink:href="#m973dcbb7d0" x="118.389092" y="136.926939" style="fill: #e29400; stroke: #ffffff; stroke-linejoin: miter"/>
     <use xlink:href="#m973dcbb7d0" x="165.559968" y="136.926939" style="fill: #e29400; stroke: #ffffff; stroke-linejoin: miter"/>
     <use xlink:href="#m973dcbb7d0" x="189.145406" y="136.926939" style="fill: #e29400; stroke: #ffffff; stroke-linejoin: miter"/>
     <use xlink:href="#m973dcbb7d0" x="59.425497" y="148.719658" style="fill: #e29400; stroke: #ffffff; stroke-linejoin: miter"/>
     <use xlink:href="#m973dcbb7d0" x="83.010935" y="148.719658" style="fill: #e29400; stroke: #ffffff; stroke-linejoin: miter"/>
     <use xlink:href="#m973dcbb7d0" x="130.181811" y="148.719658" style="fill: #e29400; stroke: #ffffff; stroke-linejoin: miter"/>
     <use xlink:href="#m973dcbb7d0" x="177.352687" y="148.719658" style="fill: #e29400; stroke: #ffffff; stroke-linejoin: miter"/>
     <use xlink:href="#m973dcbb7d0" x="200.938125" y="148.719658" style="fill: #e29400; stroke: #ffffff; stroke-linejoin: miter"/>
     <use xlink:href="#m973dcbb7d0" x="141.97453" y="160.512376" style="fill: #e29400; stroke: #ffffff; stroke-linejoin: miter"/>
     <use xlink:href="#m973dcbb7d0" x="153.767249" y="172.305095" style="fill: #e29400; stroke: #ffffff; stroke-linejoin: miter"/>
     <use xlink:href="#m973dcbb7d0" x="94.803654" y="184.097814" style="fill: #e29400; stroke: #ffffff; stroke-linejoin: miter"/>
     <use xlink:href="#m973dcbb7d0" x="118.389092" y="184.097814" style="fill: #e29400; stroke: #ffffff; stroke-linejoin: miter"/>
     <use xlink:href="#m973dcbb7d0" x="165.559968" y="184.097814" style="fill: #e29400; stroke: #ffffff; stroke-linejoin: miter"/>
     <use xlink:href="#m973dcbb7d0" x="212.730844" y="184.097814" style="fill: #e29400; stroke: #ffffff; stroke-linejoin: miter"/>
     <use xlink:href="#m973dcbb7d0" x="236.316281" y="184.097814" style="fill: #e29400; stroke: #ffffff; stroke-linejoin: miter"/>
     <use xlink:href="#m973dcbb7d0" x="106.596373" y="195.890533" style="fill: #e29400; stroke: #ffffff; stroke-linejoin: miter"/>
     <use xlink:href="#m973dcbb7d0" x="130.181811" y="195.890533" style="fill: #e29400; stroke: #ffffff; stroke-linejoin: miter"/>
     <use xlink:href="#m973dcbb7d0" x="177.352687" y="195.890533" style="fill: #e29400; stroke: #ffffff; stroke-linejoin: miter"/>
     <use xlink:href="#m973dcbb7d0" x="224.523562" y="195.890533" style="fill: #e29400; stroke: #ffffff; stroke-linejoin: miter"/>
     <use xlink:href="#m973dcbb7d0" x="248.109" y="195.890533" style="fill: #e29400; stroke: #ffffff; stroke-linejoin: miter"/>
     <use xlink:href="#m973dcbb7d0" x="118.389092" y="207.683252" style="fill: #e29400; stroke: #ffffff; stroke-linejoin: miter"/>
     <use xlink:href="#m973dcbb7d0" x="141.97453" y="207.683252" style="fill: #e29400; stroke: #ffffff; stroke-linejoin: miter"/>
     <use xlink:href="#m973dcbb7d0" x="189.145406" y="207.683252" style="fill: #e29400; stroke: #ffffff; stroke-linejoin: miter"/>
     <use xlink:href="#m973dcbb7d0" x="236.316281" y="207.683252" style="fill: #e29400; stroke: #ffffff; stroke-linejoin: miter"/>
     <use xlink:href="#m973dcbb7d0" x="259.901719" y="207.683252" style="fill: #e29400; stroke: #ffffff; stroke-linejoin: miter"/>
     <use xlink:href="#m973dcbb7d0" x="200.938125" y="219.475971" style="fill: #e29400; stroke: #ffffff; stroke-linejoin: miter"/>
     <use xlink:href="#m973dcbb7d0" x="212.730844" y="231.26869" style="fill: #e29400; stroke: #ffffff; stroke-linejoin: miter"/>
     <use xlink:href="#m973dcbb7d0" x="153.767249" y="243.061409" style="fill: #e29400; stroke: #ffffff; stroke-linejoin: miter"/>
     <use xlink:href="#m973dcbb7d0" x="177.352687" y="243.061409" style="fill: #e29400; stroke: #ffffff; stroke-linejoin: miter"/>
     <use xlink:href="#m973dcbb7d0" x="224.523562" y="243.061409" style="fill: #e29400; stroke: #ffffff; stroke-linejoin: miter"/>
     <use xlink:href="#m973dcbb7d0" x="271.694438" y="243.061409" style="fill: #e29400; stroke: #ffffff; stroke-linejoin: miter"/>
     <use xlink:href="#m973dcbb7d0" x="295.279876" y="243.061409" style="fill: #e29400; stroke: #ffffff; stroke-linejoin: miter"/>
     <use xlink:href="#m973dcbb7d0" x="165.559968" y="254.854128" style="fill: #e29400; stroke: #ffffff; stroke-linejoin: miter"/>
     <use xlink:href="#m973dcbb7d0" x="189.145406" y="254.854128" style="fill: #e29400; stroke: #ffffff; stroke-linejoin: miter"/>
     <use xlink:href="#m973dcbb7d0" x="236.316281" y="254.854128" style="fill: #e29400; stroke: #ffffff; stroke-linejoin: miter"/>
     <use xlink:href="#m973dcbb7d0" x="283.487157" y="254.854128" style="fill: #e29400; stroke: #ffffff; stroke-linejoin: miter"/>
     <use xlink:href="#m973dcbb7d0" x="307.072595" y="254.854128" style="fill: #e29400; stroke: #ffffff; stroke-linejoin: miter"/>
     <use xlink:href="#m973dcbb7d0" x="177.352687" y="266.646847" style="fill: #e29400; stroke: #ffffff; stroke-linejoin: miter"/>
     <use xlink:href="#m973dcbb7d0" x="200.938125" y="266.646847" style="fill: #e29400; stroke: #ffffff; stroke-linejoin: miter"/>
     <use xlink:href="#m973dcbb7d0" x="248.109" y="266.646847" style="fill: #e29400; stroke: #ffffff; stroke-linejoin: miter"/>
     <use xlink:href="#m973dcbb7d0" x="295.279876" y="266.646847" style="fill: #e29400; stroke: #ffffff; stroke-linejoin: miter"/>
     <use xlink:href="#m973dcbb7d0" x="318.865314" y="266.646847" style="fill: #e29400; stroke: #ffffff; stroke-linejoin: miter"/>
     <use xlink:href="#m973dcbb7d0" x="259.901719" y="278.439566" style="fill: #e29400; stroke: #ffffff; stroke-linejoin: miter"/>
     <use xlink:href="#m973dcbb7d0" x="271.694438" y="290.232285" style="fill: #e29400; stroke: #ffffff; stroke-linejoin: miter"/>
     <use xlink:href="#m973dcbb7d0" x="283.487157" y="302.025004" style="fill: #e29400; stroke: #ffffff; stroke-linejoin: miter"/>
     <use xlink:href="#m973dcbb7d0" x="295.279876" y="313.817723" style="fill: #e29400; stroke: #ffffff; stroke-linejoin: miter"/>
     <use xlink:href="#m973dcbb7d0" x="307.072595" y="325.610442" style="fill: #e29400; stroke: #ffffff; stroke-linejoin: miter"/>
     <use xlink:href="#m973dcbb7d0" x="318.865314" y="337.403161" style="fill: #e29400; stroke: #ffffff; stroke-linejoin: miter"/>
    </g>
   </g>
   <g id="patch_3">
    <path d="M 29.9437 343.29952 
L 29.9437 48.481547 
" style="fill: none; stroke: #5a5758; stroke-width: 0.8; stroke-linejoin: miter; stroke-linecap: square"/>
   </g>
   <g id="patch_4">
    <path d="M 29.9437 343.29952 
L 324.761673 343.29952 
" style="fill: none; stroke: #5a5758; stroke-width: 0.8; stroke-linejoin: miter; stroke-linecap: square"/>
   </g>
   <g id="text_11">
    <!-- Sparsity pattern of A matrix -->
    <g style="fill: #5a5758" transform="translate(47.104687 22.55625) scale(0.216 -0.216)">
     <defs>
      <path id="CMUBright-Roman-53" d="M 294 339 
C 672 109 1184 -109 1837 -109 
C 2746 -109 3354 531 3354 1197 
C 3354 1619 3098 2150 2438 2394 
C 2221 2477 1606 2586 1376 2669 
C 986 2816 774 3104 774 3392 
C 774 3808 1203 4198 1882 4198 
C 2483 4198 2784 3974 3034 3802 
L 3110 4243 
C 2701 4454 2374 4550 1882 4550 
C 922 4550 365 3923 365 3341 
C 365 3091 461 2880 557 2746 
C 1005 2106 1805 2163 2323 1958 
C 2726 1798 2944 1472 2944 1152 
C 2944 730 2554 256 1843 256 
C 1165 256 710 531 371 781 
L 294 339 
z
" transform="scale(0.015625)"/>
      <path id="CMUBright-Roman-70" d="M 512 -1069 
L 928 -1069 
L 928 422 
C 1011 314 1254 -51 1754 -51 
C 2362 -51 3002 550 3002 1523 
C 3002 2381 2515 3072 1888 3072 
C 1728 3072 1299 3046 915 2586 
L 915 3021 
L 512 3021 
L 512 -1069 
z
M 928 832 
L 928 2189 
C 928 2330 922 2323 1056 2490 
C 1184 2630 1382 2746 1619 2746 
C 2150 2746 2592 2195 2592 1517 
C 2592 806 2099 269 1555 269 
C 1184 269 928 589 928 832 
z
" transform="scale(0.015625)"/>
      <path id="CMUBright-Roman-61" d="M 352 736 
C 352 442 538 -51 1062 -51 
L 1107 -51 
C 1523 -51 1952 102 2227 442 
L 2227 0 
L 2630 0 
L 2630 1926 
L 2624 2144 
C 2592 2560 2272 3104 1574 3104 
C 1158 3104 851 3002 525 2829 
L 557 2470 
C 762 2598 1050 2803 1568 2803 
C 1638 2803 1862 2797 2042 2579 
C 2202 2394 2214 2189 2214 1965 
L 2214 1696 
C 691 1664 352 1120 352 736 
z
M 749 749 
C 749 1197 1357 1491 2214 1498 
L 2214 928 
C 2214 378 1664 269 1408 269 
C 1107 269 749 422 749 749 
z
" transform="scale(0.015625)"/>
      <path id="CMUBright-Roman-72" d="M 512 0 
L 915 0 
L 915 1510 
C 915 2400 1600 2701 2112 2714 
L 2112 3072 
C 1376 3059 1024 2528 902 2234 
L 896 2534 
L 896 3021 
L 512 3021 
L 512 0 
z
" transform="scale(0.015625)"/>
      <path id="CMUBright-Roman-73" d="M 186 250 
C 512 70 870 -51 1331 -51 
C 2221 -51 2419 486 2419 845 
C 2419 1306 2061 1574 1760 1683 
C 1568 1754 1126 1818 998 1856 
C 723 1939 595 2125 595 2304 
C 595 2477 698 2784 1267 2784 
C 1658 2784 1888 2714 2240 2534 
L 2304 2886 
C 1946 3046 1702 3104 1331 3104 
L 1312 3104 
C 416 3098 224 2592 224 2253 
C 224 2074 288 1933 371 1818 
C 698 1382 1261 1408 1606 1299 
C 1760 1248 2048 1101 2048 806 
C 2048 595 1907 282 1325 282 
C 838 282 544 435 250 621 
L 186 250 
z
" transform="scale(0.015625)"/>
      <path id="CMUBright-Roman-69" d="M 512 4038 
L 915 4038 
L 915 4442 
L 512 4442 
L 512 4038 
z
M 512 0 
L 915 0 
L 915 3021 
L 512 3021 
L 512 0 
z
" transform="scale(0.015625)"/>
      <path id="CMUBright-Roman-74" d="M 122 2701 
L 730 2701 
L 730 838 
C 730 557 749 -51 1261 -51 
C 1651 -51 1965 64 2234 230 
L 2150 544 
C 2074 486 1856 282 1491 282 
C 1139 282 1126 704 1126 883 
L 1126 2701 
L 2118 2701 
L 2118 3021 
L 1126 3021 
L 1126 3885 
L 736 3885 
L 736 3021 
L 122 3021 
L 122 2701 
z
" transform="scale(0.015625)"/>
      <path id="CMUBright-Roman-79" d="M 90 3021 
L 1274 128 
C 1299 70 1312 45 1312 6 
C 1312 -19 1306 -51 1286 -102 
C 1146 -474 1043 -794 685 -794 
C 493 -794 275 -749 154 -717 
L 186 -1075 
C 301 -1094 506 -1120 685 -1120 
C 1216 -1120 1427 -627 1574 -250 
L 2835 3021 
L 2432 3021 
C 1875 1581 1536 672 1498 416 
C 1453 614 1421 710 1171 1370 
L 506 3021 
L 90 3021 
z
" transform="scale(0.015625)"/>
      <path id="CMUBright-Roman-20" transform="scale(0.015625)"/>
      <path id="CMUBright-Roman-65" d="M 269 1536 
C 269 634 909 -51 1690 -51 
C 2144 -51 2490 134 2758 358 
L 2726 710 
C 2490 499 2176 269 1690 269 
C 1178 269 653 736 653 1549 
L 653 1600 
L 2771 1600 
C 2765 2867 2042 3098 1587 3098 
C 813 3098 269 2349 269 1536 
z
M 685 1856 
C 781 2374 1146 2778 1587 2778 
C 1920 2778 2355 2573 2426 1856 
L 685 1856 
z
" transform="scale(0.015625)"/>
      <path id="CMUBright-Roman-6e" d="M 512 0 
L 928 0 
L 928 1677 
C 928 2586 1363 2752 1658 2752 
C 2374 2752 2374 2253 2374 1990 
L 2374 0 
L 2784 0 
L 2784 2016 
C 2784 2381 2771 3072 1869 3072 
C 1357 3072 1050 2726 909 2400 
L 909 3021 
L 512 3021 
L 512 0 
z
" transform="scale(0.015625)"/>
      <path id="CMUBright-Roman-6f" d="M 256 1510 
C 256 646 890 -51 1677 -51 
C 2419 -51 3091 595 3091 1510 
C 3091 2355 2483 3098 1677 3098 
C 915 3098 256 2419 256 1510 
z
M 666 1587 
C 666 2541 1280 2778 1677 2778 
C 2080 2778 2682 2541 2682 1568 
C 2682 538 2080 282 1677 282 
C 1331 282 666 467 666 1587 
z
" transform="scale(0.015625)"/>
      <path id="CMUBright-Roman-66" d="M 179 2701 
L 723 2701 
L 723 0 
L 1133 0 
L 1133 2701 
L 1920 2701 
L 1920 3021 
L 1120 3021 
L 1120 3712 
C 1120 4083 1517 4173 1779 4173 
C 1984 4173 2112 4147 2323 4083 
L 2323 4448 
C 2061 4493 1907 4499 1798 4499 
C 1485 4499 1248 4403 1069 4256 
C 704 3955 723 3635 723 3430 
L 723 3021 
L 179 3021 
L 179 2701 
z
" transform="scale(0.015625)"/>
      <path id="CMUBright-Roman-41" d="M 186 0 
L 602 0 
L 1114 1344 
L 3142 1344 
L 3661 0 
L 4128 0 
L 2400 4499 
L 1914 4499 
L 186 0 
z
M 1248 1683 
L 2131 4032 
L 2234 3744 
L 3014 1683 
L 1248 1683 
z
" transform="scale(0.015625)"/>
      <path id="CMUBright-Roman-6d" d="M 512 0 
L 928 0 
L 928 1677 
C 928 1696 922 1709 922 1728 
C 922 2330 1190 2752 1658 2752 
C 2374 2752 2374 2253 2374 1990 
L 2374 0 
L 2790 0 
L 2790 1728 
C 2790 2330 3053 2752 3520 2752 
C 4237 2752 4243 2259 4243 1990 
L 4243 0 
L 4653 0 
L 4653 2016 
C 4653 2387 4640 3072 3744 3072 
C 3162 3072 2880 2643 2771 2387 
C 2739 2522 2662 3072 1875 3072 
C 1293 3072 1005 2630 909 2400 
L 909 3021 
L 512 3021 
L 512 0 
z
" transform="scale(0.015625)"/>
      <path id="CMUBright-Roman-78" d="M 0 0 
L 454 0 
L 1440 1325 
L 1446 1325 
L 2470 0 
L 2931 0 
L 1626 1555 
L 2816 3021 
L 2362 3021 
L 1446 1850 
L 499 3021 
L 38 3021 
L 1261 1562 
L 1261 1555 
L 0 0 
z
" transform="scale(0.015625)"/>
     </defs>
     <use xlink:href="#CMUBright-Roman-53"/>
     <use xlink:href="#CMUBright-Roman-70" x="58.299988"/>
     <use xlink:href="#CMUBright-Roman-61" x="109.999985"/>
     <use xlink:href="#CMUBright-Roman-72" x="159.199982"/>
     <use xlink:href="#CMUBright-Roman-73" x="193.799973"/>
     <use xlink:href="#CMUBright-Roman-69" x="233.999969"/>
     <use xlink:href="#CMUBright-Roman-74" x="256.499954"/>
     <use xlink:href="#CMUBright-Roman-79" x="294.399948"/>
     <use xlink:href="#CMUBright-Roman-20" x="340.199936"/>
     <use xlink:href="#CMUBright-Roman-70" x="373.499924"/>
     <use xlink:href="#CMUBright-Roman-61" x="425.199921"/>
     <use xlink:href="#CMUBright-Roman-74" x="474.399918"/>
     <use xlink:href="#CMUBright-Roman-74" x="512.299911"/>
     <use xlink:href="#CMUBright-Roman-65" x="550.199905"/>
     <use xlink:href="#CMUBright-Roman-72" x="596.899902"/>
     <use xlink:href="#CMUBright-Roman-6e" x="631.499893"/>
     <use xlink:href="#CMUBright-Roman-20" x="683.19989"/>
     <use xlink:href="#CMUBright-Roman-6f" x="716.499878"/>
     <use xlink:href="#CMUBright-Roman-66" x="768.999863"/>
     <use xlink:href="#CMUBright-Roman-20" x="801.099854"/>
     <use xlink:href="#CMUBright-Roman-41" x="834.399841"/>
     <use xlink:href="#CMUBright-Roman-20" x="901.899826"/>
     <use xlink:href="#CMUBright-Roman-6d" x="935.199814"/>
     <use xlink:href="#CMUBright-Roman-61" x="1015.999802"/>
     <use xlink:href="#CMUBright-Roman-74" x="1065.199799"/>
     <use xlink:href="#CMUBright-Roman-72" x="1103.099792"/>
     <use xlink:href="#CMUBright-Roman-69" x="1137.699783"/>
     <use xlink:href="#CMUBright-Roman-78" x="1160.199768"/>
    </g>
   </g>
  </g>
 </g>
 <defs>
  <clipPath id="pc54f65de5d">
   <rect x="29.9437" y="48.481547" width="294.817973" height="294.817973"/>
  </clipPath>
 </defs>
</svg>