<?xml version="1.0" encoding="utf-8" standalone="no"?>
<!DOCTYPE svg PUBLIC "-//W3C//DTD SVG 1.1//EN"
  "http://www.w3.org/Graphics/SVG/1.1/DTD/svg11.dtd">
<svg xmlns:xlink="http://www.w3.org/1999/xlink" width="469.198971pt" height="353.99952pt" viewBox="0 0 469.198971 353.99952" xmlns="http://www.w3.org/2000/svg" version="1.1">
 <metadata>
  <rdf:RDF xmlns:dc="http://purl.org/dc/elements/1.1/" xmlns:cc="http://creativecommons.org/ns#" xmlns:rdf="http://www.w3.org/1999/02/22-rdf-syntax-ns#">
   <cc:Work>
    <dc:type rdf:resource="http://purl.org/dc/dcmitype/StillImage"/>
    <dc:date>2023-11-02T19:27:54.873360</dc:date>
    <dc:format>image/svg+xml</dc:format>
    <dc:creator>
     <cc:Agent>
      <dc:title>Matplotlib v3.8.1, https://matplotlib.org/</dc:title>
     </cc:Agent>
    </dc:creator>
   </cc:Work>
  </rdf:RDF>
 </metadata>
 <defs>
  <style type="text/css">*{stroke-linejoin: round; stroke-linecap: butt}</style>
 </defs>
 <g id="figure_1">
  <g id="patch_1">
   <path d="M 0 353.99952 
L 469.198971 353.99952 
L 469.198971 0 
L 0 0 
z
" style="fill: #ffffff"/>
  </g>
  <g id="axes_1">
   <g id="patch_2">
    <path d="M 85.87638 290.907661 
L 454.975497 290.907661 
L 454.975497 7.2 
L 85.87638 7.2 
z
" style="fill: #ffffff"/>
   </g>
   <g id="matplotlib.axis_1">
    <g id="xtick_1">
     <g id="line2d_1">
      <defs>
       <path id="mc936387139" d="M 0 0 
L 0 3.5 
" style="stroke: #5a5758; stroke-width: 0.8"/>
      </defs>
      <g>
       <use xlink:href="#mc936387139" x="85.87638" y="302.907661" style="fill: #5a5758; stroke: #5a5758; stroke-width: 0.8"/>
      </g>
     </g>
     <g id="text_1">
      <!-- 0 -->
      <g style="fill: #5a5758" transform="translate(81.940455 320.328491) scale(0.14994 -0.14994)">
       <defs>
        <path id="CMUBright-Roman-30" d="M 333 1984 
L 333 2086 
Q 333 2291 339 2438 
Q 346 2586 371 2832 
Q 397 3078 461 3267 
Q 525 3456 621 3657 
Q 717 3859 880 4006 
Q 1043 4154 1261 4230 
Q 1446 4301 1677 4301 
Q 1856 4301 2025 4256 
Q 2195 4211 2380 4070 
Q 2566 3930 2704 3709 
Q 2842 3488 2931 3104 
Q 3021 2720 3021 2214 
Q 3021 1683 2982 1347 
Q 2944 1011 2803 685 
Q 2618 250 2307 70 
Q 1997 -109 1677 -109 
Q 1498 -109 1328 -64 
Q 1158 -19 972 121 
Q 787 262 649 483 
Q 512 704 422 1091 
Q 333 1478 333 1984 
z
M 742 2413 
Q 742 2374 745 2326 
Q 749 2278 749 2272 
L 749 2150 
Q 749 1779 758 1548 
Q 768 1318 838 1014 
Q 909 710 1037 538 
Q 1286 218 1677 218 
Q 2086 218 2330 557 
Q 2451 730 2518 1037 
Q 2586 1344 2595 1568 
Q 2605 1792 2605 2163 
L 2605 2272 
Q 2605 2278 2608 2323 
Q 2611 2368 2611 2406 
Q 2611 3302 2336 3661 
Q 2099 3981 1677 3981 
Q 1242 3981 1005 3642 
Q 742 3264 742 2413 
z
" transform="scale(0.015625)"/>
       </defs>
       <use xlink:href="#CMUBright-Roman-30"/>
      </g>
     </g>
    </g>
    <g id="xtick_2">
     <g id="line2d_2">
      <g>
       <use xlink:href="#mc936387139" x="158.739343" y="302.907661" style="fill: #5a5758; stroke: #5a5758; stroke-width: 0.8"/>
      </g>
     </g>
     <g id="text_2">
      <!-- 20 -->
      <g style="fill: #5a5758" transform="translate(150.867493 320.328491) scale(0.14994 -0.14994)">
       <defs>
        <path id="CMUBright-Roman-32" d="M 275 3226 
Q 595 4301 1587 4301 
L 1594 4301 
Q 2214 4294 2617 3923 
Q 3021 3552 3021 2989 
Q 3021 2746 2937 2531 
Q 2854 2317 2668 2115 
Q 2483 1914 2384 1821 
Q 2285 1728 2061 1549 
Q 1754 1299 1642 1203 
Q 1530 1107 698 358 
L 3021 358 
L 3021 0 
L 333 0 
L 333 339 
L 1683 1562 
Q 2144 1965 2368 2278 
Q 2592 2592 2592 2982 
Q 2592 3418 2278 3690 
Q 1965 3962 1498 3962 
Q 1069 3962 854 3693 
Q 640 3424 512 2938 
L 275 3226 
z
" transform="scale(0.015625)"/>
       </defs>
       <use xlink:href="#CMUBright-Roman-32"/>
       <use xlink:href="#CMUBright-Roman-30" x="52.499985"/>
      </g>
     </g>
    </g>
    <g id="xtick_3">
     <g id="line2d_3">
      <g>
       <use xlink:href="#mc936387139" x="231.602307" y="302.907661" style="fill: #5a5758; stroke: #5a5758; stroke-width: 0.8"/>
      </g>
     </g>
     <g id="text_3">
      <!-- 40 -->
      <g style="fill: #5a5758" transform="translate(223.730457 320.328491) scale(0.14994 -0.14994)">
       <defs>
        <path id="CMUBright-Roman-34" d="M 186 1158 
L 186 1504 
L 1952 4250 
L 2438 4250 
L 2438 1498 
L 3168 1498 
L 3168 1158 
L 2438 1158 
L 2438 0 
L 2035 0 
L 2035 1158 
L 186 1158 
z
M 602 1498 
L 2054 1498 
L 2054 3885 
Q 1971 3667 1606 3085 
L 602 1498 
z
" transform="scale(0.015625)"/>
       </defs>
       <use xlink:href="#CMUBright-Roman-34"/>
       <use xlink:href="#CMUBright-Roman-30" x="52.499985"/>
      </g>
     </g>
    </g>
    <g id="xtick_4">
     <g id="line2d_4">
      <g>
       <use xlink:href="#mc936387139" x="304.46527" y="302.907661" style="fill: #5a5758; stroke: #5a5758; stroke-width: 0.8"/>
      </g>
     </g>
     <g id="text_4">
      <!-- 60 -->
      <g style="fill: #5a5758" transform="translate(296.59342 320.328491) scale(0.14994 -0.14994)">
       <defs>
        <path id="CMUBright-Roman-36" d="M 346 2061 
Q 346 3072 864 3686 
Q 1382 4301 2074 4301 
L 2086 4301 
Q 2426 4301 2797 4179 
L 2797 3846 
Q 2374 3981 2074 3981 
L 2061 3981 
Q 1478 3981 1123 3491 
Q 768 3002 768 2208 
Q 768 2195 771 2166 
Q 774 2138 774 2125 
Q 928 2445 1238 2665 
Q 1549 2886 1952 2886 
Q 2387 2886 2682 2483 
Q 3008 2029 3008 1408 
Q 3008 768 2618 326 
Q 2240 -109 1690 -109 
Q 1510 -109 1340 -57 
Q 1171 -6 985 141 
Q 800 288 662 521 
Q 525 755 435 1152 
Q 346 1549 346 2061 
z
M 794 1389 
Q 813 1171 854 1004 
Q 896 838 985 643 
Q 1075 448 1254 336 
Q 1434 224 1690 224 
Q 2138 224 2381 550 
Q 2515 736 2550 921 
Q 2586 1107 2586 1434 
Q 2586 1645 2573 1776 
Q 2560 1907 2480 2089 
Q 2400 2272 2253 2400 
Q 2054 2566 1728 2566 
Q 1325 2566 1062 2265 
Q 800 1965 800 1555 
Q 800 1440 806 1389 
L 794 1389 
z
" transform="scale(0.015625)"/>
       </defs>
       <use xlink:href="#CMUBright-Roman-36"/>
       <use xlink:href="#CMUBright-Roman-30" x="52.499985"/>
      </g>
     </g>
    </g>
    <g id="xtick_5">
     <g id="line2d_5">
      <g>
       <use xlink:href="#mc936387139" x="377.328233" y="302.907661" style="fill: #5a5758; stroke: #5a5758; stroke-width: 0.8"/>
      </g>
     </g>
     <g id="text_5">
      <!-- 80 -->
      <g style="fill: #5a5758" transform="translate(369.456383 320.328491) scale(0.14994 -0.14994)">
       <defs>
        <path id="CMUBright-Roman-38" d="M 275 1158 
Q 275 1517 518 1817 
Q 762 2118 1248 2266 
Q 909 2349 640 2598 
Q 371 2848 371 3206 
Q 371 3642 745 3971 
Q 1120 4301 1677 4301 
Q 2221 4301 2601 3981 
Q 2982 3661 2982 3213 
Q 2982 2918 2787 2684 
Q 2592 2451 2285 2323 
L 2099 2266 
Q 2464 2176 2768 1885 
Q 3072 1594 3072 1158 
Q 3072 646 2665 268 
Q 2259 -109 1670 -109 
Q 1075 -109 675 275 
Q 275 659 275 1158 
z
M 698 1158 
Q 698 704 970 464 
Q 1242 224 1670 224 
Q 2118 224 2384 470 
Q 2650 717 2650 1165 
Q 2650 1619 2371 1862 
Q 2093 2106 1670 2106 
Q 1280 2106 989 1878 
Q 698 1651 698 1158 
z
M 755 3206 
Q 755 2886 982 2656 
Q 1210 2426 1670 2426 
Q 2093 2426 2342 2634 
Q 2592 2842 2592 3206 
Q 2592 3507 2387 3744 
Q 2182 3981 1683 3981 
Q 1171 3981 963 3744 
Q 755 3507 755 3206 
z
" transform="scale(0.015625)"/>
       </defs>
       <use xlink:href="#CMUBright-Roman-38"/>
       <use xlink:href="#CMUBright-Roman-30" x="52.499985"/>
      </g>
     </g>
    </g>
    <g id="xtick_6">
     <g id="line2d_6">
      <g>
       <use xlink:href="#mc936387139" x="450.191196" y="302.907661" style="fill: #5a5758; stroke: #5a5758; stroke-width: 0.8"/>
      </g>
     </g>
     <g id="text_6">
      <!-- 100 -->
      <g style="fill: #5a5758" transform="translate(438.383421 320.328491) scale(0.14994 -0.14994)">
       <defs>
        <path id="CMUBright-Roman-31" d="M 672 3558 
L 672 3885 
Q 1427 3885 1862 4301 
L 1965 4301 
L 1965 320 
L 2803 320 
L 2803 0 
L 710 0 
L 710 320 
L 1549 320 
L 1549 3744 
Q 1178 3558 672 3558 
z
" transform="scale(0.015625)"/>
       </defs>
       <use xlink:href="#CMUBright-Roman-31"/>
       <use xlink:href="#CMUBright-Roman-30" x="52.499985"/>
       <use xlink:href="#CMUBright-Roman-30" x="104.999969"/>
      </g>
     </g>
    </g>
    <g id="text_7">
     <!-- Equivalent fine grid iterations -->
     <g style="fill: #5a5758" transform="translate(157.700938 343.486395) scale(0.18 -0.18)">
      <defs>
       <path id="CMUBright-SemiBold-45" d="M 512 0 
L 512 4429 
L 3616 4429 
L 3616 3923 
L 1184 3923 
L 1184 2560 
L 3430 2560 
L 3430 2048 
L 1184 2048 
L 1184 538 
L 3712 538 
L 3712 0 
L 512 0 
z
" transform="scale(0.015625)"/>
       <path id="CMUBright-SemiBold-71" d="M 224 1504 
Q 224 2163 579 2617 
Q 934 3072 1440 3072 
Q 1920 3072 2285 2618 
L 2285 3072 
L 2886 3072 
L 2886 -1069 
L 2272 -1069 
L 2272 384 
Q 1862 -51 1363 -51 
Q 902 -51 563 390 
Q 224 832 224 1504 
z
M 838 1504 
Q 838 1062 1088 745 
Q 1338 429 1683 429 
Q 1894 429 2089 573 
Q 2285 717 2285 922 
L 2285 2035 
Q 2285 2240 2128 2409 
Q 1971 2579 1747 2579 
Q 1395 2579 1116 2275 
Q 838 1971 838 1504 
z
" transform="scale(0.015625)"/>
       <path id="CMUBright-SemiBold-75" d="M 410 838 
L 410 3021 
L 1024 3021 
L 1024 883 
Q 1030 570 1069 506 
Q 1139 403 1510 403 
Q 1888 403 2064 601 
Q 2240 800 2266 998 
Q 2272 1062 2272 1197 
L 2272 3021 
L 2886 3021 
L 2886 0 
L 2285 0 
L 2285 480 
Q 1830 -51 1088 -51 
Q 858 -51 710 29 
Q 563 109 502 262 
Q 442 416 426 537 
Q 410 659 410 838 
z
" transform="scale(0.015625)"/>
       <path id="CMUBright-SemiBold-69" d="M 414 3859 
L 414 4461 
L 1016 4461 
L 1016 3859 
L 414 3859 
z
M 416 0 
L 416 3021 
L 1018 3021 
L 1018 0 
L 416 0 
z
" transform="scale(0.015625)"/>
       <path id="CMUBright-SemiBold-76" d="M 90 3021 
L 691 3021 
Q 1389 934 1466 614 
L 1562 960 
L 2240 3021 
L 2835 3021 
L 1811 -19 
L 1114 -19 
L 90 3021 
z
" transform="scale(0.015625)"/>
       <path id="CMUBright-SemiBold-61" d="M 250 851 
Q 250 1274 771 1498 
Q 1293 1722 2112 1747 
L 2112 1971 
Q 2112 2234 2048 2355 
Q 1894 2650 1568 2650 
Q 1242 2643 1037 2566 
Q 832 2490 557 2291 
L 512 2829 
Q 1043 3104 1581 3104 
Q 2061 3104 2377 2822 
Q 2694 2541 2726 2144 
L 2733 1933 
L 2733 0 
L 2131 0 
L 2131 230 
L 2125 410 
Q 1946 186 1648 67 
Q 1350 -51 1043 -51 
Q 666 -51 458 233 
Q 250 518 250 851 
z
M 845 864 
Q 845 672 1008 550 
Q 1171 429 1408 429 
Q 1626 429 1811 525 
Q 1997 621 2074 781 
Q 2112 864 2112 1043 
L 2112 1446 
Q 1523 1421 1184 1270 
Q 845 1120 845 864 
z
" transform="scale(0.015625)"/>
       <path id="CMUBright-SemiBold-6c" d="M 416 0 
L 416 4448 
L 1018 4448 
L 1018 0 
L 416 0 
z
" transform="scale(0.015625)"/>
       <path id="CMUBright-SemiBold-65" d="M 186 1530 
Q 186 2189 605 2646 
Q 1024 3104 1606 3104 
Q 1766 3104 1920 3069 
Q 2074 3034 2243 2931 
Q 2413 2829 2534 2669 
Q 2656 2509 2739 2233 
Q 2822 1958 2822 1600 
L 762 1600 
L 762 1536 
Q 762 1062 1040 745 
Q 1318 429 1709 429 
Q 2240 429 2739 794 
L 2784 275 
Q 2278 -51 1709 -51 
Q 1043 -51 614 419 
Q 186 890 186 1530 
z
M 838 1978 
L 2298 1978 
Q 2144 2618 1600 2618 
Q 1363 2618 1148 2448 
Q 934 2278 838 1978 
z
" transform="scale(0.015625)"/>
       <path id="CMUBright-SemiBold-6e" d="M 410 0 
L 410 3021 
L 998 3021 
L 998 2714 
L 1005 2496 
Q 1344 3072 1971 3072 
Q 2227 3072 2409 2995 
Q 2592 2918 2681 2816 
Q 2771 2714 2822 2547 
Q 2874 2381 2880 2275 
Q 2886 2170 2886 2016 
L 2886 0 
L 2272 0 
L 2272 2022 
Q 2272 2131 2259 2204 
Q 2246 2278 2192 2380 
Q 2138 2483 2000 2537 
Q 1862 2592 1651 2592 
Q 1453 2592 1315 2493 
Q 1178 2394 1120 2237 
Q 1062 2080 1043 1961 
Q 1024 1843 1024 1728 
L 1024 0 
L 410 0 
z
" transform="scale(0.015625)"/>
       <path id="CMUBright-SemiBold-74" d="M 122 2541 
L 122 3021 
L 646 3021 
L 646 3885 
L 1222 3885 
L 1222 3021 
L 2118 3021 
L 2118 2541 
L 1222 2541 
L 1222 1075 
Q 1222 448 1555 448 
Q 1805 448 2106 672 
L 2234 211 
Q 1754 -51 1197 -51 
Q 634 -51 634 1005 
L 634 2541 
L 122 2541 
z
" transform="scale(0.015625)"/>
       <path id="CMUBright-SemiBold-20" transform="scale(0.015625)"/>
       <path id="CMUBright-SemiBold-66" d="M 179 2541 
L 179 3021 
L 627 3021 
L 627 3360 
Q 627 3654 700 3852 
Q 774 4051 1005 4237 
Q 1318 4499 1792 4499 
Q 2022 4499 2323 4448 
L 2323 3904 
Q 2010 4013 1779 4013 
Q 1562 4013 1389 3920 
Q 1216 3827 1216 3610 
L 1216 3021 
L 1920 3021 
L 1920 2541 
L 1229 2541 
L 1229 0 
L 627 0 
L 627 2541 
L 179 2541 
z
" transform="scale(0.015625)"/>
       <path id="CMUBright-SemiBold-67" d="M 224 1523 
Q 224 2170 592 2621 
Q 960 3072 1459 3072 
Q 1939 3072 2285 2624 
L 2285 3072 
L 2886 3072 
L 2886 58 
Q 2886 -493 2534 -835 
Q 2182 -1178 1651 -1178 
Q 1062 -1178 467 -890 
L 467 -365 
Q 653 -467 765 -521 
Q 877 -576 1123 -637 
Q 1370 -698 1638 -698 
Q 1882 -698 2077 -522 
Q 2272 -346 2272 64 
L 2272 512 
L 2266 730 
Q 2208 621 2121 512 
Q 2035 403 1830 281 
Q 1626 160 1382 160 
Q 922 160 573 544 
Q 224 928 224 1523 
z
M 838 1523 
Q 838 1146 1088 896 
Q 1338 646 1664 646 
Q 1882 646 2026 803 
Q 2170 960 2218 1161 
Q 2266 1363 2272 1600 
L 2285 1600 
L 2285 2061 
Q 2285 2246 2128 2419 
Q 1971 2592 1741 2592 
Q 1395 2592 1116 2288 
Q 838 1984 838 1523 
z
" transform="scale(0.015625)"/>
       <path id="CMUBright-SemiBold-72" d="M 416 0 
L 416 3021 
L 992 3021 
L 992 2368 
Q 1370 3059 2112 3072 
L 2112 2528 
Q 1939 2528 1769 2480 
Q 1600 2432 1421 2326 
Q 1242 2221 1130 2013 
Q 1018 1805 1018 1517 
L 1018 0 
L 416 0 
z
" transform="scale(0.015625)"/>
       <path id="CMUBright-SemiBold-64" d="M 224 1517 
Q 224 2150 544 2611 
Q 864 3072 1350 3072 
Q 1856 3072 2285 2701 
L 2285 4448 
L 2886 4448 
L 2886 0 
L 2272 0 
L 2272 378 
Q 1856 -51 1344 -51 
Q 864 -51 544 409 
Q 224 870 224 1517 
z
M 838 1427 
Q 851 966 1024 730 
Q 1248 429 1670 429 
Q 1830 429 1971 505 
Q 2112 582 2157 633 
Q 2202 685 2272 774 
L 2272 2349 
Q 2042 2592 1741 2592 
Q 1331 2592 1082 2336 
Q 838 2086 838 1562 
L 838 1427 
z
" transform="scale(0.015625)"/>
       <path id="CMUBright-SemiBold-6f" d="M 630 390 
Q 186 832 186 1504 
Q 186 2176 627 2637 
Q 1069 3098 1677 3098 
Q 2310 3098 2739 2618 
Q 3168 2138 3168 1498 
Q 3168 838 2726 393 
Q 2285 -51 1677 -51 
Q 1075 -51 630 390 
z
M 800 1594 
Q 800 998 1037 717 
Q 1267 448 1677 448 
Q 2061 448 2291 685 
Q 2554 954 2554 1606 
Q 2554 2150 2307 2384 
Q 2061 2618 1677 2618 
Q 800 2618 800 1594 
z
" transform="scale(0.015625)"/>
       <path id="CMUBright-SemiBold-73" d="M 186 250 
L 282 800 
Q 787 448 1318 448 
Q 1613 448 1737 569 
Q 1862 691 1862 838 
Q 1862 986 1753 1078 
Q 1645 1171 1517 1206 
Q 1389 1242 1190 1280 
Q 992 1318 902 1350 
Q 634 1440 429 1661 
Q 224 1882 224 2202 
Q 224 2349 269 2486 
Q 314 2624 422 2774 
Q 531 2925 764 3014 
Q 998 3104 1331 3104 
Q 1818 3104 2323 2886 
L 2227 2362 
Q 1747 2624 1261 2624 
Q 998 2624 889 2515 
Q 781 2406 781 2272 
Q 781 2170 857 2077 
Q 934 1984 1062 1939 
Q 1069 1939 1408 1865 
Q 1747 1792 1914 1702 
Q 2419 1421 2419 890 
Q 2419 525 2172 237 
Q 1926 -51 1325 -51 
Q 730 -51 186 250 
z
" transform="scale(0.015625)"/>
      </defs>
      <use xlink:href="#CMUBright-SemiBold-45"/>
      <use xlink:href="#CMUBright-SemiBold-71" x="62.499985"/>
      <use xlink:href="#CMUBright-SemiBold-75" x="114.199982"/>
      <use xlink:href="#CMUBright-SemiBold-69" x="165.899979"/>
      <use xlink:href="#CMUBright-SemiBold-76" x="188.399963"/>
      <use xlink:href="#CMUBright-SemiBold-61" x="234.199951"/>
      <use xlink:href="#CMUBright-SemiBold-6c" x="283.399948"/>
      <use xlink:href="#CMUBright-SemiBold-65" x="305.899933"/>
      <use xlink:href="#CMUBright-SemiBold-6e" x="352.999924"/>
      <use xlink:href="#CMUBright-SemiBold-74" x="404.699921"/>
      <use xlink:href="#CMUBright-SemiBold-20" x="442.599915"/>
      <use xlink:href="#CMUBright-SemiBold-66" x="475.899902"/>
      <use xlink:href="#CMUBright-SemiBold-69" x="507.999893"/>
      <use xlink:href="#CMUBright-SemiBold-6e" x="530.499878"/>
      <use xlink:href="#CMUBright-SemiBold-65" x="582.199875"/>
      <use xlink:href="#CMUBright-SemiBold-20" x="629.299866"/>
      <use xlink:href="#CMUBright-SemiBold-67" x="662.599854"/>
      <use xlink:href="#CMUBright-SemiBold-72" x="714.29985"/>
      <use xlink:href="#CMUBright-SemiBold-69" x="748.899841"/>
      <use xlink:href="#CMUBright-SemiBold-64" x="771.399826"/>
      <use xlink:href="#CMUBright-SemiBold-20" x="823.099823"/>
      <use xlink:href="#CMUBright-SemiBold-69" x="856.399811"/>
      <use xlink:href="#CMUBright-SemiBold-74" x="878.899796"/>
      <use xlink:href="#CMUBright-SemiBold-65" x="916.799789"/>
      <use xlink:href="#CMUBright-SemiBold-72" x="963.89978"/>
      <use xlink:href="#CMUBright-SemiBold-61" x="998.499771"/>
      <use xlink:href="#CMUBright-SemiBold-74" x="1047.699768"/>
      <use xlink:href="#CMUBright-SemiBold-69" x="1085.599762"/>
      <use xlink:href="#CMUBright-SemiBold-6f" x="1108.099747"/>
      <use xlink:href="#CMUBright-SemiBold-6e" x="1160.599731"/>
      <use xlink:href="#CMUBright-SemiBold-73" x="1212.299728"/>
     </g>
    </g>
   </g>
   <g id="matplotlib.axis_2">
    <g id="ytick_1">
     <g id="line2d_7">
      <defs>
       <path id="m2d21829317" d="M 0 0 
L -3.5 0 
" style="stroke: #5a5758; stroke-width: 0.8"/>
      </defs>
      <g>
       <use xlink:href="#m2d21829317" x="73.87638" y="257.446983" style="fill: #5a5758; stroke: #5a5758; stroke-width: 0.8"/>
      </g>
     </g>
     <g id="text_8">
      <!-- $\mathdefault{10^{-13}}$ -->
      <g style="fill: #5a5758" transform="translate(32.84 262.657398) scale(0.14994 -0.14994)">
       <defs>
        <path id="CMUBright-Roman-2212" d="M 378 1690 
Q 378 1856 602 1856 
L 3526 1856 
Q 3725 1850 3725 1690 
Q 3725 1530 3520 1530 
L 582 1530 
Q 378 1530 378 1690 
z
" transform="scale(0.015625)"/>
        <path id="CMUBright-Roman-33" d="M 282 653 
Q 282 666 285 685 
Q 288 704 304 774 
Q 320 845 339 941 
Q 557 640 861 464 
Q 1165 288 1341 256 
Q 1517 224 1683 224 
Q 2112 224 2368 486 
Q 2624 749 2624 1165 
Q 2624 1574 2381 1824 
Q 2138 2074 1773 2099 
L 1555 2106 
L 1114 2106 
L 1114 2426 
Q 1709 2470 1862 2528 
Q 2099 2618 2281 2838 
Q 2464 3059 2464 3360 
Q 2464 3642 2256 3811 
Q 2048 3981 1702 3981 
Q 973 3981 570 3258 
L 371 3539 
Q 845 4301 1702 4301 
Q 2202 4301 2544 4025 
Q 2886 3750 2886 3360 
Q 2886 3059 2704 2761 
Q 2522 2464 2106 2272 
Q 2579 2144 2825 1833 
Q 3072 1523 3072 1158 
Q 3072 666 2685 278 
Q 2298 -109 1690 -109 
Q 1402 -109 1126 -9 
Q 851 90 675 221 
Q 499 352 390 473 
Q 282 595 282 653 
z
" transform="scale(0.015625)"/>
       </defs>
       <use xlink:href="#CMUBright-Roman-31" transform="translate(0 0.915625)"/>
       <use xlink:href="#CMUBright-Roman-30" transform="translate(52.499985 0.915625)"/>
       <use xlink:href="#CMUBright-Roman-2212" transform="translate(105.826024 33.957813) scale(0.7)"/>
       <use xlink:href="#CMUBright-Roman-31" transform="translate(150.766022 33.957813) scale(0.7)"/>
       <use xlink:href="#CMUBright-Roman-33" transform="translate(187.516011 33.957813) scale(0.7)"/>
      </g>
     </g>
    </g>
    <g id="ytick_2">
     <g id="line2d_8">
      <g>
       <use xlink:href="#m2d21829317" x="73.87638" y="218.907211" style="fill: #5a5758; stroke: #5a5758; stroke-width: 0.8"/>
      </g>
     </g>
     <g id="text_9">
      <!-- $\mathdefault{10^{-11}}$ -->
      <g style="fill: #5a5758" transform="translate(32.84 224.117626) scale(0.14994 -0.14994)">
       <use xlink:href="#CMUBright-Roman-31" transform="translate(0 0.915625)"/>
       <use xlink:href="#CMUBright-Roman-30" transform="translate(52.499985 0.915625)"/>
       <use xlink:href="#CMUBright-Roman-2212" transform="translate(105.826024 33.957813) scale(0.7)"/>
       <use xlink:href="#CMUBright-Roman-31" transform="translate(150.766022 33.957813) scale(0.7)"/>
       <use xlink:href="#CMUBright-Roman-31" transform="translate(187.516011 33.957813) scale(0.7)"/>
      </g>
     </g>
    </g>
    <g id="ytick_3">
     <g id="line2d_9">
      <g>
       <use xlink:href="#m2d21829317" x="73.87638" y="180.36744" style="fill: #5a5758; stroke: #5a5758; stroke-width: 0.8"/>
      </g>
     </g>
     <g id="text_10">
      <!-- $\mathdefault{10^{-9}}$ -->
      <g style="fill: #5a5758" transform="translate(38.38778 185.577855) scale(0.14994 -0.14994)">
       <defs>
        <path id="CMUBright-Roman-39" d="M 346 2803 
Q 346 3443 768 3885 
Q 1158 4301 1696 4301 
Q 1875 4301 2038 4253 
Q 2202 4205 2384 4061 
Q 2566 3917 2700 3686 
Q 2835 3456 2921 3053 
Q 3008 2650 3008 2125 
Q 3008 1171 2537 531 
Q 2067 -109 1382 -109 
Q 909 -109 486 186 
L 653 480 
L 723 435 
Q 794 384 838 358 
Q 883 333 969 297 
Q 1056 262 1158 243 
Q 1261 224 1376 224 
Q 1690 224 1933 381 
Q 2176 538 2313 797 
Q 2451 1056 2518 1357 
Q 2586 1658 2586 1984 
L 2586 2074 
Q 2438 1754 2121 1530 
Q 1805 1306 1402 1306 
Q 973 1306 678 1709 
Q 346 2157 346 2803 
z
M 768 2656 
Q 768 2240 966 1936 
Q 1165 1632 1632 1632 
Q 2035 1632 2297 1936 
Q 2560 2240 2560 2656 
Q 2560 2752 2554 2803 
L 2566 2803 
Q 2522 3462 2272 3721 
Q 2022 3981 1696 3981 
Q 1242 3981 986 3648 
Q 768 3366 768 2822 
L 768 2656 
z
" transform="scale(0.015625)"/>
       </defs>
       <use xlink:href="#CMUBright-Roman-31" transform="translate(0 0.915625)"/>
       <use xlink:href="#CMUBright-Roman-30" transform="translate(52.499985 0.915625)"/>
       <use xlink:href="#CMUBright-Roman-2212" transform="translate(105.826024 33.957813) scale(0.7)"/>
       <use xlink:href="#CMUBright-Roman-39" transform="translate(150.766022 33.957813) scale(0.7)"/>
      </g>
     </g>
    </g>
    <g id="ytick_4">
     <g id="line2d_10">
      <g>
       <use xlink:href="#m2d21829317" x="73.87638" y="141.827669" style="fill: #5a5758; stroke: #5a5758; stroke-width: 0.8"/>
      </g>
     </g>
     <g id="text_11">
      <!-- $\mathdefault{10^{-7}}$ -->
      <g style="fill: #5a5758" transform="translate(38.38778 147.038084) scale(0.14994 -0.14994)">
       <defs>
        <path id="CMUBright-Roman-37" d="M 275 3840 
L 275 4192 
L 3072 4192 
L 3072 3853 
Q 2400 3149 1958 2147 
Q 1517 1146 1517 -51 
L 1088 -51 
Q 1088 1030 1523 2048 
Q 1958 3066 2797 3840 
L 275 3840 
z
" transform="scale(0.015625)"/>
       </defs>
       <use xlink:href="#CMUBright-Roman-31" transform="translate(0 0.107813)"/>
       <use xlink:href="#CMUBright-Roman-30" transform="translate(52.499985 0.107813)"/>
       <use xlink:href="#CMUBright-Roman-2212" transform="translate(105.826024 33.15) scale(0.7)"/>
       <use xlink:href="#CMUBright-Roman-37" transform="translate(150.766022 33.15) scale(0.7)"/>
      </g>
     </g>
    </g>
    <g id="ytick_5">
     <g id="line2d_11">
      <g>
       <use xlink:href="#m2d21829317" x="73.87638" y="103.287898" style="fill: #5a5758; stroke: #5a5758; stroke-width: 0.8"/>
      </g>
     </g>
     <g id="text_12">
      <!-- $\mathdefault{10^{-5}}$ -->
      <g style="fill: #5a5758" transform="translate(38.38778 108.498313) scale(0.14994 -0.14994)">
       <defs>
        <path id="CMUBright-Roman-35" d="M 301 518 
L 486 819 
Q 896 224 1581 224 
Q 1971 224 2268 473 
Q 2566 723 2566 1312 
Q 2566 1626 2489 1846 
Q 2413 2067 2285 2176 
Q 2157 2285 2032 2329 
Q 1907 2374 1773 2374 
Q 1210 2374 941 1901 
L 582 1901 
L 582 4192 
L 2797 4192 
L 2797 3853 
L 973 3853 
L 973 2381 
Q 1325 2701 1779 2701 
Q 2285 2701 2653 2291 
Q 3021 1882 3021 1306 
Q 3021 723 2601 307 
Q 2182 -109 1574 -109 
Q 813 -109 301 518 
z
" transform="scale(0.015625)"/>
       </defs>
       <use xlink:href="#CMUBright-Roman-31" transform="translate(0 0.107813)"/>
       <use xlink:href="#CMUBright-Roman-30" transform="translate(52.499985 0.107813)"/>
       <use xlink:href="#CMUBright-Roman-2212" transform="translate(105.826024 33.15) scale(0.7)"/>
       <use xlink:href="#CMUBright-Roman-35" transform="translate(150.766022 33.15) scale(0.7)"/>
      </g>
     </g>
    </g>
    <g id="ytick_6">
     <g id="line2d_12">
      <g>
       <use xlink:href="#m2d21829317" x="73.87638" y="64.748126" style="fill: #5a5758; stroke: #5a5758; stroke-width: 0.8"/>
      </g>
     </g>
     <g id="text_13">
      <!-- $\mathdefault{10^{-3}}$ -->
      <g style="fill: #5a5758" transform="translate(38.38778 69.958541) scale(0.14994 -0.14994)">
       <use xlink:href="#CMUBright-Roman-31" transform="translate(0 0.915625)"/>
       <use xlink:href="#CMUBright-Roman-30" transform="translate(52.499985 0.915625)"/>
       <use xlink:href="#CMUBright-Roman-2212" transform="translate(105.826024 33.957813) scale(0.7)"/>
       <use xlink:href="#CMUBright-Roman-33" transform="translate(150.766022 33.957813) scale(0.7)"/>
      </g>
     </g>
    </g>
    <g id="ytick_7">
     <g id="line2d_13">
      <g>
       <use xlink:href="#m2d21829317" x="73.87638" y="26.208355" style="fill: #5a5758; stroke: #5a5758; stroke-width: 0.8"/>
      </g>
     </g>
     <g id="text_14">
      <!-- $\mathdefault{10^{-1}}$ -->
      <g style="fill: #5a5758" transform="translate(38.38778 31.41877) scale(0.14994 -0.14994)">
       <use xlink:href="#CMUBright-Roman-31" transform="translate(0 0.915625)"/>
       <use xlink:href="#CMUBright-Roman-30" transform="translate(52.499985 0.915625)"/>
       <use xlink:href="#CMUBright-Roman-2212" transform="translate(105.826024 33.957813) scale(0.7)"/>
       <use xlink:href="#CMUBright-Roman-31" transform="translate(150.766022 33.957813) scale(0.7)"/>
      </g>
     </g>
    </g>
    <g id="text_15">
     <!-- $||r||_1$ -->
     <g style="fill: #5a5758" transform="translate(20.7 166.33383) rotate(-90) scale(0.18 -0.18)">
      <defs>
       <path id="CMUBright-SemiBold-7c" d="M 774 -1203 
L 774 4582 
Q 774 4794 928 4794 
Q 1088 4794 1088 4576 
L 1088 -1203 
Q 1088 -1421 934 -1421 
Q 774 -1421 774 -1203 
z
" transform="scale(0.015625)"/>
       <path id="CMUBright-SemiBold-31" d="M 570 3398 
L 570 3885 
Q 1459 3885 1914 4301 
L 2067 4301 
L 2067 480 
L 2893 480 
L 2893 0 
L 608 0 
L 608 480 
L 1446 480 
L 1446 3533 
Q 1062 3398 570 3398 
z
" transform="scale(0.015625)"/>
      </defs>
      <use xlink:href="#CMUBright-SemiBold-7c" transform="translate(0 0.09375)"/>
      <use xlink:href="#CMUBright-SemiBold-7c" transform="translate(29.199997 0.09375)"/>
      <use xlink:href="#CMUBright-SemiBold-72" transform="translate(58.399994 0.09375)"/>
      <use xlink:href="#CMUBright-SemiBold-7c" transform="translate(92.999985 0.09375)"/>
      <use xlink:href="#CMUBright-SemiBold-7c" transform="translate(122.199982 0.09375)"/>
      <use xlink:href="#CMUBright-SemiBold-31" transform="translate(152.226033 -14.067188) scale(0.7)"/>
     </g>
    </g>
   </g>
   <g id="line2d_14">
    <path d="M 85.87638 9.033401 
L 105.059832 32.15054 
L 124.243284 52.482007 
L 143.426736 69.550738 
L 162.610188 85.97004 
L 181.79364 102.263963 
L 200.977092 118.537406 
L 220.160544 134.824914 
L 239.343996 151.113033 
L 258.527448 167.39719 
L 277.7109 183.676298 
L 296.894352 199.888771 
L 316.077805 216.087631 
L 335.261257 232.29655 
L 354.444709 248.460846 
L 373.628161 264.466191 
L 392.811613 278.799503 
L 411.995065 286.490884 
L 431.178517 290.907661 
L 450.361969 288.648606 
" style="fill: none; stroke: #e29400; stroke-width: 2; stroke-linecap: square"/>
   </g>
   <g id="line2d_15">
    <path d="M 85.87638 7.984911 
L 105.244836 30.41439 
L 124.613291 49.391794 
L 143.981747 65.180173 
L 163.350203 80.460848 
L 182.718658 95.385285 
L 202.087114 110.136071 
L 221.45557 124.907173 
L 240.824025 139.672493 
L 260.192481 154.364701 
L 279.560937 169.087155 
L 298.929392 183.821781 
L 318.297848 198.552935 
L 337.666304 213.287091 
L 357.034759 228.035013 
L 376.403215 242.752763 
L 395.771671 257.128712 
L 415.140126 269.348262 
L 434.508582 275.34273 
L 453.877038 276.191779 
" style="fill: none; stroke: #1e90ff; stroke-width: 2; stroke-linecap: square"/>
   </g>
   <g id="line2d_16">
    <path d="M 85.87638 7.461562 
L 105.291087 29.352862 
L 124.705793 47.591514 
L 144.1205 62.730657 
L 163.535206 77.217117 
L 182.949913 91.684228 
L 202.364619 106.102093 
L 221.779326 120.338586 
L 241.194033 134.435103 
L 260.608739 148.445496 
L 280.023446 162.387975 
L 299.438152 176.375318 
L 318.852859 190.397741 
L 338.267565 204.412853 
L 357.682272 218.44215 
L 377.096979 232.436207 
L 396.511685 246.016529 
L 415.926392 257.336861 
L 435.341098 263.301861 
L 454.755805 264.373866 
" style="fill: none; stroke: #e21a1a; stroke-width: 2; stroke-linecap: square"/>
   </g>
   <g id="line2d_17">
    <path d="M 85.87638 7.2 
L 105.302649 28.635876 
L 124.728919 46.607934 
L 144.155188 61.349581 
L 163.581457 75.599973 
L 183.007726 89.609934 
L 202.433996 103.517706 
L 221.860265 117.34586 
L 241.286534 131.132078 
L 260.712804 144.902551 
L 280.139073 158.680775 
L 299.565342 172.451185 
L 318.991612 186.210435 
L 338.417881 199.928304 
L 357.84415 213.63738 
L 377.270419 227.217289 
L 396.696689 239.886022 
L 416.122958 248.786097 
L 435.549227 252.18658 
L 454.975497 252.77418 
" style="fill: none; stroke: #00a650; stroke-width: 2; stroke-linecap: square"/>
   </g>
   <g id="patch_3">
    <path d="M 73.87638 290.907661 
L 73.87638 7.2 
" style="fill: none; stroke: #5a5758; stroke-width: 0.8; stroke-linejoin: miter; stroke-linecap: square"/>
   </g>
   <g id="patch_4">
    <path d="M 85.87638 302.907661 
L 454.975497 302.907661 
" style="fill: none; stroke: #5a5758; stroke-width: 0.8; stroke-linejoin: miter; stroke-linecap: square"/>
   </g>
   <g id="legend_1">
    <g id="line2d_18">
     <path d="M 328.615497 29.7 
L 346.615497 29.7 
L 364.615497 29.7 
" style="fill: none; stroke: #e29400; stroke-width: 2; stroke-linecap: square"/>
    </g>
    <g id="text_16">
     <!-- $N=16$ -->
     <g style="fill: #e29400" transform="translate(379.015497 36) scale(0.18 -0.18)">
      <defs>
       <path id="CMUBright-Roman-4e" d="M 640 0 
L 640 4448 
L 1267 4448 
L 3488 371 
L 3488 4448 
L 3891 4448 
L 3891 0 
L 3264 0 
L 1043 4077 
L 1043 0 
L 640 0 
z
" transform="scale(0.015625)"/>
       <path id="CMUBright-Roman-3d" d="M 378 1062 
Q 378 1229 576 1229 
L 3533 1229 
Q 3725 1222 3725 1062 
Q 3725 909 3514 909 
L 589 909 
Q 378 909 378 1062 
z
M 378 2304 
Q 378 2470 582 2470 
L 3533 2470 
Q 3725 2464 3725 2304 
Q 3725 2150 3514 2150 
L 589 2150 
Q 378 2150 378 2304 
z
" transform="scale(0.015625)"/>
      </defs>
      <use xlink:href="#CMUBright-Roman-4e" transform="translate(0 0.5)"/>
      <use xlink:href="#CMUBright-Roman-3d" transform="translate(90.28241 0.5)"/>
      <use xlink:href="#CMUBright-Roman-31" transform="translate(173.964828 0.5)"/>
      <use xlink:href="#CMUBright-Roman-36" transform="translate(226.464813 0.5)"/>
     </g>
    </g>
    <g id="line2d_19">
     <path d="M 328.615497 54.306562 
L 346.615497 54.306562 
L 364.615497 54.306562 
" style="fill: none; stroke: #1e90ff; stroke-width: 2; stroke-linecap: square"/>
    </g>
    <g id="text_17">
     <!-- $N=32$ -->
     <g style="fill: #1e90ff" transform="translate(379.015497 60.606562) scale(0.18 -0.18)">
      <use xlink:href="#CMUBright-Roman-4e" transform="translate(0 0.5)"/>
      <use xlink:href="#CMUBright-Roman-3d" transform="translate(90.28241 0.5)"/>
      <use xlink:href="#CMUBright-Roman-33" transform="translate(173.964828 0.5)"/>
      <use xlink:href="#CMUBright-Roman-32" transform="translate(226.464813 0.5)"/>
     </g>
    </g>
    <g id="line2d_20">
     <path d="M 328.615497 78.913125 
L 346.615497 78.913125 
L 364.615497 78.913125 
" style="fill: none; stroke: #e21a1a; stroke-width: 2; stroke-linecap: square"/>
    </g>
    <g id="text_18">
     <!-- $N=64$ -->
     <g style="fill: #e21a1a" transform="translate(379.015497 85.213125) scale(0.18 -0.18)">
      <use xlink:href="#CMUBright-Roman-4e" transform="translate(0 0.5)"/>
      <use xlink:href="#CMUBright-Roman-3d" transform="translate(90.28241 0.5)"/>
      <use xlink:href="#CMUBright-Roman-36" transform="translate(173.964828 0.5)"/>
      <use xlink:href="#CMUBright-Roman-34" transform="translate(226.464813 0.5)"/>
     </g>
    </g>
    <g id="line2d_21">
     <path d="M 328.615497 103.519687 
L 346.615497 103.519687 
L 364.615497 103.519687 
" style="fill: none; stroke: #00a650; stroke-width: 2; stroke-linecap: square"/>
    </g>
    <g id="text_19">
     <!-- $N=128$ -->
     <g style="fill: #00a650" transform="translate(379.015497 109.819687) scale(0.18 -0.18)">
      <use xlink:href="#CMUBright-Roman-4e" transform="translate(0 0.5)"/>
      <use xlink:href="#CMUBright-Roman-3d" transform="translate(90.28241 0.5)"/>
      <use xlink:href="#CMUBright-Roman-31" transform="translate(173.964828 0.5)"/>
      <use xlink:href="#CMUBright-Roman-32" transform="translate(226.464813 0.5)"/>
      <use xlink:href="#CMUBright-Roman-38" transform="translate(278.964798 0.5)"/>
     </g>
    </g>
   </g>
  </g>
 </g>
</svg>