<?xml version="1.0" encoding="utf-8" standalone="no"?>
<!DOCTYPE svg PUBLIC "-//W3C//DTD SVG 1.1//EN"
  "http://www.w3.org/Graphics/SVG/1.1/DTD/svg11.dtd">
<svg xmlns:xlink="http://www.w3.org/1999/xlink" width="728.39952pt" height="1448.39952pt" viewBox="0 0 728.39952 1448.39952" xmlns="http://www.w3.org/2000/svg" version="1.1">
 <metadata>
  <rdf:RDF xmlns:dc="http://purl.org/dc/elements/1.1/" xmlns:cc="http://creativecommons.org/ns#" xmlns:rdf="http://www.w3.org/1999/02/22-rdf-syntax-ns#">
   <cc:Work>
    <dc:type rdf:resource="http://purl.org/dc/dcmitype/StillImage"/>
    <dc:date>2023-11-14T21:23:11.121602</dc:date>
    <dc:format>image/svg+xml</dc:format>
    <dc:creator>
     <cc:Agent>
      <dc:title>Matplotlib v3.8.1, https://matplotlib.org/</dc:title>
     </cc:Agent>
    </dc:creator>
   </cc:Work>
  </rdf:RDF>
 </metadata>
 <defs>
  <style type="text/css">*{stroke-linejoin: round; stroke-linecap: butt}</style>
 </defs>
 <g id="figure_1">
  <g id="patch_1">
   <path d="M 0 1448.39952 
L 728.39952 1448.39952 
L 728.39952 0 
L 0 0 
z
" style="fill: #ffffff"/>
  </g>
  <g id="axes_1">
   <g id="patch_2">
    <path d="M 71.554267 233.688811 
L 711.138312 233.688811 
L 711.138312 28.212 
L 71.554267 28.212 
z
" style="fill: #ffffff"/>
   </g>
   <g id="matplotlib.axis_1">
    <g id="xtick_1">
     <g id="line2d_1">
      <defs>
       <path id="m5ce0d484f8" d="M 0 0 
L 0 3.5 
" style="stroke: #5a5758; stroke-width: 0.8"/>
      </defs>
      <g>
       <use xlink:href="#m5ce0d484f8" x="71.554267" y="245.688811" style="fill: #5a5758; stroke: #5a5758; stroke-width: 0.8"/>
      </g>
     </g>
     <g id="text_1">
      <!-- 0.0 -->
      <g style="fill: #5a5758" transform="translate(61.493058 263.109641) scale(0.14994 -0.14994)">
       <defs>
        <path id="CMUBright-Roman-30" d="M 333 1984 
L 333 2086 
Q 333 2291 339 2438 
Q 346 2586 371 2832 
Q 397 3078 461 3267 
Q 525 3456 621 3657 
Q 717 3859 880 4006 
Q 1043 4154 1261 4230 
Q 1446 4301 1677 4301 
Q 1856 4301 2025 4256 
Q 2195 4211 2380 4070 
Q 2566 3930 2704 3709 
Q 2842 3488 2931 3104 
Q 3021 2720 3021 2214 
Q 3021 1683 2982 1347 
Q 2944 1011 2803 685 
Q 2618 250 2307 70 
Q 1997 -109 1677 -109 
Q 1498 -109 1328 -64 
Q 1158 -19 972 121 
Q 787 262 649 483 
Q 512 704 422 1091 
Q 333 1478 333 1984 
z
M 742 2413 
Q 742 2374 745 2326 
Q 749 2278 749 2272 
L 749 2150 
Q 749 1779 758 1548 
Q 768 1318 838 1014 
Q 909 710 1037 538 
Q 1286 218 1677 218 
Q 2086 218 2330 557 
Q 2451 730 2518 1037 
Q 2586 1344 2595 1568 
Q 2605 1792 2605 2163 
L 2605 2272 
Q 2605 2278 2608 2323 
Q 2611 2368 2611 2406 
Q 2611 3302 2336 3661 
Q 2099 3981 1677 3981 
Q 1242 3981 1005 3642 
Q 742 3264 742 2413 
z
" transform="scale(0.015625)"/>
        <path id="CMUBright-Roman-2e" d="M 678 0 
L 678 499 
L 1178 499 
L 1178 0 
L 678 0 
z
" transform="scale(0.015625)"/>
       </defs>
       <use xlink:href="#CMUBright-Roman-30"/>
       <use xlink:href="#CMUBright-Roman-2e" x="52.499985"/>
       <use xlink:href="#CMUBright-Roman-30" x="81.699982"/>
      </g>
     </g>
    </g>
    <g id="xtick_2">
     <g id="line2d_2">
      <g>
       <use xlink:href="#m5ce0d484f8" x="199.471076" y="245.688811" style="fill: #5a5758; stroke: #5a5758; stroke-width: 0.8"/>
      </g>
     </g>
     <g id="text_2">
      <!-- 0.2 -->
      <g style="fill: #5a5758" transform="translate(189.409867 263.109641) scale(0.14994 -0.14994)">
       <defs>
        <path id="CMUBright-Roman-32" d="M 275 3226 
Q 595 4301 1587 4301 
L 1594 4301 
Q 2214 4294 2617 3923 
Q 3021 3552 3021 2989 
Q 3021 2746 2937 2531 
Q 2854 2317 2668 2115 
Q 2483 1914 2384 1821 
Q 2285 1728 2061 1549 
Q 1754 1299 1642 1203 
Q 1530 1107 698 358 
L 3021 358 
L 3021 0 
L 333 0 
L 333 339 
L 1683 1562 
Q 2144 1965 2368 2278 
Q 2592 2592 2592 2982 
Q 2592 3418 2278 3690 
Q 1965 3962 1498 3962 
Q 1069 3962 854 3693 
Q 640 3424 512 2938 
L 275 3226 
z
" transform="scale(0.015625)"/>
       </defs>
       <use xlink:href="#CMUBright-Roman-30"/>
       <use xlink:href="#CMUBright-Roman-2e" x="52.499985"/>
       <use xlink:href="#CMUBright-Roman-32" x="81.699982"/>
      </g>
     </g>
    </g>
    <g id="xtick_3">
     <g id="line2d_3">
      <g>
       <use xlink:href="#m5ce0d484f8" x="327.387885" y="245.688811" style="fill: #5a5758; stroke: #5a5758; stroke-width: 0.8"/>
      </g>
     </g>
     <g id="text_3">
      <!-- 0.4 -->
      <g style="fill: #5a5758" transform="translate(317.326676 263.109641) scale(0.14994 -0.14994)">
       <defs>
        <path id="CMUBright-Roman-34" d="M 186 1158 
L 186 1504 
L 1952 4250 
L 2438 4250 
L 2438 1498 
L 3168 1498 
L 3168 1158 
L 2438 1158 
L 2438 0 
L 2035 0 
L 2035 1158 
L 186 1158 
z
M 602 1498 
L 2054 1498 
L 2054 3885 
Q 1971 3667 1606 3085 
L 602 1498 
z
" transform="scale(0.015625)"/>
       </defs>
       <use xlink:href="#CMUBright-Roman-30"/>
       <use xlink:href="#CMUBright-Roman-2e" x="52.499985"/>
       <use xlink:href="#CMUBright-Roman-34" x="81.699982"/>
      </g>
     </g>
    </g>
    <g id="xtick_4">
     <g id="line2d_4">
      <g>
       <use xlink:href="#m5ce0d484f8" x="455.304694" y="245.688811" style="fill: #5a5758; stroke: #5a5758; stroke-width: 0.8"/>
      </g>
     </g>
     <g id="text_4">
      <!-- 0.6 -->
      <g style="fill: #5a5758" transform="translate(445.243485 263.109641) scale(0.14994 -0.14994)">
       <defs>
        <path id="CMUBright-Roman-36" d="M 346 2061 
Q 346 3072 864 3686 
Q 1382 4301 2074 4301 
L 2086 4301 
Q 2426 4301 2797 4179 
L 2797 3846 
Q 2374 3981 2074 3981 
L 2061 3981 
Q 1478 3981 1123 3491 
Q 768 3002 768 2208 
Q 768 2195 771 2166 
Q 774 2138 774 2125 
Q 928 2445 1238 2665 
Q 1549 2886 1952 2886 
Q 2387 2886 2682 2483 
Q 3008 2029 3008 1408 
Q 3008 768 2618 326 
Q 2240 -109 1690 -109 
Q 1510 -109 1340 -57 
Q 1171 -6 985 141 
Q 800 288 662 521 
Q 525 755 435 1152 
Q 346 1549 346 2061 
z
M 794 1389 
Q 813 1171 854 1004 
Q 896 838 985 643 
Q 1075 448 1254 336 
Q 1434 224 1690 224 
Q 2138 224 2381 550 
Q 2515 736 2550 921 
Q 2586 1107 2586 1434 
Q 2586 1645 2573 1776 
Q 2560 1907 2480 2089 
Q 2400 2272 2253 2400 
Q 2054 2566 1728 2566 
Q 1325 2566 1062 2265 
Q 800 1965 800 1555 
Q 800 1440 806 1389 
L 794 1389 
z
" transform="scale(0.015625)"/>
       </defs>
       <use xlink:href="#CMUBright-Roman-30"/>
       <use xlink:href="#CMUBright-Roman-2e" x="52.499985"/>
       <use xlink:href="#CMUBright-Roman-36" x="81.699982"/>
      </g>
     </g>
    </g>
    <g id="xtick_5">
     <g id="line2d_5">
      <g>
       <use xlink:href="#m5ce0d484f8" x="583.221503" y="245.688811" style="fill: #5a5758; stroke: #5a5758; stroke-width: 0.8"/>
      </g>
     </g>
     <g id="text_5">
      <!-- 0.8 -->
      <g style="fill: #5a5758" transform="translate(573.160294 263.109641) scale(0.14994 -0.14994)">
       <defs>
        <path id="CMUBright-Roman-38" d="M 275 1158 
Q 275 1517 518 1817 
Q 762 2118 1248 2266 
Q 909 2349 640 2598 
Q 371 2848 371 3206 
Q 371 3642 745 3971 
Q 1120 4301 1677 4301 
Q 2221 4301 2601 3981 
Q 2982 3661 2982 3213 
Q 2982 2918 2787 2684 
Q 2592 2451 2285 2323 
L 2099 2266 
Q 2464 2176 2768 1885 
Q 3072 1594 3072 1158 
Q 3072 646 2665 268 
Q 2259 -109 1670 -109 
Q 1075 -109 675 275 
Q 275 659 275 1158 
z
M 698 1158 
Q 698 704 970 464 
Q 1242 224 1670 224 
Q 2118 224 2384 470 
Q 2650 717 2650 1165 
Q 2650 1619 2371 1862 
Q 2093 2106 1670 2106 
Q 1280 2106 989 1878 
Q 698 1651 698 1158 
z
M 755 3206 
Q 755 2886 982 2656 
Q 1210 2426 1670 2426 
Q 2093 2426 2342 2634 
Q 2592 2842 2592 3206 
Q 2592 3507 2387 3744 
Q 2182 3981 1683 3981 
Q 1171 3981 963 3744 
Q 755 3507 755 3206 
z
" transform="scale(0.015625)"/>
       </defs>
       <use xlink:href="#CMUBright-Roman-30"/>
       <use xlink:href="#CMUBright-Roman-2e" x="52.499985"/>
       <use xlink:href="#CMUBright-Roman-38" x="81.699982"/>
      </g>
     </g>
    </g>
    <g id="xtick_6">
     <g id="line2d_6">
      <g>
       <use xlink:href="#m5ce0d484f8" x="711.138312" y="245.688811" style="fill: #5a5758; stroke: #5a5758; stroke-width: 0.8"/>
      </g>
     </g>
     <g id="text_6">
      <!-- 1.0 -->
      <g style="fill: #5a5758" transform="translate(701.077103 263.109641) scale(0.14994 -0.14994)">
       <defs>
        <path id="CMUBright-Roman-31" d="M 672 3558 
L 672 3885 
Q 1427 3885 1862 4301 
L 1965 4301 
L 1965 320 
L 2803 320 
L 2803 0 
L 710 0 
L 710 320 
L 1549 320 
L 1549 3744 
Q 1178 3558 672 3558 
z
" transform="scale(0.015625)"/>
       </defs>
       <use xlink:href="#CMUBright-Roman-31"/>
       <use xlink:href="#CMUBright-Roman-2e" x="52.499985"/>
       <use xlink:href="#CMUBright-Roman-30" x="81.699982"/>
      </g>
     </g>
    </g>
    <g id="text_7">
     <!-- $x$ -->
     <g style="fill: #5a5758" transform="translate(387.206289 286.124107) scale(0.18 -0.18)">
      <defs>
       <path id="CMUBright-SemiBold-78" d="M 0 0 
L 1184 1562 
L 1184 1568 
L 38 3021 
L 698 3021 
L 1446 2022 
L 2163 3021 
L 2816 3021 
L 1709 1568 
L 1709 1562 
L 2931 0 
L 2272 0 
L 1446 1197 
L 1440 1197 
L 653 0 
L 0 0 
z
" transform="scale(0.015625)"/>
      </defs>
      <use xlink:href="#CMUBright-SemiBold-78" transform="translate(0 0.796875)"/>
     </g>
    </g>
   </g>
   <g id="matplotlib.axis_2">
    <g id="ytick_1">
     <g id="line2d_7">
      <defs>
       <path id="m41dc47bb64" d="M 0 0 
L -3.5 0 
" style="stroke: #5a5758; stroke-width: 0.8"/>
      </defs>
      <g>
       <use xlink:href="#m41dc47bb64" x="59.554267" y="233.688811" style="fill: #5a5758; stroke: #5a5758; stroke-width: 0.8"/>
      </g>
     </g>
     <g id="text_8">
      <!-- 0.0 -->
      <g style="fill: #5a5758" transform="translate(32.43185 238.899226) scale(0.14994 -0.14994)">
       <use xlink:href="#CMUBright-Roman-30"/>
       <use xlink:href="#CMUBright-Roman-2e" x="52.499985"/>
       <use xlink:href="#CMUBright-Roman-30" x="81.699982"/>
      </g>
     </g>
    </g>
    <g id="ytick_2">
     <g id="line2d_8">
      <g>
       <use xlink:href="#m41dc47bb64" x="59.554267" y="192.593449" style="fill: #5a5758; stroke: #5a5758; stroke-width: 0.8"/>
      </g>
     </g>
     <g id="text_9">
      <!-- 0.2 -->
      <g style="fill: #5a5758" transform="translate(32.43185 197.803864) scale(0.14994 -0.14994)">
       <use xlink:href="#CMUBright-Roman-30"/>
       <use xlink:href="#CMUBright-Roman-2e" x="52.499985"/>
       <use xlink:href="#CMUBright-Roman-32" x="81.699982"/>
      </g>
     </g>
    </g>
    <g id="ytick_3">
     <g id="line2d_9">
      <g>
       <use xlink:href="#m41dc47bb64" x="59.554267" y="151.498087" style="fill: #5a5758; stroke: #5a5758; stroke-width: 0.8"/>
      </g>
     </g>
     <g id="text_10">
      <!-- 0.4 -->
      <g style="fill: #5a5758" transform="translate(32.43185 156.708502) scale(0.14994 -0.14994)">
       <use xlink:href="#CMUBright-Roman-30"/>
       <use xlink:href="#CMUBright-Roman-2e" x="52.499985"/>
       <use xlink:href="#CMUBright-Roman-34" x="81.699982"/>
      </g>
     </g>
    </g>
    <g id="ytick_4">
     <g id="line2d_10">
      <g>
       <use xlink:href="#m41dc47bb64" x="59.554267" y="110.402724" style="fill: #5a5758; stroke: #5a5758; stroke-width: 0.8"/>
      </g>
     </g>
     <g id="text_11">
      <!-- 0.6 -->
      <g style="fill: #5a5758" transform="translate(32.43185 115.613139) scale(0.14994 -0.14994)">
       <use xlink:href="#CMUBright-Roman-30"/>
       <use xlink:href="#CMUBright-Roman-2e" x="52.499985"/>
       <use xlink:href="#CMUBright-Roman-36" x="81.699982"/>
      </g>
     </g>
    </g>
    <g id="ytick_5">
     <g id="line2d_11">
      <g>
       <use xlink:href="#m41dc47bb64" x="59.554267" y="69.307362" style="fill: #5a5758; stroke: #5a5758; stroke-width: 0.8"/>
      </g>
     </g>
     <g id="text_12">
      <!-- 0.8 -->
      <g style="fill: #5a5758" transform="translate(32.43185 74.517777) scale(0.14994 -0.14994)">
       <use xlink:href="#CMUBright-Roman-30"/>
       <use xlink:href="#CMUBright-Roman-2e" x="52.499985"/>
       <use xlink:href="#CMUBright-Roman-38" x="81.699982"/>
      </g>
     </g>
    </g>
    <g id="ytick_6">
     <g id="line2d_12">
      <g>
       <use xlink:href="#m41dc47bb64" x="59.554267" y="28.212" style="fill: #5a5758; stroke: #5a5758; stroke-width: 0.8"/>
      </g>
     </g>
     <g id="text_13">
      <!-- 1.0 -->
      <g style="fill: #5a5758" transform="translate(32.43185 33.422415) scale(0.14994 -0.14994)">
       <use xlink:href="#CMUBright-Roman-31"/>
       <use xlink:href="#CMUBright-Roman-2e" x="52.499985"/>
       <use xlink:href="#CMUBright-Roman-30" x="81.699982"/>
      </g>
     </g>
    </g>
    <g id="text_14">
     <!-- $u$ -->
     <g style="fill: #5a5758" transform="translate(15.07185 127.943843) scale(0.18 -0.18)">
      <defs>
       <path id="CMUBright-SemiBold-75" d="M 410 838 
L 410 3021 
L 1024 3021 
L 1024 883 
Q 1030 570 1069 506 
Q 1139 403 1510 403 
Q 1888 403 2064 601 
Q 2240 800 2266 998 
Q 2272 1062 2272 1197 
L 2272 3021 
L 2886 3021 
L 2886 0 
L 2285 0 
L 2285 480 
Q 1830 -51 1088 -51 
Q 858 -51 710 29 
Q 563 109 502 262 
Q 442 416 426 537 
Q 410 659 410 838 
z
" transform="scale(0.015625)"/>
      </defs>
      <use xlink:href="#CMUBright-SemiBold-75" transform="translate(0 0.796875)"/>
     </g>
    </g>
   </g>
   <g id="line2d_13">
    <path d="M 71.554267 233.688811 
L 100.868535 233.688811 
L 103.533469 28.212 
L 199.471076 28.212 
L 202.136009 233.688811 
L 263.42948 233.688811 
L 266.094414 232.127984 
L 268.759347 227.492927 
L 271.424281 219.924475 
L 274.089214 209.65259 
L 276.754148 196.98938 
L 279.419081 182.319608 
L 282.084015 166.08901 
L 287.413882 130.950405 
L 292.743749 95.811801 
L 295.408682 79.581203 
L 298.073616 64.911431 
L 300.738549 52.248221 
L 303.403483 41.976336 
L 306.068416 34.407884 
L 308.73335 29.772827 
L 311.398283 28.212 
L 314.063217 29.772827 
L 316.728151 34.407884 
L 319.393084 41.976336 
L 322.058018 52.248221 
L 324.722951 64.911431 
L 327.387885 79.581203 
L 330.052818 95.811801 
L 335.382685 130.950405 
L 340.712552 166.08901 
L 343.377486 182.319608 
L 346.042419 196.98938 
L 348.707353 209.65259 
L 351.372286 219.924475 
L 354.03722 227.492927 
L 356.702153 232.127984 
L 359.367087 233.688811 
L 423.325491 233.688811 
L 471.294295 28.212 
L 519.263098 233.688811 
L 583.221503 233.688811 
L 585.886436 166.154522 
L 588.55137 139.555189 
L 591.216303 120.10723 
L 593.881237 104.538547 
L 596.54617 91.568496 
L 599.211104 80.535439 
L 601.876037 71.044705 
L 604.540971 62.839072 
L 607.205904 55.740673 
L 609.870838 49.621365 
L 612.535771 44.386176 
L 615.200705 39.963416 
L 617.865638 36.298466 
L 620.530572 33.349733 
L 623.195506 31.085943 
L 625.860439 29.484314 
L 628.525373 28.529339 
L 631.190306 28.212 
L 633.85524 28.529339 
L 636.520173 29.484314 
L 639.185107 31.085943 
L 641.85004 33.349733 
L 644.514974 36.298466 
L 647.179907 39.963416 
L 649.844841 44.386176 
L 652.509774 49.621365 
L 655.174708 55.740673 
L 657.839641 62.839072 
L 660.504575 71.044705 
L 663.169508 80.535439 
L 665.834442 91.568496 
L 668.499375 104.538547 
L 671.164309 120.10723 
L 673.829242 139.555189 
L 676.494176 166.154522 
L 679.159109 233.688811 
L 711.138312 233.688811 
L 711.138312 233.688811 
" style="fill: none; stroke: #5a5758; stroke-opacity: 0.7; stroke-width: 2; stroke-linecap: square"/>
   </g>
   <g id="line2d_14">
    <path d="M 71.554267 186.179515 
L 74.2192 184.28042 
L 76.884134 181.656061 
L 79.549067 178.334682 
L 82.214001 174.353782 
L 84.878934 169.75963 
L 87.543868 164.606598 
L 90.208801 158.956321 
L 92.873735 152.876673 
L 98.203602 139.724857 
L 106.198402 118.693677 
L 111.528269 104.721528 
L 116.858136 91.466416 
L 119.52307 85.264658 
L 122.188003 79.417739 
L 124.852937 73.970284 
L 127.517871 68.959994 
L 130.182804 64.417898 
L 132.847738 60.36881 
L 135.512671 56.831958 
L 138.177605 53.821733 
L 140.842538 51.348493 
L 143.507472 49.419382 
L 146.172405 48.039088 
L 148.837339 47.210496 
L 151.502272 46.935201 
L 154.167206 47.213826 
L 156.832139 48.046146 
L 159.497073 49.431 
L 162.162006 51.366001 
L 164.82694 53.847064 
L 167.491873 56.867794 
L 170.156807 60.418769 
L 172.82174 64.486775 
L 175.486674 69.054053 
L 178.151607 74.097611 
L 180.816541 79.58866 
L 183.481474 85.492223 
L 186.146408 91.766946 
L 191.476275 105.233168 
L 196.806142 119.537291 
L 207.465876 148.525723 
L 212.795743 162.083054 
L 215.460677 168.390801 
L 218.12561 174.304011 
L 220.790544 179.768855 
L 223.455477 184.737567 
L 226.120411 189.16888 
L 228.785344 193.028263 
L 231.450278 196.288007 
L 234.115211 198.927185 
L 236.780145 200.931505 
L 239.445078 202.293122 
L 242.110012 203.010422 
L 244.774945 203.087821 
L 247.439879 202.535603 
L 250.104813 201.369813 
L 252.769746 199.612208 
L 255.43468 197.290268 
L 258.099613 194.437241 
L 260.764547 191.092206 
L 263.42948 187.300124 
L 266.094414 183.111832 
L 268.759347 178.58395 
L 274.089214 168.763363 
L 287.413882 143.172141 
L 290.078815 138.508163 
L 292.743749 134.1805 
L 295.408682 130.262624 
L 298.073616 126.822245 
L 300.738549 123.919769 
L 303.403483 121.606869 
L 306.068416 119.925233 
L 308.73335 118.905544 
L 311.398283 118.566726 
L 314.063217 118.915495 
L 316.728151 119.946233 
L 319.393084 121.641196 
L 322.058018 123.971044 
L 324.722951 126.895679 
L 327.387885 130.365367 
L 330.052818 134.322079 
L 332.717752 138.70103 
L 335.382685 143.432341 
L 340.712552 153.657406 
L 354.03722 180.258519 
L 356.702153 185.227619 
L 359.367087 189.95232 
L 362.03202 194.390703 
L 364.696954 198.507434 
L 367.361887 202.273543 
L 370.026821 205.666006 
L 372.691754 208.667201 
L 375.356688 211.264256 
L 378.021622 213.448343 
L 380.686555 215.213967 
L 383.351489 216.558282 
L 386.016422 217.480474 
L 388.681356 217.981251 
L 391.346289 218.062455 
L 394.011223 217.726814 
L 396.676156 216.977853 
L 399.34109 215.81995 
L 402.006023 214.258538 
L 404.670957 212.300437 
L 407.33589 209.954289 
L 410.000824 207.231072 
L 412.665757 204.144656 
L 415.330691 200.712375 
L 417.995624 196.955563 
L 420.660558 192.900033 
L 423.325491 188.576451 
L 428.655358 179.27342 
L 436.650159 164.368538 
L 441.980026 154.438675 
L 447.309893 145.091265 
L 449.974827 140.796037 
L 452.63976 136.836273 
L 455.304694 133.270603 
L 457.969627 130.153071 
L 460.634561 127.531856 
L 463.299494 125.448115 
L 465.964428 123.934954 
L 468.629361 123.016596 
L 471.294295 122.707761 
L 473.959228 123.013267 
L 476.624162 123.927895 
L 479.289095 125.436497 
L 481.954029 127.514349 
L 484.618962 130.12774 
L 487.283896 133.234767 
L 489.948829 136.786314 
L 492.613763 140.72716 
L 495.278696 144.997206 
L 500.608564 154.267754 
L 513.933231 178.613812 
L 516.598165 183.176977 
L 519.263098 187.506047 
L 521.928032 191.552601 
L 524.592965 195.272769 
L 527.257899 198.627262 
L 529.922832 201.581277 
L 532.587766 204.104339 
L 535.252699 206.170087 
L 537.917633 207.756055 
L 540.582566 208.843465 
L 543.2475 209.417065 
L 545.912433 209.465035 
L 548.577367 208.978971 
L 551.2423 207.953962 
L 553.907234 206.388745 
L 556.572167 204.285944 
L 559.237101 201.652365 
L 561.902035 198.49933 
L 564.566968 194.843018 
L 567.231902 190.704778 
L 569.896835 186.111395 
L 572.561769 181.095259 
L 575.226702 175.694427 
L 577.891636 169.952551 
L 583.221503 157.646739 
L 591.216303 138.005783 
L 596.54617 124.878673 
L 601.876037 112.360296 
L 604.540971 106.497181 
L 607.205904 100.983146 
L 609.870838 95.877612 
L 612.535771 91.235572 
L 615.200705 87.106917 
L 617.865638 83.535865 
L 620.530572 80.560485 
L 623.195506 78.212318 
L 625.860439 76.516082 
L 628.525373 75.489446 
L 631.190306 75.142871 
L 633.85524 75.479496 
L 636.520173 76.495082 
L 639.185107 78.177991 
L 641.85004 80.50921 
L 644.514974 83.462431 
L 647.179907 87.004174 
L 649.844841 91.093994 
L 652.509774 95.684745 
L 655.174708 100.722946 
L 657.839641 106.149236 
L 663.169508 117.902658 
L 671.164309 136.690901 
L 676.494176 149.079499 
L 679.159109 154.994542 
L 681.824043 160.620154 
L 684.488977 165.882357 
L 687.15391 170.711153 
L 689.818844 175.041462 
L 692.483777 178.814007 
L 695.148711 181.976126 
L 697.813644 184.482496 
L 700.478578 186.295785 
L 703.143511 187.387205 
L 705.808445 187.736975 
L 708.473378 187.334679 
L 711.138312 186.179515 
L 711.138312 186.179515 
" style="fill: none; stroke: #e29400; stroke-width: 2; stroke-linecap: square"/>
   </g>
   <g id="patch_3">
    <path d="M 59.554267 233.688811 
L 59.554267 28.212 
" style="fill: none; stroke: #5a5758; stroke-width: 0.8; stroke-linejoin: miter; stroke-linecap: square"/>
   </g>
   <g id="patch_4">
    <path d="M 71.554267 245.688811 
L 711.138312 245.688811 
" style="fill: none; stroke: #5a5758; stroke-width: 0.8; stroke-linejoin: miter; stroke-linecap: square"/>
   </g>
   <g id="text_15">
    <!-- FOU -->
    <g style="fill: #5a5758" transform="translate(368.980164 22.212) scale(0.216 -0.216)">
     <defs>
      <path id="CMUBright-Roman-46" d="M 627 0 
L 627 4435 
L 3533 4435 
L 3533 4096 
L 1075 4096 
L 1075 2387 
L 3251 2387 
L 3251 2048 
L 1075 2048 
L 1075 0 
L 627 0 
z
" transform="scale(0.015625)"/>
      <path id="CMUBright-Roman-4f" d="M 371 2214 
Q 371 3200 1001 3875 
Q 1632 4550 2502 4550 
Q 3366 4550 4000 3875 
Q 4634 3200 4634 2214 
Q 4634 1229 4000 560 
Q 3366 -109 2502 -109 
Q 1638 -109 1004 563 
Q 371 1235 371 2214 
z
M 819 2298 
Q 819 1376 1318 803 
Q 1818 230 2502 230 
Q 3181 230 3683 793 
Q 4186 1357 4186 2298 
Q 4186 3181 3683 3699 
Q 3181 4218 2502 4218 
Q 1824 4218 1321 3702 
Q 819 3187 819 2298 
z
" transform="scale(0.015625)"/>
      <path id="CMUBright-Roman-55" d="M 627 1581 
L 627 4448 
L 1075 4448 
L 1075 1549 
Q 1075 717 1594 397 
Q 1862 230 2221 230 
Q 2400 230 2569 278 
Q 2739 326 2937 454 
Q 3136 582 3257 860 
Q 3379 1139 3379 1536 
L 3379 4448 
L 3795 4448 
L 3795 1549 
Q 3795 774 3312 332 
Q 2829 -109 2221 -109 
Q 1632 -109 1184 275 
Q 736 659 646 1242 
Q 627 1357 627 1581 
z
" transform="scale(0.015625)"/>
     </defs>
     <use xlink:href="#CMUBright-Roman-46"/>
     <use xlink:href="#CMUBright-Roman-4f" x="59.599991"/>
     <use xlink:href="#CMUBright-Roman-55" x="137.899979"/>
    </g>
   </g>
  </g>
  <g id="axes_2">
   <g id="patch_5">
    <path d="M 71.554267 521.619961 
L 711.138312 521.619961 
L 711.138312 316.14315 
L 71.554267 316.14315 
z
" style="fill: #ffffff"/>
   </g>
   <g id="matplotlib.axis_3">
    <g id="xtick_7">
     <g id="line2d_15">
      <g>
       <use xlink:href="#m5ce0d484f8" x="71.554267" y="533.619961" style="fill: #5a5758; stroke: #5a5758; stroke-width: 0.8"/>
      </g>
     </g>
     <g id="text_16">
      <!-- 0.0 -->
      <g style="fill: #5a5758" transform="translate(61.493058 551.040791) scale(0.14994 -0.14994)">
       <use xlink:href="#CMUBright-Roman-30"/>
       <use xlink:href="#CMUBright-Roman-2e" x="52.499985"/>
       <use xlink:href="#CMUBright-Roman-30" x="81.699982"/>
      </g>
     </g>
    </g>
    <g id="xtick_8">
     <g id="line2d_16">
      <g>
       <use xlink:href="#m5ce0d484f8" x="199.471076" y="533.619961" style="fill: #5a5758; stroke: #5a5758; stroke-width: 0.8"/>
      </g>
     </g>
     <g id="text_17">
      <!-- 0.2 -->
      <g style="fill: #5a5758" transform="translate(189.409867 551.040791) scale(0.14994 -0.14994)">
       <use xlink:href="#CMUBright-Roman-30"/>
       <use xlink:href="#CMUBright-Roman-2e" x="52.499985"/>
       <use xlink:href="#CMUBright-Roman-32" x="81.699982"/>
      </g>
     </g>
    </g>
    <g id="xtick_9">
     <g id="line2d_17">
      <g>
       <use xlink:href="#m5ce0d484f8" x="327.387885" y="533.619961" style="fill: #5a5758; stroke: #5a5758; stroke-width: 0.8"/>
      </g>
     </g>
     <g id="text_18">
      <!-- 0.4 -->
      <g style="fill: #5a5758" transform="translate(317.326676 551.040791) scale(0.14994 -0.14994)">
       <use xlink:href="#CMUBright-Roman-30"/>
       <use xlink:href="#CMUBright-Roman-2e" x="52.499985"/>
       <use xlink:href="#CMUBright-Roman-34" x="81.699982"/>
      </g>
     </g>
    </g>
    <g id="xtick_10">
     <g id="line2d_18">
      <g>
       <use xlink:href="#m5ce0d484f8" x="455.304694" y="533.619961" style="fill: #5a5758; stroke: #5a5758; stroke-width: 0.8"/>
      </g>
     </g>
     <g id="text_19">
      <!-- 0.6 -->
      <g style="fill: #5a5758" transform="translate(445.243485 551.040791) scale(0.14994 -0.14994)">
       <use xlink:href="#CMUBright-Roman-30"/>
       <use xlink:href="#CMUBright-Roman-2e" x="52.499985"/>
       <use xlink:href="#CMUBright-Roman-36" x="81.699982"/>
      </g>
     </g>
    </g>
    <g id="xtick_11">
     <g id="line2d_19">
      <g>
       <use xlink:href="#m5ce0d484f8" x="583.221503" y="533.619961" style="fill: #5a5758; stroke: #5a5758; stroke-width: 0.8"/>
      </g>
     </g>
     <g id="text_20">
      <!-- 0.8 -->
      <g style="fill: #5a5758" transform="translate(573.160294 551.040791) scale(0.14994 -0.14994)">
       <use xlink:href="#CMUBright-Roman-30"/>
       <use xlink:href="#CMUBright-Roman-2e" x="52.499985"/>
       <use xlink:href="#CMUBright-Roman-38" x="81.699982"/>
      </g>
     </g>
    </g>
    <g id="xtick_12">
     <g id="line2d_20">
      <g>
       <use xlink:href="#m5ce0d484f8" x="711.138312" y="533.619961" style="fill: #5a5758; stroke: #5a5758; stroke-width: 0.8"/>
      </g>
     </g>
     <g id="text_21">
      <!-- 1.0 -->
      <g style="fill: #5a5758" transform="translate(701.077103 551.040791) scale(0.14994 -0.14994)">
       <use xlink:href="#CMUBright-Roman-31"/>
       <use xlink:href="#CMUBright-Roman-2e" x="52.499985"/>
       <use xlink:href="#CMUBright-Roman-30" x="81.699982"/>
      </g>
     </g>
    </g>
    <g id="text_22">
     <!-- $x$ -->
     <g style="fill: #5a5758" transform="translate(387.206289 574.055258) scale(0.18 -0.18)">
      <use xlink:href="#CMUBright-SemiBold-78" transform="translate(0 0.796875)"/>
     </g>
    </g>
   </g>
   <g id="matplotlib.axis_4">
    <g id="ytick_7">
     <g id="line2d_21">
      <g>
       <use xlink:href="#m41dc47bb64" x="59.554267" y="489.116438" style="fill: #5a5758; stroke: #5a5758; stroke-width: 0.8"/>
      </g>
     </g>
     <g id="text_23">
      <!-- 0.00 -->
      <g style="fill: #5a5758" transform="translate(24.56 494.326853) scale(0.14994 -0.14994)">
       <use xlink:href="#CMUBright-Roman-30"/>
       <use xlink:href="#CMUBright-Roman-2e" x="52.499985"/>
       <use xlink:href="#CMUBright-Roman-30" x="81.699982"/>
       <use xlink:href="#CMUBright-Roman-30" x="134.199966"/>
      </g>
     </g>
    </g>
    <g id="ytick_8">
     <g id="line2d_22">
      <g>
       <use xlink:href="#m41dc47bb64" x="59.554267" y="454.05931" style="fill: #5a5758; stroke: #5a5758; stroke-width: 0.8"/>
      </g>
     </g>
     <g id="text_24">
      <!-- 0.25 -->
      <g style="fill: #5a5758" transform="translate(24.56 459.269725) scale(0.14994 -0.14994)">
       <defs>
        <path id="CMUBright-Roman-35" d="M 301 518 
L 486 819 
Q 896 224 1581 224 
Q 1971 224 2268 473 
Q 2566 723 2566 1312 
Q 2566 1626 2489 1846 
Q 2413 2067 2285 2176 
Q 2157 2285 2032 2329 
Q 1907 2374 1773 2374 
Q 1210 2374 941 1901 
L 582 1901 
L 582 4192 
L 2797 4192 
L 2797 3853 
L 973 3853 
L 973 2381 
Q 1325 2701 1779 2701 
Q 2285 2701 2653 2291 
Q 3021 1882 3021 1306 
Q 3021 723 2601 307 
Q 2182 -109 1574 -109 
Q 813 -109 301 518 
z
" transform="scale(0.015625)"/>
       </defs>
       <use xlink:href="#CMUBright-Roman-30"/>
       <use xlink:href="#CMUBright-Roman-2e" x="52.499985"/>
       <use xlink:href="#CMUBright-Roman-32" x="81.699982"/>
       <use xlink:href="#CMUBright-Roman-35" x="134.199966"/>
      </g>
     </g>
    </g>
    <g id="ytick_9">
     <g id="line2d_23">
      <g>
       <use xlink:href="#m41dc47bb64" x="59.554267" y="419.002182" style="fill: #5a5758; stroke: #5a5758; stroke-width: 0.8"/>
      </g>
     </g>
     <g id="text_25">
      <!-- 0.50 -->
      <g style="fill: #5a5758" transform="translate(24.56 424.212597) scale(0.14994 -0.14994)">
       <use xlink:href="#CMUBright-Roman-30"/>
       <use xlink:href="#CMUBright-Roman-2e" x="52.499985"/>
       <use xlink:href="#CMUBright-Roman-35" x="81.699982"/>
       <use xlink:href="#CMUBright-Roman-30" x="134.199966"/>
      </g>
     </g>
    </g>
    <g id="ytick_10">
     <g id="line2d_24">
      <g>
       <use xlink:href="#m41dc47bb64" x="59.554267" y="383.945055" style="fill: #5a5758; stroke: #5a5758; stroke-width: 0.8"/>
      </g>
     </g>
     <g id="text_26">
      <!-- 0.75 -->
      <g style="fill: #5a5758" transform="translate(24.56 389.15547) scale(0.14994 -0.14994)">
       <defs>
        <path id="CMUBright-Roman-37" d="M 275 3840 
L 275 4192 
L 3072 4192 
L 3072 3853 
Q 2400 3149 1958 2147 
Q 1517 1146 1517 -51 
L 1088 -51 
Q 1088 1030 1523 2048 
Q 1958 3066 2797 3840 
L 275 3840 
z
" transform="scale(0.015625)"/>
       </defs>
       <use xlink:href="#CMUBright-Roman-30"/>
       <use xlink:href="#CMUBright-Roman-2e" x="52.499985"/>
       <use xlink:href="#CMUBright-Roman-37" x="81.699982"/>
       <use xlink:href="#CMUBright-Roman-35" x="134.199966"/>
      </g>
     </g>
    </g>
    <g id="ytick_11">
     <g id="line2d_25">
      <g>
       <use xlink:href="#m41dc47bb64" x="59.554267" y="348.887927" style="fill: #5a5758; stroke: #5a5758; stroke-width: 0.8"/>
      </g>
     </g>
     <g id="text_27">
      <!-- 1.00 -->
      <g style="fill: #5a5758" transform="translate(24.56 354.098342) scale(0.14994 -0.14994)">
       <use xlink:href="#CMUBright-Roman-31"/>
       <use xlink:href="#CMUBright-Roman-2e" x="52.499985"/>
       <use xlink:href="#CMUBright-Roman-30" x="81.699982"/>
       <use xlink:href="#CMUBright-Roman-30" x="134.199966"/>
      </g>
     </g>
    </g>
    <g id="text_28">
     <!-- $u$ -->
     <g style="fill: #5a5758" transform="translate(7.2 415.874993) scale(0.18 -0.18)">
      <use xlink:href="#CMUBright-SemiBold-75" transform="translate(0 0.796875)"/>
     </g>
    </g>
   </g>
   <g id="line2d_26">
    <path d="M 71.554267 489.116438 
L 100.868535 489.116438 
L 103.533469 348.887927 
L 199.471076 348.887927 
L 202.136009 489.116438 
L 263.42948 489.116438 
L 266.094414 488.051245 
L 268.759347 484.888031 
L 271.424281 479.722909 
L 274.089214 472.712818 
L 276.754148 464.070757 
L 279.419081 454.05931 
L 282.084015 442.98267 
L 287.413882 419.002182 
L 292.743749 395.021695 
L 295.408682 383.945055 
L 298.073616 373.933608 
L 300.738549 365.291547 
L 303.403483 358.281456 
L 306.068416 353.116334 
L 308.73335 349.95312 
L 311.398283 348.887927 
L 314.063217 349.95312 
L 316.728151 353.116334 
L 319.393084 358.281456 
L 322.058018 365.291547 
L 324.722951 373.933608 
L 327.387885 383.945055 
L 330.052818 395.021695 
L 335.382685 419.002182 
L 340.712552 442.98267 
L 343.377486 454.05931 
L 346.042419 464.070757 
L 348.707353 472.712818 
L 351.372286 479.722909 
L 354.03722 484.888031 
L 356.702153 488.051245 
L 359.367087 489.116438 
L 423.325491 489.116438 
L 471.294295 348.887927 
L 519.263098 489.116438 
L 583.221503 489.116438 
L 585.886436 443.027379 
L 588.55137 424.874553 
L 591.216303 411.602212 
L 593.881237 400.977299 
L 596.54617 392.125833 
L 599.211104 384.596277 
L 601.876037 378.119286 
L 604.540971 372.519317 
L 607.205904 367.674985 
L 609.870838 363.498838 
L 612.535771 359.926061 
L 615.200705 356.90773 
L 617.865638 354.40657 
L 620.530572 352.394195 
L 623.195506 350.849261 
L 625.860439 349.756223 
L 628.525373 349.104496 
L 631.190306 348.887927 
L 633.85524 349.104496 
L 636.520173 349.756223 
L 639.185107 350.849261 
L 641.85004 352.394195 
L 644.514974 354.40657 
L 647.179907 356.90773 
L 649.844841 359.926061 
L 652.509774 363.498838 
L 655.174708 367.674985 
L 657.839641 372.519317 
L 660.504575 378.119286 
L 663.169508 384.596277 
L 665.834442 392.125833 
L 668.499375 400.977299 
L 671.164309 411.602212 
L 673.829242 424.874553 
L 676.494176 443.027379 
L 679.159109 489.116438 
L 711.138312 489.116438 
L 711.138312 489.116438 
" style="fill: none; stroke: #5a5758; stroke-opacity: 0.7; stroke-width: 2; stroke-linecap: square"/>
   </g>
   <g id="line2d_27">
    <path d="M 71.554267 518.901593 
L 74.2192 521.619961 
L 76.884134 520.110559 
L 79.549067 514.526183 
L 82.214001 505.439255 
L 84.878934 493.610323 
L 87.543868 479.785983 
L 90.208801 464.598393 
L 98.203602 416.368394 
L 100.868535 401.59868 
L 103.533469 388.80158 
L 106.198402 378.640757 
L 108.863336 371.409089 
L 111.528269 366.885887 
L 114.193203 364.342614 
L 116.858136 362.718763 
L 119.52307 360.923331 
L 122.188003 358.166034 
L 124.852937 354.206401 
L 130.182804 344.748552 
L 132.847738 341.276177 
L 135.512671 340.007512 
L 138.177605 341.469556 
L 140.842538 345.526809 
L 143.507472 351.366921 
L 146.172405 357.6705 
L 148.837339 362.914025 
L 151.502272 365.722695 
L 154.167206 365.183364 
L 156.832139 361.045223 
L 159.497073 353.769744 
L 162.162006 344.430695 
L 164.82694 334.499127 
L 167.491873 325.5696 
L 170.156807 319.089377 
L 172.82174 316.14315 
L 175.486674 317.326554 
L 178.151607 322.718356 
L 180.816541 331.939726 
L 183.481474 344.273949 
L 186.146408 358.813334 
L 196.806142 421.312504 
L 199.471076 434.757418 
L 202.136009 446.602519 
L 204.800943 456.726459 
L 207.465876 465.100468 
L 210.13081 471.766673 
L 212.795743 476.825942 
L 215.460677 480.432894 
L 218.12561 482.793379 
L 220.790544 484.159261 
L 223.455477 484.816718 
L 226.120411 485.066827 
L 228.785344 485.200091 
L 231.450278 485.468829 
L 234.115211 486.062361 
L 236.780145 487.089381 
L 239.445078 488.570072 
L 242.110012 490.43814 
L 250.104813 496.647627 
L 252.769746 498.106266 
L 255.43468 498.793921 
L 258.099613 498.43543 
L 260.764547 496.788354 
L 263.42948 493.666606 
L 266.094414 488.962112 
L 268.759347 482.659527 
L 271.424281 474.839432 
L 274.089214 465.668151 
L 276.754148 455.37651 
L 279.419081 444.23374 
L 284.748948 420.533797 
L 290.078815 396.849147 
L 292.743749 385.741388 
L 295.408682 375.535734 
L 298.073616 366.553404 
L 300.738549 359.109701 
L 303.403483 353.493954 
L 306.068416 349.947848 
L 308.73335 348.645384 
L 311.398283 349.676003 
L 314.063217 353.03135 
L 316.728151 358.596389 
L 319.393084 366.146749 
L 322.058018 375.355023 
L 324.722951 385.808263 
L 335.382685 430.641439 
L 338.047619 440.501489 
L 340.712552 449.273482 
L 343.377486 456.882963 
L 346.042419 463.365898 
L 348.707353 468.842164 
L 351.372286 473.475497 
L 354.03722 477.426562 
L 356.702153 480.8097 
L 359.367087 483.665659 
L 362.03202 485.960309 
L 364.696954 487.612555 
L 367.361887 488.545015 
L 370.026821 488.742033 
L 372.691754 488.295067 
L 375.356688 487.417793 
L 378.021622 486.42217 
L 380.686555 485.659209 
L 383.351489 485.439886 
L 386.016422 485.95844 
L 388.681356 487.240158 
L 391.346289 489.129033 
L 396.676156 493.42648 
L 399.34109 495.071404 
L 402.006023 495.969796 
L 404.670957 495.989252 
L 407.33589 495.166206 
L 410.000824 493.674259 
L 412.665757 491.752496 
L 417.995624 487.365031 
L 420.660558 484.951333 
L 423.325491 482.16208 
L 425.990425 478.675727 
L 428.655358 474.141617 
L 431.320292 468.270133 
L 433.985225 460.907929 
L 436.650159 452.082122 
L 439.315093 442.008396 
L 444.64496 419.755638 
L 447.309893 408.626501 
L 449.974827 398.217393 
L 452.63976 388.982739 
L 455.304694 381.236929 
L 457.969627 375.12315 
L 460.634561 370.61984 
L 463.299494 367.588371 
L 465.964428 365.851644 
L 468.629361 365.279176 
L 471.294295 365.847454 
L 473.959228 367.649801 
L 476.624162 370.847711 
L 479.289095 375.579155 
L 481.954029 381.858704 
L 484.618962 389.510471 
L 487.283896 398.164149 
L 492.613763 416.466887 
L 495.278696 425.198506 
L 497.94363 433.307783 
L 500.608564 440.803545 
L 505.938431 454.690033 
L 511.268298 468.11104 
L 513.933231 474.42864 
L 516.598165 479.990125 
L 519.263098 484.320443 
L 521.928032 487.030894 
L 524.592965 487.958532 
L 527.257899 487.252271 
L 529.922832 485.375998 
L 532.587766 483.024696 
L 535.252699 480.977071 
L 537.917633 479.927691 
L 540.582566 480.34576 
L 543.2475 482.395195 
L 545.912433 485.927413 
L 548.577367 490.534414 
L 553.907234 500.566499 
L 556.572167 504.66272 
L 559.237101 507.316386 
L 561.902035 508.029118 
L 564.566968 506.456759 
L 567.231902 502.449787 
L 569.896835 496.081008 
L 572.561769 487.64822 
L 575.226702 477.641494 
L 585.886436 433.795823 
L 588.55137 424.005225 
L 593.881237 406.047916 
L 601.876037 380.507836 
L 604.540971 372.783698 
L 607.205904 366.23787 
L 609.870838 361.384382 
L 612.535771 358.481549 
L 615.200705 357.380628 
L 617.865638 357.50829 
L 620.530572 358.006118 
L 623.195506 357.987507 
L 625.860439 356.821252 
L 628.525373 354.335378 
L 631.190306 350.86327 
L 633.85524 347.116368 
L 636.520173 343.937404 
L 639.185107 342.035354 
L 641.85004 341.80727 
L 644.514974 343.311392 
L 647.179907 346.388065 
L 649.844841 350.860005 
L 652.509774 356.709555 
L 655.174708 364.142508 
L 657.839641 373.500175 
L 660.504575 385.050619 
L 663.169508 398.7461 
L 671.164309 445.007731 
L 673.829242 457.844009 
L 676.494176 467.301669 
L 679.159109 472.815558 
L 681.824043 474.54799 
L 684.488977 473.370719 
L 689.818844 468.140864 
L 692.483777 467.273532 
L 695.148711 469.204303 
L 697.813644 474.391898 
L 700.478578 482.531157 
L 708.473378 512.38847 
L 711.138312 518.901593 
L 711.138312 518.901593 
" style="fill: none; stroke: #e29400; stroke-width: 2; stroke-linecap: square"/>
   </g>
   <g id="patch_6">
    <path d="M 59.554267 521.619961 
L 59.554267 316.14315 
" style="fill: none; stroke: #5a5758; stroke-width: 0.8; stroke-linejoin: miter; stroke-linecap: square"/>
   </g>
   <g id="patch_7">
    <path d="M 71.554267 533.619961 
L 711.138312 533.619961 
" style="fill: none; stroke: #5a5758; stroke-width: 0.8; stroke-linejoin: miter; stroke-linecap: square"/>
   </g>
   <g id="text_29">
    <!-- Lax-Wendroff -->
    <g style="fill: #5a5758" transform="translate(328.188227 310.14315) scale(0.216 -0.216)">
     <defs>
      <path id="CMUBright-Roman-4c" d="M 627 0 
L 627 4448 
L 1075 4448 
L 1075 339 
L 3347 339 
L 3347 0 
L 627 0 
z
" transform="scale(0.015625)"/>
      <path id="CMUBright-Roman-61" d="M 352 736 
Q 352 896 435 1046 
Q 518 1197 707 1347 
Q 896 1498 1283 1590 
Q 1670 1683 2214 1696 
L 2214 1965 
Q 2214 2381 2042 2579 
Q 1856 2803 1568 2803 
Q 1331 2803 1107 2736 
Q 883 2669 809 2624 
Q 736 2579 557 2470 
L 525 2829 
Q 1043 3104 1574 3104 
Q 2054 3104 2326 2806 
Q 2598 2509 2624 2144 
L 2630 1926 
L 2630 0 
L 2227 0 
L 2227 442 
Q 1830 -51 1107 -51 
L 1062 -51 
Q 710 -51 531 205 
Q 352 461 352 736 
z
M 749 749 
Q 749 518 950 393 
Q 1152 269 1408 269 
Q 1523 269 1644 297 
Q 1766 326 1904 390 
Q 2042 454 2128 595 
Q 2214 736 2214 928 
L 2214 1498 
Q 1568 1491 1158 1286 
Q 749 1082 749 749 
z
" transform="scale(0.015625)"/>
      <path id="CMUBright-Roman-78" d="M 0 0 
L 1261 1555 
L 1261 1562 
L 38 3021 
L 499 3021 
L 1446 1850 
L 2362 3021 
L 2816 3021 
L 1626 1555 
L 2931 0 
L 2470 0 
L 1446 1325 
L 1440 1325 
L 454 0 
L 0 0 
z
" transform="scale(0.015625)"/>
      <path id="CMUBright-Roman-2d" d="M 70 1350 
L 70 1670 
L 1862 1670 
L 1862 1350 
L 70 1350 
z
" transform="scale(0.015625)"/>
      <path id="CMUBright-Roman-57" d="M 90 4448 
L 525 4448 
L 1338 1734 
Q 1670 595 1702 416 
L 1766 691 
L 2112 1894 
L 2874 4448 
L 3322 4448 
L 4026 2131 
Q 4480 570 4512 416 
Q 4531 538 4915 1843 
L 5696 4448 
L 6086 4448 
L 4730 -32 
L 4269 -32 
L 3290 3238 
L 3110 3872 
L 3078 4032 
L 3027 3789 
L 2701 2662 
L 1894 -32 
L 1446 -32 
L 90 4448 
z
" transform="scale(0.015625)"/>
      <path id="CMUBright-Roman-65" d="M 269 1536 
Q 269 2163 646 2630 
Q 1024 3098 1587 3098 
Q 1786 3098 1968 3037 
Q 2150 2976 2342 2829 
Q 2534 2682 2652 2365 
Q 2771 2048 2771 1600 
L 653 1600 
L 653 1549 
Q 653 966 966 617 
Q 1280 269 1690 269 
Q 2234 269 2726 710 
L 2758 358 
Q 2266 -51 1690 -51 
Q 1101 -51 685 406 
Q 269 864 269 1536 
z
M 685 1856 
L 2426 1856 
Q 2381 2342 2134 2560 
Q 1888 2778 1587 2778 
Q 1261 2778 1008 2515 
Q 755 2253 685 1856 
z
" transform="scale(0.015625)"/>
      <path id="CMUBright-Roman-6e" d="M 512 0 
L 512 3021 
L 909 3021 
L 909 2400 
Q 1030 2682 1273 2877 
Q 1517 3072 1869 3072 
Q 2125 3072 2307 2992 
Q 2490 2912 2579 2809 
Q 2669 2707 2720 2540 
Q 2771 2374 2777 2272 
Q 2784 2170 2784 2016 
L 2784 0 
L 2374 0 
L 2374 1990 
Q 2374 2106 2371 2176 
Q 2368 2246 2329 2368 
Q 2291 2490 2220 2563 
Q 2150 2637 2006 2694 
Q 1862 2752 1658 2752 
Q 1370 2752 1149 2518 
Q 928 2285 928 1677 
L 928 0 
L 512 0 
z
" transform="scale(0.015625)"/>
      <path id="CMUBright-Roman-64" d="M 294 1510 
Q 294 2189 659 2630 
Q 1024 3072 1504 3072 
Q 2016 3072 2381 2624 
L 2381 4448 
L 2784 4448 
L 2784 0 
L 2374 0 
L 2374 269 
L 2368 467 
Q 2016 -51 1459 -51 
Q 966 -51 630 413 
Q 294 877 294 1510 
z
M 710 1510 
Q 710 1139 809 876 
Q 909 614 1065 492 
Q 1222 371 1369 320 
Q 1517 269 1664 269 
Q 2022 269 2259 582 
Q 2278 614 2304 652 
Q 2330 691 2339 707 
Q 2349 723 2358 752 
Q 2368 781 2371 816 
Q 2374 851 2374 902 
L 2374 2253 
Q 2374 2438 2179 2595 
Q 1984 2752 1722 2752 
Q 1619 2752 1504 2726 
Q 1389 2701 1241 2621 
Q 1094 2541 982 2413 
Q 870 2285 790 2048 
Q 710 1811 710 1510 
z
" transform="scale(0.015625)"/>
      <path id="CMUBright-Roman-72" d="M 512 0 
L 512 3021 
L 896 3021 
L 896 2534 
L 902 2234 
Q 954 2362 1043 2490 
Q 1133 2618 1273 2755 
Q 1414 2893 1632 2979 
Q 1850 3066 2112 3072 
L 2112 2714 
Q 1907 2707 1708 2643 
Q 1510 2579 1324 2444 
Q 1139 2310 1027 2070 
Q 915 1830 915 1510 
L 915 0 
L 512 0 
z
" transform="scale(0.015625)"/>
      <path id="CMUBright-Roman-6f" d="M 256 1510 
Q 256 2182 675 2640 
Q 1094 3098 1677 3098 
Q 2272 3098 2681 2627 
Q 3091 2157 3091 1510 
Q 3091 838 2668 393 
Q 2246 -51 1677 -51 
Q 1088 -51 672 406 
Q 256 864 256 1510 
z
M 666 1587 
Q 666 1190 771 915 
Q 877 640 1046 512 
Q 1216 384 1369 333 
Q 1523 282 1677 282 
Q 1843 282 2006 342 
Q 2170 403 2330 537 
Q 2490 672 2586 937 
Q 2682 1203 2682 1568 
Q 2682 1914 2586 2163 
Q 2490 2413 2330 2541 
Q 2170 2669 2006 2723 
Q 1843 2778 1676 2778 
Q 1510 2778 1347 2723 
Q 1184 2669 1024 2544 
Q 864 2419 765 2172 
Q 666 1926 666 1587 
z
" transform="scale(0.015625)"/>
      <path id="CMUBright-Roman-66" d="M 179 2701 
L 179 3021 
L 723 3021 
L 723 3430 
Q 723 3597 729 3680 
Q 736 3763 819 3939 
Q 902 4115 1069 4256 
Q 1363 4499 1798 4499 
Q 2022 4499 2323 4448 
L 2323 4083 
Q 2029 4173 1779 4173 
Q 1523 4173 1321 4067 
Q 1120 3962 1120 3712 
L 1120 3021 
L 1920 3021 
L 1920 2701 
L 1133 2701 
L 1133 0 
L 723 0 
L 723 2701 
L 179 2701 
z
" transform="scale(0.015625)"/>
     </defs>
     <use xlink:href="#CMUBright-Roman-4c"/>
     <use xlink:href="#CMUBright-Roman-61" x="56.699997"/>
     <use xlink:href="#CMUBright-Roman-78" x="105.899994"/>
     <use xlink:href="#CMUBright-Roman-2d" x="151.699982"/>
     <use xlink:href="#CMUBright-Roman-57" x="186.699966"/>
     <use xlink:href="#CMUBright-Roman-65" x="283.399948"/>
     <use xlink:href="#CMUBright-Roman-6e" x="330.099945"/>
     <use xlink:href="#CMUBright-Roman-64" x="381.799942"/>
     <use xlink:href="#CMUBright-Roman-72" x="433.499939"/>
     <use xlink:href="#CMUBright-Roman-6f" x="468.09993"/>
     <use xlink:href="#CMUBright-Roman-66" x="520.599915"/>
     <use xlink:href="#CMUBright-Roman-66" x="552.699905"/>
    </g>
   </g>
  </g>
  <g id="axes_3">
   <g id="patch_8">
    <path d="M 71.554267 809.551111 
L 711.138312 809.551111 
L 711.138312 604.0743 
L 71.554267 604.0743 
z
" style="fill: #ffffff"/>
   </g>
   <g id="matplotlib.axis_5">
    <g id="xtick_13">
     <g id="line2d_28">
      <g>
       <use xlink:href="#m5ce0d484f8" x="71.554267" y="821.551111" style="fill: #5a5758; stroke: #5a5758; stroke-width: 0.8"/>
      </g>
     </g>
     <g id="text_30">
      <!-- 0.0 -->
      <g style="fill: #5a5758" transform="translate(61.493058 838.971941) scale(0.14994 -0.14994)">
       <use xlink:href="#CMUBright-Roman-30"/>
       <use xlink:href="#CMUBright-Roman-2e" x="52.499985"/>
       <use xlink:href="#CMUBright-Roman-30" x="81.699982"/>
      </g>
     </g>
    </g>
    <g id="xtick_14">
     <g id="line2d_29">
      <g>
       <use xlink:href="#m5ce0d484f8" x="199.471076" y="821.551111" style="fill: #5a5758; stroke: #5a5758; stroke-width: 0.8"/>
      </g>
     </g>
     <g id="text_31">
      <!-- 0.2 -->
      <g style="fill: #5a5758" transform="translate(189.409867 838.971941) scale(0.14994 -0.14994)">
       <use xlink:href="#CMUBright-Roman-30"/>
       <use xlink:href="#CMUBright-Roman-2e" x="52.499985"/>
       <use xlink:href="#CMUBright-Roman-32" x="81.699982"/>
      </g>
     </g>
    </g>
    <g id="xtick_15">
     <g id="line2d_30">
      <g>
       <use xlink:href="#m5ce0d484f8" x="327.387885" y="821.551111" style="fill: #5a5758; stroke: #5a5758; stroke-width: 0.8"/>
      </g>
     </g>
     <g id="text_32">
      <!-- 0.4 -->
      <g style="fill: #5a5758" transform="translate(317.326676 838.971941) scale(0.14994 -0.14994)">
       <use xlink:href="#CMUBright-Roman-30"/>
       <use xlink:href="#CMUBright-Roman-2e" x="52.499985"/>
       <use xlink:href="#CMUBright-Roman-34" x="81.699982"/>
      </g>
     </g>
    </g>
    <g id="xtick_16">
     <g id="line2d_31">
      <g>
       <use xlink:href="#m5ce0d484f8" x="455.304694" y="821.551111" style="fill: #5a5758; stroke: #5a5758; stroke-width: 0.8"/>
      </g>
     </g>
     <g id="text_33">
      <!-- 0.6 -->
      <g style="fill: #5a5758" transform="translate(445.243485 838.971941) scale(0.14994 -0.14994)">
       <use xlink:href="#CMUBright-Roman-30"/>
       <use xlink:href="#CMUBright-Roman-2e" x="52.499985"/>
       <use xlink:href="#CMUBright-Roman-36" x="81.699982"/>
      </g>
     </g>
    </g>
    <g id="xtick_17">
     <g id="line2d_32">
      <g>
       <use xlink:href="#m5ce0d484f8" x="583.221503" y="821.551111" style="fill: #5a5758; stroke: #5a5758; stroke-width: 0.8"/>
      </g>
     </g>
     <g id="text_34">
      <!-- 0.8 -->
      <g style="fill: #5a5758" transform="translate(573.160294 838.971941) scale(0.14994 -0.14994)">
       <use xlink:href="#CMUBright-Roman-30"/>
       <use xlink:href="#CMUBright-Roman-2e" x="52.499985"/>
       <use xlink:href="#CMUBright-Roman-38" x="81.699982"/>
      </g>
     </g>
    </g>
    <g id="xtick_18">
     <g id="line2d_33">
      <g>
       <use xlink:href="#m5ce0d484f8" x="711.138312" y="821.551111" style="fill: #5a5758; stroke: #5a5758; stroke-width: 0.8"/>
      </g>
     </g>
     <g id="text_35">
      <!-- 1.0 -->
      <g style="fill: #5a5758" transform="translate(701.077103 838.971941) scale(0.14994 -0.14994)">
       <use xlink:href="#CMUBright-Roman-31"/>
       <use xlink:href="#CMUBright-Roman-2e" x="52.499985"/>
       <use xlink:href="#CMUBright-Roman-30" x="81.699982"/>
      </g>
     </g>
    </g>
    <g id="text_36">
     <!-- $x$ -->
     <g style="fill: #5a5758" transform="translate(387.206289 861.986407) scale(0.18 -0.18)">
      <use xlink:href="#CMUBright-SemiBold-78" transform="translate(0 0.796875)"/>
     </g>
    </g>
   </g>
   <g id="matplotlib.axis_6">
    <g id="ytick_12">
     <g id="line2d_34">
      <g>
       <use xlink:href="#m41dc47bb64" x="59.554267" y="809.551111" style="fill: #5a5758; stroke: #5a5758; stroke-width: 0.8"/>
      </g>
     </g>
     <g id="text_37">
      <!-- 0.0 -->
      <g style="fill: #5a5758" transform="translate(32.43185 814.761526) scale(0.14994 -0.14994)">
       <use xlink:href="#CMUBright-Roman-30"/>
       <use xlink:href="#CMUBright-Roman-2e" x="52.499985"/>
       <use xlink:href="#CMUBright-Roman-30" x="81.699982"/>
      </g>
     </g>
    </g>
    <g id="ytick_13">
     <g id="line2d_35">
      <g>
       <use xlink:href="#m41dc47bb64" x="59.554267" y="768.455749" style="fill: #5a5758; stroke: #5a5758; stroke-width: 0.8"/>
      </g>
     </g>
     <g id="text_38">
      <!-- 0.2 -->
      <g style="fill: #5a5758" transform="translate(32.43185 773.666164) scale(0.14994 -0.14994)">
       <use xlink:href="#CMUBright-Roman-30"/>
       <use xlink:href="#CMUBright-Roman-2e" x="52.499985"/>
       <use xlink:href="#CMUBright-Roman-32" x="81.699982"/>
      </g>
     </g>
    </g>
    <g id="ytick_14">
     <g id="line2d_36">
      <g>
       <use xlink:href="#m41dc47bb64" x="59.554267" y="727.360387" style="fill: #5a5758; stroke: #5a5758; stroke-width: 0.8"/>
      </g>
     </g>
     <g id="text_39">
      <!-- 0.4 -->
      <g style="fill: #5a5758" transform="translate(32.43185 732.570802) scale(0.14994 -0.14994)">
       <use xlink:href="#CMUBright-Roman-30"/>
       <use xlink:href="#CMUBright-Roman-2e" x="52.499985"/>
       <use xlink:href="#CMUBright-Roman-34" x="81.699982"/>
      </g>
     </g>
    </g>
    <g id="ytick_15">
     <g id="line2d_37">
      <g>
       <use xlink:href="#m41dc47bb64" x="59.554267" y="686.265024" style="fill: #5a5758; stroke: #5a5758; stroke-width: 0.8"/>
      </g>
     </g>
     <g id="text_40">
      <!-- 0.6 -->
      <g style="fill: #5a5758" transform="translate(32.43185 691.475439) scale(0.14994 -0.14994)">
       <use xlink:href="#CMUBright-Roman-30"/>
       <use xlink:href="#CMUBright-Roman-2e" x="52.499985"/>
       <use xlink:href="#CMUBright-Roman-36" x="81.699982"/>
      </g>
     </g>
    </g>
    <g id="ytick_16">
     <g id="line2d_38">
      <g>
       <use xlink:href="#m41dc47bb64" x="59.554267" y="645.169662" style="fill: #5a5758; stroke: #5a5758; stroke-width: 0.8"/>
      </g>
     </g>
     <g id="text_41">
      <!-- 0.8 -->
      <g style="fill: #5a5758" transform="translate(32.43185 650.380077) scale(0.14994 -0.14994)">
       <use xlink:href="#CMUBright-Roman-30"/>
       <use xlink:href="#CMUBright-Roman-2e" x="52.499985"/>
       <use xlink:href="#CMUBright-Roman-38" x="81.699982"/>
      </g>
     </g>
    </g>
    <g id="ytick_17">
     <g id="line2d_39">
      <g>
       <use xlink:href="#m41dc47bb64" x="59.554267" y="604.0743" style="fill: #5a5758; stroke: #5a5758; stroke-width: 0.8"/>
      </g>
     </g>
     <g id="text_42">
      <!-- 1.0 -->
      <g style="fill: #5a5758" transform="translate(32.43185 609.284715) scale(0.14994 -0.14994)">
       <use xlink:href="#CMUBright-Roman-31"/>
       <use xlink:href="#CMUBright-Roman-2e" x="52.499985"/>
       <use xlink:href="#CMUBright-Roman-30" x="81.699982"/>
      </g>
     </g>
    </g>
    <g id="text_43">
     <!-- $u$ -->
     <g style="fill: #5a5758" transform="translate(15.07185 703.806143) scale(0.18 -0.18)">
      <use xlink:href="#CMUBright-SemiBold-75" transform="translate(0 0.796875)"/>
     </g>
    </g>
   </g>
   <g id="line2d_40">
    <path d="M 71.554267 809.551111 
L 100.868535 809.551111 
L 103.533469 604.0743 
L 199.471076 604.0743 
L 202.136009 809.551111 
L 263.42948 809.551111 
L 266.094414 807.990284 
L 268.759347 803.355227 
L 271.424281 795.786775 
L 274.089214 785.51489 
L 276.754148 772.85168 
L 279.419081 758.181908 
L 282.084015 741.95131 
L 287.413882 706.812705 
L 292.743749 671.674101 
L 295.408682 655.443503 
L 298.073616 640.773731 
L 300.738549 628.110521 
L 303.403483 617.838636 
L 306.068416 610.270184 
L 308.73335 605.635127 
L 311.398283 604.0743 
L 314.063217 605.635127 
L 316.728151 610.270184 
L 319.393084 617.838636 
L 322.058018 628.110521 
L 324.722951 640.773731 
L 327.387885 655.443503 
L 330.052818 671.674101 
L 335.382685 706.812705 
L 340.712552 741.95131 
L 343.377486 758.181908 
L 346.042419 772.85168 
L 348.707353 785.51489 
L 351.372286 795.786775 
L 354.03722 803.355227 
L 356.702153 807.990284 
L 359.367087 809.551111 
L 423.325491 809.551111 
L 471.294295 604.0743 
L 519.263098 809.551111 
L 583.221503 809.551111 
L 585.886436 742.016822 
L 588.55137 715.417489 
L 591.216303 695.96953 
L 593.881237 680.400847 
L 596.54617 667.430796 
L 599.211104 656.397739 
L 601.876037 646.907005 
L 604.540971 638.701372 
L 607.205904 631.602973 
L 609.870838 625.483665 
L 612.535771 620.248476 
L 615.200705 615.825716 
L 617.865638 612.160766 
L 620.530572 609.212033 
L 623.195506 606.948243 
L 625.860439 605.346614 
L 628.525373 604.391639 
L 631.190306 604.0743 
L 633.85524 604.391639 
L 636.520173 605.346614 
L 639.185107 606.948243 
L 641.85004 609.212033 
L 644.514974 612.160766 
L 647.179907 615.825716 
L 649.844841 620.248476 
L 652.509774 625.483665 
L 655.174708 631.602973 
L 657.839641 638.701372 
L 660.504575 646.907005 
L 663.169508 656.397739 
L 665.834442 667.430796 
L 668.499375 680.400847 
L 671.164309 695.96953 
L 673.829242 715.417489 
L 676.494176 742.016822 
L 679.159109 809.551111 
L 711.138312 809.551111 
L 711.138312 809.551111 
" style="fill: none; stroke: #5a5758; stroke-opacity: 0.7; stroke-width: 2; stroke-linecap: square"/>
   </g>
   <g id="line2d_41">
    <path d="M 71.554267 806.614188 
L 74.2192 806.058335 
L 76.884134 804.934023 
L 79.549067 803.014792 
L 82.214001 800.039568 
L 84.878934 795.702662 
L 87.543868 789.647374 
L 90.208801 781.466707 
L 92.873735 770.715165 
L 95.538668 756.935433 
L 98.203602 739.702712 
L 100.868535 718.687311 
L 103.533469 694.78631 
L 106.198402 673.863895 
L 108.863336 656.735292 
L 111.528269 643.06779 
L 114.193203 632.421903 
L 116.858136 624.316597 
L 119.52307 618.277759 
L 122.188003 613.870264 
L 124.852937 610.7159 
L 127.517871 608.500281 
L 130.182804 606.971991 
L 132.847738 605.936851 
L 135.512671 605.249613 
L 138.177605 604.804732 
L 140.842538 604.527312 
L 146.172405 604.280265 
L 154.167206 604.245896 
L 159.497073 604.364874 
L 162.162006 604.527316 
L 164.82694 604.80474 
L 167.491873 605.249633 
L 170.156807 605.936896 
L 172.82174 606.97209 
L 175.486674 608.500493 
L 178.151607 610.716338 
L 180.816541 613.871146 
L 183.481474 618.27949 
L 186.146408 624.319905 
L 188.811342 632.428064 
L 191.476275 643.078971 
L 194.141209 656.755049 
L 196.806142 673.897848 
L 199.471076 694.842994 
L 202.136009 718.753241 
L 204.800943 739.700161 
L 207.465876 756.850464 
L 210.13081 770.54268 
L 212.795743 781.218659 
L 215.460677 789.35812 
L 218.12561 795.430298 
L 220.790544 799.862468 
L 223.455477 803.023173 
L 226.120411 805.216987 
L 228.785344 806.687418 
L 231.450278 807.624865 
L 234.115211 808.177076 
L 236.780145 808.460191 
L 242.110012 808.58573 
L 244.774945 808.547161 
L 247.439879 808.39462 
L 250.104813 808.05368 
L 252.769746 807.446322 
L 255.43468 806.485717 
L 258.099613 805.069951 
L 260.764547 803.075321 
L 263.42948 800.35008 
L 266.094414 796.709596 
L 268.759347 791.933837 
L 271.424281 785.767929 
L 274.089214 777.926231 
L 276.754148 768.100024 
L 279.419081 755.968526 
L 282.084015 741.212686 
L 284.748948 723.531226 
L 287.413882 703.025239 
L 290.078815 683.618883 
L 292.743749 667.602148 
L 295.408682 654.93817 
L 298.073616 645.431886 
L 300.738549 638.758415 
L 303.403483 634.4925 
L 306.068416 632.13696 
L 308.73335 631.147983 
L 311.398283 630.95408 
L 314.063217 631.147954 
L 316.728151 632.136864 
L 319.393084 634.492275 
L 322.058018 638.757949 
L 324.722951 645.430975 
L 327.387885 654.936466 
L 330.052818 667.599089 
L 332.717752 683.613641 
L 335.382685 703.016757 
L 338.047619 723.531601 
L 340.712552 741.226661 
L 343.377486 755.994577 
L 346.042419 768.132833 
L 348.707353 777.956369 
L 351.372286 785.783033 
L 354.03722 791.921232 
L 356.702153 796.659961 
L 359.367087 800.261436 
L 362.03202 802.956408 
L 364.696954 804.942042 
L 367.361887 806.382066 
L 370.026821 807.408749 
L 372.691754 808.126221 
L 375.356688 808.614619 
L 378.021622 808.934617 
L 383.351489 809.241598 
L 391.346289 809.302382 
L 396.676156 809.204278 
L 402.006023 808.82209 
L 404.670957 808.446141 
L 407.33589 807.887741 
L 410.000824 807.085902 
L 412.665757 805.962667 
L 415.330691 804.420776 
L 417.995624 802.342526 
L 420.660558 799.590274 
L 423.325491 796.008917 
L 425.990425 791.430419 
L 428.655358 785.680032 
L 431.320292 778.583336 
L 433.985225 769.972549 
L 436.650159 759.690053 
L 439.315093 747.586852 
L 441.980026 733.514099 
L 444.64496 717.307284 
L 447.309893 700.187867 
L 449.974827 685.140969 
L 452.63976 672.602633 
L 455.304694 662.593038 
L 457.969627 655.014413 
L 460.634561 649.656859 
L 463.299494 646.21435 
L 465.964428 644.30695 
L 468.629361 643.504583 
L 471.294295 643.34715 
L 473.959228 643.504586 
L 476.624162 644.306962 
L 479.289095 646.214386 
L 481.954029 649.656951 
L 484.618962 655.014634 
L 487.283896 662.593536 
L 489.948829 672.603697 
L 492.613763 685.143132 
L 495.278696 700.192067 
L 497.94363 717.313258 
L 500.608564 733.516359 
L 503.273497 747.583316 
L 505.938431 759.679465 
L 508.603364 769.955539 
L 511.268298 778.563067 
L 513.933231 785.662208 
L 516.598165 791.422487 
L 519.263098 796.018467 
L 521.928032 799.622815 
L 524.592965 802.399051 
L 527.257899 804.495652 
L 529.922832 806.042486 
L 532.587766 807.149824 
L 535.252699 807.909655 
L 537.917633 808.398655 
L 540.582566 808.682059 
L 545.912433 808.859293 
L 551.2423 808.801544 
L 553.907234 808.639548 
L 556.572167 808.307734 
L 559.237101 807.731916 
L 561.902035 806.820146 
L 564.566968 805.455879 
L 567.231902 803.491198 
L 569.896835 800.741231 
L 572.561769 796.981197 
L 575.226702 791.947806 
L 577.891636 785.346767 
L 580.556569 776.867925 
L 583.221503 766.208907 
L 585.886436 753.107076 
L 588.55137 737.378038 
L 591.216303 718.957065 
L 593.881237 699.563423 
L 596.54617 682.409573 
L 599.211104 667.638723 
L 601.876037 655.061258 
L 604.540971 644.490718 
L 607.205904 635.747776 
L 609.870838 628.659603 
L 612.535771 623.057133 
L 615.200705 618.771991 
L 617.865638 615.634067 
L 620.530572 613.470158 
L 623.195506 612.103621 
L 625.860439 611.354781 
L 628.525373 611.041685 
L 631.190306 610.980406 
L 633.85524 611.041684 
L 636.520173 611.354778 
L 639.185107 612.103613 
L 641.85004 613.470136 
L 644.514974 615.634007 
L 647.179907 618.771839 
L 649.844841 623.056773 
L 652.509774 628.658784 
L 655.174708 635.745987 
L 657.839641 644.486935 
L 660.504575 655.053502 
L 663.169508 667.623276 
L 665.834442 682.379661 
L 668.499375 699.507088 
L 671.164309 718.870387 
L 673.829242 737.310473 
L 676.494176 753.09024 
L 679.159109 766.273972 
L 681.824043 777.035126 
L 684.488977 785.615327 
L 687.15391 792.288325 
L 689.818844 797.332538 
L 692.483777 801.01346 
L 695.148711 803.575236 
L 697.813644 805.239488 
L 700.478578 806.208937 
L 703.143511 806.673314 
L 705.808445 806.815421 
L 708.473378 806.804158 
L 711.138312 806.614188 
L 711.138312 806.614188 
" style="fill: none; stroke: #e29400; stroke-width: 2; stroke-linecap: square"/>
   </g>
   <g id="patch_9">
    <path d="M 59.554267 809.551111 
L 59.554267 604.0743 
" style="fill: none; stroke: #5a5758; stroke-width: 0.8; stroke-linejoin: miter; stroke-linecap: square"/>
   </g>
   <g id="patch_10">
    <path d="M 71.554267 821.551111 
L 711.138312 821.551111 
" style="fill: none; stroke: #5a5758; stroke-width: 0.8; stroke-linejoin: miter; stroke-linecap: square"/>
   </g>
   <g id="text_44">
    <!-- Minmod -->
    <g style="fill: #5a5758" transform="translate(353.816289 598.0743) scale(0.216 -0.216)">
     <defs>
      <path id="CMUBright-Roman-4d" d="M 646 0 
L 646 4448 
L 1235 4448 
L 2528 1274 
L 2822 518 
L 2912 774 
L 4397 4448 
L 4992 4448 
L 4992 0 
L 4589 0 
L 4589 4032 
L 4090 2752 
L 3008 109 
L 2624 109 
L 1280 3418 
L 1050 4032 
L 1050 0 
L 646 0 
z
" transform="scale(0.015625)"/>
      <path id="CMUBright-Roman-69" d="M 509 4019 
L 509 4422 
L 912 4422 
L 912 4019 
L 509 4019 
z
M 512 0 
L 512 3021 
L 915 3021 
L 915 0 
L 512 0 
z
" transform="scale(0.015625)"/>
      <path id="CMUBright-Roman-6d" d="M 512 0 
L 512 3021 
L 909 3021 
L 909 2400 
Q 1011 2650 1251 2861 
Q 1491 3072 1875 3072 
Q 2138 3072 2320 2998 
Q 2502 2925 2592 2797 
Q 2682 2669 2710 2595 
Q 2739 2522 2765 2413 
Q 2771 2394 2771 2387 
Q 2886 2650 3123 2861 
Q 3360 3072 3744 3072 
Q 4000 3072 4182 2992 
Q 4365 2912 4454 2813 
Q 4544 2714 4592 2544 
Q 4640 2374 4646 2272 
Q 4653 2170 4653 2016 
L 4653 0 
L 4243 0 
L 4243 1990 
Q 4243 2106 4236 2176 
Q 4230 2246 4192 2368 
Q 4154 2490 4083 2563 
Q 4013 2637 3869 2694 
Q 3725 2752 3520 2752 
Q 3174 2752 2982 2470 
Q 2790 2189 2790 1728 
L 2790 0 
L 2374 0 
L 2374 1990 
Q 2374 2106 2371 2176 
Q 2368 2246 2329 2368 
Q 2291 2490 2220 2563 
Q 2150 2637 2006 2694 
Q 1862 2752 1658 2752 
Q 1312 2752 1117 2470 
Q 922 2189 922 1728 
Q 922 1715 925 1702 
Q 928 1690 928 1677 
L 928 0 
L 512 0 
z
" transform="scale(0.015625)"/>
     </defs>
     <use xlink:href="#CMUBright-Roman-4d"/>
     <use xlink:href="#CMUBright-Roman-69" x="88.299988"/>
     <use xlink:href="#CMUBright-Roman-6e" x="110.799973"/>
     <use xlink:href="#CMUBright-Roman-6d" x="162.499969"/>
     <use xlink:href="#CMUBright-Roman-6f" x="243.299957"/>
     <use xlink:href="#CMUBright-Roman-64" x="295.799942"/>
    </g>
   </g>
  </g>
  <g id="axes_4">
   <g id="patch_11">
    <path d="M 71.554267 1097.826511 
L 711.138312 1097.826511 
L 711.138312 892.3497 
L 71.554267 892.3497 
z
" style="fill: #ffffff"/>
   </g>
   <g id="matplotlib.axis_7">
    <g id="xtick_19">
     <g id="line2d_42">
      <g>
       <use xlink:href="#m5ce0d484f8" x="71.554267" y="1109.826511" style="fill: #5a5758; stroke: #5a5758; stroke-width: 0.8"/>
      </g>
     </g>
     <g id="text_45">
      <!-- 0.0 -->
      <g style="fill: #5a5758" transform="translate(61.493058 1127.247341) scale(0.14994 -0.14994)">
       <use xlink:href="#CMUBright-Roman-30"/>
       <use xlink:href="#CMUBright-Roman-2e" x="52.499985"/>
       <use xlink:href="#CMUBright-Roman-30" x="81.699982"/>
      </g>
     </g>
    </g>
    <g id="xtick_20">
     <g id="line2d_43">
      <g>
       <use xlink:href="#m5ce0d484f8" x="199.471076" y="1109.826511" style="fill: #5a5758; stroke: #5a5758; stroke-width: 0.8"/>
      </g>
     </g>
     <g id="text_46">
      <!-- 0.2 -->
      <g style="fill: #5a5758" transform="translate(189.409867 1127.247341) scale(0.14994 -0.14994)">
       <use xlink:href="#CMUBright-Roman-30"/>
       <use xlink:href="#CMUBright-Roman-2e" x="52.499985"/>
       <use xlink:href="#CMUBright-Roman-32" x="81.699982"/>
      </g>
     </g>
    </g>
    <g id="xtick_21">
     <g id="line2d_44">
      <g>
       <use xlink:href="#m5ce0d484f8" x="327.387885" y="1109.826511" style="fill: #5a5758; stroke: #5a5758; stroke-width: 0.8"/>
      </g>
     </g>
     <g id="text_47">
      <!-- 0.4 -->
      <g style="fill: #5a5758" transform="translate(317.326676 1127.247341) scale(0.14994 -0.14994)">
       <use xlink:href="#CMUBright-Roman-30"/>
       <use xlink:href="#CMUBright-Roman-2e" x="52.499985"/>
       <use xlink:href="#CMUBright-Roman-34" x="81.699982"/>
      </g>
     </g>
    </g>
    <g id="xtick_22">
     <g id="line2d_45">
      <g>
       <use xlink:href="#m5ce0d484f8" x="455.304694" y="1109.826511" style="fill: #5a5758; stroke: #5a5758; stroke-width: 0.8"/>
      </g>
     </g>
     <g id="text_48">
      <!-- 0.6 -->
      <g style="fill: #5a5758" transform="translate(445.243485 1127.247341) scale(0.14994 -0.14994)">
       <use xlink:href="#CMUBright-Roman-30"/>
       <use xlink:href="#CMUBright-Roman-2e" x="52.499985"/>
       <use xlink:href="#CMUBright-Roman-36" x="81.699982"/>
      </g>
     </g>
    </g>
    <g id="xtick_23">
     <g id="line2d_46">
      <g>
       <use xlink:href="#m5ce0d484f8" x="583.221503" y="1109.826511" style="fill: #5a5758; stroke: #5a5758; stroke-width: 0.8"/>
      </g>
     </g>
     <g id="text_49">
      <!-- 0.8 -->
      <g style="fill: #5a5758" transform="translate(573.160294 1127.247341) scale(0.14994 -0.14994)">
       <use xlink:href="#CMUBright-Roman-30"/>
       <use xlink:href="#CMUBright-Roman-2e" x="52.499985"/>
       <use xlink:href="#CMUBright-Roman-38" x="81.699982"/>
      </g>
     </g>
    </g>
    <g id="xtick_24">
     <g id="line2d_47">
      <g>
       <use xlink:href="#m5ce0d484f8" x="711.138312" y="1109.826511" style="fill: #5a5758; stroke: #5a5758; stroke-width: 0.8"/>
      </g>
     </g>
     <g id="text_50">
      <!-- 1.0 -->
      <g style="fill: #5a5758" transform="translate(701.077103 1127.247341) scale(0.14994 -0.14994)">
       <use xlink:href="#CMUBright-Roman-31"/>
       <use xlink:href="#CMUBright-Roman-2e" x="52.499985"/>
       <use xlink:href="#CMUBright-Roman-30" x="81.699982"/>
      </g>
     </g>
    </g>
    <g id="text_51">
     <!-- $x$ -->
     <g style="fill: #5a5758" transform="translate(387.206289 1150.261807) scale(0.18 -0.18)">
      <use xlink:href="#CMUBright-SemiBold-78" transform="translate(0 0.796875)"/>
     </g>
    </g>
   </g>
   <g id="matplotlib.axis_8">
    <g id="ytick_18">
     <g id="line2d_48">
      <g>
       <use xlink:href="#m41dc47bb64" x="59.554267" y="1097.826511" style="fill: #5a5758; stroke: #5a5758; stroke-width: 0.8"/>
      </g>
     </g>
     <g id="text_52">
      <!-- 0.0 -->
      <g style="fill: #5a5758" transform="translate(32.43185 1103.036926) scale(0.14994 -0.14994)">
       <use xlink:href="#CMUBright-Roman-30"/>
       <use xlink:href="#CMUBright-Roman-2e" x="52.499985"/>
       <use xlink:href="#CMUBright-Roman-30" x="81.699982"/>
      </g>
     </g>
    </g>
    <g id="ytick_19">
     <g id="line2d_49">
      <g>
       <use xlink:href="#m41dc47bb64" x="59.554267" y="1056.731149" style="fill: #5a5758; stroke: #5a5758; stroke-width: 0.8"/>
      </g>
     </g>
     <g id="text_53">
      <!-- 0.2 -->
      <g style="fill: #5a5758" transform="translate(32.43185 1061.941564) scale(0.14994 -0.14994)">
       <use xlink:href="#CMUBright-Roman-30"/>
       <use xlink:href="#CMUBright-Roman-2e" x="52.499985"/>
       <use xlink:href="#CMUBright-Roman-32" x="81.699982"/>
      </g>
     </g>
    </g>
    <g id="ytick_20">
     <g id="line2d_50">
      <g>
       <use xlink:href="#m41dc47bb64" x="59.554267" y="1015.635787" style="fill: #5a5758; stroke: #5a5758; stroke-width: 0.8"/>
      </g>
     </g>
     <g id="text_54">
      <!-- 0.4 -->
      <g style="fill: #5a5758" transform="translate(32.43185 1020.846202) scale(0.14994 -0.14994)">
       <use xlink:href="#CMUBright-Roman-30"/>
       <use xlink:href="#CMUBright-Roman-2e" x="52.499985"/>
       <use xlink:href="#CMUBright-Roman-34" x="81.699982"/>
      </g>
     </g>
    </g>
    <g id="ytick_21">
     <g id="line2d_51">
      <g>
       <use xlink:href="#m41dc47bb64" x="59.554267" y="974.540424" style="fill: #5a5758; stroke: #5a5758; stroke-width: 0.8"/>
      </g>
     </g>
     <g id="text_55">
      <!-- 0.6 -->
      <g style="fill: #5a5758" transform="translate(32.43185 979.750839) scale(0.14994 -0.14994)">
       <use xlink:href="#CMUBright-Roman-30"/>
       <use xlink:href="#CMUBright-Roman-2e" x="52.499985"/>
       <use xlink:href="#CMUBright-Roman-36" x="81.699982"/>
      </g>
     </g>
    </g>
    <g id="ytick_22">
     <g id="line2d_52">
      <g>
       <use xlink:href="#m41dc47bb64" x="59.554267" y="933.445062" style="fill: #5a5758; stroke: #5a5758; stroke-width: 0.8"/>
      </g>
     </g>
     <g id="text_56">
      <!-- 0.8 -->
      <g style="fill: #5a5758" transform="translate(32.43185 938.655477) scale(0.14994 -0.14994)">
       <use xlink:href="#CMUBright-Roman-30"/>
       <use xlink:href="#CMUBright-Roman-2e" x="52.499985"/>
       <use xlink:href="#CMUBright-Roman-38" x="81.699982"/>
      </g>
     </g>
    </g>
    <g id="ytick_23">
     <g id="line2d_53">
      <g>
       <use xlink:href="#m41dc47bb64" x="59.554267" y="892.3497" style="fill: #5a5758; stroke: #5a5758; stroke-width: 0.8"/>
      </g>
     </g>
     <g id="text_57">
      <!-- 1.0 -->
      <g style="fill: #5a5758" transform="translate(32.43185 897.560115) scale(0.14994 -0.14994)">
       <use xlink:href="#CMUBright-Roman-31"/>
       <use xlink:href="#CMUBright-Roman-2e" x="52.499985"/>
       <use xlink:href="#CMUBright-Roman-30" x="81.699982"/>
      </g>
     </g>
    </g>
    <g id="text_58">
     <!-- $u$ -->
     <g style="fill: #5a5758" transform="translate(15.07185 992.081543) scale(0.18 -0.18)">
      <use xlink:href="#CMUBright-SemiBold-75" transform="translate(0 0.796875)"/>
     </g>
    </g>
   </g>
   <g id="line2d_54">
    <path d="M 71.554267 1097.826511 
L 100.868535 1097.826511 
L 103.533469 892.3497 
L 199.471076 892.3497 
L 202.136009 1097.826511 
L 263.42948 1097.826511 
L 266.094414 1096.265684 
L 268.759347 1091.630627 
L 271.424281 1084.062175 
L 274.089214 1073.79029 
L 276.754148 1061.12708 
L 279.419081 1046.457308 
L 282.084015 1030.22671 
L 287.413882 995.088105 
L 292.743749 959.949501 
L 295.408682 943.718903 
L 298.073616 929.049131 
L 300.738549 916.385921 
L 303.403483 906.114036 
L 306.068416 898.545584 
L 308.73335 893.910527 
L 311.398283 892.3497 
L 314.063217 893.910527 
L 316.728151 898.545584 
L 319.393084 906.114036 
L 322.058018 916.385921 
L 324.722951 929.049131 
L 327.387885 943.718903 
L 330.052818 959.949501 
L 335.382685 995.088105 
L 340.712552 1030.22671 
L 343.377486 1046.457308 
L 346.042419 1061.12708 
L 348.707353 1073.79029 
L 351.372286 1084.062175 
L 354.03722 1091.630627 
L 356.702153 1096.265684 
L 359.367087 1097.826511 
L 423.325491 1097.826511 
L 471.294295 892.3497 
L 519.263098 1097.826511 
L 583.221503 1097.826511 
L 585.886436 1030.292222 
L 588.55137 1003.692889 
L 591.216303 984.24493 
L 593.881237 968.676247 
L 596.54617 955.706196 
L 599.211104 944.673139 
L 601.876037 935.182405 
L 604.540971 926.976772 
L 607.205904 919.878373 
L 609.870838 913.759065 
L 612.535771 908.523876 
L 615.200705 904.101116 
L 617.865638 900.436166 
L 620.530572 897.487433 
L 623.195506 895.223643 
L 625.860439 893.622014 
L 628.525373 892.667039 
L 631.190306 892.3497 
L 633.85524 892.667039 
L 636.520173 893.622014 
L 639.185107 895.223643 
L 641.85004 897.487433 
L 644.514974 900.436166 
L 647.179907 904.101116 
L 649.844841 908.523876 
L 652.509774 913.759065 
L 655.174708 919.878373 
L 657.839641 926.976772 
L 660.504575 935.182405 
L 663.169508 944.673139 
L 665.834442 955.706196 
L 668.499375 968.676247 
L 671.164309 984.24493 
L 673.829242 1003.692889 
L 676.494176 1030.292222 
L 679.159109 1097.826511 
L 711.138312 1097.826511 
L 711.138312 1097.826511 
" style="fill: none; stroke: #5a5758; stroke-opacity: 0.7; stroke-width: 2; stroke-linecap: square"/>
   </g>
   <g id="line2d_55">
    <path d="M 71.554267 1097.826505 
L 90.208801 1097.745613 
L 92.873735 1097.355006 
L 95.538668 1095.078379 
L 98.203602 1081.809219 
L 100.868535 1027.122735 
L 103.533469 963.053496 
L 106.198402 908.366999 
L 108.863336 895.097834 
L 111.528269 892.821205 
L 114.193203 892.430597 
L 119.52307 892.352081 
L 186.146408 892.36358 
L 188.811342 892.430597 
L 191.476275 892.821205 
L 194.141209 895.097834 
L 196.806142 908.366998 
L 199.471076 963.05349 
L 202.136009 1027.122722 
L 204.800943 1081.809213 
L 207.465876 1095.078378 
L 210.13081 1097.355006 
L 212.795743 1097.745613 
L 218.12561 1097.824129 
L 263.42948 1097.784944 
L 266.094414 1097.584498 
L 268.759347 1096.417616 
L 271.424281 1089.625533 
L 276.754148 1058.950835 
L 284.748948 1011.492757 
L 290.078815 978.886417 
L 298.073616 928.39242 
L 300.738549 911.327041 
L 303.403483 899.608279 
L 306.068416 897.113589 
L 308.73335 896.741691 
L 314.063217 896.741691 
L 316.728151 897.113589 
L 319.393084 899.608279 
L 322.058018 911.327041 
L 332.717752 978.886417 
L 340.712552 1027.469243 
L 348.707353 1074.552854 
L 351.372286 1089.625533 
L 354.03722 1096.417615 
L 356.702153 1097.584497 
L 359.367087 1097.784944 
L 370.026821 1097.826475 
L 417.995624 1097.769778 
L 420.660558 1097.495494 
L 423.325491 1095.895115 
L 425.990425 1088.381888 
L 436.650159 1043.346235 
L 441.980026 1021.504174 
L 444.64496 1009.863841 
L 447.309893 997.564906 
L 449.974827 984.600751 
L 455.304694 956.963128 
L 460.634561 927.932955 
L 463.299494 914.941755 
L 465.964428 911.04509 
L 468.629361 910.459897 
L 473.959228 910.459897 
L 476.624162 911.04509 
L 479.289095 914.941755 
L 481.954029 927.932955 
L 487.283896 956.963128 
L 492.613763 984.600751 
L 495.278696 997.564906 
L 497.94363 1009.863841 
L 500.608564 1021.504174 
L 513.933231 1077.004795 
L 516.598165 1088.381889 
L 519.263098 1095.895116 
L 521.928032 1097.495494 
L 524.592965 1097.769778 
L 532.587766 1097.826225 
L 575.226702 1097.747981 
L 577.891636 1097.367926 
L 580.556569 1095.148579 
L 583.221503 1082.492726 
L 591.216303 1008.714905 
L 596.54617 961.609451 
L 599.211104 939.631949 
L 601.876037 919.222084 
L 604.540971 907.339152 
L 607.205904 904.214717 
L 612.535771 901.773174 
L 615.200705 899.84034 
L 620.530572 895.236457 
L 623.195506 893.454399 
L 625.860439 893.059119 
L 631.190306 892.995884 
L 636.520173 893.059119 
L 639.185107 893.454399 
L 641.85004 895.236457 
L 647.179907 899.84034 
L 649.844841 901.773174 
L 655.174708 904.214717 
L 657.839641 907.339151 
L 660.504575 919.222081 
L 663.169508 939.631947 
L 665.834442 961.609449 
L 671.164309 1008.714907 
L 679.159109 1082.492741 
L 681.824043 1095.148584 
L 684.488977 1097.367927 
L 687.15391 1097.74798 
L 692.483777 1097.824205 
L 711.138312 1097.826505 
L 711.138312 1097.826505 
" style="fill: none; stroke: #e29400; stroke-width: 2; stroke-linecap: square"/>
   </g>
   <g id="patch_12">
    <path d="M 59.554267 1097.826511 
L 59.554267 892.3497 
" style="fill: none; stroke: #5a5758; stroke-width: 0.8; stroke-linejoin: miter; stroke-linecap: square"/>
   </g>
   <g id="patch_13">
    <path d="M 71.554267 1109.826511 
L 711.138312 1109.826511 
" style="fill: none; stroke: #5a5758; stroke-width: 0.8; stroke-linejoin: miter; stroke-linecap: square"/>
   </g>
   <g id="text_59">
    <!-- Superbee -->
    <g style="fill: #5a5758" transform="translate(349.430477 886.3497) scale(0.216 -0.216)">
     <defs>
      <path id="CMUBright-Roman-53" d="M 294 339 
L 371 781 
Q 1082 256 1843 256 
Q 2342 256 2643 531 
Q 2944 806 2944 1152 
Q 2944 1402 2781 1622 
Q 2618 1843 2323 1958 
Q 2176 2016 1769 2096 
Q 1363 2176 1059 2317 
Q 755 2458 557 2746 
Q 365 3014 365 3341 
Q 365 3808 781 4179 
Q 1197 4550 1882 4550 
Q 2515 4550 3110 4243 
L 3034 3802 
Q 2848 3930 2745 3990 
Q 2643 4051 2400 4124 
Q 2157 4198 1882 4198 
Q 1389 4198 1081 3958 
Q 774 3718 774 3392 
Q 774 3168 931 2973 
Q 1088 2778 1376 2669 
Q 1491 2630 1910 2534 
Q 2330 2438 2438 2394 
Q 2899 2221 3126 1885 
Q 3354 1549 3354 1197 
Q 3354 678 2925 284 
Q 2496 -109 1837 -109 
Q 1030 -109 294 339 
z
" transform="scale(0.015625)"/>
      <path id="CMUBright-Roman-75" d="M 512 851 
L 512 3021 
L 928 3021 
L 928 781 
Q 928 486 1037 368 
Q 1146 250 1517 250 
Q 1875 250 2124 477 
Q 2374 704 2374 1120 
L 2374 3021 
L 2784 3021 
L 2784 0 
L 2381 0 
L 2381 550 
Q 2214 269 1910 109 
Q 1606 -51 1254 -51 
Q 1005 -51 845 29 
Q 685 109 617 262 
Q 550 416 531 541 
Q 512 666 512 851 
z
" transform="scale(0.015625)"/>
      <path id="CMUBright-Roman-70" d="M 512 -1069 
L 512 3021 
L 915 3021 
L 915 2586 
Q 1318 3072 1888 3072 
Q 2355 3072 2678 2621 
Q 3002 2170 3002 1523 
Q 3002 826 2621 387 
Q 2240 -51 1754 -51 
Q 1530 -51 1328 61 
Q 1126 173 1075 237 
Q 1024 301 928 422 
L 928 -1069 
L 512 -1069 
z
M 928 832 
Q 928 634 1110 451 
Q 1293 269 1555 269 
Q 1971 269 2281 630 
Q 2592 992 2592 1517 
Q 2592 2022 2304 2384 
Q 2016 2746 1619 2746 
Q 1286 2746 1056 2490 
Q 960 2368 944 2333 
Q 928 2298 928 2189 
L 928 832 
z
" transform="scale(0.015625)"/>
      <path id="CMUBright-Roman-62" d="M 512 0 
L 512 4448 
L 915 4448 
L 915 2592 
Q 1312 3072 1875 3072 
Q 2349 3072 2675 2621 
Q 3002 2170 3002 1523 
Q 3002 858 2634 403 
Q 2266 -51 1754 -51 
Q 1261 -51 928 422 
L 928 0 
L 512 0 
z
M 922 838 
Q 922 634 1107 451 
Q 1293 269 1555 269 
Q 1728 269 1891 326 
Q 2054 384 2220 512 
Q 2387 640 2489 896 
Q 2592 1152 2592 1510 
Q 2592 1882 2493 2147 
Q 2394 2413 2234 2534 
Q 2074 2656 1926 2704 
Q 1779 2752 1632 2752 
Q 1293 2752 1050 2490 
Q 954 2362 941 2333 
Q 928 2304 928 2195 
L 928 928 
Q 928 909 925 883 
Q 922 858 922 838 
z
" transform="scale(0.015625)"/>
     </defs>
     <use xlink:href="#CMUBright-Roman-53"/>
     <use xlink:href="#CMUBright-Roman-75" x="58.299988"/>
     <use xlink:href="#CMUBright-Roman-70" x="109.999985"/>
     <use xlink:href="#CMUBright-Roman-65" x="161.699982"/>
     <use xlink:href="#CMUBright-Roman-72" x="208.399979"/>
     <use xlink:href="#CMUBright-Roman-62" x="242.999969"/>
     <use xlink:href="#CMUBright-Roman-65" x="294.699966"/>
     <use xlink:href="#CMUBright-Roman-65" x="341.399963"/>
    </g>
   </g>
  </g>
  <g id="axes_5">
   <g id="patch_14">
    <path d="M 71.554267 1385.757661 
L 711.138312 1385.757661 
L 711.138312 1180.28085 
L 71.554267 1180.28085 
z
" style="fill: #ffffff"/>
   </g>
   <g id="matplotlib.axis_9">
    <g id="xtick_25">
     <g id="line2d_56">
      <g>
       <use xlink:href="#m5ce0d484f8" x="71.554267" y="1397.757661" style="fill: #5a5758; stroke: #5a5758; stroke-width: 0.8"/>
      </g>
     </g>
     <g id="text_60">
      <!-- 0.0 -->
      <g style="fill: #5a5758" transform="translate(61.493058 1415.178491) scale(0.14994 -0.14994)">
       <use xlink:href="#CMUBright-Roman-30"/>
       <use xlink:href="#CMUBright-Roman-2e" x="52.499985"/>
       <use xlink:href="#CMUBright-Roman-30" x="81.699982"/>
      </g>
     </g>
    </g>
    <g id="xtick_26">
     <g id="line2d_57">
      <g>
       <use xlink:href="#m5ce0d484f8" x="199.471076" y="1397.757661" style="fill: #5a5758; stroke: #5a5758; stroke-width: 0.8"/>
      </g>
     </g>
     <g id="text_61">
      <!-- 0.2 -->
      <g style="fill: #5a5758" transform="translate(189.409867 1415.178491) scale(0.14994 -0.14994)">
       <use xlink:href="#CMUBright-Roman-30"/>
       <use xlink:href="#CMUBright-Roman-2e" x="52.499985"/>
       <use xlink:href="#CMUBright-Roman-32" x="81.699982"/>
      </g>
     </g>
    </g>
    <g id="xtick_27">
     <g id="line2d_58">
      <g>
       <use xlink:href="#m5ce0d484f8" x="327.387885" y="1397.757661" style="fill: #5a5758; stroke: #5a5758; stroke-width: 0.8"/>
      </g>
     </g>
     <g id="text_62">
      <!-- 0.4 -->
      <g style="fill: #5a5758" transform="translate(317.326676 1415.178491) scale(0.14994 -0.14994)">
       <use xlink:href="#CMUBright-Roman-30"/>
       <use xlink:href="#CMUBright-Roman-2e" x="52.499985"/>
       <use xlink:href="#CMUBright-Roman-34" x="81.699982"/>
      </g>
     </g>
    </g>
    <g id="xtick_28">
     <g id="line2d_59">
      <g>
       <use xlink:href="#m5ce0d484f8" x="455.304694" y="1397.757661" style="fill: #5a5758; stroke: #5a5758; stroke-width: 0.8"/>
      </g>
     </g>
     <g id="text_63">
      <!-- 0.6 -->
      <g style="fill: #5a5758" transform="translate(445.243485 1415.178491) scale(0.14994 -0.14994)">
       <use xlink:href="#CMUBright-Roman-30"/>
       <use xlink:href="#CMUBright-Roman-2e" x="52.499985"/>
       <use xlink:href="#CMUBright-Roman-36" x="81.699982"/>
      </g>
     </g>
    </g>
    <g id="xtick_29">
     <g id="line2d_60">
      <g>
       <use xlink:href="#m5ce0d484f8" x="583.221503" y="1397.757661" style="fill: #5a5758; stroke: #5a5758; stroke-width: 0.8"/>
      </g>
     </g>
     <g id="text_64">
      <!-- 0.8 -->
      <g style="fill: #5a5758" transform="translate(573.160294 1415.178491) scale(0.14994 -0.14994)">
       <use xlink:href="#CMUBright-Roman-30"/>
       <use xlink:href="#CMUBright-Roman-2e" x="52.499985"/>
       <use xlink:href="#CMUBright-Roman-38" x="81.699982"/>
      </g>
     </g>
    </g>
    <g id="xtick_30">
     <g id="line2d_61">
      <g>
       <use xlink:href="#m5ce0d484f8" x="711.138312" y="1397.757661" style="fill: #5a5758; stroke: #5a5758; stroke-width: 0.8"/>
      </g>
     </g>
     <g id="text_65">
      <!-- 1.0 -->
      <g style="fill: #5a5758" transform="translate(701.077103 1415.178491) scale(0.14994 -0.14994)">
       <use xlink:href="#CMUBright-Roman-31"/>
       <use xlink:href="#CMUBright-Roman-2e" x="52.499985"/>
       <use xlink:href="#CMUBright-Roman-30" x="81.699982"/>
      </g>
     </g>
    </g>
    <g id="text_66">
     <!-- $x$ -->
     <g style="fill: #5a5758" transform="translate(387.206289 1438.192957) scale(0.18 -0.18)">
      <use xlink:href="#CMUBright-SemiBold-78" transform="translate(0 0.796875)"/>
     </g>
    </g>
   </g>
   <g id="matplotlib.axis_10">
    <g id="ytick_24">
     <g id="line2d_62">
      <g>
       <use xlink:href="#m41dc47bb64" x="59.554267" y="1385.757661" style="fill: #5a5758; stroke: #5a5758; stroke-width: 0.8"/>
      </g>
     </g>
     <g id="text_67">
      <!-- 0.0 -->
      <g style="fill: #5a5758" transform="translate(32.43185 1390.968076) scale(0.14994 -0.14994)">
       <use xlink:href="#CMUBright-Roman-30"/>
       <use xlink:href="#CMUBright-Roman-2e" x="52.499985"/>
       <use xlink:href="#CMUBright-Roman-30" x="81.699982"/>
      </g>
     </g>
    </g>
    <g id="ytick_25">
     <g id="line2d_63">
      <g>
       <use xlink:href="#m41dc47bb64" x="59.554267" y="1344.662299" style="fill: #5a5758; stroke: #5a5758; stroke-width: 0.8"/>
      </g>
     </g>
     <g id="text_68">
      <!-- 0.2 -->
      <g style="fill: #5a5758" transform="translate(32.43185 1349.872714) scale(0.14994 -0.14994)">
       <use xlink:href="#CMUBright-Roman-30"/>
       <use xlink:href="#CMUBright-Roman-2e" x="52.499985"/>
       <use xlink:href="#CMUBright-Roman-32" x="81.699982"/>
      </g>
     </g>
    </g>
    <g id="ytick_26">
     <g id="line2d_64">
      <g>
       <use xlink:href="#m41dc47bb64" x="59.554267" y="1303.566937" style="fill: #5a5758; stroke: #5a5758; stroke-width: 0.8"/>
      </g>
     </g>
     <g id="text_69">
      <!-- 0.4 -->
      <g style="fill: #5a5758" transform="translate(32.43185 1308.777352) scale(0.14994 -0.14994)">
       <use xlink:href="#CMUBright-Roman-30"/>
       <use xlink:href="#CMUBright-Roman-2e" x="52.499985"/>
       <use xlink:href="#CMUBright-Roman-34" x="81.699982"/>
      </g>
     </g>
    </g>
    <g id="ytick_27">
     <g id="line2d_65">
      <g>
       <use xlink:href="#m41dc47bb64" x="59.554267" y="1262.471574" style="fill: #5a5758; stroke: #5a5758; stroke-width: 0.8"/>
      </g>
     </g>
     <g id="text_70">
      <!-- 0.6 -->
      <g style="fill: #5a5758" transform="translate(32.43185 1267.681989) scale(0.14994 -0.14994)">
       <use xlink:href="#CMUBright-Roman-30"/>
       <use xlink:href="#CMUBright-Roman-2e" x="52.499985"/>
       <use xlink:href="#CMUBright-Roman-36" x="81.699982"/>
      </g>
     </g>
    </g>
    <g id="ytick_28">
     <g id="line2d_66">
      <g>
       <use xlink:href="#m41dc47bb64" x="59.554267" y="1221.376212" style="fill: #5a5758; stroke: #5a5758; stroke-width: 0.8"/>
      </g>
     </g>
     <g id="text_71">
      <!-- 0.8 -->
      <g style="fill: #5a5758" transform="translate(32.43185 1226.586627) scale(0.14994 -0.14994)">
       <use xlink:href="#CMUBright-Roman-30"/>
       <use xlink:href="#CMUBright-Roman-2e" x="52.499985"/>
       <use xlink:href="#CMUBright-Roman-38" x="81.699982"/>
      </g>
     </g>
    </g>
    <g id="ytick_29">
     <g id="line2d_67">
      <g>
       <use xlink:href="#m41dc47bb64" x="59.554267" y="1180.28085" style="fill: #5a5758; stroke: #5a5758; stroke-width: 0.8"/>
      </g>
     </g>
     <g id="text_72">
      <!-- 1.0 -->
      <g style="fill: #5a5758" transform="translate(32.43185 1185.491265) scale(0.14994 -0.14994)">
       <use xlink:href="#CMUBright-Roman-31"/>
       <use xlink:href="#CMUBright-Roman-2e" x="52.499985"/>
       <use xlink:href="#CMUBright-Roman-30" x="81.699982"/>
      </g>
     </g>
    </g>
    <g id="text_73">
     <!-- $u$ -->
     <g style="fill: #5a5758" transform="translate(15.07185 1280.012693) scale(0.18 -0.18)">
      <use xlink:href="#CMUBright-SemiBold-75" transform="translate(0 0.796875)"/>
     </g>
    </g>
   </g>
   <g id="line2d_68">
    <path d="M 71.554267 1385.757661 
L 100.868535 1385.757661 
L 103.533469 1180.28085 
L 199.471076 1180.28085 
L 202.136009 1385.757661 
L 263.42948 1385.757661 
L 266.094414 1384.196834 
L 268.759347 1379.561777 
L 271.424281 1371.993325 
L 274.089214 1361.72144 
L 276.754148 1349.05823 
L 279.419081 1334.388458 
L 282.084015 1318.15786 
L 287.413882 1283.019255 
L 292.743749 1247.880651 
L 295.408682 1231.650053 
L 298.073616 1216.980281 
L 300.738549 1204.317071 
L 303.403483 1194.045186 
L 306.068416 1186.476734 
L 308.73335 1181.841677 
L 311.398283 1180.28085 
L 314.063217 1181.841677 
L 316.728151 1186.476734 
L 319.393084 1194.045186 
L 322.058018 1204.317071 
L 324.722951 1216.980281 
L 327.387885 1231.650053 
L 330.052818 1247.880651 
L 335.382685 1283.019255 
L 340.712552 1318.15786 
L 343.377486 1334.388458 
L 346.042419 1349.05823 
L 348.707353 1361.72144 
L 351.372286 1371.993325 
L 354.03722 1379.561777 
L 356.702153 1384.196834 
L 359.367087 1385.757661 
L 423.325491 1385.757661 
L 471.294295 1180.28085 
L 519.263098 1385.757661 
L 583.221503 1385.757661 
L 585.886436 1318.223372 
L 588.55137 1291.624039 
L 591.216303 1272.17608 
L 593.881237 1256.607397 
L 596.54617 1243.637346 
L 599.211104 1232.604289 
L 601.876037 1223.113555 
L 604.540971 1214.907922 
L 607.205904 1207.809523 
L 609.870838 1201.690215 
L 612.535771 1196.455026 
L 615.200705 1192.032266 
L 617.865638 1188.367316 
L 620.530572 1185.418583 
L 623.195506 1183.154793 
L 625.860439 1181.553164 
L 628.525373 1180.598189 
L 631.190306 1180.28085 
L 633.85524 1180.598189 
L 636.520173 1181.553164 
L 639.185107 1183.154793 
L 641.85004 1185.418583 
L 644.514974 1188.367316 
L 647.179907 1192.032266 
L 649.844841 1196.455026 
L 652.509774 1201.690215 
L 655.174708 1207.809523 
L 657.839641 1214.907922 
L 660.504575 1223.113555 
L 663.169508 1232.604289 
L 665.834442 1243.637346 
L 668.499375 1256.607397 
L 671.164309 1272.17608 
L 673.829242 1291.624039 
L 676.494176 1318.223372 
L 679.159109 1385.757661 
L 711.138312 1385.757661 
L 711.138312 1385.757661 
" style="fill: none; stroke: #5a5758; stroke-opacity: 0.7; stroke-width: 2; stroke-linecap: square"/>
   </g>
   <g id="line2d_69">
    <path d="M 71.554267 1385.704082 
L 76.884134 1385.582471 
L 79.549067 1385.337155 
L 82.214001 1384.755355 
L 84.878934 1383.46631 
L 87.543868 1380.775772 
L 90.208801 1375.513454 
L 92.873735 1365.995098 
L 95.538668 1350.366615 
L 98.203602 1327.575684 
L 100.868535 1298.683477 
L 103.533469 1267.35114 
L 106.198402 1238.458751 
L 108.863336 1215.668857 
L 111.528269 1200.043849 
L 114.193203 1190.531158 
L 116.858136 1185.274987 
L 119.52307 1182.58873 
L 122.188003 1181.299986 
L 124.852937 1180.713271 
L 127.517871 1180.457848 
L 132.847738 1180.307753 
L 154.167206 1180.280951 
L 172.82174 1180.350941 
L 175.486674 1180.457848 
L 178.151607 1180.71327 
L 180.816541 1181.299985 
L 183.481474 1182.588723 
L 186.146408 1185.274967 
L 188.811342 1190.531108 
L 191.476275 1200.043765 
L 194.141209 1215.668819 
L 196.806142 1238.459056 
L 199.471076 1267.352329 
L 202.136009 1298.685959 
L 204.800943 1327.578978 
L 207.465876 1350.368946 
L 210.13081 1365.994024 
L 212.795743 1375.507171 
L 215.460677 1380.764226 
L 218.12561 1383.451574 
L 220.790544 1384.741266 
L 223.455477 1385.328421 
L 226.120411 1385.583483 
L 231.450278 1385.730125 
L 247.439879 1385.728125 
L 252.769746 1385.599141 
L 255.43468 1385.406568 
L 258.099613 1385.014754 
L 260.764547 1384.256158 
L 263.42948 1382.862984 
L 266.094414 1380.448495 
L 268.759347 1376.520615 
L 271.424281 1370.547556 
L 274.089214 1362.07234 
L 276.754148 1350.8357 
L 279.419081 1336.8484 
L 282.084015 1320.385256 
L 284.748948 1301.936221 
L 292.743749 1242.706027 
L 295.408682 1225.558841 
L 298.073616 1211.871349 
L 300.738549 1202.334016 
L 303.403483 1196.75616 
L 306.068416 1194.18548 
L 308.73335 1193.375495 
L 311.398283 1193.271977 
L 314.063217 1193.375495 
L 316.728151 1194.18548 
L 319.393084 1196.756159 
L 322.058018 1202.334016 
L 324.722951 1211.87135 
L 327.387885 1225.558847 
L 330.052818 1242.706037 
L 335.382685 1282.184143 
L 338.047619 1301.936165 
L 340.712552 1320.385146 
L 343.377486 1336.848277 
L 346.042419 1350.835673 
L 348.707353 1362.072558 
L 351.372286 1370.548111 
L 354.03722 1376.52142 
L 356.702153 1380.449231 
L 359.367087 1382.863171 
L 362.03202 1384.255356 
L 364.696954 1385.012782 
L 367.361887 1385.403675 
L 372.691754 1385.686656 
L 383.351489 1385.755473 
L 404.670957 1385.707863 
L 410.000824 1385.493164 
L 412.665757 1385.183939 
L 415.330691 1384.566184 
L 417.995624 1383.398179 
L 420.660558 1381.324321 
L 423.325491 1377.896445 
L 425.990425 1372.667461 
L 428.655358 1365.355985 
L 431.320292 1356.007812 
L 433.985225 1345.029859 
L 439.315093 1320.569416 
L 444.64496 1295.096414 
L 447.309893 1281.865814 
L 452.63976 1253.810793 
L 455.304694 1239.848679 
L 457.969627 1227.460572 
L 460.634561 1217.98949 
L 463.299494 1212.056381 
L 465.964428 1209.204116 
L 468.629361 1208.287018 
L 471.294295 1208.169043 
L 473.959228 1208.287018 
L 476.624162 1209.204116 
L 479.289095 1212.056381 
L 481.954029 1217.98949 
L 484.618962 1227.460572 
L 487.283896 1239.848679 
L 495.278696 1281.865809 
L 500.608564 1307.928617 
L 505.938431 1333.033158 
L 508.603364 1345.029915 
L 511.268298 1356.007797 
L 513.933231 1365.355807 
L 516.598165 1372.667078 
L 519.263098 1377.895939 
L 521.928032 1381.32392 
L 524.592965 1383.398193 
L 527.257899 1384.566864 
L 529.922832 1385.185342 
L 532.587766 1385.49507 
L 537.917633 1385.70915 
L 551.2423 1385.751077 
L 561.902035 1385.641321 
L 564.566968 1385.477476 
L 567.231902 1385.110231 
L 569.896835 1384.324809 
L 572.561769 1382.72923 
L 575.226702 1379.675023 
L 577.891636 1374.225411 
L 580.556569 1365.277663 
L 583.221503 1351.944249 
L 585.886436 1334.134497 
L 588.55137 1312.976007 
L 591.216303 1290.616613 
L 593.881237 1269.388439 
L 596.54617 1250.920096 
L 599.211104 1235.789316 
L 601.876037 1223.751962 
L 604.540971 1214.187131 
L 607.205904 1206.453166 
L 609.870838 1200.071586 
L 612.535771 1194.780767 
L 615.200705 1190.507397 
L 617.865638 1187.276793 
L 620.530572 1185.089679 
L 623.195506 1183.827902 
L 625.860439 1183.249611 
L 628.525373 1183.067726 
L 633.85524 1183.067726 
L 636.520173 1183.249611 
L 639.185107 1183.827902 
L 641.85004 1185.089679 
L 644.514974 1187.276793 
L 647.179907 1190.507396 
L 649.844841 1194.780764 
L 652.509774 1200.071578 
L 655.174708 1206.453158 
L 657.839641 1214.187136 
L 660.504575 1223.752011 
L 663.169508 1235.789453 
L 665.834442 1250.920325 
L 668.499375 1269.38861 
L 671.164309 1290.616295 
L 673.829242 1312.974559 
L 676.494176 1334.131572 
L 679.159109 1351.940543 
L 681.824043 1365.275203 
L 684.488977 1374.226863 
L 687.15391 1379.682305 
L 689.818844 1382.742276 
L 692.483777 1384.341088 
L 695.148711 1385.12517 
L 697.813644 1385.48559 
L 703.143511 1385.693167 
L 711.138312 1385.704082 
L 711.138312 1385.704082 
" style="fill: none; stroke: #e29400; stroke-width: 2; stroke-linecap: square"/>
   </g>
   <g id="patch_15">
    <path d="M 59.554267 1385.757661 
L 59.554267 1180.28085 
" style="fill: none; stroke: #5a5758; stroke-width: 0.8; stroke-linejoin: miter; stroke-linecap: square"/>
   </g>
   <g id="patch_16">
    <path d="M 71.554267 1397.757661 
L 711.138312 1397.757661 
" style="fill: none; stroke: #5a5758; stroke-width: 0.8; stroke-linejoin: miter; stroke-linecap: square"/>
   </g>
   <g id="text_74">
    <!-- Van Leer -->
    <g style="fill: #5a5758" transform="translate(349.614414 1174.28085) scale(0.216 -0.216)">
     <defs>
      <path id="CMUBright-Roman-56" d="M 90 4448 
L 563 4448 
L 2093 646 
L 2176 416 
L 2733 1824 
L 3795 4448 
L 4218 4448 
L 2406 -32 
L 1907 -32 
L 90 4448 
z
" transform="scale(0.015625)"/>
      <path id="CMUBright-Roman-20" transform="scale(0.015625)"/>
     </defs>
     <use xlink:href="#CMUBright-Roman-56"/>
     <use xlink:href="#CMUBright-Roman-61" x="67.499985"/>
     <use xlink:href="#CMUBright-Roman-6e" x="116.699982"/>
     <use xlink:href="#CMUBright-Roman-20" x="168.399979"/>
     <use xlink:href="#CMUBright-Roman-4c" x="201.699966"/>
     <use xlink:href="#CMUBright-Roman-65" x="258.399963"/>
     <use xlink:href="#CMUBright-Roman-65" x="305.09996"/>
     <use xlink:href="#CMUBright-Roman-72" x="351.799957"/>
    </g>
   </g>
  </g>
 </g>
</svg>