<?xml version="1.0" encoding="utf-8" standalone="no"?>
<!DOCTYPE svg PUBLIC "-//W3C//DTD SVG 1.1//EN"
  "http://www.w3.org/Graphics/SVG/1.1/DTD/svg11.dtd">
<svg xmlns:xlink="http://www.w3.org/1999/xlink" width="728.39952pt" height="440.39952pt" viewBox="0 0 728.39952 440.39952" xmlns="http://www.w3.org/2000/svg" version="1.1">
 <metadata>
  <rdf:RDF xmlns:dc="http://purl.org/dc/elements/1.1/" xmlns:cc="http://creativecommons.org/ns#" xmlns:rdf="http://www.w3.org/1999/02/22-rdf-syntax-ns#">
   <cc:Work>
    <dc:type rdf:resource="http://purl.org/dc/dcmitype/StillImage"/>
    <dc:date>2023-11-01T22:41:48.278283</dc:date>
    <dc:format>image/svg+xml</dc:format>
    <dc:creator>
     <cc:Agent>
      <dc:title>Matplotlib v3.8.1, https://matplotlib.org/</dc:title>
     </cc:Agent>
    </dc:creator>
   </cc:Work>
  </rdf:RDF>
 </metadata>
 <defs>
  <style type="text/css">*{stroke-linejoin: round; stroke-linecap: butt}</style>
 </defs>
 <g id="figure_1">
  <g id="patch_1">
   <path d="M 0 440.39952 
L 728.39952 440.39952 
L 728.39952 0 
L 0 0 
z
" style="fill: #ffffff"/>
  </g>
  <g id="axes_1">
   <g id="patch_2">
    <path d="M 69.838979 377.757661 
L 711.138312 377.757661 
L 711.138312 12.410415 
L 69.838979 12.410415 
z
" style="fill: #ffffff"/>
   </g>
   <g id="matplotlib.axis_1">
    <g id="xtick_1">
     <g id="line2d_1">
      <defs>
       <path id="ma854675512" d="M 0 0 
L 0 3.5 
" style="stroke: #5a5758; stroke-width: 0.8"/>
      </defs>
      <g>
       <use xlink:href="#ma854675512" x="69.838979" y="389.757661" style="fill: #5a5758; stroke: #5a5758; stroke-width: 0.8"/>
      </g>
     </g>
     <g id="text_1">
      <!-- 0.0 -->
      <g style="fill: #5a5758" transform="translate(59.777771 407.178491) scale(0.14994 -0.14994)">
       <defs>
        <path id="CMUBright-Roman-30" d="M 333 1984 
L 333 2086 
Q 333 2291 339 2438 
Q 346 2586 371 2832 
Q 397 3078 461 3267 
Q 525 3456 621 3657 
Q 717 3859 880 4006 
Q 1043 4154 1261 4230 
Q 1446 4301 1677 4301 
Q 1856 4301 2025 4256 
Q 2195 4211 2380 4070 
Q 2566 3930 2704 3709 
Q 2842 3488 2931 3104 
Q 3021 2720 3021 2214 
Q 3021 1683 2982 1347 
Q 2944 1011 2803 685 
Q 2618 250 2307 70 
Q 1997 -109 1677 -109 
Q 1498 -109 1328 -64 
Q 1158 -19 972 121 
Q 787 262 649 483 
Q 512 704 422 1091 
Q 333 1478 333 1984 
z
M 742 2413 
Q 742 2374 745 2326 
Q 749 2278 749 2272 
L 749 2150 
Q 749 1779 758 1548 
Q 768 1318 838 1014 
Q 909 710 1037 538 
Q 1286 218 1677 218 
Q 2086 218 2330 557 
Q 2451 730 2518 1037 
Q 2586 1344 2595 1568 
Q 2605 1792 2605 2163 
L 2605 2272 
Q 2605 2278 2608 2323 
Q 2611 2368 2611 2406 
Q 2611 3302 2336 3661 
Q 2099 3981 1677 3981 
Q 1242 3981 1005 3642 
Q 742 3264 742 2413 
z
" transform="scale(0.015625)"/>
        <path id="CMUBright-Roman-2e" d="M 678 0 
L 678 499 
L 1178 499 
L 1178 0 
L 678 0 
z
" transform="scale(0.015625)"/>
       </defs>
       <use xlink:href="#CMUBright-Roman-30"/>
       <use xlink:href="#CMUBright-Roman-2e" x="52.499985"/>
       <use xlink:href="#CMUBright-Roman-30" x="81.699982"/>
      </g>
     </g>
    </g>
    <g id="xtick_2">
     <g id="line2d_2">
      <g>
       <use xlink:href="#ma854675512" x="198.098846" y="389.757661" style="fill: #5a5758; stroke: #5a5758; stroke-width: 0.8"/>
      </g>
     </g>
     <g id="text_2">
      <!-- 0.2 -->
      <g style="fill: #5a5758" transform="translate(188.037637 407.178491) scale(0.14994 -0.14994)">
       <defs>
        <path id="CMUBright-Roman-32" d="M 275 3226 
Q 595 4301 1587 4301 
L 1594 4301 
Q 2214 4294 2617 3923 
Q 3021 3552 3021 2989 
Q 3021 2746 2937 2531 
Q 2854 2317 2668 2115 
Q 2483 1914 2384 1821 
Q 2285 1728 2061 1549 
Q 1754 1299 1642 1203 
Q 1530 1107 698 358 
L 3021 358 
L 3021 0 
L 333 0 
L 333 339 
L 1683 1562 
Q 2144 1965 2368 2278 
Q 2592 2592 2592 2982 
Q 2592 3418 2278 3690 
Q 1965 3962 1498 3962 
Q 1069 3962 854 3693 
Q 640 3424 512 2938 
L 275 3226 
z
" transform="scale(0.015625)"/>
       </defs>
       <use xlink:href="#CMUBright-Roman-30"/>
       <use xlink:href="#CMUBright-Roman-2e" x="52.499985"/>
       <use xlink:href="#CMUBright-Roman-32" x="81.699982"/>
      </g>
     </g>
    </g>
    <g id="xtick_3">
     <g id="line2d_3">
      <g>
       <use xlink:href="#ma854675512" x="326.358712" y="389.757661" style="fill: #5a5758; stroke: #5a5758; stroke-width: 0.8"/>
      </g>
     </g>
     <g id="text_3">
      <!-- 0.4 -->
      <g style="fill: #5a5758" transform="translate(316.297504 407.178491) scale(0.14994 -0.14994)">
       <defs>
        <path id="CMUBright-Roman-34" d="M 186 1158 
L 186 1504 
L 1952 4250 
L 2438 4250 
L 2438 1498 
L 3168 1498 
L 3168 1158 
L 2438 1158 
L 2438 0 
L 2035 0 
L 2035 1158 
L 186 1158 
z
M 602 1498 
L 2054 1498 
L 2054 3885 
Q 1971 3667 1606 3085 
L 602 1498 
z
" transform="scale(0.015625)"/>
       </defs>
       <use xlink:href="#CMUBright-Roman-30"/>
       <use xlink:href="#CMUBright-Roman-2e" x="52.499985"/>
       <use xlink:href="#CMUBright-Roman-34" x="81.699982"/>
      </g>
     </g>
    </g>
    <g id="xtick_4">
     <g id="line2d_4">
      <g>
       <use xlink:href="#ma854675512" x="454.618579" y="389.757661" style="fill: #5a5758; stroke: #5a5758; stroke-width: 0.8"/>
      </g>
     </g>
     <g id="text_4">
      <!-- 0.6 -->
      <g style="fill: #5a5758" transform="translate(444.55737 407.178491) scale(0.14994 -0.14994)">
       <defs>
        <path id="CMUBright-Roman-36" d="M 346 2061 
Q 346 3072 864 3686 
Q 1382 4301 2074 4301 
L 2086 4301 
Q 2426 4301 2797 4179 
L 2797 3846 
Q 2374 3981 2074 3981 
L 2061 3981 
Q 1478 3981 1123 3491 
Q 768 3002 768 2208 
Q 768 2195 771 2166 
Q 774 2138 774 2125 
Q 928 2445 1238 2665 
Q 1549 2886 1952 2886 
Q 2387 2886 2682 2483 
Q 3008 2029 3008 1408 
Q 3008 768 2618 326 
Q 2240 -109 1690 -109 
Q 1510 -109 1340 -57 
Q 1171 -6 985 141 
Q 800 288 662 521 
Q 525 755 435 1152 
Q 346 1549 346 2061 
z
M 794 1389 
Q 813 1171 854 1004 
Q 896 838 985 643 
Q 1075 448 1254 336 
Q 1434 224 1690 224 
Q 2138 224 2381 550 
Q 2515 736 2550 921 
Q 2586 1107 2586 1434 
Q 2586 1645 2573 1776 
Q 2560 1907 2480 2089 
Q 2400 2272 2253 2400 
Q 2054 2566 1728 2566 
Q 1325 2566 1062 2265 
Q 800 1965 800 1555 
Q 800 1440 806 1389 
L 794 1389 
z
" transform="scale(0.015625)"/>
       </defs>
       <use xlink:href="#CMUBright-Roman-30"/>
       <use xlink:href="#CMUBright-Roman-2e" x="52.499985"/>
       <use xlink:href="#CMUBright-Roman-36" x="81.699982"/>
      </g>
     </g>
    </g>
    <g id="xtick_5">
     <g id="line2d_5">
      <g>
       <use xlink:href="#ma854675512" x="582.878445" y="389.757661" style="fill: #5a5758; stroke: #5a5758; stroke-width: 0.8"/>
      </g>
     </g>
     <g id="text_5">
      <!-- 0.8 -->
      <g style="fill: #5a5758" transform="translate(572.817237 407.178491) scale(0.14994 -0.14994)">
       <defs>
        <path id="CMUBright-Roman-38" d="M 275 1158 
Q 275 1517 518 1817 
Q 762 2118 1248 2266 
Q 909 2349 640 2598 
Q 371 2848 371 3206 
Q 371 3642 745 3971 
Q 1120 4301 1677 4301 
Q 2221 4301 2601 3981 
Q 2982 3661 2982 3213 
Q 2982 2918 2787 2684 
Q 2592 2451 2285 2323 
L 2099 2266 
Q 2464 2176 2768 1885 
Q 3072 1594 3072 1158 
Q 3072 646 2665 268 
Q 2259 -109 1670 -109 
Q 1075 -109 675 275 
Q 275 659 275 1158 
z
M 698 1158 
Q 698 704 970 464 
Q 1242 224 1670 224 
Q 2118 224 2384 470 
Q 2650 717 2650 1165 
Q 2650 1619 2371 1862 
Q 2093 2106 1670 2106 
Q 1280 2106 989 1878 
Q 698 1651 698 1158 
z
M 755 3206 
Q 755 2886 982 2656 
Q 1210 2426 1670 2426 
Q 2093 2426 2342 2634 
Q 2592 2842 2592 3206 
Q 2592 3507 2387 3744 
Q 2182 3981 1683 3981 
Q 1171 3981 963 3744 
Q 755 3507 755 3206 
z
" transform="scale(0.015625)"/>
       </defs>
       <use xlink:href="#CMUBright-Roman-30"/>
       <use xlink:href="#CMUBright-Roman-2e" x="52.499985"/>
       <use xlink:href="#CMUBright-Roman-38" x="81.699982"/>
      </g>
     </g>
    </g>
    <g id="xtick_6">
     <g id="line2d_6">
      <g>
       <use xlink:href="#ma854675512" x="711.138312" y="389.757661" style="fill: #5a5758; stroke: #5a5758; stroke-width: 0.8"/>
      </g>
     </g>
     <g id="text_6">
      <!-- 1.0 -->
      <g style="fill: #5a5758" transform="translate(701.077103 407.178491) scale(0.14994 -0.14994)">
       <defs>
        <path id="CMUBright-Roman-31" d="M 672 3558 
L 672 3885 
Q 1427 3885 1862 4301 
L 1965 4301 
L 1965 320 
L 2803 320 
L 2803 0 
L 710 0 
L 710 320 
L 1549 320 
L 1549 3744 
Q 1178 3558 672 3558 
z
" transform="scale(0.015625)"/>
       </defs>
       <use xlink:href="#CMUBright-Roman-31"/>
       <use xlink:href="#CMUBright-Roman-2e" x="52.499985"/>
       <use xlink:href="#CMUBright-Roman-30" x="81.699982"/>
      </g>
     </g>
    </g>
    <g id="text_7">
     <!-- $x$ -->
     <g style="fill: #5a5758" transform="translate(386.348645 430.192957) scale(0.18 -0.18)">
      <defs>
       <path id="CMUBright-SemiBold-78" d="M 0 0 
L 1184 1562 
L 1184 1568 
L 38 3021 
L 698 3021 
L 1446 2022 
L 2163 3021 
L 2816 3021 
L 1709 1568 
L 1709 1562 
L 2931 0 
L 2272 0 
L 1446 1197 
L 1440 1197 
L 653 0 
L 0 0 
z
" transform="scale(0.015625)"/>
      </defs>
      <use xlink:href="#CMUBright-SemiBold-78" transform="translate(0 0.796875)"/>
     </g>
    </g>
   </g>
   <g id="matplotlib.axis_2">
    <g id="ytick_1">
     <g id="line2d_7">
      <defs>
       <path id="me3098a42ef" d="M 0 0 
L -3.5 0 
" style="stroke: #5a5758; stroke-width: 0.8"/>
      </defs>
      <g>
       <use xlink:href="#me3098a42ef" x="57.838979" y="304.689301" style="fill: #5a5758; stroke: #5a5758; stroke-width: 0.8"/>
      </g>
     </g>
     <g id="text_8">
      <!-- 0.2 -->
      <g style="fill: #5a5758" transform="translate(30.716563 309.899716) scale(0.14994 -0.14994)">
       <use xlink:href="#CMUBright-Roman-30"/>
       <use xlink:href="#CMUBright-Roman-2e" x="52.499985"/>
       <use xlink:href="#CMUBright-Roman-32" x="81.699982"/>
      </g>
     </g>
    </g>
    <g id="ytick_2">
     <g id="line2d_8">
      <g>
       <use xlink:href="#me3098a42ef" x="57.838979" y="231.619579" style="fill: #5a5758; stroke: #5a5758; stroke-width: 0.8"/>
      </g>
     </g>
     <g id="text_9">
      <!-- 0.4 -->
      <g style="fill: #5a5758" transform="translate(30.716563 236.829994) scale(0.14994 -0.14994)">
       <use xlink:href="#CMUBright-Roman-30"/>
       <use xlink:href="#CMUBright-Roman-2e" x="52.499985"/>
       <use xlink:href="#CMUBright-Roman-34" x="81.699982"/>
      </g>
     </g>
    </g>
    <g id="ytick_3">
     <g id="line2d_9">
      <g>
       <use xlink:href="#me3098a42ef" x="57.838979" y="158.549858" style="fill: #5a5758; stroke: #5a5758; stroke-width: 0.8"/>
      </g>
     </g>
     <g id="text_10">
      <!-- 0.6 -->
      <g style="fill: #5a5758" transform="translate(30.716563 163.760273) scale(0.14994 -0.14994)">
       <use xlink:href="#CMUBright-Roman-30"/>
       <use xlink:href="#CMUBright-Roman-2e" x="52.499985"/>
       <use xlink:href="#CMUBright-Roman-36" x="81.699982"/>
      </g>
     </g>
    </g>
    <g id="ytick_4">
     <g id="line2d_10">
      <g>
       <use xlink:href="#me3098a42ef" x="57.838979" y="85.480136" style="fill: #5a5758; stroke: #5a5758; stroke-width: 0.8"/>
      </g>
     </g>
     <g id="text_11">
      <!-- 0.8 -->
      <g style="fill: #5a5758" transform="translate(30.716563 90.690551) scale(0.14994 -0.14994)">
       <use xlink:href="#CMUBright-Roman-30"/>
       <use xlink:href="#CMUBright-Roman-2e" x="52.499985"/>
       <use xlink:href="#CMUBright-Roman-38" x="81.699982"/>
      </g>
     </g>
    </g>
    <g id="ytick_5">
     <g id="line2d_11">
      <g>
       <use xlink:href="#me3098a42ef" x="57.838979" y="12.410415" style="fill: #5a5758; stroke: #5a5758; stroke-width: 0.8"/>
      </g>
     </g>
     <g id="text_12">
      <!-- 1.0 -->
      <g style="fill: #5a5758" transform="translate(30.716563 17.62083) scale(0.14994 -0.14994)">
       <use xlink:href="#CMUBright-Roman-31"/>
       <use xlink:href="#CMUBright-Roman-2e" x="52.499985"/>
       <use xlink:href="#CMUBright-Roman-30" x="81.699982"/>
      </g>
     </g>
    </g>
    <g id="text_13">
     <!-- $u$ -->
     <g style="fill: #5a5758" transform="translate(19.71 199.764038) rotate(-90) scale(0.18 -0.18)">
      <defs>
       <path id="CMUBright-SemiBold-75" d="M 410 838 
L 410 3021 
L 1024 3021 
L 1024 883 
Q 1030 570 1069 506 
Q 1139 403 1510 403 
Q 1888 403 2064 601 
Q 2240 800 2266 998 
Q 2272 1062 2272 1197 
L 2272 3021 
L 2886 3021 
L 2886 0 
L 2285 0 
L 2285 480 
Q 1830 -51 1088 -51 
Q 858 -51 710 29 
Q 563 109 502 262 
Q 442 416 426 537 
Q 410 659 410 838 
z
" transform="scale(0.015625)"/>
      </defs>
      <use xlink:href="#CMUBright-SemiBold-75" transform="translate(0 0.796875)"/>
     </g>
    </g>
   </g>
   <g id="line2d_12">
    <path d="M 69.838979 377.757661 
L 79.859281 377.756085 
L 89.879583 377.752837 
L 99.899885 377.746311 
L 109.920187 377.733532 
L 119.940489 377.709139 
L 129.960791 377.663758 
L 139.981094 377.581479 
L 150.001396 377.436118 
L 160.021698 377.185907 
L 170.042 376.766347 
L 180.062302 376.081109 
L 190.082604 374.991259 
L 200.102906 373.303636 
L 210.123208 370.759976 
L 220.14351 367.029276 
L 230.163812 361.706725 
L 240.184114 354.323101 
L 250.204416 344.368441 
L 260.224718 331.332834 
L 270.245021 314.765022 
L 280.265323 294.34627 
L 290.285625 269.972906 
L 300.305927 241.836851 
L 310.326229 210.490241 
L 320.346531 176.879075 
L 330.366833 142.332499 
L 340.387135 108.499359 
L 350.407437 77.231456 
L 360.427739 50.422519 
L 370.448041 29.821176 
L 380.468343 16.843127 
L 390.488645 12.410415 
L 400.508947 16.843127 
L 410.52925 29.821176 
L 420.549552 50.422519 
L 430.569854 77.231456 
L 440.590156 108.499359 
L 450.610458 142.332499 
L 460.63076 176.879075 
L 470.651062 210.490241 
L 480.671364 241.836851 
L 490.691666 269.972906 
L 500.711968 294.34627 
L 510.73227 314.765022 
L 520.752572 331.332834 
L 530.772874 344.368441 
L 540.793176 354.323101 
L 550.813479 361.706725 
L 560.833781 367.029276 
L 570.854083 370.759976 
L 580.874385 373.303636 
L 590.894687 374.991259 
L 600.914989 376.081109 
L 610.935291 376.766347 
L 620.955593 377.185907 
L 630.975895 377.436118 
L 640.996197 377.581479 
L 651.016499 377.663758 
L 661.036801 377.709139 
L 671.057103 377.733532 
L 681.077406 377.746311 
L 691.097708 377.752837 
L 701.11801 377.756085 
L 711.138312 377.757661 
" style="fill: none; stroke: #808080; stroke-opacity: 0.7; stroke-width: 4; stroke-linecap: square"/>
    <defs>
     <path id="m481f532643" d="M 0 3 
C 0.795609 3 1.55874 2.683901 2.12132 2.12132 
C 2.683901 1.55874 3 0.795609 3 0 
C 3 -0.795609 2.683901 -1.55874 2.12132 -2.12132 
C 1.55874 -2.683901 0.795609 -3 0 -3 
C -0.795609 -3 -1.55874 -2.683901 -2.12132 -2.12132 
C -2.683901 -1.55874 -3 -0.795609 -3 0 
C -3 0.795609 -2.683901 1.55874 -2.12132 2.12132 
C -1.55874 2.683901 -0.795609 3 0 3 
z
" style="stroke: #ffffff; stroke-opacity: 0.7"/>
    </defs>
    <g>
     <use xlink:href="#m481f532643" x="69.838979" y="377.757661" style="fill: #808080; fill-opacity: 0.7; stroke: #ffffff; stroke-opacity: 0.7"/>
     <use xlink:href="#m481f532643" x="79.859281" y="377.756085" style="fill: #808080; fill-opacity: 0.7; stroke: #ffffff; stroke-opacity: 0.7"/>
     <use xlink:href="#m481f532643" x="89.879583" y="377.752837" style="fill: #808080; fill-opacity: 0.7; stroke: #ffffff; stroke-opacity: 0.7"/>
     <use xlink:href="#m481f532643" x="99.899885" y="377.746311" style="fill: #808080; fill-opacity: 0.7; stroke: #ffffff; stroke-opacity: 0.7"/>
     <use xlink:href="#m481f532643" x="109.920187" y="377.733532" style="fill: #808080; fill-opacity: 0.7; stroke: #ffffff; stroke-opacity: 0.7"/>
     <use xlink:href="#m481f532643" x="119.940489" y="377.709139" style="fill: #808080; fill-opacity: 0.7; stroke: #ffffff; stroke-opacity: 0.7"/>
     <use xlink:href="#m481f532643" x="129.960791" y="377.663758" style="fill: #808080; fill-opacity: 0.7; stroke: #ffffff; stroke-opacity: 0.7"/>
     <use xlink:href="#m481f532643" x="139.981094" y="377.581479" style="fill: #808080; fill-opacity: 0.7; stroke: #ffffff; stroke-opacity: 0.7"/>
     <use xlink:href="#m481f532643" x="150.001396" y="377.436118" style="fill: #808080; fill-opacity: 0.7; stroke: #ffffff; stroke-opacity: 0.7"/>
     <use xlink:href="#m481f532643" x="160.021698" y="377.185907" style="fill: #808080; fill-opacity: 0.7; stroke: #ffffff; stroke-opacity: 0.7"/>
     <use xlink:href="#m481f532643" x="170.042" y="376.766347" style="fill: #808080; fill-opacity: 0.7; stroke: #ffffff; stroke-opacity: 0.7"/>
     <use xlink:href="#m481f532643" x="180.062302" y="376.081109" style="fill: #808080; fill-opacity: 0.7; stroke: #ffffff; stroke-opacity: 0.7"/>
     <use xlink:href="#m481f532643" x="190.082604" y="374.991259" style="fill: #808080; fill-opacity: 0.7; stroke: #ffffff; stroke-opacity: 0.7"/>
     <use xlink:href="#m481f532643" x="200.102906" y="373.303636" style="fill: #808080; fill-opacity: 0.7; stroke: #ffffff; stroke-opacity: 0.7"/>
     <use xlink:href="#m481f532643" x="210.123208" y="370.759976" style="fill: #808080; fill-opacity: 0.7; stroke: #ffffff; stroke-opacity: 0.7"/>
     <use xlink:href="#m481f532643" x="220.14351" y="367.029276" style="fill: #808080; fill-opacity: 0.7; stroke: #ffffff; stroke-opacity: 0.7"/>
     <use xlink:href="#m481f532643" x="230.163812" y="361.706725" style="fill: #808080; fill-opacity: 0.7; stroke: #ffffff; stroke-opacity: 0.7"/>
     <use xlink:href="#m481f532643" x="240.184114" y="354.323101" style="fill: #808080; fill-opacity: 0.7; stroke: #ffffff; stroke-opacity: 0.7"/>
     <use xlink:href="#m481f532643" x="250.204416" y="344.368441" style="fill: #808080; fill-opacity: 0.7; stroke: #ffffff; stroke-opacity: 0.7"/>
     <use xlink:href="#m481f532643" x="260.224718" y="331.332834" style="fill: #808080; fill-opacity: 0.7; stroke: #ffffff; stroke-opacity: 0.7"/>
     <use xlink:href="#m481f532643" x="270.245021" y="314.765022" style="fill: #808080; fill-opacity: 0.7; stroke: #ffffff; stroke-opacity: 0.7"/>
     <use xlink:href="#m481f532643" x="280.265323" y="294.34627" style="fill: #808080; fill-opacity: 0.7; stroke: #ffffff; stroke-opacity: 0.7"/>
     <use xlink:href="#m481f532643" x="290.285625" y="269.972906" style="fill: #808080; fill-opacity: 0.7; stroke: #ffffff; stroke-opacity: 0.7"/>
     <use xlink:href="#m481f532643" x="300.305927" y="241.836851" style="fill: #808080; fill-opacity: 0.7; stroke: #ffffff; stroke-opacity: 0.7"/>
     <use xlink:href="#m481f532643" x="310.326229" y="210.490241" style="fill: #808080; fill-opacity: 0.7; stroke: #ffffff; stroke-opacity: 0.7"/>
     <use xlink:href="#m481f532643" x="320.346531" y="176.879075" style="fill: #808080; fill-opacity: 0.7; stroke: #ffffff; stroke-opacity: 0.7"/>
     <use xlink:href="#m481f532643" x="330.366833" y="142.332499" style="fill: #808080; fill-opacity: 0.7; stroke: #ffffff; stroke-opacity: 0.7"/>
     <use xlink:href="#m481f532643" x="340.387135" y="108.499359" style="fill: #808080; fill-opacity: 0.7; stroke: #ffffff; stroke-opacity: 0.7"/>
     <use xlink:href="#m481f532643" x="350.407437" y="77.231456" style="fill: #808080; fill-opacity: 0.7; stroke: #ffffff; stroke-opacity: 0.7"/>
     <use xlink:href="#m481f532643" x="360.427739" y="50.422519" style="fill: #808080; fill-opacity: 0.7; stroke: #ffffff; stroke-opacity: 0.7"/>
     <use xlink:href="#m481f532643" x="370.448041" y="29.821176" style="fill: #808080; fill-opacity: 0.7; stroke: #ffffff; stroke-opacity: 0.7"/>
     <use xlink:href="#m481f532643" x="380.468343" y="16.843127" style="fill: #808080; fill-opacity: 0.7; stroke: #ffffff; stroke-opacity: 0.7"/>
     <use xlink:href="#m481f532643" x="390.488645" y="12.410415" style="fill: #808080; fill-opacity: 0.7; stroke: #ffffff; stroke-opacity: 0.7"/>
     <use xlink:href="#m481f532643" x="400.508947" y="16.843127" style="fill: #808080; fill-opacity: 0.7; stroke: #ffffff; stroke-opacity: 0.7"/>
     <use xlink:href="#m481f532643" x="410.52925" y="29.821176" style="fill: #808080; fill-opacity: 0.7; stroke: #ffffff; stroke-opacity: 0.7"/>
     <use xlink:href="#m481f532643" x="420.549552" y="50.422519" style="fill: #808080; fill-opacity: 0.7; stroke: #ffffff; stroke-opacity: 0.7"/>
     <use xlink:href="#m481f532643" x="430.569854" y="77.231456" style="fill: #808080; fill-opacity: 0.7; stroke: #ffffff; stroke-opacity: 0.7"/>
     <use xlink:href="#m481f532643" x="440.590156" y="108.499359" style="fill: #808080; fill-opacity: 0.7; stroke: #ffffff; stroke-opacity: 0.7"/>
     <use xlink:href="#m481f532643" x="450.610458" y="142.332499" style="fill: #808080; fill-opacity: 0.7; stroke: #ffffff; stroke-opacity: 0.7"/>
     <use xlink:href="#m481f532643" x="460.63076" y="176.879075" style="fill: #808080; fill-opacity: 0.7; stroke: #ffffff; stroke-opacity: 0.7"/>
     <use xlink:href="#m481f532643" x="470.651062" y="210.490241" style="fill: #808080; fill-opacity: 0.7; stroke: #ffffff; stroke-opacity: 0.7"/>
     <use xlink:href="#m481f532643" x="480.671364" y="241.836851" style="fill: #808080; fill-opacity: 0.7; stroke: #ffffff; stroke-opacity: 0.7"/>
     <use xlink:href="#m481f532643" x="490.691666" y="269.972906" style="fill: #808080; fill-opacity: 0.7; stroke: #ffffff; stroke-opacity: 0.7"/>
     <use xlink:href="#m481f532643" x="500.711968" y="294.34627" style="fill: #808080; fill-opacity: 0.7; stroke: #ffffff; stroke-opacity: 0.7"/>
     <use xlink:href="#m481f532643" x="510.73227" y="314.765022" style="fill: #808080; fill-opacity: 0.7; stroke: #ffffff; stroke-opacity: 0.7"/>
     <use xlink:href="#m481f532643" x="520.752572" y="331.332834" style="fill: #808080; fill-opacity: 0.7; stroke: #ffffff; stroke-opacity: 0.7"/>
     <use xlink:href="#m481f532643" x="530.772874" y="344.368441" style="fill: #808080; fill-opacity: 0.7; stroke: #ffffff; stroke-opacity: 0.7"/>
     <use xlink:href="#m481f532643" x="540.793176" y="354.323101" style="fill: #808080; fill-opacity: 0.7; stroke: #ffffff; stroke-opacity: 0.7"/>
     <use xlink:href="#m481f532643" x="550.813479" y="361.706725" style="fill: #808080; fill-opacity: 0.7; stroke: #ffffff; stroke-opacity: 0.7"/>
     <use xlink:href="#m481f532643" x="560.833781" y="367.029276" style="fill: #808080; fill-opacity: 0.7; stroke: #ffffff; stroke-opacity: 0.7"/>
     <use xlink:href="#m481f532643" x="570.854083" y="370.759976" style="fill: #808080; fill-opacity: 0.7; stroke: #ffffff; stroke-opacity: 0.7"/>
     <use xlink:href="#m481f532643" x="580.874385" y="373.303636" style="fill: #808080; fill-opacity: 0.7; stroke: #ffffff; stroke-opacity: 0.7"/>
     <use xlink:href="#m481f532643" x="590.894687" y="374.991259" style="fill: #808080; fill-opacity: 0.7; stroke: #ffffff; stroke-opacity: 0.7"/>
     <use xlink:href="#m481f532643" x="600.914989" y="376.081109" style="fill: #808080; fill-opacity: 0.7; stroke: #ffffff; stroke-opacity: 0.7"/>
     <use xlink:href="#m481f532643" x="610.935291" y="376.766347" style="fill: #808080; fill-opacity: 0.7; stroke: #ffffff; stroke-opacity: 0.7"/>
     <use xlink:href="#m481f532643" x="620.955593" y="377.185907" style="fill: #808080; fill-opacity: 0.7; stroke: #ffffff; stroke-opacity: 0.7"/>
     <use xlink:href="#m481f532643" x="630.975895" y="377.436118" style="fill: #808080; fill-opacity: 0.7; stroke: #ffffff; stroke-opacity: 0.7"/>
     <use xlink:href="#m481f532643" x="640.996197" y="377.581479" style="fill: #808080; fill-opacity: 0.7; stroke: #ffffff; stroke-opacity: 0.7"/>
     <use xlink:href="#m481f532643" x="651.016499" y="377.663758" style="fill: #808080; fill-opacity: 0.7; stroke: #ffffff; stroke-opacity: 0.7"/>
     <use xlink:href="#m481f532643" x="661.036801" y="377.709139" style="fill: #808080; fill-opacity: 0.7; stroke: #ffffff; stroke-opacity: 0.7"/>
     <use xlink:href="#m481f532643" x="671.057103" y="377.733532" style="fill: #808080; fill-opacity: 0.7; stroke: #ffffff; stroke-opacity: 0.7"/>
     <use xlink:href="#m481f532643" x="681.077406" y="377.746311" style="fill: #808080; fill-opacity: 0.7; stroke: #ffffff; stroke-opacity: 0.7"/>
     <use xlink:href="#m481f532643" x="691.097708" y="377.752837" style="fill: #808080; fill-opacity: 0.7; stroke: #ffffff; stroke-opacity: 0.7"/>
     <use xlink:href="#m481f532643" x="701.11801" y="377.756085" style="fill: #808080; fill-opacity: 0.7; stroke: #ffffff; stroke-opacity: 0.7"/>
     <use xlink:href="#m481f532643" x="711.138312" y="377.757661" style="fill: #808080; fill-opacity: 0.7; stroke: #ffffff; stroke-opacity: 0.7"/>
    </g>
   </g>
   <g id="line2d_13">
    <path d="M 390.488645 377.757661 
L 390.488645 12.410415 
" clip-path="url(#p0f7bf8eba0)" style="fill: none; stroke-dasharray: 7.4,3.2; stroke-dashoffset: 0; stroke: #808080; stroke-opacity: 0.7; stroke-width: 2"/>
   </g>
   <g id="line2d_14">
    <path d="M 69.838979 286.237734 
L 79.859281 286.237689 
L 89.879583 286.237076 
L 99.899885 286.235921 
L 109.920187 286.234215 
L 119.940489 286.231995 
L 129.960791 286.229261 
L 139.981094 286.226061 
L 150.001396 286.222405 
L 160.021698 286.218349 
L 170.042 286.213911 
L 180.062302 286.209153 
L 190.082604 286.204104 
L 200.102906 286.198829 
L 210.123208 286.193361 
L 220.14351 286.187772 
L 230.163812 286.182096 
L 240.184114 286.176407 
L 250.204416 286.17074 
L 260.224718 286.165171 
L 270.245021 286.159732 
L 280.265323 286.154496 
L 290.285625 286.149493 
L 300.305927 286.144792 
L 310.326229 286.140418 
L 320.346531 286.136432 
L 330.366833 286.132854 
L 340.387135 286.129737 
L 350.407437 286.127093 
L 360.427739 286.124965 
L 370.448041 286.123356 
L 380.468343 286.122299 
L 390.488645 286.121786 
L 400.508947 286.121841 
L 410.52925 286.122445 
L 420.549552 286.12361 
L 430.569854 286.125306 
L 440.590156 286.127536 
L 450.610458 286.130259 
L 460.63076 286.133469 
L 470.651062 286.137115 
L 480.671364 286.141182 
L 490.691666 286.14561 
L 500.711968 286.150377 
L 510.73227 286.155417 
L 520.752572 286.160702 
L 530.772874 286.16616 
L 540.793176 286.171759 
L 550.813479 286.177425 
L 560.833781 286.183124 
L 570.854083 286.18878 
L 580.874385 286.19436 
L 590.894687 286.199789 
L 600.914989 286.205035 
L 610.935291 286.210027 
L 620.955593 286.214738 
L 630.975895 286.219103 
L 640.996197 286.223098 
L 651.016499 286.226667 
L 661.036801 286.229793 
L 671.057103 286.232428 
L 681.077406 286.234565 
L 691.097708 286.236165 
L 701.11801 286.237231 
L 711.138312 286.237734 
" style="fill: none; stroke: #e29400; stroke-width: 4; stroke-linecap: square"/>
   </g>
   <g id="line2d_15">
    <path d="M 69.838979 286.236145 
L 79.859281 286.235651 
L 89.879583 286.234841 
L 99.899885 286.233278 
L 109.920187 286.231423 
L 119.940489 286.228847 
L 129.960791 286.226021 
L 139.981094 286.222527 
L 150.001396 286.218844 
L 160.021698 286.214561 
L 170.042 286.210167 
L 180.062302 286.205257 
L 190.082604 286.200324 
L 200.102906 286.19497 
L 210.123208 286.189693 
L 220.14351 286.184097 
L 230.163812 286.178682 
L 240.184114 286.173055 
L 250.204416 286.167715 
L 260.224718 286.162268 
L 270.245021 286.157213 
L 280.265323 286.152152 
L 290.285625 286.14758 
L 300.305927 286.143095 
L 310.326229 286.139186 
L 320.346531 286.135445 
L 330.366833 286.132353 
L 340.387135 286.129495 
L 350.407437 286.127345 
L 360.427739 286.125475 
L 370.448041 286.124353 
L 380.468343 286.12354 
L 390.488645 286.123492 
L 400.508947 286.123763 
L 410.52925 286.124796 
L 420.549552 286.126135 
L 430.569854 286.128215 
L 440.590156 286.130567 
L 450.610458 286.133616 
L 460.63076 286.136887 
L 470.651062 286.140793 
L 480.671364 286.144852 
L 490.691666 286.14947 
L 500.711968 286.154157 
L 510.73227 286.159314 
L 520.752572 286.164444 
L 530.772874 286.169945 
L 540.793176 286.175317 
L 550.813479 286.180955 
L 560.833781 286.186359 
L 570.854083 286.191922 
L 580.874385 286.197145 
L 590.894687 286.202424 
L 600.914989 286.207261 
L 610.935291 286.212057 
L 620.955593 286.216319 
L 630.975895 286.220452 
L 640.996197 286.223969 
L 651.016499 286.227284 
L 661.036801 286.229918 
L 671.057103 286.232293 
L 681.077406 286.233938 
L 691.097708 286.235285 
L 701.11801 286.235874 
L 711.138312 286.236145 
" style="fill: none; stroke-dasharray: 14.8,6.4; stroke-dashoffset: 0; stroke: #1e90ff; stroke-width: 4"/>
   </g>
   <g id="line2d_16">
    <path d="M 69.838979 374.645953 
L 79.859281 374.224665 
L 89.879583 373.666363 
L 99.899885 372.698291 
L 109.920187 371.520386 
L 119.940489 369.897142 
L 129.960791 367.948877 
L 139.981094 365.479543 
L 150.001396 362.541013 
L 160.021698 358.974689 
L 170.042 354.782591 
L 180.062302 349.841501 
L 190.082604 344.127311 
L 200.102906 337.55377 
L 210.123208 330.097043 
L 220.14351 321.714809 
L 230.163812 312.409922 
L 240.184114 302.195255 
L 250.204416 291.123644 
L 260.224718 279.274918 
L 270.245021 266.768243 
L 280.265323 253.757148 
L 290.285625 240.432302 
L 300.305927 227.017023 
L 310.326229 213.763968 
L 320.346531 200.947824 
L 330.366833 188.857734 
L 340.387135 177.786476 
L 350.407437 168.020598 
L 360.427739 159.826915 
L 370.448041 153.443345 
L 380.468343 149.064128 
L 390.488645 146.83548 
L 400.508947 146.840375 
L 410.52925 149.104105 
L 420.549552 153.577375 
L 430.569854 160.157787 
L 440.590156 168.666289 
L 450.610458 178.891966 
L 460.63076 190.551663 
L 470.651062 203.367979 
L 480.671364 216.995568 
L 490.691666 231.146523 
L 500.711968 245.460077 
L 510.73227 259.695641 
L 520.752572 273.516336 
L 530.772874 286.77689 
L 540.793176 299.186863 
L 550.813479 310.726374 
L 560.833781 321.153691 
L 570.854083 330.583564 
L 580.874385 338.807895 
L 590.894687 346.066342 
L 600.914989 352.15987 
L 610.935291 357.429282 
L 620.955593 361.660217 
L 630.975895 365.262617 
L 640.996197 367.990831 
L 651.016499 370.288782 
L 661.036801 371.876365 
L 671.057103 373.196999 
L 681.077406 373.945427 
L 691.097708 374.5336 
L 701.11801 374.648653 
L 711.138312 374.645953 
" style="fill: none; stroke: #e21a1a; stroke-width: 4; stroke-linecap: square"/>
   </g>
   <g id="line2d_17">
    <path d="M 69.838979 350.986159 
L 79.859281 350.669626 
L 89.879583 349.881339 
L 99.899885 348.512135 
L 109.920187 346.670956 
L 119.940489 344.255016 
L 129.960791 341.374813 
L 139.981094 337.937739 
L 150.001396 334.05633 
L 160.021698 329.652135 
L 170.042 324.840657 
L 180.062302 319.561208 
L 190.082604 313.933191 
L 200.102906 307.916323 
L 210.123208 301.634366 
L 220.14351 295.068605 
L 230.163812 288.3467 
L 240.184114 281.470809 
L 250.204416 274.570813 
L 260.224718 267.667019 
L 270.245021 260.888546 
L 280.265323 254.269204 
L 290.285625 247.9332 
L 300.305927 241.921661 
L 310.326229 236.348957 
L 320.346531 231.256418 
L 330.366833 226.743477 
L 340.387135 222.844385 
L 350.407437 219.639063 
L 360.427739 217.148055 
L 370.448041 215.428411 
L 380.468343 214.481723 
L 390.488645 214.340605 
L 400.508947 214.984374 
L 410.52925 216.42179 
L 420.549552 218.608752 
L 430.569854 221.532952 
L 440.590156 225.127877 
L 450.610458 229.3649 
L 460.63076 234.157903 
L 470.651062 239.468163 
L 480.671364 245.194019 
L 490.691666 251.293648 
L 500.711968 257.654498 
L 510.73227 264.238659 
L 520.752572 270.92725 
L 530.772874 277.692576 
L 540.793176 284.413328 
L 550.813479 291.077026 
L 560.833781 297.562783 
L 570.854083 303.87664 
L 580.874385 309.899767 
L 590.894687 315.658186 
L 600.914989 321.035602 
L 610.935291 326.077716 
L 620.955593 330.670351 
L 630.975895 334.877107 
L 640.996197 338.584994 
L 651.016499 341.872683 
L 661.036801 344.627394 
L 671.057103 346.939495 
L 681.077406 348.69583 
L 691.097708 349.995065 
L 701.11801 350.723847 
L 711.138312 350.986159 
" style="fill: none; stroke-dasharray: 14.8,6.4; stroke-dashoffset: 0; stroke: #00a650; stroke-width: 4"/>
   </g>
   <g id="patch_3">
    <path d="M 57.838979 377.757661 
L 57.838979 12.410415 
" style="fill: none; stroke: #5a5758; stroke-width: 0.8; stroke-linejoin: miter; stroke-linecap: square"/>
   </g>
   <g id="patch_4">
    <path d="M 69.838979 389.757661 
L 711.138312 389.757661 
" style="fill: none; stroke: #5a5758; stroke-width: 0.8; stroke-linejoin: miter; stroke-linecap: square"/>
   </g>
   <g id="legend_1">
    <g id="line2d_18">
     <path d="M 465.298312 29.910415 
L 479.298312 29.910415 
L 493.298312 29.910415 
" style="fill: none; stroke: #808080; stroke-opacity: 0.7; stroke-width: 4; stroke-linecap: square"/>
     <g>
      <use xlink:href="#m481f532643" x="479.298312" y="29.910415" style="fill: #808080; fill-opacity: 0.7; stroke: #ffffff; stroke-opacity: 0.7"/>
     </g>
    </g>
    <g id="text_14">
     <!-- Initial condition -->
     <g style="fill: #808080" transform="translate(504.498312 34.810415) scale(0.14 -0.14)">
      <defs>
       <path id="CMUBright-Roman-49" d="M 627 0 
L 627 4448 
L 1075 4448 
L 1075 0 
L 627 0 
z
" transform="scale(0.015625)"/>
       <path id="CMUBright-Roman-6e" d="M 512 0 
L 512 3021 
L 909 3021 
L 909 2400 
Q 1030 2682 1273 2877 
Q 1517 3072 1869 3072 
Q 2125 3072 2307 2992 
Q 2490 2912 2579 2809 
Q 2669 2707 2720 2540 
Q 2771 2374 2777 2272 
Q 2784 2170 2784 2016 
L 2784 0 
L 2374 0 
L 2374 1990 
Q 2374 2106 2371 2176 
Q 2368 2246 2329 2368 
Q 2291 2490 2220 2563 
Q 2150 2637 2006 2694 
Q 1862 2752 1658 2752 
Q 1370 2752 1149 2518 
Q 928 2285 928 1677 
L 928 0 
L 512 0 
z
" transform="scale(0.015625)"/>
       <path id="CMUBright-Roman-69" d="M 509 4019 
L 509 4422 
L 912 4422 
L 912 4019 
L 509 4019 
z
M 512 0 
L 512 3021 
L 915 3021 
L 915 0 
L 512 0 
z
" transform="scale(0.015625)"/>
       <path id="CMUBright-Roman-74" d="M 122 2701 
L 122 3021 
L 736 3021 
L 736 3885 
L 1126 3885 
L 1126 3021 
L 2118 3021 
L 2118 2701 
L 1126 2701 
L 1126 883 
Q 1126 282 1491 282 
Q 1568 282 1638 291 
Q 1709 301 1769 323 
Q 1830 346 1878 365 
Q 1926 384 1974 416 
Q 2022 448 2048 464 
Q 2074 480 2109 512 
Q 2144 544 2150 544 
L 2234 230 
Q 1779 -51 1261 -51 
Q 730 -51 730 838 
L 730 2701 
L 122 2701 
z
" transform="scale(0.015625)"/>
       <path id="CMUBright-Roman-61" d="M 352 736 
Q 352 896 435 1046 
Q 518 1197 707 1347 
Q 896 1498 1283 1590 
Q 1670 1683 2214 1696 
L 2214 1965 
Q 2214 2381 2042 2579 
Q 1856 2803 1568 2803 
Q 1331 2803 1107 2736 
Q 883 2669 809 2624 
Q 736 2579 557 2470 
L 525 2829 
Q 1043 3104 1574 3104 
Q 2054 3104 2326 2806 
Q 2598 2509 2624 2144 
L 2630 1926 
L 2630 0 
L 2227 0 
L 2227 442 
Q 1830 -51 1107 -51 
L 1062 -51 
Q 710 -51 531 205 
Q 352 461 352 736 
z
M 749 749 
Q 749 518 950 393 
Q 1152 269 1408 269 
Q 1523 269 1644 297 
Q 1766 326 1904 390 
Q 2042 454 2128 595 
Q 2214 736 2214 928 
L 2214 1498 
Q 1568 1491 1158 1286 
Q 749 1082 749 749 
z
" transform="scale(0.015625)"/>
       <path id="CMUBright-Roman-6c" d="M 512 0 
L 512 4448 
L 915 4448 
L 915 0 
L 512 0 
z
" transform="scale(0.015625)"/>
       <path id="CMUBright-Roman-20" transform="scale(0.015625)"/>
       <path id="CMUBright-Roman-63" d="M 294 1517 
Q 294 2157 691 2630 
Q 1088 3104 1709 3104 
Q 2042 3104 2250 3046 
Q 2458 2989 2758 2829 
L 2694 2477 
Q 2502 2592 2403 2640 
Q 2304 2688 2125 2729 
Q 1946 2771 1709 2771 
Q 1254 2771 982 2432 
Q 710 2093 710 1523 
Q 717 915 1008 598 
Q 1299 282 1696 282 
Q 1958 282 2192 365 
Q 2426 448 2525 518 
Q 2624 589 2765 710 
L 2797 352 
Q 2304 -51 1690 -51 
Q 1107 -51 700 403 
Q 294 858 294 1517 
z
" transform="scale(0.015625)"/>
       <path id="CMUBright-Roman-6f" d="M 256 1510 
Q 256 2182 675 2640 
Q 1094 3098 1677 3098 
Q 2272 3098 2681 2627 
Q 3091 2157 3091 1510 
Q 3091 838 2668 393 
Q 2246 -51 1677 -51 
Q 1088 -51 672 406 
Q 256 864 256 1510 
z
M 666 1587 
Q 666 1190 771 915 
Q 877 640 1046 512 
Q 1216 384 1369 333 
Q 1523 282 1677 282 
Q 1843 282 2006 342 
Q 2170 403 2330 537 
Q 2490 672 2586 937 
Q 2682 1203 2682 1568 
Q 2682 1914 2586 2163 
Q 2490 2413 2330 2541 
Q 2170 2669 2006 2723 
Q 1843 2778 1676 2778 
Q 1510 2778 1347 2723 
Q 1184 2669 1024 2544 
Q 864 2419 765 2172 
Q 666 1926 666 1587 
z
" transform="scale(0.015625)"/>
       <path id="CMUBright-Roman-64" d="M 294 1510 
Q 294 2189 659 2630 
Q 1024 3072 1504 3072 
Q 2016 3072 2381 2624 
L 2381 4448 
L 2784 4448 
L 2784 0 
L 2374 0 
L 2374 269 
L 2368 467 
Q 2016 -51 1459 -51 
Q 966 -51 630 413 
Q 294 877 294 1510 
z
M 710 1510 
Q 710 1139 809 876 
Q 909 614 1065 492 
Q 1222 371 1369 320 
Q 1517 269 1664 269 
Q 2022 269 2259 582 
Q 2278 614 2304 652 
Q 2330 691 2339 707 
Q 2349 723 2358 752 
Q 2368 781 2371 816 
Q 2374 851 2374 902 
L 2374 2253 
Q 2374 2438 2179 2595 
Q 1984 2752 1722 2752 
Q 1619 2752 1504 2726 
Q 1389 2701 1241 2621 
Q 1094 2541 982 2413 
Q 870 2285 790 2048 
Q 710 1811 710 1510 
z
" transform="scale(0.015625)"/>
      </defs>
      <use xlink:href="#CMUBright-Roman-49"/>
      <use xlink:href="#CMUBright-Roman-6e" x="26.699997"/>
      <use xlink:href="#CMUBright-Roman-69" x="78.399994"/>
      <use xlink:href="#CMUBright-Roman-74" x="100.899979"/>
      <use xlink:href="#CMUBright-Roman-69" x="138.799973"/>
      <use xlink:href="#CMUBright-Roman-61" x="161.299957"/>
      <use xlink:href="#CMUBright-Roman-6c" x="210.499954"/>
      <use xlink:href="#CMUBright-Roman-20" x="232.999939"/>
      <use xlink:href="#CMUBright-Roman-63" x="266.299927"/>
      <use xlink:href="#CMUBright-Roman-6f" x="312.999924"/>
      <use xlink:href="#CMUBright-Roman-6e" x="365.499908"/>
      <use xlink:href="#CMUBright-Roman-64" x="417.199905"/>
      <use xlink:href="#CMUBright-Roman-69" x="468.899902"/>
      <use xlink:href="#CMUBright-Roman-74" x="491.399887"/>
      <use xlink:href="#CMUBright-Roman-69" x="529.299881"/>
      <use xlink:href="#CMUBright-Roman-6f" x="551.799866"/>
      <use xlink:href="#CMUBright-Roman-6e" x="604.29985"/>
     </g>
    </g>
    <g id="line2d_19">
     <path d="M 465.298312 49.048852 
L 479.298312 49.048852 
L 493.298312 49.048852 
" style="fill: none; stroke: #e29400; stroke-width: 4; stroke-linecap: square"/>
    </g>
    <g id="text_15">
     <!-- FE, Pe = 10, $\Delta t = 1.22e-03$ -->
     <g style="fill: #e29400" transform="translate(504.498312 53.948852) scale(0.14 -0.14)">
      <defs>
       <path id="CMUBright-Roman-46" d="M 627 0 
L 627 4435 
L 3533 4435 
L 3533 4096 
L 1075 4096 
L 1075 2387 
L 3251 2387 
L 3251 2048 
L 1075 2048 
L 1075 0 
L 627 0 
z
" transform="scale(0.015625)"/>
       <path id="CMUBright-Roman-45" d="M 627 0 
L 627 4435 
L 3622 4435 
L 3622 4096 
L 1075 4096 
L 1075 2477 
L 3437 2477 
L 3437 2138 
L 1075 2138 
L 1075 358 
L 3718 358 
L 3718 0 
L 627 0 
z
" transform="scale(0.015625)"/>
       <path id="CMUBright-Roman-2c" d="M 678 0 
L 678 499 
L 1184 499 
L 1184 186 
L 1178 0 
L 934 -710 
L 678 -710 
L 832 0 
L 678 0 
z
" transform="scale(0.015625)"/>
       <path id="CMUBright-Roman-50" d="M 627 0 
L 627 4448 
L 2150 4448 
Q 2739 4448 3155 4218 
Q 3475 4038 3654 3756 
Q 3834 3475 3834 3162 
Q 3834 2957 3741 2745 
Q 3648 2534 3462 2336 
Q 3277 2138 2937 2013 
Q 2598 1888 2163 1888 
L 1075 1888 
L 1075 0 
L 627 0 
z
M 1069 2221 
L 2080 2221 
Q 2477 2221 2758 2310 
Q 3040 2400 3171 2553 
Q 3302 2707 3356 2851 
Q 3411 2995 3411 3162 
Q 3411 3322 3356 3469 
Q 3302 3616 3168 3769 
Q 3034 3923 2755 4012 
Q 2477 4102 2080 4102 
L 1069 4102 
L 1069 2221 
z
" transform="scale(0.015625)"/>
       <path id="CMUBright-Roman-65" d="M 269 1536 
Q 269 2163 646 2630 
Q 1024 3098 1587 3098 
Q 1786 3098 1968 3037 
Q 2150 2976 2342 2829 
Q 2534 2682 2652 2365 
Q 2771 2048 2771 1600 
L 653 1600 
L 653 1549 
Q 653 966 966 617 
Q 1280 269 1690 269 
Q 2234 269 2726 710 
L 2758 358 
Q 2266 -51 1690 -51 
Q 1101 -51 685 406 
Q 269 864 269 1536 
z
M 685 1856 
L 2426 1856 
Q 2381 2342 2134 2560 
Q 1888 2778 1587 2778 
Q 1261 2778 1008 2515 
Q 755 2253 685 1856 
z
" transform="scale(0.015625)"/>
       <path id="CMUBright-Roman-3d" d="M 378 1062 
Q 378 1229 576 1229 
L 3533 1229 
Q 3725 1222 3725 1062 
Q 3725 909 3514 909 
L 589 909 
Q 378 909 378 1062 
z
M 378 2304 
Q 378 2470 582 2470 
L 3533 2470 
Q 3725 2464 3725 2304 
Q 3725 2150 3514 2150 
L 589 2150 
Q 378 2150 378 2304 
z
" transform="scale(0.015625)"/>
       <path id="CMUBright-Roman-394" d="M 275 0 
L 2541 4499 
L 3046 4499 
L 5312 0 
L 275 0 
z
M 922 422 
L 4595 422 
L 2765 4064 
L 2758 4064 
L 922 422 
z
" transform="scale(0.015625)"/>
       <path id="CMUBright-Roman-2212" d="M 378 1690 
Q 378 1856 602 1856 
L 3526 1856 
Q 3725 1850 3725 1690 
Q 3725 1530 3520 1530 
L 582 1530 
Q 378 1530 378 1690 
z
" transform="scale(0.015625)"/>
       <path id="CMUBright-Roman-33" d="M 282 653 
Q 282 666 285 685 
Q 288 704 304 774 
Q 320 845 339 941 
Q 557 640 861 464 
Q 1165 288 1341 256 
Q 1517 224 1683 224 
Q 2112 224 2368 486 
Q 2624 749 2624 1165 
Q 2624 1574 2381 1824 
Q 2138 2074 1773 2099 
L 1555 2106 
L 1114 2106 
L 1114 2426 
Q 1709 2470 1862 2528 
Q 2099 2618 2281 2838 
Q 2464 3059 2464 3360 
Q 2464 3642 2256 3811 
Q 2048 3981 1702 3981 
Q 973 3981 570 3258 
L 371 3539 
Q 845 4301 1702 4301 
Q 2202 4301 2544 4025 
Q 2886 3750 2886 3360 
Q 2886 3059 2704 2761 
Q 2522 2464 2106 2272 
Q 2579 2144 2825 1833 
Q 3072 1523 3072 1158 
Q 3072 666 2685 278 
Q 2298 -109 1690 -109 
Q 1402 -109 1126 -9 
Q 851 90 675 221 
Q 499 352 390 473 
Q 282 595 282 653 
z
" transform="scale(0.015625)"/>
      </defs>
      <use xlink:href="#CMUBright-Roman-46" transform="translate(0 0.703125)"/>
      <use xlink:href="#CMUBright-Roman-45" transform="translate(59.599991 0.703125)"/>
      <use xlink:href="#CMUBright-Roman-2c" transform="translate(122.099976 0.703125)"/>
      <use xlink:href="#CMUBright-Roman-20" transform="translate(151.299973 0.703125)"/>
      <use xlink:href="#CMUBright-Roman-50" transform="translate(184.59996 0.703125)"/>
      <use xlink:href="#CMUBright-Roman-65" transform="translate(250.399948 0.703125)"/>
      <use xlink:href="#CMUBright-Roman-20" transform="translate(297.099945 0.703125)"/>
      <use xlink:href="#CMUBright-Roman-3d" transform="translate(330.399933 0.703125)"/>
      <use xlink:href="#CMUBright-Roman-20" transform="translate(394.59993 0.703125)"/>
      <use xlink:href="#CMUBright-Roman-31" transform="translate(427.899918 0.703125)"/>
      <use xlink:href="#CMUBright-Roman-30" transform="translate(480.399902 0.703125)"/>
      <use xlink:href="#CMUBright-Roman-2c" transform="translate(532.899887 0.703125)"/>
      <use xlink:href="#CMUBright-Roman-20" transform="translate(562.099884 0.703125)"/>
      <use xlink:href="#CMUBright-Roman-394" transform="translate(595.399872 0.703125)"/>
      <use xlink:href="#CMUBright-Roman-74" transform="translate(682.899857 0.703125)"/>
      <use xlink:href="#CMUBright-Roman-3d" transform="translate(740.282272 0.703125)"/>
      <use xlink:href="#CMUBright-Roman-31" transform="translate(823.964691 0.703125)"/>
      <use xlink:href="#CMUBright-Roman-2e" transform="translate(876.464676 0.703125)"/>
      <use xlink:href="#CMUBright-Roman-32" transform="translate(905.664673 0.703125)"/>
      <use xlink:href="#CMUBright-Roman-32" transform="translate(958.164658 0.703125)"/>
      <use xlink:href="#CMUBright-Roman-65" transform="translate(1010.664642 0.703125)"/>
      <use xlink:href="#CMUBright-Roman-2212" transform="translate(1076.847061 0.703125)"/>
      <use xlink:href="#CMUBright-Roman-30" transform="translate(1160.52948 0.703125)"/>
      <use xlink:href="#CMUBright-Roman-33" transform="translate(1213.029465 0.703125)"/>
     </g>
    </g>
    <g id="line2d_20">
     <path d="M 465.298312 68.18729 
L 479.298312 68.18729 
L 493.298312 68.18729 
" style="fill: none; stroke-dasharray: 14.8,6.4; stroke-dashoffset: 0; stroke: #1e90ff; stroke-width: 4"/>
    </g>
    <g id="text_16">
     <!-- RK4, Pe = 10, $\Delta t = 1.70e-03$ -->
     <g style="fill: #1e90ff" transform="translate(504.498312 73.08729) scale(0.14 -0.14)">
      <defs>
       <path id="CMUBright-Roman-52" d="M 627 0 
L 627 4448 
L 2099 4448 
Q 2579 4448 2947 4329 
Q 3315 4211 3513 4022 
Q 3712 3834 3811 3635 
Q 3910 3437 3910 3245 
Q 3910 2925 3692 2669 
Q 3475 2413 3209 2285 
Q 2944 2157 2675 2112 
L 4102 0 
L 3654 0 
L 2272 2061 
L 1069 2061 
L 1069 0 
L 627 0 
z
M 1069 2387 
L 2080 2387 
Q 2797 2387 3155 2630 
Q 3494 2861 3494 3245 
Q 3494 3552 3225 3805 
Q 2957 4058 2349 4096 
Q 2259 4102 2074 4102 
L 1069 4102 
L 1069 2387 
z
" transform="scale(0.015625)"/>
       <path id="CMUBright-Roman-4b" d="M 640 0 
L 640 4448 
L 1062 4448 
L 1062 1952 
L 3610 4448 
L 4128 4448 
L 2336 2688 
L 4224 0 
L 3738 0 
L 2048 2400 
L 1062 1434 
L 1062 0 
L 640 0 
z
" transform="scale(0.015625)"/>
       <path id="CMUBright-Roman-37" d="M 275 3840 
L 275 4192 
L 3072 4192 
L 3072 3853 
Q 2400 3149 1958 2147 
Q 1517 1146 1517 -51 
L 1088 -51 
Q 1088 1030 1523 2048 
Q 1958 3066 2797 3840 
L 275 3840 
z
" transform="scale(0.015625)"/>
      </defs>
      <use xlink:href="#CMUBright-Roman-52" transform="translate(0 0.703125)"/>
      <use xlink:href="#CMUBright-Roman-4b" transform="translate(67.099991 0.703125)"/>
      <use xlink:href="#CMUBright-Roman-34" transform="translate(137.499985 0.703125)"/>
      <use xlink:href="#CMUBright-Roman-2c" transform="translate(189.999969 0.703125)"/>
      <use xlink:href="#CMUBright-Roman-20" transform="translate(219.199966 0.703125)"/>
      <use xlink:href="#CMUBright-Roman-50" transform="translate(252.499954 0.703125)"/>
      <use xlink:href="#CMUBright-Roman-65" transform="translate(318.299942 0.703125)"/>
      <use xlink:href="#CMUBright-Roman-20" transform="translate(364.999939 0.703125)"/>
      <use xlink:href="#CMUBright-Roman-3d" transform="translate(398.299927 0.703125)"/>
      <use xlink:href="#CMUBright-Roman-20" transform="translate(462.499924 0.703125)"/>
      <use xlink:href="#CMUBright-Roman-31" transform="translate(495.799911 0.703125)"/>
      <use xlink:href="#CMUBright-Roman-30" transform="translate(548.299896 0.703125)"/>
      <use xlink:href="#CMUBright-Roman-2c" transform="translate(600.799881 0.703125)"/>
      <use xlink:href="#CMUBright-Roman-20" transform="translate(629.999878 0.703125)"/>
      <use xlink:href="#CMUBright-Roman-394" transform="translate(663.299866 0.703125)"/>
      <use xlink:href="#CMUBright-Roman-74" transform="translate(750.79985 0.703125)"/>
      <use xlink:href="#CMUBright-Roman-3d" transform="translate(808.182266 0.703125)"/>
      <use xlink:href="#CMUBright-Roman-31" transform="translate(891.864685 0.703125)"/>
      <use xlink:href="#CMUBright-Roman-2e" transform="translate(944.36467 0.703125)"/>
      <use xlink:href="#CMUBright-Roman-37" transform="translate(973.564667 0.703125)"/>
      <use xlink:href="#CMUBright-Roman-30" transform="translate(1026.064651 0.703125)"/>
      <use xlink:href="#CMUBright-Roman-65" transform="translate(1078.564636 0.703125)"/>
      <use xlink:href="#CMUBright-Roman-2212" transform="translate(1144.747055 0.703125)"/>
      <use xlink:href="#CMUBright-Roman-30" transform="translate(1228.429474 0.703125)"/>
      <use xlink:href="#CMUBright-Roman-33" transform="translate(1280.929459 0.703125)"/>
     </g>
    </g>
    <g id="line2d_21">
     <path d="M 465.298312 87.325727 
L 479.298312 87.325727 
L 493.298312 87.325727 
" style="fill: none; stroke: #e21a1a; stroke-width: 4; stroke-linecap: square"/>
    </g>
    <g id="text_17">
     <!-- FE, Pe = 100, $\Delta t = 1.25e-02$ -->
     <g style="fill: #e21a1a" transform="translate(504.498312 92.225727) scale(0.14 -0.14)">
      <defs>
       <path id="CMUBright-Roman-35" d="M 301 518 
L 486 819 
Q 896 224 1581 224 
Q 1971 224 2268 473 
Q 2566 723 2566 1312 
Q 2566 1626 2489 1846 
Q 2413 2067 2285 2176 
Q 2157 2285 2032 2329 
Q 1907 2374 1773 2374 
Q 1210 2374 941 1901 
L 582 1901 
L 582 4192 
L 2797 4192 
L 2797 3853 
L 973 3853 
L 973 2381 
Q 1325 2701 1779 2701 
Q 2285 2701 2653 2291 
Q 3021 1882 3021 1306 
Q 3021 723 2601 307 
Q 2182 -109 1574 -109 
Q 813 -109 301 518 
z
" transform="scale(0.015625)"/>
      </defs>
      <use xlink:href="#CMUBright-Roman-46" transform="translate(0 0.703125)"/>
      <use xlink:href="#CMUBright-Roman-45" transform="translate(59.599991 0.703125)"/>
      <use xlink:href="#CMUBright-Roman-2c" transform="translate(122.099976 0.703125)"/>
      <use xlink:href="#CMUBright-Roman-20" transform="translate(151.299973 0.703125)"/>
      <use xlink:href="#CMUBright-Roman-50" transform="translate(184.59996 0.703125)"/>
      <use xlink:href="#CMUBright-Roman-65" transform="translate(250.399948 0.703125)"/>
      <use xlink:href="#CMUBright-Roman-20" transform="translate(297.099945 0.703125)"/>
      <use xlink:href="#CMUBright-Roman-3d" transform="translate(330.399933 0.703125)"/>
      <use xlink:href="#CMUBright-Roman-20" transform="translate(394.59993 0.703125)"/>
      <use xlink:href="#CMUBright-Roman-31" transform="translate(427.899918 0.703125)"/>
      <use xlink:href="#CMUBright-Roman-30" transform="translate(480.399902 0.703125)"/>
      <use xlink:href="#CMUBright-Roman-30" transform="translate(532.899887 0.703125)"/>
      <use xlink:href="#CMUBright-Roman-2c" transform="translate(585.399872 0.703125)"/>
      <use xlink:href="#CMUBright-Roman-20" transform="translate(614.599869 0.703125)"/>
      <use xlink:href="#CMUBright-Roman-394" transform="translate(647.899857 0.703125)"/>
      <use xlink:href="#CMUBright-Roman-74" transform="translate(735.399841 0.703125)"/>
      <use xlink:href="#CMUBright-Roman-3d" transform="translate(792.782257 0.703125)"/>
      <use xlink:href="#CMUBright-Roman-31" transform="translate(876.464676 0.703125)"/>
      <use xlink:href="#CMUBright-Roman-2e" transform="translate(928.964661 0.703125)"/>
      <use xlink:href="#CMUBright-Roman-32" transform="translate(958.164658 0.703125)"/>
      <use xlink:href="#CMUBright-Roman-35" transform="translate(1010.664642 0.703125)"/>
      <use xlink:href="#CMUBright-Roman-65" transform="translate(1063.164627 0.703125)"/>
      <use xlink:href="#CMUBright-Roman-2212" transform="translate(1129.347046 0.703125)"/>
      <use xlink:href="#CMUBright-Roman-30" transform="translate(1213.029465 0.703125)"/>
      <use xlink:href="#CMUBright-Roman-32" transform="translate(1265.529449 0.703125)"/>
     </g>
    </g>
    <g id="line2d_22">
     <path d="M 465.298312 106.464165 
L 479.298312 106.464165 
L 493.298312 106.464165 
" style="fill: none; stroke-dasharray: 14.8,6.4; stroke-dashoffset: 0; stroke: #00a650; stroke-width: 4"/>
    </g>
    <g id="text_18">
     <!-- RK4, Pe = 100, $\Delta t = 1.72e-02$ -->
     <g style="fill: #00a650" transform="translate(504.498312 111.364165) scale(0.14 -0.14)">
      <use xlink:href="#CMUBright-Roman-52" transform="translate(0 0.703125)"/>
      <use xlink:href="#CMUBright-Roman-4b" transform="translate(67.099991 0.703125)"/>
      <use xlink:href="#CMUBright-Roman-34" transform="translate(137.499985 0.703125)"/>
      <use xlink:href="#CMUBright-Roman-2c" transform="translate(189.999969 0.703125)"/>
      <use xlink:href="#CMUBright-Roman-20" transform="translate(219.199966 0.703125)"/>
      <use xlink:href="#CMUBright-Roman-50" transform="translate(252.499954 0.703125)"/>
      <use xlink:href="#CMUBright-Roman-65" transform="translate(318.299942 0.703125)"/>
      <use xlink:href="#CMUBright-Roman-20" transform="translate(364.999939 0.703125)"/>
      <use xlink:href="#CMUBright-Roman-3d" transform="translate(398.299927 0.703125)"/>
      <use xlink:href="#CMUBright-Roman-20" transform="translate(462.499924 0.703125)"/>
      <use xlink:href="#CMUBright-Roman-31" transform="translate(495.799911 0.703125)"/>
      <use xlink:href="#CMUBright-Roman-30" transform="translate(548.299896 0.703125)"/>
      <use xlink:href="#CMUBright-Roman-30" transform="translate(600.799881 0.703125)"/>
      <use xlink:href="#CMUBright-Roman-2c" transform="translate(653.299866 0.703125)"/>
      <use xlink:href="#CMUBright-Roman-20" transform="translate(682.499863 0.703125)"/>
      <use xlink:href="#CMUBright-Roman-394" transform="translate(715.79985 0.703125)"/>
      <use xlink:href="#CMUBright-Roman-74" transform="translate(803.299835 0.703125)"/>
      <use xlink:href="#CMUBright-Roman-3d" transform="translate(860.682251 0.703125)"/>
      <use xlink:href="#CMUBright-Roman-31" transform="translate(944.36467 0.703125)"/>
      <use xlink:href="#CMUBright-Roman-2e" transform="translate(996.864655 0.703125)"/>
      <use xlink:href="#CMUBright-Roman-37" transform="translate(1026.064651 0.703125)"/>
      <use xlink:href="#CMUBright-Roman-32" transform="translate(1078.564636 0.703125)"/>
      <use xlink:href="#CMUBright-Roman-65" transform="translate(1131.064621 0.703125)"/>
      <use xlink:href="#CMUBright-Roman-2212" transform="translate(1197.24704 0.703125)"/>
      <use xlink:href="#CMUBright-Roman-30" transform="translate(1280.929459 0.703125)"/>
      <use xlink:href="#CMUBright-Roman-32" transform="translate(1333.429443 0.703125)"/>
     </g>
    </g>
   </g>
  </g>
 </g>
 <defs>
  <clipPath id="p0f7bf8eba0">
   <rect x="69.838979" y="12.410415" width="641.299333" height="365.347246"/>
  </clipPath>
 </defs>
</svg>