<?xml version="1.0" encoding="utf-8" standalone="no"?>
<!DOCTYPE svg PUBLIC "-//W3C//DTD SVG 1.1//EN"
  "http://www.w3.org/Graphics/SVG/1.1/DTD/svg11.dtd">
<svg xmlns:xlink="http://www.w3.org/1999/xlink" width="469.19952pt" height="353.99952pt" viewBox="0 0 469.19952 353.99952" xmlns="http://www.w3.org/2000/svg" version="1.1">
 <metadata>
  <rdf:RDF xmlns:dc="http://purl.org/dc/elements/1.1/" xmlns:cc="http://creativecommons.org/ns#" xmlns:rdf="http://www.w3.org/1999/02/22-rdf-syntax-ns#">
   <cc:Work>
    <dc:type rdf:resource="http://purl.org/dc/dcmitype/StillImage"/>
    <dc:date>2023-11-14T22:26:32.895867</dc:date>
    <dc:format>image/svg+xml</dc:format>
    <dc:creator>
     <cc:Agent>
      <dc:title>Matplotlib v3.8.1, https://matplotlib.org/</dc:title>
     </cc:Agent>
    </dc:creator>
   </cc:Work>
  </rdf:RDF>
 </metadata>
 <defs>
  <style type="text/css">*{stroke-linejoin: round; stroke-linecap: butt}</style>
 </defs>
 <g id="figure_1">
  <g id="patch_1">
   <path d="M 0 353.99952 
L 469.19952 353.99952 
L 469.19952 0 
L 0 0 
z
" style="fill: #ffffff"/>
  </g>
  <g id="axes_1">
   <g id="patch_2">
    <path d="M 64.95975 289.234223 
L 451.938312 289.234223 
L 451.938312 12.410415 
L 64.95975 12.410415 
z
" style="fill: #ffffff"/>
   </g>
   <g id="line2d_1">
    <path d="M 355.193671 289.234223 
L 355.193671 12.410415 
" clip-path="url(#pbfccbeb5f6)" style="fill: none; stroke-dasharray: 7.4,3.2; stroke-dashoffset: 0; stroke: #808080; stroke-width: 2"/>
   </g>
   <g id="QuadContourSet_1">
    <path d="M 238.030564 229.531085 
L 237.117666 229.418024 
L 236.085948 229.287076 
L 234.141332 229.01776 
L 232.196716 228.725344 
L 230.2521 228.409762 
L 228.307485 228.070968 
L 228.069899 228.026949 
L 226.362869 227.701315 
L 224.418253 227.306467 
L 222.473637 226.887473 
L 221.366457 226.635875 
L 220.529021 226.43925 
L 218.584405 225.95929 
L 216.639789 225.454334 
L 215.867558 225.2448 
L 214.695173 224.914971 
L 212.750557 224.343581 
L 211.152841 223.853726 
L 210.805942 223.743118 
L 208.861326 223.100254 
L 207.007394 222.462652 
L 206.91671 222.430122 
L 204.972094 221.710404 
L 203.305582 221.071577 
L 203.027478 220.960076 
L 201.082862 220.158001 
L 199.958929 219.680503 
L 199.138246 219.314897 
L 197.19363 218.425122 
L 196.903964 218.289428 
L 195.249014 217.47467 
L 194.105543 216.898354 
L 193.304399 216.472967 
L 191.523286 215.507279 
L 191.359783 215.413666 
L 189.415167 214.280303 
L 189.138364 214.116205 
L 187.470551 213.070625 
L 186.927746 212.725131 
L 185.525935 211.779724 
L 184.873703 211.334056 
L 183.581319 210.396671 
L 182.962741 209.942982 
L 181.636703 208.908934 
L 181.183127 208.551907 
L 179.692087 207.302302 
L 179.524588 207.160833 
L 177.980108 205.769759 
L 177.747472 205.545733 
L 176.54183 204.378684 
L 175.802856 203.613474 
L 175.20087 202.98761 
L 173.951309 201.596535 
L 173.85824 201.485062 
L 172.792161 200.205461 
L 171.913624 199.073976 
L 171.712353 198.814387 
L 170.71304 197.423312 
L 169.969008 196.308184 
L 169.784943 196.032238 
L 168.929658 194.641163 
L 168.137446 193.250089 
L 168.024392 193.033267 
L 167.41166 191.859014 
L 166.744237 190.46794 
L 166.131383 189.076866 
L 166.079776 188.947456 
L 165.576213 187.685791 
L 165.070906 186.294717 
L 164.612412 184.903642 
L 164.198278 183.512568 
L 164.13516 183.274124 
L 163.830102 182.121494 
L 163.502084 180.730419 
L 163.211043 179.339345 
L 162.954595 177.94827 
L 162.730368 176.557196 
L 162.535998 175.166121 
L 162.369127 173.775047 
L 162.227414 172.383973 
L 162.190544 171.949167 
L 162.109892 170.992898 
L 162.013256 169.601824 
L 161.934663 168.210749 
L 161.871923 166.819675 
L 161.822918 165.428601 
L 161.785616 164.037526 
L 161.758092 162.646452 
L 161.738547 161.255377 
L 161.725321 159.864303 
L 161.716916 158.473228 
L 161.712011 157.082154 
L 161.70948 155.69108 
L 161.708403 154.300005 
L 161.708079 152.908931 
L 161.708036 151.517856 
L 161.708036 150.126782 
L 161.708079 148.735708 
L 161.708403 147.344633 
L 161.70948 145.953559 
L 161.712011 144.562484 
L 161.716916 143.17141 
L 161.725321 141.780336 
L 161.738547 140.389261 
L 161.758092 138.998187 
L 161.785616 137.607112 
L 161.822918 136.216038 
L 161.871923 134.824963 
L 161.934663 133.433889 
L 162.013256 132.042815 
L 162.109892 130.65174 
L 162.190544 129.695472 
L 162.227414 129.260666 
L 162.369127 127.869591 
L 162.535998 126.478517 
L 162.730368 125.087443 
L 162.954595 123.696368 
L 163.211043 122.305294 
L 163.502084 120.914219 
L 163.830102 119.523145 
L 164.13516 118.370514 
L 164.198278 118.13207 
L 164.612412 116.740996 
L 165.070906 115.349922 
L 165.576213 113.958847 
L 166.079776 112.697183 
L 166.131383 112.567773 
L 166.744237 111.176698 
L 167.41166 109.785624 
L 168.024392 108.611371 
L 168.137446 108.39455 
L 168.929658 107.003475 
L 169.784943 105.612401 
L 169.969008 105.336454 
L 170.71304 104.221326 
L 171.712353 102.830252 
L 171.913624 102.570662 
L 172.792161 101.439178 
L 173.85824 100.159576 
L 173.951309 100.048103 
L 175.20087 98.657029 
L 175.802856 98.031164 
L 176.54183 97.265954 
L 177.747472 96.098905 
L 177.980108 95.87488 
L 179.524588 94.483805 
L 179.692087 94.342336 
L 181.183127 93.092731 
L 181.636703 92.735705 
L 182.962741 91.701657 
L 183.581319 91.247967 
L 184.873703 90.310582 
L 185.525935 89.864914 
L 186.927746 88.919508 
L 187.470551 88.574013 
L 189.138364 87.528433 
L 189.415167 87.364335 
L 191.359783 86.230972 
L 191.523286 86.137359 
L 193.304399 85.171672 
L 194.105543 84.746285 
L 195.249014 84.169968 
L 196.903964 83.35521 
L 197.19363 83.219516 
L 199.138246 82.329741 
L 199.958929 81.964136 
L 201.082862 81.486638 
L 203.027478 80.684563 
L 203.305582 80.573061 
L 204.972094 79.934234 
L 206.91671 79.214516 
L 207.007394 79.181987 
L 208.861326 78.544384 
L 210.805942 77.90152 
L 211.152841 77.790912 
L 212.750557 77.301057 
L 214.695173 76.729668 
L 215.867558 76.399838 
L 216.639789 76.190305 
L 218.584405 75.685348 
L 220.529021 75.205388 
L 221.366457 75.008764 
L 222.473637 74.757165 
L 224.418253 74.338171 
L 226.362869 73.943324 
L 228.069899 73.617689 
L 228.307485 73.57367 
L 230.2521 73.234877 
L 232.196716 72.919294 
L 234.141332 72.626878 
L 236.085948 72.357562 
L 237.117666 72.226615 
L 238.030564 72.113553 
L 239.97518 71.894475 
L 241.919796 71.697605 
L 243.864412 71.52287 
L 245.809028 71.370192 
L 247.753643 71.239495 
L 249.698259 71.130708 
L 251.642875 71.043765 
L 253.587491 70.97861 
L 255.532107 70.935198 
L 257.476723 70.9135 
L 259.421339 70.9135 
L 261.365955 70.935198 
L 263.310571 70.97861 
L 265.255186 71.043765 
L 267.199802 71.130708 
L 269.144418 71.239495 
L 271.089034 71.370192 
L 273.03365 71.52287 
L 274.978266 71.697605 
L 276.922882 71.894475 
L 278.867498 72.113553 
L 279.780396 72.226615 
L 280.812114 72.357562 
L 282.756729 72.626878 
L 284.701345 72.919294 
L 286.645961 73.234877 
L 288.590577 73.57367 
L 288.828163 73.617689 
L 290.535193 73.943324 
L 292.479809 74.338171 
L 294.424425 74.757165 
L 295.531605 75.008764 
L 296.369041 75.205388 
L 298.313657 75.685348 
L 300.258272 76.190305 
L 301.030504 76.399838 
L 302.202888 76.729668 
L 304.147504 77.301057 
L 305.745221 77.790912 
L 306.09212 77.90152 
L 308.036736 78.544384 
L 309.890668 79.181987 
L 309.981352 79.214516 
L 311.925968 79.934234 
L 313.59248 80.573061 
L 313.870584 80.684563 
L 315.8152 81.486638 
L 316.939133 81.964136 
L 317.759815 82.329741 
L 319.704431 83.219516 
L 319.994098 83.35521 
L 321.649047 84.169968 
L 322.792519 84.746285 
L 323.593663 85.171672 
L 325.374776 86.137359 
L 325.538279 86.230972 
L 327.482895 87.364335 
L 327.759697 87.528433 
L 329.427511 88.574013 
L 329.970316 88.919508 
L 331.372127 89.864914 
L 332.024358 90.310582 
L 333.316743 91.247967 
L 333.935321 91.701657 
L 335.261358 92.735705 
L 335.714935 93.092731 
L 337.205974 94.342336 
L 337.373474 94.483805 
L 338.917954 95.87488 
L 339.15059 96.098905 
L 340.356232 97.265954 
L 341.095206 98.031164 
L 341.697192 98.657029 
L 342.946753 100.048103 
L 343.039822 100.159576 
L 344.1059 101.439178 
L 344.984438 102.570662 
L 345.185709 102.830252 
L 346.185022 104.221326 
L 346.929054 105.336454 
L 347.113119 105.612401 
L 347.968404 107.003475 
L 348.760616 108.39455 
L 348.87367 108.611371 
L 349.486402 109.785624 
L 350.153825 111.176698 
L 350.766679 112.567773 
L 350.818286 112.697183 
L 351.321849 113.958847 
L 351.827156 115.349922 
L 352.28565 116.740996 
L 352.699784 118.13207 
L 352.762901 118.370514 
L 353.06796 119.523145 
L 353.395977 120.914219 
L 353.687019 122.305294 
L 353.943467 123.696368 
L 354.167693 125.087443 
L 354.362064 126.478517 
L 354.528935 127.869591 
L 354.670648 129.260666 
L 354.707517 129.695472 
L 354.78817 130.65174 
L 354.884806 132.042815 
L 354.963399 133.433889 
L 355.026138 134.824963 
L 355.075144 136.216038 
L 355.112446 137.607112 
L 355.139969 138.998187 
L 355.159515 140.389261 
L 355.172741 141.780336 
L 355.181146 143.17141 
L 355.18605 144.562484 
L 355.188581 145.953559 
L 355.189658 147.344633 
L 355.189982 148.735708 
L 355.190025 150.126782 
L 355.190025 151.517856 
L 355.189982 152.908931 
L 355.189658 154.300005 
L 355.188581 155.69108 
L 355.18605 157.082154 
L 355.181146 158.473228 
L 355.172741 159.864303 
L 355.159515 161.255377 
L 355.139969 162.646452 
L 355.112446 164.037526 
L 355.075144 165.428601 
L 355.026138 166.819675 
L 354.963399 168.210749 
L 354.884806 169.601824 
L 354.78817 170.992898 
L 354.707517 171.949167 
L 354.670648 172.383973 
L 354.528935 173.775047 
L 354.362064 175.166121 
L 354.167693 176.557196 
L 353.943467 177.94827 
L 353.687019 179.339345 
L 353.395977 180.730419 
L 353.06796 182.121494 
L 352.762901 183.274124 
L 352.699784 183.512568 
L 352.28565 184.903642 
L 351.827156 186.294717 
L 351.321849 187.685791 
L 350.818286 188.947456 
L 350.766679 189.076866 
L 350.153825 190.46794 
L 349.486402 191.859014 
L 348.87367 193.033267 
L 348.760616 193.250089 
L 347.968404 194.641163 
L 347.113119 196.032238 
L 346.929054 196.308184 
L 346.185022 197.423312 
L 345.185709 198.814387 
L 344.984438 199.073976 
L 344.1059 200.205461 
L 343.039822 201.485062 
L 342.946753 201.596535 
L 341.697192 202.98761 
L 341.095206 203.613474 
L 340.356232 204.378684 
L 339.15059 205.545733 
L 338.917954 205.769759 
L 337.373474 207.160833 
L 337.205974 207.302302 
L 335.714935 208.551907 
L 335.261358 208.908934 
L 333.935321 209.942982 
L 333.316743 210.396671 
L 332.024358 211.334056 
L 331.372127 211.779724 
L 329.970316 212.725131 
L 329.427511 213.070625 
L 327.759697 214.116205 
L 327.482895 214.280303 
L 325.538279 215.413666 
L 325.374776 215.507279 
L 323.593663 216.472967 
L 322.792519 216.898354 
L 321.649047 217.47467 
L 319.994098 218.289428 
L 319.704431 218.425122 
L 317.759815 219.314897 
L 316.939133 219.680503 
L 315.8152 220.158001 
L 313.870584 220.960076 
L 313.59248 221.071577 
L 311.925968 221.710404 
L 309.981352 222.430122 
L 309.890668 222.462652 
L 308.036736 223.100254 
L 306.09212 223.743118 
L 305.745221 223.853726 
L 304.147504 224.343581 
L 302.202888 224.914971 
L 301.030504 225.2448 
L 300.258272 225.454334 
L 298.313657 225.95929 
L 296.369041 226.43925 
L 295.531605 226.635875 
L 294.424425 226.887473 
L 292.479809 227.306467 
L 290.535193 227.701315 
L 288.828163 228.026949 
L 288.590577 228.070968 
L 286.645961 228.409762 
L 284.701345 228.725344 
L 282.756729 229.01776 
L 280.812114 229.287076 
L 279.780396 229.418024 
L 278.867498 229.531085 
L 276.922882 229.750163 
L 274.978266 229.947033 
L 273.03365 230.121769 
L 271.089034 230.274447 
L 269.144418 230.405143 
L 267.199802 230.51393 
L 265.255186 230.600873 
L 263.310571 230.666029 
L 261.365955 230.70944 
L 259.421339 230.731138 
L 257.476723 230.731138 
L 255.532107 230.70944 
L 253.587491 230.666029 
L 251.642875 230.600873 
L 249.698259 230.51393 
L 247.753643 230.405143 
L 245.809028 230.274447 
L 243.864412 230.121769 
L 241.919796 229.947033 
L 239.97518 229.750163 
L 238.030564 229.531085 
z
" clip-path="url(#pbfccbeb5f6)" style="fill: none; stroke: #e29400; stroke-width: 2"/>
   </g>
   <g id="matplotlib.axis_1">
    <g id="xtick_1">
     <g id="line2d_2">
      <defs>
       <path id="ma0dffc377b" d="M 0 0 
L 0 3.5 
" style="stroke: #5a5758; stroke-width: 0.8"/>
      </defs>
      <g>
       <use xlink:href="#ma0dffc377b" x="64.95975" y="301.234223" style="fill: #5a5758; stroke: #5a5758; stroke-width: 0.8"/>
      </g>
     </g>
     <g id="text_1">
      <!-- -3.0 -->
      <g style="fill: #5a5758" transform="translate(52.274592 318.655053) scale(0.14994 -0.14994)">
       <defs>
        <path id="CMUBright-Roman-2d" d="M 70 1350 
L 70 1670 
L 1862 1670 
L 1862 1350 
L 70 1350 
z
" transform="scale(0.015625)"/>
        <path id="CMUBright-Roman-33" d="M 282 653 
Q 282 666 285 685 
Q 288 704 304 774 
Q 320 845 339 941 
Q 557 640 861 464 
Q 1165 288 1341 256 
Q 1517 224 1683 224 
Q 2112 224 2368 486 
Q 2624 749 2624 1165 
Q 2624 1574 2381 1824 
Q 2138 2074 1773 2099 
L 1555 2106 
L 1114 2106 
L 1114 2426 
Q 1709 2470 1862 2528 
Q 2099 2618 2281 2838 
Q 2464 3059 2464 3360 
Q 2464 3642 2256 3811 
Q 2048 3981 1702 3981 
Q 973 3981 570 3258 
L 371 3539 
Q 845 4301 1702 4301 
Q 2202 4301 2544 4025 
Q 2886 3750 2886 3360 
Q 2886 3059 2704 2761 
Q 2522 2464 2106 2272 
Q 2579 2144 2825 1833 
Q 3072 1523 3072 1158 
Q 3072 666 2685 278 
Q 2298 -109 1690 -109 
Q 1402 -109 1126 -9 
Q 851 90 675 221 
Q 499 352 390 473 
Q 282 595 282 653 
z
" transform="scale(0.015625)"/>
        <path id="CMUBright-Roman-2e" d="M 678 0 
L 678 499 
L 1178 499 
L 1178 0 
L 678 0 
z
" transform="scale(0.015625)"/>
        <path id="CMUBright-Roman-30" d="M 333 1984 
L 333 2086 
Q 333 2291 339 2438 
Q 346 2586 371 2832 
Q 397 3078 461 3267 
Q 525 3456 621 3657 
Q 717 3859 880 4006 
Q 1043 4154 1261 4230 
Q 1446 4301 1677 4301 
Q 1856 4301 2025 4256 
Q 2195 4211 2380 4070 
Q 2566 3930 2704 3709 
Q 2842 3488 2931 3104 
Q 3021 2720 3021 2214 
Q 3021 1683 2982 1347 
Q 2944 1011 2803 685 
Q 2618 250 2307 70 
Q 1997 -109 1677 -109 
Q 1498 -109 1328 -64 
Q 1158 -19 972 121 
Q 787 262 649 483 
Q 512 704 422 1091 
Q 333 1478 333 1984 
z
M 742 2413 
Q 742 2374 745 2326 
Q 749 2278 749 2272 
L 749 2150 
Q 749 1779 758 1548 
Q 768 1318 838 1014 
Q 909 710 1037 538 
Q 1286 218 1677 218 
Q 2086 218 2330 557 
Q 2451 730 2518 1037 
Q 2586 1344 2595 1568 
Q 2605 1792 2605 2163 
L 2605 2272 
Q 2605 2278 2608 2323 
Q 2611 2368 2611 2406 
Q 2611 3302 2336 3661 
Q 2099 3981 1677 3981 
Q 1242 3981 1005 3642 
Q 742 3264 742 2413 
z
" transform="scale(0.015625)"/>
       </defs>
       <use xlink:href="#CMUBright-Roman-2d"/>
       <use xlink:href="#CMUBright-Roman-33" x="34.999985"/>
       <use xlink:href="#CMUBright-Roman-2e" x="87.499969"/>
       <use xlink:href="#CMUBright-Roman-30" x="116.699966"/>
      </g>
     </g>
    </g>
    <g id="xtick_2">
     <g id="line2d_3">
      <g>
       <use xlink:href="#ma0dffc377b" x="113.33207" y="301.234223" style="fill: #5a5758; stroke: #5a5758; stroke-width: 0.8"/>
      </g>
     </g>
     <g id="text_2">
      <!-- -2.5 -->
      <g style="fill: #5a5758" transform="translate(100.646912 318.655053) scale(0.14994 -0.14994)">
       <defs>
        <path id="CMUBright-Roman-32" d="M 275 3226 
Q 595 4301 1587 4301 
L 1594 4301 
Q 2214 4294 2617 3923 
Q 3021 3552 3021 2989 
Q 3021 2746 2937 2531 
Q 2854 2317 2668 2115 
Q 2483 1914 2384 1821 
Q 2285 1728 2061 1549 
Q 1754 1299 1642 1203 
Q 1530 1107 698 358 
L 3021 358 
L 3021 0 
L 333 0 
L 333 339 
L 1683 1562 
Q 2144 1965 2368 2278 
Q 2592 2592 2592 2982 
Q 2592 3418 2278 3690 
Q 1965 3962 1498 3962 
Q 1069 3962 854 3693 
Q 640 3424 512 2938 
L 275 3226 
z
" transform="scale(0.015625)"/>
        <path id="CMUBright-Roman-35" d="M 301 518 
L 486 819 
Q 896 224 1581 224 
Q 1971 224 2268 473 
Q 2566 723 2566 1312 
Q 2566 1626 2489 1846 
Q 2413 2067 2285 2176 
Q 2157 2285 2032 2329 
Q 1907 2374 1773 2374 
Q 1210 2374 941 1901 
L 582 1901 
L 582 4192 
L 2797 4192 
L 2797 3853 
L 973 3853 
L 973 2381 
Q 1325 2701 1779 2701 
Q 2285 2701 2653 2291 
Q 3021 1882 3021 1306 
Q 3021 723 2601 307 
Q 2182 -109 1574 -109 
Q 813 -109 301 518 
z
" transform="scale(0.015625)"/>
       </defs>
       <use xlink:href="#CMUBright-Roman-2d"/>
       <use xlink:href="#CMUBright-Roman-32" x="34.999985"/>
       <use xlink:href="#CMUBright-Roman-2e" x="87.499969"/>
       <use xlink:href="#CMUBright-Roman-35" x="116.699966"/>
      </g>
     </g>
    </g>
    <g id="xtick_3">
     <g id="line2d_4">
      <g>
       <use xlink:href="#ma0dffc377b" x="161.70439" y="301.234223" style="fill: #5a5758; stroke: #5a5758; stroke-width: 0.8"/>
      </g>
     </g>
     <g id="text_3">
      <!-- -2.0 -->
      <g style="fill: #5a5758" transform="translate(149.019232 318.655053) scale(0.14994 -0.14994)">
       <use xlink:href="#CMUBright-Roman-2d"/>
       <use xlink:href="#CMUBright-Roman-32" x="34.999985"/>
       <use xlink:href="#CMUBright-Roman-2e" x="87.499969"/>
       <use xlink:href="#CMUBright-Roman-30" x="116.699966"/>
      </g>
     </g>
    </g>
    <g id="xtick_4">
     <g id="line2d_5">
      <g>
       <use xlink:href="#ma0dffc377b" x="210.076711" y="301.234223" style="fill: #5a5758; stroke: #5a5758; stroke-width: 0.8"/>
      </g>
     </g>
     <g id="text_4">
      <!-- -1.5 -->
      <g style="fill: #5a5758" transform="translate(197.391552 318.655053) scale(0.14994 -0.14994)">
       <defs>
        <path id="CMUBright-Roman-31" d="M 672 3558 
L 672 3885 
Q 1427 3885 1862 4301 
L 1965 4301 
L 1965 320 
L 2803 320 
L 2803 0 
L 710 0 
L 710 320 
L 1549 320 
L 1549 3744 
Q 1178 3558 672 3558 
z
" transform="scale(0.015625)"/>
       </defs>
       <use xlink:href="#CMUBright-Roman-2d"/>
       <use xlink:href="#CMUBright-Roman-31" x="34.999985"/>
       <use xlink:href="#CMUBright-Roman-2e" x="87.499969"/>
       <use xlink:href="#CMUBright-Roman-35" x="116.699966"/>
      </g>
     </g>
    </g>
    <g id="xtick_5">
     <g id="line2d_6">
      <g>
       <use xlink:href="#ma0dffc377b" x="258.449031" y="301.234223" style="fill: #5a5758; stroke: #5a5758; stroke-width: 0.8"/>
      </g>
     </g>
     <g id="text_5">
      <!-- -1.0 -->
      <g style="fill: #5a5758" transform="translate(245.763873 318.655053) scale(0.14994 -0.14994)">
       <use xlink:href="#CMUBright-Roman-2d"/>
       <use xlink:href="#CMUBright-Roman-31" x="34.999985"/>
       <use xlink:href="#CMUBright-Roman-2e" x="87.499969"/>
       <use xlink:href="#CMUBright-Roman-30" x="116.699966"/>
      </g>
     </g>
    </g>
    <g id="xtick_6">
     <g id="line2d_7">
      <g>
       <use xlink:href="#ma0dffc377b" x="306.821351" y="301.234223" style="fill: #5a5758; stroke: #5a5758; stroke-width: 0.8"/>
      </g>
     </g>
     <g id="text_6">
      <!-- -0.5 -->
      <g style="fill: #5a5758" transform="translate(294.136193 318.655053) scale(0.14994 -0.14994)">
       <use xlink:href="#CMUBright-Roman-2d"/>
       <use xlink:href="#CMUBright-Roman-30" x="34.999985"/>
       <use xlink:href="#CMUBright-Roman-2e" x="87.499969"/>
       <use xlink:href="#CMUBright-Roman-35" x="116.699966"/>
      </g>
     </g>
    </g>
    <g id="xtick_7">
     <g id="line2d_8">
      <g>
       <use xlink:href="#ma0dffc377b" x="355.193671" y="301.234223" style="fill: #5a5758; stroke: #5a5758; stroke-width: 0.8"/>
      </g>
     </g>
     <g id="text_7">
      <!-- 0.0 -->
      <g style="fill: #5a5758" transform="translate(345.132463 318.655053) scale(0.14994 -0.14994)">
       <use xlink:href="#CMUBright-Roman-30"/>
       <use xlink:href="#CMUBright-Roman-2e" x="52.499985"/>
       <use xlink:href="#CMUBright-Roman-30" x="81.699982"/>
      </g>
     </g>
    </g>
    <g id="xtick_8">
     <g id="line2d_9">
      <g>
       <use xlink:href="#ma0dffc377b" x="403.565992" y="301.234223" style="fill: #5a5758; stroke: #5a5758; stroke-width: 0.8"/>
      </g>
     </g>
     <g id="text_8">
      <!-- 0.5 -->
      <g style="fill: #5a5758" transform="translate(393.504783 318.655053) scale(0.14994 -0.14994)">
       <use xlink:href="#CMUBright-Roman-30"/>
       <use xlink:href="#CMUBright-Roman-2e" x="52.499985"/>
       <use xlink:href="#CMUBright-Roman-35" x="81.699982"/>
      </g>
     </g>
    </g>
    <g id="xtick_9">
     <g id="line2d_10">
      <g>
       <use xlink:href="#ma0dffc377b" x="451.938312" y="301.234223" style="fill: #5a5758; stroke: #5a5758; stroke-width: 0.8"/>
      </g>
     </g>
     <g id="text_9">
      <!-- 1.0 -->
      <g style="fill: #5a5758" transform="translate(441.877103 318.655053) scale(0.14994 -0.14994)">
       <use xlink:href="#CMUBright-Roman-31"/>
       <use xlink:href="#CMUBright-Roman-2e" x="52.499985"/>
       <use xlink:href="#CMUBright-Roman-30" x="81.699982"/>
      </g>
     </g>
    </g>
    <g id="text_10">
     <!-- $Re(\lambda \Delta t)$ -->
     <g style="fill: #5a5758" transform="translate(224.789031 342.65952) scale(0.18 -0.18)">
      <defs>
       <path id="CMUBright-SemiBold-52" d="M 518 0 
L 518 4448 
L 2086 4448 
Q 2803 4448 3283 4166 
Q 3571 3994 3740 3741 
Q 3910 3488 3910 3206 
Q 3910 2810 3593 2496 
Q 3277 2182 2803 2061 
L 4102 0 
L 3430 0 
L 2208 1984 
L 1171 1984 
L 1171 0 
L 518 0 
z
M 1171 2464 
L 2054 2464 
Q 2477 2464 2758 2541 
Q 3040 2618 3181 2842 
Q 3283 3002 3283 3200 
Q 3283 3558 2995 3750 
Q 2714 3936 2086 3936 
L 1178 3936 
L 1171 3725 
L 1171 2464 
z
" transform="scale(0.015625)"/>
       <path id="CMUBright-SemiBold-65" d="M 186 1530 
Q 186 2189 605 2646 
Q 1024 3104 1606 3104 
Q 1766 3104 1920 3069 
Q 2074 3034 2243 2931 
Q 2413 2829 2534 2669 
Q 2656 2509 2739 2233 
Q 2822 1958 2822 1600 
L 762 1600 
L 762 1536 
Q 762 1062 1040 745 
Q 1318 429 1709 429 
Q 2240 429 2739 794 
L 2784 275 
Q 2278 -51 1709 -51 
Q 1043 -51 614 419 
Q 186 890 186 1530 
z
M 838 1978 
L 2298 1978 
Q 2144 2618 1600 2618 
Q 1363 2618 1148 2448 
Q 934 2278 838 1978 
z
" transform="scale(0.015625)"/>
       <path id="CMUBright-SemiBold-28" d="M 1747 -1421 
Q 499 -358 499 1690 
Q 499 3738 1747 4800 
L 2234 4800 
Q 2086 4653 1990 4544 
Q 1894 4435 1708 4147 
Q 1523 3859 1411 3552 
Q 1299 3245 1206 2752 
Q 1114 2259 1114 1689 
Q 1114 1120 1206 627 
Q 1299 134 1411 -173 
Q 1523 -480 1708 -768 
Q 1894 -1056 1990 -1165 
Q 2086 -1274 2234 -1421 
L 1747 -1421 
z
" transform="scale(0.015625)"/>
       <path id="CMUBright-SemiBold-3bb" d="M 186 0 
L 1274 2893 
L 1274 2899 
Q 1254 2944 1180 3107 
Q 1107 3270 1059 3363 
Q 1011 3456 937 3577 
Q 864 3699 800 3760 
Q 736 3821 672 3821 
Q 621 3821 560 3773 
Q 499 3725 288 3533 
L 186 4141 
Q 486 4442 793 4442 
Q 1101 4442 1337 4099 
Q 1574 3757 1894 3008 
L 3174 0 
L 2502 0 
L 1626 2067 
L 1619 2067 
L 845 0 
L 186 0 
z
" transform="scale(0.015625)"/>
       <path id="CMUBright-SemiBold-394" d="M 275 0 
L 2419 4499 
L 3168 4499 
L 5312 0 
L 275 0 
z
M 1216 634 
L 4269 634 
L 2746 3834 
L 1216 634 
z
" transform="scale(0.015625)"/>
       <path id="CMUBright-SemiBold-74" d="M 122 2541 
L 122 3021 
L 646 3021 
L 646 3885 
L 1222 3885 
L 1222 3021 
L 2118 3021 
L 2118 2541 
L 1222 2541 
L 1222 1075 
Q 1222 448 1555 448 
Q 1805 448 2106 672 
L 2234 211 
Q 1754 -51 1197 -51 
Q 634 -51 634 1005 
L 634 2541 
L 122 2541 
z
" transform="scale(0.015625)"/>
       <path id="CMUBright-SemiBold-29" d="M 371 -1421 
Q 525 -1267 614 -1164 
Q 704 -1062 893 -768 
Q 1082 -474 1194 -173 
Q 1306 128 1398 624 
Q 1491 1120 1491 1690 
Q 1491 2246 1404 2732 
Q 1318 3219 1206 3523 
Q 1094 3827 921 4105 
Q 749 4384 646 4502 
Q 544 4621 416 4755 
Q 384 4787 371 4800 
L 851 4800 
Q 2106 3731 2106 1689 
Q 2106 -352 851 -1421 
L 371 -1421 
z
" transform="scale(0.015625)"/>
      </defs>
      <use xlink:href="#CMUBright-SemiBold-52"/>
      <use xlink:href="#CMUBright-SemiBold-65" transform="translate(67.099991 0)"/>
      <use xlink:href="#CMUBright-SemiBold-28" transform="translate(114.199982 0)"/>
      <use xlink:href="#CMUBright-SemiBold-3bb" transform="translate(154.999969 0)"/>
      <use xlink:href="#CMUBright-SemiBold-394" transform="translate(207.499954 0)"/>
      <use xlink:href="#CMUBright-SemiBold-74" transform="translate(294.999939 0)"/>
      <use xlink:href="#CMUBright-SemiBold-29" transform="translate(332.899933 0)"/>
     </g>
    </g>
   </g>
   <g id="matplotlib.axis_2">
    <g id="ytick_1">
     <g id="line2d_11">
      <defs>
       <path id="m8551ab2086" d="M 0 0 
L -3.5 0 
" style="stroke: #5a5758; stroke-width: 0.8"/>
      </defs>
      <g>
       <use xlink:href="#m8551ab2086" x="52.95975" y="289.234223" style="fill: #5a5758; stroke: #5a5758; stroke-width: 0.8"/>
      </g>
     </g>
     <g id="text_11">
      <!-- -3 -->
      <g style="fill: #5a5758" transform="translate(32.84 294.444638) scale(0.14994 -0.14994)">
       <use xlink:href="#CMUBright-Roman-2d"/>
       <use xlink:href="#CMUBright-Roman-33" x="34.999985"/>
      </g>
     </g>
    </g>
    <g id="ytick_2">
     <g id="line2d_12">
      <g>
       <use xlink:href="#m8551ab2086" x="52.95975" y="243.096922" style="fill: #5a5758; stroke: #5a5758; stroke-width: 0.8"/>
      </g>
     </g>
     <g id="text_12">
      <!-- -2 -->
      <g style="fill: #5a5758" transform="translate(32.84 248.307337) scale(0.14994 -0.14994)">
       <use xlink:href="#CMUBright-Roman-2d"/>
       <use xlink:href="#CMUBright-Roman-32" x="34.999985"/>
      </g>
     </g>
    </g>
    <g id="ytick_3">
     <g id="line2d_13">
      <g>
       <use xlink:href="#m8551ab2086" x="52.95975" y="196.959621" style="fill: #5a5758; stroke: #5a5758; stroke-width: 0.8"/>
      </g>
     </g>
     <g id="text_13">
      <!-- -1 -->
      <g style="fill: #5a5758" transform="translate(32.84 202.170036) scale(0.14994 -0.14994)">
       <use xlink:href="#CMUBright-Roman-2d"/>
       <use xlink:href="#CMUBright-Roman-31" x="34.999985"/>
      </g>
     </g>
    </g>
    <g id="ytick_4">
     <g id="line2d_14">
      <g>
       <use xlink:href="#m8551ab2086" x="52.95975" y="150.822319" style="fill: #5a5758; stroke: #5a5758; stroke-width: 0.8"/>
      </g>
     </g>
     <g id="text_14">
      <!-- 0 -->
      <g style="fill: #5a5758" transform="translate(38.0879 156.032734) scale(0.14994 -0.14994)">
       <use xlink:href="#CMUBright-Roman-30"/>
      </g>
     </g>
    </g>
    <g id="ytick_5">
     <g id="line2d_15">
      <g>
       <use xlink:href="#m8551ab2086" x="52.95975" y="104.685018" style="fill: #5a5758; stroke: #5a5758; stroke-width: 0.8"/>
      </g>
     </g>
     <g id="text_15">
      <!-- 1 -->
      <g style="fill: #5a5758" transform="translate(38.0879 109.895433) scale(0.14994 -0.14994)">
       <use xlink:href="#CMUBright-Roman-31"/>
      </g>
     </g>
    </g>
    <g id="ytick_6">
     <g id="line2d_16">
      <g>
       <use xlink:href="#m8551ab2086" x="52.95975" y="58.547716" style="fill: #5a5758; stroke: #5a5758; stroke-width: 0.8"/>
      </g>
     </g>
     <g id="text_16">
      <!-- 2 -->
      <g style="fill: #5a5758" transform="translate(38.0879 63.758131) scale(0.14994 -0.14994)">
       <use xlink:href="#CMUBright-Roman-32"/>
      </g>
     </g>
    </g>
    <g id="ytick_7">
     <g id="line2d_17">
      <g>
       <use xlink:href="#m8551ab2086" x="52.95975" y="12.410415" style="fill: #5a5758; stroke: #5a5758; stroke-width: 0.8"/>
      </g>
     </g>
     <g id="text_17">
      <!-- 3 -->
      <g style="fill: #5a5758" transform="translate(38.0879 17.62083) scale(0.14994 -0.14994)">
       <use xlink:href="#CMUBright-Roman-33"/>
      </g>
     </g>
    </g>
    <g id="text_18">
     <!-- $Im(\lambda \Delta t)$ -->
     <g style="fill: #5a5758" transform="translate(20.7 183.852319) rotate(-90) scale(0.18 -0.18)">
      <defs>
       <path id="CMUBright-SemiBold-49" d="M 512 0 
L 512 4448 
L 1184 4448 
L 1184 0 
L 512 0 
z
" transform="scale(0.015625)"/>
       <path id="CMUBright-SemiBold-6d" d="M 410 0 
L 410 3021 
L 998 3021 
L 998 2714 
L 1005 2496 
Q 1344 3072 1971 3072 
Q 2080 3072 2176 3059 
Q 2272 3046 2345 3024 
Q 2419 3002 2483 2966 
Q 2547 2931 2592 2899 
Q 2637 2867 2675 2819 
Q 2714 2771 2736 2739 
Q 2758 2707 2784 2656 
Q 2810 2605 2816 2582 
Q 2822 2560 2838 2518 
Q 2854 2477 2854 2470 
Q 3187 3072 3840 3072 
Q 4090 3072 4272 2995 
Q 4454 2918 4544 2819 
Q 4634 2720 4685 2557 
Q 4736 2394 4745 2285 
Q 4755 2176 4755 2016 
L 4755 0 
L 4141 0 
L 4141 1984 
Q 4128 2278 4045 2394 
Q 3898 2592 3507 2592 
Q 3264 2592 3078 2390 
Q 2893 2189 2893 1728 
L 2893 0 
L 2272 0 
L 2272 1984 
Q 2266 2266 2195 2374 
Q 2054 2592 1645 2592 
Q 1402 2592 1213 2390 
Q 1024 2189 1024 1728 
L 1024 0 
L 410 0 
z
" transform="scale(0.015625)"/>
      </defs>
      <use xlink:href="#CMUBright-SemiBold-49"/>
      <use xlink:href="#CMUBright-SemiBold-6d" transform="translate(26.699997 0)"/>
      <use xlink:href="#CMUBright-SemiBold-28" transform="translate(107.499985 0)"/>
      <use xlink:href="#CMUBright-SemiBold-3bb" transform="translate(148.299973 0)"/>
      <use xlink:href="#CMUBright-SemiBold-394" transform="translate(200.799957 0)"/>
      <use xlink:href="#CMUBright-SemiBold-74" transform="translate(288.299942 0)"/>
      <use xlink:href="#CMUBright-SemiBold-29" transform="translate(326.199936 0)"/>
     </g>
    </g>
   </g>
   <g id="QuadContourSet_2">
    <path d="M 273.03365 260.030205 
L 267.199802 259.513475 
L 260.426714 258.630586 
L 255.532107 257.784127 
L 249.698259 256.548426 
L 243.864412 255.048602 
L 239.97518 253.893173 
L 234.141332 251.915432 
L 229.905697 250.28414 
L 223.565789 247.501991 
L 218.013317 244.719842 
L 212.750557 241.771331 
L 206.91671 238.162763 
L 203.027478 235.580078 
L 198.161669 232.200172 
L 175.802856 216.193663 
L 166.079776 209.65936 
L 147.672207 197.423312 
L 141.806133 193.250089 
L 136.910538 189.526063 
L 132.971796 186.294717 
L 129.132074 182.85487 
L 125.592443 179.339345 
L 123.079042 176.557196 
L 120.827131 173.775047 
L 118.83308 170.992898 
L 117.097763 168.210749 
L 115.519763 165.211372 
L 114.408988 162.646452 
L 113.447176 159.864303 
L 112.748706 157.082154 
L 112.302167 154.300005 
L 112.110324 151.517856 
L 112.174303 148.735708 
L 112.493731 145.953559 
L 113.066693 143.17141 
L 113.895635 140.389261 
L 114.983848 137.607112 
L 116.329855 134.824963 
L 117.932954 132.042815 
L 119.796662 129.260666 
L 121.921958 126.478517 
L 124.306473 123.696368 
L 127.187458 120.670332 
L 131.07669 117.006587 
L 134.965922 113.683263 
L 139.936937 109.785624 
L 144.689001 106.309212 
L 152.467465 100.959708 
L 180.804113 81.964136 
L 189.415167 75.775998 
L 200.133509 68.053392 
L 206.91671 63.481875 
L 210.805942 61.033576 
L 216.639789 57.674844 
L 220.70593 55.533722 
L 226.618184 52.751573 
L 232.196716 50.462645 
L 236.085948 49.037582 
L 239.97518 47.751465 
L 243.864412 46.596037 
L 249.698259 45.096212 
L 255.532107 43.860511 
L 261.365955 42.871989 
L 267.199802 42.131163 
L 273.03365 41.614433 
L 278.867498 41.335404 
L 284.701345 41.28143 
L 290.535193 41.456279 
L 296.369041 41.871114 
L 302.202888 42.535502 
L 308.036736 43.463521 
L 313.870584 44.680008 
L 319.704431 46.224774 
L 323.593663 47.456936 
L 327.482895 48.879466 
L 331.372127 50.521126 
L 335.261358 52.414236 
L 338.365924 54.142647 
L 341.095206 55.873047 
L 344.466809 58.315871 
L 347.685438 61.098019 
L 350.362404 63.880168 
L 352.575949 66.662317 
L 354.384306 69.444466 
L 355.836877 72.226615 
L 356.977845 75.008764 
L 357.836782 77.790912 
L 358.45291 80.573061 
L 358.848384 83.35521 
L 359.054684 86.137359 
L 359.072779 90.310582 
L 358.822139 94.483805 
L 358.21447 100.048103 
L 356.136845 116.740996 
L 355.608118 123.696368 
L 355.326312 130.65174 
L 355.200227 140.389261 
L 355.228733 165.428601 
L 355.413498 173.775047 
L 355.787211 180.730419 
L 356.423978 187.685791 
L 357.469726 196.032238 
L 358.694433 205.769759 
L 359.014612 209.942982 
L 359.096193 214.116205 
L 358.973201 216.898354 
L 358.596749 220.177343 
L 358.173503 222.462652 
L 357.439375 225.2448 
L 356.445702 228.026949 
L 355.152489 230.809098 
L 353.525712 233.591247 
L 351.521814 236.373396 
L 349.087692 239.155545 
L 346.149615 241.937693 
L 342.62144 244.719842 
L 339.15059 247.018339 
L 335.907564 248.893065 
L 333.185569 250.28414 
L 329.427511 251.975089 
L 325.538279 253.499771 
L 321.649047 254.825514 
L 317.759815 255.977015 
L 311.925968 257.406137 
L 306.09212 258.524851 
L 302.202888 259.109137 
L 296.369041 259.773525 
L 290.535193 260.18836 
L 284.701345 260.363208 
L 278.867498 260.309234 
L 273.03365 260.030205 
L 273.03365 260.030205 
" clip-path="url(#pbfccbeb5f6)" style="fill: none; stroke: #1e90ff; stroke-width: 2"/>
   </g>
   <g id="patch_3">
    <path d="M 52.95975 289.234223 
L 52.95975 12.410415 
" style="fill: none; stroke: #5a5758; stroke-width: 0.8; stroke-linejoin: miter; stroke-linecap: square"/>
   </g>
   <g id="patch_4">
    <path d="M 64.95975 301.234223 
L 451.938312 301.234223 
" style="fill: none; stroke: #5a5758; stroke-width: 0.8; stroke-linejoin: miter; stroke-linecap: square"/>
   </g>
   <g id="text_19">
    <!-- RK2 -->
    <g style="fill: #e29400" transform="translate(210.076711 104.685018) scale(0.18 -0.18)">
     <defs>
      <path id="CMUBright-Roman-52" d="M 627 0 
L 627 4448 
L 2099 4448 
Q 2579 4448 2947 4329 
Q 3315 4211 3513 4022 
Q 3712 3834 3811 3635 
Q 3910 3437 3910 3245 
Q 3910 2925 3692 2669 
Q 3475 2413 3209 2285 
Q 2944 2157 2675 2112 
L 4102 0 
L 3654 0 
L 2272 2061 
L 1069 2061 
L 1069 0 
L 627 0 
z
M 1069 2387 
L 2080 2387 
Q 2797 2387 3155 2630 
Q 3494 2861 3494 3245 
Q 3494 3552 3225 3805 
Q 2957 4058 2349 4096 
Q 2259 4102 2074 4102 
L 1069 4102 
L 1069 2387 
z
" transform="scale(0.015625)"/>
      <path id="CMUBright-Roman-4b" d="M 640 0 
L 640 4448 
L 1062 4448 
L 1062 1952 
L 3610 4448 
L 4128 4448 
L 2336 2688 
L 4224 0 
L 3738 0 
L 2048 2400 
L 1062 1434 
L 1062 0 
L 640 0 
z
" transform="scale(0.015625)"/>
     </defs>
     <use xlink:href="#CMUBright-Roman-52"/>
     <use xlink:href="#CMUBright-Roman-4b" x="67.099991"/>
     <use xlink:href="#CMUBright-Roman-32" x="137.499985"/>
    </g>
   </g>
   <g id="text_20">
    <!-- RK3 -->
    <g style="fill: #1e90ff" transform="translate(210.076711 127.753669) scale(0.18 -0.18)">
     <use xlink:href="#CMUBright-Roman-52"/>
     <use xlink:href="#CMUBright-Roman-4b" x="67.099991"/>
     <use xlink:href="#CMUBright-Roman-33" x="137.499985"/>
    </g>
   </g>
   <g id="QuadContourSet_3">
    <path d="M 306.09212 285.096166 
L 305.849612 285.061 
L 304.147504 284.797528 
L 302.202888 284.468331 
L 300.258272 284.111752 
L 298.313657 283.729263 
L 298.027186 283.669926 
L 296.369041 283.300627 
L 294.424425 282.843713 
L 292.479809 282.364323 
L 292.144493 282.278851 
L 290.535193 281.835921 
L 288.590577 281.282202 
L 287.242845 280.887777 
L 286.645961 280.698603 
L 284.701345 280.070712 
L 282.955317 279.496703 
L 282.756729 279.425904 
L 280.812114 278.72689 
L 279.096315 278.105628 
L 278.867498 278.015814 
L 276.922882 277.252354 
L 275.549385 276.714554 
L 274.978266 276.472627 
L 273.03365 275.6552 
L 272.236593 275.323479 
L 271.089034 274.80863 
L 269.144418 273.950965 
L 269.10177 273.932405 
L 267.199802 273.044354 
L 266.096755 272.54133 
L 265.255186 272.130635 
L 263.310571 271.207194 
L 263.188008 271.150256 
L 261.365955 270.250239 
L 260.338731 269.759182 
L 259.421339 269.294709 
L 257.523325 268.368107 
L 257.476723 268.344119 
L 255.532107 267.372505 
L 254.709184 266.977033 
L 253.587491 266.412762 
L 251.872799 265.585958 
L 251.642875 265.470466 
L 249.698259 264.527275 
L 248.984231 264.194884 
L 247.753643 263.602048 
L 246.017599 262.80381 
L 245.809028 262.705021 
L 243.864412 261.815574 
L 242.943538 261.412735 
L 241.919796 260.953922 
L 239.97518 260.121517 
L 239.734172 260.021661 
L 238.030564 259.301856 
L 236.360437 258.630586 
L 236.085948 258.518477 
L 234.141332 257.748652 
L 232.795047 257.239512 
L 232.196716 257.010354 
L 230.2521 256.289727 
L 229.012002 255.848437 
L 228.307485 255.59524 
L 226.362869 254.917629 
L 224.990269 254.457363 
L 224.418253 254.264064 
L 222.473637 253.623248 
L 220.71585 253.066289 
L 220.529021 253.006733 
L 218.584405 252.39669 
L 216.639789 251.808821 
L 216.190818 251.675214 
L 214.695173 251.227873 
L 212.750557 250.661505 
L 211.425651 250.28414 
L 210.805942 250.106892 
L 208.861326 249.557091 
L 206.91671 249.020894 
L 206.450229 248.893065 
L 204.972094 248.486404 
L 203.027478 247.959532 
L 201.311761 247.501991 
L 201.082862 247.440727 
L 199.138246 246.919149 
L 197.19363 246.404884 
L 196.077719 246.110917 
L 195.249014 245.891745 
L 193.304399 245.376942 
L 191.359783 244.86639 
L 190.805125 244.719842 
L 189.415167 244.350949 
L 187.470551 243.83465 
L 185.559688 243.328768 
L 185.525935 243.319789 
L 183.581319 242.79456 
L 181.636703 242.269383 
L 180.417269 241.937693 
L 179.692087 241.739321 
L 177.747472 241.200603 
L 175.802856 240.659812 
L 175.402537 240.546619 
L 173.85824 240.10699 
L 171.913624 239.548275 
L 170.562088 239.155545 
L 169.969008 238.981899 
L 168.024392 238.402278 
L 166.079776 237.817437 
L 165.907385 237.76447 
L 164.13516 237.215026 
L 162.190544 236.605011 
L 161.465886 236.373396 
L 160.245929 235.979507 
L 158.301313 235.341218 
L 157.226795 234.982321 
L 156.356697 234.688379 
L 154.412081 234.018601 
L 153.19262 233.591247 
L 152.467465 233.333858 
L 150.522849 232.629244 
L 149.359949 232.200172 
L 148.578233 231.907602 
L 146.633617 231.164675 
L 145.720966 230.809098 
L 144.689001 230.400602 
L 142.744386 229.615766 
L 142.264895 229.418024 
L 140.79977 228.803098 
L 138.98329 228.026949 
L 138.855154 227.971153 
L 136.910538 227.104512 
L 135.878622 226.635875 
L 134.965922 226.212692 
L 133.021306 225.29344 
L 132.920658 225.2448 
L 131.07669 224.333342 
L 130.12449 223.853726 
L 129.132074 223.341651 
L 127.460727 222.462652 
L 127.187458 222.315184 
L 125.242843 221.244217 
L 124.935453 221.071577 
L 123.298227 220.126409 
L 122.539994 219.680503 
L 121.353611 218.962159 
L 120.262744 218.289428 
L 119.408995 217.746444 
L 118.09938 216.898354 
L 117.464379 216.47356 
L 116.04527 215.507279 
L 115.519763 215.137043 
L 114.095599 214.116205 
L 113.575147 213.729591 
L 112.245461 212.725131 
L 111.630531 212.242998 
L 110.489937 211.334056 
L 109.685915 210.668093 
L 108.824151 209.942982 
L 107.7413 208.994704 
L 107.243296 208.551907 
L 105.796684 207.21163 
L 105.742656 207.160833 
L 104.328366 205.769759 
L 103.852068 205.279975 
L 102.987777 204.378684 
L 101.907452 203.200279 
L 101.715109 202.98761 
L 100.518225 201.596535 
L 99.962836 200.918674 
L 99.386009 200.205461 
L 98.316317 198.814387 
L 98.01822 198.404941 
L 97.31242 197.423312 
L 96.363403 196.032238 
L 96.073604 195.581879 
L 95.475612 194.641163 
L 94.640243 193.250089 
L 94.128988 192.346729 
L 93.856292 191.859014 
L 93.127178 190.46794 
L 92.440534 189.076866 
L 92.184372 188.521021 
L 91.804178 187.685791 
L 91.213216 186.294717 
L 90.660667 184.903642 
L 90.239757 183.765306 
L 90.147515 183.512568 
L 89.679448 182.121494 
L 89.245388 180.730419 
L 88.844001 179.339345 
L 88.473926 177.94827 
L 88.295141 177.213651 
L 88.137764 176.557196 
L 87.833976 175.166121 
L 87.556809 173.775047 
L 87.304873 172.383973 
L 87.076793 170.992898 
L 86.871209 169.601824 
L 86.686791 168.210749 
L 86.522244 166.819675 
L 86.376325 165.428601 
L 86.350525 165.147846 
L 86.250584 164.037526 
L 86.141453 162.646452 
L 86.04722 161.255377 
L 85.966944 159.864303 
L 85.899777 158.473228 
L 85.844976 157.082154 
L 85.801911 155.69108 
L 85.770069 154.300005 
L 85.749059 152.908931 
L 85.738621 151.517856 
L 85.738621 150.126782 
L 85.749059 148.735708 
L 85.770069 147.344633 
L 85.801911 145.953559 
L 85.844976 144.562484 
L 85.899777 143.17141 
L 85.966944 141.780336 
L 86.04722 140.389261 
L 86.141453 138.998187 
L 86.250584 137.607112 
L 86.350525 136.496792 
L 86.376325 136.216038 
L 86.522244 134.824963 
L 86.686791 133.433889 
L 86.871209 132.042815 
L 87.076793 130.65174 
L 87.304873 129.260666 
L 87.556809 127.869591 
L 87.833976 126.478517 
L 88.137764 125.087443 
L 88.295141 124.430988 
L 88.473926 123.696368 
L 88.844001 122.305294 
L 89.245388 120.914219 
L 89.679448 119.523145 
L 90.147515 118.13207 
L 90.239757 117.879333 
L 90.660667 116.740996 
L 91.213216 115.349922 
L 91.804178 113.958847 
L 92.184372 113.123617 
L 92.440534 112.567773 
L 93.127178 111.176698 
L 93.856292 109.785624 
L 94.128988 109.297909 
L 94.640243 108.39455 
L 95.475612 107.003475 
L 96.073604 106.06276 
L 96.363403 105.612401 
L 97.31242 104.221326 
L 98.01822 103.239697 
L 98.316317 102.830252 
L 99.386009 101.439178 
L 99.962836 100.725964 
L 100.518225 100.048103 
L 101.715109 98.657029 
L 101.907452 98.444359 
L 102.987777 97.265954 
L 103.852068 96.364664 
L 104.328366 95.87488 
L 105.742656 94.483805 
L 105.796684 94.433008 
L 107.243296 93.092731 
L 107.7413 92.649934 
L 108.824151 91.701657 
L 109.685915 90.976545 
L 110.489937 90.310582 
L 111.630531 89.40164 
L 112.245461 88.919508 
L 113.575147 87.915047 
L 114.095599 87.528433 
L 115.519763 86.507596 
L 116.04527 86.137359 
L 117.464379 85.171078 
L 118.09938 84.746285 
L 119.408995 83.898194 
L 120.262744 83.35521 
L 121.353611 82.682479 
L 122.539994 81.964136 
L 123.298227 81.518229 
L 124.935453 80.573061 
L 125.242843 80.400422 
L 127.187458 79.329454 
L 127.460727 79.181987 
L 129.132074 78.302988 
L 130.12449 77.790912 
L 131.07669 77.311297 
L 132.920658 76.399838 
L 133.021306 76.351198 
L 134.965922 75.431946 
L 135.878622 75.008764 
L 136.910538 74.540126 
L 138.855154 73.673485 
L 138.98329 73.617689 
L 140.79977 72.84154 
L 142.264895 72.226615 
L 142.744386 72.028873 
L 144.689001 71.244036 
L 145.720966 70.83554 
L 146.633617 70.479964 
L 148.578233 69.737037 
L 149.359949 69.444466 
L 150.522849 69.015394 
L 152.467465 68.31078 
L 153.19262 68.053392 
L 154.412081 67.626038 
L 156.356697 66.956259 
L 157.226795 66.662317 
L 158.301313 66.303421 
L 160.245929 65.665132 
L 161.465886 65.271243 
L 162.190544 65.039628 
L 164.13516 64.429613 
L 165.907385 63.880168 
L 166.079776 63.827202 
L 168.024392 63.242361 
L 169.969008 62.662739 
L 170.562088 62.489094 
L 171.913624 62.096363 
L 173.85824 61.537649 
L 175.402537 61.098019 
L 175.802856 60.984826 
L 177.747472 60.444036 
L 179.692087 59.905318 
L 180.417269 59.706945 
L 181.636703 59.375255 
L 183.581319 58.850079 
L 185.525935 58.324849 
L 185.559688 58.315871 
L 187.470551 57.809989 
L 189.415167 57.29369 
L 190.805125 56.924796 
L 191.359783 56.778249 
L 193.304399 56.267697 
L 195.249014 55.752893 
L 196.077719 55.533722 
L 197.19363 55.239755 
L 199.138246 54.725489 
L 201.082862 54.203912 
L 201.311761 54.142647 
L 203.027478 53.685107 
L 204.972094 53.158235 
L 206.450229 52.751573 
L 206.91671 52.623744 
L 208.861326 52.087548 
L 210.805942 51.537746 
L 211.425651 51.360499 
L 212.750557 50.983134 
L 214.695173 50.416766 
L 216.190818 49.969424 
L 216.639789 49.835817 
L 218.584405 49.247948 
L 220.529021 48.637905 
L 220.71585 48.57835 
L 222.473637 48.021391 
L 224.418253 47.380574 
L 224.990269 47.187275 
L 226.362869 46.727009 
L 228.307485 46.049399 
L 229.012002 45.796201 
L 230.2521 45.354911 
L 232.196716 44.634284 
L 232.795047 44.405127 
L 234.141332 43.895987 
L 236.085948 43.126162 
L 236.360437 43.014052 
L 238.030564 42.342783 
L 239.734172 41.622978 
L 239.97518 41.523121 
L 241.919796 40.690716 
L 242.943538 40.231903 
L 243.864412 39.829065 
L 245.809028 38.939618 
L 246.017599 38.840829 
L 247.753643 38.042591 
L 248.984231 37.449754 
L 249.698259 37.117363 
L 251.642875 36.174173 
L 251.872799 36.05868 
L 253.587491 35.231877 
L 254.709184 34.667606 
L 255.532107 34.272133 
L 257.476723 33.30052 
L 257.523325 33.276531 
L 259.421339 32.349929 
L 260.338731 31.885457 
L 261.365955 31.394399 
L 263.188008 30.494382 
L 263.310571 30.437444 
L 265.255186 29.514004 
L 266.096755 29.103308 
L 267.199802 28.600285 
L 269.10177 27.712234 
L 269.144418 27.693673 
L 271.089034 26.836009 
L 272.236593 26.321159 
L 273.03365 25.989438 
L 274.978266 25.172011 
L 275.549385 24.930085 
L 276.922882 24.392284 
L 278.867498 23.628825 
L 279.096315 23.53901 
L 280.812114 22.917749 
L 282.756729 22.218734 
L 282.955317 22.147936 
L 284.701345 21.573926 
L 286.645961 20.946036 
L 287.242845 20.756861 
L 288.590577 20.362436 
L 290.535193 19.808717 
L 292.144493 19.365787 
L 292.479809 19.280316 
L 294.424425 18.800925 
L 296.369041 18.344011 
L 298.027186 17.974713 
L 298.313657 17.915375 
L 300.258272 17.532887 
L 302.202888 17.176307 
L 304.147504 16.84711 
L 305.849612 16.583638 
L 306.09212 16.548472 
L 308.036736 16.291024 
L 309.981352 16.062126 
L 311.925968 15.86261 
L 313.870584 15.693181 
L 315.8152 15.554435 
L 317.759815 15.446871 
L 319.704431 15.370917 
L 321.649047 15.326953 
L 323.593663 15.315337 
L 325.538279 15.336426 
L 327.482895 15.390593 
L 329.427511 15.478241 
L 331.372127 15.599806 
L 333.316743 15.75575 
L 335.261358 15.946551 
L 337.205974 16.17268 
L 339.15059 16.434575 
L 340.123575 16.583638 
L 341.095206 16.738966 
L 343.039822 17.088294 
L 344.984438 17.47677 
L 346.929054 17.904608 
L 347.221962 17.974713 
L 348.87367 18.392084 
L 350.818286 18.925738 
L 352.306284 19.365787 
L 352.762901 19.509673 
L 354.707517 20.1647 
L 356.354881 20.756861 
L 356.652133 20.871838 
L 358.596749 21.666576 
L 359.713911 22.147936 
L 360.541365 22.535255 
L 362.485981 23.489026 
L 362.583954 23.53901 
L 364.430597 24.571043 
L 365.050556 24.930085 
L 366.375213 25.777697 
L 367.200281 26.321159 
L 368.319829 27.142762 
L 369.07843 27.712234 
L 370.264444 28.71199 
L 370.720898 29.103308 
L 372.155363 30.494382 
L 372.20906 30.554152 
L 373.39515 31.885457 
L 374.153676 32.866903 
L 374.468856 33.276531 
L 375.381687 34.667606 
L 376.098292 35.959524 
L 376.153345 36.05868 
L 376.781925 37.449754 
L 377.285667 38.840829 
L 377.67046 40.231903 
L 377.941767 41.622978 
L 378.042908 42.495344 
L 378.103436 43.014052 
L 378.161568 44.405127 
L 378.12323 45.796201 
L 378.042908 46.667542 
L 377.992403 47.187275 
L 377.771304 48.57835 
L 377.467387 49.969424 
L 377.086641 51.360499 
L 376.635483 52.751573 
L 376.120735 54.142647 
L 376.098292 54.198725 
L 375.532308 55.533722 
L 374.891919 56.924796 
L 374.2082 58.315871 
L 374.153676 58.423666 
L 373.466531 59.706945 
L 372.694375 61.098019 
L 372.20906 61.956631 
L 371.890857 62.489094 
L 371.057117 63.880168 
L 370.264444 65.195924 
L 370.216576 65.271243 
L 369.349601 66.662317 
L 368.492272 68.053392 
L 368.319829 68.341395 
L 367.626431 69.444466 
L 366.777072 70.83554 
L 366.375213 71.519185 
L 365.940127 72.226615 
L 365.122067 73.617689 
L 364.430597 74.849811 
L 364.337598 75.008764 
L 363.569701 76.399838 
L 362.844936 77.790912 
L 362.485981 78.525476 
L 362.153258 79.181987 
L 361.49587 80.573061 
L 360.88468 81.964136 
L 360.541365 82.80823 
L 360.311698 83.35521 
L 359.77377 84.746285 
L 359.280283 86.137359 
L 358.829234 87.528433 
L 358.596749 88.315207 
L 358.4133 88.919508 
L 358.030125 90.310582 
L 357.684123 91.701657 
L 357.372792 93.092731 
L 357.093658 94.483805 
L 356.844297 95.87488 
L 356.652133 97.078857 
L 356.621595 97.265954 
L 356.419891 98.657029 
L 356.241909 100.048103 
L 356.085488 101.439178 
L 355.948587 102.830252 
L 355.829291 104.221326 
L 355.72581 105.612401 
L 355.636479 107.003475 
L 355.559752 108.39455 
L 355.494206 109.785624 
L 355.438531 111.176698 
L 355.391527 112.567773 
L 355.352102 113.958847 
L 355.319265 115.349922 
L 355.29212 116.740996 
L 355.269863 118.13207 
L 355.251774 119.523145 
L 355.237212 120.914219 
L 355.225613 122.305294 
L 355.216478 123.696368 
L 355.209376 125.087443 
L 355.20393 126.478517 
L 355.199819 127.869591 
L 355.19677 129.260666 
L 355.194553 130.65174 
L 355.192976 132.042815 
L 355.191883 133.433889 
L 355.191148 134.824963 
L 355.190671 136.216038 
L 355.190374 137.607112 
L 355.190198 138.998187 
L 355.1901 140.389261 
L 355.19005 141.780336 
L 355.190026 143.17141 
L 355.190017 144.562484 
L 355.190014 145.953559 
L 355.190013 147.344633 
L 355.190013 148.735708 
L 355.190013 150.126782 
L 355.190013 151.517856 
L 355.190013 152.908931 
L 355.190013 154.300005 
L 355.190014 155.69108 
L 355.190017 157.082154 
L 355.190026 158.473228 
L 355.19005 159.864303 
L 355.1901 161.255377 
L 355.190198 162.646452 
L 355.190374 164.037526 
L 355.190671 165.428601 
L 355.191148 166.819675 
L 355.191883 168.210749 
L 355.192976 169.601824 
L 355.194553 170.992898 
L 355.19677 172.383973 
L 355.199819 173.775047 
L 355.20393 175.166121 
L 355.209376 176.557196 
L 355.216478 177.94827 
L 355.225613 179.339345 
L 355.237212 180.730419 
L 355.251774 182.121494 
L 355.269863 183.512568 
L 355.29212 184.903642 
L 355.319265 186.294717 
L 355.352102 187.685791 
L 355.391527 189.076866 
L 355.438531 190.46794 
L 355.494206 191.859014 
L 355.559752 193.250089 
L 355.636479 194.641163 
L 355.72581 196.032238 
L 355.829291 197.423312 
L 355.948587 198.814387 
L 356.085488 200.205461 
L 356.241909 201.596535 
L 356.419891 202.98761 
L 356.621595 204.378684 
L 356.652133 204.565782 
L 356.844297 205.769759 
L 357.093658 207.160833 
L 357.372792 208.551907 
L 357.684123 209.942982 
L 358.030125 211.334056 
L 358.4133 212.725131 
L 358.596749 213.329432 
L 358.829234 214.116205 
L 359.280283 215.507279 
L 359.77377 216.898354 
L 360.311698 218.289428 
L 360.541365 218.836409 
L 360.88468 219.680503 
L 361.49587 221.071577 
L 362.153258 222.462652 
L 362.485981 223.119162 
L 362.844936 223.853726 
L 363.569701 225.2448 
L 364.337598 226.635875 
L 364.430597 226.794827 
L 365.122067 228.026949 
L 365.940127 229.418024 
L 366.375213 230.125453 
L 366.777072 230.809098 
L 367.626431 232.200172 
L 368.319829 233.303243 
L 368.492272 233.591247 
L 369.349601 234.982321 
L 370.216576 236.373396 
L 370.264444 236.448714 
L 371.057117 237.76447 
L 371.890857 239.155545 
L 372.20906 239.688008 
L 372.694375 240.546619 
L 373.466531 241.937693 
L 374.153676 243.220972 
L 374.2082 243.328768 
L 374.891919 244.719842 
L 375.532308 246.110917 
L 376.098292 247.445913 
L 376.120735 247.501991 
L 376.635483 248.893065 
L 377.086641 250.28414 
L 377.467387 251.675214 
L 377.771304 253.066289 
L 377.992403 254.457363 
L 378.042908 254.977097 
L 378.12323 255.848437 
L 378.161568 257.239512 
L 378.103436 258.630586 
L 378.042908 259.149294 
L 377.941767 260.021661 
L 377.67046 261.412735 
L 377.285667 262.80381 
L 376.781925 264.194884 
L 376.153345 265.585958 
L 376.098292 265.685114 
L 375.381687 266.977033 
L 374.468856 268.368107 
L 374.153676 268.777735 
L 373.39515 269.759182 
L 372.20906 271.090487 
L 372.155363 271.150256 
L 370.720898 272.54133 
L 370.264444 272.932648 
L 369.07843 273.932405 
L 368.319829 274.501876 
L 367.200281 275.323479 
L 366.375213 275.866941 
L 365.050556 276.714554 
L 364.430597 277.073596 
L 362.583954 278.105628 
L 362.485981 278.155612 
L 360.541365 279.109383 
L 359.713911 279.496703 
L 358.596749 279.978062 
L 356.652133 280.772801 
L 356.354881 280.887777 
L 354.707517 281.479938 
L 352.762901 282.134966 
L 352.306284 282.278851 
L 350.818286 282.7189 
L 348.87367 283.252555 
L 347.221962 283.669926 
L 346.929054 283.74003 
L 344.984438 284.167869 
L 343.039822 284.556344 
L 341.095206 284.905672 
L 340.123575 285.061 
L 339.15059 285.210063 
L 337.205974 285.471959 
L 335.261358 285.698087 
L 333.316743 285.888888 
L 331.372127 286.044832 
L 329.427511 286.166397 
L 327.482895 286.254046 
L 325.538279 286.308213 
L 323.593663 286.329301 
L 321.649047 286.317685 
L 319.704431 286.273722 
L 317.759815 286.197768 
L 315.8152 286.090203 
L 313.870584 285.951457 
L 311.925968 285.782029 
L 309.981352 285.582513 
L 308.036736 285.353614 
L 306.09212 285.096166 
z
" clip-path="url(#pbfccbeb5f6)" style="fill: none; stroke: #e21a1a; stroke-width: 2"/>
   </g>
   <g id="text_21">
    <!-- RK4 -->
    <g style="fill: #e21a1a" transform="translate(210.076711 150.822319) scale(0.18 -0.18)">
     <defs>
      <path id="CMUBright-Roman-34" d="M 186 1158 
L 186 1504 
L 1952 4250 
L 2438 4250 
L 2438 1498 
L 3168 1498 
L 3168 1158 
L 2438 1158 
L 2438 0 
L 2035 0 
L 2035 1158 
L 186 1158 
z
M 602 1498 
L 2054 1498 
L 2054 3885 
Q 1971 3667 1606 3085 
L 602 1498 
z
" transform="scale(0.015625)"/>
     </defs>
     <use xlink:href="#CMUBright-Roman-52"/>
     <use xlink:href="#CMUBright-Roman-4b" x="67.099991"/>
     <use xlink:href="#CMUBright-Roman-34" x="137.499985"/>
    </g>
   </g>
  </g>
 </g>
 <defs>
  <clipPath id="pbfccbeb5f6">
   <rect x="64.95975" y="12.410415" width="386.978562" height="276.823808"/>
  </clipPath>
 </defs>
</svg>