<?xml version="1.0" encoding="utf-8" standalone="no"?>
<!DOCTYPE svg PUBLIC "-//W3C//DTD SVG 1.1//EN"
  "http://www.w3.org/Graphics/SVG/1.1/DTD/svg11.dtd">
<svg xmlns:xlink="http://www.w3.org/1999/xlink" width="872.39952pt" height="441.079236pt" viewBox="0 0 872.39952 441.079236" xmlns="http://www.w3.org/2000/svg" version="1.1">
 <metadata>
  <rdf:RDF xmlns:dc="http://purl.org/dc/elements/1.1/" xmlns:cc="http://creativecommons.org/ns#" xmlns:rdf="http://www.w3.org/1999/02/22-rdf-syntax-ns#">
   <cc:Work>
    <dc:type rdf:resource="http://purl.org/dc/dcmitype/StillImage"/>
    <dc:date>2023-09-20T20:32:18.563035</dc:date>
    <dc:format>image/svg+xml</dc:format>
    <dc:creator>
     <cc:Agent>
      <dc:title>Matplotlib v3.8.0, https://matplotlib.org/</dc:title>
     </cc:Agent>
    </dc:creator>
   </cc:Work>
  </rdf:RDF>
 </metadata>
 <defs>
  <style type="text/css">*{stroke-linejoin: round; stroke-linecap: butt}</style>
 </defs>
 <g id="figure_1">
  <g id="patch_1">
   <path d="M 0 441.079236 
L 872.39952 441.079236 
L 872.39952 0 
L 0 0 
z
" style="fill: #ffffff"/>
  </g>
  <g id="axes_1">
   <g id="patch_2">
    <path d="M 78.205163 376.457377 
L 443.638041 376.457377 
L 443.638041 62.159507 
L 78.205163 62.159507 
z
" style="fill: #ffffff"/>
   </g>
   <g id="matplotlib.axis_1">
    <g id="xtick_1">
     <g id="line2d_1">
      <defs>
       <path id="md7a85e7e30" d="M 0 0 
L 0 3.5 
" style="stroke: #5a5758; stroke-width: 0.8"/>
      </defs>
      <g>
       <use xlink:href="#md7a85e7e30" x="78.205163" y="388.457377" style="fill: #5a5758; stroke: #5a5758; stroke-width: 0.8"/>
      </g>
     </g>
     <g id="text_1">
      <!-- 0 -->
      <g style="fill: #5a5758" transform="translate(74.269238 405.878207) scale(0.14994 -0.14994)">
       <defs>
        <path id="CMUBright-Roman-30" d="M 333 1984 
L 333 2086 
Q 333 2291 339 2438 
Q 346 2586 371 2832 
Q 397 3078 461 3267 
Q 525 3456 621 3657 
Q 717 3859 880 4006 
Q 1043 4154 1261 4230 
Q 1446 4301 1677 4301 
Q 1856 4301 2025 4256 
Q 2195 4211 2380 4070 
Q 2566 3930 2704 3709 
Q 2842 3488 2931 3104 
Q 3021 2720 3021 2214 
Q 3021 1683 2982 1347 
Q 2944 1011 2803 685 
Q 2618 250 2307 70 
Q 1997 -109 1677 -109 
Q 1498 -109 1328 -64 
Q 1158 -19 972 121 
Q 787 262 649 483 
Q 512 704 422 1091 
Q 333 1478 333 1984 
z
M 742 2413 
Q 742 2374 745 2326 
Q 749 2278 749 2272 
L 749 2150 
Q 749 1779 758 1548 
Q 768 1318 838 1014 
Q 909 710 1037 538 
Q 1286 218 1677 218 
Q 2086 218 2330 557 
Q 2451 730 2518 1037 
Q 2586 1344 2595 1568 
Q 2605 1792 2605 2163 
L 2605 2272 
Q 2605 2278 2608 2323 
Q 2611 2368 2611 2406 
Q 2611 3302 2336 3661 
Q 2099 3981 1677 3981 
Q 1242 3981 1005 3642 
Q 742 3264 742 2413 
z
" transform="scale(0.015625)"/>
       </defs>
       <use xlink:href="#CMUBright-Roman-30"/>
      </g>
     </g>
    </g>
    <g id="xtick_2">
     <g id="line2d_2">
      <g>
       <use xlink:href="#md7a85e7e30" x="160.844891" y="388.457377" style="fill: #5a5758; stroke: #5a5758; stroke-width: 0.8"/>
      </g>
     </g>
     <g id="text_2">
      <!-- 1000 -->
      <g style="fill: #5a5758" transform="translate(145.101191 405.878207) scale(0.14994 -0.14994)">
       <defs>
        <path id="CMUBright-Roman-31" d="M 672 3558 
L 672 3885 
Q 1427 3885 1862 4301 
L 1965 4301 
L 1965 320 
L 2803 320 
L 2803 0 
L 710 0 
L 710 320 
L 1549 320 
L 1549 3744 
Q 1178 3558 672 3558 
z
" transform="scale(0.015625)"/>
       </defs>
       <use xlink:href="#CMUBright-Roman-31"/>
       <use xlink:href="#CMUBright-Roman-30" x="52.499985"/>
       <use xlink:href="#CMUBright-Roman-30" x="104.999969"/>
       <use xlink:href="#CMUBright-Roman-30" x="157.499954"/>
      </g>
     </g>
    </g>
    <g id="xtick_3">
     <g id="line2d_3">
      <g>
       <use xlink:href="#md7a85e7e30" x="243.484619" y="388.457377" style="fill: #5a5758; stroke: #5a5758; stroke-width: 0.8"/>
      </g>
     </g>
     <g id="text_3">
      <!-- 2000 -->
      <g style="fill: #5a5758" transform="translate(227.740919 405.878207) scale(0.14994 -0.14994)">
       <defs>
        <path id="CMUBright-Roman-32" d="M 275 3226 
Q 595 4301 1587 4301 
L 1594 4301 
Q 2214 4294 2617 3923 
Q 3021 3552 3021 2989 
Q 3021 2746 2937 2531 
Q 2854 2317 2668 2115 
Q 2483 1914 2384 1821 
Q 2285 1728 2061 1549 
Q 1754 1299 1642 1203 
Q 1530 1107 698 358 
L 3021 358 
L 3021 0 
L 333 0 
L 333 339 
L 1683 1562 
Q 2144 1965 2368 2278 
Q 2592 2592 2592 2982 
Q 2592 3418 2278 3690 
Q 1965 3962 1498 3962 
Q 1069 3962 854 3693 
Q 640 3424 512 2938 
L 275 3226 
z
" transform="scale(0.015625)"/>
       </defs>
       <use xlink:href="#CMUBright-Roman-32"/>
       <use xlink:href="#CMUBright-Roman-30" x="52.499985"/>
       <use xlink:href="#CMUBright-Roman-30" x="104.999969"/>
       <use xlink:href="#CMUBright-Roman-30" x="157.499954"/>
      </g>
     </g>
    </g>
    <g id="xtick_4">
     <g id="line2d_4">
      <g>
       <use xlink:href="#md7a85e7e30" x="326.124348" y="388.457377" style="fill: #5a5758; stroke: #5a5758; stroke-width: 0.8"/>
      </g>
     </g>
     <g id="text_4">
      <!-- 3000 -->
      <g style="fill: #5a5758" transform="translate(310.380648 405.878207) scale(0.14994 -0.14994)">
       <defs>
        <path id="CMUBright-Roman-33" d="M 282 653 
Q 282 666 285 685 
Q 288 704 304 774 
Q 320 845 339 941 
Q 557 640 861 464 
Q 1165 288 1341 256 
Q 1517 224 1683 224 
Q 2112 224 2368 486 
Q 2624 749 2624 1165 
Q 2624 1574 2381 1824 
Q 2138 2074 1773 2099 
L 1555 2106 
L 1114 2106 
L 1114 2426 
Q 1709 2470 1862 2528 
Q 2099 2618 2281 2838 
Q 2464 3059 2464 3360 
Q 2464 3642 2256 3811 
Q 2048 3981 1702 3981 
Q 973 3981 570 3258 
L 371 3539 
Q 845 4301 1702 4301 
Q 2202 4301 2544 4025 
Q 2886 3750 2886 3360 
Q 2886 3059 2704 2761 
Q 2522 2464 2106 2272 
Q 2579 2144 2825 1833 
Q 3072 1523 3072 1158 
Q 3072 666 2685 278 
Q 2298 -109 1690 -109 
Q 1402 -109 1126 -9 
Q 851 90 675 221 
Q 499 352 390 473 
Q 282 595 282 653 
z
" transform="scale(0.015625)"/>
       </defs>
       <use xlink:href="#CMUBright-Roman-33"/>
       <use xlink:href="#CMUBright-Roman-30" x="52.499985"/>
       <use xlink:href="#CMUBright-Roman-30" x="104.999969"/>
       <use xlink:href="#CMUBright-Roman-30" x="157.499954"/>
      </g>
     </g>
    </g>
    <g id="xtick_5">
     <g id="line2d_5">
      <g>
       <use xlink:href="#md7a85e7e30" x="408.764076" y="388.457377" style="fill: #5a5758; stroke: #5a5758; stroke-width: 0.8"/>
      </g>
     </g>
     <g id="text_5">
      <!-- 4000 -->
      <g style="fill: #5a5758" transform="translate(393.020376 405.878207) scale(0.14994 -0.14994)">
       <defs>
        <path id="CMUBright-Roman-34" d="M 186 1158 
L 186 1504 
L 1952 4250 
L 2438 4250 
L 2438 1498 
L 3168 1498 
L 3168 1158 
L 2438 1158 
L 2438 0 
L 2035 0 
L 2035 1158 
L 186 1158 
z
M 602 1498 
L 2054 1498 
L 2054 3885 
Q 1971 3667 1606 3085 
L 602 1498 
z
" transform="scale(0.015625)"/>
       </defs>
       <use xlink:href="#CMUBright-Roman-34"/>
       <use xlink:href="#CMUBright-Roman-30" x="52.499985"/>
       <use xlink:href="#CMUBright-Roman-30" x="104.999969"/>
       <use xlink:href="#CMUBright-Roman-30" x="157.499954"/>
      </g>
     </g>
    </g>
    <g id="text_6">
     <!-- Iterations -->
     <g style="fill: #5a5758" transform="translate(224.893477 428.892673) scale(0.18 -0.18)">
      <defs>
       <path id="CMUBright-SemiBold-49" d="M 512 0 
L 512 4448 
L 1184 4448 
L 1184 0 
L 512 0 
z
" transform="scale(0.015625)"/>
       <path id="CMUBright-SemiBold-74" d="M 122 2541 
L 122 3021 
L 646 3021 
L 646 3885 
L 1222 3885 
L 1222 3021 
L 2118 3021 
L 2118 2541 
L 1222 2541 
L 1222 1075 
Q 1222 448 1555 448 
Q 1805 448 2106 672 
L 2234 211 
Q 1754 -51 1197 -51 
Q 634 -51 634 1005 
L 634 2541 
L 122 2541 
z
" transform="scale(0.015625)"/>
       <path id="CMUBright-SemiBold-65" d="M 186 1530 
Q 186 2189 605 2646 
Q 1024 3104 1606 3104 
Q 1766 3104 1920 3069 
Q 2074 3034 2243 2931 
Q 2413 2829 2534 2669 
Q 2656 2509 2739 2233 
Q 2822 1958 2822 1600 
L 762 1600 
L 762 1536 
Q 762 1062 1040 745 
Q 1318 429 1709 429 
Q 2240 429 2739 794 
L 2784 275 
Q 2278 -51 1709 -51 
Q 1043 -51 614 419 
Q 186 890 186 1530 
z
M 838 1978 
L 2298 1978 
Q 2144 2618 1600 2618 
Q 1363 2618 1148 2448 
Q 934 2278 838 1978 
z
" transform="scale(0.015625)"/>
       <path id="CMUBright-SemiBold-72" d="M 416 0 
L 416 3021 
L 992 3021 
L 992 2368 
Q 1370 3059 2112 3072 
L 2112 2528 
Q 1939 2528 1769 2480 
Q 1600 2432 1421 2326 
Q 1242 2221 1130 2013 
Q 1018 1805 1018 1517 
L 1018 0 
L 416 0 
z
" transform="scale(0.015625)"/>
       <path id="CMUBright-SemiBold-61" d="M 250 851 
Q 250 1274 771 1498 
Q 1293 1722 2112 1747 
L 2112 1971 
Q 2112 2234 2048 2355 
Q 1894 2650 1568 2650 
Q 1242 2643 1037 2566 
Q 832 2490 557 2291 
L 512 2829 
Q 1043 3104 1581 3104 
Q 2061 3104 2377 2822 
Q 2694 2541 2726 2144 
L 2733 1933 
L 2733 0 
L 2131 0 
L 2131 230 
L 2125 410 
Q 1946 186 1648 67 
Q 1350 -51 1043 -51 
Q 666 -51 458 233 
Q 250 518 250 851 
z
M 845 864 
Q 845 672 1008 550 
Q 1171 429 1408 429 
Q 1626 429 1811 525 
Q 1997 621 2074 781 
Q 2112 864 2112 1043 
L 2112 1446 
Q 1523 1421 1184 1270 
Q 845 1120 845 864 
z
" transform="scale(0.015625)"/>
       <path id="CMUBright-SemiBold-69" d="M 414 3859 
L 414 4461 
L 1016 4461 
L 1016 3859 
L 414 3859 
z
M 416 0 
L 416 3021 
L 1018 3021 
L 1018 0 
L 416 0 
z
" transform="scale(0.015625)"/>
       <path id="CMUBright-SemiBold-6f" d="M 630 390 
Q 186 832 186 1504 
Q 186 2176 627 2637 
Q 1069 3098 1677 3098 
Q 2310 3098 2739 2618 
Q 3168 2138 3168 1498 
Q 3168 838 2726 393 
Q 2285 -51 1677 -51 
Q 1075 -51 630 390 
z
M 800 1594 
Q 800 998 1037 717 
Q 1267 448 1677 448 
Q 2061 448 2291 685 
Q 2554 954 2554 1606 
Q 2554 2150 2307 2384 
Q 2061 2618 1677 2618 
Q 800 2618 800 1594 
z
" transform="scale(0.015625)"/>
       <path id="CMUBright-SemiBold-6e" d="M 410 0 
L 410 3021 
L 998 3021 
L 998 2714 
L 1005 2496 
Q 1344 3072 1971 3072 
Q 2227 3072 2409 2995 
Q 2592 2918 2681 2816 
Q 2771 2714 2822 2547 
Q 2874 2381 2880 2275 
Q 2886 2170 2886 2016 
L 2886 0 
L 2272 0 
L 2272 2022 
Q 2272 2131 2259 2204 
Q 2246 2278 2192 2380 
Q 2138 2483 2000 2537 
Q 1862 2592 1651 2592 
Q 1453 2592 1315 2493 
Q 1178 2394 1120 2237 
Q 1062 2080 1043 1961 
Q 1024 1843 1024 1728 
L 1024 0 
L 410 0 
z
" transform="scale(0.015625)"/>
       <path id="CMUBright-SemiBold-73" d="M 186 250 
L 282 800 
Q 787 448 1318 448 
Q 1613 448 1737 569 
Q 1862 691 1862 838 
Q 1862 986 1753 1078 
Q 1645 1171 1517 1206 
Q 1389 1242 1190 1280 
Q 992 1318 902 1350 
Q 634 1440 429 1661 
Q 224 1882 224 2202 
Q 224 2349 269 2486 
Q 314 2624 422 2774 
Q 531 2925 764 3014 
Q 998 3104 1331 3104 
Q 1818 3104 2323 2886 
L 2227 2362 
Q 1747 2624 1261 2624 
Q 998 2624 889 2515 
Q 781 2406 781 2272 
Q 781 2170 857 2077 
Q 934 1984 1062 1939 
Q 1069 1939 1408 1865 
Q 1747 1792 1914 1702 
Q 2419 1421 2419 890 
Q 2419 525 2172 237 
Q 1926 -51 1325 -51 
Q 730 -51 186 250 
z
" transform="scale(0.015625)"/>
      </defs>
      <use xlink:href="#CMUBright-SemiBold-49"/>
      <use xlink:href="#CMUBright-SemiBold-74" x="26.699997"/>
      <use xlink:href="#CMUBright-SemiBold-65" x="64.599991"/>
      <use xlink:href="#CMUBright-SemiBold-72" x="111.699982"/>
      <use xlink:href="#CMUBright-SemiBold-61" x="146.299973"/>
      <use xlink:href="#CMUBright-SemiBold-74" x="195.499969"/>
      <use xlink:href="#CMUBright-SemiBold-69" x="233.399963"/>
      <use xlink:href="#CMUBright-SemiBold-6f" x="255.899948"/>
      <use xlink:href="#CMUBright-SemiBold-6e" x="308.399933"/>
      <use xlink:href="#CMUBright-SemiBold-73" x="360.09993"/>
     </g>
    </g>
   </g>
   <g id="matplotlib.axis_2">
    <g id="ytick_1">
     <g id="line2d_6">
      <defs>
       <path id="m897b2c7b16" d="M 0 0 
L -3.5 0 
" style="stroke: #5a5758; stroke-width: 0.8"/>
      </defs>
      <g>
       <use xlink:href="#m897b2c7b16" x="66.205163" y="330.806694" style="fill: #5a5758; stroke: #5a5758; stroke-width: 0.8"/>
      </g>
     </g>
     <g id="text_7">
      <!-- $\mathdefault{10^{-2}}$ -->
      <g style="fill: #5a5758" transform="translate(30.716563 336.017109) scale(0.14994 -0.14994)">
       <defs>
        <path id="CMUBright-Roman-2212" d="M 378 1690 
Q 378 1856 602 1856 
L 3526 1856 
Q 3725 1850 3725 1690 
Q 3725 1530 3520 1530 
L 582 1530 
Q 378 1530 378 1690 
z
" transform="scale(0.015625)"/>
       </defs>
       <use xlink:href="#CMUBright-Roman-31" transform="translate(0 0.915625)"/>
       <use xlink:href="#CMUBright-Roman-30" transform="translate(52.499985 0.915625)"/>
       <use xlink:href="#CMUBright-Roman-2212" transform="translate(105.826024 33.957813) scale(0.7)"/>
       <use xlink:href="#CMUBright-Roman-32" transform="translate(150.766022 33.957813) scale(0.7)"/>
      </g>
     </g>
    </g>
    <g id="ytick_2">
     <g id="line2d_7">
      <g>
       <use xlink:href="#m897b2c7b16" x="66.205163" y="277.077256" style="fill: #5a5758; stroke: #5a5758; stroke-width: 0.8"/>
      </g>
     </g>
     <g id="text_8">
      <!-- $\mathdefault{10^{0}}$ -->
      <g style="fill: #5a5758" transform="translate(37.463863 282.287671) scale(0.14994 -0.14994)">
       <use xlink:href="#CMUBright-Roman-31" transform="translate(0 0.915625)"/>
       <use xlink:href="#CMUBright-Roman-30" transform="translate(52.499985 0.915625)"/>
       <use xlink:href="#CMUBright-Roman-30" transform="translate(105.826024 33.957813) scale(0.7)"/>
      </g>
     </g>
    </g>
    <g id="ytick_3">
     <g id="line2d_8">
      <g>
       <use xlink:href="#m897b2c7b16" x="66.205163" y="223.347819" style="fill: #5a5758; stroke: #5a5758; stroke-width: 0.8"/>
      </g>
     </g>
     <g id="text_9">
      <!-- $\mathdefault{10^{2}}$ -->
      <g style="fill: #5a5758" transform="translate(37.463863 228.558234) scale(0.14994 -0.14994)">
       <use xlink:href="#CMUBright-Roman-31" transform="translate(0 0.915625)"/>
       <use xlink:href="#CMUBright-Roman-30" transform="translate(52.499985 0.915625)"/>
       <use xlink:href="#CMUBright-Roman-32" transform="translate(105.826024 33.957813) scale(0.7)"/>
      </g>
     </g>
    </g>
    <g id="ytick_4">
     <g id="line2d_9">
      <g>
       <use xlink:href="#m897b2c7b16" x="66.205163" y="169.618381" style="fill: #5a5758; stroke: #5a5758; stroke-width: 0.8"/>
      </g>
     </g>
     <g id="text_10">
      <!-- $\mathdefault{10^{4}}$ -->
      <g style="fill: #5a5758" transform="translate(37.463863 174.828796) scale(0.14994 -0.14994)">
       <use xlink:href="#CMUBright-Roman-31" transform="translate(0 0.473438)"/>
       <use xlink:href="#CMUBright-Roman-30" transform="translate(52.499985 0.473438)"/>
       <use xlink:href="#CMUBright-Roman-34" transform="translate(105.826024 33.515625) scale(0.7)"/>
      </g>
     </g>
    </g>
    <g id="ytick_5">
     <g id="line2d_10">
      <g>
       <use xlink:href="#m897b2c7b16" x="66.205163" y="115.888944" style="fill: #5a5758; stroke: #5a5758; stroke-width: 0.8"/>
      </g>
     </g>
     <g id="text_11">
      <!-- $\mathdefault{10^{6}}$ -->
      <g style="fill: #5a5758" transform="translate(37.463863 121.099359) scale(0.14994 -0.14994)">
       <defs>
        <path id="CMUBright-Roman-36" d="M 346 2061 
Q 346 3072 864 3686 
Q 1382 4301 2074 4301 
L 2086 4301 
Q 2426 4301 2797 4179 
L 2797 3846 
Q 2374 3981 2074 3981 
L 2061 3981 
Q 1478 3981 1123 3491 
Q 768 3002 768 2208 
Q 768 2195 771 2166 
Q 774 2138 774 2125 
Q 928 2445 1238 2665 
Q 1549 2886 1952 2886 
Q 2387 2886 2682 2483 
Q 3008 2029 3008 1408 
Q 3008 768 2618 326 
Q 2240 -109 1690 -109 
Q 1510 -109 1340 -57 
Q 1171 -6 985 141 
Q 800 288 662 521 
Q 525 755 435 1152 
Q 346 1549 346 2061 
z
M 794 1389 
Q 813 1171 854 1004 
Q 896 838 985 643 
Q 1075 448 1254 336 
Q 1434 224 1690 224 
Q 2138 224 2381 550 
Q 2515 736 2550 921 
Q 2586 1107 2586 1434 
Q 2586 1645 2573 1776 
Q 2560 1907 2480 2089 
Q 2400 2272 2253 2400 
Q 2054 2566 1728 2566 
Q 1325 2566 1062 2265 
Q 800 1965 800 1555 
Q 800 1440 806 1389 
L 794 1389 
z
" transform="scale(0.015625)"/>
       </defs>
       <use xlink:href="#CMUBright-Roman-31" transform="translate(0 0.915625)"/>
       <use xlink:href="#CMUBright-Roman-30" transform="translate(52.499985 0.915625)"/>
       <use xlink:href="#CMUBright-Roman-36" transform="translate(105.826024 33.957813) scale(0.7)"/>
      </g>
     </g>
    </g>
    <g id="ytick_6">
     <g id="line2d_11">
      <g>
       <use xlink:href="#m897b2c7b16" x="66.205163" y="62.159507" style="fill: #5a5758; stroke: #5a5758; stroke-width: 0.8"/>
      </g>
     </g>
     <g id="text_12">
      <!-- $\mathdefault{10^{8}}$ -->
      <g style="fill: #5a5758" transform="translate(37.463863 67.369922) scale(0.14994 -0.14994)">
       <defs>
        <path id="CMUBright-Roman-38" d="M 275 1158 
Q 275 1517 518 1817 
Q 762 2118 1248 2266 
Q 909 2349 640 2598 
Q 371 2848 371 3206 
Q 371 3642 745 3971 
Q 1120 4301 1677 4301 
Q 2221 4301 2601 3981 
Q 2982 3661 2982 3213 
Q 2982 2918 2787 2684 
Q 2592 2451 2285 2323 
L 2099 2266 
Q 2464 2176 2768 1885 
Q 3072 1594 3072 1158 
Q 3072 646 2665 268 
Q 2259 -109 1670 -109 
Q 1075 -109 675 275 
Q 275 659 275 1158 
z
M 698 1158 
Q 698 704 970 464 
Q 1242 224 1670 224 
Q 2118 224 2384 470 
Q 2650 717 2650 1165 
Q 2650 1619 2371 1862 
Q 2093 2106 1670 2106 
Q 1280 2106 989 1878 
Q 698 1651 698 1158 
z
M 755 3206 
Q 755 2886 982 2656 
Q 1210 2426 1670 2426 
Q 2093 2426 2342 2634 
Q 2592 2842 2592 3206 
Q 2592 3507 2387 3744 
Q 2182 3981 1683 3981 
Q 1171 3981 963 3744 
Q 755 3507 755 3206 
z
" transform="scale(0.015625)"/>
       </defs>
       <use xlink:href="#CMUBright-Roman-31" transform="translate(0 0.915625)"/>
       <use xlink:href="#CMUBright-Roman-30" transform="translate(52.499985 0.915625)"/>
       <use xlink:href="#CMUBright-Roman-38" transform="translate(105.826024 33.957813) scale(0.7)"/>
      </g>
     </g>
    </g>
    <g id="text_13">
     <!-- Residual norm -->
     <g style="fill: #5a5758" transform="translate(19.71 273.748598) rotate(-90) scale(0.18 -0.18)">
      <defs>
       <path id="CMUBright-SemiBold-52" d="M 518 0 
L 518 4448 
L 2086 4448 
Q 2803 4448 3283 4166 
Q 3571 3994 3740 3741 
Q 3910 3488 3910 3206 
Q 3910 2810 3593 2496 
Q 3277 2182 2803 2061 
L 4102 0 
L 3430 0 
L 2208 1984 
L 1171 1984 
L 1171 0 
L 518 0 
z
M 1171 2464 
L 2054 2464 
Q 2477 2464 2758 2541 
Q 3040 2618 3181 2842 
Q 3283 3002 3283 3200 
Q 3283 3558 2995 3750 
Q 2714 3936 2086 3936 
L 1178 3936 
L 1171 3725 
L 1171 2464 
z
" transform="scale(0.015625)"/>
       <path id="CMUBright-SemiBold-64" d="M 224 1517 
Q 224 2150 544 2611 
Q 864 3072 1350 3072 
Q 1856 3072 2285 2701 
L 2285 4448 
L 2886 4448 
L 2886 0 
L 2272 0 
L 2272 378 
Q 1856 -51 1344 -51 
Q 864 -51 544 409 
Q 224 870 224 1517 
z
M 838 1427 
Q 851 966 1024 730 
Q 1248 429 1670 429 
Q 1830 429 1971 505 
Q 2112 582 2157 633 
Q 2202 685 2272 774 
L 2272 2349 
Q 2042 2592 1741 2592 
Q 1331 2592 1082 2336 
Q 838 2086 838 1562 
L 838 1427 
z
" transform="scale(0.015625)"/>
       <path id="CMUBright-SemiBold-75" d="M 410 838 
L 410 3021 
L 1024 3021 
L 1024 883 
Q 1030 570 1069 506 
Q 1139 403 1510 403 
Q 1888 403 2064 601 
Q 2240 800 2266 998 
Q 2272 1062 2272 1197 
L 2272 3021 
L 2886 3021 
L 2886 0 
L 2285 0 
L 2285 480 
Q 1830 -51 1088 -51 
Q 858 -51 710 29 
Q 563 109 502 262 
Q 442 416 426 537 
Q 410 659 410 838 
z
" transform="scale(0.015625)"/>
       <path id="CMUBright-SemiBold-6c" d="M 416 0 
L 416 4448 
L 1018 4448 
L 1018 0 
L 416 0 
z
" transform="scale(0.015625)"/>
       <path id="CMUBright-SemiBold-20" transform="scale(0.015625)"/>
       <path id="CMUBright-SemiBold-6d" d="M 410 0 
L 410 3021 
L 998 3021 
L 998 2714 
L 1005 2496 
Q 1344 3072 1971 3072 
Q 2080 3072 2176 3059 
Q 2272 3046 2345 3024 
Q 2419 3002 2483 2966 
Q 2547 2931 2592 2899 
Q 2637 2867 2675 2819 
Q 2714 2771 2736 2739 
Q 2758 2707 2784 2656 
Q 2810 2605 2816 2582 
Q 2822 2560 2838 2518 
Q 2854 2477 2854 2470 
Q 3187 3072 3840 3072 
Q 4090 3072 4272 2995 
Q 4454 2918 4544 2819 
Q 4634 2720 4685 2557 
Q 4736 2394 4745 2285 
Q 4755 2176 4755 2016 
L 4755 0 
L 4141 0 
L 4141 1984 
Q 4128 2278 4045 2394 
Q 3898 2592 3507 2592 
Q 3264 2592 3078 2390 
Q 2893 2189 2893 1728 
L 2893 0 
L 2272 0 
L 2272 1984 
Q 2266 2266 2195 2374 
Q 2054 2592 1645 2592 
Q 1402 2592 1213 2390 
Q 1024 2189 1024 1728 
L 1024 0 
L 410 0 
z
" transform="scale(0.015625)"/>
      </defs>
      <use xlink:href="#CMUBright-SemiBold-52"/>
      <use xlink:href="#CMUBright-SemiBold-65" x="67.099991"/>
      <use xlink:href="#CMUBright-SemiBold-73" x="114.199982"/>
      <use xlink:href="#CMUBright-SemiBold-69" x="154.399979"/>
      <use xlink:href="#CMUBright-SemiBold-64" x="176.899963"/>
      <use xlink:href="#CMUBright-SemiBold-75" x="228.59996"/>
      <use xlink:href="#CMUBright-SemiBold-61" x="280.299957"/>
      <use xlink:href="#CMUBright-SemiBold-6c" x="329.499954"/>
      <use xlink:href="#CMUBright-SemiBold-20" x="351.999939"/>
      <use xlink:href="#CMUBright-SemiBold-6e" x="385.299927"/>
      <use xlink:href="#CMUBright-SemiBold-6f" x="436.999924"/>
      <use xlink:href="#CMUBright-SemiBold-72" x="489.499908"/>
      <use xlink:href="#CMUBright-SemiBold-6d" x="524.099899"/>
     </g>
    </g>
   </g>
   <g id="line2d_12">
    <path d="M 78.205163 376.449045 
L 443.638041 376.449045 
" style="fill: none; stroke-dasharray: 7.4,3.2; stroke-dashoffset: 0; stroke: #808080; stroke-opacity: 0.7; stroke-width: 2"/>
   </g>
   <g id="line2d_13">
    <path d="M 78.205163 295.559178 
L 78.453082 310.430477 
L 78.783641 316.80508 
L 79.279479 321.822286 
L 79.857957 325.417212 
L 80.601715 328.559214 
L 81.428112 331.08084 
L 82.419789 333.370167 
L 83.494105 335.308277 
L 84.733701 337.102833 
L 86.138576 338.758871 
L 87.791371 340.359708 
L 89.692085 341.88088 
L 91.840718 343.312581 
L 94.31991 344.695501 
L 97.2123 346.047649 
L 100.517889 347.342414 
L 104.319317 348.586513 
L 108.616583 349.754472 
L 113.574966 350.863832 
L 119.277107 351.905603 
L 126.136205 352.925534 
L 134.813376 353.979453 
L 146.382938 355.146862 
L 162.993524 356.583139 
L 189.025038 358.590032 
L 237.28664 362.053598 
L 408.764076 374.024086 
L 443.638041 376.454198 
L 443.638041 376.454198 
" style="fill: none; stroke: #e29400; stroke-width: 2; stroke-linecap: square"/>
   </g>
   <g id="line2d_14">
    <path d="M 78.205163 295.559178 
L 78.535721 318.443628 
L 78.86628 325.481164 
L 79.362119 330.827422 
L 79.940597 334.589387 
L 80.601715 337.525061 
L 81.428112 340.171446 
L 82.337149 342.350651 
L 83.411465 344.339435 
L 84.651061 346.139273 
L 86.055937 347.763675 
L 87.626092 349.229524 
L 89.444166 350.609339 
L 91.510159 351.884752 
L 93.824071 353.046358 
L 96.468542 354.12344 
L 99.608852 355.157133 
L 103.492919 356.190651 
L 108.533943 357.288056 
L 115.55832 358.573079 
L 126.136205 360.26329 
L 144.234305 362.902548 
L 194.313981 369.898333 
L 241.418626 376.457377 
L 241.418626 376.457377 
" style="fill: none; stroke: #414487; stroke-width: 2; stroke-linecap: square"/>
   </g>
   <g id="line2d_15">
    <path d="M 78.205163 295.559178 
L 78.94892 317.431822 
L 79.692678 331.674928 
L 80.188516 337.3937 
L 80.684354 340.496925 
L 81.262832 342.63196 
L 82.08923 344.734471 
L 83.080906 346.638585 
L 84.237863 348.374059 
L 85.560098 349.944871 
L 87.047613 351.357787 
L 88.700408 352.620045 
L 90.601122 353.786132 
L 92.832394 354.880861 
L 95.476866 355.921736 
L 98.865095 357.005405 
L 103.492919 358.237595 
L 110.352017 359.815559 
L 121.67366 362.166294 
L 147.539895 367.251156 
L 194.727179 376.450346 
L 194.727179 376.450346 
" style="fill: none; stroke: #2a788e; stroke-width: 2; stroke-linecap: square"/>
   </g>
   <g id="line2d_16">
    <path d="M 78.205163 295.559178 
L 78.370442 296.20221 
L 78.535721 295.179177 
L 78.94892 290.152119 
L 80.105876 272.381616 
L 83.163546 221.119506 
L 91.09696 87.329042 
L 91.675438 82.201033 
L 92.088637 80.131607 
L 92.419196 79.425382 
L 92.584475 79.380084 
L 92.749755 79.534535 
L 92.997674 80.130833 
L 93.328233 81.581682 
L 93.824071 85.085379 
L 94.402549 91.036459 
L 95.146307 101.353146 
L 96.055344 117.567764 
L 97.12966 141.163156 
L 98.369256 173.478438 
L 99.856771 218.305313 
L 101.592206 277.516274 
L 103.906118 357.585964 
L 104.154037 358.932336 
L 104.401956 359.269738 
L 104.980434 359.475302 
L 111.095774 360.969563 
L 125.557727 364.278284 
L 180.182587 376.457196 
L 180.182587 376.457196 
" style="fill: none; stroke: #22a884; stroke-width: 2; stroke-linecap: square"/>
   </g>
   <g id="line2d_17">
    <path d="M 78.205163 295.559178 
L 78.287802 293.69766 
L 78.370442 291.463846 
L 78.453082 288.558037 
L 78.535721 285.400223 
L 78.618361 282.074507 
L 78.701001 278.647169 
L 78.783641 275.146052 
L 78.86628 271.590948 
L 78.94892 267.993874 
L 79.03156 264.363484 
L 79.1142 260.705899 
L 79.196839 257.025727 
L 79.279479 253.326479 
L 79.362119 249.61091 
L 79.444758 245.881216 
L 79.527398 242.139178 
L 79.610038 238.386258 
L 79.692678 234.623675 
L 79.775317 230.852453 
L 79.857957 227.07346 
L 79.940597 223.287443 
L 80.023237 219.495041 
L 80.105876 215.696815 
L 80.188516 211.893251 
L 80.271156 208.084779 
L 80.353795 204.271778 
L 80.436435 200.454585 
L 80.519075 196.6335 
L 80.601715 192.808794 
L 80.684354 188.980709 
L 80.766994 185.149463 
L 80.849634 181.315255 
L 80.932274 177.478265 
L 81.014913 173.638657 
L 81.097553 169.796582 
L 81.180193 165.952176 
L 81.262832 162.105567 
L 81.345472 158.25687 
L 81.428112 154.406193 
L 81.510752 150.553635 
L 81.593391 146.699289 
L 81.676031 142.843239 
L 81.758671 138.985565 
L 81.841311 135.126341 
L 81.92395 131.265637 
L 82.00659 127.403516 
L 82.08923 123.540039 
L 82.171869 119.675264 
L 82.254509 115.809242 
L 82.337149 111.942024 
L 82.419789 108.073657 
L 82.502428 104.204185 
L 82.585068 100.33365 
L 82.667708 96.462091 
L 82.750348 92.589547 
L 82.832987 88.716051 
L 82.915627 84.841638 
L 82.998267 80.966339 
L 83.080906 77.090184 
L 83.163546 73.213202 
L 83.246186 69.33542 
L 83.328826 65.456864 
L 83.411465 61.577558 
L 83.494105 57.697527 
L 83.576745 53.816791 
L 83.659385 49.935374 
L 83.742024 46.053294 
L 83.824664 42.170572 
L 83.907304 38.287227 
L 83.989943 34.403275 
L 84.072583 30.518735 
L 84.155223 26.633622 
L 84.237863 22.747953 
L 84.320502 18.861741 
L 84.403142 14.975003 
L 84.485782 11.087752 
L 84.568422 7.2 
" style="fill: none; stroke: #7ad151; stroke-width: 2; stroke-linecap: square"/>
   </g>
   <g id="patch_3">
    <path d="M 66.205163 376.457377 
L 66.205163 62.159507 
" style="fill: none; stroke: #5a5758; stroke-width: 0.8; stroke-linejoin: miter; stroke-linecap: square"/>
   </g>
   <g id="patch_4">
    <path d="M 78.205163 388.457377 
L 443.638041 388.457377 
" style="fill: none; stroke: #5a5758; stroke-width: 0.8; stroke-linejoin: miter; stroke-linecap: square"/>
   </g>
   <g id="legend_1">
    <g id="line2d_18">
     <path d="M 272.818041 84.659507 
L 290.818041 84.659507 
L 308.818041 84.659507 
" style="fill: none; stroke: #e29400; stroke-width: 2; stroke-linecap: square"/>
    </g>
    <g id="text_14">
     <!-- Jacobi -->
     <g style="fill: #e29400" transform="translate(323.218041 90.959507) scale(0.18 -0.18)">
      <defs>
       <path id="CMUBright-Roman-4a" d="M 275 160 
L 346 563 
Q 819 224 1254 224 
Q 1517 224 1705 294 
Q 1894 365 1980 451 
Q 2067 538 2115 672 
Q 2163 806 2166 864 
Q 2170 922 2170 1005 
L 2170 4448 
L 2611 4448 
L 2611 992 
Q 2611 736 2540 541 
Q 2470 346 2355 224 
Q 2240 102 2083 25 
Q 1926 -51 1766 -80 
Q 1606 -109 1427 -109 
Q 864 -109 275 160 
z
" transform="scale(0.015625)"/>
       <path id="CMUBright-Roman-61" d="M 352 736 
Q 352 896 435 1046 
Q 518 1197 707 1347 
Q 896 1498 1283 1590 
Q 1670 1683 2214 1696 
L 2214 1965 
Q 2214 2381 2042 2579 
Q 1856 2803 1568 2803 
Q 1331 2803 1107 2736 
Q 883 2669 809 2624 
Q 736 2579 557 2470 
L 525 2829 
Q 1043 3104 1574 3104 
Q 2054 3104 2326 2806 
Q 2598 2509 2624 2144 
L 2630 1926 
L 2630 0 
L 2227 0 
L 2227 442 
Q 1830 -51 1107 -51 
L 1062 -51 
Q 710 -51 531 205 
Q 352 461 352 736 
z
M 749 749 
Q 749 518 950 393 
Q 1152 269 1408 269 
Q 1523 269 1644 297 
Q 1766 326 1904 390 
Q 2042 454 2128 595 
Q 2214 736 2214 928 
L 2214 1498 
Q 1568 1491 1158 1286 
Q 749 1082 749 749 
z
" transform="scale(0.015625)"/>
       <path id="CMUBright-Roman-63" d="M 294 1517 
Q 294 2157 691 2630 
Q 1088 3104 1709 3104 
Q 2042 3104 2250 3046 
Q 2458 2989 2758 2829 
L 2694 2477 
Q 2502 2592 2403 2640 
Q 2304 2688 2125 2729 
Q 1946 2771 1709 2771 
Q 1254 2771 982 2432 
Q 710 2093 710 1523 
Q 717 915 1008 598 
Q 1299 282 1696 282 
Q 1958 282 2192 365 
Q 2426 448 2525 518 
Q 2624 589 2765 710 
L 2797 352 
Q 2304 -51 1690 -51 
Q 1107 -51 700 403 
Q 294 858 294 1517 
z
" transform="scale(0.015625)"/>
       <path id="CMUBright-Roman-6f" d="M 256 1510 
Q 256 2182 675 2640 
Q 1094 3098 1677 3098 
Q 2272 3098 2681 2627 
Q 3091 2157 3091 1510 
Q 3091 838 2668 393 
Q 2246 -51 1677 -51 
Q 1088 -51 672 406 
Q 256 864 256 1510 
z
M 666 1587 
Q 666 1190 771 915 
Q 877 640 1046 512 
Q 1216 384 1369 333 
Q 1523 282 1677 282 
Q 1843 282 2006 342 
Q 2170 403 2330 537 
Q 2490 672 2586 937 
Q 2682 1203 2682 1568 
Q 2682 1914 2586 2163 
Q 2490 2413 2330 2541 
Q 2170 2669 2006 2723 
Q 1843 2778 1676 2778 
Q 1510 2778 1347 2723 
Q 1184 2669 1024 2544 
Q 864 2419 765 2172 
Q 666 1926 666 1587 
z
" transform="scale(0.015625)"/>
       <path id="CMUBright-Roman-62" d="M 512 0 
L 512 4448 
L 915 4448 
L 915 2592 
Q 1312 3072 1875 3072 
Q 2349 3072 2675 2621 
Q 3002 2170 3002 1523 
Q 3002 858 2634 403 
Q 2266 -51 1754 -51 
Q 1261 -51 928 422 
L 928 0 
L 512 0 
z
M 922 838 
Q 922 634 1107 451 
Q 1293 269 1555 269 
Q 1728 269 1891 326 
Q 2054 384 2220 512 
Q 2387 640 2489 896 
Q 2592 1152 2592 1510 
Q 2592 1882 2493 2147 
Q 2394 2413 2234 2534 
Q 2074 2656 1926 2704 
Q 1779 2752 1632 2752 
Q 1293 2752 1050 2490 
Q 954 2362 941 2333 
Q 928 2304 928 2195 
L 928 928 
Q 928 909 925 883 
Q 922 858 922 838 
z
" transform="scale(0.015625)"/>
       <path id="CMUBright-Roman-69" d="M 509 4019 
L 509 4422 
L 912 4422 
L 912 4019 
L 509 4019 
z
M 512 0 
L 512 3021 
L 915 3021 
L 915 0 
L 512 0 
z
" transform="scale(0.015625)"/>
      </defs>
      <use xlink:href="#CMUBright-Roman-4a"/>
      <use xlink:href="#CMUBright-Roman-61" x="48.299988"/>
      <use xlink:href="#CMUBright-Roman-63" x="97.499985"/>
      <use xlink:href="#CMUBright-Roman-6f" x="144.199982"/>
      <use xlink:href="#CMUBright-Roman-62" x="196.699966"/>
      <use xlink:href="#CMUBright-Roman-69" x="248.399963"/>
     </g>
    </g>
    <g id="line2d_19">
     <path d="M 272.818041 109.266069 
L 290.818041 109.266069 
L 308.818041 109.266069 
" style="fill: none; stroke: #414487; stroke-width: 2; stroke-linecap: square"/>
    </g>
    <g id="text_15">
     <!-- GS, $\omega$ = 1.00 -->
     <g style="fill: #5a5758" transform="translate(323.218041 115.566069) scale(0.18 -0.18)">
      <defs>
       <path id="CMUBright-Roman-47" d="M 518 2221 
Q 518 2829 777 3357 
Q 1037 3885 1529 4217 
Q 2022 4550 2637 4550 
L 2650 4550 
Q 3309 4550 3968 4243 
L 3891 3802 
Q 3699 3930 3580 3997 
Q 3462 4064 3203 4137 
Q 2944 4211 2650 4211 
Q 1914 4211 1440 3622 
Q 966 3034 966 2221 
Q 966 1389 1449 809 
Q 1933 230 2624 230 
Q 3040 230 3610 403 
L 3610 1760 
L 2605 1760 
L 2605 2099 
L 4026 2099 
L 4026 205 
Q 3328 -109 2630 -109 
Q 1741 -109 1129 572 
Q 518 1254 518 2221 
z
" transform="scale(0.015625)"/>
       <path id="CMUBright-Roman-53" d="M 294 339 
L 371 781 
Q 1082 256 1843 256 
Q 2342 256 2643 531 
Q 2944 806 2944 1152 
Q 2944 1402 2781 1622 
Q 2618 1843 2323 1958 
Q 2176 2016 1769 2096 
Q 1363 2176 1059 2317 
Q 755 2458 557 2746 
Q 365 3014 365 3341 
Q 365 3808 781 4179 
Q 1197 4550 1882 4550 
Q 2515 4550 3110 4243 
L 3034 3802 
Q 2848 3930 2745 3990 
Q 2643 4051 2400 4124 
Q 2157 4198 1882 4198 
Q 1389 4198 1081 3958 
Q 774 3718 774 3392 
Q 774 3168 931 2973 
Q 1088 2778 1376 2669 
Q 1491 2630 1910 2534 
Q 2330 2438 2438 2394 
Q 2899 2221 3126 1885 
Q 3354 1549 3354 1197 
Q 3354 678 2925 284 
Q 2496 -109 1837 -109 
Q 1030 -109 294 339 
z
" transform="scale(0.015625)"/>
       <path id="CMUBright-Roman-2c" d="M 678 0 
L 678 499 
L 1184 499 
L 1184 186 
L 1178 0 
L 934 -710 
L 678 -710 
L 832 0 
L 678 0 
z
" transform="scale(0.015625)"/>
       <path id="CMUBright-Roman-20" transform="scale(0.015625)"/>
       <path id="CMUBright-Roman-3c9" d="M 262 1286 
Q 262 2182 1107 3021 
L 1600 3021 
Q 1178 2573 1018 2330 
Q 678 1805 678 1280 
Q 678 851 867 566 
Q 1056 282 1357 282 
Q 1619 282 1833 531 
Q 2048 781 2048 1344 
L 2048 1920 
L 2426 1920 
L 2426 1344 
Q 2426 781 2640 531 
Q 2854 282 3117 282 
Q 3418 282 3606 566 
Q 3795 851 3795 1280 
Q 3795 1632 3628 1993 
Q 3462 2355 3305 2544 
Q 3149 2733 2931 2963 
Q 2893 3002 2874 3021 
L 3366 3021 
Q 4211 2182 4211 1286 
Q 4211 742 3900 345 
Q 3590 -51 3117 -51 
Q 2586 -51 2234 525 
Q 1933 -51 1357 -51 
Q 883 -51 572 345 
Q 262 742 262 1286 
z
" transform="scale(0.015625)"/>
       <path id="CMUBright-Roman-3d" d="M 378 1062 
Q 378 1229 576 1229 
L 3533 1229 
Q 3725 1222 3725 1062 
Q 3725 909 3514 909 
L 589 909 
Q 378 909 378 1062 
z
M 378 2304 
Q 378 2470 582 2470 
L 3533 2470 
Q 3725 2464 3725 2304 
Q 3725 2150 3514 2150 
L 589 2150 
Q 378 2150 378 2304 
z
" transform="scale(0.015625)"/>
       <path id="CMUBright-Roman-2e" d="M 678 0 
L 678 499 
L 1178 499 
L 1178 0 
L 678 0 
z
" transform="scale(0.015625)"/>
      </defs>
      <use xlink:href="#CMUBright-Roman-47" transform="translate(0 0.90625)"/>
      <use xlink:href="#CMUBright-Roman-53" transform="translate(69.999985 0.90625)"/>
      <use xlink:href="#CMUBright-Roman-2c" transform="translate(128.299973 0.90625)"/>
      <use xlink:href="#CMUBright-Roman-20" transform="translate(157.499969 0.90625)"/>
      <use xlink:href="#CMUBright-Roman-3c9" transform="translate(190.799957 0.90625)"/>
      <use xlink:href="#CMUBright-Roman-20" transform="translate(260.799942 0.90625)"/>
      <use xlink:href="#CMUBright-Roman-3d" transform="translate(294.09993 0.90625)"/>
      <use xlink:href="#CMUBright-Roman-20" transform="translate(358.299927 0.90625)"/>
      <use xlink:href="#CMUBright-Roman-31" transform="translate(391.599915 0.90625)"/>
      <use xlink:href="#CMUBright-Roman-2e" transform="translate(444.099899 0.90625)"/>
      <use xlink:href="#CMUBright-Roman-30" transform="translate(473.299896 0.90625)"/>
      <use xlink:href="#CMUBright-Roman-30" transform="translate(525.799881 0.90625)"/>
     </g>
    </g>
    <g id="line2d_20">
     <path d="M 272.818041 133.872632 
L 290.818041 133.872632 
L 308.818041 133.872632 
" style="fill: none; stroke: #2a788e; stroke-width: 2; stroke-linecap: square"/>
    </g>
    <g id="text_16">
     <!-- GS, $\omega$ = 1.40 -->
     <g style="fill: #5a5758" transform="translate(323.218041 140.172632) scale(0.18 -0.18)">
      <use xlink:href="#CMUBright-Roman-47" transform="translate(0 0.90625)"/>
      <use xlink:href="#CMUBright-Roman-53" transform="translate(69.999985 0.90625)"/>
      <use xlink:href="#CMUBright-Roman-2c" transform="translate(128.299973 0.90625)"/>
      <use xlink:href="#CMUBright-Roman-20" transform="translate(157.499969 0.90625)"/>
      <use xlink:href="#CMUBright-Roman-3c9" transform="translate(190.799957 0.90625)"/>
      <use xlink:href="#CMUBright-Roman-20" transform="translate(260.799942 0.90625)"/>
      <use xlink:href="#CMUBright-Roman-3d" transform="translate(294.09993 0.90625)"/>
      <use xlink:href="#CMUBright-Roman-20" transform="translate(358.299927 0.90625)"/>
      <use xlink:href="#CMUBright-Roman-31" transform="translate(391.599915 0.90625)"/>
      <use xlink:href="#CMUBright-Roman-2e" transform="translate(444.099899 0.90625)"/>
      <use xlink:href="#CMUBright-Roman-34" transform="translate(473.299896 0.90625)"/>
      <use xlink:href="#CMUBright-Roman-30" transform="translate(525.799881 0.90625)"/>
     </g>
    </g>
    <g id="line2d_21">
     <path d="M 272.818041 158.479194 
L 290.818041 158.479194 
L 308.818041 158.479194 
" style="fill: none; stroke: #22a884; stroke-width: 2; stroke-linecap: square"/>
    </g>
    <g id="text_17">
     <!-- GS, $\omega$ = 1.60 -->
     <g style="fill: #5a5758" transform="translate(323.218041 164.779194) scale(0.18 -0.18)">
      <use xlink:href="#CMUBright-Roman-47" transform="translate(0 0.90625)"/>
      <use xlink:href="#CMUBright-Roman-53" transform="translate(69.999985 0.90625)"/>
      <use xlink:href="#CMUBright-Roman-2c" transform="translate(128.299973 0.90625)"/>
      <use xlink:href="#CMUBright-Roman-20" transform="translate(157.499969 0.90625)"/>
      <use xlink:href="#CMUBright-Roman-3c9" transform="translate(190.799957 0.90625)"/>
      <use xlink:href="#CMUBright-Roman-20" transform="translate(260.799942 0.90625)"/>
      <use xlink:href="#CMUBright-Roman-3d" transform="translate(294.09993 0.90625)"/>
      <use xlink:href="#CMUBright-Roman-20" transform="translate(358.299927 0.90625)"/>
      <use xlink:href="#CMUBright-Roman-31" transform="translate(391.599915 0.90625)"/>
      <use xlink:href="#CMUBright-Roman-2e" transform="translate(444.099899 0.90625)"/>
      <use xlink:href="#CMUBright-Roman-36" transform="translate(473.299896 0.90625)"/>
      <use xlink:href="#CMUBright-Roman-30" transform="translate(525.799881 0.90625)"/>
     </g>
    </g>
    <g id="line2d_22">
     <path d="M 272.818041 183.085757 
L 290.818041 183.085757 
L 308.818041 183.085757 
" style="fill: none; stroke: #7ad151; stroke-width: 2; stroke-linecap: square"/>
    </g>
    <g id="text_18">
     <!-- GS, $\omega$ = 1.80 -->
     <g style="fill: #5a5758" transform="translate(323.218041 189.385757) scale(0.18 -0.18)">
      <use xlink:href="#CMUBright-Roman-47" transform="translate(0 0.90625)"/>
      <use xlink:href="#CMUBright-Roman-53" transform="translate(69.999985 0.90625)"/>
      <use xlink:href="#CMUBright-Roman-2c" transform="translate(128.299973 0.90625)"/>
      <use xlink:href="#CMUBright-Roman-20" transform="translate(157.499969 0.90625)"/>
      <use xlink:href="#CMUBright-Roman-3c9" transform="translate(190.799957 0.90625)"/>
      <use xlink:href="#CMUBright-Roman-20" transform="translate(260.799942 0.90625)"/>
      <use xlink:href="#CMUBright-Roman-3d" transform="translate(294.09993 0.90625)"/>
      <use xlink:href="#CMUBright-Roman-20" transform="translate(358.299927 0.90625)"/>
      <use xlink:href="#CMUBright-Roman-31" transform="translate(391.599915 0.90625)"/>
      <use xlink:href="#CMUBright-Roman-2e" transform="translate(444.099899 0.90625)"/>
      <use xlink:href="#CMUBright-Roman-38" transform="translate(473.299896 0.90625)"/>
      <use xlink:href="#CMUBright-Roman-30" transform="translate(525.799881 0.90625)"/>
     </g>
    </g>
   </g>
  </g>
  <g id="axes_2">
   <g id="patch_5">
    <path d="M 499.766641 376.457377 
L 865.19952 376.457377 
L 865.19952 62.159507 
L 499.766641 62.159507 
z
" style="fill: #ffffff"/>
   </g>
   <g id="matplotlib.axis_3">
    <g id="xtick_6">
     <g id="line2d_23">
      <g>
       <use xlink:href="#md7a85e7e30" x="561.626591" y="388.457377" style="fill: #5a5758; stroke: #5a5758; stroke-width: 0.8"/>
      </g>
     </g>
     <g id="text_19">
      <!-- 0.05 -->
      <g style="fill: #5a5758" transform="translate(547.629458 405.878207) scale(0.14994 -0.14994)">
       <defs>
        <path id="CMUBright-Roman-35" d="M 301 518 
L 486 819 
Q 896 224 1581 224 
Q 1971 224 2268 473 
Q 2566 723 2566 1312 
Q 2566 1626 2489 1846 
Q 2413 2067 2285 2176 
Q 2157 2285 2032 2329 
Q 1907 2374 1773 2374 
Q 1210 2374 941 1901 
L 582 1901 
L 582 4192 
L 2797 4192 
L 2797 3853 
L 973 3853 
L 973 2381 
Q 1325 2701 1779 2701 
Q 2285 2701 2653 2291 
Q 3021 1882 3021 1306 
Q 3021 723 2601 307 
Q 2182 -109 1574 -109 
Q 813 -109 301 518 
z
" transform="scale(0.015625)"/>
       </defs>
       <use xlink:href="#CMUBright-Roman-30"/>
       <use xlink:href="#CMUBright-Roman-2e" x="52.499985"/>
       <use xlink:href="#CMUBright-Roman-30" x="81.699982"/>
       <use xlink:href="#CMUBright-Roman-35" x="134.199966"/>
      </g>
     </g>
    </g>
    <g id="xtick_7">
     <g id="line2d_24">
      <g>
       <use xlink:href="#md7a85e7e30" x="623.536431" y="388.457377" style="fill: #5a5758; stroke: #5a5758; stroke-width: 0.8"/>
      </g>
     </g>
     <g id="text_20">
      <!-- 0.10 -->
      <g style="fill: #5a5758" transform="translate(609.539298 405.878207) scale(0.14994 -0.14994)">
       <use xlink:href="#CMUBright-Roman-30"/>
       <use xlink:href="#CMUBright-Roman-2e" x="52.499985"/>
       <use xlink:href="#CMUBright-Roman-31" x="81.699982"/>
       <use xlink:href="#CMUBright-Roman-30" x="134.199966"/>
      </g>
     </g>
    </g>
    <g id="xtick_8">
     <g id="line2d_25">
      <g>
       <use xlink:href="#md7a85e7e30" x="685.446272" y="388.457377" style="fill: #5a5758; stroke: #5a5758; stroke-width: 0.8"/>
      </g>
     </g>
     <g id="text_21">
      <!-- 0.15 -->
      <g style="fill: #5a5758" transform="translate(671.449138 405.878207) scale(0.14994 -0.14994)">
       <use xlink:href="#CMUBright-Roman-30"/>
       <use xlink:href="#CMUBright-Roman-2e" x="52.499985"/>
       <use xlink:href="#CMUBright-Roman-31" x="81.699982"/>
       <use xlink:href="#CMUBright-Roman-35" x="134.199966"/>
      </g>
     </g>
    </g>
    <g id="xtick_9">
     <g id="line2d_26">
      <g>
       <use xlink:href="#md7a85e7e30" x="747.356112" y="388.457377" style="fill: #5a5758; stroke: #5a5758; stroke-width: 0.8"/>
      </g>
     </g>
     <g id="text_22">
      <!-- 0.20 -->
      <g style="fill: #5a5758" transform="translate(733.358979 405.878207) scale(0.14994 -0.14994)">
       <use xlink:href="#CMUBright-Roman-30"/>
       <use xlink:href="#CMUBright-Roman-2e" x="52.499985"/>
       <use xlink:href="#CMUBright-Roman-32" x="81.699982"/>
       <use xlink:href="#CMUBright-Roman-30" x="134.199966"/>
      </g>
     </g>
    </g>
    <g id="xtick_10">
     <g id="line2d_27">
      <g>
       <use xlink:href="#md7a85e7e30" x="809.265952" y="388.457377" style="fill: #5a5758; stroke: #5a5758; stroke-width: 0.8"/>
      </g>
     </g>
     <g id="text_23">
      <!-- 0.25 -->
      <g style="fill: #5a5758" transform="translate(795.268819 405.878207) scale(0.14994 -0.14994)">
       <use xlink:href="#CMUBright-Roman-30"/>
       <use xlink:href="#CMUBright-Roman-2e" x="52.499985"/>
       <use xlink:href="#CMUBright-Roman-32" x="81.699982"/>
       <use xlink:href="#CMUBright-Roman-35" x="134.199966"/>
      </g>
     </g>
    </g>
    <g id="text_24">
     <!-- Time (s) -->
     <g style="fill: #5a5758" transform="translate(648.464487 429.882673) scale(0.18 -0.18)">
      <defs>
       <path id="CMUBright-SemiBold-54" d="M 237 3910 
L 237 4416 
L 4390 4416 
L 4390 3910 
L 2650 3910 
L 2650 0 
L 1978 0 
L 1978 3910 
L 237 3910 
z
" transform="scale(0.015625)"/>
       <path id="CMUBright-SemiBold-28" d="M 1747 -1421 
Q 499 -358 499 1690 
Q 499 3738 1747 4800 
L 2234 4800 
Q 2086 4653 1990 4544 
Q 1894 4435 1708 4147 
Q 1523 3859 1411 3552 
Q 1299 3245 1206 2752 
Q 1114 2259 1114 1689 
Q 1114 1120 1206 627 
Q 1299 134 1411 -173 
Q 1523 -480 1708 -768 
Q 1894 -1056 1990 -1165 
Q 2086 -1274 2234 -1421 
L 1747 -1421 
z
" transform="scale(0.015625)"/>
       <path id="CMUBright-SemiBold-29" d="M 371 -1421 
Q 525 -1267 614 -1164 
Q 704 -1062 893 -768 
Q 1082 -474 1194 -173 
Q 1306 128 1398 624 
Q 1491 1120 1491 1690 
Q 1491 2246 1404 2732 
Q 1318 3219 1206 3523 
Q 1094 3827 921 4105 
Q 749 4384 646 4502 
Q 544 4621 416 4755 
Q 384 4787 371 4800 
L 851 4800 
Q 2106 3731 2106 1689 
Q 2106 -352 851 -1421 
L 371 -1421 
z
" transform="scale(0.015625)"/>
      </defs>
      <use xlink:href="#CMUBright-SemiBold-54"/>
      <use xlink:href="#CMUBright-SemiBold-69" x="72.499985"/>
      <use xlink:href="#CMUBright-SemiBold-6d" x="94.999969"/>
      <use xlink:href="#CMUBright-SemiBold-65" x="175.799957"/>
      <use xlink:href="#CMUBright-SemiBold-20" x="222.899948"/>
      <use xlink:href="#CMUBright-SemiBold-28" x="256.199936"/>
      <use xlink:href="#CMUBright-SemiBold-73" x="296.999924"/>
      <use xlink:href="#CMUBright-SemiBold-29" x="337.199921"/>
     </g>
    </g>
   </g>
   <g id="matplotlib.axis_4">
    <g id="ytick_7">
     <g id="line2d_28">
      <g>
       <use xlink:href="#m897b2c7b16" x="487.766641" y="330.806694" style="fill: #5a5758; stroke: #5a5758; stroke-width: 0.8"/>
      </g>
     </g>
     <g id="text_25">
      <!-- $\mathdefault{10^{-2}}$ -->
      <g style="fill: #5a5758" transform="translate(452.278041 336.017109) scale(0.14994 -0.14994)">
       <use xlink:href="#CMUBright-Roman-31" transform="translate(0 0.915625)"/>
       <use xlink:href="#CMUBright-Roman-30" transform="translate(52.499985 0.915625)"/>
       <use xlink:href="#CMUBright-Roman-2212" transform="translate(105.826024 33.957813) scale(0.7)"/>
       <use xlink:href="#CMUBright-Roman-32" transform="translate(150.766022 33.957813) scale(0.7)"/>
      </g>
     </g>
    </g>
    <g id="ytick_8">
     <g id="line2d_29">
      <g>
       <use xlink:href="#m897b2c7b16" x="487.766641" y="277.077256" style="fill: #5a5758; stroke: #5a5758; stroke-width: 0.8"/>
      </g>
     </g>
     <g id="text_26">
      <!-- $\mathdefault{10^{0}}$ -->
      <g style="fill: #5a5758" transform="translate(459.025341 282.287671) scale(0.14994 -0.14994)">
       <use xlink:href="#CMUBright-Roman-31" transform="translate(0 0.915625)"/>
       <use xlink:href="#CMUBright-Roman-30" transform="translate(52.499985 0.915625)"/>
       <use xlink:href="#CMUBright-Roman-30" transform="translate(105.826024 33.957813) scale(0.7)"/>
      </g>
     </g>
    </g>
    <g id="ytick_9">
     <g id="line2d_30">
      <g>
       <use xlink:href="#m897b2c7b16" x="487.766641" y="223.347819" style="fill: #5a5758; stroke: #5a5758; stroke-width: 0.8"/>
      </g>
     </g>
     <g id="text_27">
      <!-- $\mathdefault{10^{2}}$ -->
      <g style="fill: #5a5758" transform="translate(459.025341 228.558234) scale(0.14994 -0.14994)">
       <use xlink:href="#CMUBright-Roman-31" transform="translate(0 0.915625)"/>
       <use xlink:href="#CMUBright-Roman-30" transform="translate(52.499985 0.915625)"/>
       <use xlink:href="#CMUBright-Roman-32" transform="translate(105.826024 33.957813) scale(0.7)"/>
      </g>
     </g>
    </g>
    <g id="ytick_10">
     <g id="line2d_31">
      <g>
       <use xlink:href="#m897b2c7b16" x="487.766641" y="169.618381" style="fill: #5a5758; stroke: #5a5758; stroke-width: 0.8"/>
      </g>
     </g>
     <g id="text_28">
      <!-- $\mathdefault{10^{4}}$ -->
      <g style="fill: #5a5758" transform="translate(459.025341 174.828796) scale(0.14994 -0.14994)">
       <use xlink:href="#CMUBright-Roman-31" transform="translate(0 0.473438)"/>
       <use xlink:href="#CMUBright-Roman-30" transform="translate(52.499985 0.473438)"/>
       <use xlink:href="#CMUBright-Roman-34" transform="translate(105.826024 33.515625) scale(0.7)"/>
      </g>
     </g>
    </g>
    <g id="ytick_11">
     <g id="line2d_32">
      <g>
       <use xlink:href="#m897b2c7b16" x="487.766641" y="115.888944" style="fill: #5a5758; stroke: #5a5758; stroke-width: 0.8"/>
      </g>
     </g>
     <g id="text_29">
      <!-- $\mathdefault{10^{6}}$ -->
      <g style="fill: #5a5758" transform="translate(459.025341 121.099359) scale(0.14994 -0.14994)">
       <use xlink:href="#CMUBright-Roman-31" transform="translate(0 0.915625)"/>
       <use xlink:href="#CMUBright-Roman-30" transform="translate(52.499985 0.915625)"/>
       <use xlink:href="#CMUBright-Roman-36" transform="translate(105.826024 33.957813) scale(0.7)"/>
      </g>
     </g>
    </g>
    <g id="ytick_12">
     <g id="line2d_33">
      <g>
       <use xlink:href="#m897b2c7b16" x="487.766641" y="62.159507" style="fill: #5a5758; stroke: #5a5758; stroke-width: 0.8"/>
      </g>
     </g>
     <g id="text_30">
      <!-- $\mathdefault{10^{8}}$ -->
      <g style="fill: #5a5758" transform="translate(459.025341 67.369922) scale(0.14994 -0.14994)">
       <use xlink:href="#CMUBright-Roman-31" transform="translate(0 0.915625)"/>
       <use xlink:href="#CMUBright-Roman-30" transform="translate(52.499985 0.915625)"/>
       <use xlink:href="#CMUBright-Roman-38" transform="translate(105.826024 33.957813) scale(0.7)"/>
      </g>
     </g>
    </g>
   </g>
   <g id="line2d_34">
    <path d="M 499.766641 376.449045 
L 865.19952 376.449045 
" style="fill: none; stroke-dasharray: 7.4,3.2; stroke-dashoffset: 0; stroke: #808080; stroke-opacity: 0.7; stroke-width: 2"/>
   </g>
   <g id="line2d_35">
    <path d="M 500.206503 295.559178 
L 500.599721 314.18828 
L 500.97139 320.447765 
L 501.414499 324.532319 
L 502.061597 328.559214 
L 502.119458 328.847196 
L 502.344703 329.125896 
L 503.443471 332.852589 
L 503.807169 333.858168 
L 504.043336 334.168647 
L 505.106974 336.430151 
L 506.292534 338.489546 
L 507.483998 340.13857 
L 508.701441 341.510744 
L 509.703971 342.518162 
L 510.611739 342.791872 
L 512.486317 342.951698 
L 513.433938 343.705823 
L 513.834832 343.895324 
L 514.656104 344.394 
L 515.126667 344.65314 
L 515.560329 344.944913 
L 516.209789 345.146767 
L 517.094236 345.64797 
L 517.739563 345.868599 
L 519.687943 346.851745 
L 522.348368 348.073353 
L 530.21392 350.518254 
L 532.316104 350.76248 
L 535.285317 351.508217 
L 537.915631 351.809177 
L 540.66698 352.324008 
L 545.631511 353.100321 
L 547.294129 353.321077 
L 552.950631 354.159466 
L 554.425791 354.325706 
L 559.511359 354.952007 
L 561.249845 355.146862 
L 565.944261 355.662594 
L 570.183464 355.942286 
L 573.427222 356.23578 
L 576.694006 356.488674 
L 591.294754 358.027938 
L 594.247435 358.251568 
L 608.049052 359.539651 
L 611.352442 359.808361 
L 620.831017 360.607889 
L 623.330257 360.790352 
L 630.371881 361.394275 
L 632.792595 361.587125 
L 636.710906 361.87883 
L 638.662534 362.030306 
L 644.902664 362.553703 
L 647.141825 362.722082 
L 653.4593 363.209192 
L 655.712927 363.38876 
L 701.861493 367.256411 
L 711.074675 368.068872 
L 713.929937 368.258994 
L 719.145102 368.668017 
L 721.098796 368.846594 
L 733.427319 369.871876 
L 735.854528 370.061943 
L 741.767862 370.528455 
L 743.863847 370.701234 
L 748.25774 371.041025 
L 752.673773 371.161966 
L 755.913398 371.352015 
L 758.578546 371.542062 
L 769.162383 372.451964 
L 771.529665 372.647762 
L 780.666683 373.448222 
L 784.059817 373.563396 
L 793.942237 374.427189 
L 796.400739 374.628739 
L 809.387874 375.768933 
L 811.90217 375.93593 
L 817.404573 376.454198 
L 817.404573 376.454198 
" style="fill: none; stroke: #e29400; stroke-width: 2; stroke-linecap: square"/>
   </g>
   <g id="line2d_36">
    <path d="M 499.901257 295.559178 
L 500.393665 315.269805 
L 500.856258 322.638234 
L 501.009767 324.171692 
L 502.082852 329.374344 
L 502.448911 330.130524 
L 503.035197 332.075654 
L 503.495723 333.668537 
L 503.927023 334.589387 
L 504.84719 336.879681 
L 505.617981 338.409733 
L 506.056662 338.95196 
L 507.185542 340.613207 
L 508.540256 342.350651 
L 509.91534 343.779039 
L 510.66281 344.339435 
L 510.975732 344.605219 
L 511.51685 344.862184 
L 512.661081 345.699318 
L 513.915719 346.245356 
L 515.914875 347.501944 
L 516.596218 347.763675 
L 518.417068 348.649049 
L 521.112032 349.89225 
L 523.966704 350.66568 
L 526.81193 351.602023 
L 529.404161 352.327623 
L 531.445827 352.777911 
L 535.688278 353.778299 
L 537.353848 354.093036 
L 540.006006 354.530411 
L 543.383494 354.931572 
L 547.589929 355.533801 
L 556.995882 356.574078 
L 561.104602 356.950243 
L 566.288475 357.41845 
L 574.761272 358.229318 
L 579.981159 358.643263 
L 583.606918 358.93334 
L 589.32069 359.376041 
L 592.019197 359.533668 
L 602.778979 360.363585 
L 607.534798 360.686644 
L 614.631625 361.164139 
L 619.248991 361.418333 
L 621.236634 361.514705 
L 624.697961 361.646836 
L 630.827979 362.017064 
L 633.166035 362.147758 
L 637.462213 362.278137 
L 661.692978 363.626928 
L 671.777617 364.300555 
L 674.886169 364.497464 
L 680.912863 364.890728 
L 685.70027 365.029375 
L 699.688754 365.629463 
L 714.154887 366.620166 
L 721.080493 367.045995 
L 732.831882 367.828262 
L 737.180903 368.081293 
L 741.246228 368.311307 
L 745.351996 368.472312 
L 753.084999 368.966813 
L 756.424405 369.173813 
L 770.291558 370.10535 
L 777.291852 370.542406 
L 790.427182 371.451129 
L 793.363037 371.577673 
L 810.853292 372.808752 
L 814.5992 373.050398 
L 833.081948 374.270283 
L 839.659798 374.684634 
L 851.066678 375.455848 
L 865.19952 376.457377 
L 865.19952 376.457377 
" style="fill: none; stroke: #414487; stroke-width: 2; stroke-linecap: square"/>
   </g>
   <g id="line2d_37">
    <path d="M 499.903618 295.559178 
L 500.270858 298.401473 
L 500.832641 307.052937 
L 501.024232 309.341471 
L 501.322393 311.498518 
L 502.678879 327.58233 
L 503.570116 331.674928 
L 503.972486 333.949104 
L 504.595672 337.3937 
L 504.997452 338.643261 
L 505.765586 340.865857 
L 508.25538 344.169804 
L 509.571127 345.587948 
L 511.210128 347.178104 
L 512.072434 347.800878 
L 512.672889 348.150278 
L 514.200301 349.105649 
L 516.297171 350.369391 
L 518.258836 351.357787 
L 520.984502 352.44746 
L 533.950972 355.396593 
L 535.735511 355.742698 
L 538.574833 356.206759 
L 543.698482 357.029427 
L 550.308214 357.841432 
L 557.426297 358.734684 
L 559.536452 358.984523 
L 563.990862 359.451845 
L 566.534089 359.725365 
L 570.267008 360.136683 
L 573.332755 360.27778 
L 576.690463 360.522585 
L 577.016374 360.539975 
L 581.26709 360.678669 
L 587.452017 361.277619 
L 590.271559 361.581522 
L 595.944297 362.116444 
L 600.343209 362.51404 
L 604.361005 362.859941 
L 609.597424 363.106066 
L 614.072204 363.449529 
L 622.702643 364.263297 
L 640.738149 365.961543 
L 673.213219 369.071023 
L 681.54402 369.860096 
L 687.805406 370.40766 
L 700.878447 371.680137 
L 703.797179 371.954002 
L 710.96899 372.614556 
L 721.383377 373.58136 
L 724.845885 373.903663 
L 732.007363 374.564432 
L 734.444905 374.69337 
L 748.438703 376.0151 
L 750.8482 376.14406 
L 753.706414 376.450346 
L 753.706414 376.450346 
" style="fill: none; stroke: #2a788e; stroke-width: 2; stroke-linecap: square"/>
   </g>
   <g id="line2d_38">
    <path d="M 499.766641 295.559178 
L 500.292113 295.878833 
L 500.567839 296.20221 
L 500.881351 295.825638 
L 501.164161 295.179177 
L 502.307801 288.989742 
L 504.570579 271.043605 
L 504.893538 269.700668 
L 508.837237 236.596011 
L 513.129577 197.018144 
L 513.46523 195.595304 
L 515.620257 177.059077 
L 516.239901 171.342854 
L 516.678877 168.482789 
L 519.401886 144.127054 
L 519.975772 141.257018 
L 520.137547 139.821675 
L 520.439251 138.38612 
L 521.522963 129.768542 
L 524.061466 109.672543 
L 525.152264 101.296067 
L 525.710209 97.337997 
L 526.98876 88.266619 
L 527.740953 84.083894 
L 527.891805 83.40301 
L 528.349674 82.775308 
L 528.670566 81.680304 
L 529.394419 80.438994 
L 529.869116 79.674636 
L 530.18558 79.425382 
L 530.850981 79.380084 
L 531.301765 79.534535 
L 531.862663 80.130833 
L 532.856041 82.057497 
L 533.478342 84.395252 
L 534.234373 88.251467 
L 535.145388 94.157355 
L 535.609457 97.600561 
L 535.953376 98.817667 
L 536.330948 101.353146 
L 537.396063 111.244511 
L 538.59963 124.348418 
L 538.969527 126.112378 
L 540.068886 139.193435 
L 540.475094 143.157228 
L 540.931487 147.217274 
L 541.301974 151.371331 
L 543.663647 182.908811 
L 543.996643 185.316027 
L 544.439457 190.188525 
L 545.382945 200.16011 
L 547.11169 229.051303 
L 549.684142 277.516274 
L 552.55328 333.136607 
L 553.404368 339.436938 
L 553.649982 342.520285 
L 554.617382 350.993003 
L 555.115695 355.154785 
L 556.019035 358.244079 
L 556.483989 358.932336 
L 556.737279 359.100035 
L 557.571244 359.269738 
L 575.248662 360.969563 
L 584.810781 361.991378 
L 586.875178 362.219435 
L 605.043823 364.426617 
L 607.907647 364.741462 
L 663.241645 371.263036 
L 668.130899 371.833804 
L 694.973969 375.020129 
L 696.861536 375.222769 
L 707.251126 376.457196 
L 707.251126 376.457196 
" style="fill: none; stroke: #22a884; stroke-width: 2; stroke-linecap: square"/>
   </g>
   <g id="line2d_39">
    <path d="M 499.772545 295.559178 
L 500.046795 293.69766 
L 500.21713 291.463846 
L 500.370344 288.558037 
L 500.523557 285.400223 
L 500.675885 282.074507 
L 500.827623 278.647169 
L 500.978179 275.146052 
L 501.129622 271.590948 
L 501.280474 267.993874 
L 501.430735 264.363484 
L 501.580111 260.705899 
L 501.729191 257.025727 
L 501.933771 253.326479 
L 502.088461 249.61091 
L 502.261749 245.881216 
L 502.415258 242.139178 
L 502.565519 238.386258 
L 502.715485 234.623675 
L 502.864566 230.852453 
L 503.014237 227.07346 
L 503.164498 223.287443 
L 503.313874 219.495041 
L 503.468859 215.696815 
L 503.618235 211.893251 
L 503.768201 208.084779 
L 503.917872 204.271778 
L 504.071971 200.454585 
L 504.221052 196.6335 
L 504.369837 192.808794 
L 504.520394 188.980709 
L 504.66977 185.149463 
L 504.820031 181.315255 
L 504.98033 177.478265 
L 505.130001 173.638657 
L 505.279376 169.796582 
L 505.428752 165.952176 
L 505.577538 162.105567 
L 505.738427 158.25687 
L 505.89843 154.406193 
L 506.049282 150.553635 
L 506.199248 146.699289 
L 506.349214 142.843239 
L 506.497409 138.985565 
L 506.646785 135.126341 
L 506.79498 131.265637 
L 506.983914 127.403516 
L 507.146279 123.540039 
L 507.29654 119.675264 
L 507.445916 115.809242 
L 507.595882 111.942024 
L 507.745553 108.073657 
L 507.895224 104.204185 
L 508.044895 100.33365 
L 508.194862 96.462091 
L 508.344238 92.589547 
L 508.507488 88.716051 
L 508.656864 84.841638 
L 508.805649 80.966339 
L 508.954435 77.090184 
L 509.10322 73.213202 
L 509.25171 69.33542 
L 509.400791 65.456864 
L 509.549281 61.577558 
L 509.699543 57.697527 
L 509.852461 53.816791 
L 510.003608 49.935374 
L 510.153279 46.053294 
L 510.302655 42.170572 
L 510.45144 38.287227 
L 510.59993 34.403275 
L 510.749011 30.518735 
L 510.898387 26.633622 
L 511.055733 22.747953 
L 511.2057 18.861741 
L 511.353895 14.975003 
L 511.504156 11.087752 
L 511.653827 7.2 
" style="fill: none; stroke: #7ad151; stroke-width: 2; stroke-linecap: square"/>
   </g>
   <g id="patch_6">
    <path d="M 487.766641 376.457377 
L 487.766641 62.159507 
" style="fill: none; stroke: #5a5758; stroke-width: 0.8; stroke-linejoin: miter; stroke-linecap: square"/>
   </g>
   <g id="patch_7">
    <path d="M 499.766641 388.457377 
L 865.19952 388.457377 
" style="fill: none; stroke: #5a5758; stroke-width: 0.8; stroke-linejoin: miter; stroke-linecap: square"/>
   </g>
  </g>
 </g>
</svg>