<?xml version="1.0" encoding="utf-8" standalone="no"?>
<!DOCTYPE svg PUBLIC "-//W3C//DTD SVG 1.1//EN"
  "http://www.w3.org/Graphics/SVG/1.1/DTD/svg11.dtd">
<svg xmlns:xlink="http://www.w3.org/1999/xlink" width="353.317923pt" height="353.99952pt" viewBox="0 0 353.317923 353.99952" xmlns="http://www.w3.org/2000/svg" version="1.1">
 <metadata>
  <rdf:RDF xmlns:dc="http://purl.org/dc/elements/1.1/" xmlns:cc="http://creativecommons.org/ns#" xmlns:rdf="http://www.w3.org/1999/02/22-rdf-syntax-ns#">
   <cc:Work>
    <dc:type rdf:resource="http://purl.org/dc/dcmitype/StillImage"/>
    <dc:date>2023-09-20T13:51:15.788402</dc:date>
    <dc:format>image/svg+xml</dc:format>
    <dc:creator>
     <cc:Agent>
      <dc:title>Matplotlib v3.7.2, https://matplotlib.org/</dc:title>
     </cc:Agent>
    </dc:creator>
   </cc:Work>
  </rdf:RDF>
 </metadata>
 <defs>
  <style type="text/css">*{stroke-linejoin: round; stroke-linecap: butt}</style>
 </defs>
 <g id="figure_1">
  <g id="patch_1">
   <path d="M 0 353.99952 
L 353.317923 353.99952 
L 353.317923 0 
L 0 0 
z
" style="fill: #ffffff"/>
  </g>
  <g id="axes_1">
   <g id="patch_2">
    <path d="M 29.9437 343.29952 
L 346.117923 343.29952 
L 346.117923 27.125297 
L 29.9437 27.125297 
z
" style="fill: #ffffff"/>
   </g>
   <g id="matplotlib.axis_1">
    <g id="xtick_1">
     <g id="line2d_1">
      <defs>
       <path id="m726b0a4bf6" d="M 0 0 
L 0 3.5 
" style="stroke: #5a5758; stroke-width: 0.8"/>
      </defs>
      <g>
       <use xlink:href="#m726b0a4bf6" x="36.267184" y="343.29952" style="fill: #5a5758; stroke: #5a5758; stroke-width: 0.8"/>
      </g>
     </g>
     <g id="line2d_2">
      <defs>
       <path id="m3592193985" d="M 0 0 
L 0 -3.5 
" style="stroke: #5a5758; stroke-width: 0.8"/>
      </defs>
      <g>
       <use xlink:href="#m3592193985" x="36.267184" y="27.125297" style="fill: #5a5758; stroke: #5a5758; stroke-width: 0.8"/>
      </g>
     </g>
     <g id="text_1">
      <!-- 0 -->
      <g style="fill: #5a5758" transform="translate(32.331259 17.62083) scale(0.14994 -0.14994)">
       <defs>
        <path id="CMUBright-Roman-30" d="M 333 1984 
C 333 218 1139 -109 1677 -109 
C 2022 -109 2528 38 2803 685 
C 3008 1165 3021 1626 3021 2214 
C 3021 3974 2214 4301 1677 4301 
C 1555 4301 1414 4288 1261 4230 
C 358 3898 333 2694 333 2086 
L 333 1984 
z
M 742 2413 
C 742 2701 768 3302 1005 3642 
C 1139 3834 1389 3981 1677 3981 
C 1933 3981 2182 3866 2336 3661 
C 2592 3328 2611 2701 2611 2406 
C 2611 2342 2605 2298 2605 2272 
L 2605 2163 
C 2605 1613 2598 934 2330 557 
C 2195 371 1958 218 1677 218 
C 1427 218 1190 339 1037 538 
C 755 909 749 1594 749 2150 
L 749 2272 
C 749 2298 742 2349 742 2413 
z
" transform="scale(0.015625)"/>
       </defs>
       <use xlink:href="#CMUBright-Roman-30"/>
      </g>
     </g>
    </g>
    <g id="xtick_2">
     <g id="line2d_3">
      <g>
       <use xlink:href="#m726b0a4bf6" x="99.502029" y="343.29952" style="fill: #5a5758; stroke: #5a5758; stroke-width: 0.8"/>
      </g>
     </g>
     <g id="line2d_4">
      <g>
       <use xlink:href="#m3592193985" x="99.502029" y="27.125297" style="fill: #5a5758; stroke: #5a5758; stroke-width: 0.8"/>
      </g>
     </g>
     <g id="text_2">
      <!-- 5 -->
      <g style="fill: #5a5758" transform="translate(95.566104 17.62083) scale(0.14994 -0.14994)">
       <defs>
        <path id="CMUBright-Roman-35" d="M 301 518 
C 794 -83 1376 -109 1574 -109 
C 2387 -109 3021 531 3021 1306 
C 3021 2080 2451 2701 1779 2701 
C 1459 2701 1197 2586 973 2381 
L 973 3853 
L 2797 3853 
L 2797 4192 
L 582 4192 
L 582 1901 
L 941 1901 
C 1043 2080 1274 2374 1773 2374 
C 2093 2374 2566 2189 2566 1312 
C 2566 442 2003 224 1581 224 
C 1382 224 864 269 486 819 
L 301 518 
z
" transform="scale(0.015625)"/>
       </defs>
       <use xlink:href="#CMUBright-Roman-35"/>
      </g>
     </g>
    </g>
    <g id="xtick_3">
     <g id="line2d_5">
      <g>
       <use xlink:href="#m726b0a4bf6" x="162.736874" y="343.29952" style="fill: #5a5758; stroke: #5a5758; stroke-width: 0.8"/>
      </g>
     </g>
     <g id="line2d_6">
      <g>
       <use xlink:href="#m3592193985" x="162.736874" y="27.125297" style="fill: #5a5758; stroke: #5a5758; stroke-width: 0.8"/>
      </g>
     </g>
     <g id="text_3">
      <!-- 10 -->
      <g style="fill: #5a5758" transform="translate(154.865024 17.62083) scale(0.14994 -0.14994)">
       <defs>
        <path id="CMUBright-Roman-31" d="M 672 3558 
C 1197 3558 1472 3706 1549 3744 
L 1549 320 
L 710 320 
L 710 0 
L 2803 0 
L 2803 320 
L 1965 320 
L 1965 4301 
L 1862 4301 
C 1696 4141 1389 3885 672 3885 
L 672 3558 
z
" transform="scale(0.015625)"/>
       </defs>
       <use xlink:href="#CMUBright-Roman-31"/>
       <use xlink:href="#CMUBright-Roman-30" x="52.499985"/>
      </g>
     </g>
    </g>
    <g id="xtick_4">
     <g id="line2d_7">
      <g>
       <use xlink:href="#m726b0a4bf6" x="225.971719" y="343.29952" style="fill: #5a5758; stroke: #5a5758; stroke-width: 0.8"/>
      </g>
     </g>
     <g id="line2d_8">
      <g>
       <use xlink:href="#m3592193985" x="225.971719" y="27.125297" style="fill: #5a5758; stroke: #5a5758; stroke-width: 0.8"/>
      </g>
     </g>
     <g id="text_4">
      <!-- 15 -->
      <g style="fill: #5a5758" transform="translate(218.099869 17.62083) scale(0.14994 -0.14994)">
       <use xlink:href="#CMUBright-Roman-31"/>
       <use xlink:href="#CMUBright-Roman-35" x="52.499985"/>
      </g>
     </g>
    </g>
    <g id="xtick_5">
     <g id="line2d_9">
      <g>
       <use xlink:href="#m726b0a4bf6" x="289.206563" y="343.29952" style="fill: #5a5758; stroke: #5a5758; stroke-width: 0.8"/>
      </g>
     </g>
     <g id="line2d_10">
      <g>
       <use xlink:href="#m3592193985" x="289.206563" y="27.125297" style="fill: #5a5758; stroke: #5a5758; stroke-width: 0.8"/>
      </g>
     </g>
     <g id="text_5">
      <!-- 20 -->
      <g style="fill: #5a5758" transform="translate(281.334713 17.62083) scale(0.14994 -0.14994)">
       <defs>
        <path id="CMUBright-Roman-32" d="M 275 3226 
L 512 2938 
C 653 3475 864 3962 1498 3962 
C 2106 3962 2592 3571 2592 2982 
C 2592 2413 2214 2022 1683 1562 
L 333 339 
L 333 0 
L 3021 0 
L 3021 358 
L 698 358 
C 1773 1325 1638 1210 2061 1549 
C 2438 1856 3021 2304 3021 2989 
C 3021 3744 2419 4294 1594 4301 
L 1587 4301 
C 800 4301 442 3782 275 3226 
z
" transform="scale(0.015625)"/>
       </defs>
       <use xlink:href="#CMUBright-Roman-32"/>
       <use xlink:href="#CMUBright-Roman-30" x="52.499985"/>
      </g>
     </g>
    </g>
   </g>
   <g id="matplotlib.axis_2">
    <g id="ytick_1">
     <g id="line2d_11">
      <defs>
       <path id="m4ceaf32267" d="M 0 0 
L -3.5 0 
" style="stroke: #5a5758; stroke-width: 0.8"/>
      </defs>
      <g>
       <use xlink:href="#m4ceaf32267" x="29.9437" y="33.448781" style="fill: #5a5758; stroke: #5a5758; stroke-width: 0.8"/>
      </g>
     </g>
     <g id="text_6">
      <!-- 0 -->
      <g style="fill: #5a5758" transform="translate(15.07185 38.659196) scale(0.14994 -0.14994)">
       <use xlink:href="#CMUBright-Roman-30"/>
      </g>
     </g>
    </g>
    <g id="ytick_2">
     <g id="line2d_12">
      <g>
       <use xlink:href="#m4ceaf32267" x="29.9437" y="96.683626" style="fill: #5a5758; stroke: #5a5758; stroke-width: 0.8"/>
      </g>
     </g>
     <g id="text_7">
      <!-- 5 -->
      <g style="fill: #5a5758" transform="translate(15.07185 101.894041) scale(0.14994 -0.14994)">
       <use xlink:href="#CMUBright-Roman-35"/>
      </g>
     </g>
    </g>
    <g id="ytick_3">
     <g id="line2d_13">
      <g>
       <use xlink:href="#m4ceaf32267" x="29.9437" y="159.91847" style="fill: #5a5758; stroke: #5a5758; stroke-width: 0.8"/>
      </g>
     </g>
     <g id="text_8">
      <!-- 10 -->
      <g style="fill: #5a5758" transform="translate(7.2 165.128885) scale(0.14994 -0.14994)">
       <use xlink:href="#CMUBright-Roman-31"/>
       <use xlink:href="#CMUBright-Roman-30" x="52.499985"/>
      </g>
     </g>
    </g>
    <g id="ytick_4">
     <g id="line2d_14">
      <g>
       <use xlink:href="#m4ceaf32267" x="29.9437" y="223.153315" style="fill: #5a5758; stroke: #5a5758; stroke-width: 0.8"/>
      </g>
     </g>
     <g id="text_9">
      <!-- 15 -->
      <g style="fill: #5a5758" transform="translate(7.2 228.36373) scale(0.14994 -0.14994)">
       <use xlink:href="#CMUBright-Roman-31"/>
       <use xlink:href="#CMUBright-Roman-35" x="52.499985"/>
      </g>
     </g>
    </g>
    <g id="ytick_5">
     <g id="line2d_15">
      <g>
       <use xlink:href="#m4ceaf32267" x="29.9437" y="286.38816" style="fill: #5a5758; stroke: #5a5758; stroke-width: 0.8"/>
      </g>
     </g>
     <g id="text_10">
      <!-- 20 -->
      <g style="fill: #5a5758" transform="translate(7.2 291.598575) scale(0.14994 -0.14994)">
       <use xlink:href="#CMUBright-Roman-32"/>
       <use xlink:href="#CMUBright-Roman-30" x="52.499985"/>
      </g>
     </g>
    </g>
   </g>
   <g id="line2d_16">
    <defs>
     <path id="mace61db097" d="M -5 5 
L 5 5 
L 5 -5 
L -5 -5 
z
" style="stroke: #ffffff; stroke-linejoin: miter"/>
    </defs>
    <g clip-path="url(#pfb7db14b7a)">
     <use xlink:href="#mace61db097" x="36.267184" y="33.448781" style="fill: #e29400; stroke: #ffffff; stroke-linejoin: miter"/>
     <use xlink:href="#mace61db097" x="48.914153" y="46.09575" style="fill: #e29400; stroke: #ffffff; stroke-linejoin: miter"/>
     <use xlink:href="#mace61db097" x="61.561122" y="58.742719" style="fill: #e29400; stroke: #ffffff; stroke-linejoin: miter"/>
     <use xlink:href="#mace61db097" x="74.208091" y="71.389688" style="fill: #e29400; stroke: #ffffff; stroke-linejoin: miter"/>
     <use xlink:href="#mace61db097" x="86.85506" y="84.036657" style="fill: #e29400; stroke: #ffffff; stroke-linejoin: miter"/>
     <use xlink:href="#mace61db097" x="99.502029" y="96.683626" style="fill: #e29400; stroke: #ffffff; stroke-linejoin: miter"/>
     <use xlink:href="#mace61db097" x="36.267184" y="109.330595" style="fill: #e29400; stroke: #ffffff; stroke-linejoin: miter"/>
     <use xlink:href="#mace61db097" x="61.561122" y="109.330595" style="fill: #e29400; stroke: #ffffff; stroke-linejoin: miter"/>
     <use xlink:href="#mace61db097" x="112.148998" y="109.330595" style="fill: #e29400; stroke: #ffffff; stroke-linejoin: miter"/>
     <use xlink:href="#mace61db097" x="162.736874" y="109.330595" style="fill: #e29400; stroke: #ffffff; stroke-linejoin: miter"/>
     <use xlink:href="#mace61db097" x="188.030812" y="109.330595" style="fill: #e29400; stroke: #ffffff; stroke-linejoin: miter"/>
     <use xlink:href="#mace61db097" x="48.914153" y="121.977564" style="fill: #e29400; stroke: #ffffff; stroke-linejoin: miter"/>
     <use xlink:href="#mace61db097" x="74.208091" y="121.977564" style="fill: #e29400; stroke: #ffffff; stroke-linejoin: miter"/>
     <use xlink:href="#mace61db097" x="124.795967" y="121.977564" style="fill: #e29400; stroke: #ffffff; stroke-linejoin: miter"/>
     <use xlink:href="#mace61db097" x="175.383843" y="121.977564" style="fill: #e29400; stroke: #ffffff; stroke-linejoin: miter"/>
     <use xlink:href="#mace61db097" x="200.677781" y="121.977564" style="fill: #e29400; stroke: #ffffff; stroke-linejoin: miter"/>
     <use xlink:href="#mace61db097" x="61.561122" y="134.624533" style="fill: #e29400; stroke: #ffffff; stroke-linejoin: miter"/>
     <use xlink:href="#mace61db097" x="86.85506" y="134.624533" style="fill: #e29400; stroke: #ffffff; stroke-linejoin: miter"/>
     <use xlink:href="#mace61db097" x="137.442936" y="134.624533" style="fill: #e29400; stroke: #ffffff; stroke-linejoin: miter"/>
     <use xlink:href="#mace61db097" x="188.030812" y="134.624533" style="fill: #e29400; stroke: #ffffff; stroke-linejoin: miter"/>
     <use xlink:href="#mace61db097" x="213.32475" y="134.624533" style="fill: #e29400; stroke: #ffffff; stroke-linejoin: miter"/>
     <use xlink:href="#mace61db097" x="150.089905" y="147.271501" style="fill: #e29400; stroke: #ffffff; stroke-linejoin: miter"/>
     <use xlink:href="#mace61db097" x="162.736874" y="159.91847" style="fill: #e29400; stroke: #ffffff; stroke-linejoin: miter"/>
     <use xlink:href="#mace61db097" x="99.502029" y="172.565439" style="fill: #e29400; stroke: #ffffff; stroke-linejoin: miter"/>
     <use xlink:href="#mace61db097" x="124.795967" y="172.565439" style="fill: #e29400; stroke: #ffffff; stroke-linejoin: miter"/>
     <use xlink:href="#mace61db097" x="175.383843" y="172.565439" style="fill: #e29400; stroke: #ffffff; stroke-linejoin: miter"/>
     <use xlink:href="#mace61db097" x="225.971719" y="172.565439" style="fill: #e29400; stroke: #ffffff; stroke-linejoin: miter"/>
     <use xlink:href="#mace61db097" x="251.265656" y="172.565439" style="fill: #e29400; stroke: #ffffff; stroke-linejoin: miter"/>
     <use xlink:href="#mace61db097" x="112.148998" y="185.212408" style="fill: #e29400; stroke: #ffffff; stroke-linejoin: miter"/>
     <use xlink:href="#mace61db097" x="137.442936" y="185.212408" style="fill: #e29400; stroke: #ffffff; stroke-linejoin: miter"/>
     <use xlink:href="#mace61db097" x="188.030812" y="185.212408" style="fill: #e29400; stroke: #ffffff; stroke-linejoin: miter"/>
     <use xlink:href="#mace61db097" x="238.618687" y="185.212408" style="fill: #e29400; stroke: #ffffff; stroke-linejoin: miter"/>
     <use xlink:href="#mace61db097" x="263.912625" y="185.212408" style="fill: #e29400; stroke: #ffffff; stroke-linejoin: miter"/>
     <use xlink:href="#mace61db097" x="124.795967" y="197.859377" style="fill: #e29400; stroke: #ffffff; stroke-linejoin: miter"/>
     <use xlink:href="#mace61db097" x="150.089905" y="197.859377" style="fill: #e29400; stroke: #ffffff; stroke-linejoin: miter"/>
     <use xlink:href="#mace61db097" x="200.677781" y="197.859377" style="fill: #e29400; stroke: #ffffff; stroke-linejoin: miter"/>
     <use xlink:href="#mace61db097" x="251.265656" y="197.859377" style="fill: #e29400; stroke: #ffffff; stroke-linejoin: miter"/>
     <use xlink:href="#mace61db097" x="276.559594" y="197.859377" style="fill: #e29400; stroke: #ffffff; stroke-linejoin: miter"/>
     <use xlink:href="#mace61db097" x="213.32475" y="210.506346" style="fill: #e29400; stroke: #ffffff; stroke-linejoin: miter"/>
     <use xlink:href="#mace61db097" x="225.971719" y="223.153315" style="fill: #e29400; stroke: #ffffff; stroke-linejoin: miter"/>
     <use xlink:href="#mace61db097" x="162.736874" y="235.800284" style="fill: #e29400; stroke: #ffffff; stroke-linejoin: miter"/>
     <use xlink:href="#mace61db097" x="188.030812" y="235.800284" style="fill: #e29400; stroke: #ffffff; stroke-linejoin: miter"/>
     <use xlink:href="#mace61db097" x="238.618687" y="235.800284" style="fill: #e29400; stroke: #ffffff; stroke-linejoin: miter"/>
     <use xlink:href="#mace61db097" x="289.206563" y="235.800284" style="fill: #e29400; stroke: #ffffff; stroke-linejoin: miter"/>
     <use xlink:href="#mace61db097" x="314.500501" y="235.800284" style="fill: #e29400; stroke: #ffffff; stroke-linejoin: miter"/>
     <use xlink:href="#mace61db097" x="175.383843" y="248.447253" style="fill: #e29400; stroke: #ffffff; stroke-linejoin: miter"/>
     <use xlink:href="#mace61db097" x="200.677781" y="248.447253" style="fill: #e29400; stroke: #ffffff; stroke-linejoin: miter"/>
     <use xlink:href="#mace61db097" x="251.265656" y="248.447253" style="fill: #e29400; stroke: #ffffff; stroke-linejoin: miter"/>
     <use xlink:href="#mace61db097" x="301.853532" y="248.447253" style="fill: #e29400; stroke: #ffffff; stroke-linejoin: miter"/>
     <use xlink:href="#mace61db097" x="327.14747" y="248.447253" style="fill: #e29400; stroke: #ffffff; stroke-linejoin: miter"/>
     <use xlink:href="#mace61db097" x="188.030812" y="261.094222" style="fill: #e29400; stroke: #ffffff; stroke-linejoin: miter"/>
     <use xlink:href="#mace61db097" x="213.32475" y="261.094222" style="fill: #e29400; stroke: #ffffff; stroke-linejoin: miter"/>
     <use xlink:href="#mace61db097" x="263.912625" y="261.094222" style="fill: #e29400; stroke: #ffffff; stroke-linejoin: miter"/>
     <use xlink:href="#mace61db097" x="314.500501" y="261.094222" style="fill: #e29400; stroke: #ffffff; stroke-linejoin: miter"/>
     <use xlink:href="#mace61db097" x="339.794439" y="261.094222" style="fill: #e29400; stroke: #ffffff; stroke-linejoin: miter"/>
     <use xlink:href="#mace61db097" x="276.559594" y="273.741191" style="fill: #e29400; stroke: #ffffff; stroke-linejoin: miter"/>
     <use xlink:href="#mace61db097" x="289.206563" y="286.38816" style="fill: #e29400; stroke: #ffffff; stroke-linejoin: miter"/>
     <use xlink:href="#mace61db097" x="301.853532" y="299.035129" style="fill: #e29400; stroke: #ffffff; stroke-linejoin: miter"/>
     <use xlink:href="#mace61db097" x="314.500501" y="311.682098" style="fill: #e29400; stroke: #ffffff; stroke-linejoin: miter"/>
     <use xlink:href="#mace61db097" x="327.14747" y="324.329067" style="fill: #e29400; stroke: #ffffff; stroke-linejoin: miter"/>
     <use xlink:href="#mace61db097" x="339.794439" y="336.976036" style="fill: #e29400; stroke: #ffffff; stroke-linejoin: miter"/>
    </g>
   </g>
   <g id="patch_3">
    <path d="M 29.9437 343.29952 
L 29.9437 27.125297 
" style="fill: none; stroke: #5a5758; stroke-width: 0.8; stroke-linejoin: miter; stroke-linecap: square"/>
   </g>
   <g id="patch_4">
    <path d="M 29.9437 343.29952 
L 346.117923 343.29952 
" style="fill: none; stroke: #5a5758; stroke-width: 0.8; stroke-linejoin: miter; stroke-linecap: square"/>
   </g>
  </g>
 </g>
 <defs>
  <clipPath id="pfb7db14b7a">
   <rect x="29.9437" y="27.125297" width="316.174223" height="316.174223"/>
  </clipPath>
 </defs>
</svg>