<?xml version="1.0" encoding="utf-8" standalone="no"?>
<!DOCTYPE svg PUBLIC "-//W3C//DTD SVG 1.1//EN"
  "http://www.w3.org/Graphics/SVG/1.1/DTD/svg11.dtd">
<svg xmlns:xlink="http://www.w3.org/1999/xlink" width="468.428704pt" height="353.99952pt" viewBox="0 0 468.428704 353.99952" xmlns="http://www.w3.org/2000/svg" version="1.1">
 <metadata>
  <rdf:RDF xmlns:dc="http://purl.org/dc/elements/1.1/" xmlns:cc="http://creativecommons.org/ns#" xmlns:rdf="http://www.w3.org/1999/02/22-rdf-syntax-ns#">
   <cc:Work>
    <dc:type rdf:resource="http://purl.org/dc/dcmitype/StillImage"/>
    <dc:date>2023-09-20T13:51:15.974187</dc:date>
    <dc:format>image/svg+xml</dc:format>
    <dc:creator>
     <cc:Agent>
      <dc:title>Matplotlib v3.7.2, https://matplotlib.org/</dc:title>
     </cc:Agent>
    </dc:creator>
   </cc:Work>
  </rdf:RDF>
 </metadata>
 <defs>
  <style type="text/css">*{stroke-linejoin: round; stroke-linecap: butt}</style>
 </defs>
 <g id="figure_1">
  <g id="patch_1">
   <path d="M 0 353.99952 
L 468.428704 353.99952 
L 468.428704 0 
L 0 0 
z
" style="fill: #ffffff"/>
  </g>
  <g id="axes_1">
   <g id="patch_2">
    <path d="M 69.838979 291.357661 
L 364.001194 291.357661 
L 364.001194 12.410415 
L 69.838979 12.410415 
z
" style="fill: #ffffff"/>
   </g>
   <g id="PathCollection_1">
    <path d="M 69.838979 221.620849 
L 69.838979 151.884038 
L 69.838979 82.147226 
L 69.838979 12.410415 
L 134.569589 12.410415 
L 143.379533 58.518135 
L 148.586439 82.147226 
L 198.159051 151.884038 
L 216.920087 169.674696 
L 290.46064 216.683261 
L 315.378563 221.620849 
L 364.001194 229.975116 
L 364.001194 291.357661 
L 290.46064 291.357661 
L 216.920087 291.357661 
L 143.379533 291.357661 
L 69.838979 291.357661 
z
" clip-path="url(#p81447e56a2)" style="fill: #2f47bf"/>
   </g>
   <g id="PathCollection_2">
    <path d="M 134.569589 12.410415 
L 143.379533 12.410415 
L 186.930591 12.410415 
L 216.920087 73.460937 
L 221.745473 82.147226 
L 290.46064 147.308235 
L 299.620717 151.884038 
L 364.001194 180.322385 
L 364.001194 221.620849 
L 364.001194 229.975116 
L 315.378563 221.620849 
L 290.46064 216.683261 
L 216.920087 169.674696 
L 198.159051 151.884038 
L 148.586439 82.147226 
L 143.379533 58.518135 
z
" clip-path="url(#p81447e56a2)" style="fill: #117ad9"/>
   </g>
   <g id="PathCollection_3">
    <path d="M 186.930591 12.410415 
L 216.920087 12.410415 
L 232.825344 12.410415 
L 278.755879 82.147226 
L 290.46064 93.246582 
L 364.001194 136.801449 
L 364.001194 151.884038 
L 364.001194 180.322385 
L 299.620717 151.884038 
L 290.46064 147.308235 
L 221.745473 82.147226 
L 216.920087 73.460937 
z
" clip-path="url(#p81447e56a2)" style="fill: #06a2cb"/>
   </g>
   <g id="PathCollection_4">
    <path d="M 278.755879 82.147226 
L 232.825344 12.410415 
L 272.086443 12.410415 
L 290.46064 38.257464 
L 336.744337 82.147226 
L 364.001194 99.571054 
L 364.001194 136.801449 
L 290.46064 93.246582 
z
" clip-path="url(#p81447e56a2)" style="fill: #34b8a0"/>
   </g>
   <g id="PathCollection_5">
    <path d="M 272.086443 12.410415 
L 290.46064 12.410415 
L 306.727376 12.410415 
L 364.001194 66.721856 
L 364.001194 82.147226 
L 364.001194 99.571054 
L 336.744337 82.147226 
L 290.46064 38.257464 
z
" clip-path="url(#p81447e56a2)" style="fill: #97bf71"/>
   </g>
   <g id="PathCollection_6">
    <path d="M 306.727376 12.410415 
L 337.303951 12.410415 
L 364.001194 37.726795 
L 364.001194 66.721856 
z
" clip-path="url(#p81447e56a2)" style="fill: #e6b94f"/>
   </g>
   <g id="PathCollection_7">
    <path d="M 337.303951 12.410415 
L 364.001194 12.410415 
L 364.001194 37.726795 
z
" clip-path="url(#p81447e56a2)" style="fill: #f6db23"/>
   </g>
   <g id="matplotlib.axis_1">
    <g id="xtick_1">
     <g id="line2d_1">
      <defs>
       <path id="mf5a3ca567e" d="M 0 0 
L 0 3.5 
" style="stroke: #5a5758; stroke-width: 0.8"/>
      </defs>
      <g>
       <use xlink:href="#mf5a3ca567e" x="69.838979" y="303.357661" style="fill: #5a5758; stroke: #5a5758; stroke-width: 0.8"/>
      </g>
     </g>
     <g id="text_1">
      <!-- 0.0 -->
      <g style="fill: #5a5758" transform="translate(59.777771 320.778491) scale(0.14994 -0.14994)">
       <defs>
        <path id="CMUBright-Roman-30" d="M 333 1984 
C 333 218 1139 -109 1677 -109 
C 2022 -109 2528 38 2803 685 
C 3008 1165 3021 1626 3021 2214 
C 3021 3974 2214 4301 1677 4301 
C 1555 4301 1414 4288 1261 4230 
C 358 3898 333 2694 333 2086 
L 333 1984 
z
M 742 2413 
C 742 2701 768 3302 1005 3642 
C 1139 3834 1389 3981 1677 3981 
C 1933 3981 2182 3866 2336 3661 
C 2592 3328 2611 2701 2611 2406 
C 2611 2342 2605 2298 2605 2272 
L 2605 2163 
C 2605 1613 2598 934 2330 557 
C 2195 371 1958 218 1677 218 
C 1427 218 1190 339 1037 538 
C 755 909 749 1594 749 2150 
L 749 2272 
C 749 2298 742 2349 742 2413 
z
" transform="scale(0.015625)"/>
        <path id="CMUBright-Roman-2e" d="M 678 0 
L 1178 0 
L 1178 499 
L 678 499 
L 678 0 
z
" transform="scale(0.015625)"/>
       </defs>
       <use xlink:href="#CMUBright-Roman-30"/>
       <use xlink:href="#CMUBright-Roman-2e" x="52.499985"/>
       <use xlink:href="#CMUBright-Roman-30" x="81.699982"/>
      </g>
     </g>
    </g>
    <g id="xtick_2">
     <g id="line2d_2">
      <g>
       <use xlink:href="#mf5a3ca567e" x="128.671422" y="303.357661" style="fill: #5a5758; stroke: #5a5758; stroke-width: 0.8"/>
      </g>
     </g>
     <g id="text_2">
      <!-- 0.2 -->
      <g style="fill: #5a5758" transform="translate(118.610214 320.778491) scale(0.14994 -0.14994)">
       <defs>
        <path id="CMUBright-Roman-32" d="M 275 3226 
L 512 2938 
C 653 3475 864 3962 1498 3962 
C 2106 3962 2592 3571 2592 2982 
C 2592 2413 2214 2022 1683 1562 
L 333 339 
L 333 0 
L 3021 0 
L 3021 358 
L 698 358 
C 1773 1325 1638 1210 2061 1549 
C 2438 1856 3021 2304 3021 2989 
C 3021 3744 2419 4294 1594 4301 
L 1587 4301 
C 800 4301 442 3782 275 3226 
z
" transform="scale(0.015625)"/>
       </defs>
       <use xlink:href="#CMUBright-Roman-30"/>
       <use xlink:href="#CMUBright-Roman-2e" x="52.499985"/>
       <use xlink:href="#CMUBright-Roman-32" x="81.699982"/>
      </g>
     </g>
    </g>
    <g id="xtick_3">
     <g id="line2d_3">
      <g>
       <use xlink:href="#mf5a3ca567e" x="187.503865" y="303.357661" style="fill: #5a5758; stroke: #5a5758; stroke-width: 0.8"/>
      </g>
     </g>
     <g id="text_3">
      <!-- 0.4 -->
      <g style="fill: #5a5758" transform="translate(177.442657 320.778491) scale(0.14994 -0.14994)">
       <defs>
        <path id="CMUBright-Roman-34" d="M 186 1158 
L 2035 1158 
L 2035 0 
L 2438 0 
L 2438 1158 
L 3168 1158 
L 3168 1498 
L 2438 1498 
L 2438 4250 
L 1952 4250 
L 186 1504 
L 186 1158 
z
M 602 1498 
L 1606 3085 
C 1901 3552 1990 3712 2054 3885 
L 2054 1498 
L 602 1498 
z
" transform="scale(0.015625)"/>
       </defs>
       <use xlink:href="#CMUBright-Roman-30"/>
       <use xlink:href="#CMUBright-Roman-2e" x="52.499985"/>
       <use xlink:href="#CMUBright-Roman-34" x="81.699982"/>
      </g>
     </g>
    </g>
    <g id="xtick_4">
     <g id="line2d_4">
      <g>
       <use xlink:href="#mf5a3ca567e" x="246.336308" y="303.357661" style="fill: #5a5758; stroke: #5a5758; stroke-width: 0.8"/>
      </g>
     </g>
     <g id="text_4">
      <!-- 0.6 -->
      <g style="fill: #5a5758" transform="translate(236.2751 320.778491) scale(0.14994 -0.14994)">
       <defs>
        <path id="CMUBright-Roman-36" d="M 346 2061 
C 346 269 1152 -109 1690 -109 
C 2125 -109 2394 70 2618 326 
C 2899 646 3008 954 3008 1408 
C 3008 1837 2931 2138 2682 2483 
C 2502 2726 2298 2886 1952 2886 
C 1382 2886 960 2522 774 2125 
C 774 2150 768 2182 768 2208 
C 768 3264 1286 3981 2061 3981 
L 2074 3981 
C 2349 3981 2515 3936 2797 3846 
L 2797 4179 
C 2522 4269 2349 4301 2086 4301 
L 2074 4301 
C 1203 4301 346 3469 346 2061 
z
M 794 1389 
L 806 1389 
C 800 1440 800 1504 800 1555 
C 800 2080 1171 2566 1728 2566 
C 1926 2566 2106 2522 2253 2400 
C 2573 2131 2586 1754 2586 1434 
C 2586 1069 2579 819 2381 550 
C 2221 333 2016 224 1690 224 
C 966 224 838 934 794 1389 
z
" transform="scale(0.015625)"/>
       </defs>
       <use xlink:href="#CMUBright-Roman-30"/>
       <use xlink:href="#CMUBright-Roman-2e" x="52.499985"/>
       <use xlink:href="#CMUBright-Roman-36" x="81.699982"/>
      </g>
     </g>
    </g>
    <g id="xtick_5">
     <g id="line2d_5">
      <g>
       <use xlink:href="#mf5a3ca567e" x="305.168751" y="303.357661" style="fill: #5a5758; stroke: #5a5758; stroke-width: 0.8"/>
      </g>
     </g>
     <g id="text_5">
      <!-- 0.8 -->
      <g style="fill: #5a5758" transform="translate(295.107543 320.778491) scale(0.14994 -0.14994)">
       <defs>
        <path id="CMUBright-Roman-38" d="M 275 1158 
C 275 518 851 -109 1670 -109 
C 2470 -109 3072 493 3072 1158 
C 3072 1792 2509 2163 2099 2266 
L 2285 2323 
C 2675 2483 2982 2803 2982 3213 
C 2982 3808 2400 4301 1677 4301 
C 909 4301 371 3763 371 3206 
C 371 2682 864 2362 1248 2266 
C 563 2054 275 1600 275 1158 
z
M 698 1158 
C 698 1882 1235 2106 1670 2106 
C 2195 2106 2650 1805 2650 1165 
C 2650 557 2259 224 1670 224 
C 1126 224 698 525 698 1158 
z
M 755 3206 
C 755 3514 915 3981 1683 3981 
C 2432 3981 2592 3514 2592 3206 
C 2592 2720 2234 2426 1670 2426 
C 1011 2426 755 2822 755 3206 
z
" transform="scale(0.015625)"/>
       </defs>
       <use xlink:href="#CMUBright-Roman-30"/>
       <use xlink:href="#CMUBright-Roman-2e" x="52.499985"/>
       <use xlink:href="#CMUBright-Roman-38" x="81.699982"/>
      </g>
     </g>
    </g>
    <g id="xtick_6">
     <g id="line2d_6">
      <g>
       <use xlink:href="#mf5a3ca567e" x="364.001194" y="303.357661" style="fill: #5a5758; stroke: #5a5758; stroke-width: 0.8"/>
      </g>
     </g>
     <g id="text_6">
      <!-- 1.0 -->
      <g style="fill: #5a5758" transform="translate(353.939986 320.778491) scale(0.14994 -0.14994)">
       <defs>
        <path id="CMUBright-Roman-31" d="M 672 3558 
C 1197 3558 1472 3706 1549 3744 
L 1549 320 
L 710 320 
L 710 0 
L 2803 0 
L 2803 320 
L 1965 320 
L 1965 4301 
L 1862 4301 
C 1696 4141 1389 3885 672 3885 
L 672 3558 
z
" transform="scale(0.015625)"/>
       </defs>
       <use xlink:href="#CMUBright-Roman-31"/>
       <use xlink:href="#CMUBright-Roman-2e" x="52.499985"/>
       <use xlink:href="#CMUBright-Roman-30" x="81.699982"/>
      </g>
     </g>
    </g>
    <g id="text_7">
     <!-- x -->
     <g style="fill: #5a5758" transform="translate(212.798368 343.792957) scale(0.18 -0.18)">
      <defs>
       <path id="CMUBright-SemiBold-78" d="M 0 0 
L 653 0 
L 1440 1197 
L 1446 1197 
L 2272 0 
L 2931 0 
L 1709 1562 
L 1709 1568 
L 2816 3021 
L 2163 3021 
L 1446 2022 
L 698 3021 
L 38 3021 
L 1184 1568 
L 1184 1562 
L 0 0 
z
" transform="scale(0.015625)"/>
      </defs>
      <use xlink:href="#CMUBright-SemiBold-78"/>
     </g>
    </g>
   </g>
   <g id="matplotlib.axis_2">
    <g id="ytick_1">
     <g id="line2d_7">
      <defs>
       <path id="m727160fdb3" d="M 0 0 
L -3.5 0 
" style="stroke: #5a5758; stroke-width: 0.8"/>
      </defs>
      <g>
       <use xlink:href="#m727160fdb3" x="57.838979" y="291.357661" style="fill: #5a5758; stroke: #5a5758; stroke-width: 0.8"/>
      </g>
     </g>
     <g id="text_8">
      <!-- 0.0 -->
      <g style="fill: #5a5758" transform="translate(30.716563 296.568076) scale(0.14994 -0.14994)">
       <use xlink:href="#CMUBright-Roman-30"/>
       <use xlink:href="#CMUBright-Roman-2e" x="52.499985"/>
       <use xlink:href="#CMUBright-Roman-30" x="81.699982"/>
      </g>
     </g>
    </g>
    <g id="ytick_2">
     <g id="line2d_8">
      <g>
       <use xlink:href="#m727160fdb3" x="57.838979" y="235.568212" style="fill: #5a5758; stroke: #5a5758; stroke-width: 0.8"/>
      </g>
     </g>
     <g id="text_9">
      <!-- 0.2 -->
      <g style="fill: #5a5758" transform="translate(30.716563 240.778627) scale(0.14994 -0.14994)">
       <use xlink:href="#CMUBright-Roman-30"/>
       <use xlink:href="#CMUBright-Roman-2e" x="52.499985"/>
       <use xlink:href="#CMUBright-Roman-32" x="81.699982"/>
      </g>
     </g>
    </g>
    <g id="ytick_3">
     <g id="line2d_9">
      <g>
       <use xlink:href="#m727160fdb3" x="57.838979" y="179.778763" style="fill: #5a5758; stroke: #5a5758; stroke-width: 0.8"/>
      </g>
     </g>
     <g id="text_10">
      <!-- 0.4 -->
      <g style="fill: #5a5758" transform="translate(30.716563 184.989178) scale(0.14994 -0.14994)">
       <use xlink:href="#CMUBright-Roman-30"/>
       <use xlink:href="#CMUBright-Roman-2e" x="52.499985"/>
       <use xlink:href="#CMUBright-Roman-34" x="81.699982"/>
      </g>
     </g>
    </g>
    <g id="ytick_4">
     <g id="line2d_10">
      <g>
       <use xlink:href="#m727160fdb3" x="57.838979" y="123.989313" style="fill: #5a5758; stroke: #5a5758; stroke-width: 0.8"/>
      </g>
     </g>
     <g id="text_11">
      <!-- 0.6 -->
      <g style="fill: #5a5758" transform="translate(30.716563 129.199728) scale(0.14994 -0.14994)">
       <use xlink:href="#CMUBright-Roman-30"/>
       <use xlink:href="#CMUBright-Roman-2e" x="52.499985"/>
       <use xlink:href="#CMUBright-Roman-36" x="81.699982"/>
      </g>
     </g>
    </g>
    <g id="ytick_5">
     <g id="line2d_11">
      <g>
       <use xlink:href="#m727160fdb3" x="57.838979" y="68.199864" style="fill: #5a5758; stroke: #5a5758; stroke-width: 0.8"/>
      </g>
     </g>
     <g id="text_12">
      <!-- 0.8 -->
      <g style="fill: #5a5758" transform="translate(30.716563 73.410279) scale(0.14994 -0.14994)">
       <use xlink:href="#CMUBright-Roman-30"/>
       <use xlink:href="#CMUBright-Roman-2e" x="52.499985"/>
       <use xlink:href="#CMUBright-Roman-38" x="81.699982"/>
      </g>
     </g>
    </g>
    <g id="ytick_6">
     <g id="line2d_12">
      <g>
       <use xlink:href="#m727160fdb3" x="57.838979" y="12.410415" style="fill: #5a5758; stroke: #5a5758; stroke-width: 0.8"/>
      </g>
     </g>
     <g id="text_13">
      <!-- 1.0 -->
      <g style="fill: #5a5758" transform="translate(30.716563 17.62083) scale(0.14994 -0.14994)">
       <use xlink:href="#CMUBright-Roman-31"/>
       <use xlink:href="#CMUBright-Roman-2e" x="52.499985"/>
       <use xlink:href="#CMUBright-Roman-30" x="81.699982"/>
      </g>
     </g>
    </g>
    <g id="text_14">
     <!-- y -->
     <g style="fill: #5a5758" transform="translate(19.566563 156.005757) rotate(-90) scale(0.18 -0.18)">
      <defs>
       <path id="CMUBright-SemiBold-79" d="M 90 3021 
L 1261 0 
C 1146 -326 1069 -640 691 -640 
C 480 -640 307 -589 154 -544 
L 205 -1075 
C 301 -1088 493 -1120 685 -1120 
C 1306 -1120 1555 -602 1722 -128 
L 2835 3021 
L 2240 3021 
C 1850 1888 1536 1011 1510 614 
C 1446 1094 1254 1574 704 3021 
L 90 3021 
z
" transform="scale(0.015625)"/>
      </defs>
      <use xlink:href="#CMUBright-SemiBold-79"/>
     </g>
    </g>
   </g>
   <g id="patch_3">
    <path d="M 57.838979 291.357661 
L 57.838979 12.410415 
" style="fill: none; stroke: #5a5758; stroke-width: 0.8; stroke-linejoin: miter; stroke-linecap: square"/>
   </g>
   <g id="patch_4">
    <path d="M 69.838979 303.357661 
L 364.001194 303.357661 
" style="fill: none; stroke: #5a5758; stroke-width: 0.8; stroke-linejoin: miter; stroke-linecap: square"/>
   </g>
  </g>
  <g id="axes_2">
   <g id="patch_5">
    <path d="M 388.770513 291.357661 
L 402.717875 291.357661 
L 402.717875 12.410415 
L 388.770513 12.410415 
z
" style="fill: #ffffff"/>
   </g>
   <g id="QuadMesh_1">
    <path d="M 388.770513 291.357661 
L 402.717875 291.357661 
L 402.717875 251.508054 
L 388.770513 251.508054 
L 388.770513 291.357661 
" clip-path="url(#p1f519f0f83)" style="fill: #2f47bf"/>
    <path d="M 388.770513 251.508054 
L 402.717875 251.508054 
L 402.717875 211.658448 
L 388.770513 211.658448 
L 388.770513 251.508054 
" clip-path="url(#p1f519f0f83)" style="fill: #117ad9"/>
    <path d="M 388.770513 211.658448 
L 402.717875 211.658448 
L 402.717875 171.808841 
L 388.770513 171.808841 
L 388.770513 211.658448 
" clip-path="url(#p1f519f0f83)" style="fill: #06a2cb"/>
    <path d="M 388.770513 171.808841 
L 402.717875 171.808841 
L 402.717875 131.959235 
L 388.770513 131.959235 
L 388.770513 171.808841 
" clip-path="url(#p1f519f0f83)" style="fill: #34b8a0"/>
    <path d="M 388.770513 131.959235 
L 402.717875 131.959235 
L 402.717875 92.109628 
L 388.770513 92.109628 
L 388.770513 131.959235 
" clip-path="url(#p1f519f0f83)" style="fill: #97bf71"/>
    <path d="M 388.770513 92.109628 
L 402.717875 92.109628 
L 402.717875 52.260022 
L 388.770513 52.260022 
L 388.770513 92.109628 
" clip-path="url(#p1f519f0f83)" style="fill: #e6b94f"/>
    <path d="M 388.770513 52.260022 
L 402.717875 52.260022 
L 402.717875 12.410415 
L 388.770513 12.410415 
L 388.770513 52.260022 
" clip-path="url(#p1f519f0f83)" style="fill: #f6db23"/>
   </g>
   <g id="matplotlib.axis_3"/>
   <g id="matplotlib.axis_4">
    <g id="ytick_7">
     <g id="line2d_13">
      <defs>
       <path id="m94b3021677" d="M 0 0 
L 3.5 0 
" style="stroke: #5a5758; stroke-width: 0.8"/>
      </defs>
      <g>
       <use xlink:href="#m94b3021677" x="402.717875" y="291.357661" style="fill: #5a5758; stroke: #5a5758; stroke-width: 0.8"/>
      </g>
     </g>
     <g id="text_15">
      <!-- 1.00 -->
      <g style="fill: #5a5758" transform="translate(409.717875 296.568076) scale(0.14994 -0.14994)">
       <use xlink:href="#CMUBright-Roman-31"/>
       <use xlink:href="#CMUBright-Roman-2e" x="52.499985"/>
       <use xlink:href="#CMUBright-Roman-30" x="81.699982"/>
       <use xlink:href="#CMUBright-Roman-30" x="134.199966"/>
      </g>
     </g>
    </g>
    <g id="ytick_8">
     <g id="line2d_14">
      <g>
       <use xlink:href="#m94b3021677" x="402.717875" y="251.508054" style="fill: #5a5758; stroke: #5a5758; stroke-width: 0.8"/>
      </g>
     </g>
     <g id="text_16">
      <!-- 1.25 -->
      <g style="fill: #5a5758" transform="translate(409.717875 256.718469) scale(0.14994 -0.14994)">
       <defs>
        <path id="CMUBright-Roman-35" d="M 301 518 
C 794 -83 1376 -109 1574 -109 
C 2387 -109 3021 531 3021 1306 
C 3021 2080 2451 2701 1779 2701 
C 1459 2701 1197 2586 973 2381 
L 973 3853 
L 2797 3853 
L 2797 4192 
L 582 4192 
L 582 1901 
L 941 1901 
C 1043 2080 1274 2374 1773 2374 
C 2093 2374 2566 2189 2566 1312 
C 2566 442 2003 224 1581 224 
C 1382 224 864 269 486 819 
L 301 518 
z
" transform="scale(0.015625)"/>
       </defs>
       <use xlink:href="#CMUBright-Roman-31"/>
       <use xlink:href="#CMUBright-Roman-2e" x="52.499985"/>
       <use xlink:href="#CMUBright-Roman-32" x="81.699982"/>
       <use xlink:href="#CMUBright-Roman-35" x="134.199966"/>
      </g>
     </g>
    </g>
    <g id="ytick_9">
     <g id="line2d_15">
      <g>
       <use xlink:href="#m94b3021677" x="402.717875" y="211.658448" style="fill: #5a5758; stroke: #5a5758; stroke-width: 0.8"/>
      </g>
     </g>
     <g id="text_17">
      <!-- 1.50 -->
      <g style="fill: #5a5758" transform="translate(409.717875 216.868863) scale(0.14994 -0.14994)">
       <use xlink:href="#CMUBright-Roman-31"/>
       <use xlink:href="#CMUBright-Roman-2e" x="52.499985"/>
       <use xlink:href="#CMUBright-Roman-35" x="81.699982"/>
       <use xlink:href="#CMUBright-Roman-30" x="134.199966"/>
      </g>
     </g>
    </g>
    <g id="ytick_10">
     <g id="line2d_16">
      <g>
       <use xlink:href="#m94b3021677" x="402.717875" y="171.808841" style="fill: #5a5758; stroke: #5a5758; stroke-width: 0.8"/>
      </g>
     </g>
     <g id="text_18">
      <!-- 1.75 -->
      <g style="fill: #5a5758" transform="translate(409.717875 177.019256) scale(0.14994 -0.14994)">
       <defs>
        <path id="CMUBright-Roman-37" d="M 275 3840 
L 2797 3840 
C 1651 2784 1088 1357 1088 -51 
L 1517 -51 
C 1517 1670 2278 3021 3072 3853 
L 3072 4192 
L 275 4192 
L 275 3840 
z
" transform="scale(0.015625)"/>
       </defs>
       <use xlink:href="#CMUBright-Roman-31"/>
       <use xlink:href="#CMUBright-Roman-2e" x="52.499985"/>
       <use xlink:href="#CMUBright-Roman-37" x="81.699982"/>
       <use xlink:href="#CMUBright-Roman-35" x="134.199966"/>
      </g>
     </g>
    </g>
    <g id="ytick_11">
     <g id="line2d_17">
      <g>
       <use xlink:href="#m94b3021677" x="402.717875" y="131.959235" style="fill: #5a5758; stroke: #5a5758; stroke-width: 0.8"/>
      </g>
     </g>
     <g id="text_19">
      <!-- 2.00 -->
      <g style="fill: #5a5758" transform="translate(409.717875 137.16965) scale(0.14994 -0.14994)">
       <use xlink:href="#CMUBright-Roman-32"/>
       <use xlink:href="#CMUBright-Roman-2e" x="52.499985"/>
       <use xlink:href="#CMUBright-Roman-30" x="81.699982"/>
       <use xlink:href="#CMUBright-Roman-30" x="134.199966"/>
      </g>
     </g>
    </g>
    <g id="ytick_12">
     <g id="line2d_18">
      <g>
       <use xlink:href="#m94b3021677" x="402.717875" y="92.109628" style="fill: #5a5758; stroke: #5a5758; stroke-width: 0.8"/>
      </g>
     </g>
     <g id="text_20">
      <!-- 2.25 -->
      <g style="fill: #5a5758" transform="translate(409.717875 97.320043) scale(0.14994 -0.14994)">
       <use xlink:href="#CMUBright-Roman-32"/>
       <use xlink:href="#CMUBright-Roman-2e" x="52.499985"/>
       <use xlink:href="#CMUBright-Roman-32" x="81.699982"/>
       <use xlink:href="#CMUBright-Roman-35" x="134.199966"/>
      </g>
     </g>
    </g>
    <g id="ytick_13">
     <g id="line2d_19">
      <g>
       <use xlink:href="#m94b3021677" x="402.717875" y="52.260022" style="fill: #5a5758; stroke: #5a5758; stroke-width: 0.8"/>
      </g>
     </g>
     <g id="text_21">
      <!-- 2.50 -->
      <g style="fill: #5a5758" transform="translate(409.717875 57.470437) scale(0.14994 -0.14994)">
       <use xlink:href="#CMUBright-Roman-32"/>
       <use xlink:href="#CMUBright-Roman-2e" x="52.499985"/>
       <use xlink:href="#CMUBright-Roman-35" x="81.699982"/>
       <use xlink:href="#CMUBright-Roman-30" x="134.199966"/>
      </g>
     </g>
    </g>
    <g id="ytick_14">
     <g id="line2d_20">
      <g>
       <use xlink:href="#m94b3021677" x="402.717875" y="12.410415" style="fill: #5a5758; stroke: #5a5758; stroke-width: 0.8"/>
      </g>
     </g>
     <g id="text_22">
      <!-- 2.75 -->
      <g style="fill: #5a5758" transform="translate(409.717875 17.62083) scale(0.14994 -0.14994)">
       <use xlink:href="#CMUBright-Roman-32"/>
       <use xlink:href="#CMUBright-Roman-2e" x="52.499985"/>
       <use xlink:href="#CMUBright-Roman-37" x="81.699982"/>
       <use xlink:href="#CMUBright-Roman-35" x="134.199966"/>
      </g>
     </g>
    </g>
    <g id="text_23">
     <!-- u -->
     <g style="fill: #5a5758" transform="translate(458.222142 156.537319) rotate(-90) scale(0.18 -0.18)">
      <defs>
       <path id="CMUBright-SemiBold-75" d="M 410 838 
C 410 467 435 -51 1088 -51 
C 1536 -51 1971 115 2285 480 
L 2285 0 
L 2886 0 
L 2886 3021 
L 2272 3021 
L 2272 1197 
C 2272 1133 2272 1062 2266 998 
C 2246 832 2093 403 1510 403 
C 1005 403 1030 493 1024 883 
L 1024 3021 
L 410 3021 
L 410 838 
z
" transform="scale(0.015625)"/>
      </defs>
      <use xlink:href="#CMUBright-SemiBold-75"/>
     </g>
    </g>
   </g>
   <g id="LineCollection_1"/>
   <g id="patch_6">
    <path d="M 388.770513 291.357661 
L 395.744194 291.357661 
L 402.717875 291.357661 
L 402.717875 12.410415 
L 395.744194 12.410415 
L 388.770513 12.410415 
L 388.770513 291.357661 
z
" style="fill: none; stroke: #5a5758; stroke-width: 0.8; stroke-linejoin: miter; stroke-linecap: square"/>
   </g>
  </g>
 </g>
 <defs>
  <clipPath id="p81447e56a2">
   <rect x="69.838979" y="12.410415" width="294.162215" height="278.947246"/>
  </clipPath>
  <clipPath id="p1f519f0f83">
   <rect x="388.770513" y="12.410415" width="13.947362" height="278.947246"/>
  </clipPath>
 </defs>
</svg>