<?xml version="1.0" encoding="utf-8" standalone="no"?>
<!DOCTYPE svg PUBLIC "-//W3C//DTD SVG 1.1//EN"
  "http://www.w3.org/Graphics/SVG/1.1/DTD/svg11.dtd">
<svg xmlns:xlink="http://www.w3.org/1999/xlink" width="469.19952pt" height="353.99952pt" viewBox="0 0 469.19952 353.99952" xmlns="http://www.w3.org/2000/svg" version="1.1">
 <metadata>
  <rdf:RDF xmlns:dc="http://purl.org/dc/elements/1.1/" xmlns:cc="http://creativecommons.org/ns#" xmlns:rdf="http://www.w3.org/1999/02/22-rdf-syntax-ns#">
   <cc:Work>
    <dc:type rdf:resource="http://purl.org/dc/dcmitype/StillImage"/>
    <dc:date>2023-11-01T16:16:05.718240</dc:date>
    <dc:format>image/svg+xml</dc:format>
    <dc:creator>
     <cc:Agent>
      <dc:title>Matplotlib v3.8.1, https://matplotlib.org/</dc:title>
     </cc:Agent>
    </dc:creator>
   </cc:Work>
  </rdf:RDF>
 </metadata>
 <defs>
  <style type="text/css">*{stroke-linejoin: round; stroke-linecap: butt}</style>
 </defs>
 <g id="figure_1">
  <g id="patch_1">
   <path d="M 0 353.99952 
L 469.19952 353.99952 
L 469.19952 0 
L 0 0 
z
" style="fill: #ffffff"/>
  </g>
  <g id="axes_1">
   <g id="patch_2">
    <path d="M 69.838979 291.357661 
L 448.002387 291.357661 
L 448.002387 10.2 
L 69.838979 10.2 
z
" style="fill: #ffffff"/>
   </g>
   <g id="matplotlib.axis_1">
    <g id="xtick_1">
     <g id="line2d_1">
      <defs>
       <path id="me81d96e14f" d="M 0 0 
L 0 3.5 
" style="stroke: #5a5758; stroke-width: 0.8"/>
      </defs>
      <g>
       <use xlink:href="#me81d96e14f" x="69.838979" y="303.357661" style="fill: #5a5758; stroke: #5a5758; stroke-width: 0.8"/>
      </g>
     </g>
     <g id="text_1">
      <!-- 0.00 -->
      <g style="fill: #5a5758" transform="translate(55.841846 320.778491) scale(0.14994 -0.14994)">
       <defs>
        <path id="CMUBright-Roman-30" d="M 333 1984 
L 333 2086 
Q 333 2291 339 2438 
Q 346 2586 371 2832 
Q 397 3078 461 3267 
Q 525 3456 621 3657 
Q 717 3859 880 4006 
Q 1043 4154 1261 4230 
Q 1446 4301 1677 4301 
Q 1856 4301 2025 4256 
Q 2195 4211 2380 4070 
Q 2566 3930 2704 3709 
Q 2842 3488 2931 3104 
Q 3021 2720 3021 2214 
Q 3021 1683 2982 1347 
Q 2944 1011 2803 685 
Q 2618 250 2307 70 
Q 1997 -109 1677 -109 
Q 1498 -109 1328 -64 
Q 1158 -19 972 121 
Q 787 262 649 483 
Q 512 704 422 1091 
Q 333 1478 333 1984 
z
M 742 2413 
Q 742 2374 745 2326 
Q 749 2278 749 2272 
L 749 2150 
Q 749 1779 758 1548 
Q 768 1318 838 1014 
Q 909 710 1037 538 
Q 1286 218 1677 218 
Q 2086 218 2330 557 
Q 2451 730 2518 1037 
Q 2586 1344 2595 1568 
Q 2605 1792 2605 2163 
L 2605 2272 
Q 2605 2278 2608 2323 
Q 2611 2368 2611 2406 
Q 2611 3302 2336 3661 
Q 2099 3981 1677 3981 
Q 1242 3981 1005 3642 
Q 742 3264 742 2413 
z
" transform="scale(0.015625)"/>
        <path id="CMUBright-Roman-2e" d="M 678 0 
L 678 499 
L 1178 499 
L 1178 0 
L 678 0 
z
" transform="scale(0.015625)"/>
       </defs>
       <use xlink:href="#CMUBright-Roman-30"/>
       <use xlink:href="#CMUBright-Roman-2e" x="52.499985"/>
       <use xlink:href="#CMUBright-Roman-30" x="81.699982"/>
       <use xlink:href="#CMUBright-Roman-30" x="134.199966"/>
      </g>
     </g>
    </g>
    <g id="xtick_2">
     <g id="line2d_2">
      <g>
       <use xlink:href="#me81d96e14f" x="117.109405" y="303.357661" style="fill: #5a5758; stroke: #5a5758; stroke-width: 0.8"/>
      </g>
     </g>
     <g id="text_2">
      <!-- 0.25 -->
      <g style="fill: #5a5758" transform="translate(103.112272 320.778491) scale(0.14994 -0.14994)">
       <defs>
        <path id="CMUBright-Roman-32" d="M 275 3226 
Q 595 4301 1587 4301 
L 1594 4301 
Q 2214 4294 2617 3923 
Q 3021 3552 3021 2989 
Q 3021 2746 2937 2531 
Q 2854 2317 2668 2115 
Q 2483 1914 2384 1821 
Q 2285 1728 2061 1549 
Q 1754 1299 1642 1203 
Q 1530 1107 698 358 
L 3021 358 
L 3021 0 
L 333 0 
L 333 339 
L 1683 1562 
Q 2144 1965 2368 2278 
Q 2592 2592 2592 2982 
Q 2592 3418 2278 3690 
Q 1965 3962 1498 3962 
Q 1069 3962 854 3693 
Q 640 3424 512 2938 
L 275 3226 
z
" transform="scale(0.015625)"/>
        <path id="CMUBright-Roman-35" d="M 301 518 
L 486 819 
Q 896 224 1581 224 
Q 1971 224 2268 473 
Q 2566 723 2566 1312 
Q 2566 1626 2489 1846 
Q 2413 2067 2285 2176 
Q 2157 2285 2032 2329 
Q 1907 2374 1773 2374 
Q 1210 2374 941 1901 
L 582 1901 
L 582 4192 
L 2797 4192 
L 2797 3853 
L 973 3853 
L 973 2381 
Q 1325 2701 1779 2701 
Q 2285 2701 2653 2291 
Q 3021 1882 3021 1306 
Q 3021 723 2601 307 
Q 2182 -109 1574 -109 
Q 813 -109 301 518 
z
" transform="scale(0.015625)"/>
       </defs>
       <use xlink:href="#CMUBright-Roman-30"/>
       <use xlink:href="#CMUBright-Roman-2e" x="52.499985"/>
       <use xlink:href="#CMUBright-Roman-32" x="81.699982"/>
       <use xlink:href="#CMUBright-Roman-35" x="134.199966"/>
      </g>
     </g>
    </g>
    <g id="xtick_3">
     <g id="line2d_3">
      <g>
       <use xlink:href="#me81d96e14f" x="164.379831" y="303.357661" style="fill: #5a5758; stroke: #5a5758; stroke-width: 0.8"/>
      </g>
     </g>
     <g id="text_3">
      <!-- 0.50 -->
      <g style="fill: #5a5758" transform="translate(150.382698 320.778491) scale(0.14994 -0.14994)">
       <use xlink:href="#CMUBright-Roman-30"/>
       <use xlink:href="#CMUBright-Roman-2e" x="52.499985"/>
       <use xlink:href="#CMUBright-Roman-35" x="81.699982"/>
       <use xlink:href="#CMUBright-Roman-30" x="134.199966"/>
      </g>
     </g>
    </g>
    <g id="xtick_4">
     <g id="line2d_4">
      <g>
       <use xlink:href="#me81d96e14f" x="211.650257" y="303.357661" style="fill: #5a5758; stroke: #5a5758; stroke-width: 0.8"/>
      </g>
     </g>
     <g id="text_4">
      <!-- 0.75 -->
      <g style="fill: #5a5758" transform="translate(197.653124 320.778491) scale(0.14994 -0.14994)">
       <defs>
        <path id="CMUBright-Roman-37" d="M 275 3840 
L 275 4192 
L 3072 4192 
L 3072 3853 
Q 2400 3149 1958 2147 
Q 1517 1146 1517 -51 
L 1088 -51 
Q 1088 1030 1523 2048 
Q 1958 3066 2797 3840 
L 275 3840 
z
" transform="scale(0.015625)"/>
       </defs>
       <use xlink:href="#CMUBright-Roman-30"/>
       <use xlink:href="#CMUBright-Roman-2e" x="52.499985"/>
       <use xlink:href="#CMUBright-Roman-37" x="81.699982"/>
       <use xlink:href="#CMUBright-Roman-35" x="134.199966"/>
      </g>
     </g>
    </g>
    <g id="xtick_5">
     <g id="line2d_5">
      <g>
       <use xlink:href="#me81d96e14f" x="258.920683" y="303.357661" style="fill: #5a5758; stroke: #5a5758; stroke-width: 0.8"/>
      </g>
     </g>
     <g id="text_5">
      <!-- 1.00 -->
      <g style="fill: #5a5758" transform="translate(244.92355 320.778491) scale(0.14994 -0.14994)">
       <defs>
        <path id="CMUBright-Roman-31" d="M 672 3558 
L 672 3885 
Q 1427 3885 1862 4301 
L 1965 4301 
L 1965 320 
L 2803 320 
L 2803 0 
L 710 0 
L 710 320 
L 1549 320 
L 1549 3744 
Q 1178 3558 672 3558 
z
" transform="scale(0.015625)"/>
       </defs>
       <use xlink:href="#CMUBright-Roman-31"/>
       <use xlink:href="#CMUBright-Roman-2e" x="52.499985"/>
       <use xlink:href="#CMUBright-Roman-30" x="81.699982"/>
       <use xlink:href="#CMUBright-Roman-30" x="134.199966"/>
      </g>
     </g>
    </g>
    <g id="xtick_6">
     <g id="line2d_6">
      <g>
       <use xlink:href="#me81d96e14f" x="306.191109" y="303.357661" style="fill: #5a5758; stroke: #5a5758; stroke-width: 0.8"/>
      </g>
     </g>
     <g id="text_6">
      <!-- 1.25 -->
      <g style="fill: #5a5758" transform="translate(292.193976 320.778491) scale(0.14994 -0.14994)">
       <use xlink:href="#CMUBright-Roman-31"/>
       <use xlink:href="#CMUBright-Roman-2e" x="52.499985"/>
       <use xlink:href="#CMUBright-Roman-32" x="81.699982"/>
       <use xlink:href="#CMUBright-Roman-35" x="134.199966"/>
      </g>
     </g>
    </g>
    <g id="xtick_7">
     <g id="line2d_7">
      <g>
       <use xlink:href="#me81d96e14f" x="353.461535" y="303.357661" style="fill: #5a5758; stroke: #5a5758; stroke-width: 0.8"/>
      </g>
     </g>
     <g id="text_7">
      <!-- 1.50 -->
      <g style="fill: #5a5758" transform="translate(339.464402 320.778491) scale(0.14994 -0.14994)">
       <use xlink:href="#CMUBright-Roman-31"/>
       <use xlink:href="#CMUBright-Roman-2e" x="52.499985"/>
       <use xlink:href="#CMUBright-Roman-35" x="81.699982"/>
       <use xlink:href="#CMUBright-Roman-30" x="134.199966"/>
      </g>
     </g>
    </g>
    <g id="xtick_8">
     <g id="line2d_8">
      <g>
       <use xlink:href="#me81d96e14f" x="400.731961" y="303.357661" style="fill: #5a5758; stroke: #5a5758; stroke-width: 0.8"/>
      </g>
     </g>
     <g id="text_8">
      <!-- 1.75 -->
      <g style="fill: #5a5758" transform="translate(386.734827 320.778491) scale(0.14994 -0.14994)">
       <use xlink:href="#CMUBright-Roman-31"/>
       <use xlink:href="#CMUBright-Roman-2e" x="52.499985"/>
       <use xlink:href="#CMUBright-Roman-37" x="81.699982"/>
       <use xlink:href="#CMUBright-Roman-35" x="134.199966"/>
      </g>
     </g>
    </g>
    <g id="xtick_9">
     <g id="line2d_9">
      <g>
       <use xlink:href="#me81d96e14f" x="448.002387" y="303.357661" style="fill: #5a5758; stroke: #5a5758; stroke-width: 0.8"/>
      </g>
     </g>
     <g id="text_9">
      <!-- 2.00 -->
      <g style="fill: #5a5758" transform="translate(434.005253 320.778491) scale(0.14994 -0.14994)">
       <use xlink:href="#CMUBright-Roman-32"/>
       <use xlink:href="#CMUBright-Roman-2e" x="52.499985"/>
       <use xlink:href="#CMUBright-Roman-30" x="81.699982"/>
       <use xlink:href="#CMUBright-Roman-30" x="134.199966"/>
      </g>
     </g>
    </g>
    <g id="text_10">
     <!-- $x$ -->
     <g style="fill: #5a5758" transform="translate(254.780683 343.792957) scale(0.18 -0.18)">
      <defs>
       <path id="CMUBright-SemiBold-78" d="M 0 0 
L 1184 1562 
L 1184 1568 
L 38 3021 
L 698 3021 
L 1446 2022 
L 2163 3021 
L 2816 3021 
L 1709 1568 
L 1709 1562 
L 2931 0 
L 2272 0 
L 1446 1197 
L 1440 1197 
L 653 0 
L 0 0 
z
" transform="scale(0.015625)"/>
      </defs>
      <use xlink:href="#CMUBright-SemiBold-78" transform="translate(0 0.796875)"/>
     </g>
    </g>
   </g>
   <g id="matplotlib.axis_2">
    <g id="ytick_1">
     <g id="line2d_10">
      <defs>
       <path id="mec38cb1c42" d="M 0 0 
L -3.5 0 
" style="stroke: #5a5758; stroke-width: 0.8"/>
      </defs>
      <g>
       <use xlink:href="#mec38cb1c42" x="57.838979" y="275.591369" style="fill: #5a5758; stroke: #5a5758; stroke-width: 0.8"/>
      </g>
     </g>
     <g id="text_11">
      <!-- 0.2 -->
      <g style="fill: #5a5758" transform="translate(30.716563 280.801784) scale(0.14994 -0.14994)">
       <use xlink:href="#CMUBright-Roman-30"/>
       <use xlink:href="#CMUBright-Roman-2e" x="52.499985"/>
       <use xlink:href="#CMUBright-Roman-32" x="81.699982"/>
      </g>
     </g>
    </g>
    <g id="ytick_2">
     <g id="line2d_11">
      <g>
       <use xlink:href="#mec38cb1c42" x="57.838979" y="232.015939" style="fill: #5a5758; stroke: #5a5758; stroke-width: 0.8"/>
      </g>
     </g>
     <g id="text_12">
      <!-- 0.3 -->
      <g style="fill: #5a5758" transform="translate(30.716563 237.226354) scale(0.14994 -0.14994)">
       <defs>
        <path id="CMUBright-Roman-33" d="M 282 653 
Q 282 666 285 685 
Q 288 704 304 774 
Q 320 845 339 941 
Q 557 640 861 464 
Q 1165 288 1341 256 
Q 1517 224 1683 224 
Q 2112 224 2368 486 
Q 2624 749 2624 1165 
Q 2624 1574 2381 1824 
Q 2138 2074 1773 2099 
L 1555 2106 
L 1114 2106 
L 1114 2426 
Q 1709 2470 1862 2528 
Q 2099 2618 2281 2838 
Q 2464 3059 2464 3360 
Q 2464 3642 2256 3811 
Q 2048 3981 1702 3981 
Q 973 3981 570 3258 
L 371 3539 
Q 845 4301 1702 4301 
Q 2202 4301 2544 4025 
Q 2886 3750 2886 3360 
Q 2886 3059 2704 2761 
Q 2522 2464 2106 2272 
Q 2579 2144 2825 1833 
Q 3072 1523 3072 1158 
Q 3072 666 2685 278 
Q 2298 -109 1690 -109 
Q 1402 -109 1126 -9 
Q 851 90 675 221 
Q 499 352 390 473 
Q 282 595 282 653 
z
" transform="scale(0.015625)"/>
       </defs>
       <use xlink:href="#CMUBright-Roman-30"/>
       <use xlink:href="#CMUBright-Roman-2e" x="52.499985"/>
       <use xlink:href="#CMUBright-Roman-33" x="81.699982"/>
      </g>
     </g>
    </g>
    <g id="ytick_3">
     <g id="line2d_12">
      <g>
       <use xlink:href="#mec38cb1c42" x="57.838979" y="188.440509" style="fill: #5a5758; stroke: #5a5758; stroke-width: 0.8"/>
      </g>
     </g>
     <g id="text_13">
      <!-- 0.4 -->
      <g style="fill: #5a5758" transform="translate(30.716563 193.650924) scale(0.14994 -0.14994)">
       <defs>
        <path id="CMUBright-Roman-34" d="M 186 1158 
L 186 1504 
L 1952 4250 
L 2438 4250 
L 2438 1498 
L 3168 1498 
L 3168 1158 
L 2438 1158 
L 2438 0 
L 2035 0 
L 2035 1158 
L 186 1158 
z
M 602 1498 
L 2054 1498 
L 2054 3885 
Q 1971 3667 1606 3085 
L 602 1498 
z
" transform="scale(0.015625)"/>
       </defs>
       <use xlink:href="#CMUBright-Roman-30"/>
       <use xlink:href="#CMUBright-Roman-2e" x="52.499985"/>
       <use xlink:href="#CMUBright-Roman-34" x="81.699982"/>
      </g>
     </g>
    </g>
    <g id="ytick_4">
     <g id="line2d_13">
      <g>
       <use xlink:href="#mec38cb1c42" x="57.838979" y="144.865079" style="fill: #5a5758; stroke: #5a5758; stroke-width: 0.8"/>
      </g>
     </g>
     <g id="text_14">
      <!-- 0.5 -->
      <g style="fill: #5a5758" transform="translate(30.716563 150.075494) scale(0.14994 -0.14994)">
       <use xlink:href="#CMUBright-Roman-30"/>
       <use xlink:href="#CMUBright-Roman-2e" x="52.499985"/>
       <use xlink:href="#CMUBright-Roman-35" x="81.699982"/>
      </g>
     </g>
    </g>
    <g id="ytick_5">
     <g id="line2d_14">
      <g>
       <use xlink:href="#mec38cb1c42" x="57.838979" y="101.28965" style="fill: #5a5758; stroke: #5a5758; stroke-width: 0.8"/>
      </g>
     </g>
     <g id="text_15">
      <!-- 0.6 -->
      <g style="fill: #5a5758" transform="translate(30.716563 106.500065) scale(0.14994 -0.14994)">
       <defs>
        <path id="CMUBright-Roman-36" d="M 346 2061 
Q 346 3072 864 3686 
Q 1382 4301 2074 4301 
L 2086 4301 
Q 2426 4301 2797 4179 
L 2797 3846 
Q 2374 3981 2074 3981 
L 2061 3981 
Q 1478 3981 1123 3491 
Q 768 3002 768 2208 
Q 768 2195 771 2166 
Q 774 2138 774 2125 
Q 928 2445 1238 2665 
Q 1549 2886 1952 2886 
Q 2387 2886 2682 2483 
Q 3008 2029 3008 1408 
Q 3008 768 2618 326 
Q 2240 -109 1690 -109 
Q 1510 -109 1340 -57 
Q 1171 -6 985 141 
Q 800 288 662 521 
Q 525 755 435 1152 
Q 346 1549 346 2061 
z
M 794 1389 
Q 813 1171 854 1004 
Q 896 838 985 643 
Q 1075 448 1254 336 
Q 1434 224 1690 224 
Q 2138 224 2381 550 
Q 2515 736 2550 921 
Q 2586 1107 2586 1434 
Q 2586 1645 2573 1776 
Q 2560 1907 2480 2089 
Q 2400 2272 2253 2400 
Q 2054 2566 1728 2566 
Q 1325 2566 1062 2265 
Q 800 1965 800 1555 
Q 800 1440 806 1389 
L 794 1389 
z
" transform="scale(0.015625)"/>
       </defs>
       <use xlink:href="#CMUBright-Roman-30"/>
       <use xlink:href="#CMUBright-Roman-2e" x="52.499985"/>
       <use xlink:href="#CMUBright-Roman-36" x="81.699982"/>
      </g>
     </g>
    </g>
    <g id="ytick_6">
     <g id="line2d_15">
      <g>
       <use xlink:href="#mec38cb1c42" x="57.838979" y="57.71422" style="fill: #5a5758; stroke: #5a5758; stroke-width: 0.8"/>
      </g>
     </g>
     <g id="text_16">
      <!-- 0.7 -->
      <g style="fill: #5a5758" transform="translate(30.716563 62.924635) scale(0.14994 -0.14994)">
       <use xlink:href="#CMUBright-Roman-30"/>
       <use xlink:href="#CMUBright-Roman-2e" x="52.499985"/>
       <use xlink:href="#CMUBright-Roman-37" x="81.699982"/>
      </g>
     </g>
    </g>
    <g id="ytick_7">
     <g id="line2d_16">
      <g>
       <use xlink:href="#mec38cb1c42" x="57.838979" y="14.13879" style="fill: #5a5758; stroke: #5a5758; stroke-width: 0.8"/>
      </g>
     </g>
     <g id="text_17">
      <!-- 0.8 -->
      <g style="fill: #5a5758" transform="translate(30.716563 19.349205) scale(0.14994 -0.14994)">
       <defs>
        <path id="CMUBright-Roman-38" d="M 275 1158 
Q 275 1517 518 1817 
Q 762 2118 1248 2266 
Q 909 2349 640 2598 
Q 371 2848 371 3206 
Q 371 3642 745 3971 
Q 1120 4301 1677 4301 
Q 2221 4301 2601 3981 
Q 2982 3661 2982 3213 
Q 2982 2918 2787 2684 
Q 2592 2451 2285 2323 
L 2099 2266 
Q 2464 2176 2768 1885 
Q 3072 1594 3072 1158 
Q 3072 646 2665 268 
Q 2259 -109 1670 -109 
Q 1075 -109 675 275 
Q 275 659 275 1158 
z
M 698 1158 
Q 698 704 970 464 
Q 1242 224 1670 224 
Q 2118 224 2384 470 
Q 2650 717 2650 1165 
Q 2650 1619 2371 1862 
Q 2093 2106 1670 2106 
Q 1280 2106 989 1878 
Q 698 1651 698 1158 
z
M 755 3206 
Q 755 2886 982 2656 
Q 1210 2426 1670 2426 
Q 2093 2426 2342 2634 
Q 2592 2842 2592 3206 
Q 2592 3507 2387 3744 
Q 2182 3981 1683 3981 
Q 1171 3981 963 3744 
Q 755 3507 755 3206 
z
" transform="scale(0.015625)"/>
       </defs>
       <use xlink:href="#CMUBright-Roman-30"/>
       <use xlink:href="#CMUBright-Roman-2e" x="52.499985"/>
       <use xlink:href="#CMUBright-Roman-38" x="81.699982"/>
      </g>
     </g>
    </g>
    <g id="text_18">
     <!-- $u$ -->
     <g style="fill: #5a5758" transform="translate(19.71 155.45883) rotate(-90) scale(0.18 -0.18)">
      <defs>
       <path id="CMUBright-SemiBold-75" d="M 410 838 
L 410 3021 
L 1024 3021 
L 1024 883 
Q 1030 570 1069 506 
Q 1139 403 1510 403 
Q 1888 403 2064 601 
Q 2240 800 2266 998 
Q 2272 1062 2272 1197 
L 2272 3021 
L 2886 3021 
L 2886 0 
L 2285 0 
L 2285 480 
Q 1830 -51 1088 -51 
Q 858 -51 710 29 
Q 563 109 502 262 
Q 442 416 426 537 
Q 410 659 410 838 
z
" transform="scale(0.015625)"/>
      </defs>
      <use xlink:href="#CMUBright-SemiBold-75" transform="translate(0 0.796875)"/>
     </g>
    </g>
   </g>
   <g id="line2d_17">
    <path d="M 69.838979 291.357661 
L 88.747149 278.555689 
L 107.65532 254.653892 
L 126.56349 222.465383 
L 145.471661 185.129744 
L 164.379831 145.611361 
L 183.288001 106.685941 
L 202.196172 71.234849 
L 221.104342 42.432295 
L 240.012513 23.474747 
L 258.920683 16.840702 
L 277.828853 23.474747 
L 296.737024 42.432295 
L 315.645194 71.234849 
L 334.553364 106.685941 
L 353.461535 145.611361 
L 372.369705 185.129757 
L 391.277876 222.465383 
L 410.186046 254.653892 
L 429.094216 278.555696 
L 448.002387 291.357661 
" style="fill: none; stroke: #e29400; stroke-width: 4; stroke-linecap: square"/>
    <defs>
     <path id="m0b5a0faa2d" d="M 0 3 
C 0.795609 3 1.55874 2.683901 2.12132 2.12132 
C 2.683901 1.55874 3 0.795609 3 0 
C 3 -0.795609 2.683901 -1.55874 2.12132 -2.12132 
C 1.55874 -2.683901 0.795609 -3 0 -3 
C -0.795609 -3 -1.55874 -2.683901 -2.12132 -2.12132 
C -2.683901 -1.55874 -3 -0.795609 -3 0 
C -3 0.795609 -2.683901 1.55874 -2.12132 2.12132 
C -1.55874 2.683901 -0.795609 3 0 3 
z
" style="stroke: #ffffff"/>
    </defs>
    <g>
     <use xlink:href="#m0b5a0faa2d" x="69.838979" y="291.357661" style="fill: #e29400; stroke: #ffffff"/>
     <use xlink:href="#m0b5a0faa2d" x="88.747149" y="278.555689" style="fill: #e29400; stroke: #ffffff"/>
     <use xlink:href="#m0b5a0faa2d" x="107.65532" y="254.653892" style="fill: #e29400; stroke: #ffffff"/>
     <use xlink:href="#m0b5a0faa2d" x="126.56349" y="222.465383" style="fill: #e29400; stroke: #ffffff"/>
     <use xlink:href="#m0b5a0faa2d" x="145.471661" y="185.129744" style="fill: #e29400; stroke: #ffffff"/>
     <use xlink:href="#m0b5a0faa2d" x="164.379831" y="145.611361" style="fill: #e29400; stroke: #ffffff"/>
     <use xlink:href="#m0b5a0faa2d" x="183.288001" y="106.685941" style="fill: #e29400; stroke: #ffffff"/>
     <use xlink:href="#m0b5a0faa2d" x="202.196172" y="71.234849" style="fill: #e29400; stroke: #ffffff"/>
     <use xlink:href="#m0b5a0faa2d" x="221.104342" y="42.432295" style="fill: #e29400; stroke: #ffffff"/>
     <use xlink:href="#m0b5a0faa2d" x="240.012513" y="23.474747" style="fill: #e29400; stroke: #ffffff"/>
     <use xlink:href="#m0b5a0faa2d" x="258.920683" y="16.840702" style="fill: #e29400; stroke: #ffffff"/>
     <use xlink:href="#m0b5a0faa2d" x="277.828853" y="23.474747" style="fill: #e29400; stroke: #ffffff"/>
     <use xlink:href="#m0b5a0faa2d" x="296.737024" y="42.432295" style="fill: #e29400; stroke: #ffffff"/>
     <use xlink:href="#m0b5a0faa2d" x="315.645194" y="71.234849" style="fill: #e29400; stroke: #ffffff"/>
     <use xlink:href="#m0b5a0faa2d" x="334.553364" y="106.685941" style="fill: #e29400; stroke: #ffffff"/>
     <use xlink:href="#m0b5a0faa2d" x="353.461535" y="145.611361" style="fill: #e29400; stroke: #ffffff"/>
     <use xlink:href="#m0b5a0faa2d" x="372.369705" y="185.129757" style="fill: #e29400; stroke: #ffffff"/>
     <use xlink:href="#m0b5a0faa2d" x="391.277876" y="222.465383" style="fill: #e29400; stroke: #ffffff"/>
     <use xlink:href="#m0b5a0faa2d" x="410.186046" y="254.653892" style="fill: #e29400; stroke: #ffffff"/>
     <use xlink:href="#m0b5a0faa2d" x="429.094216" y="278.555696" style="fill: #e29400; stroke: #ffffff"/>
     <use xlink:href="#m0b5a0faa2d" x="448.002387" y="291.357661" style="fill: #e29400; stroke: #ffffff"/>
    </g>
   </g>
   <g id="line2d_18">
    <path d="M 69.838979 221.770546 
L 88.747149 218.003872 
L 107.65532 207.078104 
L 126.56349 190.061691 
L 145.471661 168.62537 
L 164.379831 144.865079 
L 183.288001 121.104788 
L 202.196172 99.668468 
L 221.104342 82.652055 
L 240.012513 71.726286 
L 258.920683 67.959613 
L 277.828853 71.726286 
L 296.737024 82.652055 
L 315.645194 99.668468 
L 334.553364 121.104788 
L 353.461535 144.865079 
L 372.369705 168.62537 
L 391.277876 190.061691 
L 410.186046 207.078104 
L 429.094216 218.003872 
L 448.002387 221.770546 
" style="fill: none; stroke: #1e90ff; stroke-width: 2; stroke-linecap: square"/>
    <defs>
     <path id="mc97951dc3f" d="M 0 3 
C 0.795609 3 1.55874 2.683901 2.12132 2.12132 
C 2.683901 1.55874 3 0.795609 3 0 
C 3 -0.795609 2.683901 -1.55874 2.12132 -2.12132 
C 1.55874 -2.683901 0.795609 -3 0 -3 
C -0.795609 -3 -1.55874 -2.683901 -2.12132 -2.12132 
C -2.683901 -1.55874 -3 -0.795609 -3 0 
C -3 0.795609 -2.683901 1.55874 -2.12132 2.12132 
C -1.55874 2.683901 -0.795609 3 0 3 
z
" style="stroke: #ffffff"/>
    </defs>
    <g>
     <use xlink:href="#mc97951dc3f" x="69.838979" y="221.770546" style="fill: #1e90ff; stroke: #ffffff"/>
     <use xlink:href="#mc97951dc3f" x="88.747149" y="218.003872" style="fill: #1e90ff; stroke: #ffffff"/>
     <use xlink:href="#mc97951dc3f" x="107.65532" y="207.078104" style="fill: #1e90ff; stroke: #ffffff"/>
     <use xlink:href="#mc97951dc3f" x="126.56349" y="190.061691" style="fill: #1e90ff; stroke: #ffffff"/>
     <use xlink:href="#mc97951dc3f" x="145.471661" y="168.62537" style="fill: #1e90ff; stroke: #ffffff"/>
     <use xlink:href="#mc97951dc3f" x="164.379831" y="144.865079" style="fill: #1e90ff; stroke: #ffffff"/>
     <use xlink:href="#mc97951dc3f" x="183.288001" y="121.104788" style="fill: #1e90ff; stroke: #ffffff"/>
     <use xlink:href="#mc97951dc3f" x="202.196172" y="99.668468" style="fill: #1e90ff; stroke: #ffffff"/>
     <use xlink:href="#mc97951dc3f" x="221.104342" y="82.652055" style="fill: #1e90ff; stroke: #ffffff"/>
     <use xlink:href="#mc97951dc3f" x="240.012513" y="71.726286" style="fill: #1e90ff; stroke: #ffffff"/>
     <use xlink:href="#mc97951dc3f" x="258.920683" y="67.959613" style="fill: #1e90ff; stroke: #ffffff"/>
     <use xlink:href="#mc97951dc3f" x="277.828853" y="71.726286" style="fill: #1e90ff; stroke: #ffffff"/>
     <use xlink:href="#mc97951dc3f" x="296.737024" y="82.652055" style="fill: #1e90ff; stroke: #ffffff"/>
     <use xlink:href="#mc97951dc3f" x="315.645194" y="99.668468" style="fill: #1e90ff; stroke: #ffffff"/>
     <use xlink:href="#mc97951dc3f" x="334.553364" y="121.104788" style="fill: #1e90ff; stroke: #ffffff"/>
     <use xlink:href="#mc97951dc3f" x="353.461535" y="144.865079" style="fill: #1e90ff; stroke: #ffffff"/>
     <use xlink:href="#mc97951dc3f" x="372.369705" y="168.62537" style="fill: #1e90ff; stroke: #ffffff"/>
     <use xlink:href="#mc97951dc3f" x="391.277876" y="190.061691" style="fill: #1e90ff; stroke: #ffffff"/>
     <use xlink:href="#mc97951dc3f" x="410.186046" y="207.078104" style="fill: #1e90ff; stroke: #ffffff"/>
     <use xlink:href="#mc97951dc3f" x="429.094216" y="218.003872" style="fill: #1e90ff; stroke: #ffffff"/>
     <use xlink:href="#mc97951dc3f" x="448.002387" y="221.770546" style="fill: #1e90ff; stroke: #ffffff"/>
    </g>
   </g>
   <g id="line2d_19">
    <path d="M 69.838979 279.530159 
L 88.747149 272.358944 
L 107.65532 252.034581 
L 126.56349 221.588768 
L 145.471661 184.721905 
L 164.379831 144.865079 
L 183.288001 105.008254 
L 202.196172 68.141391 
L 221.104342 37.695578 
L 240.012513 17.371214 
L 258.920683 10.2 
L 277.828853 17.371214 
L 296.737024 37.695578 
L 315.645194 68.141391 
L 334.553364 105.008254 
L 353.461535 144.865079 
L 372.369705 184.721905 
L 391.277876 221.588768 
L 410.186046 252.034581 
L 429.094216 272.358944 
L 448.002387 279.530159 
" style="fill: none; stroke: #e21a1a; stroke-width: 2; stroke-linecap: square"/>
    <defs>
     <path id="m08943978ce" d="M 0 3 
C 0.795609 3 1.55874 2.683901 2.12132 2.12132 
C 2.683901 1.55874 3 0.795609 3 0 
C 3 -0.795609 2.683901 -1.55874 2.12132 -2.12132 
C 1.55874 -2.683901 0.795609 -3 0 -3 
C -0.795609 -3 -1.55874 -2.683901 -2.12132 -2.12132 
C -2.683901 -1.55874 -3 -0.795609 -3 0 
C -3 0.795609 -2.683901 1.55874 -2.12132 2.12132 
C -1.55874 2.683901 -0.795609 3 0 3 
z
" style="stroke: #ffffff"/>
    </defs>
    <g>
     <use xlink:href="#m08943978ce" x="69.838979" y="279.530159" style="fill: #e21a1a; stroke: #ffffff"/>
     <use xlink:href="#m08943978ce" x="88.747149" y="272.358944" style="fill: #e21a1a; stroke: #ffffff"/>
     <use xlink:href="#m08943978ce" x="107.65532" y="252.034581" style="fill: #e21a1a; stroke: #ffffff"/>
     <use xlink:href="#m08943978ce" x="126.56349" y="221.588768" style="fill: #e21a1a; stroke: #ffffff"/>
     <use xlink:href="#m08943978ce" x="145.471661" y="184.721905" style="fill: #e21a1a; stroke: #ffffff"/>
     <use xlink:href="#m08943978ce" x="164.379831" y="144.865079" style="fill: #e21a1a; stroke: #ffffff"/>
     <use xlink:href="#m08943978ce" x="183.288001" y="105.008254" style="fill: #e21a1a; stroke: #ffffff"/>
     <use xlink:href="#m08943978ce" x="202.196172" y="68.141391" style="fill: #e21a1a; stroke: #ffffff"/>
     <use xlink:href="#m08943978ce" x="221.104342" y="37.695578" style="fill: #e21a1a; stroke: #ffffff"/>
     <use xlink:href="#m08943978ce" x="240.012513" y="17.371214" style="fill: #e21a1a; stroke: #ffffff"/>
     <use xlink:href="#m08943978ce" x="258.920683" y="10.2" style="fill: #e21a1a; stroke: #ffffff"/>
     <use xlink:href="#m08943978ce" x="277.828853" y="17.371214" style="fill: #e21a1a; stroke: #ffffff"/>
     <use xlink:href="#m08943978ce" x="296.737024" y="37.695578" style="fill: #e21a1a; stroke: #ffffff"/>
     <use xlink:href="#m08943978ce" x="315.645194" y="68.141391" style="fill: #e21a1a; stroke: #ffffff"/>
     <use xlink:href="#m08943978ce" x="334.553364" y="105.008254" style="fill: #e21a1a; stroke: #ffffff"/>
     <use xlink:href="#m08943978ce" x="353.461535" y="144.865079" style="fill: #e21a1a; stroke: #ffffff"/>
     <use xlink:href="#m08943978ce" x="372.369705" y="184.721905" style="fill: #e21a1a; stroke: #ffffff"/>
     <use xlink:href="#m08943978ce" x="391.277876" y="221.588768" style="fill: #e21a1a; stroke: #ffffff"/>
     <use xlink:href="#m08943978ce" x="410.186046" y="252.034581" style="fill: #e21a1a; stroke: #ffffff"/>
     <use xlink:href="#m08943978ce" x="429.094216" y="272.358944" style="fill: #e21a1a; stroke: #ffffff"/>
     <use xlink:href="#m08943978ce" x="448.002387" y="279.530159" style="fill: #e21a1a; stroke: #ffffff"/>
    </g>
   </g>
   <g id="patch_3">
    <path d="M 57.838979 291.357661 
L 57.838979 10.2 
" style="fill: none; stroke: #5a5758; stroke-width: 0.8; stroke-linejoin: miter; stroke-linecap: square"/>
   </g>
   <g id="patch_4">
    <path d="M 69.838979 303.357661 
L 448.002387 303.357661 
" style="fill: none; stroke: #5a5758; stroke-width: 0.8; stroke-linejoin: miter; stroke-linecap: square"/>
   </g>
   <g id="legend_1">
    <g id="line2d_20">
     <path d="M 146.960683 212.571098 
L 164.960683 212.571098 
L 182.960683 212.571098 
" style="fill: none; stroke: #e29400; stroke-width: 4; stroke-linecap: square"/>
     <g>
      <use xlink:href="#m0b5a0faa2d" x="164.960683" y="212.571098" style="fill: #e29400; stroke: #ffffff"/>
     </g>
    </g>
    <g id="text_19">
     <!-- Measured data -->
     <g style="fill: #e29400" transform="translate(197.360683 218.871098) scale(0.18 -0.18)">
      <defs>
       <path id="CMUBright-Roman-4d" d="M 646 0 
L 646 4448 
L 1235 4448 
L 2528 1274 
L 2822 518 
L 2912 774 
L 4397 4448 
L 4992 4448 
L 4992 0 
L 4589 0 
L 4589 4032 
L 4090 2752 
L 3008 109 
L 2624 109 
L 1280 3418 
L 1050 4032 
L 1050 0 
L 646 0 
z
" transform="scale(0.015625)"/>
       <path id="CMUBright-Roman-65" d="M 269 1536 
Q 269 2163 646 2630 
Q 1024 3098 1587 3098 
Q 1786 3098 1968 3037 
Q 2150 2976 2342 2829 
Q 2534 2682 2652 2365 
Q 2771 2048 2771 1600 
L 653 1600 
L 653 1549 
Q 653 966 966 617 
Q 1280 269 1690 269 
Q 2234 269 2726 710 
L 2758 358 
Q 2266 -51 1690 -51 
Q 1101 -51 685 406 
Q 269 864 269 1536 
z
M 685 1856 
L 2426 1856 
Q 2381 2342 2134 2560 
Q 1888 2778 1587 2778 
Q 1261 2778 1008 2515 
Q 755 2253 685 1856 
z
" transform="scale(0.015625)"/>
       <path id="CMUBright-Roman-61" d="M 352 736 
Q 352 896 435 1046 
Q 518 1197 707 1347 
Q 896 1498 1283 1590 
Q 1670 1683 2214 1696 
L 2214 1965 
Q 2214 2381 2042 2579 
Q 1856 2803 1568 2803 
Q 1331 2803 1107 2736 
Q 883 2669 809 2624 
Q 736 2579 557 2470 
L 525 2829 
Q 1043 3104 1574 3104 
Q 2054 3104 2326 2806 
Q 2598 2509 2624 2144 
L 2630 1926 
L 2630 0 
L 2227 0 
L 2227 442 
Q 1830 -51 1107 -51 
L 1062 -51 
Q 710 -51 531 205 
Q 352 461 352 736 
z
M 749 749 
Q 749 518 950 393 
Q 1152 269 1408 269 
Q 1523 269 1644 297 
Q 1766 326 1904 390 
Q 2042 454 2128 595 
Q 2214 736 2214 928 
L 2214 1498 
Q 1568 1491 1158 1286 
Q 749 1082 749 749 
z
" transform="scale(0.015625)"/>
       <path id="CMUBright-Roman-73" d="M 186 250 
L 250 621 
Q 787 282 1325 282 
Q 1715 282 1881 442 
Q 2048 602 2048 806 
Q 2048 998 1910 1120 
Q 1773 1242 1606 1299 
Q 1536 1318 1235 1372 
Q 934 1427 726 1523 
Q 518 1619 371 1818 
Q 224 2022 224 2253 
Q 224 2400 272 2531 
Q 320 2662 429 2800 
Q 538 2938 765 3021 
Q 992 3104 1312 3104 
L 1331 3104 
Q 1818 3104 2304 2886 
L 2240 2534 
Q 1747 2784 1267 2784 
Q 890 2784 742 2633 
Q 595 2483 595 2304 
Q 595 2163 697 2038 
Q 800 1914 998 1856 
Q 1037 1843 1344 1782 
Q 1651 1722 1760 1683 
Q 2029 1587 2224 1372 
Q 2419 1158 2419 845 
Q 2419 499 2172 224 
Q 1926 -51 1331 -51 
Q 736 -51 186 250 
z
" transform="scale(0.015625)"/>
       <path id="CMUBright-Roman-75" d="M 512 851 
L 512 3021 
L 928 3021 
L 928 781 
Q 928 486 1037 368 
Q 1146 250 1517 250 
Q 1875 250 2124 477 
Q 2374 704 2374 1120 
L 2374 3021 
L 2784 3021 
L 2784 0 
L 2381 0 
L 2381 550 
Q 2214 269 1910 109 
Q 1606 -51 1254 -51 
Q 1005 -51 845 29 
Q 685 109 617 262 
Q 550 416 531 541 
Q 512 666 512 851 
z
" transform="scale(0.015625)"/>
       <path id="CMUBright-Roman-72" d="M 512 0 
L 512 3021 
L 896 3021 
L 896 2534 
L 902 2234 
Q 954 2362 1043 2490 
Q 1133 2618 1273 2755 
Q 1414 2893 1632 2979 
Q 1850 3066 2112 3072 
L 2112 2714 
Q 1907 2707 1708 2643 
Q 1510 2579 1324 2444 
Q 1139 2310 1027 2070 
Q 915 1830 915 1510 
L 915 0 
L 512 0 
z
" transform="scale(0.015625)"/>
       <path id="CMUBright-Roman-64" d="M 294 1510 
Q 294 2189 659 2630 
Q 1024 3072 1504 3072 
Q 2016 3072 2381 2624 
L 2381 4448 
L 2784 4448 
L 2784 0 
L 2374 0 
L 2374 269 
L 2368 467 
Q 2016 -51 1459 -51 
Q 966 -51 630 413 
Q 294 877 294 1510 
z
M 710 1510 
Q 710 1139 809 876 
Q 909 614 1065 492 
Q 1222 371 1369 320 
Q 1517 269 1664 269 
Q 2022 269 2259 582 
Q 2278 614 2304 652 
Q 2330 691 2339 707 
Q 2349 723 2358 752 
Q 2368 781 2371 816 
Q 2374 851 2374 902 
L 2374 2253 
Q 2374 2438 2179 2595 
Q 1984 2752 1722 2752 
Q 1619 2752 1504 2726 
Q 1389 2701 1241 2621 
Q 1094 2541 982 2413 
Q 870 2285 790 2048 
Q 710 1811 710 1510 
z
" transform="scale(0.015625)"/>
       <path id="CMUBright-Roman-20" transform="scale(0.015625)"/>
       <path id="CMUBright-Roman-74" d="M 122 2701 
L 122 3021 
L 736 3021 
L 736 3885 
L 1126 3885 
L 1126 3021 
L 2118 3021 
L 2118 2701 
L 1126 2701 
L 1126 883 
Q 1126 282 1491 282 
Q 1568 282 1638 291 
Q 1709 301 1769 323 
Q 1830 346 1878 365 
Q 1926 384 1974 416 
Q 2022 448 2048 464 
Q 2074 480 2109 512 
Q 2144 544 2150 544 
L 2234 230 
Q 1779 -51 1261 -51 
Q 730 -51 730 838 
L 730 2701 
L 122 2701 
z
" transform="scale(0.015625)"/>
      </defs>
      <use xlink:href="#CMUBright-Roman-4d"/>
      <use xlink:href="#CMUBright-Roman-65" x="88.299988"/>
      <use xlink:href="#CMUBright-Roman-61" x="134.999985"/>
      <use xlink:href="#CMUBright-Roman-73" x="184.199982"/>
      <use xlink:href="#CMUBright-Roman-75" x="224.399979"/>
      <use xlink:href="#CMUBright-Roman-72" x="276.099976"/>
      <use xlink:href="#CMUBright-Roman-65" x="310.699966"/>
      <use xlink:href="#CMUBright-Roman-64" x="357.399963"/>
      <use xlink:href="#CMUBright-Roman-20" x="409.09996"/>
      <use xlink:href="#CMUBright-Roman-64" x="442.399948"/>
      <use xlink:href="#CMUBright-Roman-61" x="494.099945"/>
      <use xlink:href="#CMUBright-Roman-74" x="543.299942"/>
      <use xlink:href="#CMUBright-Roman-61" x="581.199936"/>
     </g>
    </g>
    <g id="line2d_21">
     <path d="M 146.960683 238.077661 
L 164.960683 238.077661 
L 182.960683 238.077661 
" style="fill: none; stroke: #1e90ff; stroke-width: 2; stroke-linecap: square"/>
     <g>
      <use xlink:href="#mc97951dc3f" x="164.960683" y="238.077661" style="fill: #1e90ff; stroke: #ffffff"/>
     </g>
    </g>
    <g id="text_20">
     <!-- Initial guess ($\nu_0 = 0.7$) -->
     <g style="fill: #1e90ff" transform="translate(197.360683 244.377661) scale(0.18 -0.18)">
      <defs>
       <path id="CMUBright-Roman-49" d="M 627 0 
L 627 4448 
L 1075 4448 
L 1075 0 
L 627 0 
z
" transform="scale(0.015625)"/>
       <path id="CMUBright-Roman-6e" d="M 512 0 
L 512 3021 
L 909 3021 
L 909 2400 
Q 1030 2682 1273 2877 
Q 1517 3072 1869 3072 
Q 2125 3072 2307 2992 
Q 2490 2912 2579 2809 
Q 2669 2707 2720 2540 
Q 2771 2374 2777 2272 
Q 2784 2170 2784 2016 
L 2784 0 
L 2374 0 
L 2374 1990 
Q 2374 2106 2371 2176 
Q 2368 2246 2329 2368 
Q 2291 2490 2220 2563 
Q 2150 2637 2006 2694 
Q 1862 2752 1658 2752 
Q 1370 2752 1149 2518 
Q 928 2285 928 1677 
L 928 0 
L 512 0 
z
" transform="scale(0.015625)"/>
       <path id="CMUBright-Roman-69" d="M 509 4019 
L 509 4422 
L 912 4422 
L 912 4019 
L 509 4019 
z
M 512 0 
L 512 3021 
L 915 3021 
L 915 0 
L 512 0 
z
" transform="scale(0.015625)"/>
       <path id="CMUBright-Roman-6c" d="M 512 0 
L 512 4448 
L 915 4448 
L 915 0 
L 512 0 
z
" transform="scale(0.015625)"/>
       <path id="CMUBright-Roman-67" d="M 294 1517 
Q 294 2176 675 2624 
Q 1056 3072 1555 3072 
Q 2074 3072 2381 2515 
L 2381 3072 
L 2784 3072 
L 2784 58 
Q 2784 -499 2461 -838 
Q 2138 -1178 1645 -1178 
Q 1056 -1178 461 -890 
L 461 -544 
Q 653 -640 771 -694 
Q 890 -749 1133 -803 
Q 1376 -858 1632 -858 
Q 1933 -858 2153 -627 
Q 2374 -397 2374 77 
L 2374 576 
L 2368 800 
Q 2266 538 2051 323 
Q 1837 109 1485 109 
Q 1005 109 649 515 
Q 294 922 294 1517 
z
M 710 1517 
Q 710 1050 1001 739 
Q 1293 429 1664 429 
Q 1862 429 2009 537 
Q 2157 646 2230 828 
Q 2304 1011 2339 1200 
Q 2374 1389 2374 1600 
L 2381 1600 
L 2381 2022 
Q 2381 2253 2214 2502 
Q 2048 2752 1741 2752 
Q 1331 2752 1020 2393 
Q 710 2035 710 1517 
z
" transform="scale(0.015625)"/>
       <path id="CMUBright-Roman-28" d="M 582 1690 
Q 582 3731 1914 4800 
L 2234 4800 
Q 1926 4512 1773 4314 
Q 992 3296 992 1702 
Q 992 -288 2202 -1395 
Q 2227 -1414 2234 -1421 
L 1914 -1421 
Q 1242 -877 912 -70 
Q 582 736 582 1690 
z
" transform="scale(0.015625)"/>
       <path id="CMUBright-Roman-3bd" d="M 0 3021 
L 563 3021 
Q 634 2963 688 2908 
Q 742 2854 784 2793 
Q 826 2733 851 2701 
Q 877 2669 905 2601 
Q 934 2534 940 2521 
Q 947 2509 973 2432 
L 998 2355 
L 1632 493 
Q 1677 557 1881 825 
Q 2086 1094 2211 1280 
Q 2336 1466 2457 1757 
Q 2579 2048 2579 2291 
Q 2579 2355 2477 3021 
L 2893 3021 
Q 2982 2458 2982 2368 
Q 2982 2074 2844 1718 
Q 2707 1363 2556 1129 
Q 2406 896 2144 518 
Q 1882 141 1792 0 
L 1376 0 
L 634 2157 
Q 525 2470 432 2598 
Q 339 2726 0 3021 
z
" transform="scale(0.015625)"/>
       <path id="CMUBright-Roman-3d" d="M 378 1062 
Q 378 1229 576 1229 
L 3533 1229 
Q 3725 1222 3725 1062 
Q 3725 909 3514 909 
L 589 909 
Q 378 909 378 1062 
z
M 378 2304 
Q 378 2470 582 2470 
L 3533 2470 
Q 3725 2464 3725 2304 
Q 3725 2150 3514 2150 
L 589 2150 
Q 378 2150 378 2304 
z
" transform="scale(0.015625)"/>
       <path id="CMUBright-Roman-29" d="M 371 -1421 
Q 762 -1069 986 -717 
Q 1613 262 1613 1702 
Q 1613 3693 410 4768 
Q 378 4794 371 4800 
L 691 4800 
Q 1363 4262 1692 3459 
Q 2022 2656 2022 1702 
Q 2022 813 1715 -16 
Q 1408 -845 691 -1421 
L 371 -1421 
z
" transform="scale(0.015625)"/>
      </defs>
      <use xlink:href="#CMUBright-Roman-49"/>
      <use xlink:href="#CMUBright-Roman-6e" transform="translate(26.699997 0)"/>
      <use xlink:href="#CMUBright-Roman-69" transform="translate(78.399994 0)"/>
      <use xlink:href="#CMUBright-Roman-74" transform="translate(100.899979 0)"/>
      <use xlink:href="#CMUBright-Roman-69" transform="translate(138.799973 0)"/>
      <use xlink:href="#CMUBright-Roman-61" transform="translate(161.299957 0)"/>
      <use xlink:href="#CMUBright-Roman-6c" transform="translate(210.499954 0)"/>
      <use xlink:href="#CMUBright-Roman-20" transform="translate(232.999939 0)"/>
      <use xlink:href="#CMUBright-Roman-67" transform="translate(266.299927 0)"/>
      <use xlink:href="#CMUBright-Roman-75" transform="translate(317.999924 0)"/>
      <use xlink:href="#CMUBright-Roman-65" transform="translate(369.699921 0)"/>
      <use xlink:href="#CMUBright-Roman-73" transform="translate(416.399918 0)"/>
      <use xlink:href="#CMUBright-Roman-73" transform="translate(456.599915 0)"/>
      <use xlink:href="#CMUBright-Roman-20" transform="translate(496.799911 0)"/>
      <use xlink:href="#CMUBright-Roman-28" transform="translate(530.099899 0)"/>
      <use xlink:href="#CMUBright-Roman-3bd" transform="translate(570.899887 0)"/>
      <use xlink:href="#CMUBright-Roman-30" transform="translate(621.325933 -14.160938) scale(0.7)"/>
      <use xlink:href="#CMUBright-Roman-3d" transform="translate(679.9185 0)"/>
      <use xlink:href="#CMUBright-Roman-30" transform="translate(763.600919 0)"/>
      <use xlink:href="#CMUBright-Roman-2e" transform="translate(816.100904 0)"/>
      <use xlink:href="#CMUBright-Roman-37" transform="translate(845.300901 0)"/>
      <use xlink:href="#CMUBright-Roman-29" transform="translate(897.800885 0)"/>
     </g>
    </g>
    <g id="line2d_22">
     <path d="M 146.960683 264.717661 
L 164.960683 264.717661 
L 182.960683 264.717661 
" style="fill: none; stroke: #e21a1a; stroke-width: 2; stroke-linecap: square"/>
     <g>
      <use xlink:href="#m08943978ce" x="164.960683" y="264.717661" style="fill: #e21a1a; stroke: #ffffff"/>
     </g>
    </g>
    <g id="text_21">
     <!-- Final guess ($\nu_0 = 0.25$) -->
     <g style="fill: #e21a1a" transform="translate(197.360683 271.017661) scale(0.18 -0.18)">
      <defs>
       <path id="CMUBright-Roman-46" d="M 627 0 
L 627 4435 
L 3533 4435 
L 3533 4096 
L 1075 4096 
L 1075 2387 
L 3251 2387 
L 3251 2048 
L 1075 2048 
L 1075 0 
L 627 0 
z
" transform="scale(0.015625)"/>
      </defs>
      <use xlink:href="#CMUBright-Roman-46"/>
      <use xlink:href="#CMUBright-Roman-69" transform="translate(59.599991 0)"/>
      <use xlink:href="#CMUBright-Roman-6e" transform="translate(82.099976 0)"/>
      <use xlink:href="#CMUBright-Roman-61" transform="translate(133.799973 0)"/>
      <use xlink:href="#CMUBright-Roman-6c" transform="translate(182.999969 0)"/>
      <use xlink:href="#CMUBright-Roman-20" transform="translate(205.499954 0)"/>
      <use xlink:href="#CMUBright-Roman-67" transform="translate(238.799942 0)"/>
      <use xlink:href="#CMUBright-Roman-75" transform="translate(290.499939 0)"/>
      <use xlink:href="#CMUBright-Roman-65" transform="translate(342.199936 0)"/>
      <use xlink:href="#CMUBright-Roman-73" transform="translate(388.899933 0)"/>
      <use xlink:href="#CMUBright-Roman-73" transform="translate(429.09993 0)"/>
      <use xlink:href="#CMUBright-Roman-20" transform="translate(469.299927 0)"/>
      <use xlink:href="#CMUBright-Roman-28" transform="translate(502.599915 0)"/>
      <use xlink:href="#CMUBright-Roman-3bd" transform="translate(543.399902 0)"/>
      <use xlink:href="#CMUBright-Roman-30" transform="translate(593.825948 -14.160938) scale(0.7)"/>
      <use xlink:href="#CMUBright-Roman-3d" transform="translate(652.418515 0)"/>
      <use xlink:href="#CMUBright-Roman-30" transform="translate(736.100934 0)"/>
      <use xlink:href="#CMUBright-Roman-2e" transform="translate(788.600919 0)"/>
      <use xlink:href="#CMUBright-Roman-32" transform="translate(817.800916 0)"/>
      <use xlink:href="#CMUBright-Roman-35" transform="translate(870.300901 0)"/>
      <use xlink:href="#CMUBright-Roman-29" transform="translate(922.800885 0)"/>
     </g>
    </g>
   </g>
  </g>
 </g>
</svg>